%TF.GenerationSoftware,KiCad,Pcbnew,(5.1.7)-1*%
%TF.CreationDate,2021-08-17T00:51:46+02:00*%
%TF.ProjectId,saba_az553,73616261-5f61-47a3-9535-332e6b696361,rev?*%
%TF.SameCoordinates,Original*%
%TF.FileFunction,Legend,Top*%
%TF.FilePolarity,Positive*%
%FSLAX46Y46*%
G04 Gerber Fmt 4.6, Leading zero omitted, Abs format (unit mm)*
G04 Created by KiCad (PCBNEW (5.1.7)-1) date 2021-08-17 00:51:46*
%MOMM*%
%LPD*%
G01*
G04 APERTURE LIST*
%ADD10C,0.150000*%
%ADD11C,0.120000*%
%ADD12R,1.200000X0.900000*%
%ADD13R,0.900000X1.200000*%
%ADD14R,0.600000X0.700000*%
%ADD15C,0.100000*%
%ADD16C,1.900000*%
%ADD17O,1.900000X1.900000*%
G04 APERTURE END LIST*
D10*
X76701904Y-42652380D02*
X76701904Y-41652380D01*
X76940000Y-41652380D01*
X77082857Y-41700000D01*
X77178095Y-41795238D01*
X77225714Y-41890476D01*
X77273333Y-42080952D01*
X77273333Y-42223809D01*
X77225714Y-42414285D01*
X77178095Y-42509523D01*
X77082857Y-42604761D01*
X76940000Y-42652380D01*
X76701904Y-42652380D01*
X78225714Y-42652380D02*
X77654285Y-42652380D01*
X77940000Y-42652380D02*
X77940000Y-41652380D01*
X77844761Y-41795238D01*
X77749523Y-41890476D01*
X77654285Y-41938095D01*
X79241904Y-42652380D02*
X79241904Y-41652380D01*
X79480000Y-41652380D01*
X79622857Y-41700000D01*
X79718095Y-41795238D01*
X79765714Y-41890476D01*
X79813333Y-42080952D01*
X79813333Y-42223809D01*
X79765714Y-42414285D01*
X79718095Y-42509523D01*
X79622857Y-42604761D01*
X79480000Y-42652380D01*
X79241904Y-42652380D01*
X80194285Y-41747619D02*
X80241904Y-41700000D01*
X80337142Y-41652380D01*
X80575238Y-41652380D01*
X80670476Y-41700000D01*
X80718095Y-41747619D01*
X80765714Y-41842857D01*
X80765714Y-41938095D01*
X80718095Y-42080952D01*
X80146666Y-42652380D01*
X80765714Y-42652380D01*
X81781904Y-42652380D02*
X81781904Y-41652380D01*
X82020000Y-41652380D01*
X82162857Y-41700000D01*
X82258095Y-41795238D01*
X82305714Y-41890476D01*
X82353333Y-42080952D01*
X82353333Y-42223809D01*
X82305714Y-42414285D01*
X82258095Y-42509523D01*
X82162857Y-42604761D01*
X82020000Y-42652380D01*
X81781904Y-42652380D01*
X83210476Y-41985714D02*
X83210476Y-42652380D01*
X82972380Y-41604761D02*
X82734285Y-42319047D01*
X83353333Y-42319047D01*
X84321904Y-42652380D02*
X84321904Y-41652380D01*
X84560000Y-41652380D01*
X84702857Y-41700000D01*
X84798095Y-41795238D01*
X84845714Y-41890476D01*
X84893333Y-42080952D01*
X84893333Y-42223809D01*
X84845714Y-42414285D01*
X84798095Y-42509523D01*
X84702857Y-42604761D01*
X84560000Y-42652380D01*
X84321904Y-42652380D01*
X85798095Y-41652380D02*
X85321904Y-41652380D01*
X85274285Y-42128571D01*
X85321904Y-42080952D01*
X85417142Y-42033333D01*
X85655238Y-42033333D01*
X85750476Y-42080952D01*
X85798095Y-42128571D01*
X85845714Y-42223809D01*
X85845714Y-42461904D01*
X85798095Y-42557142D01*
X85750476Y-42604761D01*
X85655238Y-42652380D01*
X85417142Y-42652380D01*
X85321904Y-42604761D01*
X85274285Y-42557142D01*
X86861904Y-42652380D02*
X86861904Y-41652380D01*
X87100000Y-41652380D01*
X87242857Y-41700000D01*
X87338095Y-41795238D01*
X87385714Y-41890476D01*
X87433333Y-42080952D01*
X87433333Y-42223809D01*
X87385714Y-42414285D01*
X87338095Y-42509523D01*
X87242857Y-42604761D01*
X87100000Y-42652380D01*
X86861904Y-42652380D01*
X87766666Y-41652380D02*
X88385714Y-41652380D01*
X88052380Y-42033333D01*
X88195238Y-42033333D01*
X88290476Y-42080952D01*
X88338095Y-42128571D01*
X88385714Y-42223809D01*
X88385714Y-42461904D01*
X88338095Y-42557142D01*
X88290476Y-42604761D01*
X88195238Y-42652380D01*
X87909523Y-42652380D01*
X87814285Y-42604761D01*
X87766666Y-42557142D01*
X69058095Y-42652380D02*
X69058095Y-41652380D01*
X69296190Y-41652380D01*
X69439047Y-41700000D01*
X69534285Y-41795238D01*
X69581904Y-41890476D01*
X69629523Y-42080952D01*
X69629523Y-42223809D01*
X69581904Y-42414285D01*
X69534285Y-42509523D01*
X69439047Y-42604761D01*
X69296190Y-42652380D01*
X69058095Y-42652380D01*
X70058095Y-42652380D02*
X70058095Y-41652380D01*
X70439047Y-41652380D01*
X70534285Y-41700000D01*
X70581904Y-41747619D01*
X70629523Y-41842857D01*
X70629523Y-41985714D01*
X70581904Y-42080952D01*
X70534285Y-42128571D01*
X70439047Y-42176190D01*
X70058095Y-42176190D01*
X64811428Y-42128571D02*
X64954285Y-42176190D01*
X65001904Y-42223809D01*
X65049523Y-42319047D01*
X65049523Y-42461904D01*
X65001904Y-42557142D01*
X64954285Y-42604761D01*
X64859047Y-42652380D01*
X64478095Y-42652380D01*
X64478095Y-41652380D01*
X64811428Y-41652380D01*
X64906666Y-41700000D01*
X64954285Y-41747619D01*
X65001904Y-41842857D01*
X65001904Y-41938095D01*
X64954285Y-42033333D01*
X64906666Y-42080952D01*
X64811428Y-42128571D01*
X64478095Y-42128571D01*
X62509523Y-42557142D02*
X62461904Y-42604761D01*
X62319047Y-42652380D01*
X62223809Y-42652380D01*
X62080952Y-42604761D01*
X61985714Y-42509523D01*
X61938095Y-42414285D01*
X61890476Y-42223809D01*
X61890476Y-42080952D01*
X61938095Y-41890476D01*
X61985714Y-41795238D01*
X62080952Y-41700000D01*
X62223809Y-41652380D01*
X62319047Y-41652380D01*
X62461904Y-41700000D01*
X62509523Y-41747619D01*
X59421904Y-42366666D02*
X59898095Y-42366666D01*
X59326666Y-42652380D02*
X59660000Y-41652380D01*
X59993333Y-42652380D01*
X56858095Y-42652380D02*
X56858095Y-41652380D01*
X57096190Y-41652380D01*
X57239047Y-41700000D01*
X57334285Y-41795238D01*
X57381904Y-41890476D01*
X57429523Y-42080952D01*
X57429523Y-42223809D01*
X57381904Y-42414285D01*
X57334285Y-42509523D01*
X57239047Y-42604761D01*
X57096190Y-42652380D01*
X56858095Y-42652380D01*
X54365714Y-42128571D02*
X54699047Y-42128571D01*
X54841904Y-42652380D02*
X54365714Y-42652380D01*
X54365714Y-41652380D01*
X54841904Y-41652380D01*
X52182857Y-42128571D02*
X51849523Y-42128571D01*
X51849523Y-42652380D02*
X51849523Y-41652380D01*
X52325714Y-41652380D01*
X49761904Y-41700000D02*
X49666666Y-41652380D01*
X49523809Y-41652380D01*
X49380952Y-41700000D01*
X49285714Y-41795238D01*
X49238095Y-41890476D01*
X49190476Y-42080952D01*
X49190476Y-42223809D01*
X49238095Y-42414285D01*
X49285714Y-42509523D01*
X49380952Y-42604761D01*
X49523809Y-42652380D01*
X49619047Y-42652380D01*
X49761904Y-42604761D01*
X49809523Y-42557142D01*
X49809523Y-42223809D01*
X49619047Y-42223809D01*
D11*
%TO.C,R8*%
X39500000Y-42820000D02*
X40500000Y-42820000D01*
X40500000Y-44180000D02*
X39500000Y-44180000D01*
%TO.C,R7*%
X23680000Y-43000000D02*
X23680000Y-44000000D01*
X22320000Y-44000000D02*
X22320000Y-43000000D01*
%TO.C,R6*%
X92180000Y-43000000D02*
X92180000Y-44000000D01*
X90820000Y-44000000D02*
X90820000Y-43000000D01*
%TO.C,R5*%
X94680000Y-43000000D02*
X94680000Y-44000000D01*
X93320000Y-44000000D02*
X93320000Y-43000000D01*
%TO.C,R4*%
X44500000Y-42820000D02*
X45500000Y-42820000D01*
X45500000Y-44180000D02*
X44500000Y-44180000D01*
%TO.C,R3*%
X26180000Y-43000000D02*
X26180000Y-44000000D01*
X24820000Y-44000000D02*
X24820000Y-43000000D01*
%TO.C,R2*%
X28680000Y-43000000D02*
X28680000Y-44000000D01*
X27320000Y-44000000D02*
X27320000Y-43000000D01*
%TO.C,R1*%
X31180000Y-43000000D02*
X31180000Y-44000000D01*
X29820000Y-44000000D02*
X29820000Y-43000000D01*
%TO.C,D38*%
X26650000Y-30650000D02*
X26650000Y-31550000D01*
X26650000Y-31550000D02*
X28100000Y-31550000D01*
X26650000Y-30650000D02*
X28100000Y-30650000D01*
%TO.C,D37*%
X31450000Y-36350000D02*
X31450000Y-37250000D01*
X31450000Y-37250000D02*
X32900000Y-37250000D01*
X31450000Y-36350000D02*
X32900000Y-36350000D01*
%TO.C,D36*%
X26529850Y-35083136D02*
X27422150Y-35200609D01*
X27422150Y-35200609D02*
X27611413Y-33763014D01*
X26529850Y-35083136D02*
X26719113Y-33645541D01*
%TO.C,D35*%
X27329850Y-28883136D02*
X28222150Y-29000609D01*
X28222150Y-29000609D02*
X28411413Y-27563014D01*
X27329850Y-28883136D02*
X27519113Y-27445541D01*
%TO.C,D34*%
X30029850Y-35183136D02*
X30922150Y-35300609D01*
X30922150Y-35300609D02*
X31111413Y-33863014D01*
X30029850Y-35183136D02*
X30219113Y-33745541D01*
%TO.C,D33*%
X46650000Y-36350000D02*
X46650000Y-37250000D01*
X46650000Y-37250000D02*
X48100000Y-37250000D01*
X46650000Y-36350000D02*
X48100000Y-36350000D01*
%TO.C,D32*%
X41150000Y-36350000D02*
X41150000Y-37250000D01*
X41150000Y-37250000D02*
X42600000Y-37250000D01*
X41150000Y-36350000D02*
X42600000Y-36350000D01*
%TO.C,D31*%
X38529850Y-35183136D02*
X39422150Y-35300609D01*
X39422150Y-35300609D02*
X39611413Y-33863014D01*
X38529850Y-35183136D02*
X38719113Y-33745541D01*
%TO.C,D30*%
X45229850Y-35183136D02*
X46122150Y-35300609D01*
X46122150Y-35300609D02*
X46311413Y-33863014D01*
X45229850Y-35183136D02*
X45419113Y-33745541D01*
%TO.C,D29*%
X39229850Y-28783136D02*
X40122150Y-28900609D01*
X40122150Y-28900609D02*
X40311413Y-27463014D01*
X39229850Y-28783136D02*
X39419113Y-27345541D01*
%TO.C,D28*%
X41850000Y-30650000D02*
X41850000Y-31550000D01*
X41850000Y-31550000D02*
X43300000Y-31550000D01*
X41850000Y-30650000D02*
X43300000Y-30650000D01*
%TO.C,D27*%
X45929850Y-28783136D02*
X46822150Y-28900609D01*
X46822150Y-28900609D02*
X47011413Y-27463014D01*
X45929850Y-28783136D02*
X46119113Y-27345541D01*
%TO.C,D26*%
X61850000Y-36350000D02*
X61850000Y-37250000D01*
X61850000Y-37250000D02*
X63300000Y-37250000D01*
X61850000Y-36350000D02*
X63300000Y-36350000D01*
%TO.C,D25*%
X56350000Y-36350000D02*
X56350000Y-37250000D01*
X56350000Y-37250000D02*
X57800000Y-37250000D01*
X56350000Y-36350000D02*
X57800000Y-36350000D01*
%TO.C,D24*%
X53729850Y-35183136D02*
X54622150Y-35300609D01*
X54622150Y-35300609D02*
X54811413Y-33863014D01*
X53729850Y-35183136D02*
X53919113Y-33745541D01*
%TO.C,D23*%
X60429850Y-35183136D02*
X61322150Y-35300609D01*
X61322150Y-35300609D02*
X61511413Y-33863014D01*
X60429850Y-35183136D02*
X60619113Y-33745541D01*
%TO.C,D22*%
X57050000Y-30650000D02*
X57050000Y-31550000D01*
X57050000Y-31550000D02*
X58500000Y-31550000D01*
X57050000Y-30650000D02*
X58500000Y-30650000D01*
%TO.C,D21*%
X54429850Y-28783136D02*
X55322150Y-28900609D01*
X55322150Y-28900609D02*
X55511413Y-27463014D01*
X54429850Y-28783136D02*
X54619113Y-27345541D01*
%TO.C,D20*%
X42550000Y-24950000D02*
X42550000Y-25850000D01*
X42550000Y-25850000D02*
X44000000Y-25850000D01*
X42550000Y-24950000D02*
X44000000Y-24950000D01*
%TO.C,D19*%
X57750000Y-24950000D02*
X57750000Y-25850000D01*
X57750000Y-25850000D02*
X59200000Y-25850000D01*
X57750000Y-24950000D02*
X59200000Y-24950000D01*
%TO.C,D18*%
X61129850Y-28783136D02*
X62022150Y-28900609D01*
X62022150Y-28900609D02*
X62211413Y-27463014D01*
X61129850Y-28783136D02*
X61319113Y-27345541D01*
%TO.C,D17*%
X30729850Y-28783136D02*
X31622150Y-28900609D01*
X31622150Y-28900609D02*
X31811413Y-27463014D01*
X30729850Y-28783136D02*
X30919113Y-27345541D01*
%TO.C,D16*%
X77050000Y-36350000D02*
X77050000Y-37250000D01*
X77050000Y-37250000D02*
X78500000Y-37250000D01*
X77050000Y-36350000D02*
X78500000Y-36350000D01*
%TO.C,D15*%
X71550000Y-36350000D02*
X71550000Y-37250000D01*
X71550000Y-37250000D02*
X73000000Y-37250000D01*
X71550000Y-36350000D02*
X73000000Y-36350000D01*
%TO.C,D14*%
X75629850Y-35183136D02*
X76522150Y-35300609D01*
X76522150Y-35300609D02*
X76711413Y-33863014D01*
X75629850Y-35183136D02*
X75819113Y-33745541D01*
%TO.C,D13*%
X68929850Y-35183136D02*
X69822150Y-35300609D01*
X69822150Y-35300609D02*
X70011413Y-33863014D01*
X68929850Y-35183136D02*
X69119113Y-33745541D01*
%TO.C,D12*%
X72250000Y-30650000D02*
X72250000Y-31550000D01*
X72250000Y-31550000D02*
X73700000Y-31550000D01*
X72250000Y-30650000D02*
X73700000Y-30650000D01*
%TO.C,D11*%
X76329850Y-28783136D02*
X77222150Y-28900609D01*
X77222150Y-28900609D02*
X77411413Y-27463014D01*
X76329850Y-28783136D02*
X76519113Y-27345541D01*
%TO.C,D10*%
X69629850Y-28783136D02*
X70522150Y-28900609D01*
X70522150Y-28900609D02*
X70711413Y-27463014D01*
X69629850Y-28783136D02*
X69819113Y-27345541D01*
%TO.C,D9*%
X72950000Y-24950000D02*
X72950000Y-25850000D01*
X72950000Y-25850000D02*
X74400000Y-25850000D01*
X72950000Y-24950000D02*
X74400000Y-24950000D01*
%TO.C,D8*%
X86750000Y-36350000D02*
X88200000Y-36350000D01*
X86750000Y-37250000D02*
X88200000Y-37250000D01*
X86750000Y-36350000D02*
X86750000Y-37250000D01*
%TO.C,D7*%
X90829850Y-35183136D02*
X91019113Y-33745541D01*
X91722150Y-35300609D02*
X91911413Y-33863014D01*
X90829850Y-35183136D02*
X91722150Y-35300609D01*
%TO.C,D6*%
X92250000Y-36350000D02*
X92250000Y-37250000D01*
X92250000Y-37250000D02*
X93700000Y-37250000D01*
X92250000Y-36350000D02*
X93700000Y-36350000D01*
%TO.C,D5*%
X91529850Y-28783136D02*
X91719113Y-27345541D01*
X92422150Y-28900609D02*
X92611413Y-27463014D01*
X91529850Y-28783136D02*
X92422150Y-28900609D01*
%TO.C,D4*%
X84129850Y-35183136D02*
X84319113Y-33745541D01*
X85022150Y-35300609D02*
X85211413Y-33863014D01*
X84129850Y-35183136D02*
X85022150Y-35300609D01*
%TO.C,D3*%
X87450000Y-30650000D02*
X88900000Y-30650000D01*
X87450000Y-31550000D02*
X88900000Y-31550000D01*
X87450000Y-30650000D02*
X87450000Y-31550000D01*
%TO.C,D2*%
X84829850Y-28783136D02*
X85019113Y-27345541D01*
X85722150Y-28900609D02*
X85911413Y-27463014D01*
X84829850Y-28783136D02*
X85722150Y-28900609D01*
%TO.C,D1*%
X88150000Y-24950000D02*
X89600000Y-24950000D01*
X88150000Y-25850000D02*
X89600000Y-25850000D01*
X88150000Y-24950000D02*
X88150000Y-25850000D01*
%TD*%
%LPC*%
D12*
%TO.C,R8*%
X38900000Y-43500000D03*
X41100000Y-43500000D03*
%TD*%
D13*
%TO.C,R7*%
X23000000Y-42400000D03*
X23000000Y-44600000D03*
%TD*%
%TO.C,R6*%
X91500000Y-42400000D03*
X91500000Y-44600000D03*
%TD*%
%TO.C,R5*%
X94000000Y-42400000D03*
X94000000Y-44600000D03*
%TD*%
D12*
%TO.C,R4*%
X43900000Y-43500000D03*
X46100000Y-43500000D03*
%TD*%
D13*
%TO.C,R3*%
X25500000Y-42400000D03*
X25500000Y-44600000D03*
%TD*%
%TO.C,R2*%
X28000000Y-42400000D03*
X28000000Y-44600000D03*
%TD*%
%TO.C,R1*%
X30500000Y-42400000D03*
X30500000Y-44600000D03*
%TD*%
D14*
%TO.C,D38*%
X28150000Y-31100000D03*
X27050000Y-31100000D03*
%TD*%
%TO.C,D37*%
X32950000Y-36800000D03*
X31850000Y-36800000D03*
%TD*%
D15*
%TO.C,D36*%
G36*
X26863941Y-33311587D02*
G01*
X27557953Y-33402956D01*
X27479637Y-33997823D01*
X26785625Y-33906454D01*
X26863941Y-33311587D01*
G37*
G36*
X26720363Y-34402177D02*
G01*
X27414375Y-34493546D01*
X27336059Y-35088413D01*
X26642047Y-34997044D01*
X26720363Y-34402177D01*
G37*
%TD*%
%TO.C,D35*%
G36*
X27663941Y-27111587D02*
G01*
X28357953Y-27202956D01*
X28279637Y-27797823D01*
X27585625Y-27706454D01*
X27663941Y-27111587D01*
G37*
G36*
X27520363Y-28202177D02*
G01*
X28214375Y-28293546D01*
X28136059Y-28888413D01*
X27442047Y-28797044D01*
X27520363Y-28202177D01*
G37*
%TD*%
%TO.C,D34*%
G36*
X30363941Y-33411587D02*
G01*
X31057953Y-33502956D01*
X30979637Y-34097823D01*
X30285625Y-34006454D01*
X30363941Y-33411587D01*
G37*
G36*
X30220363Y-34502177D02*
G01*
X30914375Y-34593546D01*
X30836059Y-35188413D01*
X30142047Y-35097044D01*
X30220363Y-34502177D01*
G37*
%TD*%
D14*
%TO.C,D33*%
X48150000Y-36800000D03*
X47050000Y-36800000D03*
%TD*%
%TO.C,D32*%
X42650000Y-36800000D03*
X41550000Y-36800000D03*
%TD*%
D15*
%TO.C,D31*%
G36*
X38863941Y-33411587D02*
G01*
X39557953Y-33502956D01*
X39479637Y-34097823D01*
X38785625Y-34006454D01*
X38863941Y-33411587D01*
G37*
G36*
X38720363Y-34502177D02*
G01*
X39414375Y-34593546D01*
X39336059Y-35188413D01*
X38642047Y-35097044D01*
X38720363Y-34502177D01*
G37*
%TD*%
%TO.C,D30*%
G36*
X45563941Y-33411587D02*
G01*
X46257953Y-33502956D01*
X46179637Y-34097823D01*
X45485625Y-34006454D01*
X45563941Y-33411587D01*
G37*
G36*
X45420363Y-34502177D02*
G01*
X46114375Y-34593546D01*
X46036059Y-35188413D01*
X45342047Y-35097044D01*
X45420363Y-34502177D01*
G37*
%TD*%
%TO.C,D29*%
G36*
X39563941Y-27011587D02*
G01*
X40257953Y-27102956D01*
X40179637Y-27697823D01*
X39485625Y-27606454D01*
X39563941Y-27011587D01*
G37*
G36*
X39420363Y-28102177D02*
G01*
X40114375Y-28193546D01*
X40036059Y-28788413D01*
X39342047Y-28697044D01*
X39420363Y-28102177D01*
G37*
%TD*%
D14*
%TO.C,D28*%
X43350000Y-31100000D03*
X42250000Y-31100000D03*
%TD*%
D15*
%TO.C,D27*%
G36*
X46263941Y-27011587D02*
G01*
X46957953Y-27102956D01*
X46879637Y-27697823D01*
X46185625Y-27606454D01*
X46263941Y-27011587D01*
G37*
G36*
X46120363Y-28102177D02*
G01*
X46814375Y-28193546D01*
X46736059Y-28788413D01*
X46042047Y-28697044D01*
X46120363Y-28102177D01*
G37*
%TD*%
D14*
%TO.C,D26*%
X63350000Y-36800000D03*
X62250000Y-36800000D03*
%TD*%
%TO.C,D25*%
X57850000Y-36800000D03*
X56750000Y-36800000D03*
%TD*%
D15*
%TO.C,D24*%
G36*
X54063941Y-33411587D02*
G01*
X54757953Y-33502956D01*
X54679637Y-34097823D01*
X53985625Y-34006454D01*
X54063941Y-33411587D01*
G37*
G36*
X53920363Y-34502177D02*
G01*
X54614375Y-34593546D01*
X54536059Y-35188413D01*
X53842047Y-35097044D01*
X53920363Y-34502177D01*
G37*
%TD*%
%TO.C,D23*%
G36*
X60763941Y-33411587D02*
G01*
X61457953Y-33502956D01*
X61379637Y-34097823D01*
X60685625Y-34006454D01*
X60763941Y-33411587D01*
G37*
G36*
X60620363Y-34502177D02*
G01*
X61314375Y-34593546D01*
X61236059Y-35188413D01*
X60542047Y-35097044D01*
X60620363Y-34502177D01*
G37*
%TD*%
D14*
%TO.C,D22*%
X58550000Y-31100000D03*
X57450000Y-31100000D03*
%TD*%
D15*
%TO.C,D21*%
G36*
X54763941Y-27011587D02*
G01*
X55457953Y-27102956D01*
X55379637Y-27697823D01*
X54685625Y-27606454D01*
X54763941Y-27011587D01*
G37*
G36*
X54620363Y-28102177D02*
G01*
X55314375Y-28193546D01*
X55236059Y-28788413D01*
X54542047Y-28697044D01*
X54620363Y-28102177D01*
G37*
%TD*%
D14*
%TO.C,D20*%
X44050000Y-25400000D03*
X42950000Y-25400000D03*
%TD*%
%TO.C,D19*%
X59250000Y-25400000D03*
X58150000Y-25400000D03*
%TD*%
D15*
%TO.C,D18*%
G36*
X61463941Y-27011587D02*
G01*
X62157953Y-27102956D01*
X62079637Y-27697823D01*
X61385625Y-27606454D01*
X61463941Y-27011587D01*
G37*
G36*
X61320363Y-28102177D02*
G01*
X62014375Y-28193546D01*
X61936059Y-28788413D01*
X61242047Y-28697044D01*
X61320363Y-28102177D01*
G37*
%TD*%
%TO.C,D17*%
G36*
X31063941Y-27011587D02*
G01*
X31757953Y-27102956D01*
X31679637Y-27697823D01*
X30985625Y-27606454D01*
X31063941Y-27011587D01*
G37*
G36*
X30920363Y-28102177D02*
G01*
X31614375Y-28193546D01*
X31536059Y-28788413D01*
X30842047Y-28697044D01*
X30920363Y-28102177D01*
G37*
%TD*%
D14*
%TO.C,D16*%
X78550000Y-36800000D03*
X77450000Y-36800000D03*
%TD*%
%TO.C,D15*%
X73050000Y-36800000D03*
X71950000Y-36800000D03*
%TD*%
D15*
%TO.C,D14*%
G36*
X75963941Y-33411587D02*
G01*
X76657953Y-33502956D01*
X76579637Y-34097823D01*
X75885625Y-34006454D01*
X75963941Y-33411587D01*
G37*
G36*
X75820363Y-34502177D02*
G01*
X76514375Y-34593546D01*
X76436059Y-35188413D01*
X75742047Y-35097044D01*
X75820363Y-34502177D01*
G37*
%TD*%
%TO.C,D13*%
G36*
X69263941Y-33411587D02*
G01*
X69957953Y-33502956D01*
X69879637Y-34097823D01*
X69185625Y-34006454D01*
X69263941Y-33411587D01*
G37*
G36*
X69120363Y-34502177D02*
G01*
X69814375Y-34593546D01*
X69736059Y-35188413D01*
X69042047Y-35097044D01*
X69120363Y-34502177D01*
G37*
%TD*%
D14*
%TO.C,D12*%
X73750000Y-31100000D03*
X72650000Y-31100000D03*
%TD*%
D15*
%TO.C,D11*%
G36*
X76663941Y-27011587D02*
G01*
X77357953Y-27102956D01*
X77279637Y-27697823D01*
X76585625Y-27606454D01*
X76663941Y-27011587D01*
G37*
G36*
X76520363Y-28102177D02*
G01*
X77214375Y-28193546D01*
X77136059Y-28788413D01*
X76442047Y-28697044D01*
X76520363Y-28102177D01*
G37*
%TD*%
%TO.C,D10*%
G36*
X69963941Y-27011587D02*
G01*
X70657953Y-27102956D01*
X70579637Y-27697823D01*
X69885625Y-27606454D01*
X69963941Y-27011587D01*
G37*
G36*
X69820363Y-28102177D02*
G01*
X70514375Y-28193546D01*
X70436059Y-28788413D01*
X69742047Y-28697044D01*
X69820363Y-28102177D01*
G37*
%TD*%
D14*
%TO.C,D9*%
X74450000Y-25400000D03*
X73350000Y-25400000D03*
%TD*%
%TO.C,D8*%
X87150000Y-36800000D03*
X88250000Y-36800000D03*
%TD*%
D15*
%TO.C,D7*%
G36*
X91020363Y-34502177D02*
G01*
X91714375Y-34593546D01*
X91636059Y-35188413D01*
X90942047Y-35097044D01*
X91020363Y-34502177D01*
G37*
G36*
X91163941Y-33411587D02*
G01*
X91857953Y-33502956D01*
X91779637Y-34097823D01*
X91085625Y-34006454D01*
X91163941Y-33411587D01*
G37*
%TD*%
D14*
%TO.C,D6*%
X93750000Y-36800000D03*
X92650000Y-36800000D03*
%TD*%
D15*
%TO.C,D5*%
G36*
X91720363Y-28102177D02*
G01*
X92414375Y-28193546D01*
X92336059Y-28788413D01*
X91642047Y-28697044D01*
X91720363Y-28102177D01*
G37*
G36*
X91863941Y-27011587D02*
G01*
X92557953Y-27102956D01*
X92479637Y-27697823D01*
X91785625Y-27606454D01*
X91863941Y-27011587D01*
G37*
%TD*%
%TO.C,D4*%
G36*
X84320363Y-34502177D02*
G01*
X85014375Y-34593546D01*
X84936059Y-35188413D01*
X84242047Y-35097044D01*
X84320363Y-34502177D01*
G37*
G36*
X84463941Y-33411587D02*
G01*
X85157953Y-33502956D01*
X85079637Y-34097823D01*
X84385625Y-34006454D01*
X84463941Y-33411587D01*
G37*
%TD*%
D14*
%TO.C,D3*%
X87850000Y-31100000D03*
X88950000Y-31100000D03*
%TD*%
D15*
%TO.C,D2*%
G36*
X85020363Y-28102177D02*
G01*
X85714375Y-28193546D01*
X85636059Y-28788413D01*
X84942047Y-28697044D01*
X85020363Y-28102177D01*
G37*
G36*
X85163941Y-27011587D02*
G01*
X85857953Y-27102956D01*
X85779637Y-27697823D01*
X85085625Y-27606454D01*
X85163941Y-27011587D01*
G37*
%TD*%
D14*
%TO.C,D1*%
X88550000Y-25400000D03*
X89650000Y-25400000D03*
%TD*%
D16*
%TO.C,J1*%
X49500000Y-44500000D03*
D17*
X52040000Y-44500000D03*
X54580000Y-44500000D03*
X57120000Y-44500000D03*
X59660000Y-44500000D03*
X62200000Y-44500000D03*
X64740000Y-44500000D03*
X67280000Y-44500000D03*
X69820000Y-44500000D03*
X72360000Y-44500000D03*
X74900000Y-44500000D03*
X77440000Y-44500000D03*
X79980000Y-44500000D03*
X82520000Y-44500000D03*
X85060000Y-44500000D03*
X87600000Y-44500000D03*
%TD*%
M02*
