%TF.GenerationSoftware,KiCad,Pcbnew,(5.1.7)-1*%
%TF.CreationDate,2021-08-17T00:51:46+02:00*%
%TF.ProjectId,saba_az553,73616261-5f61-47a3-9535-332e6b696361,rev?*%
%TF.SameCoordinates,Original*%
%TF.FileFunction,Copper,L2,Bot*%
%TF.FilePolarity,Positive*%
%FSLAX46Y46*%
G04 Gerber Fmt 4.6, Leading zero omitted, Abs format (unit mm)*
G04 Created by KiCad (PCBNEW (5.1.7)-1) date 2021-08-17 00:51:46*
%MOMM*%
%LPD*%
G01*
G04 APERTURE LIST*
%TA.AperFunction,ComponentPad*%
%ADD10C,1.900000*%
%TD*%
%TA.AperFunction,ComponentPad*%
%ADD11O,1.900000X1.900000*%
%TD*%
%TA.AperFunction,ViaPad*%
%ADD12C,0.800000*%
%TD*%
%TA.AperFunction,Conductor*%
%ADD13C,0.500000*%
%TD*%
G04 APERTURE END LIST*
D10*
%TO.P,J1,1*%
%TO.N,Net-(J1-Pad1)*%
X49500000Y-44500000D03*
D11*
%TO.P,J1,2*%
%TO.N,Net-(J1-Pad2)*%
X52040000Y-44500000D03*
%TO.P,J1,3*%
%TO.N,Net-(J1-Pad3)*%
X54580000Y-44500000D03*
%TO.P,J1,4*%
%TO.N,Net-(J1-Pad4)*%
X57120000Y-44500000D03*
%TO.P,J1,5*%
%TO.N,Net-(J1-Pad5)*%
X59660000Y-44500000D03*
%TO.P,J1,6*%
%TO.N,Net-(J1-Pad6)*%
X62200000Y-44500000D03*
%TO.P,J1,7*%
%TO.N,Net-(J1-Pad7)*%
X64740000Y-44500000D03*
%TO.P,J1,8*%
%TO.N,Net-(J1-Pad8)*%
X67280000Y-44500000D03*
%TO.P,J1,9*%
%TO.N,Net-(J1-Pad9)*%
X69820000Y-44500000D03*
%TO.P,J1,10*%
%TO.N,Net-(J1-Pad10)*%
X72360000Y-44500000D03*
%TO.P,J1,11*%
%TO.N,Net-(J1-Pad11)*%
X74900000Y-44500000D03*
%TO.P,J1,12*%
%TO.N,D1*%
X77440000Y-44500000D03*
%TO.P,J1,13*%
%TO.N,D2*%
X79980000Y-44500000D03*
%TO.P,J1,14*%
%TO.N,D4*%
X82520000Y-44500000D03*
%TO.P,J1,15*%
%TO.N,D5*%
X85060000Y-44500000D03*
%TO.P,J1,16*%
%TO.N,D3*%
X87600000Y-44500000D03*
%TD*%
D12*
%TO.N,A*%
X45500000Y-25400000D03*
X60700000Y-25400000D03*
X75900000Y-25400000D03*
X91100000Y-25400000D03*
%TO.N,F*%
X27800000Y-26200000D03*
X37800000Y-29100000D03*
X53000000Y-29100000D03*
X68200000Y-29100000D03*
X83400000Y-29100000D03*
%TO.N,G*%
X29400000Y-31100000D03*
X44800000Y-31100000D03*
X60000000Y-31100000D03*
X75200000Y-31100000D03*
X90400000Y-31100000D03*
X30500000Y-40800000D03*
%TO.N,E*%
X37100000Y-35100000D03*
X52300000Y-35100000D03*
X67500000Y-35100000D03*
X82700000Y-35100000D03*
X25500000Y-38800000D03*
%TO.N,B*%
X48500000Y-27100000D03*
X33300000Y-27100000D03*
X63700000Y-27100000D03*
X78900000Y-27100000D03*
X94100000Y-27100000D03*
%TO.N,DP*%
X45600000Y-38800000D03*
X60800000Y-38800000D03*
X76000000Y-38800000D03*
X91200000Y-38800000D03*
X30400000Y-38800000D03*
X37400000Y-39600000D03*
%TO.N,C*%
X47800000Y-33600000D03*
X32600000Y-33600000D03*
X63000000Y-33600000D03*
X78200000Y-33600000D03*
X93400000Y-33600000D03*
%TO.N,D*%
X44100000Y-36800000D03*
X59300000Y-36800000D03*
X74500000Y-36800000D03*
X89700000Y-36800000D03*
%TO.N,D1*%
X40900000Y-40400000D03*
%TO.N,D3*%
X56800000Y-40400000D03*
%TO.N,Net-(J1-Pad4)*%
X46100000Y-42000000D03*
%TO.N,Net-(J1-Pad5)*%
X94000000Y-46300000D03*
%TO.N,Net-(J1-Pad6)*%
X91500000Y-46300000D03*
%TO.N,Net-(J1-Pad9)*%
X41100000Y-42000000D03*
%TD*%
D13*
%TO.N,A*%
X45500000Y-25400000D02*
X91100000Y-25400000D01*
%TO.N,F*%
X30800000Y-29100000D02*
X27900000Y-26200000D01*
X30800000Y-29100000D02*
X37800000Y-29100000D01*
X37800000Y-29100000D02*
X83400000Y-29100000D01*
%TO.N,G*%
X29400000Y-31100000D02*
X75200000Y-31100000D01*
X89013414Y-32486586D02*
X90400000Y-31100000D01*
X76586586Y-32486586D02*
X89013414Y-32486586D01*
X75200000Y-31100000D02*
X76586586Y-32486586D01*
X26300000Y-31100000D02*
X29400000Y-31100000D01*
X24100000Y-33300000D02*
X26300000Y-31100000D01*
X24100000Y-39200000D02*
X24100000Y-33300000D01*
X25700000Y-40800000D02*
X24100000Y-39200000D01*
X30500000Y-40800000D02*
X25700000Y-40800000D01*
%TO.N,E*%
X37100000Y-35100000D02*
X82700000Y-35100000D01*
X37100000Y-35100000D02*
X29200000Y-35100000D01*
X29200000Y-35100000D02*
X25500000Y-38800000D01*
%TO.N,B*%
X33300000Y-27100000D02*
X94100000Y-27100000D01*
%TO.N,DP*%
X31000000Y-38200000D02*
X30400000Y-38800000D01*
X38200000Y-38800000D02*
X37400000Y-39600000D01*
X37400000Y-39600000D02*
X34700000Y-39600000D01*
X45600000Y-38800000D02*
X38200000Y-38800000D01*
X33300000Y-38200000D02*
X34700000Y-39600000D01*
X31000000Y-38200000D02*
X33300000Y-38200000D01*
X45600000Y-38800000D02*
X68000000Y-38800000D01*
X76000000Y-38800000D02*
X81500000Y-38800000D01*
X81500000Y-38800000D02*
X81800000Y-38500000D01*
X90900000Y-38500000D02*
X91200000Y-38800000D01*
X81800000Y-38500000D02*
X90900000Y-38500000D01*
X68000000Y-38800000D02*
X76000000Y-38800000D01*
%TO.N,C*%
X32600000Y-33600000D02*
X93400000Y-33600000D01*
%TO.N,D*%
X44100000Y-36800000D02*
X89700000Y-36800000D01*
%TO.N,D1*%
X55300000Y-40400000D02*
X56499999Y-41599999D01*
X40900000Y-40400000D02*
X55300000Y-40400000D01*
X74539999Y-41599999D02*
X77440000Y-44500000D01*
X56499999Y-41599999D02*
X74539999Y-41599999D01*
%TO.N,D3*%
X56800000Y-40400000D02*
X80400000Y-40400000D01*
X81383784Y-41383784D02*
X80400000Y-40400000D01*
X84483784Y-41383784D02*
X87600000Y-44500000D01*
X81383784Y-41383784D02*
X84483784Y-41383784D01*
%TO.N,Net-(J1-Pad4)*%
X54620000Y-42000000D02*
X57120000Y-44500000D01*
X46300000Y-42000000D02*
X54620000Y-42000000D01*
%TO.N,Net-(J1-Pad5)*%
X62684990Y-47524990D02*
X59660000Y-44500000D01*
X92775010Y-47524990D02*
X62684990Y-47524990D01*
X94000000Y-46300000D02*
X92775010Y-47524990D01*
%TO.N,Net-(J1-Pad6)*%
X64524980Y-46824980D02*
X90975020Y-46824980D01*
X62200000Y-44500000D02*
X64524980Y-46824980D01*
X91500000Y-46300000D02*
X90975020Y-46824980D01*
%TO.N,Net-(J1-Pad9)*%
X67620009Y-42300009D02*
X69820000Y-44500000D01*
X56100009Y-42300009D02*
X67620009Y-42300009D01*
X54900010Y-41100010D02*
X56100009Y-42300009D01*
X42199990Y-41100010D02*
X54900010Y-41100010D01*
X41300000Y-42000000D02*
X42199990Y-41100010D01*
%TD*%
M02*
