M48
; DRILL file {KiCad (5.1.7)-1} date 08/28/22 21:28:40
; FORMAT={-:-/ absolute / metric / decimal}
; #@! TF.CreationDate,2022-08-28T21:28:40+02:00
; #@! TF.GenerationSoftware,Kicad,Pcbnew,(5.1.7)-1
; #@! TF.FileFunction,Plated,1,2,PTH
FMAT,2
METRIC
T1C0.400
T2C0.800
T3C1.000
T4C1.250
%
G90
G05
T1
X130.75Y-52.0
X142.0Y-57.5
T2
X182.59Y-55.27
X192.75Y-55.27
X174.0Y-52.25
X174.0Y-55.75
X144.49Y-51.32
X154.65Y-51.32
X159.13Y-51.32
X159.13Y-56.4
X166.75Y-51.32
X166.75Y-56.4
X105.75Y-54.0
X115.91Y-54.0
T3
X198.75Y-52.73
X198.75Y-55.27
X136.25Y-52.73
X136.25Y-55.27
T4
X78.75Y-48.0
X78.75Y-57.0
X78.75Y-51.0
X78.75Y-54.0
X78.75Y-45.0
T0
M30
