G04 #@! TF.GenerationSoftware,KiCad,Pcbnew,(5.1.7)-1*
G04 #@! TF.CreationDate,2022-08-28T21:28:38+02:00*
G04 #@! TF.ProjectId,Skalen-Beleuchtung,536b616c-656e-42d4-9265-6c6575636874,rev?*
G04 #@! TF.SameCoordinates,Original*
G04 #@! TF.FileFunction,Legend,Bot*
G04 #@! TF.FilePolarity,Positive*
%FSLAX46Y46*%
G04 Gerber Fmt 4.6, Leading zero omitted, Abs format (unit mm)*
G04 Created by KiCad (PCBNEW (5.1.7)-1) date 2022-08-28 21:28:38*
%MOMM*%
%LPD*%
G01*
G04 APERTURE LIST*
%ADD10C,0.120000*%
%ADD11O,1.600000X1.600000*%
%ADD12R,1.600000X1.600000*%
%ADD13R,5.000000X2.000000*%
%ADD14C,1.600000*%
%ADD15R,1.700000X1.700000*%
%ADD16O,1.700000X1.700000*%
%ADD17C,4.000000*%
G04 APERTURE END LIST*
D10*
X137580000Y-51400000D02*
X136250000Y-51400000D01*
X137580000Y-52730000D02*
X137580000Y-51400000D01*
X137580000Y-54000000D02*
X134920000Y-54000000D01*
X134920000Y-54000000D02*
X134920000Y-56600000D01*
X137580000Y-54000000D02*
X137580000Y-56600000D01*
X137580000Y-56600000D02*
X134920000Y-56600000D01*
X200080000Y-51400000D02*
X198750000Y-51400000D01*
X200080000Y-52730000D02*
X200080000Y-51400000D01*
X200080000Y-54000000D02*
X197420000Y-54000000D01*
X197420000Y-54000000D02*
X197420000Y-56600000D01*
X200080000Y-54000000D02*
X200080000Y-56600000D01*
X200080000Y-56600000D02*
X197420000Y-56600000D01*
%LPC*%
D11*
X159130000Y-56400000D03*
X166750000Y-51320000D03*
X159130000Y-51320000D03*
D12*
X166750000Y-56400000D03*
D13*
X78750000Y-45000000D03*
X78750000Y-54000000D03*
X78750000Y-57000000D03*
X78750000Y-48000000D03*
D12*
X174000000Y-55750000D03*
D14*
X174000000Y-52250000D03*
X154650000Y-51320000D03*
D11*
X144490000Y-51320000D03*
D14*
X192750000Y-55270000D03*
D11*
X182590000Y-55270000D03*
D14*
X115910000Y-54000000D03*
D11*
X105750000Y-54000000D03*
D13*
X78750000Y-51000000D03*
D15*
X136250000Y-52730000D03*
D16*
X136250000Y-55270000D03*
D15*
X198750000Y-52730000D03*
D16*
X198750000Y-55270000D03*
D17*
X96250000Y-54000000D03*
X208500000Y-54000000D03*
M02*
