G04 #@! TF.GenerationSoftware,KiCad,Pcbnew,(5.1.7)-1*
G04 #@! TF.CreationDate,2022-04-05T13:22:44+02:00*
G04 #@! TF.ProjectId,saba_924x_tipp-tasten-modul,73616261-5f39-4323-9478-5f746970702d,rev?*
G04 #@! TF.SameCoordinates,Original*
G04 #@! TF.FileFunction,Copper,L2,Bot*
G04 #@! TF.FilePolarity,Positive*
%FSLAX46Y46*%
G04 Gerber Fmt 4.6, Leading zero omitted, Abs format (unit mm)*
G04 Created by KiCad (PCBNEW (5.1.7)-1) date 2022-04-05 13:22:44*
%MOMM*%
%LPD*%
G01*
G04 APERTURE LIST*
G04 #@! TA.AperFunction,ComponentPad*
%ADD10C,2.500000*%
G04 #@! TD*
G04 #@! TA.AperFunction,ComponentPad*
%ADD11C,2.250000*%
G04 #@! TD*
G04 #@! TA.AperFunction,ComponentPad*
%ADD12R,1.800000X1.800000*%
G04 #@! TD*
G04 #@! TA.AperFunction,ComponentPad*
%ADD13C,1.800000*%
G04 #@! TD*
G04 #@! TA.AperFunction,ComponentPad*
%ADD14R,1.700000X1.700000*%
G04 #@! TD*
G04 #@! TA.AperFunction,ComponentPad*
%ADD15O,1.700000X1.700000*%
G04 #@! TD*
G04 #@! TA.AperFunction,ViaPad*
%ADD16C,0.800000*%
G04 #@! TD*
G04 #@! TA.AperFunction,Conductor*
%ADD17C,0.500000*%
G04 #@! TD*
G04 #@! TA.AperFunction,Conductor*
%ADD18C,0.750000*%
G04 #@! TD*
G04 #@! TA.AperFunction,Conductor*
%ADD19C,0.250000*%
G04 #@! TD*
G04 #@! TA.AperFunction,Conductor*
%ADD20C,0.100000*%
G04 #@! TD*
G04 APERTURE END LIST*
D10*
X25500000Y-32500000D03*
X29500000Y-38000000D03*
D11*
X61250000Y-57200000D03*
X57550000Y-58600000D03*
X54950000Y-56000000D03*
X58750000Y-54500000D03*
X201250000Y-57200000D03*
X197550000Y-58600000D03*
X194950000Y-56000000D03*
X198750000Y-54500000D03*
X96250000Y-57200000D03*
X92550000Y-58600000D03*
X89950000Y-56000000D03*
X93750000Y-54500000D03*
X113750000Y-57200000D03*
X110050000Y-58600000D03*
X107450000Y-56000000D03*
X111250000Y-54500000D03*
X148750000Y-57200000D03*
X145050000Y-58600000D03*
X142450000Y-56000000D03*
X146250000Y-54500000D03*
X166250000Y-57200000D03*
X162550000Y-58600000D03*
X159950000Y-56000000D03*
X163750000Y-54500000D03*
X131250000Y-57200000D03*
X127550000Y-58600000D03*
X124950000Y-56000000D03*
X128750000Y-54500000D03*
X183750000Y-57200000D03*
X180050000Y-58600000D03*
X177450000Y-56000000D03*
X181250000Y-54500000D03*
X78750000Y-57200000D03*
X75050000Y-58600000D03*
X72450000Y-56000000D03*
X76250000Y-54500000D03*
D12*
X74500000Y-47000000D03*
D13*
X77040000Y-47000000D03*
D14*
X39000000Y-38500000D03*
D15*
X41540000Y-38500000D03*
X39000000Y-41040000D03*
X41540000Y-41040000D03*
X39000000Y-43580000D03*
X41540000Y-43580000D03*
D10*
X218000000Y-50000000D03*
X214000000Y-37000000D03*
X218000000Y-42500000D03*
X23500000Y-45500000D03*
G04 #@! TA.AperFunction,ComponentPad*
G36*
G01*
X104160000Y-38000000D02*
X104160000Y-36000000D01*
G75*
G02*
X104660000Y-35500000I500000J0D01*
G01*
X105660000Y-35500000D01*
G75*
G02*
X106160000Y-36000000I0J-500000D01*
G01*
X106160000Y-38000000D01*
G75*
G02*
X105660000Y-38500000I-500000J0D01*
G01*
X104660000Y-38500000D01*
G75*
G02*
X104160000Y-38000000I0J500000D01*
G01*
G37*
G04 #@! TD.AperFunction*
G04 #@! TA.AperFunction,ComponentPad*
G36*
G01*
X101620000Y-38000000D02*
X101620000Y-36000000D01*
G75*
G02*
X102120000Y-35500000I500000J0D01*
G01*
X103120000Y-35500000D01*
G75*
G02*
X103620000Y-36000000I0J-500000D01*
G01*
X103620000Y-38000000D01*
G75*
G02*
X103120000Y-38500000I-500000J0D01*
G01*
X102120000Y-38500000D01*
G75*
G02*
X101620000Y-38000000I0J500000D01*
G01*
G37*
G04 #@! TD.AperFunction*
G04 #@! TA.AperFunction,ComponentPad*
G36*
G01*
X99080000Y-38000000D02*
X99080000Y-36000000D01*
G75*
G02*
X99580000Y-35500000I500000J0D01*
G01*
X100580000Y-35500000D01*
G75*
G02*
X101080000Y-36000000I0J-500000D01*
G01*
X101080000Y-38000000D01*
G75*
G02*
X100580000Y-38500000I-500000J0D01*
G01*
X99580000Y-38500000D01*
G75*
G02*
X99080000Y-38000000I0J500000D01*
G01*
G37*
G04 #@! TD.AperFunction*
G04 #@! TA.AperFunction,ComponentPad*
G36*
G01*
X96540000Y-38000000D02*
X96540000Y-36000000D01*
G75*
G02*
X97040000Y-35500000I500000J0D01*
G01*
X98040000Y-35500000D01*
G75*
G02*
X98540000Y-36000000I0J-500000D01*
G01*
X98540000Y-38000000D01*
G75*
G02*
X98040000Y-38500000I-500000J0D01*
G01*
X97040000Y-38500000D01*
G75*
G02*
X96540000Y-38000000I0J500000D01*
G01*
G37*
G04 #@! TD.AperFunction*
G04 #@! TA.AperFunction,ComponentPad*
G36*
G01*
X94000000Y-38000000D02*
X94000000Y-36000000D01*
G75*
G02*
X94500000Y-35500000I500000J0D01*
G01*
X95500000Y-35500000D01*
G75*
G02*
X96000000Y-36000000I0J-500000D01*
G01*
X96000000Y-38000000D01*
G75*
G02*
X95500000Y-38500000I-500000J0D01*
G01*
X94500000Y-38500000D01*
G75*
G02*
X94000000Y-38000000I0J500000D01*
G01*
G37*
G04 #@! TD.AperFunction*
G04 #@! TA.AperFunction,ComponentPad*
G36*
G01*
X121000000Y-38000000D02*
X121000000Y-36000000D01*
G75*
G02*
X121500000Y-35500000I500000J0D01*
G01*
X122500000Y-35500000D01*
G75*
G02*
X123000000Y-36000000I0J-500000D01*
G01*
X123000000Y-38000000D01*
G75*
G02*
X122500000Y-38500000I-500000J0D01*
G01*
X121500000Y-38500000D01*
G75*
G02*
X121000000Y-38000000I0J500000D01*
G01*
G37*
G04 #@! TD.AperFunction*
G04 #@! TA.AperFunction,ComponentPad*
G36*
G01*
X118460000Y-38000000D02*
X118460000Y-36000000D01*
G75*
G02*
X118960000Y-35500000I500000J0D01*
G01*
X119960000Y-35500000D01*
G75*
G02*
X120460000Y-36000000I0J-500000D01*
G01*
X120460000Y-38000000D01*
G75*
G02*
X119960000Y-38500000I-500000J0D01*
G01*
X118960000Y-38500000D01*
G75*
G02*
X118460000Y-38000000I0J500000D01*
G01*
G37*
G04 #@! TD.AperFunction*
G04 #@! TA.AperFunction,ComponentPad*
G36*
G01*
X115920000Y-38000000D02*
X115920000Y-36000000D01*
G75*
G02*
X116420000Y-35500000I500000J0D01*
G01*
X117420000Y-35500000D01*
G75*
G02*
X117920000Y-36000000I0J-500000D01*
G01*
X117920000Y-38000000D01*
G75*
G02*
X117420000Y-38500000I-500000J0D01*
G01*
X116420000Y-38500000D01*
G75*
G02*
X115920000Y-38000000I0J500000D01*
G01*
G37*
G04 #@! TD.AperFunction*
G04 #@! TA.AperFunction,ComponentPad*
G36*
G01*
X113380000Y-38000000D02*
X113380000Y-36000000D01*
G75*
G02*
X113880000Y-35500000I500000J0D01*
G01*
X114880000Y-35500000D01*
G75*
G02*
X115380000Y-36000000I0J-500000D01*
G01*
X115380000Y-38000000D01*
G75*
G02*
X114880000Y-38500000I-500000J0D01*
G01*
X113880000Y-38500000D01*
G75*
G02*
X113380000Y-38000000I0J500000D01*
G01*
G37*
G04 #@! TD.AperFunction*
G04 #@! TA.AperFunction,ComponentPad*
G36*
G01*
X110840000Y-38000000D02*
X110840000Y-36000000D01*
G75*
G02*
X111340000Y-35500000I500000J0D01*
G01*
X112340000Y-35500000D01*
G75*
G02*
X112840000Y-36000000I0J-500000D01*
G01*
X112840000Y-38000000D01*
G75*
G02*
X112340000Y-38500000I-500000J0D01*
G01*
X111340000Y-38500000D01*
G75*
G02*
X110840000Y-38000000I0J500000D01*
G01*
G37*
G04 #@! TD.AperFunction*
G04 #@! TA.AperFunction,ComponentPad*
G36*
G01*
X148000000Y-38000000D02*
X148000000Y-36000000D01*
G75*
G02*
X148500000Y-35500000I500000J0D01*
G01*
X149500000Y-35500000D01*
G75*
G02*
X150000000Y-36000000I0J-500000D01*
G01*
X150000000Y-38000000D01*
G75*
G02*
X149500000Y-38500000I-500000J0D01*
G01*
X148500000Y-38500000D01*
G75*
G02*
X148000000Y-38000000I0J500000D01*
G01*
G37*
G04 #@! TD.AperFunction*
G04 #@! TA.AperFunction,ComponentPad*
G36*
G01*
X145460000Y-38000000D02*
X145460000Y-36000000D01*
G75*
G02*
X145960000Y-35500000I500000J0D01*
G01*
X146960000Y-35500000D01*
G75*
G02*
X147460000Y-36000000I0J-500000D01*
G01*
X147460000Y-38000000D01*
G75*
G02*
X146960000Y-38500000I-500000J0D01*
G01*
X145960000Y-38500000D01*
G75*
G02*
X145460000Y-38000000I0J500000D01*
G01*
G37*
G04 #@! TD.AperFunction*
G04 #@! TA.AperFunction,ComponentPad*
G36*
G01*
X142920000Y-38000000D02*
X142920000Y-36000000D01*
G75*
G02*
X143420000Y-35500000I500000J0D01*
G01*
X144420000Y-35500000D01*
G75*
G02*
X144920000Y-36000000I0J-500000D01*
G01*
X144920000Y-38000000D01*
G75*
G02*
X144420000Y-38500000I-500000J0D01*
G01*
X143420000Y-38500000D01*
G75*
G02*
X142920000Y-38000000I0J500000D01*
G01*
G37*
G04 #@! TD.AperFunction*
G04 #@! TA.AperFunction,ComponentPad*
G36*
G01*
X140380000Y-38000000D02*
X140380000Y-36000000D01*
G75*
G02*
X140880000Y-35500000I500000J0D01*
G01*
X141880000Y-35500000D01*
G75*
G02*
X142380000Y-36000000I0J-500000D01*
G01*
X142380000Y-38000000D01*
G75*
G02*
X141880000Y-38500000I-500000J0D01*
G01*
X140880000Y-38500000D01*
G75*
G02*
X140380000Y-38000000I0J500000D01*
G01*
G37*
G04 #@! TD.AperFunction*
G04 #@! TA.AperFunction,ComponentPad*
G36*
G01*
X137840000Y-38000000D02*
X137840000Y-36000000D01*
G75*
G02*
X138340000Y-35500000I500000J0D01*
G01*
X139340000Y-35500000D01*
G75*
G02*
X139840000Y-36000000I0J-500000D01*
G01*
X139840000Y-38000000D01*
G75*
G02*
X139340000Y-38500000I-500000J0D01*
G01*
X138340000Y-38500000D01*
G75*
G02*
X137840000Y-38000000I0J500000D01*
G01*
G37*
G04 #@! TD.AperFunction*
G04 #@! TA.AperFunction,ComponentPad*
G36*
G01*
X135300000Y-38000000D02*
X135300000Y-36000000D01*
G75*
G02*
X135800000Y-35500000I500000J0D01*
G01*
X136800000Y-35500000D01*
G75*
G02*
X137300000Y-36000000I0J-500000D01*
G01*
X137300000Y-38000000D01*
G75*
G02*
X136800000Y-38500000I-500000J0D01*
G01*
X135800000Y-38500000D01*
G75*
G02*
X135300000Y-38000000I0J500000D01*
G01*
G37*
G04 #@! TD.AperFunction*
G04 #@! TA.AperFunction,ComponentPad*
G36*
G01*
X132760000Y-38000000D02*
X132760000Y-36000000D01*
G75*
G02*
X133260000Y-35500000I500000J0D01*
G01*
X134260000Y-35500000D01*
G75*
G02*
X134760000Y-36000000I0J-500000D01*
G01*
X134760000Y-38000000D01*
G75*
G02*
X134260000Y-38500000I-500000J0D01*
G01*
X133260000Y-38500000D01*
G75*
G02*
X132760000Y-38000000I0J500000D01*
G01*
G37*
G04 #@! TD.AperFunction*
G04 #@! TA.AperFunction,ComponentPad*
G36*
G01*
X130220000Y-38000000D02*
X130220000Y-36000000D01*
G75*
G02*
X130720000Y-35500000I500000J0D01*
G01*
X131720000Y-35500000D01*
G75*
G02*
X132220000Y-36000000I0J-500000D01*
G01*
X132220000Y-38000000D01*
G75*
G02*
X131720000Y-38500000I-500000J0D01*
G01*
X130720000Y-38500000D01*
G75*
G02*
X130220000Y-38000000I0J500000D01*
G01*
G37*
G04 #@! TD.AperFunction*
G04 #@! TA.AperFunction,ComponentPad*
G36*
G01*
X127680000Y-38000000D02*
X127680000Y-36000000D01*
G75*
G02*
X128180000Y-35500000I500000J0D01*
G01*
X129180000Y-35500000D01*
G75*
G02*
X129680000Y-36000000I0J-500000D01*
G01*
X129680000Y-38000000D01*
G75*
G02*
X129180000Y-38500000I-500000J0D01*
G01*
X128180000Y-38500000D01*
G75*
G02*
X127680000Y-38000000I0J500000D01*
G01*
G37*
G04 #@! TD.AperFunction*
D12*
X197000000Y-47000000D03*
D13*
X199540000Y-47000000D03*
D12*
X162000000Y-47000000D03*
D13*
X164540000Y-47000000D03*
D12*
X144500000Y-47000000D03*
D13*
X147040000Y-47000000D03*
D12*
X109500000Y-47000000D03*
D13*
X112040000Y-47000000D03*
D12*
X179500000Y-47000000D03*
D13*
X182040000Y-47000000D03*
D12*
X127000000Y-47000000D03*
D13*
X129540000Y-47000000D03*
D12*
X92000000Y-47000000D03*
D13*
X94540000Y-47000000D03*
D12*
X25500000Y-23000000D03*
D13*
X28040000Y-23000000D03*
D12*
X57000000Y-47000000D03*
D13*
X59540000Y-47000000D03*
D16*
X114000000Y-44000000D03*
X107500000Y-44000000D03*
X28000000Y-57200000D03*
X28000000Y-56300000D03*
X28000000Y-55400000D03*
X28000000Y-54500000D03*
X28000000Y-53600000D03*
X40900000Y-56400000D03*
X32000000Y-46500000D03*
X32000000Y-52000000D03*
X37500000Y-48500000D03*
X43900000Y-56000000D03*
X39000000Y-48500000D03*
X67000000Y-59500000D03*
X47300000Y-48500000D03*
X84500000Y-59500000D03*
X46300000Y-47500000D03*
X102000000Y-59500000D03*
X45300000Y-48500000D03*
X119500000Y-59500000D03*
X44300000Y-47500000D03*
X43300000Y-48500000D03*
X137000000Y-59500000D03*
X42300000Y-47500000D03*
X154500000Y-59500000D03*
X172000000Y-59500000D03*
X42500000Y-57000000D03*
X189500000Y-59500000D03*
X42000000Y-58250000D03*
D17*
X105160000Y-35160000D02*
X105160000Y-37000000D01*
X103500000Y-33500000D02*
X105160000Y-35160000D01*
X93000000Y-33500000D02*
X103500000Y-33500000D01*
X90000000Y-36500000D02*
X93000000Y-33500000D01*
X90000000Y-39000000D02*
X90000000Y-36500000D01*
X88000000Y-41000000D02*
X90000000Y-39000000D01*
X61000000Y-41000000D02*
X88000000Y-41000000D01*
X57000000Y-45000000D02*
X61000000Y-41000000D01*
X57000000Y-47000000D02*
X57000000Y-45000000D01*
X74500000Y-45000000D02*
X74500000Y-47000000D01*
X77500000Y-42000000D02*
X74500000Y-45000000D01*
X88500000Y-42000000D02*
X77500000Y-42000000D01*
X91000000Y-39500000D02*
X88500000Y-42000000D01*
X91000000Y-36989962D02*
X91000000Y-39500000D01*
X97000000Y-34500000D02*
X93489962Y-34500000D01*
X93489962Y-34500000D02*
X91000000Y-36989962D01*
X97540000Y-35040000D02*
X97000000Y-34500000D01*
X97540000Y-37000000D02*
X97540000Y-35040000D01*
X92000000Y-47000000D02*
X92000000Y-45000000D01*
X92000000Y-45000000D02*
X95000000Y-42000000D01*
X100080000Y-39000000D02*
X100080000Y-37000000D01*
X97080000Y-42000000D02*
X100080000Y-39000000D01*
X95000000Y-42000000D02*
X97080000Y-42000000D01*
X124000000Y-44000000D02*
X127000000Y-47000000D01*
X102620000Y-37000000D02*
X102620000Y-40000000D01*
X106620000Y-44000000D02*
X102620000Y-40000000D01*
X107500000Y-44000000D02*
X106620000Y-44000000D01*
X114000000Y-44000000D02*
X124000000Y-44000000D01*
X179500000Y-45000000D02*
X179500000Y-47000000D01*
X175500000Y-41000000D02*
X179500000Y-45000000D01*
X165000000Y-41000000D02*
X175500000Y-41000000D01*
X157500000Y-33500000D02*
X165000000Y-41000000D01*
X115500000Y-33500000D02*
X157500000Y-33500000D01*
X114380000Y-34620000D02*
X115500000Y-33500000D01*
X114380000Y-37000000D02*
X114380000Y-34620000D01*
X111000000Y-42000000D02*
X109500000Y-43500000D01*
X109500000Y-47000000D02*
X109500000Y-43500000D01*
X116920000Y-40000000D02*
X116920000Y-37000000D01*
X114920000Y-42000000D02*
X116920000Y-40000000D01*
X111000000Y-42000000D02*
X114920000Y-42000000D01*
X144500000Y-45000000D02*
X144500000Y-47000000D01*
X141500000Y-42000000D02*
X144500000Y-45000000D01*
X119460000Y-37000000D02*
X119460000Y-40000000D01*
X121460000Y-42000000D02*
X119460000Y-40000000D01*
X123000000Y-42000000D02*
X121460000Y-42000000D01*
X123000000Y-42000000D02*
X141500000Y-42000000D01*
X162000000Y-45000000D02*
X162000000Y-47000000D01*
X158000000Y-41000000D02*
X162000000Y-45000000D01*
X122000000Y-37000000D02*
X122000000Y-39000000D01*
X124000000Y-41000000D02*
X122000000Y-39000000D01*
X125500000Y-41000000D02*
X124000000Y-41000000D01*
X125500000Y-41000000D02*
X158000000Y-41000000D01*
D18*
X111840000Y-37000000D02*
X111840000Y-36764998D01*
D17*
X77040000Y-51960000D02*
X77000000Y-52000000D01*
X77040000Y-47000000D02*
X77040000Y-51960000D01*
X94000000Y-52000000D02*
X77000000Y-52000000D01*
X94540000Y-51960000D02*
X94500000Y-52000000D01*
X94540000Y-47000000D02*
X94540000Y-51960000D01*
X94500000Y-52000000D02*
X94000000Y-52000000D01*
X111500000Y-52000000D02*
X94500000Y-52000000D01*
X112040000Y-51960000D02*
X112000000Y-52000000D01*
X112040000Y-47000000D02*
X112040000Y-51960000D01*
X112000000Y-52000000D02*
X111500000Y-52000000D01*
X129000000Y-52000000D02*
X112000000Y-52000000D01*
X129540000Y-51960000D02*
X129500000Y-52000000D01*
X129540000Y-47000000D02*
X129540000Y-51960000D01*
X129500000Y-52000000D02*
X129000000Y-52000000D01*
X146000000Y-52000000D02*
X147750000Y-52000000D01*
X146500000Y-52000000D02*
X146000000Y-52000000D01*
X164000000Y-52000000D02*
X147750000Y-52000000D01*
X146000000Y-52000000D02*
X129500000Y-52000000D01*
X147040000Y-51960000D02*
X147000000Y-52000000D01*
X147040000Y-47000000D02*
X147040000Y-51960000D01*
X147000000Y-52000000D02*
X146750000Y-52000000D01*
X147750000Y-52000000D02*
X147000000Y-52000000D01*
X164540000Y-51960000D02*
X164500000Y-52000000D01*
X164540000Y-47000000D02*
X164540000Y-51960000D01*
X164500000Y-52000000D02*
X164000000Y-52000000D01*
X181500000Y-52000000D02*
X164500000Y-52000000D01*
X182040000Y-51960000D02*
X182000000Y-52000000D01*
X182000000Y-52000000D02*
X181500000Y-52000000D01*
X182040000Y-47000000D02*
X182040000Y-51960000D01*
X197500000Y-52000000D02*
X182000000Y-52000000D01*
X199540000Y-49960000D02*
X197500000Y-52000000D01*
X199540000Y-47000000D02*
X199540000Y-49960000D01*
X76500000Y-52000000D02*
X77000000Y-52000000D01*
X60580000Y-52000000D02*
X76500000Y-52000000D01*
X59540000Y-50960000D02*
X60580000Y-52000000D01*
X59540000Y-47000000D02*
X59540000Y-50960000D01*
X164540000Y-47000000D02*
X164540000Y-44000000D01*
X157540000Y-37000000D02*
X164540000Y-44000000D01*
X149000000Y-37000000D02*
X157540000Y-37000000D01*
X32000000Y-46500000D02*
X32000000Y-52000000D01*
X41540000Y-38500000D02*
X41540000Y-37040000D01*
X41540000Y-37040000D02*
X40500000Y-36000000D01*
X40500000Y-36000000D02*
X37500000Y-36000000D01*
X37500000Y-36000000D02*
X36000000Y-37500000D01*
X36000000Y-42500000D02*
X32000000Y-46500000D01*
X36000000Y-37500000D02*
X36000000Y-42500000D01*
D19*
X37500000Y-42540000D02*
X39000000Y-41040000D01*
X37500000Y-48500000D02*
X37500000Y-42540000D01*
X43900000Y-56000000D02*
X39000000Y-51100000D01*
X39000000Y-51100000D02*
X39000000Y-48500000D01*
X47300000Y-51700000D02*
X47300000Y-48500000D01*
X47300000Y-52300000D02*
X47300000Y-51700000D01*
X56500000Y-61500000D02*
X47300000Y-52300000D01*
X65000000Y-61500000D02*
X56500000Y-61500000D01*
X67000000Y-59500000D02*
X65000000Y-61500000D01*
X46300000Y-51450000D02*
X46300000Y-47500000D01*
X46300000Y-51936410D02*
X46300000Y-51450000D01*
X56313599Y-61950009D02*
X46300000Y-51936410D01*
X82049990Y-61950010D02*
X56313599Y-61950009D01*
X84500000Y-59500000D02*
X82049990Y-61950010D01*
X99099980Y-62400020D02*
X102000000Y-59500000D01*
X57349980Y-62400020D02*
X56127198Y-62400018D01*
X57349980Y-62400020D02*
X99099980Y-62400020D01*
X45300000Y-51572820D02*
X45300000Y-50550000D01*
X56127198Y-62400018D02*
X45300000Y-51572820D01*
X45300000Y-48500000D02*
X45300000Y-50550000D01*
X116149970Y-62850030D02*
X119500000Y-59500000D01*
X56899970Y-62850030D02*
X55940797Y-62850027D01*
X56899970Y-62850030D02*
X116149970Y-62850030D01*
X44300000Y-51209230D02*
X44300000Y-49800000D01*
X55940797Y-62850027D02*
X44300000Y-51209230D01*
X44300000Y-47500000D02*
X44300000Y-49800000D01*
X133199960Y-63300040D02*
X137000000Y-59500000D01*
X56949960Y-63300040D02*
X55754396Y-63300036D01*
X56949960Y-63300040D02*
X133199960Y-63300040D01*
X43300000Y-50845640D02*
X43300000Y-49300000D01*
X55754396Y-63300036D02*
X43300000Y-50845640D01*
X43300000Y-48500000D02*
X43300000Y-49300000D01*
X42300000Y-49950000D02*
X42300000Y-47500000D01*
X42300000Y-50482050D02*
X42300000Y-49950000D01*
X55567995Y-63750045D02*
X42300000Y-50482050D01*
X56500048Y-63750048D02*
X55567995Y-63750045D01*
X56500050Y-63750050D02*
X56500048Y-63750048D01*
X150249950Y-63750050D02*
X56500050Y-63750050D01*
X154500000Y-59500000D02*
X150249950Y-63750050D01*
X167299940Y-64200060D02*
X172000000Y-59500000D01*
X55950060Y-64200060D02*
X167299940Y-64200060D01*
X55950056Y-64200056D02*
X55950060Y-64200060D01*
X55381594Y-64200054D02*
X55950056Y-64200056D01*
X48181540Y-57000000D02*
X55381594Y-64200054D01*
X42500000Y-57000000D02*
X48181540Y-57000000D01*
X55650069Y-64650069D02*
X184349930Y-64650070D01*
X55650064Y-64650064D02*
X55650069Y-64650069D01*
X184349930Y-64650070D02*
X189500000Y-59500000D01*
X55195193Y-64650063D02*
X55650064Y-64650064D01*
X48795130Y-58250000D02*
X55195193Y-64650063D01*
X42000000Y-58250000D02*
X48795130Y-58250000D01*
D17*
X39225001Y-32461925D02*
X39221251Y-32500000D01*
X39236214Y-32651926D01*
X39280530Y-32798014D01*
X39352494Y-32932650D01*
X39449341Y-33050659D01*
X39567350Y-33147506D01*
X39701986Y-33219470D01*
X39848074Y-33263786D01*
X39961935Y-33275000D01*
X40000000Y-33278749D01*
X40038065Y-33275000D01*
X91810786Y-33275000D01*
X89327632Y-35758156D01*
X89289473Y-35789472D01*
X89164509Y-35941742D01*
X89130122Y-36006076D01*
X89071651Y-36115466D01*
X89014470Y-36303966D01*
X88995162Y-36500000D01*
X89000001Y-36549130D01*
X89000000Y-38585787D01*
X87585788Y-40000000D01*
X86310017Y-40000000D01*
X86731120Y-39718628D01*
X87218628Y-39231120D01*
X87601660Y-38657872D01*
X87865497Y-38020912D01*
X88000000Y-37344720D01*
X88000000Y-36655280D01*
X87865497Y-35979088D01*
X87601660Y-35342128D01*
X87218628Y-34768880D01*
X86731120Y-34281372D01*
X86157872Y-33898340D01*
X85520912Y-33634503D01*
X84844720Y-33500000D01*
X84155280Y-33500000D01*
X83479088Y-33634503D01*
X82842128Y-33898340D01*
X82268880Y-34281372D01*
X81781372Y-34768880D01*
X81398340Y-35342128D01*
X81134503Y-35979088D01*
X81000000Y-36655280D01*
X81000000Y-37344720D01*
X81134503Y-38020912D01*
X81398340Y-38657872D01*
X81781372Y-39231120D01*
X82268880Y-39718628D01*
X82689983Y-40000000D01*
X61049117Y-40000000D01*
X60999999Y-39995162D01*
X60950881Y-40000000D01*
X60950880Y-40000000D01*
X60803966Y-40014470D01*
X60615465Y-40071651D01*
X60441742Y-40164508D01*
X60289472Y-40289472D01*
X60258155Y-40327632D01*
X56327632Y-44258156D01*
X56289473Y-44289472D01*
X56164509Y-44441742D01*
X56114875Y-44534600D01*
X56071651Y-44615466D01*
X56014470Y-44803966D01*
X55995162Y-45000000D01*
X56000001Y-45049130D01*
X56000001Y-45356221D01*
X55952974Y-45360853D01*
X55811599Y-45403739D01*
X55681307Y-45473381D01*
X55567105Y-45567105D01*
X55473381Y-45681307D01*
X55403739Y-45811599D01*
X55360853Y-45952974D01*
X55346372Y-46100000D01*
X55346372Y-47900000D01*
X55360853Y-48047026D01*
X55403739Y-48188401D01*
X55473381Y-48318693D01*
X55567105Y-48432895D01*
X55681307Y-48526619D01*
X55811599Y-48596261D01*
X55952974Y-48639147D01*
X56100000Y-48653628D01*
X57900000Y-48653628D01*
X58047026Y-48639147D01*
X58188401Y-48596261D01*
X58318693Y-48526619D01*
X58432895Y-48432895D01*
X58526619Y-48318693D01*
X58531099Y-48310312D01*
X58540000Y-48316260D01*
X58540001Y-50910870D01*
X58535162Y-50960000D01*
X58554470Y-51156034D01*
X58611651Y-51344534D01*
X58647894Y-51412339D01*
X58704509Y-51518258D01*
X58829473Y-51670528D01*
X58867632Y-51701844D01*
X59838155Y-52672368D01*
X59869472Y-52710528D01*
X60021742Y-52835492D01*
X60129824Y-52893263D01*
X60195465Y-52928349D01*
X60383965Y-52985530D01*
X60579999Y-53004838D01*
X60629119Y-53000000D01*
X74886218Y-53000000D01*
X74677080Y-53209138D01*
X74455468Y-53540803D01*
X74302820Y-53909329D01*
X74252540Y-54162102D01*
X74032196Y-54382446D01*
X73980107Y-53851456D01*
X73531546Y-53594231D01*
X73041422Y-53429458D01*
X72528570Y-53363470D01*
X72012698Y-53398802D01*
X71513632Y-53534097D01*
X71050550Y-53764155D01*
X70919893Y-53851456D01*
X70867804Y-54382449D01*
X72450000Y-55964645D01*
X72464143Y-55950503D01*
X72499498Y-55985858D01*
X72485355Y-56000000D01*
X72499498Y-56014143D01*
X72464143Y-56049498D01*
X72450000Y-56035355D01*
X70867804Y-57617551D01*
X70919893Y-58148544D01*
X71368454Y-58405769D01*
X71858578Y-58570542D01*
X72371430Y-58636530D01*
X72887302Y-58601198D01*
X73025000Y-58563869D01*
X73025000Y-58799445D01*
X73102820Y-59190671D01*
X73255468Y-59559197D01*
X73477080Y-59890862D01*
X73759138Y-60172920D01*
X74090803Y-60394532D01*
X74459329Y-60547180D01*
X74850555Y-60625000D01*
X75249445Y-60625000D01*
X75640671Y-60547180D01*
X76009197Y-60394532D01*
X76340862Y-60172920D01*
X76622920Y-59890862D01*
X76844532Y-59559197D01*
X76997180Y-59190671D01*
X77047460Y-58937898D01*
X77167804Y-58817554D01*
X77219893Y-59348544D01*
X77668454Y-59605769D01*
X78158578Y-59770542D01*
X78671430Y-59836530D01*
X79187302Y-59801198D01*
X79686368Y-59665903D01*
X80149450Y-59435845D01*
X80280107Y-59348544D01*
X80332196Y-58817551D01*
X78750000Y-57235355D01*
X78735858Y-57249498D01*
X78700503Y-57214143D01*
X78714645Y-57200000D01*
X78785355Y-57200000D01*
X80367551Y-58782196D01*
X80898544Y-58730107D01*
X81155769Y-58281546D01*
X81320542Y-57791422D01*
X81386530Y-57278570D01*
X81351198Y-56762698D01*
X81215903Y-56263632D01*
X81045898Y-55921430D01*
X87313470Y-55921430D01*
X87348802Y-56437302D01*
X87484097Y-56936368D01*
X87714155Y-57399450D01*
X87801456Y-57530107D01*
X88332449Y-57582196D01*
X89914645Y-56000000D01*
X88332449Y-54417804D01*
X87801456Y-54469893D01*
X87544231Y-54918454D01*
X87379458Y-55408578D01*
X87313470Y-55921430D01*
X81045898Y-55921430D01*
X80985845Y-55800550D01*
X80898544Y-55669893D01*
X80367551Y-55617804D01*
X78785355Y-57200000D01*
X78714645Y-57200000D01*
X78700503Y-57185858D01*
X78735858Y-57150503D01*
X78750000Y-57164645D01*
X80332196Y-55582449D01*
X80280107Y-55051456D01*
X79831546Y-54794231D01*
X79341422Y-54629458D01*
X78828570Y-54563470D01*
X78312698Y-54598802D01*
X78275000Y-54609022D01*
X78275000Y-54300555D01*
X78197180Y-53909329D01*
X78044532Y-53540803D01*
X77822920Y-53209138D01*
X77613782Y-53000000D01*
X92386218Y-53000000D01*
X92177080Y-53209138D01*
X91955468Y-53540803D01*
X91802820Y-53909329D01*
X91752540Y-54162102D01*
X91532196Y-54382446D01*
X91480107Y-53851456D01*
X91031546Y-53594231D01*
X90541422Y-53429458D01*
X90028570Y-53363470D01*
X89512698Y-53398802D01*
X89013632Y-53534097D01*
X88550550Y-53764155D01*
X88419893Y-53851456D01*
X88367804Y-54382449D01*
X89950000Y-55964645D01*
X89964143Y-55950503D01*
X89999498Y-55985858D01*
X89985355Y-56000000D01*
X89999498Y-56014143D01*
X89964143Y-56049498D01*
X89950000Y-56035355D01*
X88367804Y-57617551D01*
X88419893Y-58148544D01*
X88868454Y-58405769D01*
X89358578Y-58570542D01*
X89871430Y-58636530D01*
X90387302Y-58601198D01*
X90525000Y-58563869D01*
X90525000Y-58799445D01*
X90602820Y-59190671D01*
X90755468Y-59559197D01*
X90977080Y-59890862D01*
X91259138Y-60172920D01*
X91590803Y-60394532D01*
X91959329Y-60547180D01*
X92350555Y-60625000D01*
X92749445Y-60625000D01*
X93140671Y-60547180D01*
X93509197Y-60394532D01*
X93840862Y-60172920D01*
X94122920Y-59890862D01*
X94344532Y-59559197D01*
X94497180Y-59190671D01*
X94547460Y-58937898D01*
X94667804Y-58817554D01*
X94719893Y-59348544D01*
X95168454Y-59605769D01*
X95658578Y-59770542D01*
X96171430Y-59836530D01*
X96687302Y-59801198D01*
X97186368Y-59665903D01*
X97649450Y-59435845D01*
X97780107Y-59348544D01*
X97832196Y-58817551D01*
X96250000Y-57235355D01*
X96235858Y-57249498D01*
X96200503Y-57214143D01*
X96214645Y-57200000D01*
X96285355Y-57200000D01*
X97867551Y-58782196D01*
X98398544Y-58730107D01*
X98655769Y-58281546D01*
X98820542Y-57791422D01*
X98886530Y-57278570D01*
X98851198Y-56762698D01*
X98715903Y-56263632D01*
X98545898Y-55921430D01*
X104813470Y-55921430D01*
X104848802Y-56437302D01*
X104984097Y-56936368D01*
X105214155Y-57399450D01*
X105301456Y-57530107D01*
X105832449Y-57582196D01*
X107414645Y-56000000D01*
X105832449Y-54417804D01*
X105301456Y-54469893D01*
X105044231Y-54918454D01*
X104879458Y-55408578D01*
X104813470Y-55921430D01*
X98545898Y-55921430D01*
X98485845Y-55800550D01*
X98398544Y-55669893D01*
X97867551Y-55617804D01*
X96285355Y-57200000D01*
X96214645Y-57200000D01*
X96200503Y-57185858D01*
X96235858Y-57150503D01*
X96250000Y-57164645D01*
X97832196Y-55582449D01*
X97780107Y-55051456D01*
X97331546Y-54794231D01*
X96841422Y-54629458D01*
X96328570Y-54563470D01*
X95812698Y-54598802D01*
X95775000Y-54609022D01*
X95775000Y-54300555D01*
X95697180Y-53909329D01*
X95544532Y-53540803D01*
X95322920Y-53209138D01*
X95113782Y-53000000D01*
X109886218Y-53000000D01*
X109677080Y-53209138D01*
X109455468Y-53540803D01*
X109302820Y-53909329D01*
X109252540Y-54162102D01*
X109032196Y-54382446D01*
X108980107Y-53851456D01*
X108531546Y-53594231D01*
X108041422Y-53429458D01*
X107528570Y-53363470D01*
X107012698Y-53398802D01*
X106513632Y-53534097D01*
X106050550Y-53764155D01*
X105919893Y-53851456D01*
X105867804Y-54382449D01*
X107450000Y-55964645D01*
X107464143Y-55950503D01*
X107499498Y-55985858D01*
X107485355Y-56000000D01*
X107499498Y-56014143D01*
X107464143Y-56049498D01*
X107450000Y-56035355D01*
X105867804Y-57617551D01*
X105919893Y-58148544D01*
X106368454Y-58405769D01*
X106858578Y-58570542D01*
X107371430Y-58636530D01*
X107887302Y-58601198D01*
X108025000Y-58563869D01*
X108025000Y-58799445D01*
X108102820Y-59190671D01*
X108255468Y-59559197D01*
X108477080Y-59890862D01*
X108759138Y-60172920D01*
X109090803Y-60394532D01*
X109459329Y-60547180D01*
X109850555Y-60625000D01*
X110249445Y-60625000D01*
X110640671Y-60547180D01*
X111009197Y-60394532D01*
X111340862Y-60172920D01*
X111622920Y-59890862D01*
X111844532Y-59559197D01*
X111997180Y-59190671D01*
X112047460Y-58937898D01*
X112167804Y-58817554D01*
X112219893Y-59348544D01*
X112668454Y-59605769D01*
X113158578Y-59770542D01*
X113671430Y-59836530D01*
X114187302Y-59801198D01*
X114686368Y-59665903D01*
X115149450Y-59435845D01*
X115280107Y-59348544D01*
X115332196Y-58817551D01*
X113750000Y-57235355D01*
X113735858Y-57249498D01*
X113700503Y-57214143D01*
X113714645Y-57200000D01*
X113785355Y-57200000D01*
X115367551Y-58782196D01*
X115898544Y-58730107D01*
X116155769Y-58281546D01*
X116320542Y-57791422D01*
X116386530Y-57278570D01*
X116351198Y-56762698D01*
X116215903Y-56263632D01*
X116045898Y-55921430D01*
X122313470Y-55921430D01*
X122348802Y-56437302D01*
X122484097Y-56936368D01*
X122714155Y-57399450D01*
X122801456Y-57530107D01*
X123332449Y-57582196D01*
X124914645Y-56000000D01*
X123332449Y-54417804D01*
X122801456Y-54469893D01*
X122544231Y-54918454D01*
X122379458Y-55408578D01*
X122313470Y-55921430D01*
X116045898Y-55921430D01*
X115985845Y-55800550D01*
X115898544Y-55669893D01*
X115367551Y-55617804D01*
X113785355Y-57200000D01*
X113714645Y-57200000D01*
X113700503Y-57185858D01*
X113735858Y-57150503D01*
X113750000Y-57164645D01*
X115332196Y-55582449D01*
X115280107Y-55051456D01*
X114831546Y-54794231D01*
X114341422Y-54629458D01*
X113828570Y-54563470D01*
X113312698Y-54598802D01*
X113275000Y-54609022D01*
X113275000Y-54300555D01*
X113197180Y-53909329D01*
X113044532Y-53540803D01*
X112822920Y-53209138D01*
X112613782Y-53000000D01*
X127386218Y-53000000D01*
X127177080Y-53209138D01*
X126955468Y-53540803D01*
X126802820Y-53909329D01*
X126752540Y-54162102D01*
X126532196Y-54382446D01*
X126480107Y-53851456D01*
X126031546Y-53594231D01*
X125541422Y-53429458D01*
X125028570Y-53363470D01*
X124512698Y-53398802D01*
X124013632Y-53534097D01*
X123550550Y-53764155D01*
X123419893Y-53851456D01*
X123367804Y-54382449D01*
X124950000Y-55964645D01*
X124964143Y-55950503D01*
X124999498Y-55985858D01*
X124985355Y-56000000D01*
X124999498Y-56014143D01*
X124964143Y-56049498D01*
X124950000Y-56035355D01*
X123367804Y-57617551D01*
X123419893Y-58148544D01*
X123868454Y-58405769D01*
X124358578Y-58570542D01*
X124871430Y-58636530D01*
X125387302Y-58601198D01*
X125525000Y-58563869D01*
X125525000Y-58799445D01*
X125602820Y-59190671D01*
X125755468Y-59559197D01*
X125977080Y-59890862D01*
X126259138Y-60172920D01*
X126590803Y-60394532D01*
X126959329Y-60547180D01*
X127350555Y-60625000D01*
X127749445Y-60625000D01*
X128140671Y-60547180D01*
X128509197Y-60394532D01*
X128840862Y-60172920D01*
X129122920Y-59890862D01*
X129344532Y-59559197D01*
X129497180Y-59190671D01*
X129547460Y-58937898D01*
X129667804Y-58817554D01*
X129719893Y-59348544D01*
X130168454Y-59605769D01*
X130658578Y-59770542D01*
X131171430Y-59836530D01*
X131687302Y-59801198D01*
X132186368Y-59665903D01*
X132649450Y-59435845D01*
X132780107Y-59348544D01*
X132832196Y-58817551D01*
X131250000Y-57235355D01*
X131235858Y-57249498D01*
X131200503Y-57214143D01*
X131214645Y-57200000D01*
X131285355Y-57200000D01*
X132867551Y-58782196D01*
X133398544Y-58730107D01*
X133655769Y-58281546D01*
X133820542Y-57791422D01*
X133886530Y-57278570D01*
X133851198Y-56762698D01*
X133715903Y-56263632D01*
X133545898Y-55921430D01*
X139813470Y-55921430D01*
X139848802Y-56437302D01*
X139984097Y-56936368D01*
X140214155Y-57399450D01*
X140301456Y-57530107D01*
X140832449Y-57582196D01*
X142414645Y-56000000D01*
X140832449Y-54417804D01*
X140301456Y-54469893D01*
X140044231Y-54918454D01*
X139879458Y-55408578D01*
X139813470Y-55921430D01*
X133545898Y-55921430D01*
X133485845Y-55800550D01*
X133398544Y-55669893D01*
X132867551Y-55617804D01*
X131285355Y-57200000D01*
X131214645Y-57200000D01*
X131200503Y-57185858D01*
X131235858Y-57150503D01*
X131250000Y-57164645D01*
X132832196Y-55582449D01*
X132780107Y-55051456D01*
X132331546Y-54794231D01*
X131841422Y-54629458D01*
X131328570Y-54563470D01*
X130812698Y-54598802D01*
X130775000Y-54609022D01*
X130775000Y-54300555D01*
X130697180Y-53909329D01*
X130544532Y-53540803D01*
X130322920Y-53209138D01*
X130113782Y-53000000D01*
X144886218Y-53000000D01*
X144677080Y-53209138D01*
X144455468Y-53540803D01*
X144302820Y-53909329D01*
X144252540Y-54162102D01*
X144032196Y-54382446D01*
X143980107Y-53851456D01*
X143531546Y-53594231D01*
X143041422Y-53429458D01*
X142528570Y-53363470D01*
X142012698Y-53398802D01*
X141513632Y-53534097D01*
X141050550Y-53764155D01*
X140919893Y-53851456D01*
X140867804Y-54382449D01*
X142450000Y-55964645D01*
X142464143Y-55950503D01*
X142499498Y-55985858D01*
X142485355Y-56000000D01*
X142499498Y-56014143D01*
X142464143Y-56049498D01*
X142450000Y-56035355D01*
X140867804Y-57617551D01*
X140919893Y-58148544D01*
X141368454Y-58405769D01*
X141858578Y-58570542D01*
X142371430Y-58636530D01*
X142887302Y-58601198D01*
X143025000Y-58563869D01*
X143025000Y-58799445D01*
X143102820Y-59190671D01*
X143255468Y-59559197D01*
X143477080Y-59890862D01*
X143759138Y-60172920D01*
X144090803Y-60394532D01*
X144459329Y-60547180D01*
X144850555Y-60625000D01*
X145249445Y-60625000D01*
X145640671Y-60547180D01*
X146009197Y-60394532D01*
X146340862Y-60172920D01*
X146622920Y-59890862D01*
X146844532Y-59559197D01*
X146997180Y-59190671D01*
X147047460Y-58937898D01*
X147167804Y-58817554D01*
X147219893Y-59348544D01*
X147668454Y-59605769D01*
X148158578Y-59770542D01*
X148671430Y-59836530D01*
X149187302Y-59801198D01*
X149686368Y-59665903D01*
X150149450Y-59435845D01*
X150280107Y-59348544D01*
X150332196Y-58817551D01*
X148750000Y-57235355D01*
X148735858Y-57249498D01*
X148700503Y-57214143D01*
X148714645Y-57200000D01*
X148785355Y-57200000D01*
X150367551Y-58782196D01*
X150898544Y-58730107D01*
X151155769Y-58281546D01*
X151320542Y-57791422D01*
X151386530Y-57278570D01*
X151351198Y-56762698D01*
X151215903Y-56263632D01*
X151045898Y-55921430D01*
X157313470Y-55921430D01*
X157348802Y-56437302D01*
X157484097Y-56936368D01*
X157714155Y-57399450D01*
X157801456Y-57530107D01*
X158332449Y-57582196D01*
X159914645Y-56000000D01*
X158332449Y-54417804D01*
X157801456Y-54469893D01*
X157544231Y-54918454D01*
X157379458Y-55408578D01*
X157313470Y-55921430D01*
X151045898Y-55921430D01*
X150985845Y-55800550D01*
X150898544Y-55669893D01*
X150367551Y-55617804D01*
X148785355Y-57200000D01*
X148714645Y-57200000D01*
X148700503Y-57185858D01*
X148735858Y-57150503D01*
X148750000Y-57164645D01*
X150332196Y-55582449D01*
X150280107Y-55051456D01*
X149831546Y-54794231D01*
X149341422Y-54629458D01*
X148828570Y-54563470D01*
X148312698Y-54598802D01*
X148275000Y-54609022D01*
X148275000Y-54300555D01*
X148197180Y-53909329D01*
X148044532Y-53540803D01*
X147822920Y-53209138D01*
X147613782Y-53000000D01*
X162386218Y-53000000D01*
X162177080Y-53209138D01*
X161955468Y-53540803D01*
X161802820Y-53909329D01*
X161752540Y-54162102D01*
X161532196Y-54382446D01*
X161480107Y-53851456D01*
X161031546Y-53594231D01*
X160541422Y-53429458D01*
X160028570Y-53363470D01*
X159512698Y-53398802D01*
X159013632Y-53534097D01*
X158550550Y-53764155D01*
X158419893Y-53851456D01*
X158367804Y-54382449D01*
X159950000Y-55964645D01*
X159964143Y-55950503D01*
X159999498Y-55985858D01*
X159985355Y-56000000D01*
X159999498Y-56014143D01*
X159964143Y-56049498D01*
X159950000Y-56035355D01*
X158367804Y-57617551D01*
X158419893Y-58148544D01*
X158868454Y-58405769D01*
X159358578Y-58570542D01*
X159871430Y-58636530D01*
X160387302Y-58601198D01*
X160525000Y-58563869D01*
X160525000Y-58799445D01*
X160602820Y-59190671D01*
X160755468Y-59559197D01*
X160977080Y-59890862D01*
X161259138Y-60172920D01*
X161590803Y-60394532D01*
X161959329Y-60547180D01*
X162350555Y-60625000D01*
X162749445Y-60625000D01*
X163140671Y-60547180D01*
X163509197Y-60394532D01*
X163840862Y-60172920D01*
X164122920Y-59890862D01*
X164344532Y-59559197D01*
X164497180Y-59190671D01*
X164547460Y-58937898D01*
X164667804Y-58817554D01*
X164719893Y-59348544D01*
X165168454Y-59605769D01*
X165658578Y-59770542D01*
X166171430Y-59836530D01*
X166687302Y-59801198D01*
X167186368Y-59665903D01*
X167649450Y-59435845D01*
X167780107Y-59348544D01*
X167832196Y-58817551D01*
X166250000Y-57235355D01*
X166235858Y-57249498D01*
X166200503Y-57214143D01*
X166214645Y-57200000D01*
X166285355Y-57200000D01*
X167867551Y-58782196D01*
X168398544Y-58730107D01*
X168655769Y-58281546D01*
X168820542Y-57791422D01*
X168886530Y-57278570D01*
X168851198Y-56762698D01*
X168715903Y-56263632D01*
X168545898Y-55921430D01*
X174813470Y-55921430D01*
X174848802Y-56437302D01*
X174984097Y-56936368D01*
X175214155Y-57399450D01*
X175301456Y-57530107D01*
X175832449Y-57582196D01*
X177414645Y-56000000D01*
X175832449Y-54417804D01*
X175301456Y-54469893D01*
X175044231Y-54918454D01*
X174879458Y-55408578D01*
X174813470Y-55921430D01*
X168545898Y-55921430D01*
X168485845Y-55800550D01*
X168398544Y-55669893D01*
X167867551Y-55617804D01*
X166285355Y-57200000D01*
X166214645Y-57200000D01*
X166200503Y-57185858D01*
X166235858Y-57150503D01*
X166250000Y-57164645D01*
X167832196Y-55582449D01*
X167780107Y-55051456D01*
X167331546Y-54794231D01*
X166841422Y-54629458D01*
X166328570Y-54563470D01*
X165812698Y-54598802D01*
X165775000Y-54609022D01*
X165775000Y-54300555D01*
X165697180Y-53909329D01*
X165544532Y-53540803D01*
X165322920Y-53209138D01*
X165113782Y-53000000D01*
X179886218Y-53000000D01*
X179677080Y-53209138D01*
X179455468Y-53540803D01*
X179302820Y-53909329D01*
X179252540Y-54162102D01*
X179032196Y-54382446D01*
X178980107Y-53851456D01*
X178531546Y-53594231D01*
X178041422Y-53429458D01*
X177528570Y-53363470D01*
X177012698Y-53398802D01*
X176513632Y-53534097D01*
X176050550Y-53764155D01*
X175919893Y-53851456D01*
X175867804Y-54382449D01*
X177450000Y-55964645D01*
X177464143Y-55950503D01*
X177499498Y-55985858D01*
X177485355Y-56000000D01*
X177499498Y-56014143D01*
X177464143Y-56049498D01*
X177450000Y-56035355D01*
X175867804Y-57617551D01*
X175919893Y-58148544D01*
X176368454Y-58405769D01*
X176858578Y-58570542D01*
X177371430Y-58636530D01*
X177887302Y-58601198D01*
X178025000Y-58563869D01*
X178025000Y-58799445D01*
X178102820Y-59190671D01*
X178255468Y-59559197D01*
X178477080Y-59890862D01*
X178759138Y-60172920D01*
X179090803Y-60394532D01*
X179459329Y-60547180D01*
X179850555Y-60625000D01*
X180249445Y-60625000D01*
X180640671Y-60547180D01*
X181009197Y-60394532D01*
X181340862Y-60172920D01*
X181622920Y-59890862D01*
X181844532Y-59559197D01*
X181997180Y-59190671D01*
X182047460Y-58937898D01*
X182167804Y-58817554D01*
X182219893Y-59348544D01*
X182668454Y-59605769D01*
X183158578Y-59770542D01*
X183671430Y-59836530D01*
X184187302Y-59801198D01*
X184686368Y-59665903D01*
X185149450Y-59435845D01*
X185280107Y-59348544D01*
X185332196Y-58817551D01*
X183750000Y-57235355D01*
X183735858Y-57249498D01*
X183700503Y-57214143D01*
X183714645Y-57200000D01*
X183785355Y-57200000D01*
X185367551Y-58782196D01*
X185898544Y-58730107D01*
X186155769Y-58281546D01*
X186320542Y-57791422D01*
X186386530Y-57278570D01*
X186351198Y-56762698D01*
X186215903Y-56263632D01*
X186045898Y-55921430D01*
X192313470Y-55921430D01*
X192348802Y-56437302D01*
X192484097Y-56936368D01*
X192714155Y-57399450D01*
X192801456Y-57530107D01*
X193332449Y-57582196D01*
X194914645Y-56000000D01*
X193332449Y-54417804D01*
X192801456Y-54469893D01*
X192544231Y-54918454D01*
X192379458Y-55408578D01*
X192313470Y-55921430D01*
X186045898Y-55921430D01*
X185985845Y-55800550D01*
X185898544Y-55669893D01*
X185367551Y-55617804D01*
X183785355Y-57200000D01*
X183714645Y-57200000D01*
X183700503Y-57185858D01*
X183735858Y-57150503D01*
X183750000Y-57164645D01*
X185332196Y-55582449D01*
X185280107Y-55051456D01*
X184831546Y-54794231D01*
X184341422Y-54629458D01*
X183828570Y-54563470D01*
X183312698Y-54598802D01*
X183275000Y-54609022D01*
X183275000Y-54300555D01*
X183197180Y-53909329D01*
X183044532Y-53540803D01*
X182822920Y-53209138D01*
X182613782Y-53000000D01*
X197386218Y-53000000D01*
X197177080Y-53209138D01*
X196955468Y-53540803D01*
X196802820Y-53909329D01*
X196752540Y-54162102D01*
X196532196Y-54382446D01*
X196480107Y-53851456D01*
X196031546Y-53594231D01*
X195541422Y-53429458D01*
X195028570Y-53363470D01*
X194512698Y-53398802D01*
X194013632Y-53534097D01*
X193550550Y-53764155D01*
X193419893Y-53851456D01*
X193367804Y-54382449D01*
X194950000Y-55964645D01*
X194964143Y-55950503D01*
X194999498Y-55985858D01*
X194985355Y-56000000D01*
X194999498Y-56014143D01*
X194964143Y-56049498D01*
X194950000Y-56035355D01*
X193367804Y-57617551D01*
X193419893Y-58148544D01*
X193868454Y-58405769D01*
X194358578Y-58570542D01*
X194871430Y-58636530D01*
X195387302Y-58601198D01*
X195525000Y-58563869D01*
X195525000Y-58799445D01*
X195602820Y-59190671D01*
X195755468Y-59559197D01*
X195977080Y-59890862D01*
X196259138Y-60172920D01*
X196590803Y-60394532D01*
X196959329Y-60547180D01*
X197350555Y-60625000D01*
X197749445Y-60625000D01*
X198140671Y-60547180D01*
X198509197Y-60394532D01*
X198840862Y-60172920D01*
X199122920Y-59890862D01*
X199344532Y-59559197D01*
X199497180Y-59190671D01*
X199547460Y-58937898D01*
X199667804Y-58817554D01*
X199719893Y-59348544D01*
X200168454Y-59605769D01*
X200658578Y-59770542D01*
X201171430Y-59836530D01*
X201687302Y-59801198D01*
X202186368Y-59665903D01*
X202649450Y-59435845D01*
X202780107Y-59348544D01*
X202832196Y-58817551D01*
X201250000Y-57235355D01*
X201235858Y-57249498D01*
X201200503Y-57214143D01*
X201214645Y-57200000D01*
X201285355Y-57200000D01*
X202867551Y-58782196D01*
X203398544Y-58730107D01*
X203655769Y-58281546D01*
X203820542Y-57791422D01*
X203886530Y-57278570D01*
X203851198Y-56762698D01*
X203715903Y-56263632D01*
X203485845Y-55800550D01*
X203398544Y-55669893D01*
X202867551Y-55617804D01*
X201285355Y-57200000D01*
X201214645Y-57200000D01*
X201200503Y-57185858D01*
X201235858Y-57150503D01*
X201250000Y-57164645D01*
X202832196Y-55582449D01*
X202780107Y-55051456D01*
X202331546Y-54794231D01*
X201841422Y-54629458D01*
X201328570Y-54563470D01*
X200812698Y-54598802D01*
X200775000Y-54609022D01*
X200775000Y-54300555D01*
X200697180Y-53909329D01*
X200544532Y-53540803D01*
X200322920Y-53209138D01*
X200040862Y-52927080D01*
X199709197Y-52705468D01*
X199340671Y-52552820D01*
X198949445Y-52475000D01*
X198550555Y-52475000D01*
X198411565Y-52502647D01*
X199474733Y-51439480D01*
X216595875Y-51439480D01*
X216691390Y-51843679D01*
X217076218Y-52063550D01*
X217496547Y-52204121D01*
X217936223Y-52259988D01*
X218378350Y-52229006D01*
X218805938Y-52112363D01*
X219202554Y-51914544D01*
X219308610Y-51843679D01*
X219404125Y-51439480D01*
X218000000Y-50035355D01*
X216595875Y-51439480D01*
X199474733Y-51439480D01*
X200212374Y-50701840D01*
X200250528Y-50670528D01*
X200375492Y-50518258D01*
X200468349Y-50344535D01*
X200525530Y-50156034D01*
X200540000Y-50009120D01*
X200544838Y-49960000D01*
X200542497Y-49936223D01*
X215740012Y-49936223D01*
X215770994Y-50378350D01*
X215887637Y-50805938D01*
X216085456Y-51202554D01*
X216156321Y-51308610D01*
X216560520Y-51404125D01*
X217964645Y-50000000D01*
X218035355Y-50000000D01*
X219439480Y-51404125D01*
X219843679Y-51308610D01*
X220063550Y-50923782D01*
X220204121Y-50503453D01*
X220259988Y-50063777D01*
X220229006Y-49621650D01*
X220112363Y-49194062D01*
X219914544Y-48797446D01*
X219843679Y-48691390D01*
X219439480Y-48595875D01*
X218035355Y-50000000D01*
X217964645Y-50000000D01*
X216560520Y-48595875D01*
X216156321Y-48691390D01*
X215936450Y-49076218D01*
X215795879Y-49496547D01*
X215740012Y-49936223D01*
X200542497Y-49936223D01*
X200540000Y-49910880D01*
X200540000Y-48560520D01*
X216595875Y-48560520D01*
X218000000Y-49964645D01*
X219404125Y-48560520D01*
X219308610Y-48156321D01*
X218923782Y-47936450D01*
X218503453Y-47795879D01*
X218063777Y-47740012D01*
X217621650Y-47770994D01*
X217194062Y-47887637D01*
X216797446Y-48085456D01*
X216691390Y-48156321D01*
X216595875Y-48560520D01*
X200540000Y-48560520D01*
X200540000Y-48316260D01*
X200591814Y-48281639D01*
X200821639Y-48051814D01*
X201002211Y-47781568D01*
X201126592Y-47481287D01*
X201190000Y-47162511D01*
X201190000Y-46837489D01*
X201126592Y-46518713D01*
X201002211Y-46218432D01*
X200821639Y-45948186D01*
X200591814Y-45718361D01*
X200321568Y-45537789D01*
X200021287Y-45413408D01*
X199702511Y-45350000D01*
X199377489Y-45350000D01*
X199058713Y-45413408D01*
X198758432Y-45537789D01*
X198531099Y-45689688D01*
X198526619Y-45681307D01*
X198432895Y-45567105D01*
X198318693Y-45473381D01*
X198188401Y-45403739D01*
X198047026Y-45360853D01*
X197900000Y-45346372D01*
X196100000Y-45346372D01*
X195952974Y-45360853D01*
X195811599Y-45403739D01*
X195681307Y-45473381D01*
X195567105Y-45567105D01*
X195473381Y-45681307D01*
X195403739Y-45811599D01*
X195360853Y-45952974D01*
X195346372Y-46100000D01*
X195346372Y-47900000D01*
X195360853Y-48047026D01*
X195403739Y-48188401D01*
X195473381Y-48318693D01*
X195567105Y-48432895D01*
X195681307Y-48526619D01*
X195811599Y-48596261D01*
X195952974Y-48639147D01*
X196100000Y-48653628D01*
X197900000Y-48653628D01*
X198047026Y-48639147D01*
X198188401Y-48596261D01*
X198318693Y-48526619D01*
X198432895Y-48432895D01*
X198526619Y-48318693D01*
X198531099Y-48310312D01*
X198540000Y-48316260D01*
X198540001Y-49545785D01*
X197085788Y-51000000D01*
X183040000Y-51000000D01*
X183040000Y-48316260D01*
X183091814Y-48281639D01*
X183321639Y-48051814D01*
X183502211Y-47781568D01*
X183626592Y-47481287D01*
X183690000Y-47162511D01*
X183690000Y-46837489D01*
X183626592Y-46518713D01*
X183502211Y-46218432D01*
X183321639Y-45948186D01*
X183091814Y-45718361D01*
X182821568Y-45537789D01*
X182521287Y-45413408D01*
X182202511Y-45350000D01*
X181877489Y-45350000D01*
X181558713Y-45413408D01*
X181258432Y-45537789D01*
X181031099Y-45689688D01*
X181026619Y-45681307D01*
X180932895Y-45567105D01*
X180818693Y-45473381D01*
X180688401Y-45403739D01*
X180547026Y-45360853D01*
X180500000Y-45356221D01*
X180500000Y-45049117D01*
X180504838Y-44999999D01*
X180494325Y-44893263D01*
X180485530Y-44803966D01*
X180428349Y-44615465D01*
X180335492Y-44441742D01*
X180210528Y-44289472D01*
X180172368Y-44258155D01*
X178192607Y-42278394D01*
X215750000Y-42278394D01*
X215750000Y-42721606D01*
X215836466Y-43156301D01*
X216006076Y-43565775D01*
X216252311Y-43934292D01*
X216565708Y-44247689D01*
X216934225Y-44493924D01*
X217343699Y-44663534D01*
X217778394Y-44750000D01*
X218221606Y-44750000D01*
X218656301Y-44663534D01*
X219065775Y-44493924D01*
X219434292Y-44247689D01*
X219747689Y-43934292D01*
X219993924Y-43565775D01*
X220163534Y-43156301D01*
X220250000Y-42721606D01*
X220250000Y-42278394D01*
X220163534Y-41843699D01*
X219993924Y-41434225D01*
X219747689Y-41065708D01*
X219434292Y-40752311D01*
X219065775Y-40506076D01*
X218656301Y-40336466D01*
X218221606Y-40250000D01*
X217778394Y-40250000D01*
X217343699Y-40336466D01*
X216934225Y-40506076D01*
X216565708Y-40752311D01*
X216252311Y-41065708D01*
X216006076Y-41434225D01*
X215836466Y-41843699D01*
X215750000Y-42278394D01*
X178192607Y-42278394D01*
X176402683Y-40488471D01*
X177020912Y-40365497D01*
X177657872Y-40101660D01*
X178231120Y-39718628D01*
X178718628Y-39231120D01*
X179101660Y-38657872D01*
X179365497Y-38020912D01*
X179500000Y-37344720D01*
X179500000Y-36778394D01*
X211750000Y-36778394D01*
X211750000Y-37221606D01*
X211836466Y-37656301D01*
X212006076Y-38065775D01*
X212252311Y-38434292D01*
X212565708Y-38747689D01*
X212934225Y-38993924D01*
X213343699Y-39163534D01*
X213778394Y-39250000D01*
X214221606Y-39250000D01*
X214656301Y-39163534D01*
X215065775Y-38993924D01*
X215434292Y-38747689D01*
X215747689Y-38434292D01*
X215993924Y-38065775D01*
X216163534Y-37656301D01*
X216250000Y-37221606D01*
X216250000Y-36778394D01*
X216163534Y-36343699D01*
X215993924Y-35934225D01*
X215747689Y-35565708D01*
X215434292Y-35252311D01*
X215065775Y-35006076D01*
X214656301Y-34836466D01*
X214221606Y-34750000D01*
X213778394Y-34750000D01*
X213343699Y-34836466D01*
X212934225Y-35006076D01*
X212565708Y-35252311D01*
X212252311Y-35565708D01*
X212006076Y-35934225D01*
X211836466Y-36343699D01*
X211750000Y-36778394D01*
X179500000Y-36778394D01*
X179500000Y-36655280D01*
X179365497Y-35979088D01*
X179101660Y-35342128D01*
X178718628Y-34768880D01*
X178231120Y-34281372D01*
X177657872Y-33898340D01*
X177020912Y-33634503D01*
X176344720Y-33500000D01*
X175655280Y-33500000D01*
X174979088Y-33634503D01*
X174342128Y-33898340D01*
X173768880Y-34281372D01*
X173281372Y-34768880D01*
X172898340Y-35342128D01*
X172634503Y-35979088D01*
X172500000Y-36655280D01*
X172500000Y-37344720D01*
X172634503Y-38020912D01*
X172898340Y-38657872D01*
X173281372Y-39231120D01*
X173768880Y-39718628D01*
X174189983Y-40000000D01*
X165414214Y-40000000D01*
X158689212Y-33275000D01*
X224225000Y-33275000D01*
X224225001Y-66225000D01*
X203033318Y-66225000D01*
X202990505Y-66221310D01*
X202919413Y-66229188D01*
X202848074Y-66236214D01*
X202843508Y-66237599D01*
X202838772Y-66238124D01*
X202770517Y-66259741D01*
X202701986Y-66280530D01*
X202697783Y-66282777D01*
X202693235Y-66284217D01*
X202630500Y-66318740D01*
X202567350Y-66352494D01*
X202563662Y-66355520D01*
X202559487Y-66357818D01*
X202504731Y-66403884D01*
X202449341Y-66449341D01*
X202446313Y-66453030D01*
X202442668Y-66456097D01*
X202397936Y-66511979D01*
X202352494Y-66567350D01*
X202350247Y-66571554D01*
X202347266Y-66575278D01*
X202314271Y-66638861D01*
X202280530Y-66701986D01*
X202268054Y-66743115D01*
X201475300Y-68725000D01*
X193524700Y-68725000D01*
X192731948Y-66743120D01*
X192719470Y-66701986D01*
X192685706Y-66638818D01*
X192652733Y-66575278D01*
X192649755Y-66571558D01*
X192647506Y-66567350D01*
X192602024Y-66511929D01*
X192557331Y-66456097D01*
X192553689Y-66453033D01*
X192550659Y-66449341D01*
X192495254Y-66403871D01*
X192440512Y-66357817D01*
X192436336Y-66355519D01*
X192432650Y-66352494D01*
X192369495Y-66318737D01*
X192306764Y-66284217D01*
X192302219Y-66282777D01*
X192298014Y-66280530D01*
X192229459Y-66259734D01*
X192161227Y-66238124D01*
X192156493Y-66237599D01*
X192151926Y-66236214D01*
X192080578Y-66229187D01*
X192009494Y-66221310D01*
X191966681Y-66225000D01*
X143033318Y-66225000D01*
X142990505Y-66221310D01*
X142919413Y-66229188D01*
X142848074Y-66236214D01*
X142843508Y-66237599D01*
X142838772Y-66238124D01*
X142770517Y-66259741D01*
X142701986Y-66280530D01*
X142697783Y-66282777D01*
X142693235Y-66284217D01*
X142630500Y-66318740D01*
X142567350Y-66352494D01*
X142563662Y-66355520D01*
X142559487Y-66357818D01*
X142504731Y-66403884D01*
X142449341Y-66449341D01*
X142446313Y-66453030D01*
X142442668Y-66456097D01*
X142397936Y-66511979D01*
X142352494Y-66567350D01*
X142350247Y-66571554D01*
X142347266Y-66575278D01*
X142314271Y-66638861D01*
X142280530Y-66701986D01*
X142268054Y-66743115D01*
X141475300Y-68725000D01*
X132524700Y-68725000D01*
X131731948Y-66743120D01*
X131719470Y-66701986D01*
X131685706Y-66638818D01*
X131652733Y-66575278D01*
X131649755Y-66571558D01*
X131647506Y-66567350D01*
X131602024Y-66511929D01*
X131557331Y-66456097D01*
X131553689Y-66453033D01*
X131550659Y-66449341D01*
X131495254Y-66403871D01*
X131440512Y-66357817D01*
X131436336Y-66355519D01*
X131432650Y-66352494D01*
X131369495Y-66318737D01*
X131306764Y-66284217D01*
X131302219Y-66282777D01*
X131298014Y-66280530D01*
X131229459Y-66259734D01*
X131161227Y-66238124D01*
X131156493Y-66237599D01*
X131151926Y-66236214D01*
X131080578Y-66229187D01*
X131009494Y-66221310D01*
X130966681Y-66225000D01*
X73033318Y-66225000D01*
X72990505Y-66221310D01*
X72919413Y-66229188D01*
X72848074Y-66236214D01*
X72843508Y-66237599D01*
X72838772Y-66238124D01*
X72770517Y-66259741D01*
X72701986Y-66280530D01*
X72697783Y-66282777D01*
X72693235Y-66284217D01*
X72630500Y-66318740D01*
X72567350Y-66352494D01*
X72563662Y-66355520D01*
X72559487Y-66357818D01*
X72504731Y-66403884D01*
X72449341Y-66449341D01*
X72446313Y-66453030D01*
X72442668Y-66456097D01*
X72397936Y-66511979D01*
X72352494Y-66567350D01*
X72350247Y-66571554D01*
X72347266Y-66575278D01*
X72314271Y-66638861D01*
X72280530Y-66701986D01*
X72268054Y-66743115D01*
X71475300Y-68725000D01*
X62524700Y-68725000D01*
X61731948Y-66743120D01*
X61719470Y-66701986D01*
X61685706Y-66638818D01*
X61652733Y-66575278D01*
X61649755Y-66571558D01*
X61647506Y-66567350D01*
X61602024Y-66511929D01*
X61557331Y-66456097D01*
X61553689Y-66453033D01*
X61550659Y-66449341D01*
X61495254Y-66403871D01*
X61440512Y-66357817D01*
X61436336Y-66355519D01*
X61432650Y-66352494D01*
X61369495Y-66318737D01*
X61306764Y-66284217D01*
X61302219Y-66282777D01*
X61298014Y-66280530D01*
X61229459Y-66259734D01*
X61161227Y-66238124D01*
X61156493Y-66237599D01*
X61151926Y-66236214D01*
X61080578Y-66229187D01*
X61009494Y-66221310D01*
X60966681Y-66225000D01*
X24775000Y-66225000D01*
X24775000Y-52060928D01*
X24777405Y-52045729D01*
X24775000Y-51984757D01*
X24775000Y-51961935D01*
X24773498Y-51946688D01*
X24771388Y-51893186D01*
X24766034Y-51870900D01*
X24763786Y-51848074D01*
X24748236Y-51796812D01*
X24735728Y-51744748D01*
X24726126Y-51723928D01*
X24719470Y-51701986D01*
X24694224Y-51654755D01*
X24671794Y-51606118D01*
X24658313Y-51587569D01*
X24647506Y-51567350D01*
X24613534Y-51525955D01*
X24604531Y-51513567D01*
X24589372Y-51496513D01*
X24550659Y-51449341D01*
X24538764Y-51439579D01*
X20775000Y-47205346D01*
X20775000Y-46939480D01*
X22095875Y-46939480D01*
X22191390Y-47343679D01*
X22576218Y-47563550D01*
X22996547Y-47704121D01*
X23436223Y-47759988D01*
X23878350Y-47729006D01*
X24305938Y-47612363D01*
X24702554Y-47414544D01*
X24808610Y-47343679D01*
X24904125Y-46939480D01*
X23500000Y-45535355D01*
X22095875Y-46939480D01*
X20775000Y-46939480D01*
X20775000Y-45436223D01*
X21240012Y-45436223D01*
X21270994Y-45878350D01*
X21387637Y-46305938D01*
X21585456Y-46702554D01*
X21656321Y-46808610D01*
X22060520Y-46904125D01*
X23464645Y-45500000D01*
X23535355Y-45500000D01*
X24939480Y-46904125D01*
X25343679Y-46808610D01*
X25563550Y-46423782D01*
X25575939Y-46386735D01*
X30850000Y-46386735D01*
X30850000Y-46613265D01*
X30894194Y-46835443D01*
X30980884Y-47044729D01*
X31000000Y-47073338D01*
X31000001Y-51426660D01*
X30980884Y-51455271D01*
X30894194Y-51664557D01*
X30850000Y-51886735D01*
X30850000Y-52113265D01*
X30894194Y-52335443D01*
X30980884Y-52544729D01*
X31106737Y-52733082D01*
X31266918Y-52893263D01*
X31455271Y-53019116D01*
X31664557Y-53105806D01*
X31886735Y-53150000D01*
X32113265Y-53150000D01*
X32335443Y-53105806D01*
X32544729Y-53019116D01*
X32733082Y-52893263D01*
X32893263Y-52733082D01*
X33019116Y-52544729D01*
X33105806Y-52335443D01*
X33150000Y-52113265D01*
X33150000Y-51886735D01*
X33105806Y-51664557D01*
X33019116Y-51455271D01*
X33000000Y-51426662D01*
X33000000Y-47073338D01*
X33019116Y-47044729D01*
X33105806Y-46835443D01*
X33112519Y-46801693D01*
X36625001Y-43289212D01*
X36625000Y-47748655D01*
X36606737Y-47766918D01*
X36480884Y-47955271D01*
X36394194Y-48164557D01*
X36350000Y-48386735D01*
X36350000Y-48613265D01*
X36394194Y-48835443D01*
X36480884Y-49044729D01*
X36606737Y-49233082D01*
X36766918Y-49393263D01*
X36955271Y-49519116D01*
X37164557Y-49605806D01*
X37386735Y-49650000D01*
X37613265Y-49650000D01*
X37835443Y-49605806D01*
X38044729Y-49519116D01*
X38125001Y-49465480D01*
X38125000Y-51057021D01*
X38120767Y-51100000D01*
X38135489Y-51249472D01*
X38137661Y-51271529D01*
X38187695Y-51436467D01*
X38268944Y-51588475D01*
X38378288Y-51721712D01*
X38411681Y-51749117D01*
X42512563Y-55850000D01*
X42386735Y-55850000D01*
X42164557Y-55894194D01*
X41955271Y-55980884D01*
X41766918Y-56106737D01*
X41606737Y-56266918D01*
X41480884Y-56455271D01*
X41394194Y-56664557D01*
X41350000Y-56886735D01*
X41350000Y-57113265D01*
X41383001Y-57279173D01*
X41266918Y-57356737D01*
X41106737Y-57516918D01*
X40980884Y-57705271D01*
X40894194Y-57914557D01*
X40850000Y-58136735D01*
X40850000Y-58363265D01*
X40894194Y-58585443D01*
X40980884Y-58794729D01*
X41106737Y-58983082D01*
X41266918Y-59143263D01*
X41455271Y-59269116D01*
X41664557Y-59355806D01*
X41886735Y-59400000D01*
X42113265Y-59400000D01*
X42335443Y-59355806D01*
X42544729Y-59269116D01*
X42733082Y-59143263D01*
X42751345Y-59125000D01*
X48432694Y-59125000D01*
X54546084Y-65238391D01*
X54573480Y-65271773D01*
X54606861Y-65299168D01*
X54606865Y-65299172D01*
X54706717Y-65381118D01*
X54858725Y-65462368D01*
X55023663Y-65512402D01*
X55195193Y-65529296D01*
X55238179Y-65525062D01*
X55607035Y-65525064D01*
X55650068Y-65529302D01*
X55693057Y-65525068D01*
X184306951Y-65525070D01*
X184349930Y-65529303D01*
X184521459Y-65512409D01*
X184686397Y-65462375D01*
X184686412Y-65462367D01*
X184838405Y-65381126D01*
X184971641Y-65271782D01*
X184999041Y-65238395D01*
X189587437Y-60650000D01*
X189613265Y-60650000D01*
X189835443Y-60605806D01*
X190044729Y-60519116D01*
X190233082Y-60393263D01*
X190393263Y-60233082D01*
X190519116Y-60044729D01*
X190605806Y-59835443D01*
X190650000Y-59613265D01*
X190650000Y-59386735D01*
X190605806Y-59164557D01*
X190519116Y-58955271D01*
X190393263Y-58766918D01*
X190233082Y-58606737D01*
X190044729Y-58480884D01*
X189835443Y-58394194D01*
X189613265Y-58350000D01*
X189386735Y-58350000D01*
X189164557Y-58394194D01*
X188955271Y-58480884D01*
X188766918Y-58606737D01*
X188606737Y-58766918D01*
X188480884Y-58955271D01*
X188394194Y-59164557D01*
X188350000Y-59386735D01*
X188350000Y-59412563D01*
X183987493Y-63775071D01*
X168962365Y-63775071D01*
X172087437Y-60650000D01*
X172113265Y-60650000D01*
X172335443Y-60605806D01*
X172544729Y-60519116D01*
X172733082Y-60393263D01*
X172893263Y-60233082D01*
X173019116Y-60044729D01*
X173105806Y-59835443D01*
X173150000Y-59613265D01*
X173150000Y-59386735D01*
X173105806Y-59164557D01*
X173019116Y-58955271D01*
X172893263Y-58766918D01*
X172733082Y-58606737D01*
X172544729Y-58480884D01*
X172335443Y-58394194D01*
X172113265Y-58350000D01*
X171886735Y-58350000D01*
X171664557Y-58394194D01*
X171455271Y-58480884D01*
X171266918Y-58606737D01*
X171106737Y-58766918D01*
X170980884Y-58955271D01*
X170894194Y-59164557D01*
X170850000Y-59386735D01*
X170850000Y-59412563D01*
X166937504Y-63325060D01*
X151912376Y-63325060D01*
X154587436Y-60650000D01*
X154613265Y-60650000D01*
X154835443Y-60605806D01*
X155044729Y-60519116D01*
X155233082Y-60393263D01*
X155393263Y-60233082D01*
X155519116Y-60044729D01*
X155605806Y-59835443D01*
X155650000Y-59613265D01*
X155650000Y-59386735D01*
X155605806Y-59164557D01*
X155519116Y-58955271D01*
X155393263Y-58766918D01*
X155233082Y-58606737D01*
X155044729Y-58480884D01*
X154835443Y-58394194D01*
X154613265Y-58350000D01*
X154386735Y-58350000D01*
X154164557Y-58394194D01*
X153955271Y-58480884D01*
X153766918Y-58606737D01*
X153606737Y-58766918D01*
X153480884Y-58955271D01*
X153394194Y-59164557D01*
X153350000Y-59386735D01*
X153350000Y-59412564D01*
X149887514Y-62875050D01*
X134862386Y-62875050D01*
X137087437Y-60650000D01*
X137113265Y-60650000D01*
X137335443Y-60605806D01*
X137544729Y-60519116D01*
X137733082Y-60393263D01*
X137893263Y-60233082D01*
X138019116Y-60044729D01*
X138105806Y-59835443D01*
X138150000Y-59613265D01*
X138150000Y-59386735D01*
X138105806Y-59164557D01*
X138019116Y-58955271D01*
X137893263Y-58766918D01*
X137733082Y-58606737D01*
X137544729Y-58480884D01*
X137335443Y-58394194D01*
X137113265Y-58350000D01*
X136886735Y-58350000D01*
X136664557Y-58394194D01*
X136455271Y-58480884D01*
X136266918Y-58606737D01*
X136106737Y-58766918D01*
X135980884Y-58955271D01*
X135894194Y-59164557D01*
X135850000Y-59386735D01*
X135850000Y-59412563D01*
X132837524Y-62425040D01*
X117812396Y-62425040D01*
X119587437Y-60650000D01*
X119613265Y-60650000D01*
X119835443Y-60605806D01*
X120044729Y-60519116D01*
X120233082Y-60393263D01*
X120393263Y-60233082D01*
X120519116Y-60044729D01*
X120605806Y-59835443D01*
X120650000Y-59613265D01*
X120650000Y-59386735D01*
X120605806Y-59164557D01*
X120519116Y-58955271D01*
X120393263Y-58766918D01*
X120233082Y-58606737D01*
X120044729Y-58480884D01*
X119835443Y-58394194D01*
X119613265Y-58350000D01*
X119386735Y-58350000D01*
X119164557Y-58394194D01*
X118955271Y-58480884D01*
X118766918Y-58606737D01*
X118606737Y-58766918D01*
X118480884Y-58955271D01*
X118394194Y-59164557D01*
X118350000Y-59386735D01*
X118350000Y-59412563D01*
X115787534Y-61975030D01*
X100762406Y-61975030D01*
X102087437Y-60650000D01*
X102113265Y-60650000D01*
X102335443Y-60605806D01*
X102544729Y-60519116D01*
X102733082Y-60393263D01*
X102893263Y-60233082D01*
X103019116Y-60044729D01*
X103105806Y-59835443D01*
X103150000Y-59613265D01*
X103150000Y-59386735D01*
X103105806Y-59164557D01*
X103019116Y-58955271D01*
X102893263Y-58766918D01*
X102733082Y-58606737D01*
X102544729Y-58480884D01*
X102335443Y-58394194D01*
X102113265Y-58350000D01*
X101886735Y-58350000D01*
X101664557Y-58394194D01*
X101455271Y-58480884D01*
X101266918Y-58606737D01*
X101106737Y-58766918D01*
X100980884Y-58955271D01*
X100894194Y-59164557D01*
X100850000Y-59386735D01*
X100850000Y-59412563D01*
X98737544Y-61525020D01*
X83712416Y-61525020D01*
X84587436Y-60650000D01*
X84613265Y-60650000D01*
X84835443Y-60605806D01*
X85044729Y-60519116D01*
X85233082Y-60393263D01*
X85393263Y-60233082D01*
X85519116Y-60044729D01*
X85605806Y-59835443D01*
X85650000Y-59613265D01*
X85650000Y-59386735D01*
X85605806Y-59164557D01*
X85519116Y-58955271D01*
X85393263Y-58766918D01*
X85233082Y-58606737D01*
X85044729Y-58480884D01*
X84835443Y-58394194D01*
X84613265Y-58350000D01*
X84386735Y-58350000D01*
X84164557Y-58394194D01*
X83955271Y-58480884D01*
X83766918Y-58606737D01*
X83606737Y-58766918D01*
X83480884Y-58955271D01*
X83394194Y-59164557D01*
X83350000Y-59386735D01*
X83350000Y-59412564D01*
X81687553Y-61075011D01*
X66662427Y-61075010D01*
X67087437Y-60650000D01*
X67113265Y-60650000D01*
X67335443Y-60605806D01*
X67544729Y-60519116D01*
X67733082Y-60393263D01*
X67893263Y-60233082D01*
X68019116Y-60044729D01*
X68105806Y-59835443D01*
X68150000Y-59613265D01*
X68150000Y-59386735D01*
X68105806Y-59164557D01*
X68019116Y-58955271D01*
X67893263Y-58766918D01*
X67733082Y-58606737D01*
X67544729Y-58480884D01*
X67335443Y-58394194D01*
X67113265Y-58350000D01*
X66886735Y-58350000D01*
X66664557Y-58394194D01*
X66455271Y-58480884D01*
X66266918Y-58606737D01*
X66106737Y-58766918D01*
X65980884Y-58955271D01*
X65894194Y-59164557D01*
X65850000Y-59386735D01*
X65850000Y-59412563D01*
X64637564Y-60625000D01*
X57749445Y-60625000D01*
X58140671Y-60547180D01*
X58509197Y-60394532D01*
X58840862Y-60172920D01*
X59122920Y-59890862D01*
X59344532Y-59559197D01*
X59497180Y-59190671D01*
X59547460Y-58937898D01*
X59667804Y-58817554D01*
X59719893Y-59348544D01*
X60168454Y-59605769D01*
X60658578Y-59770542D01*
X61171430Y-59836530D01*
X61687302Y-59801198D01*
X62186368Y-59665903D01*
X62649450Y-59435845D01*
X62780107Y-59348544D01*
X62832196Y-58817551D01*
X61250000Y-57235355D01*
X61235858Y-57249498D01*
X61200503Y-57214143D01*
X61214645Y-57200000D01*
X61285355Y-57200000D01*
X62867551Y-58782196D01*
X63398544Y-58730107D01*
X63655769Y-58281546D01*
X63820542Y-57791422D01*
X63886530Y-57278570D01*
X63851198Y-56762698D01*
X63715903Y-56263632D01*
X63545898Y-55921430D01*
X69813470Y-55921430D01*
X69848802Y-56437302D01*
X69984097Y-56936368D01*
X70214155Y-57399450D01*
X70301456Y-57530107D01*
X70832449Y-57582196D01*
X72414645Y-56000000D01*
X70832449Y-54417804D01*
X70301456Y-54469893D01*
X70044231Y-54918454D01*
X69879458Y-55408578D01*
X69813470Y-55921430D01*
X63545898Y-55921430D01*
X63485845Y-55800550D01*
X63398544Y-55669893D01*
X62867551Y-55617804D01*
X61285355Y-57200000D01*
X61214645Y-57200000D01*
X61200503Y-57185858D01*
X61235858Y-57150503D01*
X61250000Y-57164645D01*
X62832196Y-55582449D01*
X62780107Y-55051456D01*
X62331546Y-54794231D01*
X61841422Y-54629458D01*
X61328570Y-54563470D01*
X60812698Y-54598802D01*
X60775000Y-54609022D01*
X60775000Y-54300555D01*
X60697180Y-53909329D01*
X60544532Y-53540803D01*
X60322920Y-53209138D01*
X60040862Y-52927080D01*
X59709197Y-52705468D01*
X59340671Y-52552820D01*
X58949445Y-52475000D01*
X58550555Y-52475000D01*
X58159329Y-52552820D01*
X57790803Y-52705468D01*
X57459138Y-52927080D01*
X57177080Y-53209138D01*
X56955468Y-53540803D01*
X56802820Y-53909329D01*
X56752540Y-54162102D01*
X56532196Y-54382446D01*
X56480107Y-53851456D01*
X56031546Y-53594231D01*
X55541422Y-53429458D01*
X55028570Y-53363470D01*
X54512698Y-53398802D01*
X54013632Y-53534097D01*
X53550550Y-53764155D01*
X53419893Y-53851456D01*
X53367804Y-54382449D01*
X54950000Y-55964645D01*
X54964143Y-55950503D01*
X54999498Y-55985858D01*
X54985355Y-56000000D01*
X54999498Y-56014143D01*
X54964143Y-56049498D01*
X54950000Y-56035355D01*
X54935858Y-56049498D01*
X54900503Y-56014143D01*
X54914645Y-56000000D01*
X53332449Y-54417804D01*
X52801456Y-54469893D01*
X52544231Y-54918454D01*
X52379458Y-55408578D01*
X52313470Y-55921430D01*
X52324837Y-56087401D01*
X48175000Y-51937564D01*
X48175000Y-49251345D01*
X48193263Y-49233082D01*
X48319116Y-49044729D01*
X48405806Y-48835443D01*
X48450000Y-48613265D01*
X48450000Y-48386735D01*
X48405806Y-48164557D01*
X48319116Y-47955271D01*
X48193263Y-47766918D01*
X48033082Y-47606737D01*
X47844729Y-47480884D01*
X47635443Y-47394194D01*
X47443905Y-47356095D01*
X47405806Y-47164557D01*
X47319116Y-46955271D01*
X47193263Y-46766918D01*
X47033082Y-46606737D01*
X46844729Y-46480884D01*
X46635443Y-46394194D01*
X46413265Y-46350000D01*
X46186735Y-46350000D01*
X45964557Y-46394194D01*
X45755271Y-46480884D01*
X45566918Y-46606737D01*
X45406737Y-46766918D01*
X45300000Y-46926662D01*
X45193263Y-46766918D01*
X45033082Y-46606737D01*
X44844729Y-46480884D01*
X44635443Y-46394194D01*
X44413265Y-46350000D01*
X44186735Y-46350000D01*
X43964557Y-46394194D01*
X43755271Y-46480884D01*
X43566918Y-46606737D01*
X43406737Y-46766918D01*
X43300000Y-46926662D01*
X43193263Y-46766918D01*
X43033082Y-46606737D01*
X42844729Y-46480884D01*
X42635443Y-46394194D01*
X42413265Y-46350000D01*
X42186735Y-46350000D01*
X41964557Y-46394194D01*
X41755271Y-46480884D01*
X41566918Y-46606737D01*
X41406737Y-46766918D01*
X41280884Y-46955271D01*
X41194194Y-47164557D01*
X41150000Y-47386735D01*
X41150000Y-47613265D01*
X41194194Y-47835443D01*
X41280884Y-48044729D01*
X41406737Y-48233082D01*
X41425001Y-48251346D01*
X41425000Y-49907021D01*
X41425000Y-50439071D01*
X41420767Y-50482050D01*
X41433519Y-50611525D01*
X41437661Y-50653579D01*
X41487695Y-50818517D01*
X41568944Y-50970525D01*
X41678288Y-51103762D01*
X41711681Y-51131167D01*
X46705514Y-56125000D01*
X45047666Y-56125000D01*
X45050000Y-56113265D01*
X45050000Y-55886735D01*
X45005806Y-55664557D01*
X44919116Y-55455271D01*
X44793263Y-55266918D01*
X44633082Y-55106737D01*
X44444729Y-54980884D01*
X44235443Y-54894194D01*
X44013265Y-54850000D01*
X43987437Y-54850000D01*
X39875000Y-50737564D01*
X39875000Y-49251345D01*
X39893263Y-49233082D01*
X40019116Y-49044729D01*
X40105806Y-48835443D01*
X40150000Y-48613265D01*
X40150000Y-48386735D01*
X40105806Y-48164557D01*
X40019116Y-47955271D01*
X39893263Y-47766918D01*
X39733082Y-47606737D01*
X39544729Y-47480884D01*
X39335443Y-47394194D01*
X39113265Y-47350000D01*
X38886735Y-47350000D01*
X38664557Y-47394194D01*
X38455271Y-47480884D01*
X38375000Y-47534519D01*
X38375000Y-45052944D01*
X38533297Y-45118513D01*
X38842414Y-45180000D01*
X39157586Y-45180000D01*
X39466703Y-45118513D01*
X39757884Y-44997902D01*
X40019941Y-44822801D01*
X40106157Y-44736585D01*
X40265974Y-44921404D01*
X40552149Y-45144179D01*
X40876286Y-45306844D01*
X41225930Y-45403147D01*
X41515000Y-45179832D01*
X41515000Y-43605000D01*
X41565000Y-43605000D01*
X41565000Y-45179832D01*
X41854070Y-45403147D01*
X42203714Y-45306844D01*
X42527851Y-45144179D01*
X42814026Y-44921404D01*
X43051241Y-44647079D01*
X43230380Y-44331747D01*
X43344558Y-43987526D01*
X43363146Y-43894070D01*
X43139805Y-43605000D01*
X41565000Y-43605000D01*
X41515000Y-43605000D01*
X41495000Y-43605000D01*
X41495000Y-43555000D01*
X41515000Y-43555000D01*
X41515000Y-43535000D01*
X41565000Y-43535000D01*
X41565000Y-43555000D01*
X43139805Y-43555000D01*
X43363146Y-43265930D01*
X43344558Y-43172474D01*
X43230380Y-42828253D01*
X43051241Y-42512921D01*
X42814026Y-42238596D01*
X42696014Y-42146728D01*
X42782801Y-42059941D01*
X42957902Y-41797884D01*
X43078513Y-41506703D01*
X43140000Y-41197586D01*
X43140000Y-40882414D01*
X43078513Y-40573297D01*
X42957902Y-40282116D01*
X42782801Y-40020059D01*
X42559941Y-39797199D01*
X42519235Y-39770000D01*
X42559941Y-39742801D01*
X42782801Y-39519941D01*
X42957902Y-39257884D01*
X43078513Y-38966703D01*
X43140000Y-38657586D01*
X43140000Y-38342414D01*
X43078513Y-38033297D01*
X42957902Y-37742116D01*
X42782801Y-37480059D01*
X42559941Y-37257199D01*
X42540000Y-37243875D01*
X42540000Y-37089119D01*
X42544838Y-37039999D01*
X42525530Y-36843965D01*
X42468349Y-36655465D01*
X42446969Y-36615466D01*
X42375492Y-36481742D01*
X42250528Y-36329472D01*
X42212368Y-36298155D01*
X41241849Y-35327637D01*
X41210528Y-35289472D01*
X41058258Y-35164508D01*
X40884535Y-35071651D01*
X40696034Y-35014470D01*
X40549120Y-35000000D01*
X40500000Y-34995162D01*
X40450880Y-35000000D01*
X37549117Y-35000000D01*
X37499999Y-34995162D01*
X37450881Y-35000000D01*
X37450880Y-35000000D01*
X37303966Y-35014470D01*
X37115465Y-35071651D01*
X36941742Y-35164508D01*
X36789472Y-35289472D01*
X36758155Y-35327632D01*
X35327637Y-36758151D01*
X35289472Y-36789472D01*
X35164508Y-36941742D01*
X35071652Y-37115465D01*
X35071651Y-37115466D01*
X35014470Y-37303966D01*
X34995162Y-37500000D01*
X35000000Y-37549120D01*
X35000001Y-42085786D01*
X31698307Y-45387481D01*
X31664557Y-45394194D01*
X31455271Y-45480884D01*
X31266918Y-45606737D01*
X31106737Y-45766918D01*
X30980884Y-45955271D01*
X30894194Y-46164557D01*
X30850000Y-46386735D01*
X25575939Y-46386735D01*
X25704121Y-46003453D01*
X25759988Y-45563777D01*
X25729006Y-45121650D01*
X25612363Y-44694062D01*
X25414544Y-44297446D01*
X25343679Y-44191390D01*
X24939480Y-44095875D01*
X23535355Y-45500000D01*
X23464645Y-45500000D01*
X22060520Y-44095875D01*
X21656321Y-44191390D01*
X21436450Y-44576218D01*
X21295879Y-44996547D01*
X21240012Y-45436223D01*
X20775000Y-45436223D01*
X20775000Y-44060520D01*
X22095875Y-44060520D01*
X23500000Y-45464645D01*
X24904125Y-44060520D01*
X24808610Y-43656321D01*
X24423782Y-43436450D01*
X24003453Y-43295879D01*
X23563777Y-43240012D01*
X23121650Y-43270994D01*
X22694062Y-43387637D01*
X22297446Y-43585456D01*
X22191390Y-43656321D01*
X22095875Y-44060520D01*
X20775000Y-44060520D01*
X20775000Y-37778394D01*
X27250000Y-37778394D01*
X27250000Y-38221606D01*
X27336466Y-38656301D01*
X27506076Y-39065775D01*
X27752311Y-39434292D01*
X28065708Y-39747689D01*
X28434225Y-39993924D01*
X28843699Y-40163534D01*
X29278394Y-40250000D01*
X29721606Y-40250000D01*
X30156301Y-40163534D01*
X30565775Y-39993924D01*
X30934292Y-39747689D01*
X31247689Y-39434292D01*
X31493924Y-39065775D01*
X31663534Y-38656301D01*
X31750000Y-38221606D01*
X31750000Y-37778394D01*
X31663534Y-37343699D01*
X31493924Y-36934225D01*
X31247689Y-36565708D01*
X30934292Y-36252311D01*
X30565775Y-36006076D01*
X30156301Y-35836466D01*
X29721606Y-35750000D01*
X29278394Y-35750000D01*
X28843699Y-35836466D01*
X28434225Y-36006076D01*
X28065708Y-36252311D01*
X27752311Y-36565708D01*
X27506076Y-36934225D01*
X27336466Y-37343699D01*
X27250000Y-37778394D01*
X20775000Y-37778394D01*
X20775000Y-32278394D01*
X23250000Y-32278394D01*
X23250000Y-32721606D01*
X23336466Y-33156301D01*
X23506076Y-33565775D01*
X23752311Y-33934292D01*
X24065708Y-34247689D01*
X24434225Y-34493924D01*
X24843699Y-34663534D01*
X25278394Y-34750000D01*
X25721606Y-34750000D01*
X26156301Y-34663534D01*
X26565775Y-34493924D01*
X26934292Y-34247689D01*
X27247689Y-33934292D01*
X27493924Y-33565775D01*
X27663534Y-33156301D01*
X27750000Y-32721606D01*
X27750000Y-32278394D01*
X27663534Y-31843699D01*
X27493924Y-31434225D01*
X27247689Y-31065708D01*
X26934292Y-30752311D01*
X26565775Y-30506076D01*
X26156301Y-30336466D01*
X25721606Y-30250000D01*
X25278394Y-30250000D01*
X24843699Y-30336466D01*
X24434225Y-30506076D01*
X24065708Y-30752311D01*
X23752311Y-31065708D01*
X23506076Y-31434225D01*
X23336466Y-31843699D01*
X23250000Y-32278394D01*
X20775000Y-32278394D01*
X20775000Y-22100000D01*
X23645404Y-22100000D01*
X23645404Y-23900000D01*
X23663746Y-24086232D01*
X23718068Y-24265308D01*
X23806282Y-24430345D01*
X23924999Y-24575001D01*
X24069655Y-24693718D01*
X24234692Y-24781932D01*
X24413768Y-24836254D01*
X24600000Y-24854596D01*
X26400000Y-24854596D01*
X26586232Y-24836254D01*
X26765308Y-24781932D01*
X26930345Y-24693718D01*
X27071520Y-24577858D01*
X27163697Y-24639448D01*
X27500375Y-24778905D01*
X27857791Y-24850000D01*
X28222209Y-24850000D01*
X28579625Y-24778905D01*
X28916303Y-24639448D01*
X29219306Y-24436989D01*
X29476989Y-24179306D01*
X29679448Y-23876303D01*
X29818905Y-23539625D01*
X29890000Y-23182209D01*
X29890000Y-22817791D01*
X29818905Y-22460375D01*
X29679448Y-22123697D01*
X29476989Y-21820694D01*
X29219306Y-21563011D01*
X28916303Y-21360552D01*
X28579625Y-21221095D01*
X28222209Y-21150000D01*
X27857791Y-21150000D01*
X27500375Y-21221095D01*
X27163697Y-21360552D01*
X27071520Y-21422142D01*
X26930345Y-21306282D01*
X26765308Y-21218068D01*
X26586232Y-21163746D01*
X26400000Y-21145404D01*
X24600000Y-21145404D01*
X24413768Y-21163746D01*
X24234692Y-21218068D01*
X24069655Y-21306282D01*
X23924999Y-21424999D01*
X23806282Y-21569655D01*
X23718068Y-21734692D01*
X23663746Y-21913768D01*
X23645404Y-22100000D01*
X20775000Y-22100000D01*
X20775000Y-20775000D01*
X39225000Y-20775000D01*
X39225001Y-32461925D01*
G04 #@! TA.AperFunction,Conductor*
D20*
G36*
X39225001Y-32461925D02*
G01*
X39221251Y-32500000D01*
X39236214Y-32651926D01*
X39280530Y-32798014D01*
X39352494Y-32932650D01*
X39449341Y-33050659D01*
X39567350Y-33147506D01*
X39701986Y-33219470D01*
X39848074Y-33263786D01*
X39961935Y-33275000D01*
X40000000Y-33278749D01*
X40038065Y-33275000D01*
X91810786Y-33275000D01*
X89327632Y-35758156D01*
X89289473Y-35789472D01*
X89164509Y-35941742D01*
X89130122Y-36006076D01*
X89071651Y-36115466D01*
X89014470Y-36303966D01*
X88995162Y-36500000D01*
X89000001Y-36549130D01*
X89000000Y-38585787D01*
X87585788Y-40000000D01*
X86310017Y-40000000D01*
X86731120Y-39718628D01*
X87218628Y-39231120D01*
X87601660Y-38657872D01*
X87865497Y-38020912D01*
X88000000Y-37344720D01*
X88000000Y-36655280D01*
X87865497Y-35979088D01*
X87601660Y-35342128D01*
X87218628Y-34768880D01*
X86731120Y-34281372D01*
X86157872Y-33898340D01*
X85520912Y-33634503D01*
X84844720Y-33500000D01*
X84155280Y-33500000D01*
X83479088Y-33634503D01*
X82842128Y-33898340D01*
X82268880Y-34281372D01*
X81781372Y-34768880D01*
X81398340Y-35342128D01*
X81134503Y-35979088D01*
X81000000Y-36655280D01*
X81000000Y-37344720D01*
X81134503Y-38020912D01*
X81398340Y-38657872D01*
X81781372Y-39231120D01*
X82268880Y-39718628D01*
X82689983Y-40000000D01*
X61049117Y-40000000D01*
X60999999Y-39995162D01*
X60950881Y-40000000D01*
X60950880Y-40000000D01*
X60803966Y-40014470D01*
X60615465Y-40071651D01*
X60441742Y-40164508D01*
X60289472Y-40289472D01*
X60258155Y-40327632D01*
X56327632Y-44258156D01*
X56289473Y-44289472D01*
X56164509Y-44441742D01*
X56114875Y-44534600D01*
X56071651Y-44615466D01*
X56014470Y-44803966D01*
X55995162Y-45000000D01*
X56000001Y-45049130D01*
X56000001Y-45356221D01*
X55952974Y-45360853D01*
X55811599Y-45403739D01*
X55681307Y-45473381D01*
X55567105Y-45567105D01*
X55473381Y-45681307D01*
X55403739Y-45811599D01*
X55360853Y-45952974D01*
X55346372Y-46100000D01*
X55346372Y-47900000D01*
X55360853Y-48047026D01*
X55403739Y-48188401D01*
X55473381Y-48318693D01*
X55567105Y-48432895D01*
X55681307Y-48526619D01*
X55811599Y-48596261D01*
X55952974Y-48639147D01*
X56100000Y-48653628D01*
X57900000Y-48653628D01*
X58047026Y-48639147D01*
X58188401Y-48596261D01*
X58318693Y-48526619D01*
X58432895Y-48432895D01*
X58526619Y-48318693D01*
X58531099Y-48310312D01*
X58540000Y-48316260D01*
X58540001Y-50910870D01*
X58535162Y-50960000D01*
X58554470Y-51156034D01*
X58611651Y-51344534D01*
X58647894Y-51412339D01*
X58704509Y-51518258D01*
X58829473Y-51670528D01*
X58867632Y-51701844D01*
X59838155Y-52672368D01*
X59869472Y-52710528D01*
X60021742Y-52835492D01*
X60129824Y-52893263D01*
X60195465Y-52928349D01*
X60383965Y-52985530D01*
X60579999Y-53004838D01*
X60629119Y-53000000D01*
X74886218Y-53000000D01*
X74677080Y-53209138D01*
X74455468Y-53540803D01*
X74302820Y-53909329D01*
X74252540Y-54162102D01*
X74032196Y-54382446D01*
X73980107Y-53851456D01*
X73531546Y-53594231D01*
X73041422Y-53429458D01*
X72528570Y-53363470D01*
X72012698Y-53398802D01*
X71513632Y-53534097D01*
X71050550Y-53764155D01*
X70919893Y-53851456D01*
X70867804Y-54382449D01*
X72450000Y-55964645D01*
X72464143Y-55950503D01*
X72499498Y-55985858D01*
X72485355Y-56000000D01*
X72499498Y-56014143D01*
X72464143Y-56049498D01*
X72450000Y-56035355D01*
X70867804Y-57617551D01*
X70919893Y-58148544D01*
X71368454Y-58405769D01*
X71858578Y-58570542D01*
X72371430Y-58636530D01*
X72887302Y-58601198D01*
X73025000Y-58563869D01*
X73025000Y-58799445D01*
X73102820Y-59190671D01*
X73255468Y-59559197D01*
X73477080Y-59890862D01*
X73759138Y-60172920D01*
X74090803Y-60394532D01*
X74459329Y-60547180D01*
X74850555Y-60625000D01*
X75249445Y-60625000D01*
X75640671Y-60547180D01*
X76009197Y-60394532D01*
X76340862Y-60172920D01*
X76622920Y-59890862D01*
X76844532Y-59559197D01*
X76997180Y-59190671D01*
X77047460Y-58937898D01*
X77167804Y-58817554D01*
X77219893Y-59348544D01*
X77668454Y-59605769D01*
X78158578Y-59770542D01*
X78671430Y-59836530D01*
X79187302Y-59801198D01*
X79686368Y-59665903D01*
X80149450Y-59435845D01*
X80280107Y-59348544D01*
X80332196Y-58817551D01*
X78750000Y-57235355D01*
X78735858Y-57249498D01*
X78700503Y-57214143D01*
X78714645Y-57200000D01*
X78785355Y-57200000D01*
X80367551Y-58782196D01*
X80898544Y-58730107D01*
X81155769Y-58281546D01*
X81320542Y-57791422D01*
X81386530Y-57278570D01*
X81351198Y-56762698D01*
X81215903Y-56263632D01*
X81045898Y-55921430D01*
X87313470Y-55921430D01*
X87348802Y-56437302D01*
X87484097Y-56936368D01*
X87714155Y-57399450D01*
X87801456Y-57530107D01*
X88332449Y-57582196D01*
X89914645Y-56000000D01*
X88332449Y-54417804D01*
X87801456Y-54469893D01*
X87544231Y-54918454D01*
X87379458Y-55408578D01*
X87313470Y-55921430D01*
X81045898Y-55921430D01*
X80985845Y-55800550D01*
X80898544Y-55669893D01*
X80367551Y-55617804D01*
X78785355Y-57200000D01*
X78714645Y-57200000D01*
X78700503Y-57185858D01*
X78735858Y-57150503D01*
X78750000Y-57164645D01*
X80332196Y-55582449D01*
X80280107Y-55051456D01*
X79831546Y-54794231D01*
X79341422Y-54629458D01*
X78828570Y-54563470D01*
X78312698Y-54598802D01*
X78275000Y-54609022D01*
X78275000Y-54300555D01*
X78197180Y-53909329D01*
X78044532Y-53540803D01*
X77822920Y-53209138D01*
X77613782Y-53000000D01*
X92386218Y-53000000D01*
X92177080Y-53209138D01*
X91955468Y-53540803D01*
X91802820Y-53909329D01*
X91752540Y-54162102D01*
X91532196Y-54382446D01*
X91480107Y-53851456D01*
X91031546Y-53594231D01*
X90541422Y-53429458D01*
X90028570Y-53363470D01*
X89512698Y-53398802D01*
X89013632Y-53534097D01*
X88550550Y-53764155D01*
X88419893Y-53851456D01*
X88367804Y-54382449D01*
X89950000Y-55964645D01*
X89964143Y-55950503D01*
X89999498Y-55985858D01*
X89985355Y-56000000D01*
X89999498Y-56014143D01*
X89964143Y-56049498D01*
X89950000Y-56035355D01*
X88367804Y-57617551D01*
X88419893Y-58148544D01*
X88868454Y-58405769D01*
X89358578Y-58570542D01*
X89871430Y-58636530D01*
X90387302Y-58601198D01*
X90525000Y-58563869D01*
X90525000Y-58799445D01*
X90602820Y-59190671D01*
X90755468Y-59559197D01*
X90977080Y-59890862D01*
X91259138Y-60172920D01*
X91590803Y-60394532D01*
X91959329Y-60547180D01*
X92350555Y-60625000D01*
X92749445Y-60625000D01*
X93140671Y-60547180D01*
X93509197Y-60394532D01*
X93840862Y-60172920D01*
X94122920Y-59890862D01*
X94344532Y-59559197D01*
X94497180Y-59190671D01*
X94547460Y-58937898D01*
X94667804Y-58817554D01*
X94719893Y-59348544D01*
X95168454Y-59605769D01*
X95658578Y-59770542D01*
X96171430Y-59836530D01*
X96687302Y-59801198D01*
X97186368Y-59665903D01*
X97649450Y-59435845D01*
X97780107Y-59348544D01*
X97832196Y-58817551D01*
X96250000Y-57235355D01*
X96235858Y-57249498D01*
X96200503Y-57214143D01*
X96214645Y-57200000D01*
X96285355Y-57200000D01*
X97867551Y-58782196D01*
X98398544Y-58730107D01*
X98655769Y-58281546D01*
X98820542Y-57791422D01*
X98886530Y-57278570D01*
X98851198Y-56762698D01*
X98715903Y-56263632D01*
X98545898Y-55921430D01*
X104813470Y-55921430D01*
X104848802Y-56437302D01*
X104984097Y-56936368D01*
X105214155Y-57399450D01*
X105301456Y-57530107D01*
X105832449Y-57582196D01*
X107414645Y-56000000D01*
X105832449Y-54417804D01*
X105301456Y-54469893D01*
X105044231Y-54918454D01*
X104879458Y-55408578D01*
X104813470Y-55921430D01*
X98545898Y-55921430D01*
X98485845Y-55800550D01*
X98398544Y-55669893D01*
X97867551Y-55617804D01*
X96285355Y-57200000D01*
X96214645Y-57200000D01*
X96200503Y-57185858D01*
X96235858Y-57150503D01*
X96250000Y-57164645D01*
X97832196Y-55582449D01*
X97780107Y-55051456D01*
X97331546Y-54794231D01*
X96841422Y-54629458D01*
X96328570Y-54563470D01*
X95812698Y-54598802D01*
X95775000Y-54609022D01*
X95775000Y-54300555D01*
X95697180Y-53909329D01*
X95544532Y-53540803D01*
X95322920Y-53209138D01*
X95113782Y-53000000D01*
X109886218Y-53000000D01*
X109677080Y-53209138D01*
X109455468Y-53540803D01*
X109302820Y-53909329D01*
X109252540Y-54162102D01*
X109032196Y-54382446D01*
X108980107Y-53851456D01*
X108531546Y-53594231D01*
X108041422Y-53429458D01*
X107528570Y-53363470D01*
X107012698Y-53398802D01*
X106513632Y-53534097D01*
X106050550Y-53764155D01*
X105919893Y-53851456D01*
X105867804Y-54382449D01*
X107450000Y-55964645D01*
X107464143Y-55950503D01*
X107499498Y-55985858D01*
X107485355Y-56000000D01*
X107499498Y-56014143D01*
X107464143Y-56049498D01*
X107450000Y-56035355D01*
X105867804Y-57617551D01*
X105919893Y-58148544D01*
X106368454Y-58405769D01*
X106858578Y-58570542D01*
X107371430Y-58636530D01*
X107887302Y-58601198D01*
X108025000Y-58563869D01*
X108025000Y-58799445D01*
X108102820Y-59190671D01*
X108255468Y-59559197D01*
X108477080Y-59890862D01*
X108759138Y-60172920D01*
X109090803Y-60394532D01*
X109459329Y-60547180D01*
X109850555Y-60625000D01*
X110249445Y-60625000D01*
X110640671Y-60547180D01*
X111009197Y-60394532D01*
X111340862Y-60172920D01*
X111622920Y-59890862D01*
X111844532Y-59559197D01*
X111997180Y-59190671D01*
X112047460Y-58937898D01*
X112167804Y-58817554D01*
X112219893Y-59348544D01*
X112668454Y-59605769D01*
X113158578Y-59770542D01*
X113671430Y-59836530D01*
X114187302Y-59801198D01*
X114686368Y-59665903D01*
X115149450Y-59435845D01*
X115280107Y-59348544D01*
X115332196Y-58817551D01*
X113750000Y-57235355D01*
X113735858Y-57249498D01*
X113700503Y-57214143D01*
X113714645Y-57200000D01*
X113785355Y-57200000D01*
X115367551Y-58782196D01*
X115898544Y-58730107D01*
X116155769Y-58281546D01*
X116320542Y-57791422D01*
X116386530Y-57278570D01*
X116351198Y-56762698D01*
X116215903Y-56263632D01*
X116045898Y-55921430D01*
X122313470Y-55921430D01*
X122348802Y-56437302D01*
X122484097Y-56936368D01*
X122714155Y-57399450D01*
X122801456Y-57530107D01*
X123332449Y-57582196D01*
X124914645Y-56000000D01*
X123332449Y-54417804D01*
X122801456Y-54469893D01*
X122544231Y-54918454D01*
X122379458Y-55408578D01*
X122313470Y-55921430D01*
X116045898Y-55921430D01*
X115985845Y-55800550D01*
X115898544Y-55669893D01*
X115367551Y-55617804D01*
X113785355Y-57200000D01*
X113714645Y-57200000D01*
X113700503Y-57185858D01*
X113735858Y-57150503D01*
X113750000Y-57164645D01*
X115332196Y-55582449D01*
X115280107Y-55051456D01*
X114831546Y-54794231D01*
X114341422Y-54629458D01*
X113828570Y-54563470D01*
X113312698Y-54598802D01*
X113275000Y-54609022D01*
X113275000Y-54300555D01*
X113197180Y-53909329D01*
X113044532Y-53540803D01*
X112822920Y-53209138D01*
X112613782Y-53000000D01*
X127386218Y-53000000D01*
X127177080Y-53209138D01*
X126955468Y-53540803D01*
X126802820Y-53909329D01*
X126752540Y-54162102D01*
X126532196Y-54382446D01*
X126480107Y-53851456D01*
X126031546Y-53594231D01*
X125541422Y-53429458D01*
X125028570Y-53363470D01*
X124512698Y-53398802D01*
X124013632Y-53534097D01*
X123550550Y-53764155D01*
X123419893Y-53851456D01*
X123367804Y-54382449D01*
X124950000Y-55964645D01*
X124964143Y-55950503D01*
X124999498Y-55985858D01*
X124985355Y-56000000D01*
X124999498Y-56014143D01*
X124964143Y-56049498D01*
X124950000Y-56035355D01*
X123367804Y-57617551D01*
X123419893Y-58148544D01*
X123868454Y-58405769D01*
X124358578Y-58570542D01*
X124871430Y-58636530D01*
X125387302Y-58601198D01*
X125525000Y-58563869D01*
X125525000Y-58799445D01*
X125602820Y-59190671D01*
X125755468Y-59559197D01*
X125977080Y-59890862D01*
X126259138Y-60172920D01*
X126590803Y-60394532D01*
X126959329Y-60547180D01*
X127350555Y-60625000D01*
X127749445Y-60625000D01*
X128140671Y-60547180D01*
X128509197Y-60394532D01*
X128840862Y-60172920D01*
X129122920Y-59890862D01*
X129344532Y-59559197D01*
X129497180Y-59190671D01*
X129547460Y-58937898D01*
X129667804Y-58817554D01*
X129719893Y-59348544D01*
X130168454Y-59605769D01*
X130658578Y-59770542D01*
X131171430Y-59836530D01*
X131687302Y-59801198D01*
X132186368Y-59665903D01*
X132649450Y-59435845D01*
X132780107Y-59348544D01*
X132832196Y-58817551D01*
X131250000Y-57235355D01*
X131235858Y-57249498D01*
X131200503Y-57214143D01*
X131214645Y-57200000D01*
X131285355Y-57200000D01*
X132867551Y-58782196D01*
X133398544Y-58730107D01*
X133655769Y-58281546D01*
X133820542Y-57791422D01*
X133886530Y-57278570D01*
X133851198Y-56762698D01*
X133715903Y-56263632D01*
X133545898Y-55921430D01*
X139813470Y-55921430D01*
X139848802Y-56437302D01*
X139984097Y-56936368D01*
X140214155Y-57399450D01*
X140301456Y-57530107D01*
X140832449Y-57582196D01*
X142414645Y-56000000D01*
X140832449Y-54417804D01*
X140301456Y-54469893D01*
X140044231Y-54918454D01*
X139879458Y-55408578D01*
X139813470Y-55921430D01*
X133545898Y-55921430D01*
X133485845Y-55800550D01*
X133398544Y-55669893D01*
X132867551Y-55617804D01*
X131285355Y-57200000D01*
X131214645Y-57200000D01*
X131200503Y-57185858D01*
X131235858Y-57150503D01*
X131250000Y-57164645D01*
X132832196Y-55582449D01*
X132780107Y-55051456D01*
X132331546Y-54794231D01*
X131841422Y-54629458D01*
X131328570Y-54563470D01*
X130812698Y-54598802D01*
X130775000Y-54609022D01*
X130775000Y-54300555D01*
X130697180Y-53909329D01*
X130544532Y-53540803D01*
X130322920Y-53209138D01*
X130113782Y-53000000D01*
X144886218Y-53000000D01*
X144677080Y-53209138D01*
X144455468Y-53540803D01*
X144302820Y-53909329D01*
X144252540Y-54162102D01*
X144032196Y-54382446D01*
X143980107Y-53851456D01*
X143531546Y-53594231D01*
X143041422Y-53429458D01*
X142528570Y-53363470D01*
X142012698Y-53398802D01*
X141513632Y-53534097D01*
X141050550Y-53764155D01*
X140919893Y-53851456D01*
X140867804Y-54382449D01*
X142450000Y-55964645D01*
X142464143Y-55950503D01*
X142499498Y-55985858D01*
X142485355Y-56000000D01*
X142499498Y-56014143D01*
X142464143Y-56049498D01*
X142450000Y-56035355D01*
X140867804Y-57617551D01*
X140919893Y-58148544D01*
X141368454Y-58405769D01*
X141858578Y-58570542D01*
X142371430Y-58636530D01*
X142887302Y-58601198D01*
X143025000Y-58563869D01*
X143025000Y-58799445D01*
X143102820Y-59190671D01*
X143255468Y-59559197D01*
X143477080Y-59890862D01*
X143759138Y-60172920D01*
X144090803Y-60394532D01*
X144459329Y-60547180D01*
X144850555Y-60625000D01*
X145249445Y-60625000D01*
X145640671Y-60547180D01*
X146009197Y-60394532D01*
X146340862Y-60172920D01*
X146622920Y-59890862D01*
X146844532Y-59559197D01*
X146997180Y-59190671D01*
X147047460Y-58937898D01*
X147167804Y-58817554D01*
X147219893Y-59348544D01*
X147668454Y-59605769D01*
X148158578Y-59770542D01*
X148671430Y-59836530D01*
X149187302Y-59801198D01*
X149686368Y-59665903D01*
X150149450Y-59435845D01*
X150280107Y-59348544D01*
X150332196Y-58817551D01*
X148750000Y-57235355D01*
X148735858Y-57249498D01*
X148700503Y-57214143D01*
X148714645Y-57200000D01*
X148785355Y-57200000D01*
X150367551Y-58782196D01*
X150898544Y-58730107D01*
X151155769Y-58281546D01*
X151320542Y-57791422D01*
X151386530Y-57278570D01*
X151351198Y-56762698D01*
X151215903Y-56263632D01*
X151045898Y-55921430D01*
X157313470Y-55921430D01*
X157348802Y-56437302D01*
X157484097Y-56936368D01*
X157714155Y-57399450D01*
X157801456Y-57530107D01*
X158332449Y-57582196D01*
X159914645Y-56000000D01*
X158332449Y-54417804D01*
X157801456Y-54469893D01*
X157544231Y-54918454D01*
X157379458Y-55408578D01*
X157313470Y-55921430D01*
X151045898Y-55921430D01*
X150985845Y-55800550D01*
X150898544Y-55669893D01*
X150367551Y-55617804D01*
X148785355Y-57200000D01*
X148714645Y-57200000D01*
X148700503Y-57185858D01*
X148735858Y-57150503D01*
X148750000Y-57164645D01*
X150332196Y-55582449D01*
X150280107Y-55051456D01*
X149831546Y-54794231D01*
X149341422Y-54629458D01*
X148828570Y-54563470D01*
X148312698Y-54598802D01*
X148275000Y-54609022D01*
X148275000Y-54300555D01*
X148197180Y-53909329D01*
X148044532Y-53540803D01*
X147822920Y-53209138D01*
X147613782Y-53000000D01*
X162386218Y-53000000D01*
X162177080Y-53209138D01*
X161955468Y-53540803D01*
X161802820Y-53909329D01*
X161752540Y-54162102D01*
X161532196Y-54382446D01*
X161480107Y-53851456D01*
X161031546Y-53594231D01*
X160541422Y-53429458D01*
X160028570Y-53363470D01*
X159512698Y-53398802D01*
X159013632Y-53534097D01*
X158550550Y-53764155D01*
X158419893Y-53851456D01*
X158367804Y-54382449D01*
X159950000Y-55964645D01*
X159964143Y-55950503D01*
X159999498Y-55985858D01*
X159985355Y-56000000D01*
X159999498Y-56014143D01*
X159964143Y-56049498D01*
X159950000Y-56035355D01*
X158367804Y-57617551D01*
X158419893Y-58148544D01*
X158868454Y-58405769D01*
X159358578Y-58570542D01*
X159871430Y-58636530D01*
X160387302Y-58601198D01*
X160525000Y-58563869D01*
X160525000Y-58799445D01*
X160602820Y-59190671D01*
X160755468Y-59559197D01*
X160977080Y-59890862D01*
X161259138Y-60172920D01*
X161590803Y-60394532D01*
X161959329Y-60547180D01*
X162350555Y-60625000D01*
X162749445Y-60625000D01*
X163140671Y-60547180D01*
X163509197Y-60394532D01*
X163840862Y-60172920D01*
X164122920Y-59890862D01*
X164344532Y-59559197D01*
X164497180Y-59190671D01*
X164547460Y-58937898D01*
X164667804Y-58817554D01*
X164719893Y-59348544D01*
X165168454Y-59605769D01*
X165658578Y-59770542D01*
X166171430Y-59836530D01*
X166687302Y-59801198D01*
X167186368Y-59665903D01*
X167649450Y-59435845D01*
X167780107Y-59348544D01*
X167832196Y-58817551D01*
X166250000Y-57235355D01*
X166235858Y-57249498D01*
X166200503Y-57214143D01*
X166214645Y-57200000D01*
X166285355Y-57200000D01*
X167867551Y-58782196D01*
X168398544Y-58730107D01*
X168655769Y-58281546D01*
X168820542Y-57791422D01*
X168886530Y-57278570D01*
X168851198Y-56762698D01*
X168715903Y-56263632D01*
X168545898Y-55921430D01*
X174813470Y-55921430D01*
X174848802Y-56437302D01*
X174984097Y-56936368D01*
X175214155Y-57399450D01*
X175301456Y-57530107D01*
X175832449Y-57582196D01*
X177414645Y-56000000D01*
X175832449Y-54417804D01*
X175301456Y-54469893D01*
X175044231Y-54918454D01*
X174879458Y-55408578D01*
X174813470Y-55921430D01*
X168545898Y-55921430D01*
X168485845Y-55800550D01*
X168398544Y-55669893D01*
X167867551Y-55617804D01*
X166285355Y-57200000D01*
X166214645Y-57200000D01*
X166200503Y-57185858D01*
X166235858Y-57150503D01*
X166250000Y-57164645D01*
X167832196Y-55582449D01*
X167780107Y-55051456D01*
X167331546Y-54794231D01*
X166841422Y-54629458D01*
X166328570Y-54563470D01*
X165812698Y-54598802D01*
X165775000Y-54609022D01*
X165775000Y-54300555D01*
X165697180Y-53909329D01*
X165544532Y-53540803D01*
X165322920Y-53209138D01*
X165113782Y-53000000D01*
X179886218Y-53000000D01*
X179677080Y-53209138D01*
X179455468Y-53540803D01*
X179302820Y-53909329D01*
X179252540Y-54162102D01*
X179032196Y-54382446D01*
X178980107Y-53851456D01*
X178531546Y-53594231D01*
X178041422Y-53429458D01*
X177528570Y-53363470D01*
X177012698Y-53398802D01*
X176513632Y-53534097D01*
X176050550Y-53764155D01*
X175919893Y-53851456D01*
X175867804Y-54382449D01*
X177450000Y-55964645D01*
X177464143Y-55950503D01*
X177499498Y-55985858D01*
X177485355Y-56000000D01*
X177499498Y-56014143D01*
X177464143Y-56049498D01*
X177450000Y-56035355D01*
X175867804Y-57617551D01*
X175919893Y-58148544D01*
X176368454Y-58405769D01*
X176858578Y-58570542D01*
X177371430Y-58636530D01*
X177887302Y-58601198D01*
X178025000Y-58563869D01*
X178025000Y-58799445D01*
X178102820Y-59190671D01*
X178255468Y-59559197D01*
X178477080Y-59890862D01*
X178759138Y-60172920D01*
X179090803Y-60394532D01*
X179459329Y-60547180D01*
X179850555Y-60625000D01*
X180249445Y-60625000D01*
X180640671Y-60547180D01*
X181009197Y-60394532D01*
X181340862Y-60172920D01*
X181622920Y-59890862D01*
X181844532Y-59559197D01*
X181997180Y-59190671D01*
X182047460Y-58937898D01*
X182167804Y-58817554D01*
X182219893Y-59348544D01*
X182668454Y-59605769D01*
X183158578Y-59770542D01*
X183671430Y-59836530D01*
X184187302Y-59801198D01*
X184686368Y-59665903D01*
X185149450Y-59435845D01*
X185280107Y-59348544D01*
X185332196Y-58817551D01*
X183750000Y-57235355D01*
X183735858Y-57249498D01*
X183700503Y-57214143D01*
X183714645Y-57200000D01*
X183785355Y-57200000D01*
X185367551Y-58782196D01*
X185898544Y-58730107D01*
X186155769Y-58281546D01*
X186320542Y-57791422D01*
X186386530Y-57278570D01*
X186351198Y-56762698D01*
X186215903Y-56263632D01*
X186045898Y-55921430D01*
X192313470Y-55921430D01*
X192348802Y-56437302D01*
X192484097Y-56936368D01*
X192714155Y-57399450D01*
X192801456Y-57530107D01*
X193332449Y-57582196D01*
X194914645Y-56000000D01*
X193332449Y-54417804D01*
X192801456Y-54469893D01*
X192544231Y-54918454D01*
X192379458Y-55408578D01*
X192313470Y-55921430D01*
X186045898Y-55921430D01*
X185985845Y-55800550D01*
X185898544Y-55669893D01*
X185367551Y-55617804D01*
X183785355Y-57200000D01*
X183714645Y-57200000D01*
X183700503Y-57185858D01*
X183735858Y-57150503D01*
X183750000Y-57164645D01*
X185332196Y-55582449D01*
X185280107Y-55051456D01*
X184831546Y-54794231D01*
X184341422Y-54629458D01*
X183828570Y-54563470D01*
X183312698Y-54598802D01*
X183275000Y-54609022D01*
X183275000Y-54300555D01*
X183197180Y-53909329D01*
X183044532Y-53540803D01*
X182822920Y-53209138D01*
X182613782Y-53000000D01*
X197386218Y-53000000D01*
X197177080Y-53209138D01*
X196955468Y-53540803D01*
X196802820Y-53909329D01*
X196752540Y-54162102D01*
X196532196Y-54382446D01*
X196480107Y-53851456D01*
X196031546Y-53594231D01*
X195541422Y-53429458D01*
X195028570Y-53363470D01*
X194512698Y-53398802D01*
X194013632Y-53534097D01*
X193550550Y-53764155D01*
X193419893Y-53851456D01*
X193367804Y-54382449D01*
X194950000Y-55964645D01*
X194964143Y-55950503D01*
X194999498Y-55985858D01*
X194985355Y-56000000D01*
X194999498Y-56014143D01*
X194964143Y-56049498D01*
X194950000Y-56035355D01*
X193367804Y-57617551D01*
X193419893Y-58148544D01*
X193868454Y-58405769D01*
X194358578Y-58570542D01*
X194871430Y-58636530D01*
X195387302Y-58601198D01*
X195525000Y-58563869D01*
X195525000Y-58799445D01*
X195602820Y-59190671D01*
X195755468Y-59559197D01*
X195977080Y-59890862D01*
X196259138Y-60172920D01*
X196590803Y-60394532D01*
X196959329Y-60547180D01*
X197350555Y-60625000D01*
X197749445Y-60625000D01*
X198140671Y-60547180D01*
X198509197Y-60394532D01*
X198840862Y-60172920D01*
X199122920Y-59890862D01*
X199344532Y-59559197D01*
X199497180Y-59190671D01*
X199547460Y-58937898D01*
X199667804Y-58817554D01*
X199719893Y-59348544D01*
X200168454Y-59605769D01*
X200658578Y-59770542D01*
X201171430Y-59836530D01*
X201687302Y-59801198D01*
X202186368Y-59665903D01*
X202649450Y-59435845D01*
X202780107Y-59348544D01*
X202832196Y-58817551D01*
X201250000Y-57235355D01*
X201235858Y-57249498D01*
X201200503Y-57214143D01*
X201214645Y-57200000D01*
X201285355Y-57200000D01*
X202867551Y-58782196D01*
X203398544Y-58730107D01*
X203655769Y-58281546D01*
X203820542Y-57791422D01*
X203886530Y-57278570D01*
X203851198Y-56762698D01*
X203715903Y-56263632D01*
X203485845Y-55800550D01*
X203398544Y-55669893D01*
X202867551Y-55617804D01*
X201285355Y-57200000D01*
X201214645Y-57200000D01*
X201200503Y-57185858D01*
X201235858Y-57150503D01*
X201250000Y-57164645D01*
X202832196Y-55582449D01*
X202780107Y-55051456D01*
X202331546Y-54794231D01*
X201841422Y-54629458D01*
X201328570Y-54563470D01*
X200812698Y-54598802D01*
X200775000Y-54609022D01*
X200775000Y-54300555D01*
X200697180Y-53909329D01*
X200544532Y-53540803D01*
X200322920Y-53209138D01*
X200040862Y-52927080D01*
X199709197Y-52705468D01*
X199340671Y-52552820D01*
X198949445Y-52475000D01*
X198550555Y-52475000D01*
X198411565Y-52502647D01*
X199474733Y-51439480D01*
X216595875Y-51439480D01*
X216691390Y-51843679D01*
X217076218Y-52063550D01*
X217496547Y-52204121D01*
X217936223Y-52259988D01*
X218378350Y-52229006D01*
X218805938Y-52112363D01*
X219202554Y-51914544D01*
X219308610Y-51843679D01*
X219404125Y-51439480D01*
X218000000Y-50035355D01*
X216595875Y-51439480D01*
X199474733Y-51439480D01*
X200212374Y-50701840D01*
X200250528Y-50670528D01*
X200375492Y-50518258D01*
X200468349Y-50344535D01*
X200525530Y-50156034D01*
X200540000Y-50009120D01*
X200544838Y-49960000D01*
X200542497Y-49936223D01*
X215740012Y-49936223D01*
X215770994Y-50378350D01*
X215887637Y-50805938D01*
X216085456Y-51202554D01*
X216156321Y-51308610D01*
X216560520Y-51404125D01*
X217964645Y-50000000D01*
X218035355Y-50000000D01*
X219439480Y-51404125D01*
X219843679Y-51308610D01*
X220063550Y-50923782D01*
X220204121Y-50503453D01*
X220259988Y-50063777D01*
X220229006Y-49621650D01*
X220112363Y-49194062D01*
X219914544Y-48797446D01*
X219843679Y-48691390D01*
X219439480Y-48595875D01*
X218035355Y-50000000D01*
X217964645Y-50000000D01*
X216560520Y-48595875D01*
X216156321Y-48691390D01*
X215936450Y-49076218D01*
X215795879Y-49496547D01*
X215740012Y-49936223D01*
X200542497Y-49936223D01*
X200540000Y-49910880D01*
X200540000Y-48560520D01*
X216595875Y-48560520D01*
X218000000Y-49964645D01*
X219404125Y-48560520D01*
X219308610Y-48156321D01*
X218923782Y-47936450D01*
X218503453Y-47795879D01*
X218063777Y-47740012D01*
X217621650Y-47770994D01*
X217194062Y-47887637D01*
X216797446Y-48085456D01*
X216691390Y-48156321D01*
X216595875Y-48560520D01*
X200540000Y-48560520D01*
X200540000Y-48316260D01*
X200591814Y-48281639D01*
X200821639Y-48051814D01*
X201002211Y-47781568D01*
X201126592Y-47481287D01*
X201190000Y-47162511D01*
X201190000Y-46837489D01*
X201126592Y-46518713D01*
X201002211Y-46218432D01*
X200821639Y-45948186D01*
X200591814Y-45718361D01*
X200321568Y-45537789D01*
X200021287Y-45413408D01*
X199702511Y-45350000D01*
X199377489Y-45350000D01*
X199058713Y-45413408D01*
X198758432Y-45537789D01*
X198531099Y-45689688D01*
X198526619Y-45681307D01*
X198432895Y-45567105D01*
X198318693Y-45473381D01*
X198188401Y-45403739D01*
X198047026Y-45360853D01*
X197900000Y-45346372D01*
X196100000Y-45346372D01*
X195952974Y-45360853D01*
X195811599Y-45403739D01*
X195681307Y-45473381D01*
X195567105Y-45567105D01*
X195473381Y-45681307D01*
X195403739Y-45811599D01*
X195360853Y-45952974D01*
X195346372Y-46100000D01*
X195346372Y-47900000D01*
X195360853Y-48047026D01*
X195403739Y-48188401D01*
X195473381Y-48318693D01*
X195567105Y-48432895D01*
X195681307Y-48526619D01*
X195811599Y-48596261D01*
X195952974Y-48639147D01*
X196100000Y-48653628D01*
X197900000Y-48653628D01*
X198047026Y-48639147D01*
X198188401Y-48596261D01*
X198318693Y-48526619D01*
X198432895Y-48432895D01*
X198526619Y-48318693D01*
X198531099Y-48310312D01*
X198540000Y-48316260D01*
X198540001Y-49545785D01*
X197085788Y-51000000D01*
X183040000Y-51000000D01*
X183040000Y-48316260D01*
X183091814Y-48281639D01*
X183321639Y-48051814D01*
X183502211Y-47781568D01*
X183626592Y-47481287D01*
X183690000Y-47162511D01*
X183690000Y-46837489D01*
X183626592Y-46518713D01*
X183502211Y-46218432D01*
X183321639Y-45948186D01*
X183091814Y-45718361D01*
X182821568Y-45537789D01*
X182521287Y-45413408D01*
X182202511Y-45350000D01*
X181877489Y-45350000D01*
X181558713Y-45413408D01*
X181258432Y-45537789D01*
X181031099Y-45689688D01*
X181026619Y-45681307D01*
X180932895Y-45567105D01*
X180818693Y-45473381D01*
X180688401Y-45403739D01*
X180547026Y-45360853D01*
X180500000Y-45356221D01*
X180500000Y-45049117D01*
X180504838Y-44999999D01*
X180494325Y-44893263D01*
X180485530Y-44803966D01*
X180428349Y-44615465D01*
X180335492Y-44441742D01*
X180210528Y-44289472D01*
X180172368Y-44258155D01*
X178192607Y-42278394D01*
X215750000Y-42278394D01*
X215750000Y-42721606D01*
X215836466Y-43156301D01*
X216006076Y-43565775D01*
X216252311Y-43934292D01*
X216565708Y-44247689D01*
X216934225Y-44493924D01*
X217343699Y-44663534D01*
X217778394Y-44750000D01*
X218221606Y-44750000D01*
X218656301Y-44663534D01*
X219065775Y-44493924D01*
X219434292Y-44247689D01*
X219747689Y-43934292D01*
X219993924Y-43565775D01*
X220163534Y-43156301D01*
X220250000Y-42721606D01*
X220250000Y-42278394D01*
X220163534Y-41843699D01*
X219993924Y-41434225D01*
X219747689Y-41065708D01*
X219434292Y-40752311D01*
X219065775Y-40506076D01*
X218656301Y-40336466D01*
X218221606Y-40250000D01*
X217778394Y-40250000D01*
X217343699Y-40336466D01*
X216934225Y-40506076D01*
X216565708Y-40752311D01*
X216252311Y-41065708D01*
X216006076Y-41434225D01*
X215836466Y-41843699D01*
X215750000Y-42278394D01*
X178192607Y-42278394D01*
X176402683Y-40488471D01*
X177020912Y-40365497D01*
X177657872Y-40101660D01*
X178231120Y-39718628D01*
X178718628Y-39231120D01*
X179101660Y-38657872D01*
X179365497Y-38020912D01*
X179500000Y-37344720D01*
X179500000Y-36778394D01*
X211750000Y-36778394D01*
X211750000Y-37221606D01*
X211836466Y-37656301D01*
X212006076Y-38065775D01*
X212252311Y-38434292D01*
X212565708Y-38747689D01*
X212934225Y-38993924D01*
X213343699Y-39163534D01*
X213778394Y-39250000D01*
X214221606Y-39250000D01*
X214656301Y-39163534D01*
X215065775Y-38993924D01*
X215434292Y-38747689D01*
X215747689Y-38434292D01*
X215993924Y-38065775D01*
X216163534Y-37656301D01*
X216250000Y-37221606D01*
X216250000Y-36778394D01*
X216163534Y-36343699D01*
X215993924Y-35934225D01*
X215747689Y-35565708D01*
X215434292Y-35252311D01*
X215065775Y-35006076D01*
X214656301Y-34836466D01*
X214221606Y-34750000D01*
X213778394Y-34750000D01*
X213343699Y-34836466D01*
X212934225Y-35006076D01*
X212565708Y-35252311D01*
X212252311Y-35565708D01*
X212006076Y-35934225D01*
X211836466Y-36343699D01*
X211750000Y-36778394D01*
X179500000Y-36778394D01*
X179500000Y-36655280D01*
X179365497Y-35979088D01*
X179101660Y-35342128D01*
X178718628Y-34768880D01*
X178231120Y-34281372D01*
X177657872Y-33898340D01*
X177020912Y-33634503D01*
X176344720Y-33500000D01*
X175655280Y-33500000D01*
X174979088Y-33634503D01*
X174342128Y-33898340D01*
X173768880Y-34281372D01*
X173281372Y-34768880D01*
X172898340Y-35342128D01*
X172634503Y-35979088D01*
X172500000Y-36655280D01*
X172500000Y-37344720D01*
X172634503Y-38020912D01*
X172898340Y-38657872D01*
X173281372Y-39231120D01*
X173768880Y-39718628D01*
X174189983Y-40000000D01*
X165414214Y-40000000D01*
X158689212Y-33275000D01*
X224225000Y-33275000D01*
X224225001Y-66225000D01*
X203033318Y-66225000D01*
X202990505Y-66221310D01*
X202919413Y-66229188D01*
X202848074Y-66236214D01*
X202843508Y-66237599D01*
X202838772Y-66238124D01*
X202770517Y-66259741D01*
X202701986Y-66280530D01*
X202697783Y-66282777D01*
X202693235Y-66284217D01*
X202630500Y-66318740D01*
X202567350Y-66352494D01*
X202563662Y-66355520D01*
X202559487Y-66357818D01*
X202504731Y-66403884D01*
X202449341Y-66449341D01*
X202446313Y-66453030D01*
X202442668Y-66456097D01*
X202397936Y-66511979D01*
X202352494Y-66567350D01*
X202350247Y-66571554D01*
X202347266Y-66575278D01*
X202314271Y-66638861D01*
X202280530Y-66701986D01*
X202268054Y-66743115D01*
X201475300Y-68725000D01*
X193524700Y-68725000D01*
X192731948Y-66743120D01*
X192719470Y-66701986D01*
X192685706Y-66638818D01*
X192652733Y-66575278D01*
X192649755Y-66571558D01*
X192647506Y-66567350D01*
X192602024Y-66511929D01*
X192557331Y-66456097D01*
X192553689Y-66453033D01*
X192550659Y-66449341D01*
X192495254Y-66403871D01*
X192440512Y-66357817D01*
X192436336Y-66355519D01*
X192432650Y-66352494D01*
X192369495Y-66318737D01*
X192306764Y-66284217D01*
X192302219Y-66282777D01*
X192298014Y-66280530D01*
X192229459Y-66259734D01*
X192161227Y-66238124D01*
X192156493Y-66237599D01*
X192151926Y-66236214D01*
X192080578Y-66229187D01*
X192009494Y-66221310D01*
X191966681Y-66225000D01*
X143033318Y-66225000D01*
X142990505Y-66221310D01*
X142919413Y-66229188D01*
X142848074Y-66236214D01*
X142843508Y-66237599D01*
X142838772Y-66238124D01*
X142770517Y-66259741D01*
X142701986Y-66280530D01*
X142697783Y-66282777D01*
X142693235Y-66284217D01*
X142630500Y-66318740D01*
X142567350Y-66352494D01*
X142563662Y-66355520D01*
X142559487Y-66357818D01*
X142504731Y-66403884D01*
X142449341Y-66449341D01*
X142446313Y-66453030D01*
X142442668Y-66456097D01*
X142397936Y-66511979D01*
X142352494Y-66567350D01*
X142350247Y-66571554D01*
X142347266Y-66575278D01*
X142314271Y-66638861D01*
X142280530Y-66701986D01*
X142268054Y-66743115D01*
X141475300Y-68725000D01*
X132524700Y-68725000D01*
X131731948Y-66743120D01*
X131719470Y-66701986D01*
X131685706Y-66638818D01*
X131652733Y-66575278D01*
X131649755Y-66571558D01*
X131647506Y-66567350D01*
X131602024Y-66511929D01*
X131557331Y-66456097D01*
X131553689Y-66453033D01*
X131550659Y-66449341D01*
X131495254Y-66403871D01*
X131440512Y-66357817D01*
X131436336Y-66355519D01*
X131432650Y-66352494D01*
X131369495Y-66318737D01*
X131306764Y-66284217D01*
X131302219Y-66282777D01*
X131298014Y-66280530D01*
X131229459Y-66259734D01*
X131161227Y-66238124D01*
X131156493Y-66237599D01*
X131151926Y-66236214D01*
X131080578Y-66229187D01*
X131009494Y-66221310D01*
X130966681Y-66225000D01*
X73033318Y-66225000D01*
X72990505Y-66221310D01*
X72919413Y-66229188D01*
X72848074Y-66236214D01*
X72843508Y-66237599D01*
X72838772Y-66238124D01*
X72770517Y-66259741D01*
X72701986Y-66280530D01*
X72697783Y-66282777D01*
X72693235Y-66284217D01*
X72630500Y-66318740D01*
X72567350Y-66352494D01*
X72563662Y-66355520D01*
X72559487Y-66357818D01*
X72504731Y-66403884D01*
X72449341Y-66449341D01*
X72446313Y-66453030D01*
X72442668Y-66456097D01*
X72397936Y-66511979D01*
X72352494Y-66567350D01*
X72350247Y-66571554D01*
X72347266Y-66575278D01*
X72314271Y-66638861D01*
X72280530Y-66701986D01*
X72268054Y-66743115D01*
X71475300Y-68725000D01*
X62524700Y-68725000D01*
X61731948Y-66743120D01*
X61719470Y-66701986D01*
X61685706Y-66638818D01*
X61652733Y-66575278D01*
X61649755Y-66571558D01*
X61647506Y-66567350D01*
X61602024Y-66511929D01*
X61557331Y-66456097D01*
X61553689Y-66453033D01*
X61550659Y-66449341D01*
X61495254Y-66403871D01*
X61440512Y-66357817D01*
X61436336Y-66355519D01*
X61432650Y-66352494D01*
X61369495Y-66318737D01*
X61306764Y-66284217D01*
X61302219Y-66282777D01*
X61298014Y-66280530D01*
X61229459Y-66259734D01*
X61161227Y-66238124D01*
X61156493Y-66237599D01*
X61151926Y-66236214D01*
X61080578Y-66229187D01*
X61009494Y-66221310D01*
X60966681Y-66225000D01*
X24775000Y-66225000D01*
X24775000Y-52060928D01*
X24777405Y-52045729D01*
X24775000Y-51984757D01*
X24775000Y-51961935D01*
X24773498Y-51946688D01*
X24771388Y-51893186D01*
X24766034Y-51870900D01*
X24763786Y-51848074D01*
X24748236Y-51796812D01*
X24735728Y-51744748D01*
X24726126Y-51723928D01*
X24719470Y-51701986D01*
X24694224Y-51654755D01*
X24671794Y-51606118D01*
X24658313Y-51587569D01*
X24647506Y-51567350D01*
X24613534Y-51525955D01*
X24604531Y-51513567D01*
X24589372Y-51496513D01*
X24550659Y-51449341D01*
X24538764Y-51439579D01*
X20775000Y-47205346D01*
X20775000Y-46939480D01*
X22095875Y-46939480D01*
X22191390Y-47343679D01*
X22576218Y-47563550D01*
X22996547Y-47704121D01*
X23436223Y-47759988D01*
X23878350Y-47729006D01*
X24305938Y-47612363D01*
X24702554Y-47414544D01*
X24808610Y-47343679D01*
X24904125Y-46939480D01*
X23500000Y-45535355D01*
X22095875Y-46939480D01*
X20775000Y-46939480D01*
X20775000Y-45436223D01*
X21240012Y-45436223D01*
X21270994Y-45878350D01*
X21387637Y-46305938D01*
X21585456Y-46702554D01*
X21656321Y-46808610D01*
X22060520Y-46904125D01*
X23464645Y-45500000D01*
X23535355Y-45500000D01*
X24939480Y-46904125D01*
X25343679Y-46808610D01*
X25563550Y-46423782D01*
X25575939Y-46386735D01*
X30850000Y-46386735D01*
X30850000Y-46613265D01*
X30894194Y-46835443D01*
X30980884Y-47044729D01*
X31000000Y-47073338D01*
X31000001Y-51426660D01*
X30980884Y-51455271D01*
X30894194Y-51664557D01*
X30850000Y-51886735D01*
X30850000Y-52113265D01*
X30894194Y-52335443D01*
X30980884Y-52544729D01*
X31106737Y-52733082D01*
X31266918Y-52893263D01*
X31455271Y-53019116D01*
X31664557Y-53105806D01*
X31886735Y-53150000D01*
X32113265Y-53150000D01*
X32335443Y-53105806D01*
X32544729Y-53019116D01*
X32733082Y-52893263D01*
X32893263Y-52733082D01*
X33019116Y-52544729D01*
X33105806Y-52335443D01*
X33150000Y-52113265D01*
X33150000Y-51886735D01*
X33105806Y-51664557D01*
X33019116Y-51455271D01*
X33000000Y-51426662D01*
X33000000Y-47073338D01*
X33019116Y-47044729D01*
X33105806Y-46835443D01*
X33112519Y-46801693D01*
X36625001Y-43289212D01*
X36625000Y-47748655D01*
X36606737Y-47766918D01*
X36480884Y-47955271D01*
X36394194Y-48164557D01*
X36350000Y-48386735D01*
X36350000Y-48613265D01*
X36394194Y-48835443D01*
X36480884Y-49044729D01*
X36606737Y-49233082D01*
X36766918Y-49393263D01*
X36955271Y-49519116D01*
X37164557Y-49605806D01*
X37386735Y-49650000D01*
X37613265Y-49650000D01*
X37835443Y-49605806D01*
X38044729Y-49519116D01*
X38125001Y-49465480D01*
X38125000Y-51057021D01*
X38120767Y-51100000D01*
X38135489Y-51249472D01*
X38137661Y-51271529D01*
X38187695Y-51436467D01*
X38268944Y-51588475D01*
X38378288Y-51721712D01*
X38411681Y-51749117D01*
X42512563Y-55850000D01*
X42386735Y-55850000D01*
X42164557Y-55894194D01*
X41955271Y-55980884D01*
X41766918Y-56106737D01*
X41606737Y-56266918D01*
X41480884Y-56455271D01*
X41394194Y-56664557D01*
X41350000Y-56886735D01*
X41350000Y-57113265D01*
X41383001Y-57279173D01*
X41266918Y-57356737D01*
X41106737Y-57516918D01*
X40980884Y-57705271D01*
X40894194Y-57914557D01*
X40850000Y-58136735D01*
X40850000Y-58363265D01*
X40894194Y-58585443D01*
X40980884Y-58794729D01*
X41106737Y-58983082D01*
X41266918Y-59143263D01*
X41455271Y-59269116D01*
X41664557Y-59355806D01*
X41886735Y-59400000D01*
X42113265Y-59400000D01*
X42335443Y-59355806D01*
X42544729Y-59269116D01*
X42733082Y-59143263D01*
X42751345Y-59125000D01*
X48432694Y-59125000D01*
X54546084Y-65238391D01*
X54573480Y-65271773D01*
X54606861Y-65299168D01*
X54606865Y-65299172D01*
X54706717Y-65381118D01*
X54858725Y-65462368D01*
X55023663Y-65512402D01*
X55195193Y-65529296D01*
X55238179Y-65525062D01*
X55607035Y-65525064D01*
X55650068Y-65529302D01*
X55693057Y-65525068D01*
X184306951Y-65525070D01*
X184349930Y-65529303D01*
X184521459Y-65512409D01*
X184686397Y-65462375D01*
X184686412Y-65462367D01*
X184838405Y-65381126D01*
X184971641Y-65271782D01*
X184999041Y-65238395D01*
X189587437Y-60650000D01*
X189613265Y-60650000D01*
X189835443Y-60605806D01*
X190044729Y-60519116D01*
X190233082Y-60393263D01*
X190393263Y-60233082D01*
X190519116Y-60044729D01*
X190605806Y-59835443D01*
X190650000Y-59613265D01*
X190650000Y-59386735D01*
X190605806Y-59164557D01*
X190519116Y-58955271D01*
X190393263Y-58766918D01*
X190233082Y-58606737D01*
X190044729Y-58480884D01*
X189835443Y-58394194D01*
X189613265Y-58350000D01*
X189386735Y-58350000D01*
X189164557Y-58394194D01*
X188955271Y-58480884D01*
X188766918Y-58606737D01*
X188606737Y-58766918D01*
X188480884Y-58955271D01*
X188394194Y-59164557D01*
X188350000Y-59386735D01*
X188350000Y-59412563D01*
X183987493Y-63775071D01*
X168962365Y-63775071D01*
X172087437Y-60650000D01*
X172113265Y-60650000D01*
X172335443Y-60605806D01*
X172544729Y-60519116D01*
X172733082Y-60393263D01*
X172893263Y-60233082D01*
X173019116Y-60044729D01*
X173105806Y-59835443D01*
X173150000Y-59613265D01*
X173150000Y-59386735D01*
X173105806Y-59164557D01*
X173019116Y-58955271D01*
X172893263Y-58766918D01*
X172733082Y-58606737D01*
X172544729Y-58480884D01*
X172335443Y-58394194D01*
X172113265Y-58350000D01*
X171886735Y-58350000D01*
X171664557Y-58394194D01*
X171455271Y-58480884D01*
X171266918Y-58606737D01*
X171106737Y-58766918D01*
X170980884Y-58955271D01*
X170894194Y-59164557D01*
X170850000Y-59386735D01*
X170850000Y-59412563D01*
X166937504Y-63325060D01*
X151912376Y-63325060D01*
X154587436Y-60650000D01*
X154613265Y-60650000D01*
X154835443Y-60605806D01*
X155044729Y-60519116D01*
X155233082Y-60393263D01*
X155393263Y-60233082D01*
X155519116Y-60044729D01*
X155605806Y-59835443D01*
X155650000Y-59613265D01*
X155650000Y-59386735D01*
X155605806Y-59164557D01*
X155519116Y-58955271D01*
X155393263Y-58766918D01*
X155233082Y-58606737D01*
X155044729Y-58480884D01*
X154835443Y-58394194D01*
X154613265Y-58350000D01*
X154386735Y-58350000D01*
X154164557Y-58394194D01*
X153955271Y-58480884D01*
X153766918Y-58606737D01*
X153606737Y-58766918D01*
X153480884Y-58955271D01*
X153394194Y-59164557D01*
X153350000Y-59386735D01*
X153350000Y-59412564D01*
X149887514Y-62875050D01*
X134862386Y-62875050D01*
X137087437Y-60650000D01*
X137113265Y-60650000D01*
X137335443Y-60605806D01*
X137544729Y-60519116D01*
X137733082Y-60393263D01*
X137893263Y-60233082D01*
X138019116Y-60044729D01*
X138105806Y-59835443D01*
X138150000Y-59613265D01*
X138150000Y-59386735D01*
X138105806Y-59164557D01*
X138019116Y-58955271D01*
X137893263Y-58766918D01*
X137733082Y-58606737D01*
X137544729Y-58480884D01*
X137335443Y-58394194D01*
X137113265Y-58350000D01*
X136886735Y-58350000D01*
X136664557Y-58394194D01*
X136455271Y-58480884D01*
X136266918Y-58606737D01*
X136106737Y-58766918D01*
X135980884Y-58955271D01*
X135894194Y-59164557D01*
X135850000Y-59386735D01*
X135850000Y-59412563D01*
X132837524Y-62425040D01*
X117812396Y-62425040D01*
X119587437Y-60650000D01*
X119613265Y-60650000D01*
X119835443Y-60605806D01*
X120044729Y-60519116D01*
X120233082Y-60393263D01*
X120393263Y-60233082D01*
X120519116Y-60044729D01*
X120605806Y-59835443D01*
X120650000Y-59613265D01*
X120650000Y-59386735D01*
X120605806Y-59164557D01*
X120519116Y-58955271D01*
X120393263Y-58766918D01*
X120233082Y-58606737D01*
X120044729Y-58480884D01*
X119835443Y-58394194D01*
X119613265Y-58350000D01*
X119386735Y-58350000D01*
X119164557Y-58394194D01*
X118955271Y-58480884D01*
X118766918Y-58606737D01*
X118606737Y-58766918D01*
X118480884Y-58955271D01*
X118394194Y-59164557D01*
X118350000Y-59386735D01*
X118350000Y-59412563D01*
X115787534Y-61975030D01*
X100762406Y-61975030D01*
X102087437Y-60650000D01*
X102113265Y-60650000D01*
X102335443Y-60605806D01*
X102544729Y-60519116D01*
X102733082Y-60393263D01*
X102893263Y-60233082D01*
X103019116Y-60044729D01*
X103105806Y-59835443D01*
X103150000Y-59613265D01*
X103150000Y-59386735D01*
X103105806Y-59164557D01*
X103019116Y-58955271D01*
X102893263Y-58766918D01*
X102733082Y-58606737D01*
X102544729Y-58480884D01*
X102335443Y-58394194D01*
X102113265Y-58350000D01*
X101886735Y-58350000D01*
X101664557Y-58394194D01*
X101455271Y-58480884D01*
X101266918Y-58606737D01*
X101106737Y-58766918D01*
X100980884Y-58955271D01*
X100894194Y-59164557D01*
X100850000Y-59386735D01*
X100850000Y-59412563D01*
X98737544Y-61525020D01*
X83712416Y-61525020D01*
X84587436Y-60650000D01*
X84613265Y-60650000D01*
X84835443Y-60605806D01*
X85044729Y-60519116D01*
X85233082Y-60393263D01*
X85393263Y-60233082D01*
X85519116Y-60044729D01*
X85605806Y-59835443D01*
X85650000Y-59613265D01*
X85650000Y-59386735D01*
X85605806Y-59164557D01*
X85519116Y-58955271D01*
X85393263Y-58766918D01*
X85233082Y-58606737D01*
X85044729Y-58480884D01*
X84835443Y-58394194D01*
X84613265Y-58350000D01*
X84386735Y-58350000D01*
X84164557Y-58394194D01*
X83955271Y-58480884D01*
X83766918Y-58606737D01*
X83606737Y-58766918D01*
X83480884Y-58955271D01*
X83394194Y-59164557D01*
X83350000Y-59386735D01*
X83350000Y-59412564D01*
X81687553Y-61075011D01*
X66662427Y-61075010D01*
X67087437Y-60650000D01*
X67113265Y-60650000D01*
X67335443Y-60605806D01*
X67544729Y-60519116D01*
X67733082Y-60393263D01*
X67893263Y-60233082D01*
X68019116Y-60044729D01*
X68105806Y-59835443D01*
X68150000Y-59613265D01*
X68150000Y-59386735D01*
X68105806Y-59164557D01*
X68019116Y-58955271D01*
X67893263Y-58766918D01*
X67733082Y-58606737D01*
X67544729Y-58480884D01*
X67335443Y-58394194D01*
X67113265Y-58350000D01*
X66886735Y-58350000D01*
X66664557Y-58394194D01*
X66455271Y-58480884D01*
X66266918Y-58606737D01*
X66106737Y-58766918D01*
X65980884Y-58955271D01*
X65894194Y-59164557D01*
X65850000Y-59386735D01*
X65850000Y-59412563D01*
X64637564Y-60625000D01*
X57749445Y-60625000D01*
X58140671Y-60547180D01*
X58509197Y-60394532D01*
X58840862Y-60172920D01*
X59122920Y-59890862D01*
X59344532Y-59559197D01*
X59497180Y-59190671D01*
X59547460Y-58937898D01*
X59667804Y-58817554D01*
X59719893Y-59348544D01*
X60168454Y-59605769D01*
X60658578Y-59770542D01*
X61171430Y-59836530D01*
X61687302Y-59801198D01*
X62186368Y-59665903D01*
X62649450Y-59435845D01*
X62780107Y-59348544D01*
X62832196Y-58817551D01*
X61250000Y-57235355D01*
X61235858Y-57249498D01*
X61200503Y-57214143D01*
X61214645Y-57200000D01*
X61285355Y-57200000D01*
X62867551Y-58782196D01*
X63398544Y-58730107D01*
X63655769Y-58281546D01*
X63820542Y-57791422D01*
X63886530Y-57278570D01*
X63851198Y-56762698D01*
X63715903Y-56263632D01*
X63545898Y-55921430D01*
X69813470Y-55921430D01*
X69848802Y-56437302D01*
X69984097Y-56936368D01*
X70214155Y-57399450D01*
X70301456Y-57530107D01*
X70832449Y-57582196D01*
X72414645Y-56000000D01*
X70832449Y-54417804D01*
X70301456Y-54469893D01*
X70044231Y-54918454D01*
X69879458Y-55408578D01*
X69813470Y-55921430D01*
X63545898Y-55921430D01*
X63485845Y-55800550D01*
X63398544Y-55669893D01*
X62867551Y-55617804D01*
X61285355Y-57200000D01*
X61214645Y-57200000D01*
X61200503Y-57185858D01*
X61235858Y-57150503D01*
X61250000Y-57164645D01*
X62832196Y-55582449D01*
X62780107Y-55051456D01*
X62331546Y-54794231D01*
X61841422Y-54629458D01*
X61328570Y-54563470D01*
X60812698Y-54598802D01*
X60775000Y-54609022D01*
X60775000Y-54300555D01*
X60697180Y-53909329D01*
X60544532Y-53540803D01*
X60322920Y-53209138D01*
X60040862Y-52927080D01*
X59709197Y-52705468D01*
X59340671Y-52552820D01*
X58949445Y-52475000D01*
X58550555Y-52475000D01*
X58159329Y-52552820D01*
X57790803Y-52705468D01*
X57459138Y-52927080D01*
X57177080Y-53209138D01*
X56955468Y-53540803D01*
X56802820Y-53909329D01*
X56752540Y-54162102D01*
X56532196Y-54382446D01*
X56480107Y-53851456D01*
X56031546Y-53594231D01*
X55541422Y-53429458D01*
X55028570Y-53363470D01*
X54512698Y-53398802D01*
X54013632Y-53534097D01*
X53550550Y-53764155D01*
X53419893Y-53851456D01*
X53367804Y-54382449D01*
X54950000Y-55964645D01*
X54964143Y-55950503D01*
X54999498Y-55985858D01*
X54985355Y-56000000D01*
X54999498Y-56014143D01*
X54964143Y-56049498D01*
X54950000Y-56035355D01*
X54935858Y-56049498D01*
X54900503Y-56014143D01*
X54914645Y-56000000D01*
X53332449Y-54417804D01*
X52801456Y-54469893D01*
X52544231Y-54918454D01*
X52379458Y-55408578D01*
X52313470Y-55921430D01*
X52324837Y-56087401D01*
X48175000Y-51937564D01*
X48175000Y-49251345D01*
X48193263Y-49233082D01*
X48319116Y-49044729D01*
X48405806Y-48835443D01*
X48450000Y-48613265D01*
X48450000Y-48386735D01*
X48405806Y-48164557D01*
X48319116Y-47955271D01*
X48193263Y-47766918D01*
X48033082Y-47606737D01*
X47844729Y-47480884D01*
X47635443Y-47394194D01*
X47443905Y-47356095D01*
X47405806Y-47164557D01*
X47319116Y-46955271D01*
X47193263Y-46766918D01*
X47033082Y-46606737D01*
X46844729Y-46480884D01*
X46635443Y-46394194D01*
X46413265Y-46350000D01*
X46186735Y-46350000D01*
X45964557Y-46394194D01*
X45755271Y-46480884D01*
X45566918Y-46606737D01*
X45406737Y-46766918D01*
X45300000Y-46926662D01*
X45193263Y-46766918D01*
X45033082Y-46606737D01*
X44844729Y-46480884D01*
X44635443Y-46394194D01*
X44413265Y-46350000D01*
X44186735Y-46350000D01*
X43964557Y-46394194D01*
X43755271Y-46480884D01*
X43566918Y-46606737D01*
X43406737Y-46766918D01*
X43300000Y-46926662D01*
X43193263Y-46766918D01*
X43033082Y-46606737D01*
X42844729Y-46480884D01*
X42635443Y-46394194D01*
X42413265Y-46350000D01*
X42186735Y-46350000D01*
X41964557Y-46394194D01*
X41755271Y-46480884D01*
X41566918Y-46606737D01*
X41406737Y-46766918D01*
X41280884Y-46955271D01*
X41194194Y-47164557D01*
X41150000Y-47386735D01*
X41150000Y-47613265D01*
X41194194Y-47835443D01*
X41280884Y-48044729D01*
X41406737Y-48233082D01*
X41425001Y-48251346D01*
X41425000Y-49907021D01*
X41425000Y-50439071D01*
X41420767Y-50482050D01*
X41433519Y-50611525D01*
X41437661Y-50653579D01*
X41487695Y-50818517D01*
X41568944Y-50970525D01*
X41678288Y-51103762D01*
X41711681Y-51131167D01*
X46705514Y-56125000D01*
X45047666Y-56125000D01*
X45050000Y-56113265D01*
X45050000Y-55886735D01*
X45005806Y-55664557D01*
X44919116Y-55455271D01*
X44793263Y-55266918D01*
X44633082Y-55106737D01*
X44444729Y-54980884D01*
X44235443Y-54894194D01*
X44013265Y-54850000D01*
X43987437Y-54850000D01*
X39875000Y-50737564D01*
X39875000Y-49251345D01*
X39893263Y-49233082D01*
X40019116Y-49044729D01*
X40105806Y-48835443D01*
X40150000Y-48613265D01*
X40150000Y-48386735D01*
X40105806Y-48164557D01*
X40019116Y-47955271D01*
X39893263Y-47766918D01*
X39733082Y-47606737D01*
X39544729Y-47480884D01*
X39335443Y-47394194D01*
X39113265Y-47350000D01*
X38886735Y-47350000D01*
X38664557Y-47394194D01*
X38455271Y-47480884D01*
X38375000Y-47534519D01*
X38375000Y-45052944D01*
X38533297Y-45118513D01*
X38842414Y-45180000D01*
X39157586Y-45180000D01*
X39466703Y-45118513D01*
X39757884Y-44997902D01*
X40019941Y-44822801D01*
X40106157Y-44736585D01*
X40265974Y-44921404D01*
X40552149Y-45144179D01*
X40876286Y-45306844D01*
X41225930Y-45403147D01*
X41515000Y-45179832D01*
X41515000Y-43605000D01*
X41565000Y-43605000D01*
X41565000Y-45179832D01*
X41854070Y-45403147D01*
X42203714Y-45306844D01*
X42527851Y-45144179D01*
X42814026Y-44921404D01*
X43051241Y-44647079D01*
X43230380Y-44331747D01*
X43344558Y-43987526D01*
X43363146Y-43894070D01*
X43139805Y-43605000D01*
X41565000Y-43605000D01*
X41515000Y-43605000D01*
X41495000Y-43605000D01*
X41495000Y-43555000D01*
X41515000Y-43555000D01*
X41515000Y-43535000D01*
X41565000Y-43535000D01*
X41565000Y-43555000D01*
X43139805Y-43555000D01*
X43363146Y-43265930D01*
X43344558Y-43172474D01*
X43230380Y-42828253D01*
X43051241Y-42512921D01*
X42814026Y-42238596D01*
X42696014Y-42146728D01*
X42782801Y-42059941D01*
X42957902Y-41797884D01*
X43078513Y-41506703D01*
X43140000Y-41197586D01*
X43140000Y-40882414D01*
X43078513Y-40573297D01*
X42957902Y-40282116D01*
X42782801Y-40020059D01*
X42559941Y-39797199D01*
X42519235Y-39770000D01*
X42559941Y-39742801D01*
X42782801Y-39519941D01*
X42957902Y-39257884D01*
X43078513Y-38966703D01*
X43140000Y-38657586D01*
X43140000Y-38342414D01*
X43078513Y-38033297D01*
X42957902Y-37742116D01*
X42782801Y-37480059D01*
X42559941Y-37257199D01*
X42540000Y-37243875D01*
X42540000Y-37089119D01*
X42544838Y-37039999D01*
X42525530Y-36843965D01*
X42468349Y-36655465D01*
X42446969Y-36615466D01*
X42375492Y-36481742D01*
X42250528Y-36329472D01*
X42212368Y-36298155D01*
X41241849Y-35327637D01*
X41210528Y-35289472D01*
X41058258Y-35164508D01*
X40884535Y-35071651D01*
X40696034Y-35014470D01*
X40549120Y-35000000D01*
X40500000Y-34995162D01*
X40450880Y-35000000D01*
X37549117Y-35000000D01*
X37499999Y-34995162D01*
X37450881Y-35000000D01*
X37450880Y-35000000D01*
X37303966Y-35014470D01*
X37115465Y-35071651D01*
X36941742Y-35164508D01*
X36789472Y-35289472D01*
X36758155Y-35327632D01*
X35327637Y-36758151D01*
X35289472Y-36789472D01*
X35164508Y-36941742D01*
X35071652Y-37115465D01*
X35071651Y-37115466D01*
X35014470Y-37303966D01*
X34995162Y-37500000D01*
X35000000Y-37549120D01*
X35000001Y-42085786D01*
X31698307Y-45387481D01*
X31664557Y-45394194D01*
X31455271Y-45480884D01*
X31266918Y-45606737D01*
X31106737Y-45766918D01*
X30980884Y-45955271D01*
X30894194Y-46164557D01*
X30850000Y-46386735D01*
X25575939Y-46386735D01*
X25704121Y-46003453D01*
X25759988Y-45563777D01*
X25729006Y-45121650D01*
X25612363Y-44694062D01*
X25414544Y-44297446D01*
X25343679Y-44191390D01*
X24939480Y-44095875D01*
X23535355Y-45500000D01*
X23464645Y-45500000D01*
X22060520Y-44095875D01*
X21656321Y-44191390D01*
X21436450Y-44576218D01*
X21295879Y-44996547D01*
X21240012Y-45436223D01*
X20775000Y-45436223D01*
X20775000Y-44060520D01*
X22095875Y-44060520D01*
X23500000Y-45464645D01*
X24904125Y-44060520D01*
X24808610Y-43656321D01*
X24423782Y-43436450D01*
X24003453Y-43295879D01*
X23563777Y-43240012D01*
X23121650Y-43270994D01*
X22694062Y-43387637D01*
X22297446Y-43585456D01*
X22191390Y-43656321D01*
X22095875Y-44060520D01*
X20775000Y-44060520D01*
X20775000Y-37778394D01*
X27250000Y-37778394D01*
X27250000Y-38221606D01*
X27336466Y-38656301D01*
X27506076Y-39065775D01*
X27752311Y-39434292D01*
X28065708Y-39747689D01*
X28434225Y-39993924D01*
X28843699Y-40163534D01*
X29278394Y-40250000D01*
X29721606Y-40250000D01*
X30156301Y-40163534D01*
X30565775Y-39993924D01*
X30934292Y-39747689D01*
X31247689Y-39434292D01*
X31493924Y-39065775D01*
X31663534Y-38656301D01*
X31750000Y-38221606D01*
X31750000Y-37778394D01*
X31663534Y-37343699D01*
X31493924Y-36934225D01*
X31247689Y-36565708D01*
X30934292Y-36252311D01*
X30565775Y-36006076D01*
X30156301Y-35836466D01*
X29721606Y-35750000D01*
X29278394Y-35750000D01*
X28843699Y-35836466D01*
X28434225Y-36006076D01*
X28065708Y-36252311D01*
X27752311Y-36565708D01*
X27506076Y-36934225D01*
X27336466Y-37343699D01*
X27250000Y-37778394D01*
X20775000Y-37778394D01*
X20775000Y-32278394D01*
X23250000Y-32278394D01*
X23250000Y-32721606D01*
X23336466Y-33156301D01*
X23506076Y-33565775D01*
X23752311Y-33934292D01*
X24065708Y-34247689D01*
X24434225Y-34493924D01*
X24843699Y-34663534D01*
X25278394Y-34750000D01*
X25721606Y-34750000D01*
X26156301Y-34663534D01*
X26565775Y-34493924D01*
X26934292Y-34247689D01*
X27247689Y-33934292D01*
X27493924Y-33565775D01*
X27663534Y-33156301D01*
X27750000Y-32721606D01*
X27750000Y-32278394D01*
X27663534Y-31843699D01*
X27493924Y-31434225D01*
X27247689Y-31065708D01*
X26934292Y-30752311D01*
X26565775Y-30506076D01*
X26156301Y-30336466D01*
X25721606Y-30250000D01*
X25278394Y-30250000D01*
X24843699Y-30336466D01*
X24434225Y-30506076D01*
X24065708Y-30752311D01*
X23752311Y-31065708D01*
X23506076Y-31434225D01*
X23336466Y-31843699D01*
X23250000Y-32278394D01*
X20775000Y-32278394D01*
X20775000Y-22100000D01*
X23645404Y-22100000D01*
X23645404Y-23900000D01*
X23663746Y-24086232D01*
X23718068Y-24265308D01*
X23806282Y-24430345D01*
X23924999Y-24575001D01*
X24069655Y-24693718D01*
X24234692Y-24781932D01*
X24413768Y-24836254D01*
X24600000Y-24854596D01*
X26400000Y-24854596D01*
X26586232Y-24836254D01*
X26765308Y-24781932D01*
X26930345Y-24693718D01*
X27071520Y-24577858D01*
X27163697Y-24639448D01*
X27500375Y-24778905D01*
X27857791Y-24850000D01*
X28222209Y-24850000D01*
X28579625Y-24778905D01*
X28916303Y-24639448D01*
X29219306Y-24436989D01*
X29476989Y-24179306D01*
X29679448Y-23876303D01*
X29818905Y-23539625D01*
X29890000Y-23182209D01*
X29890000Y-22817791D01*
X29818905Y-22460375D01*
X29679448Y-22123697D01*
X29476989Y-21820694D01*
X29219306Y-21563011D01*
X28916303Y-21360552D01*
X28579625Y-21221095D01*
X28222209Y-21150000D01*
X27857791Y-21150000D01*
X27500375Y-21221095D01*
X27163697Y-21360552D01*
X27071520Y-21422142D01*
X26930345Y-21306282D01*
X26765308Y-21218068D01*
X26586232Y-21163746D01*
X26400000Y-21145404D01*
X24600000Y-21145404D01*
X24413768Y-21163746D01*
X24234692Y-21218068D01*
X24069655Y-21306282D01*
X23924999Y-21424999D01*
X23806282Y-21569655D01*
X23718068Y-21734692D01*
X23663746Y-21913768D01*
X23645404Y-22100000D01*
X20775000Y-22100000D01*
X20775000Y-20775000D01*
X39225000Y-20775000D01*
X39225001Y-32461925D01*
G37*
G04 #@! TD.AperFunction*
M02*
