G04 #@! TF.GenerationSoftware,KiCad,Pcbnew,(5.1.7)-1*
G04 #@! TF.CreationDate,2022-04-05T13:22:44+02:00*
G04 #@! TF.ProjectId,saba_924x_tipp-tasten-modul,73616261-5f39-4323-9478-5f746970702d,rev?*
G04 #@! TF.SameCoordinates,Original*
G04 #@! TF.FileFunction,Soldermask,Top*
G04 #@! TF.FilePolarity,Negative*
%FSLAX46Y46*%
G04 Gerber Fmt 4.6, Leading zero omitted, Abs format (unit mm)*
G04 Created by KiCad (PCBNEW (5.1.7)-1) date 2022-04-05 13:22:44*
%MOMM*%
%LPD*%
G01*
G04 APERTURE LIST*
%ADD10C,2.500000*%
%ADD11R,1.300000X0.700000*%
%ADD12R,0.900000X0.800000*%
%ADD13R,0.700000X1.300000*%
%ADD14C,2.250000*%
%ADD15R,1.800000X1.800000*%
%ADD16C,1.800000*%
%ADD17C,0.100000*%
%ADD18R,1.000000X1.500000*%
%ADD19R,1.000000X1.800000*%
%ADD20R,2.200000X1.840000*%
%ADD21R,1.600000X0.550000*%
%ADD22R,0.550000X1.600000*%
%ADD23R,1.700000X1.700000*%
%ADD24O,1.700000X1.700000*%
%ADD25R,1.250000X1.000000*%
%ADD26R,1.000000X1.250000*%
%ADD27C,6.000000*%
G04 APERTURE END LIST*
D10*
X25500000Y-32500000D03*
X29500000Y-38000000D03*
D11*
X207000000Y-56050000D03*
X207000000Y-57950000D03*
D12*
X206000000Y-52050000D03*
X206000000Y-53950000D03*
X208000000Y-53000000D03*
D11*
X189500000Y-56050000D03*
X189500000Y-57950000D03*
X172000000Y-56050000D03*
X172000000Y-57950000D03*
X154500000Y-56050000D03*
X154500000Y-57950000D03*
X137000000Y-56050000D03*
X137000000Y-57950000D03*
X119500000Y-56050000D03*
X119500000Y-57950000D03*
X102000000Y-56050000D03*
X102000000Y-57950000D03*
X84500000Y-56050000D03*
X84500000Y-57950000D03*
X67000000Y-56050000D03*
X67000000Y-57950000D03*
D12*
X188500000Y-52050000D03*
X188500000Y-53950000D03*
X190500000Y-53000000D03*
X171000000Y-52050000D03*
X171000000Y-53950000D03*
X173000000Y-53000000D03*
X153500000Y-52050000D03*
X153500000Y-53950000D03*
X155500000Y-53000000D03*
X136000000Y-52050000D03*
X136000000Y-53950000D03*
X138000000Y-53000000D03*
X118500000Y-52050000D03*
X118500000Y-53950000D03*
X120500000Y-53000000D03*
X101000000Y-52050000D03*
X101000000Y-53950000D03*
X103000000Y-53000000D03*
X83500000Y-52050000D03*
X83500000Y-53950000D03*
X85500000Y-53000000D03*
X66000000Y-52050000D03*
X66000000Y-53950000D03*
X68000000Y-53000000D03*
D13*
X208000000Y-47000000D03*
X206100000Y-47000000D03*
D14*
X61250000Y-57200000D03*
X57550000Y-58600000D03*
X54950000Y-56000000D03*
X58750000Y-54500000D03*
X201250000Y-57200000D03*
X197550000Y-58600000D03*
X194950000Y-56000000D03*
X198750000Y-54500000D03*
X96250000Y-57200000D03*
X92550000Y-58600000D03*
X89950000Y-56000000D03*
X93750000Y-54500000D03*
X113750000Y-57200000D03*
X110050000Y-58600000D03*
X107450000Y-56000000D03*
X111250000Y-54500000D03*
X148750000Y-57200000D03*
X145050000Y-58600000D03*
X142450000Y-56000000D03*
X146250000Y-54500000D03*
X166250000Y-57200000D03*
X162550000Y-58600000D03*
X159950000Y-56000000D03*
X163750000Y-54500000D03*
X131250000Y-57200000D03*
X127550000Y-58600000D03*
X124950000Y-56000000D03*
X128750000Y-54500000D03*
X183750000Y-57200000D03*
X180050000Y-58600000D03*
X177450000Y-56000000D03*
X181250000Y-54500000D03*
X78750000Y-57200000D03*
X75050000Y-58600000D03*
X72450000Y-56000000D03*
X76250000Y-54500000D03*
D15*
X74500000Y-47000000D03*
D16*
X77040000Y-47000000D03*
D17*
G36*
X29100000Y-57242000D02*
G01*
X28500000Y-58092000D01*
X27500000Y-58092000D01*
X26900000Y-57242000D01*
X29100000Y-57242000D01*
G37*
D18*
X29500000Y-53520000D03*
D19*
X28000000Y-53666500D03*
D18*
X26500000Y-53520000D03*
D20*
X28000000Y-56333500D03*
D17*
G36*
X26900000Y-55423800D02*
G01*
X27600000Y-54423800D01*
X28400000Y-54423800D01*
X29100000Y-55423800D01*
X26900000Y-55423800D01*
G37*
D21*
X47750000Y-58800000D03*
X47750000Y-58000000D03*
X47750000Y-57200000D03*
X47750000Y-56400000D03*
X47750000Y-55600000D03*
X47750000Y-54800000D03*
X47750000Y-54000000D03*
X47750000Y-53200000D03*
D22*
X46300000Y-51750000D03*
X45500000Y-51750000D03*
X44700000Y-51750000D03*
X43900000Y-51750000D03*
X43100000Y-51750000D03*
X42300000Y-51750000D03*
X41500000Y-51750000D03*
X40700000Y-51750000D03*
D21*
X39250000Y-53200000D03*
X39250000Y-54000000D03*
X39250000Y-54800000D03*
X39250000Y-55600000D03*
X39250000Y-56400000D03*
X39250000Y-57200000D03*
X39250000Y-58000000D03*
X39250000Y-58800000D03*
D22*
X40700000Y-60250000D03*
X41500000Y-60250000D03*
X42300000Y-60250000D03*
X43100000Y-60250000D03*
X43900000Y-60250000D03*
X44700000Y-60250000D03*
X45500000Y-60250000D03*
X46300000Y-60250000D03*
D13*
X37100000Y-46500000D03*
X39000000Y-46500000D03*
D23*
X39000000Y-38500000D03*
D24*
X41540000Y-38500000D03*
X39000000Y-41040000D03*
X41540000Y-41040000D03*
X39000000Y-43580000D03*
X41540000Y-43580000D03*
D25*
X34000000Y-53500000D03*
X34000000Y-55500000D03*
D26*
X26500000Y-51000000D03*
X28500000Y-51000000D03*
D25*
X32000000Y-53500000D03*
X32000000Y-55500000D03*
X49950000Y-55000000D03*
X49950000Y-57000000D03*
X36500000Y-53500000D03*
X36500000Y-51500000D03*
X36500000Y-56100000D03*
X36500000Y-58100000D03*
D10*
X218000000Y-50000000D03*
X214000000Y-37000000D03*
X218000000Y-42500000D03*
X23500000Y-45500000D03*
G36*
G01*
X104160000Y-38000000D02*
X104160000Y-36000000D01*
G75*
G02*
X104660000Y-35500000I500000J0D01*
G01*
X105660000Y-35500000D01*
G75*
G02*
X106160000Y-36000000I0J-500000D01*
G01*
X106160000Y-38000000D01*
G75*
G02*
X105660000Y-38500000I-500000J0D01*
G01*
X104660000Y-38500000D01*
G75*
G02*
X104160000Y-38000000I0J500000D01*
G01*
G37*
G36*
G01*
X101620000Y-38000000D02*
X101620000Y-36000000D01*
G75*
G02*
X102120000Y-35500000I500000J0D01*
G01*
X103120000Y-35500000D01*
G75*
G02*
X103620000Y-36000000I0J-500000D01*
G01*
X103620000Y-38000000D01*
G75*
G02*
X103120000Y-38500000I-500000J0D01*
G01*
X102120000Y-38500000D01*
G75*
G02*
X101620000Y-38000000I0J500000D01*
G01*
G37*
G36*
G01*
X99080000Y-38000000D02*
X99080000Y-36000000D01*
G75*
G02*
X99580000Y-35500000I500000J0D01*
G01*
X100580000Y-35500000D01*
G75*
G02*
X101080000Y-36000000I0J-500000D01*
G01*
X101080000Y-38000000D01*
G75*
G02*
X100580000Y-38500000I-500000J0D01*
G01*
X99580000Y-38500000D01*
G75*
G02*
X99080000Y-38000000I0J500000D01*
G01*
G37*
G36*
G01*
X96540000Y-38000000D02*
X96540000Y-36000000D01*
G75*
G02*
X97040000Y-35500000I500000J0D01*
G01*
X98040000Y-35500000D01*
G75*
G02*
X98540000Y-36000000I0J-500000D01*
G01*
X98540000Y-38000000D01*
G75*
G02*
X98040000Y-38500000I-500000J0D01*
G01*
X97040000Y-38500000D01*
G75*
G02*
X96540000Y-38000000I0J500000D01*
G01*
G37*
G36*
G01*
X94000000Y-38000000D02*
X94000000Y-36000000D01*
G75*
G02*
X94500000Y-35500000I500000J0D01*
G01*
X95500000Y-35500000D01*
G75*
G02*
X96000000Y-36000000I0J-500000D01*
G01*
X96000000Y-38000000D01*
G75*
G02*
X95500000Y-38500000I-500000J0D01*
G01*
X94500000Y-38500000D01*
G75*
G02*
X94000000Y-38000000I0J500000D01*
G01*
G37*
G36*
G01*
X121000000Y-38000000D02*
X121000000Y-36000000D01*
G75*
G02*
X121500000Y-35500000I500000J0D01*
G01*
X122500000Y-35500000D01*
G75*
G02*
X123000000Y-36000000I0J-500000D01*
G01*
X123000000Y-38000000D01*
G75*
G02*
X122500000Y-38500000I-500000J0D01*
G01*
X121500000Y-38500000D01*
G75*
G02*
X121000000Y-38000000I0J500000D01*
G01*
G37*
G36*
G01*
X118460000Y-38000000D02*
X118460000Y-36000000D01*
G75*
G02*
X118960000Y-35500000I500000J0D01*
G01*
X119960000Y-35500000D01*
G75*
G02*
X120460000Y-36000000I0J-500000D01*
G01*
X120460000Y-38000000D01*
G75*
G02*
X119960000Y-38500000I-500000J0D01*
G01*
X118960000Y-38500000D01*
G75*
G02*
X118460000Y-38000000I0J500000D01*
G01*
G37*
G36*
G01*
X115920000Y-38000000D02*
X115920000Y-36000000D01*
G75*
G02*
X116420000Y-35500000I500000J0D01*
G01*
X117420000Y-35500000D01*
G75*
G02*
X117920000Y-36000000I0J-500000D01*
G01*
X117920000Y-38000000D01*
G75*
G02*
X117420000Y-38500000I-500000J0D01*
G01*
X116420000Y-38500000D01*
G75*
G02*
X115920000Y-38000000I0J500000D01*
G01*
G37*
G36*
G01*
X113380000Y-38000000D02*
X113380000Y-36000000D01*
G75*
G02*
X113880000Y-35500000I500000J0D01*
G01*
X114880000Y-35500000D01*
G75*
G02*
X115380000Y-36000000I0J-500000D01*
G01*
X115380000Y-38000000D01*
G75*
G02*
X114880000Y-38500000I-500000J0D01*
G01*
X113880000Y-38500000D01*
G75*
G02*
X113380000Y-38000000I0J500000D01*
G01*
G37*
G36*
G01*
X110840000Y-38000000D02*
X110840000Y-36000000D01*
G75*
G02*
X111340000Y-35500000I500000J0D01*
G01*
X112340000Y-35500000D01*
G75*
G02*
X112840000Y-36000000I0J-500000D01*
G01*
X112840000Y-38000000D01*
G75*
G02*
X112340000Y-38500000I-500000J0D01*
G01*
X111340000Y-38500000D01*
G75*
G02*
X110840000Y-38000000I0J500000D01*
G01*
G37*
G36*
G01*
X148000000Y-38000000D02*
X148000000Y-36000000D01*
G75*
G02*
X148500000Y-35500000I500000J0D01*
G01*
X149500000Y-35500000D01*
G75*
G02*
X150000000Y-36000000I0J-500000D01*
G01*
X150000000Y-38000000D01*
G75*
G02*
X149500000Y-38500000I-500000J0D01*
G01*
X148500000Y-38500000D01*
G75*
G02*
X148000000Y-38000000I0J500000D01*
G01*
G37*
G36*
G01*
X145460000Y-38000000D02*
X145460000Y-36000000D01*
G75*
G02*
X145960000Y-35500000I500000J0D01*
G01*
X146960000Y-35500000D01*
G75*
G02*
X147460000Y-36000000I0J-500000D01*
G01*
X147460000Y-38000000D01*
G75*
G02*
X146960000Y-38500000I-500000J0D01*
G01*
X145960000Y-38500000D01*
G75*
G02*
X145460000Y-38000000I0J500000D01*
G01*
G37*
G36*
G01*
X142920000Y-38000000D02*
X142920000Y-36000000D01*
G75*
G02*
X143420000Y-35500000I500000J0D01*
G01*
X144420000Y-35500000D01*
G75*
G02*
X144920000Y-36000000I0J-500000D01*
G01*
X144920000Y-38000000D01*
G75*
G02*
X144420000Y-38500000I-500000J0D01*
G01*
X143420000Y-38500000D01*
G75*
G02*
X142920000Y-38000000I0J500000D01*
G01*
G37*
G36*
G01*
X140380000Y-38000000D02*
X140380000Y-36000000D01*
G75*
G02*
X140880000Y-35500000I500000J0D01*
G01*
X141880000Y-35500000D01*
G75*
G02*
X142380000Y-36000000I0J-500000D01*
G01*
X142380000Y-38000000D01*
G75*
G02*
X141880000Y-38500000I-500000J0D01*
G01*
X140880000Y-38500000D01*
G75*
G02*
X140380000Y-38000000I0J500000D01*
G01*
G37*
G36*
G01*
X137840000Y-38000000D02*
X137840000Y-36000000D01*
G75*
G02*
X138340000Y-35500000I500000J0D01*
G01*
X139340000Y-35500000D01*
G75*
G02*
X139840000Y-36000000I0J-500000D01*
G01*
X139840000Y-38000000D01*
G75*
G02*
X139340000Y-38500000I-500000J0D01*
G01*
X138340000Y-38500000D01*
G75*
G02*
X137840000Y-38000000I0J500000D01*
G01*
G37*
G36*
G01*
X135300000Y-38000000D02*
X135300000Y-36000000D01*
G75*
G02*
X135800000Y-35500000I500000J0D01*
G01*
X136800000Y-35500000D01*
G75*
G02*
X137300000Y-36000000I0J-500000D01*
G01*
X137300000Y-38000000D01*
G75*
G02*
X136800000Y-38500000I-500000J0D01*
G01*
X135800000Y-38500000D01*
G75*
G02*
X135300000Y-38000000I0J500000D01*
G01*
G37*
G36*
G01*
X132760000Y-38000000D02*
X132760000Y-36000000D01*
G75*
G02*
X133260000Y-35500000I500000J0D01*
G01*
X134260000Y-35500000D01*
G75*
G02*
X134760000Y-36000000I0J-500000D01*
G01*
X134760000Y-38000000D01*
G75*
G02*
X134260000Y-38500000I-500000J0D01*
G01*
X133260000Y-38500000D01*
G75*
G02*
X132760000Y-38000000I0J500000D01*
G01*
G37*
G36*
G01*
X130220000Y-38000000D02*
X130220000Y-36000000D01*
G75*
G02*
X130720000Y-35500000I500000J0D01*
G01*
X131720000Y-35500000D01*
G75*
G02*
X132220000Y-36000000I0J-500000D01*
G01*
X132220000Y-38000000D01*
G75*
G02*
X131720000Y-38500000I-500000J0D01*
G01*
X130720000Y-38500000D01*
G75*
G02*
X130220000Y-38000000I0J500000D01*
G01*
G37*
G36*
G01*
X127680000Y-38000000D02*
X127680000Y-36000000D01*
G75*
G02*
X128180000Y-35500000I500000J0D01*
G01*
X129180000Y-35500000D01*
G75*
G02*
X129680000Y-36000000I0J-500000D01*
G01*
X129680000Y-38000000D01*
G75*
G02*
X129180000Y-38500000I-500000J0D01*
G01*
X128180000Y-38500000D01*
G75*
G02*
X127680000Y-38000000I0J500000D01*
G01*
G37*
D15*
X197000000Y-47000000D03*
D16*
X199540000Y-47000000D03*
D15*
X162000000Y-47000000D03*
D16*
X164540000Y-47000000D03*
D15*
X144500000Y-47000000D03*
D16*
X147040000Y-47000000D03*
D15*
X109500000Y-47000000D03*
D16*
X112040000Y-47000000D03*
D15*
X179500000Y-47000000D03*
D16*
X182040000Y-47000000D03*
D15*
X127000000Y-47000000D03*
D16*
X129540000Y-47000000D03*
D15*
X92000000Y-47000000D03*
D16*
X94540000Y-47000000D03*
D15*
X25500000Y-23000000D03*
D16*
X28040000Y-23000000D03*
D27*
X176000000Y-37000000D03*
X84500000Y-37000000D03*
D15*
X57000000Y-47000000D03*
D16*
X59540000Y-47000000D03*
M02*
