G04 #@! TF.GenerationSoftware,KiCad,Pcbnew,(5.1.7)-1*
G04 #@! TF.CreationDate,2022-04-05T13:22:44+02:00*
G04 #@! TF.ProjectId,saba_924x_tipp-tasten-modul,73616261-5f39-4323-9478-5f746970702d,rev?*
G04 #@! TF.SameCoordinates,Original*
G04 #@! TF.FileFunction,Paste,Top*
G04 #@! TF.FilePolarity,Positive*
%FSLAX46Y46*%
G04 Gerber Fmt 4.6, Leading zero omitted, Abs format (unit mm)*
G04 Created by KiCad (PCBNEW (5.1.7)-1) date 2022-04-05 13:22:44*
%MOMM*%
%LPD*%
G01*
G04 APERTURE LIST*
%ADD10R,1.300000X0.700000*%
%ADD11R,0.900000X0.800000*%
%ADD12R,0.700000X1.300000*%
%ADD13C,0.100000*%
%ADD14R,1.000000X1.500000*%
%ADD15R,1.000000X1.800000*%
%ADD16R,2.200000X1.840000*%
%ADD17R,1.600000X0.550000*%
%ADD18R,0.550000X1.600000*%
%ADD19R,1.250000X1.000000*%
%ADD20R,1.000000X1.250000*%
G04 APERTURE END LIST*
D10*
X207000000Y-56050000D03*
X207000000Y-57950000D03*
D11*
X206000000Y-52050000D03*
X206000000Y-53950000D03*
X208000000Y-53000000D03*
D10*
X189500000Y-56050000D03*
X189500000Y-57950000D03*
X172000000Y-56050000D03*
X172000000Y-57950000D03*
X154500000Y-56050000D03*
X154500000Y-57950000D03*
X137000000Y-56050000D03*
X137000000Y-57950000D03*
X119500000Y-56050000D03*
X119500000Y-57950000D03*
X102000000Y-56050000D03*
X102000000Y-57950000D03*
X84500000Y-56050000D03*
X84500000Y-57950000D03*
X67000000Y-56050000D03*
X67000000Y-57950000D03*
D11*
X188500000Y-52050000D03*
X188500000Y-53950000D03*
X190500000Y-53000000D03*
X171000000Y-52050000D03*
X171000000Y-53950000D03*
X173000000Y-53000000D03*
X153500000Y-52050000D03*
X153500000Y-53950000D03*
X155500000Y-53000000D03*
X136000000Y-52050000D03*
X136000000Y-53950000D03*
X138000000Y-53000000D03*
X118500000Y-52050000D03*
X118500000Y-53950000D03*
X120500000Y-53000000D03*
X101000000Y-52050000D03*
X101000000Y-53950000D03*
X103000000Y-53000000D03*
X83500000Y-52050000D03*
X83500000Y-53950000D03*
X85500000Y-53000000D03*
X66000000Y-52050000D03*
X66000000Y-53950000D03*
X68000000Y-53000000D03*
D12*
X208000000Y-47000000D03*
X206100000Y-47000000D03*
D13*
G36*
X29100000Y-57242000D02*
G01*
X28500000Y-58092000D01*
X27500000Y-58092000D01*
X26900000Y-57242000D01*
X29100000Y-57242000D01*
G37*
D14*
X29500000Y-53520000D03*
D15*
X28000000Y-53666500D03*
D14*
X26500000Y-53520000D03*
D16*
X28000000Y-56333500D03*
D13*
G36*
X26900000Y-55423800D02*
G01*
X27600000Y-54423800D01*
X28400000Y-54423800D01*
X29100000Y-55423800D01*
X26900000Y-55423800D01*
G37*
D17*
X47750000Y-58800000D03*
X47750000Y-58000000D03*
X47750000Y-57200000D03*
X47750000Y-56400000D03*
X47750000Y-55600000D03*
X47750000Y-54800000D03*
X47750000Y-54000000D03*
X47750000Y-53200000D03*
D18*
X46300000Y-51750000D03*
X45500000Y-51750000D03*
X44700000Y-51750000D03*
X43900000Y-51750000D03*
X43100000Y-51750000D03*
X42300000Y-51750000D03*
X41500000Y-51750000D03*
X40700000Y-51750000D03*
D17*
X39250000Y-53200000D03*
X39250000Y-54000000D03*
X39250000Y-54800000D03*
X39250000Y-55600000D03*
X39250000Y-56400000D03*
X39250000Y-57200000D03*
X39250000Y-58000000D03*
X39250000Y-58800000D03*
D18*
X40700000Y-60250000D03*
X41500000Y-60250000D03*
X42300000Y-60250000D03*
X43100000Y-60250000D03*
X43900000Y-60250000D03*
X44700000Y-60250000D03*
X45500000Y-60250000D03*
X46300000Y-60250000D03*
D12*
X37100000Y-46500000D03*
X39000000Y-46500000D03*
D19*
X34000000Y-53500000D03*
X34000000Y-55500000D03*
D20*
X26500000Y-51000000D03*
X28500000Y-51000000D03*
D19*
X32000000Y-53500000D03*
X32000000Y-55500000D03*
X49950000Y-55000000D03*
X49950000Y-57000000D03*
X36500000Y-53500000D03*
X36500000Y-51500000D03*
X36500000Y-56100000D03*
X36500000Y-58100000D03*
M02*
