G04 #@! TF.GenerationSoftware,KiCad,Pcbnew,(5.1.7)-1*
G04 #@! TF.CreationDate,2022-04-05T13:22:44+02:00*
G04 #@! TF.ProjectId,saba_924x_tipp-tasten-modul,73616261-5f39-4323-9478-5f746970702d,rev?*
G04 #@! TF.SameCoordinates,Original*
G04 #@! TF.FileFunction,Profile,NP*
%FSLAX46Y46*%
G04 Gerber Fmt 4.6, Leading zero omitted, Abs format (unit mm)*
G04 Created by KiCad (PCBNEW (5.1.7)-1) date 2022-04-05 13:22:44*
%MOMM*%
%LPD*%
G01*
G04 APERTURE LIST*
G04 #@! TA.AperFunction,Profile*
%ADD10C,0.050000*%
G04 #@! TD*
G04 APERTURE END LIST*
D10*
X40000000Y-32500000D02*
X90000000Y-32500000D01*
X225000000Y-32500000D02*
X90000000Y-32500000D01*
X131000000Y-67000000D02*
X73000000Y-67000000D01*
X132000000Y-69500000D02*
X131000000Y-67000000D01*
X142000000Y-69500000D02*
X132000000Y-69500000D01*
X143000000Y-67000000D02*
X142000000Y-69500000D01*
X192000000Y-67000000D02*
X143000000Y-67000000D01*
X193000000Y-69500000D02*
X192000000Y-67000000D01*
X202000000Y-69500000D02*
X193000000Y-69500000D01*
X203000000Y-67000000D02*
X202000000Y-69500000D01*
X72000000Y-69500000D02*
X73000000Y-67000000D01*
X62000000Y-69500000D02*
X72000000Y-69500000D01*
X61000000Y-67000000D02*
X62000000Y-69500000D01*
X24000000Y-67000000D02*
X61000000Y-67000000D01*
X20000000Y-47500000D02*
X24000000Y-52000000D01*
X225000000Y-67000000D02*
X203000000Y-67000000D01*
X24000000Y-52000000D02*
X24000000Y-67000000D01*
X20000000Y-20000000D02*
X20000000Y-47500000D01*
X225000000Y-32500000D02*
X225000000Y-67000000D01*
X40000000Y-20000000D02*
X40000000Y-32500000D01*
X20000000Y-20000000D02*
X40000000Y-20000000D01*
M02*
