G04 #@! TF.GenerationSoftware,KiCad,Pcbnew,(5.1.7)-1*
G04 #@! TF.CreationDate,2022-04-05T13:22:44+02:00*
G04 #@! TF.ProjectId,saba_924x_tipp-tasten-modul,73616261-5f39-4323-9478-5f746970702d,rev?*
G04 #@! TF.SameCoordinates,Original*
G04 #@! TF.FileFunction,Copper,L1,Top*
G04 #@! TF.FilePolarity,Positive*
%FSLAX46Y46*%
G04 Gerber Fmt 4.6, Leading zero omitted, Abs format (unit mm)*
G04 Created by KiCad (PCBNEW (5.1.7)-1) date 2022-04-05 13:22:44*
%MOMM*%
%LPD*%
G01*
G04 APERTURE LIST*
G04 #@! TA.AperFunction,ComponentPad*
%ADD10C,2.500000*%
G04 #@! TD*
G04 #@! TA.AperFunction,SMDPad,CuDef*
%ADD11R,1.300000X0.700000*%
G04 #@! TD*
G04 #@! TA.AperFunction,SMDPad,CuDef*
%ADD12R,0.900000X0.800000*%
G04 #@! TD*
G04 #@! TA.AperFunction,SMDPad,CuDef*
%ADD13R,0.700000X1.300000*%
G04 #@! TD*
G04 #@! TA.AperFunction,ComponentPad*
%ADD14C,2.250000*%
G04 #@! TD*
G04 #@! TA.AperFunction,ComponentPad*
%ADD15R,1.800000X1.800000*%
G04 #@! TD*
G04 #@! TA.AperFunction,ComponentPad*
%ADD16C,1.800000*%
G04 #@! TD*
G04 #@! TA.AperFunction,SMDPad,CuDef*
%ADD17C,0.100000*%
G04 #@! TD*
G04 #@! TA.AperFunction,SMDPad,CuDef*
%ADD18R,1.000000X1.500000*%
G04 #@! TD*
G04 #@! TA.AperFunction,SMDPad,CuDef*
%ADD19R,1.000000X1.800000*%
G04 #@! TD*
G04 #@! TA.AperFunction,SMDPad,CuDef*
%ADD20R,2.200000X1.840000*%
G04 #@! TD*
G04 #@! TA.AperFunction,SMDPad,CuDef*
%ADD21R,1.600000X0.550000*%
G04 #@! TD*
G04 #@! TA.AperFunction,SMDPad,CuDef*
%ADD22R,0.550000X1.600000*%
G04 #@! TD*
G04 #@! TA.AperFunction,ComponentPad*
%ADD23R,1.700000X1.700000*%
G04 #@! TD*
G04 #@! TA.AperFunction,ComponentPad*
%ADD24O,1.700000X1.700000*%
G04 #@! TD*
G04 #@! TA.AperFunction,SMDPad,CuDef*
%ADD25R,1.250000X1.000000*%
G04 #@! TD*
G04 #@! TA.AperFunction,SMDPad,CuDef*
%ADD26R,1.000000X1.250000*%
G04 #@! TD*
G04 #@! TA.AperFunction,ViaPad*
%ADD27C,0.800000*%
G04 #@! TD*
G04 #@! TA.AperFunction,Conductor*
%ADD28C,0.500000*%
G04 #@! TD*
G04 #@! TA.AperFunction,Conductor*
%ADD29C,0.250000*%
G04 #@! TD*
G04 APERTURE END LIST*
D10*
X25500000Y-32500000D03*
X29500000Y-38000000D03*
D11*
X207000000Y-56050000D03*
X207000000Y-57950000D03*
D12*
X206000000Y-52050000D03*
X206000000Y-53950000D03*
X208000000Y-53000000D03*
D11*
X189500000Y-56050000D03*
X189500000Y-57950000D03*
X172000000Y-56050000D03*
X172000000Y-57950000D03*
X154500000Y-56050000D03*
X154500000Y-57950000D03*
X137000000Y-56050000D03*
X137000000Y-57950000D03*
X119500000Y-56050000D03*
X119500000Y-57950000D03*
X102000000Y-56050000D03*
X102000000Y-57950000D03*
X84500000Y-56050000D03*
X84500000Y-57950000D03*
X67000000Y-56050000D03*
X67000000Y-57950000D03*
D12*
X188500000Y-52050000D03*
X188500000Y-53950000D03*
X190500000Y-53000000D03*
X171000000Y-52050000D03*
X171000000Y-53950000D03*
X173000000Y-53000000D03*
X153500000Y-52050000D03*
X153500000Y-53950000D03*
X155500000Y-53000000D03*
X136000000Y-52050000D03*
X136000000Y-53950000D03*
X138000000Y-53000000D03*
X118500000Y-52050000D03*
X118500000Y-53950000D03*
X120500000Y-53000000D03*
X101000000Y-52050000D03*
X101000000Y-53950000D03*
X103000000Y-53000000D03*
X83500000Y-52050000D03*
X83500000Y-53950000D03*
X85500000Y-53000000D03*
X66000000Y-52050000D03*
X66000000Y-53950000D03*
X68000000Y-53000000D03*
D13*
X208000000Y-47000000D03*
X206100000Y-47000000D03*
D14*
X61250000Y-57200000D03*
X57550000Y-58600000D03*
X54950000Y-56000000D03*
X58750000Y-54500000D03*
X201250000Y-57200000D03*
X197550000Y-58600000D03*
X194950000Y-56000000D03*
X198750000Y-54500000D03*
X96250000Y-57200000D03*
X92550000Y-58600000D03*
X89950000Y-56000000D03*
X93750000Y-54500000D03*
X113750000Y-57200000D03*
X110050000Y-58600000D03*
X107450000Y-56000000D03*
X111250000Y-54500000D03*
X148750000Y-57200000D03*
X145050000Y-58600000D03*
X142450000Y-56000000D03*
X146250000Y-54500000D03*
X166250000Y-57200000D03*
X162550000Y-58600000D03*
X159950000Y-56000000D03*
X163750000Y-54500000D03*
X131250000Y-57200000D03*
X127550000Y-58600000D03*
X124950000Y-56000000D03*
X128750000Y-54500000D03*
X183750000Y-57200000D03*
X180050000Y-58600000D03*
X177450000Y-56000000D03*
X181250000Y-54500000D03*
X78750000Y-57200000D03*
X75050000Y-58600000D03*
X72450000Y-56000000D03*
X76250000Y-54500000D03*
D15*
X74500000Y-47000000D03*
D16*
X77040000Y-47000000D03*
G04 #@! TA.AperFunction,SMDPad,CuDef*
D17*
G36*
X29100000Y-57242000D02*
G01*
X28500000Y-58092000D01*
X27500000Y-58092000D01*
X26900000Y-57242000D01*
X29100000Y-57242000D01*
G37*
G04 #@! TD.AperFunction*
D18*
X29500000Y-53520000D03*
D19*
X28000000Y-53666500D03*
D18*
X26500000Y-53520000D03*
D20*
X28000000Y-56333500D03*
G04 #@! TA.AperFunction,SMDPad,CuDef*
D17*
G36*
X26900000Y-55423800D02*
G01*
X27600000Y-54423800D01*
X28400000Y-54423800D01*
X29100000Y-55423800D01*
X26900000Y-55423800D01*
G37*
G04 #@! TD.AperFunction*
D21*
X47750000Y-58800000D03*
X47750000Y-58000000D03*
X47750000Y-57200000D03*
X47750000Y-56400000D03*
X47750000Y-55600000D03*
X47750000Y-54800000D03*
X47750000Y-54000000D03*
X47750000Y-53200000D03*
D22*
X46300000Y-51750000D03*
X45500000Y-51750000D03*
X44700000Y-51750000D03*
X43900000Y-51750000D03*
X43100000Y-51750000D03*
X42300000Y-51750000D03*
X41500000Y-51750000D03*
X40700000Y-51750000D03*
D21*
X39250000Y-53200000D03*
X39250000Y-54000000D03*
X39250000Y-54800000D03*
X39250000Y-55600000D03*
X39250000Y-56400000D03*
X39250000Y-57200000D03*
X39250000Y-58000000D03*
X39250000Y-58800000D03*
D22*
X40700000Y-60250000D03*
X41500000Y-60250000D03*
X42300000Y-60250000D03*
X43100000Y-60250000D03*
X43900000Y-60250000D03*
X44700000Y-60250000D03*
X45500000Y-60250000D03*
X46300000Y-60250000D03*
D13*
X37100000Y-46500000D03*
X39000000Y-46500000D03*
D23*
X39000000Y-38500000D03*
D24*
X41540000Y-38500000D03*
X39000000Y-41040000D03*
X41540000Y-41040000D03*
X39000000Y-43580000D03*
X41540000Y-43580000D03*
D25*
X34000000Y-53500000D03*
X34000000Y-55500000D03*
D26*
X26500000Y-51000000D03*
X28500000Y-51000000D03*
D25*
X32000000Y-53500000D03*
X32000000Y-55500000D03*
X49950000Y-55000000D03*
X49950000Y-57000000D03*
X36500000Y-53500000D03*
X36500000Y-51500000D03*
X36500000Y-56100000D03*
X36500000Y-58100000D03*
D10*
X218000000Y-50000000D03*
X214000000Y-37000000D03*
X218000000Y-42500000D03*
X23500000Y-45500000D03*
G04 #@! TA.AperFunction,ComponentPad*
G36*
G01*
X104160000Y-38000000D02*
X104160000Y-36000000D01*
G75*
G02*
X104660000Y-35500000I500000J0D01*
G01*
X105660000Y-35500000D01*
G75*
G02*
X106160000Y-36000000I0J-500000D01*
G01*
X106160000Y-38000000D01*
G75*
G02*
X105660000Y-38500000I-500000J0D01*
G01*
X104660000Y-38500000D01*
G75*
G02*
X104160000Y-38000000I0J500000D01*
G01*
G37*
G04 #@! TD.AperFunction*
G04 #@! TA.AperFunction,ComponentPad*
G36*
G01*
X101620000Y-38000000D02*
X101620000Y-36000000D01*
G75*
G02*
X102120000Y-35500000I500000J0D01*
G01*
X103120000Y-35500000D01*
G75*
G02*
X103620000Y-36000000I0J-500000D01*
G01*
X103620000Y-38000000D01*
G75*
G02*
X103120000Y-38500000I-500000J0D01*
G01*
X102120000Y-38500000D01*
G75*
G02*
X101620000Y-38000000I0J500000D01*
G01*
G37*
G04 #@! TD.AperFunction*
G04 #@! TA.AperFunction,ComponentPad*
G36*
G01*
X99080000Y-38000000D02*
X99080000Y-36000000D01*
G75*
G02*
X99580000Y-35500000I500000J0D01*
G01*
X100580000Y-35500000D01*
G75*
G02*
X101080000Y-36000000I0J-500000D01*
G01*
X101080000Y-38000000D01*
G75*
G02*
X100580000Y-38500000I-500000J0D01*
G01*
X99580000Y-38500000D01*
G75*
G02*
X99080000Y-38000000I0J500000D01*
G01*
G37*
G04 #@! TD.AperFunction*
G04 #@! TA.AperFunction,ComponentPad*
G36*
G01*
X96540000Y-38000000D02*
X96540000Y-36000000D01*
G75*
G02*
X97040000Y-35500000I500000J0D01*
G01*
X98040000Y-35500000D01*
G75*
G02*
X98540000Y-36000000I0J-500000D01*
G01*
X98540000Y-38000000D01*
G75*
G02*
X98040000Y-38500000I-500000J0D01*
G01*
X97040000Y-38500000D01*
G75*
G02*
X96540000Y-38000000I0J500000D01*
G01*
G37*
G04 #@! TD.AperFunction*
G04 #@! TA.AperFunction,ComponentPad*
G36*
G01*
X94000000Y-38000000D02*
X94000000Y-36000000D01*
G75*
G02*
X94500000Y-35500000I500000J0D01*
G01*
X95500000Y-35500000D01*
G75*
G02*
X96000000Y-36000000I0J-500000D01*
G01*
X96000000Y-38000000D01*
G75*
G02*
X95500000Y-38500000I-500000J0D01*
G01*
X94500000Y-38500000D01*
G75*
G02*
X94000000Y-38000000I0J500000D01*
G01*
G37*
G04 #@! TD.AperFunction*
G04 #@! TA.AperFunction,ComponentPad*
G36*
G01*
X121000000Y-38000000D02*
X121000000Y-36000000D01*
G75*
G02*
X121500000Y-35500000I500000J0D01*
G01*
X122500000Y-35500000D01*
G75*
G02*
X123000000Y-36000000I0J-500000D01*
G01*
X123000000Y-38000000D01*
G75*
G02*
X122500000Y-38500000I-500000J0D01*
G01*
X121500000Y-38500000D01*
G75*
G02*
X121000000Y-38000000I0J500000D01*
G01*
G37*
G04 #@! TD.AperFunction*
G04 #@! TA.AperFunction,ComponentPad*
G36*
G01*
X118460000Y-38000000D02*
X118460000Y-36000000D01*
G75*
G02*
X118960000Y-35500000I500000J0D01*
G01*
X119960000Y-35500000D01*
G75*
G02*
X120460000Y-36000000I0J-500000D01*
G01*
X120460000Y-38000000D01*
G75*
G02*
X119960000Y-38500000I-500000J0D01*
G01*
X118960000Y-38500000D01*
G75*
G02*
X118460000Y-38000000I0J500000D01*
G01*
G37*
G04 #@! TD.AperFunction*
G04 #@! TA.AperFunction,ComponentPad*
G36*
G01*
X115920000Y-38000000D02*
X115920000Y-36000000D01*
G75*
G02*
X116420000Y-35500000I500000J0D01*
G01*
X117420000Y-35500000D01*
G75*
G02*
X117920000Y-36000000I0J-500000D01*
G01*
X117920000Y-38000000D01*
G75*
G02*
X117420000Y-38500000I-500000J0D01*
G01*
X116420000Y-38500000D01*
G75*
G02*
X115920000Y-38000000I0J500000D01*
G01*
G37*
G04 #@! TD.AperFunction*
G04 #@! TA.AperFunction,ComponentPad*
G36*
G01*
X113380000Y-38000000D02*
X113380000Y-36000000D01*
G75*
G02*
X113880000Y-35500000I500000J0D01*
G01*
X114880000Y-35500000D01*
G75*
G02*
X115380000Y-36000000I0J-500000D01*
G01*
X115380000Y-38000000D01*
G75*
G02*
X114880000Y-38500000I-500000J0D01*
G01*
X113880000Y-38500000D01*
G75*
G02*
X113380000Y-38000000I0J500000D01*
G01*
G37*
G04 #@! TD.AperFunction*
G04 #@! TA.AperFunction,ComponentPad*
G36*
G01*
X110840000Y-38000000D02*
X110840000Y-36000000D01*
G75*
G02*
X111340000Y-35500000I500000J0D01*
G01*
X112340000Y-35500000D01*
G75*
G02*
X112840000Y-36000000I0J-500000D01*
G01*
X112840000Y-38000000D01*
G75*
G02*
X112340000Y-38500000I-500000J0D01*
G01*
X111340000Y-38500000D01*
G75*
G02*
X110840000Y-38000000I0J500000D01*
G01*
G37*
G04 #@! TD.AperFunction*
G04 #@! TA.AperFunction,ComponentPad*
G36*
G01*
X148000000Y-38000000D02*
X148000000Y-36000000D01*
G75*
G02*
X148500000Y-35500000I500000J0D01*
G01*
X149500000Y-35500000D01*
G75*
G02*
X150000000Y-36000000I0J-500000D01*
G01*
X150000000Y-38000000D01*
G75*
G02*
X149500000Y-38500000I-500000J0D01*
G01*
X148500000Y-38500000D01*
G75*
G02*
X148000000Y-38000000I0J500000D01*
G01*
G37*
G04 #@! TD.AperFunction*
G04 #@! TA.AperFunction,ComponentPad*
G36*
G01*
X145460000Y-38000000D02*
X145460000Y-36000000D01*
G75*
G02*
X145960000Y-35500000I500000J0D01*
G01*
X146960000Y-35500000D01*
G75*
G02*
X147460000Y-36000000I0J-500000D01*
G01*
X147460000Y-38000000D01*
G75*
G02*
X146960000Y-38500000I-500000J0D01*
G01*
X145960000Y-38500000D01*
G75*
G02*
X145460000Y-38000000I0J500000D01*
G01*
G37*
G04 #@! TD.AperFunction*
G04 #@! TA.AperFunction,ComponentPad*
G36*
G01*
X142920000Y-38000000D02*
X142920000Y-36000000D01*
G75*
G02*
X143420000Y-35500000I500000J0D01*
G01*
X144420000Y-35500000D01*
G75*
G02*
X144920000Y-36000000I0J-500000D01*
G01*
X144920000Y-38000000D01*
G75*
G02*
X144420000Y-38500000I-500000J0D01*
G01*
X143420000Y-38500000D01*
G75*
G02*
X142920000Y-38000000I0J500000D01*
G01*
G37*
G04 #@! TD.AperFunction*
G04 #@! TA.AperFunction,ComponentPad*
G36*
G01*
X140380000Y-38000000D02*
X140380000Y-36000000D01*
G75*
G02*
X140880000Y-35500000I500000J0D01*
G01*
X141880000Y-35500000D01*
G75*
G02*
X142380000Y-36000000I0J-500000D01*
G01*
X142380000Y-38000000D01*
G75*
G02*
X141880000Y-38500000I-500000J0D01*
G01*
X140880000Y-38500000D01*
G75*
G02*
X140380000Y-38000000I0J500000D01*
G01*
G37*
G04 #@! TD.AperFunction*
G04 #@! TA.AperFunction,ComponentPad*
G36*
G01*
X137840000Y-38000000D02*
X137840000Y-36000000D01*
G75*
G02*
X138340000Y-35500000I500000J0D01*
G01*
X139340000Y-35500000D01*
G75*
G02*
X139840000Y-36000000I0J-500000D01*
G01*
X139840000Y-38000000D01*
G75*
G02*
X139340000Y-38500000I-500000J0D01*
G01*
X138340000Y-38500000D01*
G75*
G02*
X137840000Y-38000000I0J500000D01*
G01*
G37*
G04 #@! TD.AperFunction*
G04 #@! TA.AperFunction,ComponentPad*
G36*
G01*
X135300000Y-38000000D02*
X135300000Y-36000000D01*
G75*
G02*
X135800000Y-35500000I500000J0D01*
G01*
X136800000Y-35500000D01*
G75*
G02*
X137300000Y-36000000I0J-500000D01*
G01*
X137300000Y-38000000D01*
G75*
G02*
X136800000Y-38500000I-500000J0D01*
G01*
X135800000Y-38500000D01*
G75*
G02*
X135300000Y-38000000I0J500000D01*
G01*
G37*
G04 #@! TD.AperFunction*
G04 #@! TA.AperFunction,ComponentPad*
G36*
G01*
X132760000Y-38000000D02*
X132760000Y-36000000D01*
G75*
G02*
X133260000Y-35500000I500000J0D01*
G01*
X134260000Y-35500000D01*
G75*
G02*
X134760000Y-36000000I0J-500000D01*
G01*
X134760000Y-38000000D01*
G75*
G02*
X134260000Y-38500000I-500000J0D01*
G01*
X133260000Y-38500000D01*
G75*
G02*
X132760000Y-38000000I0J500000D01*
G01*
G37*
G04 #@! TD.AperFunction*
G04 #@! TA.AperFunction,ComponentPad*
G36*
G01*
X130220000Y-38000000D02*
X130220000Y-36000000D01*
G75*
G02*
X130720000Y-35500000I500000J0D01*
G01*
X131720000Y-35500000D01*
G75*
G02*
X132220000Y-36000000I0J-500000D01*
G01*
X132220000Y-38000000D01*
G75*
G02*
X131720000Y-38500000I-500000J0D01*
G01*
X130720000Y-38500000D01*
G75*
G02*
X130220000Y-38000000I0J500000D01*
G01*
G37*
G04 #@! TD.AperFunction*
G04 #@! TA.AperFunction,ComponentPad*
G36*
G01*
X127680000Y-38000000D02*
X127680000Y-36000000D01*
G75*
G02*
X128180000Y-35500000I500000J0D01*
G01*
X129180000Y-35500000D01*
G75*
G02*
X129680000Y-36000000I0J-500000D01*
G01*
X129680000Y-38000000D01*
G75*
G02*
X129180000Y-38500000I-500000J0D01*
G01*
X128180000Y-38500000D01*
G75*
G02*
X127680000Y-38000000I0J500000D01*
G01*
G37*
G04 #@! TD.AperFunction*
D15*
X197000000Y-47000000D03*
D16*
X199540000Y-47000000D03*
D15*
X162000000Y-47000000D03*
D16*
X164540000Y-47000000D03*
D15*
X144500000Y-47000000D03*
D16*
X147040000Y-47000000D03*
D15*
X109500000Y-47000000D03*
D16*
X112040000Y-47000000D03*
D15*
X179500000Y-47000000D03*
D16*
X182040000Y-47000000D03*
D15*
X127000000Y-47000000D03*
D16*
X129540000Y-47000000D03*
D15*
X92000000Y-47000000D03*
D16*
X94540000Y-47000000D03*
D15*
X25500000Y-23000000D03*
D16*
X28040000Y-23000000D03*
D15*
X57000000Y-47000000D03*
D16*
X59540000Y-47000000D03*
D27*
X114000000Y-44000000D03*
X107500000Y-44000000D03*
X28000000Y-57200000D03*
X28000000Y-56300000D03*
X28000000Y-55400000D03*
X28000000Y-54500000D03*
X28000000Y-53600000D03*
X40900000Y-56400000D03*
X32000000Y-46500000D03*
X32000000Y-52000000D03*
X37500000Y-48500000D03*
X43900000Y-56000000D03*
X39000000Y-48500000D03*
X67000000Y-59500000D03*
X47300000Y-48500000D03*
X84500000Y-59500000D03*
X46300000Y-47500000D03*
X102000000Y-59500000D03*
X45300000Y-48500000D03*
X119500000Y-59500000D03*
X44300000Y-47500000D03*
X43300000Y-48500000D03*
X137000000Y-59500000D03*
X42300000Y-47500000D03*
X154500000Y-59500000D03*
X172000000Y-59500000D03*
X42500000Y-57000000D03*
X189500000Y-59500000D03*
X42000000Y-58250000D03*
D28*
X25500000Y-23000000D02*
X25500000Y-32500000D01*
X28040000Y-23000000D02*
X28040000Y-29540000D01*
X29500000Y-31000000D02*
X29500000Y-38000000D01*
X28040000Y-29540000D02*
X29500000Y-31000000D01*
X107500000Y-44000000D02*
X114000000Y-44000000D01*
X202500000Y-37000000D02*
X214000000Y-37000000D01*
X201500000Y-37000000D02*
X202500000Y-37000000D01*
X197000000Y-41500000D02*
X201500000Y-37000000D01*
X197000000Y-47000000D02*
X197000000Y-41500000D01*
X206100000Y-47000000D02*
X199540000Y-47000000D01*
X26500000Y-51750000D02*
X26500000Y-51000000D01*
X26500000Y-53520000D02*
X26500000Y-51750000D01*
X149000000Y-34500000D02*
X149000000Y-37000000D01*
X147999999Y-33499999D02*
X149000000Y-34500000D01*
X111840000Y-33659998D02*
X111999999Y-33499999D01*
X111840000Y-37000000D02*
X111840000Y-33659998D01*
X111999999Y-33499999D02*
X147999999Y-33499999D01*
X95000001Y-35499999D02*
X95000001Y-33499999D01*
X95000001Y-33499999D02*
X111999999Y-33499999D01*
X95000000Y-37000000D02*
X95000001Y-35499999D01*
X91499999Y-33499999D02*
X95000001Y-33499999D01*
X39000001Y-33499999D02*
X91499999Y-33499999D01*
X26500000Y-46000000D02*
X39000001Y-33499999D01*
X26500000Y-51000000D02*
X26500000Y-46000000D01*
D29*
X48550000Y-55600000D02*
X47750000Y-55600000D01*
X49950000Y-57000000D02*
X48550000Y-55600000D01*
X49750000Y-57200000D02*
X49950000Y-57000000D01*
X47750000Y-57200000D02*
X49750000Y-57200000D01*
D28*
X124300000Y-56250000D02*
X124300000Y-55339962D01*
X39250000Y-56400000D02*
X40900000Y-56400000D01*
X64500000Y-53950000D02*
X61250000Y-57200000D01*
X66000000Y-53950000D02*
X64500000Y-53950000D01*
X82000000Y-53950000D02*
X78750000Y-57200000D01*
X83500000Y-53950000D02*
X82000000Y-53950000D01*
X99500000Y-53950000D02*
X96250000Y-57200000D01*
X101000000Y-53950000D02*
X99500000Y-53950000D01*
X117000000Y-53950000D02*
X113750000Y-57200000D01*
X118500000Y-53950000D02*
X117000000Y-53950000D01*
X134500000Y-53950000D02*
X131250000Y-57200000D01*
X136000000Y-53950000D02*
X134500000Y-53950000D01*
X152000000Y-53950000D02*
X148750000Y-57200000D01*
X153500000Y-53950000D02*
X152000000Y-53950000D01*
X169500000Y-53950000D02*
X166250000Y-57200000D01*
X171000000Y-53950000D02*
X169500000Y-53950000D01*
X187000000Y-53950000D02*
X183750000Y-57200000D01*
X188500000Y-53950000D02*
X187000000Y-53950000D01*
X204500000Y-53950000D02*
X201250000Y-57200000D01*
X206000000Y-53950000D02*
X204500000Y-53950000D01*
X28500000Y-52000000D02*
X28000000Y-52500000D01*
X28500000Y-51000000D02*
X28500000Y-52000000D01*
X28000000Y-53666500D02*
X28000000Y-52500000D01*
X38200000Y-56400000D02*
X36500000Y-58100000D01*
X39250000Y-56400000D02*
X38200000Y-56400000D01*
X28500000Y-51000000D02*
X34000000Y-51000000D01*
X34500000Y-51500000D02*
X36500000Y-51500000D01*
X34000000Y-51000000D02*
X34500000Y-51500000D01*
X36500000Y-58100000D02*
X35100000Y-58100000D01*
X34000000Y-57000000D02*
X34000000Y-55500000D01*
X35100000Y-58100000D02*
X34000000Y-57000000D01*
X34000000Y-55500000D02*
X32000000Y-55500000D01*
X28000000Y-55066500D02*
X28000000Y-53666500D01*
X28433500Y-55500000D02*
X28000000Y-55066500D01*
X32000000Y-55500000D02*
X28433500Y-55500000D01*
X46450000Y-57200000D02*
X44300000Y-55050000D01*
X47750000Y-57200000D02*
X46450000Y-57200000D01*
X42250000Y-55050000D02*
X40900000Y-56400000D01*
X44300000Y-55050000D02*
X42250000Y-55050000D01*
D29*
X47750000Y-53200000D02*
X48636410Y-53200000D01*
X57450000Y-53200000D02*
X58750000Y-54500000D01*
X47750000Y-53200000D02*
X57450000Y-53200000D01*
X58750000Y-57400000D02*
X57550000Y-58600000D01*
X58750000Y-54500000D02*
X58750000Y-57400000D01*
X47750000Y-54000000D02*
X48800000Y-54000000D01*
X72224989Y-61425011D02*
X75050000Y-58600000D01*
X54397831Y-61425011D02*
X72224989Y-61425011D01*
X52200000Y-59227180D02*
X54397831Y-61425011D01*
X52200000Y-54800000D02*
X52200000Y-59227180D01*
X51400000Y-54000000D02*
X52200000Y-54800000D01*
X47750000Y-54000000D02*
X51400000Y-54000000D01*
X76250000Y-57400000D02*
X75050000Y-58600000D01*
X76250000Y-54500000D02*
X76250000Y-57400000D01*
X89274979Y-61875021D02*
X92550000Y-58600000D01*
X54211431Y-61875021D02*
X89274979Y-61875021D01*
X50336410Y-58000000D02*
X54211431Y-61875021D01*
X47750000Y-58000000D02*
X50336410Y-58000000D01*
X93750000Y-57400000D02*
X92550000Y-58600000D01*
X93750000Y-54500000D02*
X93750000Y-57400000D01*
X106324969Y-62325031D02*
X110050000Y-58600000D01*
X54025031Y-62325031D02*
X106324969Y-62325031D01*
X50500000Y-58800000D02*
X54025031Y-62325031D01*
X47750000Y-58800000D02*
X50500000Y-58800000D01*
X111250000Y-57400000D02*
X110050000Y-58600000D01*
X111250000Y-54500000D02*
X111250000Y-57400000D01*
X140424950Y-63225050D02*
X145050000Y-58600000D01*
X46913599Y-63225050D02*
X140424950Y-63225050D01*
X45500000Y-61811451D02*
X46913599Y-63225050D01*
X45500000Y-60250000D02*
X45500000Y-61811451D01*
X146250000Y-57400000D02*
X145050000Y-58600000D01*
X146250000Y-54500000D02*
X146250000Y-57400000D01*
X157474939Y-63675061D02*
X162550000Y-58600000D01*
X46727199Y-63675060D02*
X157474939Y-63675061D01*
X44700000Y-61647861D02*
X46727199Y-63675060D01*
X44700000Y-60250000D02*
X44700000Y-61647861D01*
X163750000Y-57400000D02*
X162550000Y-58600000D01*
X163750000Y-54500000D02*
X163750000Y-57400000D01*
X123374959Y-62775041D02*
X127550000Y-58600000D01*
X47100000Y-62775041D02*
X123374959Y-62775041D01*
X46300000Y-61975041D02*
X47100000Y-62775041D01*
X46300000Y-60250000D02*
X46300000Y-61975041D01*
X128750000Y-57400000D02*
X127550000Y-58600000D01*
X128750000Y-54500000D02*
X128750000Y-57400000D01*
X50025071Y-64125071D02*
X50025069Y-64125069D01*
X50025071Y-64125071D02*
X47115841Y-64125071D01*
X45361481Y-64125071D02*
X47115841Y-64125071D01*
X43100000Y-61863590D02*
X45361481Y-64125071D01*
X43100000Y-60250000D02*
X43100000Y-61863590D01*
X174524929Y-64125071D02*
X180050000Y-58600000D01*
X50025071Y-64125071D02*
X174524929Y-64125071D01*
X181250000Y-57400000D02*
X180050000Y-58600000D01*
X181250000Y-54500000D02*
X181250000Y-57400000D01*
X49750000Y-54800000D02*
X49950000Y-55000000D01*
X47750000Y-54800000D02*
X49750000Y-54800000D01*
X46700000Y-56400000D02*
X47750000Y-56400000D01*
X46624999Y-54875001D02*
X46624999Y-56324999D01*
X46624999Y-56324999D02*
X46700000Y-56400000D01*
X46700000Y-54800000D02*
X46624999Y-54875001D01*
X47750000Y-54800000D02*
X46700000Y-54800000D01*
D28*
X29520000Y-53500000D02*
X29500000Y-53520000D01*
X36500000Y-53500000D02*
X29520000Y-53500000D01*
X39250000Y-54000000D02*
X38000000Y-54000000D01*
X37500000Y-53500000D02*
X36500000Y-53500000D01*
X38000000Y-54000000D02*
X37500000Y-53500000D01*
X37100000Y-46500000D02*
X32000000Y-46500000D01*
X32000000Y-52000000D02*
X32000000Y-53500000D01*
X45900000Y-54000000D02*
X46700000Y-54800000D01*
X39250000Y-54000000D02*
X45900000Y-54000000D01*
D29*
X40700000Y-51750000D02*
X40700000Y-46200000D01*
X40700000Y-46200000D02*
X40225001Y-45725001D01*
X40225001Y-39725001D02*
X39000000Y-38500000D01*
X40225001Y-45725001D02*
X40225001Y-39725001D01*
X39250000Y-53200000D02*
X39250000Y-50250000D01*
X39250000Y-50250000D02*
X37500000Y-48500000D01*
X41500000Y-51750000D02*
X41500000Y-46500000D01*
X43000000Y-42500000D02*
X43000000Y-45000000D01*
X41500000Y-46500000D02*
X43000000Y-45000000D01*
X41540000Y-41040000D02*
X43000000Y-42500000D01*
X39000000Y-43580000D02*
X39000000Y-46500000D01*
X43900000Y-60250000D02*
X43900000Y-56000000D01*
X39000000Y-48500000D02*
X39000000Y-46500000D01*
D28*
X208000000Y-53000000D02*
X208000000Y-47000000D01*
X218000000Y-42500000D02*
X210000000Y-42500000D01*
X208000000Y-44500000D02*
X208000000Y-47000000D01*
X210000000Y-42500000D02*
X208000000Y-44500000D01*
X146460000Y-37000000D02*
X146460000Y-39000000D01*
X190500000Y-46500000D02*
X190500000Y-53000000D01*
X148460000Y-41000000D02*
X146460000Y-39000000D01*
X185000000Y-41000000D02*
X190500000Y-46500000D01*
X182500000Y-41000000D02*
X185000000Y-41000000D01*
X182500000Y-41000000D02*
X148460000Y-41000000D01*
X143920000Y-40000000D02*
X143920000Y-37000000D01*
X145920000Y-42000000D02*
X143920000Y-40000000D01*
X173000000Y-53000000D02*
X173000000Y-46500000D01*
X168500000Y-42000000D02*
X173000000Y-46500000D01*
X166500000Y-42000000D02*
X168500000Y-42000000D01*
X166500000Y-42000000D02*
X145920000Y-42000000D01*
X141380000Y-41000000D02*
X141380000Y-37000000D01*
X143380000Y-43000000D02*
X141380000Y-41000000D01*
X155500000Y-53000000D02*
X155500000Y-46500000D01*
X152000000Y-43000000D02*
X155500000Y-46500000D01*
X150500000Y-43000000D02*
X152000000Y-43000000D01*
X150500000Y-43000000D02*
X143380000Y-43000000D01*
X138000000Y-46500000D02*
X138000000Y-53000000D01*
X138840000Y-45660000D02*
X138000000Y-46500000D01*
X138840000Y-37000000D02*
X138840000Y-45660000D01*
X136300000Y-42000000D02*
X136300000Y-37000000D01*
X134300000Y-44000000D02*
X136300000Y-42000000D01*
X120500000Y-53000000D02*
X120500000Y-46500000D01*
X123000000Y-44000000D02*
X120500000Y-46500000D01*
X123500000Y-44000000D02*
X125000000Y-44000000D01*
X125000000Y-44000000D02*
X123000000Y-44000000D01*
X125000000Y-44000000D02*
X134300000Y-44000000D01*
X103000000Y-46500000D02*
X103000000Y-53000000D01*
X106500000Y-43000000D02*
X103000000Y-46500000D01*
X131760000Y-43000000D02*
X106500000Y-43000000D01*
X133760000Y-41000000D02*
X131760000Y-43000000D01*
X133760000Y-37000000D02*
X133760000Y-41000000D01*
X131220000Y-40000000D02*
X131220000Y-37000000D01*
X129220000Y-42000000D02*
X131220000Y-40000000D01*
X90000000Y-42000000D02*
X129220000Y-42000000D01*
X85500000Y-46500000D02*
X90000000Y-42000000D01*
X85500000Y-53000000D02*
X85500000Y-46500000D01*
X128680000Y-39000000D02*
X128680000Y-37000000D01*
X126680000Y-41000000D02*
X128680000Y-39000000D01*
X73500000Y-41000000D02*
X126680000Y-41000000D01*
X68000000Y-46500000D02*
X73500000Y-41000000D01*
X68000000Y-53000000D02*
X68000000Y-46500000D01*
D29*
X67000000Y-57950000D02*
X67000000Y-59500000D01*
X46300000Y-49500000D02*
X47300000Y-48500000D01*
X46300000Y-51750000D02*
X46300000Y-49500000D01*
X84500000Y-57950000D02*
X84500000Y-59500000D01*
X45500000Y-51750000D02*
X45500000Y-49500000D01*
X46300000Y-48700000D02*
X46300000Y-47500000D01*
X45500000Y-49500000D02*
X46300000Y-48700000D01*
X102000000Y-57950000D02*
X102000000Y-59500000D01*
X44700000Y-49100000D02*
X45300000Y-48500000D01*
X44700000Y-51750000D02*
X44700000Y-49100000D01*
X119500000Y-57950000D02*
X119500000Y-59500000D01*
X43900000Y-51750000D02*
X43900000Y-49100000D01*
X44300000Y-48700000D02*
X44300000Y-47500000D01*
X43900000Y-49100000D02*
X44300000Y-48700000D01*
X137000000Y-57950000D02*
X137000000Y-59500000D01*
X43100000Y-51750000D02*
X43100000Y-49900000D01*
X43300000Y-49450000D02*
X43100000Y-49650000D01*
X43300000Y-48500000D02*
X43300000Y-49450000D01*
X43100000Y-49650000D02*
X43100000Y-49900000D01*
X154500000Y-57950000D02*
X154500000Y-59500000D01*
X42300000Y-51300000D02*
X42300000Y-47500000D01*
X42300000Y-51750000D02*
X42300000Y-51300000D01*
X172000000Y-57950000D02*
X172000000Y-59500000D01*
X42500000Y-57000000D02*
X41750000Y-57000000D01*
X41750000Y-57000000D02*
X40750000Y-58000000D01*
X39250000Y-58000000D02*
X40750000Y-58000000D01*
X189500000Y-57950000D02*
X189500000Y-59500000D01*
X41450000Y-58800000D02*
X42000000Y-58250000D01*
X39250000Y-58800000D02*
X41450000Y-58800000D01*
X41500000Y-61536410D02*
X41500000Y-60250000D01*
X44988681Y-65025091D02*
X41500000Y-61536410D01*
X201474909Y-65025091D02*
X200724909Y-65025091D01*
X207000000Y-59500000D02*
X201474909Y-65025091D01*
X207000000Y-57950000D02*
X207000000Y-59500000D01*
X200724909Y-65025091D02*
X44988681Y-65025091D01*
X191574919Y-64575081D02*
X197550000Y-58600000D01*
X45175081Y-64575081D02*
X191574919Y-64575081D01*
X42300000Y-61700000D02*
X45175081Y-64575081D01*
X42300000Y-60250000D02*
X42300000Y-61700000D01*
X198750000Y-57400000D02*
X197550000Y-58600000D01*
X198750000Y-54500000D02*
X198750000Y-57400000D01*
D28*
X37000000Y-55600000D02*
X36500000Y-56100000D01*
X39250000Y-55600000D02*
X37000000Y-55600000D01*
D29*
X67000000Y-53050000D02*
X66000000Y-52050000D01*
X67000000Y-56050000D02*
X67000000Y-53050000D01*
X84500000Y-53050000D02*
X83500000Y-52050000D01*
X84500000Y-56050000D02*
X84500000Y-53050000D01*
X102000000Y-53050000D02*
X101000000Y-52050000D01*
X102000000Y-56050000D02*
X102000000Y-53050000D01*
X119500000Y-53050000D02*
X118500000Y-52050000D01*
X119500000Y-56050000D02*
X119500000Y-53050000D01*
X137000000Y-53050000D02*
X136000000Y-52050000D01*
X137000000Y-56050000D02*
X137000000Y-53050000D01*
X154500000Y-53050000D02*
X153500000Y-52050000D01*
X154500000Y-56050000D02*
X154500000Y-53050000D01*
X172000000Y-53050000D02*
X171000000Y-52050000D01*
X172000000Y-56050000D02*
X172000000Y-53050000D01*
X189500000Y-53050000D02*
X188500000Y-52050000D01*
X189500000Y-56050000D02*
X189500000Y-53050000D01*
X207000000Y-53050000D02*
X206000000Y-52050000D01*
X207000000Y-56050000D02*
X207000000Y-53050000D01*
M02*
