G04 #@! TF.GenerationSoftware,KiCad,Pcbnew,(5.1.7)-1*
G04 #@! TF.CreationDate,2022-04-05T13:22:44+02:00*
G04 #@! TF.ProjectId,saba_924x_tipp-tasten-modul,73616261-5f39-4323-9478-5f746970702d,rev?*
G04 #@! TF.SameCoordinates,Original*
G04 #@! TF.FileFunction,Legend,Top*
G04 #@! TF.FilePolarity,Positive*
%FSLAX46Y46*%
G04 Gerber Fmt 4.6, Leading zero omitted, Abs format (unit mm)*
G04 Created by KiCad (PCBNEW (5.1.7)-1) date 2022-04-05 13:22:44*
%MOMM*%
%LPD*%
G01*
G04 APERTURE LIST*
%ADD10C,0.150000*%
%ADD11C,0.500000*%
%ADD12C,0.120000*%
%ADD13C,2.500000*%
%ADD14R,1.300000X0.700000*%
%ADD15R,0.900000X0.800000*%
%ADD16R,0.700000X1.300000*%
%ADD17C,2.250000*%
%ADD18R,1.800000X1.800000*%
%ADD19C,1.800000*%
%ADD20C,0.100000*%
%ADD21R,1.000000X1.500000*%
%ADD22R,1.000000X1.800000*%
%ADD23R,2.200000X1.840000*%
%ADD24R,1.600000X0.550000*%
%ADD25R,0.550000X1.600000*%
%ADD26R,1.700000X1.700000*%
%ADD27O,1.700000X1.700000*%
%ADD28R,1.250000X1.000000*%
%ADD29R,1.000000X1.250000*%
%ADD30C,6.000000*%
G04 APERTURE END LIST*
D10*
X220247738Y-62802380D02*
X219914404Y-62326190D01*
X219676309Y-62802380D02*
X219676309Y-61802380D01*
X220057261Y-61802380D01*
X220152500Y-61850000D01*
X220200119Y-61897619D01*
X220247738Y-61992857D01*
X220247738Y-62135714D01*
X220200119Y-62230952D01*
X220152500Y-62278571D01*
X220057261Y-62326190D01*
X219676309Y-62326190D01*
X221057261Y-62754761D02*
X220962023Y-62802380D01*
X220771547Y-62802380D01*
X220676309Y-62754761D01*
X220628690Y-62659523D01*
X220628690Y-62278571D01*
X220676309Y-62183333D01*
X220771547Y-62135714D01*
X220962023Y-62135714D01*
X221057261Y-62183333D01*
X221104880Y-62278571D01*
X221104880Y-62373809D01*
X220628690Y-62469047D01*
X221438214Y-62135714D02*
X221676309Y-62802380D01*
X221914404Y-62135714D01*
X222295357Y-62707142D02*
X222342976Y-62754761D01*
X222295357Y-62802380D01*
X222247738Y-62754761D01*
X222295357Y-62707142D01*
X222295357Y-62802380D01*
X223485833Y-62516666D02*
X223962023Y-62516666D01*
X223390595Y-62802380D02*
X223723928Y-61802380D01*
X224057261Y-62802380D01*
X214247738Y-63547619D02*
X214295357Y-63500000D01*
X214390595Y-63452380D01*
X214628690Y-63452380D01*
X214723928Y-63500000D01*
X214771547Y-63547619D01*
X214819166Y-63642857D01*
X214819166Y-63738095D01*
X214771547Y-63880952D01*
X214200119Y-64452380D01*
X214819166Y-64452380D01*
X215438214Y-63452380D02*
X215533452Y-63452380D01*
X215628690Y-63500000D01*
X215676309Y-63547619D01*
X215723928Y-63642857D01*
X215771547Y-63833333D01*
X215771547Y-64071428D01*
X215723928Y-64261904D01*
X215676309Y-64357142D01*
X215628690Y-64404761D01*
X215533452Y-64452380D01*
X215438214Y-64452380D01*
X215342976Y-64404761D01*
X215295357Y-64357142D01*
X215247738Y-64261904D01*
X215200119Y-64071428D01*
X215200119Y-63833333D01*
X215247738Y-63642857D01*
X215295357Y-63547619D01*
X215342976Y-63500000D01*
X215438214Y-63452380D01*
X216152500Y-63547619D02*
X216200119Y-63500000D01*
X216295357Y-63452380D01*
X216533452Y-63452380D01*
X216628690Y-63500000D01*
X216676309Y-63547619D01*
X216723928Y-63642857D01*
X216723928Y-63738095D01*
X216676309Y-63880952D01*
X216104880Y-64452380D01*
X216723928Y-64452380D01*
X217104880Y-63547619D02*
X217152500Y-63500000D01*
X217247738Y-63452380D01*
X217485833Y-63452380D01*
X217581071Y-63500000D01*
X217628690Y-63547619D01*
X217676309Y-63642857D01*
X217676309Y-63738095D01*
X217628690Y-63880952D01*
X217057261Y-64452380D01*
X217676309Y-64452380D01*
X218104880Y-64071428D02*
X218866785Y-64071428D01*
X219533452Y-63452380D02*
X219628690Y-63452380D01*
X219723928Y-63500000D01*
X219771547Y-63547619D01*
X219819166Y-63642857D01*
X219866785Y-63833333D01*
X219866785Y-64071428D01*
X219819166Y-64261904D01*
X219771547Y-64357142D01*
X219723928Y-64404761D01*
X219628690Y-64452380D01*
X219533452Y-64452380D01*
X219438214Y-64404761D01*
X219390595Y-64357142D01*
X219342976Y-64261904D01*
X219295357Y-64071428D01*
X219295357Y-63833333D01*
X219342976Y-63642857D01*
X219390595Y-63547619D01*
X219438214Y-63500000D01*
X219533452Y-63452380D01*
X220200119Y-63452380D02*
X220819166Y-63452380D01*
X220485833Y-63833333D01*
X220628690Y-63833333D01*
X220723928Y-63880952D01*
X220771547Y-63928571D01*
X220819166Y-64023809D01*
X220819166Y-64261904D01*
X220771547Y-64357142D01*
X220723928Y-64404761D01*
X220628690Y-64452380D01*
X220342976Y-64452380D01*
X220247738Y-64404761D01*
X220200119Y-64357142D01*
X221247738Y-64071428D02*
X222009642Y-64071428D01*
X222390595Y-63452380D02*
X223009642Y-63452380D01*
X222676309Y-63833333D01*
X222819166Y-63833333D01*
X222914404Y-63880952D01*
X222962023Y-63928571D01*
X223009642Y-64023809D01*
X223009642Y-64261904D01*
X222962023Y-64357142D01*
X222914404Y-64404761D01*
X222819166Y-64452380D01*
X222533452Y-64452380D01*
X222438214Y-64404761D01*
X222390595Y-64357142D01*
X223628690Y-63452380D02*
X223723928Y-63452380D01*
X223819166Y-63500000D01*
X223866785Y-63547619D01*
X223914404Y-63642857D01*
X223962023Y-63833333D01*
X223962023Y-64071428D01*
X223914404Y-64261904D01*
X223866785Y-64357142D01*
X223819166Y-64404761D01*
X223723928Y-64452380D01*
X223628690Y-64452380D01*
X223533452Y-64404761D01*
X223485833Y-64357142D01*
X223438214Y-64261904D01*
X223390595Y-64071428D01*
X223390595Y-63833333D01*
X223438214Y-63642857D01*
X223485833Y-63547619D01*
X223533452Y-63500000D01*
X223628690Y-63452380D01*
X214533452Y-65626190D02*
X214533452Y-66102380D01*
X214200119Y-65102380D02*
X214533452Y-65626190D01*
X214866785Y-65102380D01*
X215628690Y-66102380D02*
X215628690Y-65578571D01*
X215581071Y-65483333D01*
X215485833Y-65435714D01*
X215295357Y-65435714D01*
X215200119Y-65483333D01*
X215628690Y-66054761D02*
X215533452Y-66102380D01*
X215295357Y-66102380D01*
X215200119Y-66054761D01*
X215152500Y-65959523D01*
X215152500Y-65864285D01*
X215200119Y-65769047D01*
X215295357Y-65721428D01*
X215533452Y-65721428D01*
X215628690Y-65673809D01*
X216104880Y-65435714D02*
X216104880Y-66102380D01*
X216104880Y-65530952D02*
X216152500Y-65483333D01*
X216247738Y-65435714D01*
X216390595Y-65435714D01*
X216485833Y-65483333D01*
X216533452Y-65578571D01*
X216533452Y-66102380D01*
X217009642Y-65435714D02*
X217009642Y-66102380D01*
X217009642Y-65530952D02*
X217057261Y-65483333D01*
X217152500Y-65435714D01*
X217295357Y-65435714D01*
X217390595Y-65483333D01*
X217438214Y-65578571D01*
X217438214Y-66102380D01*
X217914404Y-66102380D02*
X217914404Y-65435714D01*
X217914404Y-65102380D02*
X217866785Y-65150000D01*
X217914404Y-65197619D01*
X217962023Y-65150000D01*
X217914404Y-65102380D01*
X217914404Y-65197619D01*
X218819166Y-66054761D02*
X218723928Y-66102380D01*
X218533452Y-66102380D01*
X218438214Y-66054761D01*
X218390595Y-66007142D01*
X218342976Y-65911904D01*
X218342976Y-65626190D01*
X218390595Y-65530952D01*
X218438214Y-65483333D01*
X218533452Y-65435714D01*
X218723928Y-65435714D01*
X218819166Y-65483333D01*
X219247738Y-66102380D02*
X219247738Y-65102380D01*
X219342976Y-65721428D02*
X219628690Y-66102380D01*
X219628690Y-65435714D02*
X219247738Y-65816666D01*
X221152500Y-65578571D02*
X221295357Y-65626190D01*
X221342976Y-65673809D01*
X221390595Y-65769047D01*
X221390595Y-65911904D01*
X221342976Y-66007142D01*
X221295357Y-66054761D01*
X221200119Y-66102380D01*
X220819166Y-66102380D01*
X220819166Y-65102380D01*
X221152500Y-65102380D01*
X221247738Y-65150000D01*
X221295357Y-65197619D01*
X221342976Y-65292857D01*
X221342976Y-65388095D01*
X221295357Y-65483333D01*
X221247738Y-65530952D01*
X221152500Y-65578571D01*
X220819166Y-65578571D01*
X221962023Y-66102380D02*
X221866785Y-66054761D01*
X221819166Y-66007142D01*
X221771547Y-65911904D01*
X221771547Y-65626190D01*
X221819166Y-65530952D01*
X221866785Y-65483333D01*
X221962023Y-65435714D01*
X222104880Y-65435714D01*
X222200119Y-65483333D01*
X222247738Y-65530952D01*
X222295357Y-65626190D01*
X222295357Y-65911904D01*
X222247738Y-66007142D01*
X222200119Y-66054761D01*
X222104880Y-66102380D01*
X221962023Y-66102380D01*
X223152500Y-66054761D02*
X223057261Y-66102380D01*
X222866785Y-66102380D01*
X222771547Y-66054761D01*
X222723928Y-66007142D01*
X222676309Y-65911904D01*
X222676309Y-65626190D01*
X222723928Y-65530952D01*
X222771547Y-65483333D01*
X222866785Y-65435714D01*
X223057261Y-65435714D01*
X223152500Y-65483333D01*
X223581071Y-66102380D02*
X223581071Y-65102380D01*
X223676309Y-65721428D02*
X223962023Y-66102380D01*
X223962023Y-65435714D02*
X223581071Y-65816666D01*
X195988095Y-65404761D02*
X195892857Y-65452380D01*
X195702380Y-65452380D01*
X195607142Y-65404761D01*
X195559523Y-65357142D01*
X195511904Y-65261904D01*
X195511904Y-64976190D01*
X195559523Y-64880952D01*
X195607142Y-64833333D01*
X195702380Y-64785714D01*
X195892857Y-64785714D01*
X195988095Y-64833333D01*
X196416666Y-65452380D02*
X196416666Y-64452380D01*
X196845238Y-65452380D02*
X196845238Y-64928571D01*
X196797619Y-64833333D01*
X196702380Y-64785714D01*
X196559523Y-64785714D01*
X196464285Y-64833333D01*
X196416666Y-64880952D01*
X197750000Y-65452380D02*
X197750000Y-64928571D01*
X197702380Y-64833333D01*
X197607142Y-64785714D01*
X197416666Y-64785714D01*
X197321428Y-64833333D01*
X197750000Y-65404761D02*
X197654761Y-65452380D01*
X197416666Y-65452380D01*
X197321428Y-65404761D01*
X197273809Y-65309523D01*
X197273809Y-65214285D01*
X197321428Y-65119047D01*
X197416666Y-65071428D01*
X197654761Y-65071428D01*
X197750000Y-65023809D01*
X198226190Y-64785714D02*
X198226190Y-65452380D01*
X198226190Y-64880952D02*
X198273809Y-64833333D01*
X198369047Y-64785714D01*
X198511904Y-64785714D01*
X198607142Y-64833333D01*
X198654761Y-64928571D01*
X198654761Y-65452380D01*
X199130952Y-64785714D02*
X199130952Y-65452380D01*
X199130952Y-64880952D02*
X199178571Y-64833333D01*
X199273809Y-64785714D01*
X199416666Y-64785714D01*
X199511904Y-64833333D01*
X199559523Y-64928571D01*
X199559523Y-65452380D01*
X200416666Y-65404761D02*
X200321428Y-65452380D01*
X200130952Y-65452380D01*
X200035714Y-65404761D01*
X199988095Y-65309523D01*
X199988095Y-64928571D01*
X200035714Y-64833333D01*
X200130952Y-64785714D01*
X200321428Y-64785714D01*
X200416666Y-64833333D01*
X200464285Y-64928571D01*
X200464285Y-65023809D01*
X199988095Y-65119047D01*
X201035714Y-65452380D02*
X200940476Y-65404761D01*
X200892857Y-65309523D01*
X200892857Y-64452380D01*
X178130952Y-65452380D02*
X178130952Y-64785714D01*
X178130952Y-64880952D02*
X178178571Y-64833333D01*
X178273809Y-64785714D01*
X178416666Y-64785714D01*
X178511904Y-64833333D01*
X178559523Y-64928571D01*
X178559523Y-65452380D01*
X178559523Y-64928571D02*
X178607142Y-64833333D01*
X178702380Y-64785714D01*
X178845238Y-64785714D01*
X178940476Y-64833333D01*
X178988095Y-64928571D01*
X178988095Y-65452380D01*
X179607142Y-65452380D02*
X179511904Y-65404761D01*
X179464285Y-65357142D01*
X179416666Y-65261904D01*
X179416666Y-64976190D01*
X179464285Y-64880952D01*
X179511904Y-64833333D01*
X179607142Y-64785714D01*
X179750000Y-64785714D01*
X179845238Y-64833333D01*
X179892857Y-64880952D01*
X179940476Y-64976190D01*
X179940476Y-65261904D01*
X179892857Y-65357142D01*
X179845238Y-65404761D01*
X179750000Y-65452380D01*
X179607142Y-65452380D01*
X180369047Y-64785714D02*
X180369047Y-65452380D01*
X180369047Y-64880952D02*
X180416666Y-64833333D01*
X180511904Y-64785714D01*
X180654761Y-64785714D01*
X180750000Y-64833333D01*
X180797619Y-64928571D01*
X180797619Y-65452380D01*
X181273809Y-65452380D02*
X181273809Y-64785714D01*
X181273809Y-64452380D02*
X181226190Y-64500000D01*
X181273809Y-64547619D01*
X181321428Y-64500000D01*
X181273809Y-64452380D01*
X181273809Y-64547619D01*
X181607142Y-64785714D02*
X181988095Y-64785714D01*
X181750000Y-64452380D02*
X181750000Y-65309523D01*
X181797619Y-65404761D01*
X181892857Y-65452380D01*
X181988095Y-65452380D01*
X182464285Y-65452380D02*
X182369047Y-65404761D01*
X182321428Y-65357142D01*
X182273809Y-65261904D01*
X182273809Y-64976190D01*
X182321428Y-64880952D01*
X182369047Y-64833333D01*
X182464285Y-64785714D01*
X182607142Y-64785714D01*
X182702380Y-64833333D01*
X182750000Y-64880952D01*
X182797619Y-64976190D01*
X182797619Y-65261904D01*
X182750000Y-65357142D01*
X182702380Y-65404761D01*
X182607142Y-65452380D01*
X182464285Y-65452380D01*
X183226190Y-65452380D02*
X183226190Y-64785714D01*
X183226190Y-64976190D02*
X183273809Y-64880952D01*
X183321428Y-64833333D01*
X183416666Y-64785714D01*
X183511904Y-64785714D01*
X162750000Y-65452380D02*
X162750000Y-64928571D01*
X162702380Y-64833333D01*
X162607142Y-64785714D01*
X162416666Y-64785714D01*
X162321428Y-64833333D01*
X162750000Y-65404761D02*
X162654761Y-65452380D01*
X162416666Y-65452380D01*
X162321428Y-65404761D01*
X162273809Y-65309523D01*
X162273809Y-65214285D01*
X162321428Y-65119047D01*
X162416666Y-65071428D01*
X162654761Y-65071428D01*
X162750000Y-65023809D01*
X163083333Y-64785714D02*
X163464285Y-64785714D01*
X163226190Y-65452380D02*
X163226190Y-64595238D01*
X163273809Y-64500000D01*
X163369047Y-64452380D01*
X163464285Y-64452380D01*
X164226190Y-65404761D02*
X164130952Y-65452380D01*
X163940476Y-65452380D01*
X163845238Y-65404761D01*
X163797619Y-65357142D01*
X163750000Y-65261904D01*
X163750000Y-64976190D01*
X163797619Y-64880952D01*
X163845238Y-64833333D01*
X163940476Y-64785714D01*
X164130952Y-64785714D01*
X164226190Y-64833333D01*
X143440476Y-65452380D02*
X143440476Y-64785714D01*
X143440476Y-64880952D02*
X143488095Y-64833333D01*
X143583333Y-64785714D01*
X143726190Y-64785714D01*
X143821428Y-64833333D01*
X143869047Y-64928571D01*
X143869047Y-65452380D01*
X143869047Y-64928571D02*
X143916666Y-64833333D01*
X144011904Y-64785714D01*
X144154761Y-64785714D01*
X144250000Y-64833333D01*
X144297619Y-64928571D01*
X144297619Y-65452380D01*
X145202380Y-64785714D02*
X145202380Y-65452380D01*
X144773809Y-64785714D02*
X144773809Y-65309523D01*
X144821428Y-65404761D01*
X144916666Y-65452380D01*
X145059523Y-65452380D01*
X145154761Y-65404761D01*
X145202380Y-65357142D01*
X145535714Y-64785714D02*
X145916666Y-64785714D01*
X145678571Y-64452380D02*
X145678571Y-65309523D01*
X145726190Y-65404761D01*
X145821428Y-65452380D01*
X145916666Y-65452380D01*
X146250000Y-65452380D02*
X146250000Y-64785714D01*
X146250000Y-64452380D02*
X146202380Y-64500000D01*
X146250000Y-64547619D01*
X146297619Y-64500000D01*
X146250000Y-64452380D01*
X146250000Y-64547619D01*
X146726190Y-64785714D02*
X146726190Y-65452380D01*
X146726190Y-64880952D02*
X146773809Y-64833333D01*
X146869047Y-64785714D01*
X147011904Y-64785714D01*
X147107142Y-64833333D01*
X147154761Y-64928571D01*
X147154761Y-65452380D01*
X148059523Y-64785714D02*
X148059523Y-65595238D01*
X148011904Y-65690476D01*
X147964285Y-65738095D01*
X147869047Y-65785714D01*
X147726190Y-65785714D01*
X147630952Y-65738095D01*
X148059523Y-65404761D02*
X147964285Y-65452380D01*
X147773809Y-65452380D01*
X147678571Y-65404761D01*
X147630952Y-65357142D01*
X147583333Y-65261904D01*
X147583333Y-64976190D01*
X147630952Y-64880952D01*
X147678571Y-64833333D01*
X147773809Y-64785714D01*
X147964285Y-64785714D01*
X148059523Y-64833333D01*
X126464285Y-65452380D02*
X126464285Y-64785714D01*
X126464285Y-64880952D02*
X126511904Y-64833333D01*
X126607142Y-64785714D01*
X126750000Y-64785714D01*
X126845238Y-64833333D01*
X126892857Y-64928571D01*
X126892857Y-65452380D01*
X126892857Y-64928571D02*
X126940476Y-64833333D01*
X127035714Y-64785714D01*
X127178571Y-64785714D01*
X127273809Y-64833333D01*
X127321428Y-64928571D01*
X127321428Y-65452380D01*
X127940476Y-65452380D02*
X127845238Y-65404761D01*
X127797619Y-65357142D01*
X127750000Y-65261904D01*
X127750000Y-64976190D01*
X127797619Y-64880952D01*
X127845238Y-64833333D01*
X127940476Y-64785714D01*
X128083333Y-64785714D01*
X128178571Y-64833333D01*
X128226190Y-64880952D01*
X128273809Y-64976190D01*
X128273809Y-65261904D01*
X128226190Y-65357142D01*
X128178571Y-65404761D01*
X128083333Y-65452380D01*
X127940476Y-65452380D01*
X128702380Y-64785714D02*
X128702380Y-65452380D01*
X128702380Y-64880952D02*
X128750000Y-64833333D01*
X128845238Y-64785714D01*
X128988095Y-64785714D01*
X129083333Y-64833333D01*
X129130952Y-64928571D01*
X129130952Y-65452380D01*
X129750000Y-65452380D02*
X129654761Y-65404761D01*
X129607142Y-65357142D01*
X129559523Y-65261904D01*
X129559523Y-64976190D01*
X129607142Y-64880952D01*
X129654761Y-64833333D01*
X129750000Y-64785714D01*
X129892857Y-64785714D01*
X129988095Y-64833333D01*
X130035714Y-64880952D01*
X130083333Y-64976190D01*
X130083333Y-65261904D01*
X130035714Y-65357142D01*
X129988095Y-65404761D01*
X129892857Y-65452380D01*
X129750000Y-65452380D01*
X109011904Y-64785714D02*
X109011904Y-65452380D01*
X109011904Y-64880952D02*
X109059523Y-64833333D01*
X109154761Y-64785714D01*
X109297619Y-64785714D01*
X109392857Y-64833333D01*
X109440476Y-64928571D01*
X109440476Y-65452380D01*
X110059523Y-65452380D02*
X109964285Y-65404761D01*
X109916666Y-65357142D01*
X109869047Y-65261904D01*
X109869047Y-64976190D01*
X109916666Y-64880952D01*
X109964285Y-64833333D01*
X110059523Y-64785714D01*
X110202380Y-64785714D01*
X110297619Y-64833333D01*
X110345238Y-64880952D01*
X110392857Y-64976190D01*
X110392857Y-65261904D01*
X110345238Y-65357142D01*
X110297619Y-65404761D01*
X110202380Y-65452380D01*
X110059523Y-65452380D01*
X110821428Y-65452380D02*
X110821428Y-64785714D01*
X110821428Y-64452380D02*
X110773809Y-64500000D01*
X110821428Y-64547619D01*
X110869047Y-64500000D01*
X110821428Y-64452380D01*
X110821428Y-64547619D01*
X111250000Y-65404761D02*
X111345238Y-65452380D01*
X111535714Y-65452380D01*
X111630952Y-65404761D01*
X111678571Y-65309523D01*
X111678571Y-65261904D01*
X111630952Y-65166666D01*
X111535714Y-65119047D01*
X111392857Y-65119047D01*
X111297619Y-65071428D01*
X111250000Y-64976190D01*
X111250000Y-64928571D01*
X111297619Y-64833333D01*
X111392857Y-64785714D01*
X111535714Y-64785714D01*
X111630952Y-64833333D01*
X112488095Y-65404761D02*
X112392857Y-65452380D01*
X112202380Y-65452380D01*
X112107142Y-65404761D01*
X112059523Y-65309523D01*
X112059523Y-64928571D01*
X112107142Y-64833333D01*
X112202380Y-64785714D01*
X112392857Y-64785714D01*
X112488095Y-64833333D01*
X112535714Y-64928571D01*
X112535714Y-65023809D01*
X112059523Y-65119047D01*
X90916666Y-65452380D02*
X90916666Y-64785714D01*
X90916666Y-64976190D02*
X90964285Y-64880952D01*
X91011904Y-64833333D01*
X91107142Y-64785714D01*
X91202380Y-64785714D01*
X91964285Y-64785714D02*
X91964285Y-65452380D01*
X91535714Y-64785714D02*
X91535714Y-65309523D01*
X91583333Y-65404761D01*
X91678571Y-65452380D01*
X91821428Y-65452380D01*
X91916666Y-65404761D01*
X91964285Y-65357142D01*
X92440476Y-65452380D02*
X92440476Y-64785714D01*
X92440476Y-64880952D02*
X92488095Y-64833333D01*
X92583333Y-64785714D01*
X92726190Y-64785714D01*
X92821428Y-64833333D01*
X92869047Y-64928571D01*
X92869047Y-65452380D01*
X92869047Y-64928571D02*
X92916666Y-64833333D01*
X93011904Y-64785714D01*
X93154761Y-64785714D01*
X93250000Y-64833333D01*
X93297619Y-64928571D01*
X93297619Y-65452380D01*
X93773809Y-65452380D02*
X93773809Y-64452380D01*
X93773809Y-64833333D02*
X93869047Y-64785714D01*
X94059523Y-64785714D01*
X94154761Y-64833333D01*
X94202380Y-64880952D01*
X94250000Y-64976190D01*
X94250000Y-65261904D01*
X94202380Y-65357142D01*
X94154761Y-65404761D01*
X94059523Y-65452380D01*
X93869047Y-65452380D01*
X93773809Y-65404761D01*
X94821428Y-65452380D02*
X94726190Y-65404761D01*
X94678571Y-65309523D01*
X94678571Y-64452380D01*
X95583333Y-65404761D02*
X95488095Y-65452380D01*
X95297619Y-65452380D01*
X95202380Y-65404761D01*
X95154761Y-65309523D01*
X95154761Y-64928571D01*
X95202380Y-64833333D01*
X95297619Y-64785714D01*
X95488095Y-64785714D01*
X95583333Y-64833333D01*
X95630952Y-64928571D01*
X95630952Y-65023809D01*
X95154761Y-65119047D01*
X72654761Y-64785714D02*
X72654761Y-65785714D01*
X72654761Y-64833333D02*
X72750000Y-64785714D01*
X72940476Y-64785714D01*
X73035714Y-64833333D01*
X73083333Y-64880952D01*
X73130952Y-64976190D01*
X73130952Y-65261904D01*
X73083333Y-65357142D01*
X73035714Y-65404761D01*
X72940476Y-65452380D01*
X72750000Y-65452380D01*
X72654761Y-65404761D01*
X73559523Y-65452380D02*
X73559523Y-64785714D01*
X73559523Y-64976190D02*
X73607142Y-64880952D01*
X73654761Y-64833333D01*
X73750000Y-64785714D01*
X73845238Y-64785714D01*
X74559523Y-65404761D02*
X74464285Y-65452380D01*
X74273809Y-65452380D01*
X74178571Y-65404761D01*
X74130952Y-65309523D01*
X74130952Y-64928571D01*
X74178571Y-64833333D01*
X74273809Y-64785714D01*
X74464285Y-64785714D01*
X74559523Y-64833333D01*
X74607142Y-64928571D01*
X74607142Y-65023809D01*
X74130952Y-65119047D01*
X74988095Y-65404761D02*
X75083333Y-65452380D01*
X75273809Y-65452380D01*
X75369047Y-65404761D01*
X75416666Y-65309523D01*
X75416666Y-65261904D01*
X75369047Y-65166666D01*
X75273809Y-65119047D01*
X75130952Y-65119047D01*
X75035714Y-65071428D01*
X74988095Y-64976190D01*
X74988095Y-64928571D01*
X75035714Y-64833333D01*
X75130952Y-64785714D01*
X75273809Y-64785714D01*
X75369047Y-64833333D01*
X76226190Y-65404761D02*
X76130952Y-65452380D01*
X75940476Y-65452380D01*
X75845238Y-65404761D01*
X75797619Y-65309523D01*
X75797619Y-64928571D01*
X75845238Y-64833333D01*
X75940476Y-64785714D01*
X76130952Y-64785714D01*
X76226190Y-64833333D01*
X76273809Y-64928571D01*
X76273809Y-65023809D01*
X75797619Y-65119047D01*
X76702380Y-64785714D02*
X76702380Y-65452380D01*
X76702380Y-64880952D02*
X76750000Y-64833333D01*
X76845238Y-64785714D01*
X76988095Y-64785714D01*
X77083333Y-64833333D01*
X77130952Y-64928571D01*
X77130952Y-65452380D01*
X78035714Y-65404761D02*
X77940476Y-65452380D01*
X77750000Y-65452380D01*
X77654761Y-65404761D01*
X77607142Y-65357142D01*
X77559523Y-65261904D01*
X77559523Y-64976190D01*
X77607142Y-64880952D01*
X77654761Y-64833333D01*
X77750000Y-64785714D01*
X77940476Y-64785714D01*
X78035714Y-64833333D01*
X78845238Y-65404761D02*
X78750000Y-65452380D01*
X78559523Y-65452380D01*
X78464285Y-65404761D01*
X78416666Y-65309523D01*
X78416666Y-64928571D01*
X78464285Y-64833333D01*
X78559523Y-64785714D01*
X78750000Y-64785714D01*
X78845238Y-64833333D01*
X78892857Y-64928571D01*
X78892857Y-65023809D01*
X78416666Y-65119047D01*
X55321428Y-65452380D02*
X55226190Y-65404761D01*
X55178571Y-65309523D01*
X55178571Y-64452380D01*
X55845238Y-65452380D02*
X55750000Y-65404761D01*
X55702380Y-65357142D01*
X55654761Y-65261904D01*
X55654761Y-64976190D01*
X55702380Y-64880952D01*
X55750000Y-64833333D01*
X55845238Y-64785714D01*
X55988095Y-64785714D01*
X56083333Y-64833333D01*
X56130952Y-64880952D01*
X56178571Y-64976190D01*
X56178571Y-65261904D01*
X56130952Y-65357142D01*
X56083333Y-65404761D01*
X55988095Y-65452380D01*
X55845238Y-65452380D01*
X57035714Y-64785714D02*
X57035714Y-65452380D01*
X56607142Y-64785714D02*
X56607142Y-65309523D01*
X56654761Y-65404761D01*
X56750000Y-65452380D01*
X56892857Y-65452380D01*
X56988095Y-65404761D01*
X57035714Y-65357142D01*
X57940476Y-65452380D02*
X57940476Y-64452380D01*
X57940476Y-65404761D02*
X57845238Y-65452380D01*
X57654761Y-65452380D01*
X57559523Y-65404761D01*
X57511904Y-65357142D01*
X57464285Y-65261904D01*
X57464285Y-64976190D01*
X57511904Y-64880952D01*
X57559523Y-64833333D01*
X57654761Y-64785714D01*
X57845238Y-64785714D01*
X57940476Y-64833333D01*
X58416666Y-64785714D02*
X58416666Y-65452380D01*
X58416666Y-64880952D02*
X58464285Y-64833333D01*
X58559523Y-64785714D01*
X58702380Y-64785714D01*
X58797619Y-64833333D01*
X58845238Y-64928571D01*
X58845238Y-65452380D01*
X59702380Y-65404761D02*
X59607142Y-65452380D01*
X59416666Y-65452380D01*
X59321428Y-65404761D01*
X59273809Y-65309523D01*
X59273809Y-64928571D01*
X59321428Y-64833333D01*
X59416666Y-64785714D01*
X59607142Y-64785714D01*
X59702380Y-64833333D01*
X59750000Y-64928571D01*
X59750000Y-65023809D01*
X59273809Y-65119047D01*
X60130952Y-65404761D02*
X60226190Y-65452380D01*
X60416666Y-65452380D01*
X60511904Y-65404761D01*
X60559523Y-65309523D01*
X60559523Y-65261904D01*
X60511904Y-65166666D01*
X60416666Y-65119047D01*
X60273809Y-65119047D01*
X60178571Y-65071428D01*
X60130952Y-64976190D01*
X60130952Y-64928571D01*
X60178571Y-64833333D01*
X60273809Y-64785714D01*
X60416666Y-64785714D01*
X60511904Y-64833333D01*
X60940476Y-65404761D02*
X61035714Y-65452380D01*
X61226190Y-65452380D01*
X61321428Y-65404761D01*
X61369047Y-65309523D01*
X61369047Y-65261904D01*
X61321428Y-65166666D01*
X61226190Y-65119047D01*
X61083333Y-65119047D01*
X60988095Y-65071428D01*
X60940476Y-64976190D01*
X60940476Y-64928571D01*
X60988095Y-64833333D01*
X61083333Y-64785714D01*
X61226190Y-64785714D01*
X61321428Y-64833333D01*
D11*
X37200000Y-36592857D02*
X37319047Y-36711904D01*
X37200000Y-36830952D01*
X37080952Y-36711904D01*
X37200000Y-36592857D01*
X37200000Y-36830952D01*
D10*
X38793809Y-35952380D02*
X38793809Y-34952380D01*
X39841428Y-35857142D02*
X39793809Y-35904761D01*
X39650952Y-35952380D01*
X39555714Y-35952380D01*
X39412857Y-35904761D01*
X39317619Y-35809523D01*
X39270000Y-35714285D01*
X39222380Y-35523809D01*
X39222380Y-35380952D01*
X39270000Y-35190476D01*
X39317619Y-35095238D01*
X39412857Y-35000000D01*
X39555714Y-34952380D01*
X39650952Y-34952380D01*
X39793809Y-35000000D01*
X39841428Y-35047619D01*
X40222380Y-35904761D02*
X40365238Y-35952380D01*
X40603333Y-35952380D01*
X40698571Y-35904761D01*
X40746190Y-35857142D01*
X40793809Y-35761904D01*
X40793809Y-35666666D01*
X40746190Y-35571428D01*
X40698571Y-35523809D01*
X40603333Y-35476190D01*
X40412857Y-35428571D01*
X40317619Y-35380952D01*
X40270000Y-35333333D01*
X40222380Y-35238095D01*
X40222380Y-35142857D01*
X40270000Y-35047619D01*
X40317619Y-35000000D01*
X40412857Y-34952380D01*
X40650952Y-34952380D01*
X40793809Y-35000000D01*
X41222380Y-35952380D02*
X41222380Y-34952380D01*
X41603333Y-34952380D01*
X41698571Y-35000000D01*
X41746190Y-35047619D01*
X41793809Y-35142857D01*
X41793809Y-35285714D01*
X41746190Y-35380952D01*
X41698571Y-35428571D01*
X41603333Y-35476190D01*
X41222380Y-35476190D01*
X148476190Y-39952380D02*
X148476190Y-38952380D01*
X148476190Y-39333333D02*
X148571428Y-39285714D01*
X148761904Y-39285714D01*
X148857142Y-39333333D01*
X148904761Y-39380952D01*
X148952380Y-39476190D01*
X148952380Y-39761904D01*
X148904761Y-39857142D01*
X148857142Y-39904761D01*
X148761904Y-39952380D01*
X148571428Y-39952380D01*
X148476190Y-39904761D01*
X149380952Y-39952380D02*
X149380952Y-39285714D01*
X149380952Y-39476190D02*
X149428571Y-39380952D01*
X149476190Y-39333333D01*
X149571428Y-39285714D01*
X149666666Y-39285714D01*
X127894285Y-39285714D02*
X128084761Y-39952380D01*
X128275238Y-39476190D01*
X128465714Y-39952380D01*
X128656190Y-39285714D01*
X128989523Y-39904761D02*
X129084761Y-39952380D01*
X129275238Y-39952380D01*
X129370476Y-39904761D01*
X129418095Y-39809523D01*
X129418095Y-39761904D01*
X129370476Y-39666666D01*
X129275238Y-39619047D01*
X129132380Y-39619047D01*
X129037142Y-39571428D01*
X128989523Y-39476190D01*
X128989523Y-39428571D01*
X129037142Y-39333333D01*
X129132380Y-39285714D01*
X129275238Y-39285714D01*
X129370476Y-39333333D01*
X121476190Y-39952380D02*
X121476190Y-38952380D01*
X121476190Y-39333333D02*
X121571428Y-39285714D01*
X121761904Y-39285714D01*
X121857142Y-39333333D01*
X121904761Y-39380952D01*
X121952380Y-39476190D01*
X121952380Y-39761904D01*
X121904761Y-39857142D01*
X121857142Y-39904761D01*
X121761904Y-39952380D01*
X121571428Y-39952380D01*
X121476190Y-39904761D01*
X122380952Y-39952380D02*
X122380952Y-39285714D01*
X122380952Y-39476190D02*
X122428571Y-39380952D01*
X122476190Y-39333333D01*
X122571428Y-39285714D01*
X122666666Y-39285714D01*
X111601904Y-39285714D02*
X111601904Y-40095238D01*
X111554285Y-40190476D01*
X111506666Y-40238095D01*
X111411428Y-40285714D01*
X111268571Y-40285714D01*
X111173333Y-40238095D01*
X111601904Y-39904761D02*
X111506666Y-39952380D01*
X111316190Y-39952380D01*
X111220952Y-39904761D01*
X111173333Y-39857142D01*
X111125714Y-39761904D01*
X111125714Y-39476190D01*
X111173333Y-39380952D01*
X111220952Y-39333333D01*
X111316190Y-39285714D01*
X111506666Y-39285714D01*
X111601904Y-39333333D01*
X112078095Y-39285714D02*
X112078095Y-39952380D01*
X112078095Y-39380952D02*
X112125714Y-39333333D01*
X112220952Y-39285714D01*
X112363809Y-39285714D01*
X112459047Y-39333333D01*
X112506666Y-39428571D01*
X112506666Y-39952380D01*
X104636190Y-39952380D02*
X104636190Y-38952380D01*
X104636190Y-39333333D02*
X104731428Y-39285714D01*
X104921904Y-39285714D01*
X105017142Y-39333333D01*
X105064761Y-39380952D01*
X105112380Y-39476190D01*
X105112380Y-39761904D01*
X105064761Y-39857142D01*
X105017142Y-39904761D01*
X104921904Y-39952380D01*
X104731428Y-39952380D01*
X104636190Y-39904761D01*
X105540952Y-39952380D02*
X105540952Y-39285714D01*
X105540952Y-39476190D02*
X105588571Y-39380952D01*
X105636190Y-39333333D01*
X105731428Y-39285714D01*
X105826666Y-39285714D01*
X94761904Y-39285714D02*
X94761904Y-40095238D01*
X94714285Y-40190476D01*
X94666666Y-40238095D01*
X94571428Y-40285714D01*
X94428571Y-40285714D01*
X94333333Y-40238095D01*
X94761904Y-39904761D02*
X94666666Y-39952380D01*
X94476190Y-39952380D01*
X94380952Y-39904761D01*
X94333333Y-39857142D01*
X94285714Y-39761904D01*
X94285714Y-39476190D01*
X94333333Y-39380952D01*
X94380952Y-39333333D01*
X94476190Y-39285714D01*
X94666666Y-39285714D01*
X94761904Y-39333333D01*
X95238095Y-39285714D02*
X95238095Y-39952380D01*
X95238095Y-39380952D02*
X95285714Y-39333333D01*
X95380952Y-39285714D01*
X95523809Y-39285714D01*
X95619047Y-39333333D01*
X95666666Y-39428571D01*
X95666666Y-39952380D01*
X26261904Y-45904761D02*
X26357142Y-45952380D01*
X26547619Y-45952380D01*
X26642857Y-45904761D01*
X26690476Y-45809523D01*
X26690476Y-45761904D01*
X26642857Y-45666666D01*
X26547619Y-45619047D01*
X26404761Y-45619047D01*
X26309523Y-45571428D01*
X26261904Y-45476190D01*
X26261904Y-45428571D01*
X26309523Y-45333333D01*
X26404761Y-45285714D01*
X26547619Y-45285714D01*
X26642857Y-45333333D01*
X27023809Y-45285714D02*
X27214285Y-45952380D01*
X27404761Y-45476190D01*
X27595238Y-45952380D01*
X27785714Y-45285714D01*
X32785714Y-37785714D02*
X32785714Y-38595238D01*
X32738095Y-38690476D01*
X32690476Y-38738095D01*
X32595238Y-38785714D01*
X32452380Y-38785714D01*
X32357142Y-38738095D01*
X32785714Y-38404761D02*
X32690476Y-38452380D01*
X32500000Y-38452380D01*
X32404761Y-38404761D01*
X32357142Y-38357142D01*
X32309523Y-38261904D01*
X32309523Y-37976190D01*
X32357142Y-37880952D01*
X32404761Y-37833333D01*
X32500000Y-37785714D01*
X32690476Y-37785714D01*
X32785714Y-37833333D01*
X33642857Y-38404761D02*
X33547619Y-38452380D01*
X33357142Y-38452380D01*
X33261904Y-38404761D01*
X33214285Y-38309523D01*
X33214285Y-37928571D01*
X33261904Y-37833333D01*
X33357142Y-37785714D01*
X33547619Y-37785714D01*
X33642857Y-37833333D01*
X33690476Y-37928571D01*
X33690476Y-38023809D01*
X33214285Y-38119047D01*
X28761904Y-32285714D02*
X28761904Y-33095238D01*
X28714285Y-33190476D01*
X28666666Y-33238095D01*
X28571428Y-33285714D01*
X28428571Y-33285714D01*
X28333333Y-33238095D01*
X28761904Y-32904761D02*
X28666666Y-32952380D01*
X28476190Y-32952380D01*
X28380952Y-32904761D01*
X28333333Y-32857142D01*
X28285714Y-32761904D01*
X28285714Y-32476190D01*
X28333333Y-32380952D01*
X28380952Y-32333333D01*
X28476190Y-32285714D01*
X28666666Y-32285714D01*
X28761904Y-32333333D01*
X29238095Y-32285714D02*
X29238095Y-32952380D01*
X29238095Y-32380952D02*
X29285714Y-32333333D01*
X29380952Y-32285714D01*
X29523809Y-32285714D01*
X29619047Y-32333333D01*
X29666666Y-32428571D01*
X29666666Y-32952380D01*
X220761904Y-50404761D02*
X220857142Y-50452380D01*
X221047619Y-50452380D01*
X221142857Y-50404761D01*
X221190476Y-50309523D01*
X221190476Y-50261904D01*
X221142857Y-50166666D01*
X221047619Y-50119047D01*
X220904761Y-50119047D01*
X220809523Y-50071428D01*
X220761904Y-49976190D01*
X220761904Y-49928571D01*
X220809523Y-49833333D01*
X220904761Y-49785714D01*
X221047619Y-49785714D01*
X221142857Y-49833333D01*
X221523809Y-49785714D02*
X221714285Y-50452380D01*
X221904761Y-49976190D01*
X222095238Y-50452380D01*
X222285714Y-49785714D01*
X221142857Y-42952380D02*
X221142857Y-42285714D01*
X221142857Y-42476190D02*
X221190476Y-42380952D01*
X221238095Y-42333333D01*
X221333333Y-42285714D01*
X221428571Y-42285714D01*
X221619047Y-42285714D02*
X222000000Y-42285714D01*
X221761904Y-41952380D02*
X221761904Y-42809523D01*
X221809523Y-42904761D01*
X221904761Y-42952380D01*
X222000000Y-42952380D01*
X216976190Y-37452380D02*
X216976190Y-36452380D01*
X216976190Y-36833333D02*
X217071428Y-36785714D01*
X217261904Y-36785714D01*
X217357142Y-36833333D01*
X217404761Y-36880952D01*
X217452380Y-36976190D01*
X217452380Y-37261904D01*
X217404761Y-37357142D01*
X217357142Y-37404761D01*
X217261904Y-37452380D01*
X217071428Y-37452380D01*
X216976190Y-37404761D01*
X217880952Y-37452380D02*
X217880952Y-36785714D01*
X217880952Y-36976190D02*
X217928571Y-36880952D01*
X217976190Y-36833333D01*
X218071428Y-36785714D01*
X218166666Y-36785714D01*
D12*
X207880000Y-56400000D02*
X207880000Y-57600000D01*
X206120000Y-57600000D02*
X206120000Y-56400000D01*
X207760000Y-54580000D02*
X206300000Y-54580000D01*
X207760000Y-51420000D02*
X205600000Y-51420000D01*
X207760000Y-51420000D02*
X207760000Y-52350000D01*
X207760000Y-54580000D02*
X207760000Y-53650000D01*
X190380000Y-56400000D02*
X190380000Y-57600000D01*
X188620000Y-57600000D02*
X188620000Y-56400000D01*
X172880000Y-56400000D02*
X172880000Y-57600000D01*
X171120000Y-57600000D02*
X171120000Y-56400000D01*
X155380000Y-56400000D02*
X155380000Y-57600000D01*
X153620000Y-57600000D02*
X153620000Y-56400000D01*
X137880000Y-56400000D02*
X137880000Y-57600000D01*
X136120000Y-57600000D02*
X136120000Y-56400000D01*
X120380000Y-56400000D02*
X120380000Y-57600000D01*
X118620000Y-57600000D02*
X118620000Y-56400000D01*
X102880000Y-56400000D02*
X102880000Y-57600000D01*
X101120000Y-57600000D02*
X101120000Y-56400000D01*
X85380000Y-56400000D02*
X85380000Y-57600000D01*
X83620000Y-57600000D02*
X83620000Y-56400000D01*
X67880000Y-56400000D02*
X67880000Y-57600000D01*
X66120000Y-57600000D02*
X66120000Y-56400000D01*
X190260000Y-54580000D02*
X188800000Y-54580000D01*
X190260000Y-51420000D02*
X188100000Y-51420000D01*
X190260000Y-51420000D02*
X190260000Y-52350000D01*
X190260000Y-54580000D02*
X190260000Y-53650000D01*
X172760000Y-54580000D02*
X171300000Y-54580000D01*
X172760000Y-51420000D02*
X170600000Y-51420000D01*
X172760000Y-51420000D02*
X172760000Y-52350000D01*
X172760000Y-54580000D02*
X172760000Y-53650000D01*
X155260000Y-54580000D02*
X153800000Y-54580000D01*
X155260000Y-51420000D02*
X153100000Y-51420000D01*
X155260000Y-51420000D02*
X155260000Y-52350000D01*
X155260000Y-54580000D02*
X155260000Y-53650000D01*
X137760000Y-54580000D02*
X136300000Y-54580000D01*
X137760000Y-51420000D02*
X135600000Y-51420000D01*
X137760000Y-51420000D02*
X137760000Y-52350000D01*
X137760000Y-54580000D02*
X137760000Y-53650000D01*
X120260000Y-54580000D02*
X118800000Y-54580000D01*
X120260000Y-51420000D02*
X118100000Y-51420000D01*
X120260000Y-51420000D02*
X120260000Y-52350000D01*
X120260000Y-54580000D02*
X120260000Y-53650000D01*
X102760000Y-54580000D02*
X101300000Y-54580000D01*
X102760000Y-51420000D02*
X100600000Y-51420000D01*
X102760000Y-51420000D02*
X102760000Y-52350000D01*
X102760000Y-54580000D02*
X102760000Y-53650000D01*
X85260000Y-54580000D02*
X83800000Y-54580000D01*
X85260000Y-51420000D02*
X83100000Y-51420000D01*
X85260000Y-51420000D02*
X85260000Y-52350000D01*
X85260000Y-54580000D02*
X85260000Y-53650000D01*
X67760000Y-54580000D02*
X66300000Y-54580000D01*
X67760000Y-51420000D02*
X65600000Y-51420000D01*
X67760000Y-51420000D02*
X67760000Y-52350000D01*
X67760000Y-54580000D02*
X67760000Y-53650000D01*
X207650000Y-47880000D02*
X206450000Y-47880000D01*
X206450000Y-46120000D02*
X207650000Y-46120000D01*
D10*
X64250000Y-63000000D02*
X52250000Y-63000000D01*
X52250000Y-63000000D02*
X52250000Y-51000000D01*
X52250000Y-51000000D02*
X64250000Y-51000000D01*
X64250000Y-51000000D02*
X64250000Y-63000000D01*
X204250000Y-63000000D02*
X192250000Y-63000000D01*
X192250000Y-63000000D02*
X192250000Y-51000000D01*
X192250000Y-51000000D02*
X204250000Y-51000000D01*
X204250000Y-51000000D02*
X204250000Y-63000000D01*
X99250000Y-63000000D02*
X87250000Y-63000000D01*
X87250000Y-63000000D02*
X87250000Y-51000000D01*
X87250000Y-51000000D02*
X99250000Y-51000000D01*
X99250000Y-51000000D02*
X99250000Y-63000000D01*
X116750000Y-63000000D02*
X104750000Y-63000000D01*
X104750000Y-63000000D02*
X104750000Y-51000000D01*
X104750000Y-51000000D02*
X116750000Y-51000000D01*
X116750000Y-51000000D02*
X116750000Y-63000000D01*
X151750000Y-63000000D02*
X139750000Y-63000000D01*
X139750000Y-63000000D02*
X139750000Y-51000000D01*
X139750000Y-51000000D02*
X151750000Y-51000000D01*
X151750000Y-51000000D02*
X151750000Y-63000000D01*
X169250000Y-63000000D02*
X157250000Y-63000000D01*
X157250000Y-63000000D02*
X157250000Y-51000000D01*
X157250000Y-51000000D02*
X169250000Y-51000000D01*
X169250000Y-51000000D02*
X169250000Y-63000000D01*
X134250000Y-63000000D02*
X122250000Y-63000000D01*
X122250000Y-63000000D02*
X122250000Y-51000000D01*
X122250000Y-51000000D02*
X134250000Y-51000000D01*
X134250000Y-51000000D02*
X134250000Y-63000000D01*
X186750000Y-63000000D02*
X174750000Y-63000000D01*
X174750000Y-63000000D02*
X174750000Y-51000000D01*
X174750000Y-51000000D02*
X186750000Y-51000000D01*
X186750000Y-51000000D02*
X186750000Y-63000000D01*
X81750000Y-63000000D02*
X69750000Y-63000000D01*
X69750000Y-63000000D02*
X69750000Y-51000000D01*
X69750000Y-51000000D02*
X81750000Y-51000000D01*
X81750000Y-51000000D02*
X81750000Y-63000000D01*
D12*
X74210000Y-45764000D02*
X74210000Y-45920000D01*
X74210000Y-48080000D02*
X74210000Y-48236000D01*
X77442335Y-45921392D02*
G75*
G03*
X74210000Y-45764484I-1672335J-1078608D01*
G01*
X77442335Y-48078608D02*
G75*
G02*
X74210000Y-48235516I-1672335J1078608D01*
G01*
X76811130Y-45920163D02*
G75*
G03*
X74729039Y-45920000I-1041130J-1079837D01*
G01*
X76811130Y-48079837D02*
G75*
G02*
X74729039Y-48080000I-1041130J1079837D01*
G01*
X26800000Y-56780000D02*
X25600000Y-56780000D01*
X25600000Y-56780000D02*
X25600000Y-54080000D01*
X30400000Y-52780000D02*
X30400000Y-56780000D01*
X30400000Y-56780000D02*
X29200000Y-56780000D01*
D10*
X47125000Y-59625000D02*
X47125000Y-59400000D01*
X39875000Y-59625000D02*
X39875000Y-59300000D01*
X39875000Y-52375000D02*
X39875000Y-52700000D01*
X47125000Y-52375000D02*
X47125000Y-52700000D01*
X47125000Y-59625000D02*
X46800000Y-59625000D01*
X47125000Y-52375000D02*
X46800000Y-52375000D01*
X39875000Y-52375000D02*
X40200000Y-52375000D01*
X39875000Y-59625000D02*
X40200000Y-59625000D01*
X47125000Y-59400000D02*
X48550000Y-59400000D01*
D12*
X38650000Y-47380000D02*
X37450000Y-47380000D01*
X37450000Y-45620000D02*
X38650000Y-45620000D01*
X37670000Y-44910000D02*
X42870000Y-44910000D01*
X37670000Y-39770000D02*
X37670000Y-44910000D01*
X42870000Y-37170000D02*
X42870000Y-44910000D01*
X37670000Y-39770000D02*
X40270000Y-39770000D01*
X40270000Y-39770000D02*
X40270000Y-37170000D01*
X40270000Y-37170000D02*
X42870000Y-37170000D01*
X37670000Y-38500000D02*
X37670000Y-37170000D01*
X37670000Y-37170000D02*
X39000000Y-37170000D01*
X34850000Y-55000000D02*
X34850000Y-54000000D01*
X33150000Y-54000000D02*
X33150000Y-55000000D01*
X28000000Y-50150000D02*
X27000000Y-50150000D01*
X27000000Y-51850000D02*
X28000000Y-51850000D01*
X32850000Y-55000000D02*
X32850000Y-54000000D01*
X31150000Y-54000000D02*
X31150000Y-55000000D01*
X50800000Y-56500000D02*
X50800000Y-55500000D01*
X49100000Y-55500000D02*
X49100000Y-56500000D01*
X35650000Y-52000000D02*
X35650000Y-53000000D01*
X37350000Y-53000000D02*
X37350000Y-52000000D01*
X37350000Y-57600000D02*
X37350000Y-56600000D01*
X35650000Y-56600000D02*
X35650000Y-57600000D01*
X196710000Y-45764000D02*
X196710000Y-45920000D01*
X196710000Y-48080000D02*
X196710000Y-48236000D01*
X199942335Y-45921392D02*
G75*
G03*
X196710000Y-45764484I-1672335J-1078608D01*
G01*
X199942335Y-48078608D02*
G75*
G02*
X196710000Y-48235516I-1672335J1078608D01*
G01*
X199311130Y-45920163D02*
G75*
G03*
X197229039Y-45920000I-1041130J-1079837D01*
G01*
X199311130Y-48079837D02*
G75*
G02*
X197229039Y-48080000I-1041130J1079837D01*
G01*
X161710000Y-45764000D02*
X161710000Y-45920000D01*
X161710000Y-48080000D02*
X161710000Y-48236000D01*
X164942335Y-45921392D02*
G75*
G03*
X161710000Y-45764484I-1672335J-1078608D01*
G01*
X164942335Y-48078608D02*
G75*
G02*
X161710000Y-48235516I-1672335J1078608D01*
G01*
X164311130Y-45920163D02*
G75*
G03*
X162229039Y-45920000I-1041130J-1079837D01*
G01*
X164311130Y-48079837D02*
G75*
G02*
X162229039Y-48080000I-1041130J1079837D01*
G01*
X144210000Y-45764000D02*
X144210000Y-45920000D01*
X144210000Y-48080000D02*
X144210000Y-48236000D01*
X147442335Y-45921392D02*
G75*
G03*
X144210000Y-45764484I-1672335J-1078608D01*
G01*
X147442335Y-48078608D02*
G75*
G02*
X144210000Y-48235516I-1672335J1078608D01*
G01*
X146811130Y-45920163D02*
G75*
G03*
X144729039Y-45920000I-1041130J-1079837D01*
G01*
X146811130Y-48079837D02*
G75*
G02*
X144729039Y-48080000I-1041130J1079837D01*
G01*
X109210000Y-45764000D02*
X109210000Y-45920000D01*
X109210000Y-48080000D02*
X109210000Y-48236000D01*
X112442335Y-45921392D02*
G75*
G03*
X109210000Y-45764484I-1672335J-1078608D01*
G01*
X112442335Y-48078608D02*
G75*
G02*
X109210000Y-48235516I-1672335J1078608D01*
G01*
X111811130Y-45920163D02*
G75*
G03*
X109729039Y-45920000I-1041130J-1079837D01*
G01*
X111811130Y-48079837D02*
G75*
G02*
X109729039Y-48080000I-1041130J1079837D01*
G01*
X179210000Y-45764000D02*
X179210000Y-45920000D01*
X179210000Y-48080000D02*
X179210000Y-48236000D01*
X182442335Y-45921392D02*
G75*
G03*
X179210000Y-45764484I-1672335J-1078608D01*
G01*
X182442335Y-48078608D02*
G75*
G02*
X179210000Y-48235516I-1672335J1078608D01*
G01*
X181811130Y-45920163D02*
G75*
G03*
X179729039Y-45920000I-1041130J-1079837D01*
G01*
X181811130Y-48079837D02*
G75*
G02*
X179729039Y-48080000I-1041130J1079837D01*
G01*
X126710000Y-45764000D02*
X126710000Y-45920000D01*
X126710000Y-48080000D02*
X126710000Y-48236000D01*
X129942335Y-45921392D02*
G75*
G03*
X126710000Y-45764484I-1672335J-1078608D01*
G01*
X129942335Y-48078608D02*
G75*
G02*
X126710000Y-48235516I-1672335J1078608D01*
G01*
X129311130Y-45920163D02*
G75*
G03*
X127229039Y-45920000I-1041130J-1079837D01*
G01*
X129311130Y-48079837D02*
G75*
G02*
X127229039Y-48080000I-1041130J1079837D01*
G01*
X91710000Y-45764000D02*
X91710000Y-45920000D01*
X91710000Y-48080000D02*
X91710000Y-48236000D01*
X94942335Y-45921392D02*
G75*
G03*
X91710000Y-45764484I-1672335J-1078608D01*
G01*
X94942335Y-48078608D02*
G75*
G02*
X91710000Y-48235516I-1672335J1078608D01*
G01*
X94311130Y-45920163D02*
G75*
G03*
X92229039Y-45920000I-1041130J-1079837D01*
G01*
X94311130Y-48079837D02*
G75*
G02*
X92229039Y-48080000I-1041130J1079837D01*
G01*
X29270000Y-23000000D02*
G75*
G03*
X29270000Y-23000000I-2500000J0D01*
G01*
X24210000Y-21455000D02*
X24210000Y-24545000D01*
X29760000Y-23000462D02*
G75*
G03*
X24210000Y-21455170I-2990000J462D01*
G01*
X29760000Y-22999538D02*
G75*
G02*
X24210000Y-24544830I-2990000J-462D01*
G01*
X56710000Y-45764000D02*
X56710000Y-45920000D01*
X56710000Y-48080000D02*
X56710000Y-48236000D01*
X59942335Y-45921392D02*
G75*
G03*
X56710000Y-45764484I-1672335J-1078608D01*
G01*
X59942335Y-48078608D02*
G75*
G02*
X56710000Y-48235516I-1672335J1078608D01*
G01*
X59311130Y-45920163D02*
G75*
G03*
X57229039Y-45920000I-1041130J-1079837D01*
G01*
X59311130Y-48079837D02*
G75*
G02*
X57229039Y-48080000I-1041130J1079837D01*
G01*
D10*
X209102380Y-57642857D02*
X208626190Y-57976190D01*
X209102380Y-58214285D02*
X208102380Y-58214285D01*
X208102380Y-57833333D01*
X208150000Y-57738095D01*
X208197619Y-57690476D01*
X208292857Y-57642857D01*
X208435714Y-57642857D01*
X208530952Y-57690476D01*
X208578571Y-57738095D01*
X208626190Y-57833333D01*
X208626190Y-58214285D01*
X209102380Y-57166666D02*
X209102380Y-56976190D01*
X209054761Y-56880952D01*
X209007142Y-56833333D01*
X208864285Y-56738095D01*
X208673809Y-56690476D01*
X208292857Y-56690476D01*
X208197619Y-56738095D01*
X208150000Y-56785714D01*
X208102380Y-56880952D01*
X208102380Y-57071428D01*
X208150000Y-57166666D01*
X208197619Y-57214285D01*
X208292857Y-57261904D01*
X208530952Y-57261904D01*
X208626190Y-57214285D01*
X208673809Y-57166666D01*
X208721428Y-57071428D01*
X208721428Y-56880952D01*
X208673809Y-56785714D01*
X208626190Y-56738095D01*
X208530952Y-56690476D01*
X209102380Y-55738095D02*
X209102380Y-56309523D01*
X209102380Y-56023809D02*
X208102380Y-56023809D01*
X208245238Y-56119047D01*
X208340476Y-56214285D01*
X208388095Y-56309523D01*
X206428571Y-51047619D02*
X206333333Y-51000000D01*
X206238095Y-50904761D01*
X206095238Y-50761904D01*
X206000000Y-50714285D01*
X205904761Y-50714285D01*
X205952380Y-50952380D02*
X205857142Y-50904761D01*
X205761904Y-50809523D01*
X205714285Y-50619047D01*
X205714285Y-50285714D01*
X205761904Y-50095238D01*
X205857142Y-50000000D01*
X205952380Y-49952380D01*
X206142857Y-49952380D01*
X206238095Y-50000000D01*
X206333333Y-50095238D01*
X206380952Y-50285714D01*
X206380952Y-50619047D01*
X206333333Y-50809523D01*
X206238095Y-50904761D01*
X206142857Y-50952380D01*
X205952380Y-50952380D01*
X206857142Y-50952380D02*
X207047619Y-50952380D01*
X207142857Y-50904761D01*
X207190476Y-50857142D01*
X207285714Y-50714285D01*
X207333333Y-50523809D01*
X207333333Y-50142857D01*
X207285714Y-50047619D01*
X207238095Y-50000000D01*
X207142857Y-49952380D01*
X206952380Y-49952380D01*
X206857142Y-50000000D01*
X206809523Y-50047619D01*
X206761904Y-50142857D01*
X206761904Y-50380952D01*
X206809523Y-50476190D01*
X206857142Y-50523809D01*
X206952380Y-50571428D01*
X207142857Y-50571428D01*
X207238095Y-50523809D01*
X207285714Y-50476190D01*
X207333333Y-50380952D01*
X208285714Y-50952380D02*
X207714285Y-50952380D01*
X208000000Y-50952380D02*
X208000000Y-49952380D01*
X207904761Y-50095238D01*
X207809523Y-50190476D01*
X207714285Y-50238095D01*
X191602380Y-57642857D02*
X191126190Y-57976190D01*
X191602380Y-58214285D02*
X190602380Y-58214285D01*
X190602380Y-57833333D01*
X190650000Y-57738095D01*
X190697619Y-57690476D01*
X190792857Y-57642857D01*
X190935714Y-57642857D01*
X191030952Y-57690476D01*
X191078571Y-57738095D01*
X191126190Y-57833333D01*
X191126190Y-58214285D01*
X191030952Y-57071428D02*
X190983333Y-57166666D01*
X190935714Y-57214285D01*
X190840476Y-57261904D01*
X190792857Y-57261904D01*
X190697619Y-57214285D01*
X190650000Y-57166666D01*
X190602380Y-57071428D01*
X190602380Y-56880952D01*
X190650000Y-56785714D01*
X190697619Y-56738095D01*
X190792857Y-56690476D01*
X190840476Y-56690476D01*
X190935714Y-56738095D01*
X190983333Y-56785714D01*
X191030952Y-56880952D01*
X191030952Y-57071428D01*
X191078571Y-57166666D01*
X191126190Y-57214285D01*
X191221428Y-57261904D01*
X191411904Y-57261904D01*
X191507142Y-57214285D01*
X191554761Y-57166666D01*
X191602380Y-57071428D01*
X191602380Y-56880952D01*
X191554761Y-56785714D01*
X191507142Y-56738095D01*
X191411904Y-56690476D01*
X191221428Y-56690476D01*
X191126190Y-56738095D01*
X191078571Y-56785714D01*
X191030952Y-56880952D01*
X191602380Y-55738095D02*
X191602380Y-56309523D01*
X191602380Y-56023809D02*
X190602380Y-56023809D01*
X190745238Y-56119047D01*
X190840476Y-56214285D01*
X190888095Y-56309523D01*
X174102380Y-57642857D02*
X173626190Y-57976190D01*
X174102380Y-58214285D02*
X173102380Y-58214285D01*
X173102380Y-57833333D01*
X173150000Y-57738095D01*
X173197619Y-57690476D01*
X173292857Y-57642857D01*
X173435714Y-57642857D01*
X173530952Y-57690476D01*
X173578571Y-57738095D01*
X173626190Y-57833333D01*
X173626190Y-58214285D01*
X173102380Y-57309523D02*
X173102380Y-56642857D01*
X174102380Y-57071428D01*
X174102380Y-55738095D02*
X174102380Y-56309523D01*
X174102380Y-56023809D02*
X173102380Y-56023809D01*
X173245238Y-56119047D01*
X173340476Y-56214285D01*
X173388095Y-56309523D01*
X156602380Y-57642857D02*
X156126190Y-57976190D01*
X156602380Y-58214285D02*
X155602380Y-58214285D01*
X155602380Y-57833333D01*
X155650000Y-57738095D01*
X155697619Y-57690476D01*
X155792857Y-57642857D01*
X155935714Y-57642857D01*
X156030952Y-57690476D01*
X156078571Y-57738095D01*
X156126190Y-57833333D01*
X156126190Y-58214285D01*
X155602380Y-56785714D02*
X155602380Y-56976190D01*
X155650000Y-57071428D01*
X155697619Y-57119047D01*
X155840476Y-57214285D01*
X156030952Y-57261904D01*
X156411904Y-57261904D01*
X156507142Y-57214285D01*
X156554761Y-57166666D01*
X156602380Y-57071428D01*
X156602380Y-56880952D01*
X156554761Y-56785714D01*
X156507142Y-56738095D01*
X156411904Y-56690476D01*
X156173809Y-56690476D01*
X156078571Y-56738095D01*
X156030952Y-56785714D01*
X155983333Y-56880952D01*
X155983333Y-57071428D01*
X156030952Y-57166666D01*
X156078571Y-57214285D01*
X156173809Y-57261904D01*
X156602380Y-55738095D02*
X156602380Y-56309523D01*
X156602380Y-56023809D02*
X155602380Y-56023809D01*
X155745238Y-56119047D01*
X155840476Y-56214285D01*
X155888095Y-56309523D01*
X139102380Y-57642857D02*
X138626190Y-57976190D01*
X139102380Y-58214285D02*
X138102380Y-58214285D01*
X138102380Y-57833333D01*
X138150000Y-57738095D01*
X138197619Y-57690476D01*
X138292857Y-57642857D01*
X138435714Y-57642857D01*
X138530952Y-57690476D01*
X138578571Y-57738095D01*
X138626190Y-57833333D01*
X138626190Y-58214285D01*
X138102380Y-56738095D02*
X138102380Y-57214285D01*
X138578571Y-57261904D01*
X138530952Y-57214285D01*
X138483333Y-57119047D01*
X138483333Y-56880952D01*
X138530952Y-56785714D01*
X138578571Y-56738095D01*
X138673809Y-56690476D01*
X138911904Y-56690476D01*
X139007142Y-56738095D01*
X139054761Y-56785714D01*
X139102380Y-56880952D01*
X139102380Y-57119047D01*
X139054761Y-57214285D01*
X139007142Y-57261904D01*
X139102380Y-55738095D02*
X139102380Y-56309523D01*
X139102380Y-56023809D02*
X138102380Y-56023809D01*
X138245238Y-56119047D01*
X138340476Y-56214285D01*
X138388095Y-56309523D01*
X121602380Y-57642857D02*
X121126190Y-57976190D01*
X121602380Y-58214285D02*
X120602380Y-58214285D01*
X120602380Y-57833333D01*
X120650000Y-57738095D01*
X120697619Y-57690476D01*
X120792857Y-57642857D01*
X120935714Y-57642857D01*
X121030952Y-57690476D01*
X121078571Y-57738095D01*
X121126190Y-57833333D01*
X121126190Y-58214285D01*
X120935714Y-56785714D02*
X121602380Y-56785714D01*
X120554761Y-57023809D02*
X121269047Y-57261904D01*
X121269047Y-56642857D01*
X121602380Y-55738095D02*
X121602380Y-56309523D01*
X121602380Y-56023809D02*
X120602380Y-56023809D01*
X120745238Y-56119047D01*
X120840476Y-56214285D01*
X120888095Y-56309523D01*
X104102380Y-57642857D02*
X103626190Y-57976190D01*
X104102380Y-58214285D02*
X103102380Y-58214285D01*
X103102380Y-57833333D01*
X103150000Y-57738095D01*
X103197619Y-57690476D01*
X103292857Y-57642857D01*
X103435714Y-57642857D01*
X103530952Y-57690476D01*
X103578571Y-57738095D01*
X103626190Y-57833333D01*
X103626190Y-58214285D01*
X103102380Y-57309523D02*
X103102380Y-56690476D01*
X103483333Y-57023809D01*
X103483333Y-56880952D01*
X103530952Y-56785714D01*
X103578571Y-56738095D01*
X103673809Y-56690476D01*
X103911904Y-56690476D01*
X104007142Y-56738095D01*
X104054761Y-56785714D01*
X104102380Y-56880952D01*
X104102380Y-57166666D01*
X104054761Y-57261904D01*
X104007142Y-57309523D01*
X104102380Y-55738095D02*
X104102380Y-56309523D01*
X104102380Y-56023809D02*
X103102380Y-56023809D01*
X103245238Y-56119047D01*
X103340476Y-56214285D01*
X103388095Y-56309523D01*
X86602380Y-57642857D02*
X86126190Y-57976190D01*
X86602380Y-58214285D02*
X85602380Y-58214285D01*
X85602380Y-57833333D01*
X85650000Y-57738095D01*
X85697619Y-57690476D01*
X85792857Y-57642857D01*
X85935714Y-57642857D01*
X86030952Y-57690476D01*
X86078571Y-57738095D01*
X86126190Y-57833333D01*
X86126190Y-58214285D01*
X85697619Y-57261904D02*
X85650000Y-57214285D01*
X85602380Y-57119047D01*
X85602380Y-56880952D01*
X85650000Y-56785714D01*
X85697619Y-56738095D01*
X85792857Y-56690476D01*
X85888095Y-56690476D01*
X86030952Y-56738095D01*
X86602380Y-57309523D01*
X86602380Y-56690476D01*
X86602380Y-55738095D02*
X86602380Y-56309523D01*
X86602380Y-56023809D02*
X85602380Y-56023809D01*
X85745238Y-56119047D01*
X85840476Y-56214285D01*
X85888095Y-56309523D01*
X69102380Y-57642857D02*
X68626190Y-57976190D01*
X69102380Y-58214285D02*
X68102380Y-58214285D01*
X68102380Y-57833333D01*
X68150000Y-57738095D01*
X68197619Y-57690476D01*
X68292857Y-57642857D01*
X68435714Y-57642857D01*
X68530952Y-57690476D01*
X68578571Y-57738095D01*
X68626190Y-57833333D01*
X68626190Y-58214285D01*
X69102380Y-56690476D02*
X69102380Y-57261904D01*
X69102380Y-56976190D02*
X68102380Y-56976190D01*
X68245238Y-57071428D01*
X68340476Y-57166666D01*
X68388095Y-57261904D01*
X69102380Y-55738095D02*
X69102380Y-56309523D01*
X69102380Y-56023809D02*
X68102380Y-56023809D01*
X68245238Y-56119047D01*
X68340476Y-56214285D01*
X68388095Y-56309523D01*
X188928571Y-51047619D02*
X188833333Y-51000000D01*
X188738095Y-50904761D01*
X188595238Y-50761904D01*
X188500000Y-50714285D01*
X188404761Y-50714285D01*
X188452380Y-50952380D02*
X188357142Y-50904761D01*
X188261904Y-50809523D01*
X188214285Y-50619047D01*
X188214285Y-50285714D01*
X188261904Y-50095238D01*
X188357142Y-50000000D01*
X188452380Y-49952380D01*
X188642857Y-49952380D01*
X188738095Y-50000000D01*
X188833333Y-50095238D01*
X188880952Y-50285714D01*
X188880952Y-50619047D01*
X188833333Y-50809523D01*
X188738095Y-50904761D01*
X188642857Y-50952380D01*
X188452380Y-50952380D01*
X189452380Y-50380952D02*
X189357142Y-50333333D01*
X189309523Y-50285714D01*
X189261904Y-50190476D01*
X189261904Y-50142857D01*
X189309523Y-50047619D01*
X189357142Y-50000000D01*
X189452380Y-49952380D01*
X189642857Y-49952380D01*
X189738095Y-50000000D01*
X189785714Y-50047619D01*
X189833333Y-50142857D01*
X189833333Y-50190476D01*
X189785714Y-50285714D01*
X189738095Y-50333333D01*
X189642857Y-50380952D01*
X189452380Y-50380952D01*
X189357142Y-50428571D01*
X189309523Y-50476190D01*
X189261904Y-50571428D01*
X189261904Y-50761904D01*
X189309523Y-50857142D01*
X189357142Y-50904761D01*
X189452380Y-50952380D01*
X189642857Y-50952380D01*
X189738095Y-50904761D01*
X189785714Y-50857142D01*
X189833333Y-50761904D01*
X189833333Y-50571428D01*
X189785714Y-50476190D01*
X189738095Y-50428571D01*
X189642857Y-50380952D01*
X190785714Y-50952380D02*
X190214285Y-50952380D01*
X190500000Y-50952380D02*
X190500000Y-49952380D01*
X190404761Y-50095238D01*
X190309523Y-50190476D01*
X190214285Y-50238095D01*
X171428571Y-51047619D02*
X171333333Y-51000000D01*
X171238095Y-50904761D01*
X171095238Y-50761904D01*
X171000000Y-50714285D01*
X170904761Y-50714285D01*
X170952380Y-50952380D02*
X170857142Y-50904761D01*
X170761904Y-50809523D01*
X170714285Y-50619047D01*
X170714285Y-50285714D01*
X170761904Y-50095238D01*
X170857142Y-50000000D01*
X170952380Y-49952380D01*
X171142857Y-49952380D01*
X171238095Y-50000000D01*
X171333333Y-50095238D01*
X171380952Y-50285714D01*
X171380952Y-50619047D01*
X171333333Y-50809523D01*
X171238095Y-50904761D01*
X171142857Y-50952380D01*
X170952380Y-50952380D01*
X171714285Y-49952380D02*
X172380952Y-49952380D01*
X171952380Y-50952380D01*
X173285714Y-50952380D02*
X172714285Y-50952380D01*
X173000000Y-50952380D02*
X173000000Y-49952380D01*
X172904761Y-50095238D01*
X172809523Y-50190476D01*
X172714285Y-50238095D01*
X153928571Y-51047619D02*
X153833333Y-51000000D01*
X153738095Y-50904761D01*
X153595238Y-50761904D01*
X153500000Y-50714285D01*
X153404761Y-50714285D01*
X153452380Y-50952380D02*
X153357142Y-50904761D01*
X153261904Y-50809523D01*
X153214285Y-50619047D01*
X153214285Y-50285714D01*
X153261904Y-50095238D01*
X153357142Y-50000000D01*
X153452380Y-49952380D01*
X153642857Y-49952380D01*
X153738095Y-50000000D01*
X153833333Y-50095238D01*
X153880952Y-50285714D01*
X153880952Y-50619047D01*
X153833333Y-50809523D01*
X153738095Y-50904761D01*
X153642857Y-50952380D01*
X153452380Y-50952380D01*
X154738095Y-49952380D02*
X154547619Y-49952380D01*
X154452380Y-50000000D01*
X154404761Y-50047619D01*
X154309523Y-50190476D01*
X154261904Y-50380952D01*
X154261904Y-50761904D01*
X154309523Y-50857142D01*
X154357142Y-50904761D01*
X154452380Y-50952380D01*
X154642857Y-50952380D01*
X154738095Y-50904761D01*
X154785714Y-50857142D01*
X154833333Y-50761904D01*
X154833333Y-50523809D01*
X154785714Y-50428571D01*
X154738095Y-50380952D01*
X154642857Y-50333333D01*
X154452380Y-50333333D01*
X154357142Y-50380952D01*
X154309523Y-50428571D01*
X154261904Y-50523809D01*
X155785714Y-50952380D02*
X155214285Y-50952380D01*
X155500000Y-50952380D02*
X155500000Y-49952380D01*
X155404761Y-50095238D01*
X155309523Y-50190476D01*
X155214285Y-50238095D01*
X136428571Y-51047619D02*
X136333333Y-51000000D01*
X136238095Y-50904761D01*
X136095238Y-50761904D01*
X136000000Y-50714285D01*
X135904761Y-50714285D01*
X135952380Y-50952380D02*
X135857142Y-50904761D01*
X135761904Y-50809523D01*
X135714285Y-50619047D01*
X135714285Y-50285714D01*
X135761904Y-50095238D01*
X135857142Y-50000000D01*
X135952380Y-49952380D01*
X136142857Y-49952380D01*
X136238095Y-50000000D01*
X136333333Y-50095238D01*
X136380952Y-50285714D01*
X136380952Y-50619047D01*
X136333333Y-50809523D01*
X136238095Y-50904761D01*
X136142857Y-50952380D01*
X135952380Y-50952380D01*
X137285714Y-49952380D02*
X136809523Y-49952380D01*
X136761904Y-50428571D01*
X136809523Y-50380952D01*
X136904761Y-50333333D01*
X137142857Y-50333333D01*
X137238095Y-50380952D01*
X137285714Y-50428571D01*
X137333333Y-50523809D01*
X137333333Y-50761904D01*
X137285714Y-50857142D01*
X137238095Y-50904761D01*
X137142857Y-50952380D01*
X136904761Y-50952380D01*
X136809523Y-50904761D01*
X136761904Y-50857142D01*
X138285714Y-50952380D02*
X137714285Y-50952380D01*
X138000000Y-50952380D02*
X138000000Y-49952380D01*
X137904761Y-50095238D01*
X137809523Y-50190476D01*
X137714285Y-50238095D01*
X118928571Y-51047619D02*
X118833333Y-51000000D01*
X118738095Y-50904761D01*
X118595238Y-50761904D01*
X118500000Y-50714285D01*
X118404761Y-50714285D01*
X118452380Y-50952380D02*
X118357142Y-50904761D01*
X118261904Y-50809523D01*
X118214285Y-50619047D01*
X118214285Y-50285714D01*
X118261904Y-50095238D01*
X118357142Y-50000000D01*
X118452380Y-49952380D01*
X118642857Y-49952380D01*
X118738095Y-50000000D01*
X118833333Y-50095238D01*
X118880952Y-50285714D01*
X118880952Y-50619047D01*
X118833333Y-50809523D01*
X118738095Y-50904761D01*
X118642857Y-50952380D01*
X118452380Y-50952380D01*
X119738095Y-50285714D02*
X119738095Y-50952380D01*
X119500000Y-49904761D02*
X119261904Y-50619047D01*
X119880952Y-50619047D01*
X120785714Y-50952380D02*
X120214285Y-50952380D01*
X120500000Y-50952380D02*
X120500000Y-49952380D01*
X120404761Y-50095238D01*
X120309523Y-50190476D01*
X120214285Y-50238095D01*
X101428571Y-51047619D02*
X101333333Y-51000000D01*
X101238095Y-50904761D01*
X101095238Y-50761904D01*
X101000000Y-50714285D01*
X100904761Y-50714285D01*
X100952380Y-50952380D02*
X100857142Y-50904761D01*
X100761904Y-50809523D01*
X100714285Y-50619047D01*
X100714285Y-50285714D01*
X100761904Y-50095238D01*
X100857142Y-50000000D01*
X100952380Y-49952380D01*
X101142857Y-49952380D01*
X101238095Y-50000000D01*
X101333333Y-50095238D01*
X101380952Y-50285714D01*
X101380952Y-50619047D01*
X101333333Y-50809523D01*
X101238095Y-50904761D01*
X101142857Y-50952380D01*
X100952380Y-50952380D01*
X101714285Y-49952380D02*
X102333333Y-49952380D01*
X102000000Y-50333333D01*
X102142857Y-50333333D01*
X102238095Y-50380952D01*
X102285714Y-50428571D01*
X102333333Y-50523809D01*
X102333333Y-50761904D01*
X102285714Y-50857142D01*
X102238095Y-50904761D01*
X102142857Y-50952380D01*
X101857142Y-50952380D01*
X101761904Y-50904761D01*
X101714285Y-50857142D01*
X103285714Y-50952380D02*
X102714285Y-50952380D01*
X103000000Y-50952380D02*
X103000000Y-49952380D01*
X102904761Y-50095238D01*
X102809523Y-50190476D01*
X102714285Y-50238095D01*
X83928571Y-51047619D02*
X83833333Y-51000000D01*
X83738095Y-50904761D01*
X83595238Y-50761904D01*
X83500000Y-50714285D01*
X83404761Y-50714285D01*
X83452380Y-50952380D02*
X83357142Y-50904761D01*
X83261904Y-50809523D01*
X83214285Y-50619047D01*
X83214285Y-50285714D01*
X83261904Y-50095238D01*
X83357142Y-50000000D01*
X83452380Y-49952380D01*
X83642857Y-49952380D01*
X83738095Y-50000000D01*
X83833333Y-50095238D01*
X83880952Y-50285714D01*
X83880952Y-50619047D01*
X83833333Y-50809523D01*
X83738095Y-50904761D01*
X83642857Y-50952380D01*
X83452380Y-50952380D01*
X84261904Y-50047619D02*
X84309523Y-50000000D01*
X84404761Y-49952380D01*
X84642857Y-49952380D01*
X84738095Y-50000000D01*
X84785714Y-50047619D01*
X84833333Y-50142857D01*
X84833333Y-50238095D01*
X84785714Y-50380952D01*
X84214285Y-50952380D01*
X84833333Y-50952380D01*
X85785714Y-50952380D02*
X85214285Y-50952380D01*
X85500000Y-50952380D02*
X85500000Y-49952380D01*
X85404761Y-50095238D01*
X85309523Y-50190476D01*
X85214285Y-50238095D01*
X66428571Y-51047619D02*
X66333333Y-51000000D01*
X66238095Y-50904761D01*
X66095238Y-50761904D01*
X66000000Y-50714285D01*
X65904761Y-50714285D01*
X65952380Y-50952380D02*
X65857142Y-50904761D01*
X65761904Y-50809523D01*
X65714285Y-50619047D01*
X65714285Y-50285714D01*
X65761904Y-50095238D01*
X65857142Y-50000000D01*
X65952380Y-49952380D01*
X66142857Y-49952380D01*
X66238095Y-50000000D01*
X66333333Y-50095238D01*
X66380952Y-50285714D01*
X66380952Y-50619047D01*
X66333333Y-50809523D01*
X66238095Y-50904761D01*
X66142857Y-50952380D01*
X65952380Y-50952380D01*
X67333333Y-50952380D02*
X66761904Y-50952380D01*
X67047619Y-50952380D02*
X67047619Y-49952380D01*
X66952380Y-50095238D01*
X66857142Y-50190476D01*
X66761904Y-50238095D01*
X68285714Y-50952380D02*
X67714285Y-50952380D01*
X68000000Y-50952380D02*
X68000000Y-49952380D01*
X67904761Y-50095238D01*
X67809523Y-50190476D01*
X67714285Y-50238095D01*
X206407142Y-45702380D02*
X206073809Y-45226190D01*
X205835714Y-45702380D02*
X205835714Y-44702380D01*
X206216666Y-44702380D01*
X206311904Y-44750000D01*
X206359523Y-44797619D01*
X206407142Y-44892857D01*
X206407142Y-45035714D01*
X206359523Y-45130952D01*
X206311904Y-45178571D01*
X206216666Y-45226190D01*
X205835714Y-45226190D01*
X206883333Y-45702380D02*
X207073809Y-45702380D01*
X207169047Y-45654761D01*
X207216666Y-45607142D01*
X207311904Y-45464285D01*
X207359523Y-45273809D01*
X207359523Y-44892857D01*
X207311904Y-44797619D01*
X207264285Y-44750000D01*
X207169047Y-44702380D01*
X206978571Y-44702380D01*
X206883333Y-44750000D01*
X206835714Y-44797619D01*
X206788095Y-44892857D01*
X206788095Y-45130952D01*
X206835714Y-45226190D01*
X206883333Y-45273809D01*
X206978571Y-45321428D01*
X207169047Y-45321428D01*
X207264285Y-45273809D01*
X207311904Y-45226190D01*
X207359523Y-45130952D01*
X207740476Y-44797619D02*
X207788095Y-44750000D01*
X207883333Y-44702380D01*
X208121428Y-44702380D01*
X208216666Y-44750000D01*
X208264285Y-44797619D01*
X208311904Y-44892857D01*
X208311904Y-44988095D01*
X208264285Y-45130952D01*
X207692857Y-45702380D01*
X208311904Y-45702380D01*
X73603333Y-44452380D02*
X73603333Y-43452380D01*
X73841428Y-43452380D01*
X73984285Y-43500000D01*
X74079523Y-43595238D01*
X74127142Y-43690476D01*
X74174761Y-43880952D01*
X74174761Y-44023809D01*
X74127142Y-44214285D01*
X74079523Y-44309523D01*
X73984285Y-44404761D01*
X73841428Y-44452380D01*
X73603333Y-44452380D01*
X75127142Y-44452380D02*
X74555714Y-44452380D01*
X74841428Y-44452380D02*
X74841428Y-43452380D01*
X74746190Y-43595238D01*
X74650952Y-43690476D01*
X74555714Y-43738095D01*
X76079523Y-44452380D02*
X75508095Y-44452380D01*
X75793809Y-44452380D02*
X75793809Y-43452380D01*
X75698571Y-43595238D01*
X75603333Y-43690476D01*
X75508095Y-43738095D01*
X76650952Y-43880952D02*
X76555714Y-43833333D01*
X76508095Y-43785714D01*
X76460476Y-43690476D01*
X76460476Y-43642857D01*
X76508095Y-43547619D01*
X76555714Y-43500000D01*
X76650952Y-43452380D01*
X76841428Y-43452380D01*
X76936666Y-43500000D01*
X76984285Y-43547619D01*
X77031904Y-43642857D01*
X77031904Y-43690476D01*
X76984285Y-43785714D01*
X76936666Y-43833333D01*
X76841428Y-43880952D01*
X76650952Y-43880952D01*
X76555714Y-43928571D01*
X76508095Y-43976190D01*
X76460476Y-44071428D01*
X76460476Y-44261904D01*
X76508095Y-44357142D01*
X76555714Y-44404761D01*
X76650952Y-44452380D01*
X76841428Y-44452380D01*
X76936666Y-44404761D01*
X76984285Y-44357142D01*
X77031904Y-44261904D01*
X77031904Y-44071428D01*
X76984285Y-43976190D01*
X76936666Y-43928571D01*
X76841428Y-43880952D01*
X77984285Y-44452380D02*
X77412857Y-44452380D01*
X77698571Y-44452380D02*
X77698571Y-43452380D01*
X77603333Y-43595238D01*
X77508095Y-43690476D01*
X77412857Y-43738095D01*
X27238095Y-58952380D02*
X27238095Y-59761904D01*
X27285714Y-59857142D01*
X27333333Y-59904761D01*
X27428571Y-59952380D01*
X27619047Y-59952380D01*
X27714285Y-59904761D01*
X27761904Y-59857142D01*
X27809523Y-59761904D01*
X27809523Y-58952380D01*
X28809523Y-59952380D02*
X28238095Y-59952380D01*
X28523809Y-59952380D02*
X28523809Y-58952380D01*
X28428571Y-59095238D01*
X28333333Y-59190476D01*
X28238095Y-59238095D01*
X42738095Y-61502380D02*
X42738095Y-62311904D01*
X42785714Y-62407142D01*
X42833333Y-62454761D01*
X42928571Y-62502380D01*
X43119047Y-62502380D01*
X43214285Y-62454761D01*
X43261904Y-62407142D01*
X43309523Y-62311904D01*
X43309523Y-61502380D01*
X43738095Y-61597619D02*
X43785714Y-61550000D01*
X43880952Y-61502380D01*
X44119047Y-61502380D01*
X44214285Y-61550000D01*
X44261904Y-61597619D01*
X44309523Y-61692857D01*
X44309523Y-61788095D01*
X44261904Y-61930952D01*
X43690476Y-62502380D01*
X44309523Y-62502380D01*
X34883333Y-46952380D02*
X34550000Y-46476190D01*
X34311904Y-46952380D02*
X34311904Y-45952380D01*
X34692857Y-45952380D01*
X34788095Y-46000000D01*
X34835714Y-46047619D01*
X34883333Y-46142857D01*
X34883333Y-46285714D01*
X34835714Y-46380952D01*
X34788095Y-46428571D01*
X34692857Y-46476190D01*
X34311904Y-46476190D01*
X35835714Y-46952380D02*
X35264285Y-46952380D01*
X35550000Y-46952380D02*
X35550000Y-45952380D01*
X35454761Y-46095238D01*
X35359523Y-46190476D01*
X35264285Y-46238095D01*
X34357142Y-57666666D02*
X34404761Y-57714285D01*
X34452380Y-57857142D01*
X34452380Y-57952380D01*
X34404761Y-58095238D01*
X34309523Y-58190476D01*
X34214285Y-58238095D01*
X34023809Y-58285714D01*
X33880952Y-58285714D01*
X33690476Y-58238095D01*
X33595238Y-58190476D01*
X33500000Y-58095238D01*
X33452380Y-57952380D01*
X33452380Y-57857142D01*
X33500000Y-57714285D01*
X33547619Y-57666666D01*
X33452380Y-57333333D02*
X33452380Y-56714285D01*
X33833333Y-57047619D01*
X33833333Y-56904761D01*
X33880952Y-56809523D01*
X33928571Y-56761904D01*
X34023809Y-56714285D01*
X34261904Y-56714285D01*
X34357142Y-56761904D01*
X34404761Y-56809523D01*
X34452380Y-56904761D01*
X34452380Y-57190476D01*
X34404761Y-57285714D01*
X34357142Y-57333333D01*
X30333333Y-51357142D02*
X30285714Y-51404761D01*
X30142857Y-51452380D01*
X30047619Y-51452380D01*
X29904761Y-51404761D01*
X29809523Y-51309523D01*
X29761904Y-51214285D01*
X29714285Y-51023809D01*
X29714285Y-50880952D01*
X29761904Y-50690476D01*
X29809523Y-50595238D01*
X29904761Y-50500000D01*
X30047619Y-50452380D01*
X30142857Y-50452380D01*
X30285714Y-50500000D01*
X30333333Y-50547619D01*
X31285714Y-51452380D02*
X30714285Y-51452380D01*
X31000000Y-51452380D02*
X31000000Y-50452380D01*
X30904761Y-50595238D01*
X30809523Y-50690476D01*
X30714285Y-50738095D01*
X32357142Y-57666666D02*
X32404761Y-57714285D01*
X32452380Y-57857142D01*
X32452380Y-57952380D01*
X32404761Y-58095238D01*
X32309523Y-58190476D01*
X32214285Y-58238095D01*
X32023809Y-58285714D01*
X31880952Y-58285714D01*
X31690476Y-58238095D01*
X31595238Y-58190476D01*
X31500000Y-58095238D01*
X31452380Y-57952380D01*
X31452380Y-57857142D01*
X31500000Y-57714285D01*
X31547619Y-57666666D01*
X31547619Y-57285714D02*
X31500000Y-57238095D01*
X31452380Y-57142857D01*
X31452380Y-56904761D01*
X31500000Y-56809523D01*
X31547619Y-56761904D01*
X31642857Y-56714285D01*
X31738095Y-56714285D01*
X31880952Y-56761904D01*
X32452380Y-57333333D01*
X32452380Y-56714285D01*
X50307142Y-53166666D02*
X50354761Y-53214285D01*
X50402380Y-53357142D01*
X50402380Y-53452380D01*
X50354761Y-53595238D01*
X50259523Y-53690476D01*
X50164285Y-53738095D01*
X49973809Y-53785714D01*
X49830952Y-53785714D01*
X49640476Y-53738095D01*
X49545238Y-53690476D01*
X49450000Y-53595238D01*
X49402380Y-53452380D01*
X49402380Y-53357142D01*
X49450000Y-53214285D01*
X49497619Y-53166666D01*
X49402380Y-52261904D02*
X49402380Y-52738095D01*
X49878571Y-52785714D01*
X49830952Y-52738095D01*
X49783333Y-52642857D01*
X49783333Y-52404761D01*
X49830952Y-52309523D01*
X49878571Y-52261904D01*
X49973809Y-52214285D01*
X50211904Y-52214285D01*
X50307142Y-52261904D01*
X50354761Y-52309523D01*
X50402380Y-52404761D01*
X50402380Y-52642857D01*
X50354761Y-52738095D01*
X50307142Y-52785714D01*
X36807142Y-49716666D02*
X36854761Y-49764285D01*
X36902380Y-49907142D01*
X36902380Y-50002380D01*
X36854761Y-50145238D01*
X36759523Y-50240476D01*
X36664285Y-50288095D01*
X36473809Y-50335714D01*
X36330952Y-50335714D01*
X36140476Y-50288095D01*
X36045238Y-50240476D01*
X35950000Y-50145238D01*
X35902380Y-50002380D01*
X35902380Y-49907142D01*
X35950000Y-49764285D01*
X35997619Y-49716666D01*
X36235714Y-48859523D02*
X36902380Y-48859523D01*
X35854761Y-49097619D02*
X36569047Y-49335714D01*
X36569047Y-48716666D01*
X37007142Y-60216666D02*
X37054761Y-60264285D01*
X37102380Y-60407142D01*
X37102380Y-60502380D01*
X37054761Y-60645238D01*
X36959523Y-60740476D01*
X36864285Y-60788095D01*
X36673809Y-60835714D01*
X36530952Y-60835714D01*
X36340476Y-60788095D01*
X36245238Y-60740476D01*
X36150000Y-60645238D01*
X36102380Y-60502380D01*
X36102380Y-60407142D01*
X36150000Y-60264285D01*
X36197619Y-60216666D01*
X36102380Y-59359523D02*
X36102380Y-59550000D01*
X36150000Y-59645238D01*
X36197619Y-59692857D01*
X36340476Y-59788095D01*
X36530952Y-59835714D01*
X36911904Y-59835714D01*
X37007142Y-59788095D01*
X37054761Y-59740476D01*
X37102380Y-59645238D01*
X37102380Y-59454761D01*
X37054761Y-59359523D01*
X37007142Y-59311904D01*
X36911904Y-59264285D01*
X36673809Y-59264285D01*
X36578571Y-59311904D01*
X36530952Y-59359523D01*
X36483333Y-59454761D01*
X36483333Y-59645238D01*
X36530952Y-59740476D01*
X36578571Y-59788095D01*
X36673809Y-59835714D01*
X196103333Y-44452380D02*
X196103333Y-43452380D01*
X196341428Y-43452380D01*
X196484285Y-43500000D01*
X196579523Y-43595238D01*
X196627142Y-43690476D01*
X196674761Y-43880952D01*
X196674761Y-44023809D01*
X196627142Y-44214285D01*
X196579523Y-44309523D01*
X196484285Y-44404761D01*
X196341428Y-44452380D01*
X196103333Y-44452380D01*
X197627142Y-44452380D02*
X197055714Y-44452380D01*
X197341428Y-44452380D02*
X197341428Y-43452380D01*
X197246190Y-43595238D01*
X197150952Y-43690476D01*
X197055714Y-43738095D01*
X198579523Y-44452380D02*
X198008095Y-44452380D01*
X198293809Y-44452380D02*
X198293809Y-43452380D01*
X198198571Y-43595238D01*
X198103333Y-43690476D01*
X198008095Y-43738095D01*
X199055714Y-44452380D02*
X199246190Y-44452380D01*
X199341428Y-44404761D01*
X199389047Y-44357142D01*
X199484285Y-44214285D01*
X199531904Y-44023809D01*
X199531904Y-43642857D01*
X199484285Y-43547619D01*
X199436666Y-43500000D01*
X199341428Y-43452380D01*
X199150952Y-43452380D01*
X199055714Y-43500000D01*
X199008095Y-43547619D01*
X198960476Y-43642857D01*
X198960476Y-43880952D01*
X199008095Y-43976190D01*
X199055714Y-44023809D01*
X199150952Y-44071428D01*
X199341428Y-44071428D01*
X199436666Y-44023809D01*
X199484285Y-43976190D01*
X199531904Y-43880952D01*
X199912857Y-43547619D02*
X199960476Y-43500000D01*
X200055714Y-43452380D01*
X200293809Y-43452380D01*
X200389047Y-43500000D01*
X200436666Y-43547619D01*
X200484285Y-43642857D01*
X200484285Y-43738095D01*
X200436666Y-43880952D01*
X199865238Y-44452380D01*
X200484285Y-44452380D01*
X161103333Y-44452380D02*
X161103333Y-43452380D01*
X161341428Y-43452380D01*
X161484285Y-43500000D01*
X161579523Y-43595238D01*
X161627142Y-43690476D01*
X161674761Y-43880952D01*
X161674761Y-44023809D01*
X161627142Y-44214285D01*
X161579523Y-44309523D01*
X161484285Y-44404761D01*
X161341428Y-44452380D01*
X161103333Y-44452380D01*
X162627142Y-44452380D02*
X162055714Y-44452380D01*
X162341428Y-44452380D02*
X162341428Y-43452380D01*
X162246190Y-43595238D01*
X162150952Y-43690476D01*
X162055714Y-43738095D01*
X163579523Y-44452380D02*
X163008095Y-44452380D01*
X163293809Y-44452380D02*
X163293809Y-43452380D01*
X163198571Y-43595238D01*
X163103333Y-43690476D01*
X163008095Y-43738095D01*
X164055714Y-44452380D02*
X164246190Y-44452380D01*
X164341428Y-44404761D01*
X164389047Y-44357142D01*
X164484285Y-44214285D01*
X164531904Y-44023809D01*
X164531904Y-43642857D01*
X164484285Y-43547619D01*
X164436666Y-43500000D01*
X164341428Y-43452380D01*
X164150952Y-43452380D01*
X164055714Y-43500000D01*
X164008095Y-43547619D01*
X163960476Y-43642857D01*
X163960476Y-43880952D01*
X164008095Y-43976190D01*
X164055714Y-44023809D01*
X164150952Y-44071428D01*
X164341428Y-44071428D01*
X164436666Y-44023809D01*
X164484285Y-43976190D01*
X164531904Y-43880952D01*
X165484285Y-44452380D02*
X164912857Y-44452380D01*
X165198571Y-44452380D02*
X165198571Y-43452380D01*
X165103333Y-43595238D01*
X165008095Y-43690476D01*
X164912857Y-43738095D01*
X143603333Y-44452380D02*
X143603333Y-43452380D01*
X143841428Y-43452380D01*
X143984285Y-43500000D01*
X144079523Y-43595238D01*
X144127142Y-43690476D01*
X144174761Y-43880952D01*
X144174761Y-44023809D01*
X144127142Y-44214285D01*
X144079523Y-44309523D01*
X143984285Y-44404761D01*
X143841428Y-44452380D01*
X143603333Y-44452380D01*
X145127142Y-44452380D02*
X144555714Y-44452380D01*
X144841428Y-44452380D02*
X144841428Y-43452380D01*
X144746190Y-43595238D01*
X144650952Y-43690476D01*
X144555714Y-43738095D01*
X146079523Y-44452380D02*
X145508095Y-44452380D01*
X145793809Y-44452380D02*
X145793809Y-43452380D01*
X145698571Y-43595238D01*
X145603333Y-43690476D01*
X145508095Y-43738095D01*
X146650952Y-43880952D02*
X146555714Y-43833333D01*
X146508095Y-43785714D01*
X146460476Y-43690476D01*
X146460476Y-43642857D01*
X146508095Y-43547619D01*
X146555714Y-43500000D01*
X146650952Y-43452380D01*
X146841428Y-43452380D01*
X146936666Y-43500000D01*
X146984285Y-43547619D01*
X147031904Y-43642857D01*
X147031904Y-43690476D01*
X146984285Y-43785714D01*
X146936666Y-43833333D01*
X146841428Y-43880952D01*
X146650952Y-43880952D01*
X146555714Y-43928571D01*
X146508095Y-43976190D01*
X146460476Y-44071428D01*
X146460476Y-44261904D01*
X146508095Y-44357142D01*
X146555714Y-44404761D01*
X146650952Y-44452380D01*
X146841428Y-44452380D01*
X146936666Y-44404761D01*
X146984285Y-44357142D01*
X147031904Y-44261904D01*
X147031904Y-44071428D01*
X146984285Y-43976190D01*
X146936666Y-43928571D01*
X146841428Y-43880952D01*
X147603333Y-43880952D02*
X147508095Y-43833333D01*
X147460476Y-43785714D01*
X147412857Y-43690476D01*
X147412857Y-43642857D01*
X147460476Y-43547619D01*
X147508095Y-43500000D01*
X147603333Y-43452380D01*
X147793809Y-43452380D01*
X147889047Y-43500000D01*
X147936666Y-43547619D01*
X147984285Y-43642857D01*
X147984285Y-43690476D01*
X147936666Y-43785714D01*
X147889047Y-43833333D01*
X147793809Y-43880952D01*
X147603333Y-43880952D01*
X147508095Y-43928571D01*
X147460476Y-43976190D01*
X147412857Y-44071428D01*
X147412857Y-44261904D01*
X147460476Y-44357142D01*
X147508095Y-44404761D01*
X147603333Y-44452380D01*
X147793809Y-44452380D01*
X147889047Y-44404761D01*
X147936666Y-44357142D01*
X147984285Y-44261904D01*
X147984285Y-44071428D01*
X147936666Y-43976190D01*
X147889047Y-43928571D01*
X147793809Y-43880952D01*
X108603333Y-44452380D02*
X108603333Y-43452380D01*
X108841428Y-43452380D01*
X108984285Y-43500000D01*
X109079523Y-43595238D01*
X109127142Y-43690476D01*
X109174761Y-43880952D01*
X109174761Y-44023809D01*
X109127142Y-44214285D01*
X109079523Y-44309523D01*
X108984285Y-44404761D01*
X108841428Y-44452380D01*
X108603333Y-44452380D01*
X110127142Y-44452380D02*
X109555714Y-44452380D01*
X109841428Y-44452380D02*
X109841428Y-43452380D01*
X109746190Y-43595238D01*
X109650952Y-43690476D01*
X109555714Y-43738095D01*
X111079523Y-44452380D02*
X110508095Y-44452380D01*
X110793809Y-44452380D02*
X110793809Y-43452380D01*
X110698571Y-43595238D01*
X110603333Y-43690476D01*
X110508095Y-43738095D01*
X111650952Y-43880952D02*
X111555714Y-43833333D01*
X111508095Y-43785714D01*
X111460476Y-43690476D01*
X111460476Y-43642857D01*
X111508095Y-43547619D01*
X111555714Y-43500000D01*
X111650952Y-43452380D01*
X111841428Y-43452380D01*
X111936666Y-43500000D01*
X111984285Y-43547619D01*
X112031904Y-43642857D01*
X112031904Y-43690476D01*
X111984285Y-43785714D01*
X111936666Y-43833333D01*
X111841428Y-43880952D01*
X111650952Y-43880952D01*
X111555714Y-43928571D01*
X111508095Y-43976190D01*
X111460476Y-44071428D01*
X111460476Y-44261904D01*
X111508095Y-44357142D01*
X111555714Y-44404761D01*
X111650952Y-44452380D01*
X111841428Y-44452380D01*
X111936666Y-44404761D01*
X111984285Y-44357142D01*
X112031904Y-44261904D01*
X112031904Y-44071428D01*
X111984285Y-43976190D01*
X111936666Y-43928571D01*
X111841428Y-43880952D01*
X112365238Y-43452380D02*
X113031904Y-43452380D01*
X112603333Y-44452380D01*
X178603333Y-44452380D02*
X178603333Y-43452380D01*
X178841428Y-43452380D01*
X178984285Y-43500000D01*
X179079523Y-43595238D01*
X179127142Y-43690476D01*
X179174761Y-43880952D01*
X179174761Y-44023809D01*
X179127142Y-44214285D01*
X179079523Y-44309523D01*
X178984285Y-44404761D01*
X178841428Y-44452380D01*
X178603333Y-44452380D01*
X180127142Y-44452380D02*
X179555714Y-44452380D01*
X179841428Y-44452380D02*
X179841428Y-43452380D01*
X179746190Y-43595238D01*
X179650952Y-43690476D01*
X179555714Y-43738095D01*
X181079523Y-44452380D02*
X180508095Y-44452380D01*
X180793809Y-44452380D02*
X180793809Y-43452380D01*
X180698571Y-43595238D01*
X180603333Y-43690476D01*
X180508095Y-43738095D01*
X181650952Y-43880952D02*
X181555714Y-43833333D01*
X181508095Y-43785714D01*
X181460476Y-43690476D01*
X181460476Y-43642857D01*
X181508095Y-43547619D01*
X181555714Y-43500000D01*
X181650952Y-43452380D01*
X181841428Y-43452380D01*
X181936666Y-43500000D01*
X181984285Y-43547619D01*
X182031904Y-43642857D01*
X182031904Y-43690476D01*
X181984285Y-43785714D01*
X181936666Y-43833333D01*
X181841428Y-43880952D01*
X181650952Y-43880952D01*
X181555714Y-43928571D01*
X181508095Y-43976190D01*
X181460476Y-44071428D01*
X181460476Y-44261904D01*
X181508095Y-44357142D01*
X181555714Y-44404761D01*
X181650952Y-44452380D01*
X181841428Y-44452380D01*
X181936666Y-44404761D01*
X181984285Y-44357142D01*
X182031904Y-44261904D01*
X182031904Y-44071428D01*
X181984285Y-43976190D01*
X181936666Y-43928571D01*
X181841428Y-43880952D01*
X182889047Y-43452380D02*
X182698571Y-43452380D01*
X182603333Y-43500000D01*
X182555714Y-43547619D01*
X182460476Y-43690476D01*
X182412857Y-43880952D01*
X182412857Y-44261904D01*
X182460476Y-44357142D01*
X182508095Y-44404761D01*
X182603333Y-44452380D01*
X182793809Y-44452380D01*
X182889047Y-44404761D01*
X182936666Y-44357142D01*
X182984285Y-44261904D01*
X182984285Y-44023809D01*
X182936666Y-43928571D01*
X182889047Y-43880952D01*
X182793809Y-43833333D01*
X182603333Y-43833333D01*
X182508095Y-43880952D01*
X182460476Y-43928571D01*
X182412857Y-44023809D01*
X126103333Y-44452380D02*
X126103333Y-43452380D01*
X126341428Y-43452380D01*
X126484285Y-43500000D01*
X126579523Y-43595238D01*
X126627142Y-43690476D01*
X126674761Y-43880952D01*
X126674761Y-44023809D01*
X126627142Y-44214285D01*
X126579523Y-44309523D01*
X126484285Y-44404761D01*
X126341428Y-44452380D01*
X126103333Y-44452380D01*
X127627142Y-44452380D02*
X127055714Y-44452380D01*
X127341428Y-44452380D02*
X127341428Y-43452380D01*
X127246190Y-43595238D01*
X127150952Y-43690476D01*
X127055714Y-43738095D01*
X128579523Y-44452380D02*
X128008095Y-44452380D01*
X128293809Y-44452380D02*
X128293809Y-43452380D01*
X128198571Y-43595238D01*
X128103333Y-43690476D01*
X128008095Y-43738095D01*
X129150952Y-43880952D02*
X129055714Y-43833333D01*
X129008095Y-43785714D01*
X128960476Y-43690476D01*
X128960476Y-43642857D01*
X129008095Y-43547619D01*
X129055714Y-43500000D01*
X129150952Y-43452380D01*
X129341428Y-43452380D01*
X129436666Y-43500000D01*
X129484285Y-43547619D01*
X129531904Y-43642857D01*
X129531904Y-43690476D01*
X129484285Y-43785714D01*
X129436666Y-43833333D01*
X129341428Y-43880952D01*
X129150952Y-43880952D01*
X129055714Y-43928571D01*
X129008095Y-43976190D01*
X128960476Y-44071428D01*
X128960476Y-44261904D01*
X129008095Y-44357142D01*
X129055714Y-44404761D01*
X129150952Y-44452380D01*
X129341428Y-44452380D01*
X129436666Y-44404761D01*
X129484285Y-44357142D01*
X129531904Y-44261904D01*
X129531904Y-44071428D01*
X129484285Y-43976190D01*
X129436666Y-43928571D01*
X129341428Y-43880952D01*
X129865238Y-43452380D02*
X130484285Y-43452380D01*
X130150952Y-43833333D01*
X130293809Y-43833333D01*
X130389047Y-43880952D01*
X130436666Y-43928571D01*
X130484285Y-44023809D01*
X130484285Y-44261904D01*
X130436666Y-44357142D01*
X130389047Y-44404761D01*
X130293809Y-44452380D01*
X130008095Y-44452380D01*
X129912857Y-44404761D01*
X129865238Y-44357142D01*
X91103333Y-44452380D02*
X91103333Y-43452380D01*
X91341428Y-43452380D01*
X91484285Y-43500000D01*
X91579523Y-43595238D01*
X91627142Y-43690476D01*
X91674761Y-43880952D01*
X91674761Y-44023809D01*
X91627142Y-44214285D01*
X91579523Y-44309523D01*
X91484285Y-44404761D01*
X91341428Y-44452380D01*
X91103333Y-44452380D01*
X92627142Y-44452380D02*
X92055714Y-44452380D01*
X92341428Y-44452380D02*
X92341428Y-43452380D01*
X92246190Y-43595238D01*
X92150952Y-43690476D01*
X92055714Y-43738095D01*
X93579523Y-44452380D02*
X93008095Y-44452380D01*
X93293809Y-44452380D02*
X93293809Y-43452380D01*
X93198571Y-43595238D01*
X93103333Y-43690476D01*
X93008095Y-43738095D01*
X94150952Y-43880952D02*
X94055714Y-43833333D01*
X94008095Y-43785714D01*
X93960476Y-43690476D01*
X93960476Y-43642857D01*
X94008095Y-43547619D01*
X94055714Y-43500000D01*
X94150952Y-43452380D01*
X94341428Y-43452380D01*
X94436666Y-43500000D01*
X94484285Y-43547619D01*
X94531904Y-43642857D01*
X94531904Y-43690476D01*
X94484285Y-43785714D01*
X94436666Y-43833333D01*
X94341428Y-43880952D01*
X94150952Y-43880952D01*
X94055714Y-43928571D01*
X94008095Y-43976190D01*
X93960476Y-44071428D01*
X93960476Y-44261904D01*
X94008095Y-44357142D01*
X94055714Y-44404761D01*
X94150952Y-44452380D01*
X94341428Y-44452380D01*
X94436666Y-44404761D01*
X94484285Y-44357142D01*
X94531904Y-44261904D01*
X94531904Y-44071428D01*
X94484285Y-43976190D01*
X94436666Y-43928571D01*
X94341428Y-43880952D01*
X94912857Y-43547619D02*
X94960476Y-43500000D01*
X95055714Y-43452380D01*
X95293809Y-43452380D01*
X95389047Y-43500000D01*
X95436666Y-43547619D01*
X95484285Y-43642857D01*
X95484285Y-43738095D01*
X95436666Y-43880952D01*
X94865238Y-44452380D01*
X95484285Y-44452380D01*
X24603333Y-29452380D02*
X24603333Y-28452380D01*
X24841428Y-28452380D01*
X24984285Y-28500000D01*
X25079523Y-28595238D01*
X25127142Y-28690476D01*
X25174761Y-28880952D01*
X25174761Y-29023809D01*
X25127142Y-29214285D01*
X25079523Y-29309523D01*
X24984285Y-29404761D01*
X24841428Y-29452380D01*
X24603333Y-29452380D01*
X26127142Y-29452380D02*
X25555714Y-29452380D01*
X25841428Y-29452380D02*
X25841428Y-28452380D01*
X25746190Y-28595238D01*
X25650952Y-28690476D01*
X25555714Y-28738095D01*
X26746190Y-28452380D02*
X26841428Y-28452380D01*
X26936666Y-28500000D01*
X26984285Y-28547619D01*
X27031904Y-28642857D01*
X27079523Y-28833333D01*
X27079523Y-29071428D01*
X27031904Y-29261904D01*
X26984285Y-29357142D01*
X26936666Y-29404761D01*
X26841428Y-29452380D01*
X26746190Y-29452380D01*
X26650952Y-29404761D01*
X26603333Y-29357142D01*
X26555714Y-29261904D01*
X26508095Y-29071428D01*
X26508095Y-28833333D01*
X26555714Y-28642857D01*
X26603333Y-28547619D01*
X26650952Y-28500000D01*
X26746190Y-28452380D01*
X28031904Y-29452380D02*
X27460476Y-29452380D01*
X27746190Y-29452380D02*
X27746190Y-28452380D01*
X27650952Y-28595238D01*
X27555714Y-28690476D01*
X27460476Y-28738095D01*
X28889047Y-28452380D02*
X28698571Y-28452380D01*
X28603333Y-28500000D01*
X28555714Y-28547619D01*
X28460476Y-28690476D01*
X28412857Y-28880952D01*
X28412857Y-29261904D01*
X28460476Y-29357142D01*
X28508095Y-29404761D01*
X28603333Y-29452380D01*
X28793809Y-29452380D01*
X28889047Y-29404761D01*
X28936666Y-29357142D01*
X28984285Y-29261904D01*
X28984285Y-29023809D01*
X28936666Y-28928571D01*
X28889047Y-28880952D01*
X28793809Y-28833333D01*
X28603333Y-28833333D01*
X28508095Y-28880952D01*
X28460476Y-28928571D01*
X28412857Y-29023809D01*
X56103333Y-44452380D02*
X56103333Y-43452380D01*
X56341428Y-43452380D01*
X56484285Y-43500000D01*
X56579523Y-43595238D01*
X56627142Y-43690476D01*
X56674761Y-43880952D01*
X56674761Y-44023809D01*
X56627142Y-44214285D01*
X56579523Y-44309523D01*
X56484285Y-44404761D01*
X56341428Y-44452380D01*
X56103333Y-44452380D01*
X57627142Y-44452380D02*
X57055714Y-44452380D01*
X57341428Y-44452380D02*
X57341428Y-43452380D01*
X57246190Y-43595238D01*
X57150952Y-43690476D01*
X57055714Y-43738095D01*
X58579523Y-44452380D02*
X58008095Y-44452380D01*
X58293809Y-44452380D02*
X58293809Y-43452380D01*
X58198571Y-43595238D01*
X58103333Y-43690476D01*
X58008095Y-43738095D01*
X59150952Y-43880952D02*
X59055714Y-43833333D01*
X59008095Y-43785714D01*
X58960476Y-43690476D01*
X58960476Y-43642857D01*
X59008095Y-43547619D01*
X59055714Y-43500000D01*
X59150952Y-43452380D01*
X59341428Y-43452380D01*
X59436666Y-43500000D01*
X59484285Y-43547619D01*
X59531904Y-43642857D01*
X59531904Y-43690476D01*
X59484285Y-43785714D01*
X59436666Y-43833333D01*
X59341428Y-43880952D01*
X59150952Y-43880952D01*
X59055714Y-43928571D01*
X59008095Y-43976190D01*
X58960476Y-44071428D01*
X58960476Y-44261904D01*
X59008095Y-44357142D01*
X59055714Y-44404761D01*
X59150952Y-44452380D01*
X59341428Y-44452380D01*
X59436666Y-44404761D01*
X59484285Y-44357142D01*
X59531904Y-44261904D01*
X59531904Y-44071428D01*
X59484285Y-43976190D01*
X59436666Y-43928571D01*
X59341428Y-43880952D01*
X60389047Y-43785714D02*
X60389047Y-44452380D01*
X60150952Y-43404761D02*
X59912857Y-44119047D01*
X60531904Y-44119047D01*
%LPC*%
D13*
X25500000Y-32500000D03*
X29500000Y-38000000D03*
D14*
X207000000Y-56050000D03*
X207000000Y-57950000D03*
D15*
X206000000Y-52050000D03*
X206000000Y-53950000D03*
X208000000Y-53000000D03*
D14*
X189500000Y-56050000D03*
X189500000Y-57950000D03*
X172000000Y-56050000D03*
X172000000Y-57950000D03*
X154500000Y-56050000D03*
X154500000Y-57950000D03*
X137000000Y-56050000D03*
X137000000Y-57950000D03*
X119500000Y-56050000D03*
X119500000Y-57950000D03*
X102000000Y-56050000D03*
X102000000Y-57950000D03*
X84500000Y-56050000D03*
X84500000Y-57950000D03*
X67000000Y-56050000D03*
X67000000Y-57950000D03*
D15*
X188500000Y-52050000D03*
X188500000Y-53950000D03*
X190500000Y-53000000D03*
X171000000Y-52050000D03*
X171000000Y-53950000D03*
X173000000Y-53000000D03*
X153500000Y-52050000D03*
X153500000Y-53950000D03*
X155500000Y-53000000D03*
X136000000Y-52050000D03*
X136000000Y-53950000D03*
X138000000Y-53000000D03*
X118500000Y-52050000D03*
X118500000Y-53950000D03*
X120500000Y-53000000D03*
X101000000Y-52050000D03*
X101000000Y-53950000D03*
X103000000Y-53000000D03*
X83500000Y-52050000D03*
X83500000Y-53950000D03*
X85500000Y-53000000D03*
X66000000Y-52050000D03*
X66000000Y-53950000D03*
X68000000Y-53000000D03*
D16*
X208000000Y-47000000D03*
X206100000Y-47000000D03*
D17*
X61250000Y-57200000D03*
X57550000Y-58600000D03*
X54950000Y-56000000D03*
X58750000Y-54500000D03*
X201250000Y-57200000D03*
X197550000Y-58600000D03*
X194950000Y-56000000D03*
X198750000Y-54500000D03*
X96250000Y-57200000D03*
X92550000Y-58600000D03*
X89950000Y-56000000D03*
X93750000Y-54500000D03*
X113750000Y-57200000D03*
X110050000Y-58600000D03*
X107450000Y-56000000D03*
X111250000Y-54500000D03*
X148750000Y-57200000D03*
X145050000Y-58600000D03*
X142450000Y-56000000D03*
X146250000Y-54500000D03*
X166250000Y-57200000D03*
X162550000Y-58600000D03*
X159950000Y-56000000D03*
X163750000Y-54500000D03*
X131250000Y-57200000D03*
X127550000Y-58600000D03*
X124950000Y-56000000D03*
X128750000Y-54500000D03*
X183750000Y-57200000D03*
X180050000Y-58600000D03*
X177450000Y-56000000D03*
X181250000Y-54500000D03*
X78750000Y-57200000D03*
X75050000Y-58600000D03*
X72450000Y-56000000D03*
X76250000Y-54500000D03*
D18*
X74500000Y-47000000D03*
D19*
X77040000Y-47000000D03*
D20*
G36*
X29100000Y-57242000D02*
G01*
X28500000Y-58092000D01*
X27500000Y-58092000D01*
X26900000Y-57242000D01*
X29100000Y-57242000D01*
G37*
D21*
X29500000Y-53520000D03*
D22*
X28000000Y-53666500D03*
D21*
X26500000Y-53520000D03*
D23*
X28000000Y-56333500D03*
D20*
G36*
X26900000Y-55423800D02*
G01*
X27600000Y-54423800D01*
X28400000Y-54423800D01*
X29100000Y-55423800D01*
X26900000Y-55423800D01*
G37*
D24*
X47750000Y-58800000D03*
X47750000Y-58000000D03*
X47750000Y-57200000D03*
X47750000Y-56400000D03*
X47750000Y-55600000D03*
X47750000Y-54800000D03*
X47750000Y-54000000D03*
X47750000Y-53200000D03*
D25*
X46300000Y-51750000D03*
X45500000Y-51750000D03*
X44700000Y-51750000D03*
X43900000Y-51750000D03*
X43100000Y-51750000D03*
X42300000Y-51750000D03*
X41500000Y-51750000D03*
X40700000Y-51750000D03*
D24*
X39250000Y-53200000D03*
X39250000Y-54000000D03*
X39250000Y-54800000D03*
X39250000Y-55600000D03*
X39250000Y-56400000D03*
X39250000Y-57200000D03*
X39250000Y-58000000D03*
X39250000Y-58800000D03*
D25*
X40700000Y-60250000D03*
X41500000Y-60250000D03*
X42300000Y-60250000D03*
X43100000Y-60250000D03*
X43900000Y-60250000D03*
X44700000Y-60250000D03*
X45500000Y-60250000D03*
X46300000Y-60250000D03*
D16*
X37100000Y-46500000D03*
X39000000Y-46500000D03*
D26*
X39000000Y-38500000D03*
D27*
X41540000Y-38500000D03*
X39000000Y-41040000D03*
X41540000Y-41040000D03*
X39000000Y-43580000D03*
X41540000Y-43580000D03*
D28*
X34000000Y-53500000D03*
X34000000Y-55500000D03*
D29*
X26500000Y-51000000D03*
X28500000Y-51000000D03*
D28*
X32000000Y-53500000D03*
X32000000Y-55500000D03*
X49950000Y-55000000D03*
X49950000Y-57000000D03*
X36500000Y-53500000D03*
X36500000Y-51500000D03*
X36500000Y-56100000D03*
X36500000Y-58100000D03*
D13*
X218000000Y-50000000D03*
X214000000Y-37000000D03*
X218000000Y-42500000D03*
X23500000Y-45500000D03*
G36*
G01*
X104160000Y-38000000D02*
X104160000Y-36000000D01*
G75*
G02*
X104660000Y-35500000I500000J0D01*
G01*
X105660000Y-35500000D01*
G75*
G02*
X106160000Y-36000000I0J-500000D01*
G01*
X106160000Y-38000000D01*
G75*
G02*
X105660000Y-38500000I-500000J0D01*
G01*
X104660000Y-38500000D01*
G75*
G02*
X104160000Y-38000000I0J500000D01*
G01*
G37*
G36*
G01*
X101620000Y-38000000D02*
X101620000Y-36000000D01*
G75*
G02*
X102120000Y-35500000I500000J0D01*
G01*
X103120000Y-35500000D01*
G75*
G02*
X103620000Y-36000000I0J-500000D01*
G01*
X103620000Y-38000000D01*
G75*
G02*
X103120000Y-38500000I-500000J0D01*
G01*
X102120000Y-38500000D01*
G75*
G02*
X101620000Y-38000000I0J500000D01*
G01*
G37*
G36*
G01*
X99080000Y-38000000D02*
X99080000Y-36000000D01*
G75*
G02*
X99580000Y-35500000I500000J0D01*
G01*
X100580000Y-35500000D01*
G75*
G02*
X101080000Y-36000000I0J-500000D01*
G01*
X101080000Y-38000000D01*
G75*
G02*
X100580000Y-38500000I-500000J0D01*
G01*
X99580000Y-38500000D01*
G75*
G02*
X99080000Y-38000000I0J500000D01*
G01*
G37*
G36*
G01*
X96540000Y-38000000D02*
X96540000Y-36000000D01*
G75*
G02*
X97040000Y-35500000I500000J0D01*
G01*
X98040000Y-35500000D01*
G75*
G02*
X98540000Y-36000000I0J-500000D01*
G01*
X98540000Y-38000000D01*
G75*
G02*
X98040000Y-38500000I-500000J0D01*
G01*
X97040000Y-38500000D01*
G75*
G02*
X96540000Y-38000000I0J500000D01*
G01*
G37*
G36*
G01*
X94000000Y-38000000D02*
X94000000Y-36000000D01*
G75*
G02*
X94500000Y-35500000I500000J0D01*
G01*
X95500000Y-35500000D01*
G75*
G02*
X96000000Y-36000000I0J-500000D01*
G01*
X96000000Y-38000000D01*
G75*
G02*
X95500000Y-38500000I-500000J0D01*
G01*
X94500000Y-38500000D01*
G75*
G02*
X94000000Y-38000000I0J500000D01*
G01*
G37*
G36*
G01*
X121000000Y-38000000D02*
X121000000Y-36000000D01*
G75*
G02*
X121500000Y-35500000I500000J0D01*
G01*
X122500000Y-35500000D01*
G75*
G02*
X123000000Y-36000000I0J-500000D01*
G01*
X123000000Y-38000000D01*
G75*
G02*
X122500000Y-38500000I-500000J0D01*
G01*
X121500000Y-38500000D01*
G75*
G02*
X121000000Y-38000000I0J500000D01*
G01*
G37*
G36*
G01*
X118460000Y-38000000D02*
X118460000Y-36000000D01*
G75*
G02*
X118960000Y-35500000I500000J0D01*
G01*
X119960000Y-35500000D01*
G75*
G02*
X120460000Y-36000000I0J-500000D01*
G01*
X120460000Y-38000000D01*
G75*
G02*
X119960000Y-38500000I-500000J0D01*
G01*
X118960000Y-38500000D01*
G75*
G02*
X118460000Y-38000000I0J500000D01*
G01*
G37*
G36*
G01*
X115920000Y-38000000D02*
X115920000Y-36000000D01*
G75*
G02*
X116420000Y-35500000I500000J0D01*
G01*
X117420000Y-35500000D01*
G75*
G02*
X117920000Y-36000000I0J-500000D01*
G01*
X117920000Y-38000000D01*
G75*
G02*
X117420000Y-38500000I-500000J0D01*
G01*
X116420000Y-38500000D01*
G75*
G02*
X115920000Y-38000000I0J500000D01*
G01*
G37*
G36*
G01*
X113380000Y-38000000D02*
X113380000Y-36000000D01*
G75*
G02*
X113880000Y-35500000I500000J0D01*
G01*
X114880000Y-35500000D01*
G75*
G02*
X115380000Y-36000000I0J-500000D01*
G01*
X115380000Y-38000000D01*
G75*
G02*
X114880000Y-38500000I-500000J0D01*
G01*
X113880000Y-38500000D01*
G75*
G02*
X113380000Y-38000000I0J500000D01*
G01*
G37*
G36*
G01*
X110840000Y-38000000D02*
X110840000Y-36000000D01*
G75*
G02*
X111340000Y-35500000I500000J0D01*
G01*
X112340000Y-35500000D01*
G75*
G02*
X112840000Y-36000000I0J-500000D01*
G01*
X112840000Y-38000000D01*
G75*
G02*
X112340000Y-38500000I-500000J0D01*
G01*
X111340000Y-38500000D01*
G75*
G02*
X110840000Y-38000000I0J500000D01*
G01*
G37*
G36*
G01*
X148000000Y-38000000D02*
X148000000Y-36000000D01*
G75*
G02*
X148500000Y-35500000I500000J0D01*
G01*
X149500000Y-35500000D01*
G75*
G02*
X150000000Y-36000000I0J-500000D01*
G01*
X150000000Y-38000000D01*
G75*
G02*
X149500000Y-38500000I-500000J0D01*
G01*
X148500000Y-38500000D01*
G75*
G02*
X148000000Y-38000000I0J500000D01*
G01*
G37*
G36*
G01*
X145460000Y-38000000D02*
X145460000Y-36000000D01*
G75*
G02*
X145960000Y-35500000I500000J0D01*
G01*
X146960000Y-35500000D01*
G75*
G02*
X147460000Y-36000000I0J-500000D01*
G01*
X147460000Y-38000000D01*
G75*
G02*
X146960000Y-38500000I-500000J0D01*
G01*
X145960000Y-38500000D01*
G75*
G02*
X145460000Y-38000000I0J500000D01*
G01*
G37*
G36*
G01*
X142920000Y-38000000D02*
X142920000Y-36000000D01*
G75*
G02*
X143420000Y-35500000I500000J0D01*
G01*
X144420000Y-35500000D01*
G75*
G02*
X144920000Y-36000000I0J-500000D01*
G01*
X144920000Y-38000000D01*
G75*
G02*
X144420000Y-38500000I-500000J0D01*
G01*
X143420000Y-38500000D01*
G75*
G02*
X142920000Y-38000000I0J500000D01*
G01*
G37*
G36*
G01*
X140380000Y-38000000D02*
X140380000Y-36000000D01*
G75*
G02*
X140880000Y-35500000I500000J0D01*
G01*
X141880000Y-35500000D01*
G75*
G02*
X142380000Y-36000000I0J-500000D01*
G01*
X142380000Y-38000000D01*
G75*
G02*
X141880000Y-38500000I-500000J0D01*
G01*
X140880000Y-38500000D01*
G75*
G02*
X140380000Y-38000000I0J500000D01*
G01*
G37*
G36*
G01*
X137840000Y-38000000D02*
X137840000Y-36000000D01*
G75*
G02*
X138340000Y-35500000I500000J0D01*
G01*
X139340000Y-35500000D01*
G75*
G02*
X139840000Y-36000000I0J-500000D01*
G01*
X139840000Y-38000000D01*
G75*
G02*
X139340000Y-38500000I-500000J0D01*
G01*
X138340000Y-38500000D01*
G75*
G02*
X137840000Y-38000000I0J500000D01*
G01*
G37*
G36*
G01*
X135300000Y-38000000D02*
X135300000Y-36000000D01*
G75*
G02*
X135800000Y-35500000I500000J0D01*
G01*
X136800000Y-35500000D01*
G75*
G02*
X137300000Y-36000000I0J-500000D01*
G01*
X137300000Y-38000000D01*
G75*
G02*
X136800000Y-38500000I-500000J0D01*
G01*
X135800000Y-38500000D01*
G75*
G02*
X135300000Y-38000000I0J500000D01*
G01*
G37*
G36*
G01*
X132760000Y-38000000D02*
X132760000Y-36000000D01*
G75*
G02*
X133260000Y-35500000I500000J0D01*
G01*
X134260000Y-35500000D01*
G75*
G02*
X134760000Y-36000000I0J-500000D01*
G01*
X134760000Y-38000000D01*
G75*
G02*
X134260000Y-38500000I-500000J0D01*
G01*
X133260000Y-38500000D01*
G75*
G02*
X132760000Y-38000000I0J500000D01*
G01*
G37*
G36*
G01*
X130220000Y-38000000D02*
X130220000Y-36000000D01*
G75*
G02*
X130720000Y-35500000I500000J0D01*
G01*
X131720000Y-35500000D01*
G75*
G02*
X132220000Y-36000000I0J-500000D01*
G01*
X132220000Y-38000000D01*
G75*
G02*
X131720000Y-38500000I-500000J0D01*
G01*
X130720000Y-38500000D01*
G75*
G02*
X130220000Y-38000000I0J500000D01*
G01*
G37*
G36*
G01*
X127680000Y-38000000D02*
X127680000Y-36000000D01*
G75*
G02*
X128180000Y-35500000I500000J0D01*
G01*
X129180000Y-35500000D01*
G75*
G02*
X129680000Y-36000000I0J-500000D01*
G01*
X129680000Y-38000000D01*
G75*
G02*
X129180000Y-38500000I-500000J0D01*
G01*
X128180000Y-38500000D01*
G75*
G02*
X127680000Y-38000000I0J500000D01*
G01*
G37*
D18*
X197000000Y-47000000D03*
D19*
X199540000Y-47000000D03*
D18*
X162000000Y-47000000D03*
D19*
X164540000Y-47000000D03*
D18*
X144500000Y-47000000D03*
D19*
X147040000Y-47000000D03*
D18*
X109500000Y-47000000D03*
D19*
X112040000Y-47000000D03*
D18*
X179500000Y-47000000D03*
D19*
X182040000Y-47000000D03*
D18*
X127000000Y-47000000D03*
D19*
X129540000Y-47000000D03*
D18*
X92000000Y-47000000D03*
D19*
X94540000Y-47000000D03*
D18*
X25500000Y-23000000D03*
D19*
X28040000Y-23000000D03*
D30*
X176000000Y-37000000D03*
X84500000Y-37000000D03*
D18*
X57000000Y-47000000D03*
D19*
X59540000Y-47000000D03*
M02*
