G04 #@! TF.GenerationSoftware,KiCad,Pcbnew,(5.1.7)-1*
G04 #@! TF.CreationDate,2022-12-29T19:39:36+01:00*
G04 #@! TF.ProjectId,Klang-Modul,4b6c616e-672d-44d6-9f64-756c2e6b6963,rev?*
G04 #@! TF.SameCoordinates,Original*
G04 #@! TF.FileFunction,Copper,L2,Bot*
G04 #@! TF.FilePolarity,Positive*
%FSLAX46Y46*%
G04 Gerber Fmt 4.6, Leading zero omitted, Abs format (unit mm)*
G04 Created by KiCad (PCBNEW (5.1.7)-1) date 2022-12-29 19:39:36*
%MOMM*%
%LPD*%
G01*
G04 APERTURE LIST*
G04 #@! TA.AperFunction,ComponentPad*
%ADD10C,1.600000*%
G04 #@! TD*
G04 #@! TA.AperFunction,ComponentPad*
%ADD11R,1.600000X1.600000*%
G04 #@! TD*
G04 #@! TA.AperFunction,ComponentPad*
%ADD12C,3.500000*%
G04 #@! TD*
G04 #@! TA.AperFunction,ComponentPad*
%ADD13C,2.000000*%
G04 #@! TD*
G04 #@! TA.AperFunction,ComponentPad*
%ADD14R,2.000000X2.000000*%
G04 #@! TD*
G04 #@! TA.AperFunction,ComponentPad*
%ADD15O,1.600000X1.600000*%
G04 #@! TD*
G04 #@! TA.AperFunction,ComponentPad*
%ADD16O,2.000000X1.500000*%
G04 #@! TD*
G04 #@! TA.AperFunction,ComponentPad*
%ADD17O,1.500000X2.000000*%
G04 #@! TD*
G04 #@! TA.AperFunction,ViaPad*
%ADD18C,0.800000*%
G04 #@! TD*
G04 #@! TA.AperFunction,Conductor*
%ADD19C,0.500000*%
G04 #@! TD*
G04 #@! TA.AperFunction,Conductor*
%ADD20C,1.000000*%
G04 #@! TD*
G04 APERTURE END LIST*
D10*
X69750000Y-36000000D03*
X64750000Y-36000000D03*
X88750000Y-44000000D03*
X93750000Y-44000000D03*
X88750000Y-36000000D03*
X93750000Y-36000000D03*
X69750000Y-44000000D03*
X64750000Y-44000000D03*
G04 #@! TA.AperFunction,ComponentPad*
G36*
G01*
X51000000Y-49280000D02*
X53000000Y-49280000D01*
G75*
G02*
X53500000Y-49780000I0J-500000D01*
G01*
X53500000Y-50780000D01*
G75*
G02*
X53000000Y-51280000I-500000J0D01*
G01*
X51000000Y-51280000D01*
G75*
G02*
X50500000Y-50780000I0J500000D01*
G01*
X50500000Y-49780000D01*
G75*
G02*
X51000000Y-49280000I500000J0D01*
G01*
G37*
G04 #@! TD.AperFunction*
G04 #@! TA.AperFunction,ComponentPad*
G36*
G01*
X51000000Y-46740000D02*
X53000000Y-46740000D01*
G75*
G02*
X53500000Y-47240000I0J-500000D01*
G01*
X53500000Y-48240000D01*
G75*
G02*
X53000000Y-48740000I-500000J0D01*
G01*
X51000000Y-48740000D01*
G75*
G02*
X50500000Y-48240000I0J500000D01*
G01*
X50500000Y-47240000D01*
G75*
G02*
X51000000Y-46740000I500000J0D01*
G01*
G37*
G04 #@! TD.AperFunction*
G04 #@! TA.AperFunction,ComponentPad*
G36*
G01*
X51000000Y-44200000D02*
X53000000Y-44200000D01*
G75*
G02*
X53500000Y-44700000I0J-500000D01*
G01*
X53500000Y-45700000D01*
G75*
G02*
X53000000Y-46200000I-500000J0D01*
G01*
X51000000Y-46200000D01*
G75*
G02*
X50500000Y-45700000I0J500000D01*
G01*
X50500000Y-44700000D01*
G75*
G02*
X51000000Y-44200000I500000J0D01*
G01*
G37*
G04 #@! TD.AperFunction*
G04 #@! TA.AperFunction,ComponentPad*
G36*
G01*
X51000000Y-41660000D02*
X53000000Y-41660000D01*
G75*
G02*
X53500000Y-42160000I0J-500000D01*
G01*
X53500000Y-43160000D01*
G75*
G02*
X53000000Y-43660000I-500000J0D01*
G01*
X51000000Y-43660000D01*
G75*
G02*
X50500000Y-43160000I0J500000D01*
G01*
X50500000Y-42160000D01*
G75*
G02*
X51000000Y-41660000I500000J0D01*
G01*
G37*
G04 #@! TD.AperFunction*
G04 #@! TA.AperFunction,ComponentPad*
G36*
G01*
X51000000Y-36580000D02*
X53000000Y-36580000D01*
G75*
G02*
X53500000Y-37080000I0J-500000D01*
G01*
X53500000Y-38080000D01*
G75*
G02*
X53000000Y-38580000I-500000J0D01*
G01*
X51000000Y-38580000D01*
G75*
G02*
X50500000Y-38080000I0J500000D01*
G01*
X50500000Y-37080000D01*
G75*
G02*
X51000000Y-36580000I500000J0D01*
G01*
G37*
G04 #@! TD.AperFunction*
G04 #@! TA.AperFunction,ComponentPad*
G36*
G01*
X51000000Y-34040000D02*
X53000000Y-34040000D01*
G75*
G02*
X53500000Y-34540000I0J-500000D01*
G01*
X53500000Y-35540000D01*
G75*
G02*
X53000000Y-36040000I-500000J0D01*
G01*
X51000000Y-36040000D01*
G75*
G02*
X50500000Y-35540000I0J500000D01*
G01*
X50500000Y-34540000D01*
G75*
G02*
X51000000Y-34040000I500000J0D01*
G01*
G37*
G04 #@! TD.AperFunction*
G04 #@! TA.AperFunction,ComponentPad*
G36*
G01*
X51000000Y-31500000D02*
X53000000Y-31500000D01*
G75*
G02*
X53500000Y-32000000I0J-500000D01*
G01*
X53500000Y-33000000D01*
G75*
G02*
X53000000Y-33500000I-500000J0D01*
G01*
X51000000Y-33500000D01*
G75*
G02*
X50500000Y-33000000I0J500000D01*
G01*
X50500000Y-32000000D01*
G75*
G02*
X51000000Y-31500000I500000J0D01*
G01*
G37*
G04 #@! TD.AperFunction*
D11*
X59000000Y-59000000D03*
D10*
X59000000Y-56500000D03*
D11*
X59000000Y-73500000D03*
D10*
X59000000Y-71000000D03*
D12*
X148000000Y-83000000D03*
X148000000Y-90500000D03*
X153000000Y-83000000D03*
X153000000Y-90500000D03*
X143000000Y-90500000D03*
X143000000Y-83000000D03*
X105750000Y-83000000D03*
X105750000Y-90500000D03*
X115750000Y-90500000D03*
X115750000Y-83000000D03*
X110750000Y-90500000D03*
X110750000Y-83000000D03*
D10*
X59000000Y-42580000D03*
X59000000Y-37580000D03*
X91250000Y-52500000D03*
X91250000Y-57500000D03*
X59000000Y-47750000D03*
X59000000Y-52750000D03*
X91250000Y-67000000D03*
X91250000Y-72000000D03*
D13*
X151500000Y-62000000D03*
X151500000Y-54500000D03*
X106500000Y-54500000D03*
X106500000Y-62000000D03*
X114000000Y-62000000D03*
X114000000Y-54500000D03*
X136500000Y-62000000D03*
X136500000Y-54500000D03*
X99000000Y-54500000D03*
X99000000Y-62000000D03*
X121500000Y-62000000D03*
X121500000Y-54500000D03*
D14*
X46750000Y-57000000D03*
D13*
X46750000Y-62000000D03*
D10*
X52000000Y-69000000D03*
D15*
X41840000Y-69000000D03*
D16*
X79040000Y-55040000D03*
D17*
X76500000Y-52500000D03*
X76500000Y-57580000D03*
D16*
X86540000Y-55040000D03*
D17*
X84000000Y-52500000D03*
X84000000Y-57580000D03*
D16*
X79040000Y-69540000D03*
D17*
X76500000Y-67000000D03*
X76500000Y-72080000D03*
D16*
X86540000Y-69540000D03*
D17*
X84000000Y-67000000D03*
X84000000Y-72080000D03*
D10*
X71000000Y-50000000D03*
D15*
X71000000Y-60160000D03*
D10*
X82750000Y-38500000D03*
D15*
X82750000Y-48660000D03*
D10*
X144000000Y-43500000D03*
D15*
X144000000Y-53660000D03*
D10*
X106500000Y-38500000D03*
D15*
X106500000Y-48660000D03*
D10*
X114000000Y-48660000D03*
D15*
X114000000Y-38500000D03*
D10*
X75750000Y-38500000D03*
D15*
X75750000Y-48660000D03*
D10*
X129000000Y-43500000D03*
D15*
X129000000Y-53660000D03*
D10*
X136500000Y-48660000D03*
D15*
X136500000Y-38500000D03*
D10*
X99000000Y-38500000D03*
D15*
X99000000Y-48660000D03*
D10*
X121500000Y-48660000D03*
D15*
X121500000Y-38500000D03*
D10*
X144000000Y-57750000D03*
D15*
X144000000Y-67910000D03*
D10*
X129000000Y-57750000D03*
D15*
X129000000Y-67910000D03*
D10*
X65500000Y-50000000D03*
D15*
X65500000Y-60160000D03*
D10*
X91250000Y-61500000D03*
D15*
X81090000Y-61500000D03*
D10*
X134455000Y-72750000D03*
D15*
X124295000Y-72750000D03*
D10*
X71000000Y-64500000D03*
D15*
X71000000Y-74660000D03*
D10*
X65500000Y-64500000D03*
D15*
X65500000Y-74660000D03*
D10*
X52000000Y-74500000D03*
D15*
X41840000Y-74500000D03*
D10*
X91250000Y-76000000D03*
D15*
X81090000Y-76000000D03*
D10*
X134455000Y-78250000D03*
D15*
X124295000Y-78250000D03*
D10*
X151500000Y-48660000D03*
D15*
X151500000Y-38500000D03*
D18*
X148000000Y-72750000D03*
X110750000Y-72750000D03*
D19*
X134455000Y-78250000D02*
X134455000Y-83455000D01*
X134455000Y-83455000D02*
X139250000Y-88250000D01*
X139250000Y-88250000D02*
X139250000Y-92000000D01*
X139250000Y-92000000D02*
X141250000Y-94000000D01*
X144500000Y-94000000D02*
X148000000Y-90500000D01*
X141250000Y-94000000D02*
X144500000Y-94000000D01*
X81460000Y-69540000D02*
X84000000Y-72080000D01*
X79040000Y-69540000D02*
X81460000Y-69540000D01*
X70540000Y-69540000D02*
X65500000Y-64500000D01*
X79040000Y-69540000D02*
X70540000Y-69540000D01*
X148000000Y-83000000D02*
X148000000Y-72750000D01*
X81460000Y-55040000D02*
X84000000Y-57580000D01*
X79040000Y-55040000D02*
X81460000Y-55040000D01*
X70540000Y-55040000D02*
X65500000Y-50000000D01*
X79040000Y-55040000D02*
X70540000Y-55040000D01*
X129000000Y-53660000D02*
X129000000Y-57750000D01*
X126750000Y-60000000D02*
X126750000Y-69250000D01*
X129000000Y-57750000D02*
X126750000Y-60000000D01*
X127750000Y-70250000D02*
X136000000Y-70250000D01*
X126750000Y-69250000D02*
X127750000Y-70250000D01*
X136000000Y-70250000D02*
X138250000Y-72500000D01*
X138250000Y-72500000D02*
X138250000Y-85000000D01*
X143000000Y-89750000D02*
X143000000Y-90500000D01*
X138250000Y-85000000D02*
X143000000Y-89750000D01*
X144000000Y-53660000D02*
X144000000Y-57750000D01*
X143000000Y-83000000D02*
X143000000Y-71750000D01*
X143000000Y-71750000D02*
X141500000Y-70250000D01*
X141500000Y-60250000D02*
X144000000Y-57750000D01*
X141500000Y-70250000D02*
X141500000Y-60250000D01*
X91250000Y-67000000D02*
X76500000Y-67000000D01*
X73500000Y-67000000D02*
X71000000Y-64500000D01*
X76500000Y-67000000D02*
X73500000Y-67000000D01*
X69750000Y-44000000D02*
X69750000Y-45750000D01*
X69750000Y-45750000D02*
X72660000Y-48660000D01*
X75750000Y-48660000D02*
X72660000Y-48660000D01*
X77840000Y-48660000D02*
X82500000Y-44000000D01*
X75750000Y-48660000D02*
X77840000Y-48660000D01*
X88750000Y-44000000D02*
X82500000Y-44000000D01*
X104000000Y-43500000D02*
X99000000Y-38500000D01*
X129000000Y-43500000D02*
X104000000Y-43500000D01*
X99000000Y-38500000D02*
X95750000Y-38500000D01*
X93750000Y-40500000D02*
X93750000Y-44000000D01*
X95750000Y-38500000D02*
X93750000Y-40500000D01*
X79750000Y-74660000D02*
X81090000Y-76000000D01*
X71000000Y-74660000D02*
X79750000Y-74660000D01*
X53000000Y-73500000D02*
X52000000Y-74500000D01*
X59000000Y-73500000D02*
X53000000Y-73500000D01*
X60750000Y-73500000D02*
X59000000Y-73500000D01*
X63750000Y-76500000D02*
X60750000Y-73500000D01*
X69160000Y-76500000D02*
X63750000Y-76500000D01*
X71000000Y-74660000D02*
X69160000Y-76500000D01*
X84000000Y-52500000D02*
X76500000Y-52500000D01*
X84000000Y-52500000D02*
X91250000Y-52500000D01*
X73500000Y-52500000D02*
X71000000Y-50000000D01*
X76500000Y-52500000D02*
X73500000Y-52500000D01*
X88750000Y-36000000D02*
X69750000Y-36000000D01*
X88750000Y-39000000D02*
X88750000Y-36000000D01*
X91250000Y-41500000D02*
X88750000Y-39000000D01*
X91250000Y-52500000D02*
X91250000Y-41500000D01*
X84000000Y-49910000D02*
X82750000Y-48660000D01*
X84000000Y-52500000D02*
X84000000Y-49910000D01*
X106500000Y-38500000D02*
X109500000Y-41500000D01*
X142000000Y-41500000D02*
X144000000Y-43500000D01*
X109500000Y-41500000D02*
X142000000Y-41500000D01*
X104000000Y-36000000D02*
X106500000Y-38500000D01*
X93750000Y-36000000D02*
X104000000Y-36000000D01*
X79750000Y-60160000D02*
X81090000Y-61500000D01*
X71000000Y-60160000D02*
X79750000Y-60160000D01*
X57500000Y-59000000D02*
X59000000Y-59000000D01*
X52000000Y-64500000D02*
X57500000Y-59000000D01*
X52000000Y-69000000D02*
X52000000Y-64500000D01*
X63750000Y-62000000D02*
X60750000Y-59000000D01*
X69160000Y-62000000D02*
X63750000Y-62000000D01*
X60750000Y-59000000D02*
X59000000Y-59000000D01*
X71000000Y-60160000D02*
X69160000Y-62000000D01*
X130590000Y-67910000D02*
X136500000Y-62000000D01*
X129000000Y-67910000D02*
X130590000Y-67910000D01*
X136500000Y-48660000D02*
X136500000Y-54500000D01*
X136500000Y-54500000D02*
X139000000Y-57000000D01*
X153000000Y-90500000D02*
X153000000Y-88000000D01*
X153000000Y-88000000D02*
X151500000Y-86500000D01*
X151500000Y-86500000D02*
X142000000Y-86500000D01*
X139750000Y-57750000D02*
X139000000Y-57000000D01*
X139750000Y-84250000D02*
X139750000Y-57750000D01*
X142000000Y-86500000D02*
X139750000Y-84250000D01*
X145590000Y-67910000D02*
X151500000Y-62000000D01*
X144000000Y-67910000D02*
X145590000Y-67910000D01*
X151500000Y-48660000D02*
X151500000Y-54500000D01*
X153000000Y-83000000D02*
X153000000Y-66000000D01*
X153000000Y-66000000D02*
X154250000Y-64750000D01*
X154250000Y-57250000D02*
X151500000Y-54500000D01*
X154250000Y-64750000D02*
X154250000Y-57250000D01*
X121500000Y-69500000D02*
X121500000Y-62000000D01*
X119000000Y-72000000D02*
X121500000Y-69500000D01*
X119000000Y-87250000D02*
X119000000Y-72000000D01*
X115750000Y-90500000D02*
X119000000Y-87250000D01*
X121500000Y-48660000D02*
X121500000Y-54500000D01*
X99000000Y-48660000D02*
X99000000Y-54500000D01*
X102500000Y-75750000D02*
X99000000Y-72250000D01*
X102500000Y-87250000D02*
X102500000Y-75750000D01*
X99000000Y-62000000D02*
X99000000Y-72250000D01*
X102500000Y-87250000D02*
X105750000Y-90500000D01*
X115750000Y-83000000D02*
X115750000Y-75500000D01*
X114000000Y-73750000D02*
X114000000Y-62000000D01*
X115750000Y-75500000D02*
X114000000Y-73750000D01*
X114000000Y-48660000D02*
X114000000Y-54500000D01*
X106500000Y-48660000D02*
X106500000Y-54500000D01*
X106500000Y-62000000D02*
X106500000Y-73750000D01*
X105750000Y-74500000D02*
X105750000Y-83000000D01*
X106500000Y-73750000D02*
X105750000Y-74500000D01*
X97000000Y-72000000D02*
X101250000Y-76250000D01*
X101250000Y-90250000D02*
X104500000Y-93500000D01*
X101250000Y-76250000D02*
X101250000Y-90250000D01*
X110750000Y-93250000D02*
X110500000Y-93500000D01*
X110750000Y-90500000D02*
X110750000Y-93250000D01*
X110500000Y-93500000D02*
X115250000Y-93500000D01*
X104500000Y-93500000D02*
X110500000Y-93500000D01*
X116750000Y-93500000D02*
X117000000Y-93500000D01*
X116750000Y-93500000D02*
X115250000Y-93500000D01*
X117000000Y-93500000D02*
X120250000Y-90250000D01*
X120250000Y-90250000D02*
X120250000Y-80750000D01*
X122750000Y-78250000D02*
X124295000Y-78250000D01*
X120250000Y-80750000D02*
X122750000Y-78250000D01*
X88790000Y-69540000D02*
X91250000Y-72000000D01*
X86540000Y-69540000D02*
X88790000Y-69540000D01*
X91250000Y-72000000D02*
X91250000Y-76000000D01*
X91250000Y-72000000D02*
X97000000Y-72000000D01*
X110750000Y-83000000D02*
X110750000Y-62000000D01*
X88790000Y-55040000D02*
X91250000Y-57500000D01*
X86540000Y-55040000D02*
X88790000Y-55040000D01*
X106250000Y-57500000D02*
X110750000Y-62000000D01*
X91250000Y-57500000D02*
X106250000Y-57500000D01*
X91250000Y-57500000D02*
X91250000Y-61500000D01*
X52080000Y-37500000D02*
X52000000Y-37580000D01*
D20*
X41840000Y-74500000D02*
X41840000Y-69000000D01*
X52000000Y-37580000D02*
X59000000Y-37580000D01*
X56530000Y-50280000D02*
X59000000Y-52750000D01*
X52000000Y-50280000D02*
X56530000Y-50280000D01*
X48670000Y-37580000D02*
X52000000Y-37580000D01*
X41840000Y-44410000D02*
X48670000Y-37580000D01*
X59000000Y-52750000D02*
X59000000Y-56500000D01*
X43840000Y-71000000D02*
X59000000Y-71000000D01*
X41840000Y-69000000D02*
X43840000Y-71000000D01*
X73580000Y-72080000D02*
X76500000Y-72080000D01*
X72500000Y-71000000D02*
X73580000Y-72080000D01*
X65500000Y-71250000D02*
X65250000Y-71000000D01*
X65250000Y-71000000D02*
X72500000Y-71000000D01*
X65500000Y-74660000D02*
X65500000Y-71250000D01*
X59000000Y-71000000D02*
X65250000Y-71000000D01*
X76500000Y-57580000D02*
X73580000Y-57580000D01*
X72500000Y-56500000D02*
X73580000Y-57580000D01*
X65500000Y-56750000D02*
X65250000Y-56500000D01*
X65500000Y-60160000D02*
X65500000Y-56750000D01*
X65250000Y-56500000D02*
X72500000Y-56500000D01*
X59000000Y-56500000D02*
X65250000Y-56500000D01*
X46750000Y-62000000D02*
X49750000Y-62000000D01*
X55250000Y-56500000D02*
X59000000Y-56500000D01*
X49750000Y-62000000D02*
X55250000Y-56500000D01*
X41930000Y-62000000D02*
X41840000Y-61910000D01*
X46750000Y-62000000D02*
X41930000Y-62000000D01*
X41840000Y-61910000D02*
X41840000Y-44410000D01*
X41840000Y-69000000D02*
X41840000Y-61910000D01*
X52000000Y-45200000D02*
X59300000Y-45200000D01*
X59300000Y-45200000D02*
X66000000Y-38500000D01*
X46750000Y-57000000D02*
X46750000Y-47000000D01*
X48550000Y-45200000D02*
X52000000Y-45200000D01*
X46750000Y-47000000D02*
X48550000Y-45200000D01*
X82750000Y-38500000D02*
X66000000Y-38500000D01*
D19*
X58920000Y-42660000D02*
X59000000Y-42580000D01*
X52000000Y-42660000D02*
X58920000Y-42660000D01*
X59000000Y-42580000D02*
X60375000Y-41205000D01*
X64750000Y-36000000D02*
X62750000Y-36000000D01*
X62750000Y-36000000D02*
X61500000Y-37250000D01*
X61500000Y-40080000D02*
X60375000Y-41205000D01*
X61500000Y-37250000D02*
X61500000Y-40080000D01*
X58990000Y-47740000D02*
X59000000Y-47750000D01*
X52000000Y-47740000D02*
X58990000Y-47740000D01*
X61000000Y-47750000D02*
X64750000Y-44000000D01*
X59000000Y-47750000D02*
X61000000Y-47750000D01*
X52000000Y-35040000D02*
X55000000Y-35040000D01*
X114000000Y-38500000D02*
X115750000Y-40250000D01*
X149750000Y-40250000D02*
X151500000Y-38500000D01*
X115750000Y-40250000D02*
X149750000Y-40250000D01*
X106250000Y-34500000D02*
X110000000Y-34500000D01*
X110000000Y-34500000D02*
X114000000Y-38500000D01*
X106250000Y-34500000D02*
X107500000Y-34500000D01*
X55540000Y-34500000D02*
X55000000Y-35040000D01*
X57000000Y-34500000D02*
X55540000Y-34500000D01*
X56250000Y-34500000D02*
X57000000Y-34500000D01*
X57000000Y-34500000D02*
X106250000Y-34500000D01*
X57000000Y-33000000D02*
X57500000Y-33000000D01*
X55000000Y-32500000D02*
X52000000Y-32500000D01*
X121500000Y-38500000D02*
X136500000Y-38500000D01*
X116000000Y-33000000D02*
X121500000Y-38500000D01*
X108500000Y-33000000D02*
X116000000Y-33000000D01*
X108500000Y-33000000D02*
X111000000Y-33000000D01*
X55500000Y-33000000D02*
X55000000Y-32500000D01*
X58000000Y-33000000D02*
X55500000Y-33000000D01*
X57500000Y-33000000D02*
X58000000Y-33000000D01*
X58000000Y-33000000D02*
X108500000Y-33000000D01*
M02*
