M48
; DRILL file {KiCad (5.1.7)-1} date 12/29/22 19:39:37
; FORMAT={-:-/ absolute / metric / decimal}
; #@! TF.CreationDate,2022-12-29T19:39:37+01:00
; #@! TF.GenerationSoftware,Kicad,Pcbnew,(5.1.7)-1
; #@! TF.FileFunction,Plated,1,2,PTH
FMAT,2
METRIC
T1C0.400
T2C0.800
T3C1.000
T4C1.500
%
G90
G05
T1
X110.75Y-72.75
X148.0Y-72.75
T2
X88.75Y-44.0
X93.75Y-44.0
X114.0Y-38.5
X114.0Y-48.66
X124.295Y-72.75
X134.455Y-72.75
X84.0Y-52.5
X84.0Y-57.58
X86.54Y-55.04
X91.25Y-52.5
X91.25Y-57.5
X129.0Y-43.5
X129.0Y-53.66
X65.5Y-64.5
X65.5Y-74.66
X88.75Y-36.0
X93.75Y-36.0
X84.0Y-67.0
X84.0Y-72.08
X86.54Y-69.54
X121.5Y-38.5
X121.5Y-48.66
X91.25Y-67.0
X91.25Y-72.0
X59.0Y-56.5
X59.0Y-59.0
X64.75Y-36.0
X69.75Y-36.0
X81.09Y-76.0
X91.25Y-76.0
X82.75Y-38.5
X82.75Y-48.66
X129.0Y-57.75
X129.0Y-67.91
X151.5Y-38.5
X151.5Y-48.66
X106.5Y-38.5
X106.5Y-48.66
X81.09Y-61.5
X91.25Y-61.5
X76.5Y-52.5
X76.5Y-57.58
X79.04Y-55.04
X59.0Y-37.58
X59.0Y-42.58
X75.75Y-38.5
X75.75Y-48.66
X71.0Y-64.5
X71.0Y-74.66
X64.75Y-44.0
X69.75Y-44.0
X76.5Y-67.0
X76.5Y-72.08
X79.04Y-69.54
X99.0Y-38.5
X99.0Y-48.66
X59.0Y-47.75
X59.0Y-52.75
X136.5Y-38.5
X136.5Y-48.66
X41.84Y-74.5
X52.0Y-74.5
X71.0Y-50.0
X71.0Y-60.16
X144.0Y-57.75
X144.0Y-67.91
X59.0Y-71.0
X59.0Y-73.5
X124.295Y-78.25
X134.455Y-78.25
X144.0Y-43.5
X144.0Y-53.66
X65.5Y-50.0
X65.5Y-60.16
X41.84Y-69.0
X52.0Y-69.0
T3
X121.5Y-54.5
X121.5Y-62.0
X52.0Y-32.5
X52.0Y-35.04
X52.0Y-37.58
X52.0Y-42.66
X52.0Y-45.2
X52.0Y-47.74
X52.0Y-50.28
X151.5Y-54.5
X151.5Y-62.0
X114.0Y-54.5
X114.0Y-62.0
X99.0Y-54.5
X99.0Y-62.0
X46.75Y-57.0
X46.75Y-62.0
X106.5Y-54.5
X106.5Y-62.0
X136.5Y-54.5
X136.5Y-62.0
T4
X105.75Y-83.0
X105.75Y-90.5
X110.75Y-83.0
X110.75Y-90.5
X115.75Y-83.0
X115.75Y-90.5
X143.0Y-83.0
X143.0Y-90.5
X148.0Y-83.0
X148.0Y-90.5
X153.0Y-83.0
X153.0Y-90.5
T0
M30
