G04 #@! TF.GenerationSoftware,KiCad,Pcbnew,(5.1.7)-1*
G04 #@! TF.CreationDate,2022-09-30T23:46:52+02:00*
G04 #@! TF.ProjectId,Endstufe-Kopplung,456e6473-7475-4666-952d-4b6f70706c75,rev?*
G04 #@! TF.SameCoordinates,Original*
G04 #@! TF.FileFunction,Copper,L1,Top*
G04 #@! TF.FilePolarity,Positive*
%FSLAX46Y46*%
G04 Gerber Fmt 4.6, Leading zero omitted, Abs format (unit mm)*
G04 Created by KiCad (PCBNEW (5.1.7)-1) date 2022-09-30 23:46:52*
%MOMM*%
%LPD*%
G01*
G04 APERTURE LIST*
G04 #@! TA.AperFunction,NonConductor*
%ADD10C,0.254000*%
G04 #@! TD*
G04 #@! TA.AperFunction,NonConductor*
%ADD11C,0.100000*%
G04 #@! TD*
G04 APERTURE END LIST*
D10*
X33790000Y-24840000D02*
X25227000Y-24840000D01*
X25227000Y-17207909D01*
X26534350Y-17207909D01*
X26534350Y-17792091D01*
X26648318Y-18365048D01*
X26871875Y-18904762D01*
X27196429Y-19390492D01*
X27609508Y-19803571D01*
X28095238Y-20128125D01*
X28634952Y-20351682D01*
X29207909Y-20465650D01*
X29792091Y-20465650D01*
X30365048Y-20351682D01*
X30904762Y-20128125D01*
X31390492Y-19803571D01*
X31803571Y-19390492D01*
X32128125Y-18904762D01*
X32351682Y-18365048D01*
X32465650Y-17792091D01*
X32465650Y-17207909D01*
X32351682Y-16634952D01*
X32128125Y-16095238D01*
X31803571Y-15609508D01*
X31390492Y-15196429D01*
X30904762Y-14871875D01*
X30365048Y-14648318D01*
X29792091Y-14534350D01*
X29207909Y-14534350D01*
X28634952Y-14648318D01*
X28095238Y-14871875D01*
X27609508Y-15196429D01*
X27196429Y-15609508D01*
X26871875Y-16095238D01*
X26648318Y-16634952D01*
X26534350Y-17207909D01*
X25227000Y-17207909D01*
X25227000Y-13210000D01*
X33790001Y-13210000D01*
X33790000Y-24840000D01*
G04 #@! TA.AperFunction,NonConductor*
D11*
G36*
X33790000Y-24840000D02*
G01*
X25227000Y-24840000D01*
X25227000Y-17207909D01*
X26534350Y-17207909D01*
X26534350Y-17792091D01*
X26648318Y-18365048D01*
X26871875Y-18904762D01*
X27196429Y-19390492D01*
X27609508Y-19803571D01*
X28095238Y-20128125D01*
X28634952Y-20351682D01*
X29207909Y-20465650D01*
X29792091Y-20465650D01*
X30365048Y-20351682D01*
X30904762Y-20128125D01*
X31390492Y-19803571D01*
X31803571Y-19390492D01*
X32128125Y-18904762D01*
X32351682Y-18365048D01*
X32465650Y-17792091D01*
X32465650Y-17207909D01*
X32351682Y-16634952D01*
X32128125Y-16095238D01*
X31803571Y-15609508D01*
X31390492Y-15196429D01*
X30904762Y-14871875D01*
X30365048Y-14648318D01*
X29792091Y-14534350D01*
X29207909Y-14534350D01*
X28634952Y-14648318D01*
X28095238Y-14871875D01*
X27609508Y-15196429D01*
X27196429Y-15609508D01*
X26871875Y-16095238D01*
X26648318Y-16634952D01*
X26534350Y-17207909D01*
X25227000Y-17207909D01*
X25227000Y-13210000D01*
X33790001Y-13210000D01*
X33790000Y-24840000D01*
G37*
G04 #@! TD.AperFunction*
D10*
X21773000Y-24840000D02*
X13210000Y-24840000D01*
X13210000Y-17207909D01*
X14534350Y-17207909D01*
X14534350Y-17792091D01*
X14648318Y-18365048D01*
X14871875Y-18904762D01*
X15196429Y-19390492D01*
X15609508Y-19803571D01*
X16095238Y-20128125D01*
X16634952Y-20351682D01*
X17207909Y-20465650D01*
X17792091Y-20465650D01*
X18365048Y-20351682D01*
X18904762Y-20128125D01*
X19390492Y-19803571D01*
X19803571Y-19390492D01*
X20128125Y-18904762D01*
X20351682Y-18365048D01*
X20465650Y-17792091D01*
X20465650Y-17207909D01*
X20351682Y-16634952D01*
X20128125Y-16095238D01*
X19803571Y-15609508D01*
X19390492Y-15196429D01*
X18904762Y-14871875D01*
X18365048Y-14648318D01*
X17792091Y-14534350D01*
X17207909Y-14534350D01*
X16634952Y-14648318D01*
X16095238Y-14871875D01*
X15609508Y-15196429D01*
X15196429Y-15609508D01*
X14871875Y-16095238D01*
X14648318Y-16634952D01*
X14534350Y-17207909D01*
X13210000Y-17207909D01*
X13210000Y-13210000D01*
X21773000Y-13210000D01*
X21773000Y-24840000D01*
G04 #@! TA.AperFunction,NonConductor*
D11*
G36*
X21773000Y-24840000D02*
G01*
X13210000Y-24840000D01*
X13210000Y-17207909D01*
X14534350Y-17207909D01*
X14534350Y-17792091D01*
X14648318Y-18365048D01*
X14871875Y-18904762D01*
X15196429Y-19390492D01*
X15609508Y-19803571D01*
X16095238Y-20128125D01*
X16634952Y-20351682D01*
X17207909Y-20465650D01*
X17792091Y-20465650D01*
X18365048Y-20351682D01*
X18904762Y-20128125D01*
X19390492Y-19803571D01*
X19803571Y-19390492D01*
X20128125Y-18904762D01*
X20351682Y-18365048D01*
X20465650Y-17792091D01*
X20465650Y-17207909D01*
X20351682Y-16634952D01*
X20128125Y-16095238D01*
X19803571Y-15609508D01*
X19390492Y-15196429D01*
X18904762Y-14871875D01*
X18365048Y-14648318D01*
X17792091Y-14534350D01*
X17207909Y-14534350D01*
X16634952Y-14648318D01*
X16095238Y-14871875D01*
X15609508Y-15196429D01*
X15196429Y-15609508D01*
X14871875Y-16095238D01*
X14648318Y-16634952D01*
X14534350Y-17207909D01*
X13210000Y-17207909D01*
X13210000Y-13210000D01*
X21773000Y-13210000D01*
X21773000Y-24840000D01*
G37*
G04 #@! TD.AperFunction*
D10*
X24373000Y-24840000D02*
X22627000Y-24840000D01*
X22627000Y-13210000D01*
X24373000Y-13210000D01*
X24373000Y-24840000D01*
G04 #@! TA.AperFunction,NonConductor*
D11*
G36*
X24373000Y-24840000D02*
G01*
X22627000Y-24840000D01*
X22627000Y-13210000D01*
X24373000Y-13210000D01*
X24373000Y-24840000D01*
G37*
G04 #@! TD.AperFunction*
M02*
