G04 #@! TF.GenerationSoftware,KiCad,Pcbnew,(6.0.10)*
G04 #@! TF.CreationDate,2023-06-17T10:05:04+02:00*
G04 #@! TF.ProjectId,Zaehler-Modul,5a616568-6c65-4722-9d4d-6f64756c2e6b,rev?*
G04 #@! TF.SameCoordinates,Original*
G04 #@! TF.FileFunction,Legend,Top*
G04 #@! TF.FilePolarity,Positive*
%FSLAX46Y46*%
G04 Gerber Fmt 4.6, Leading zero omitted, Abs format (unit mm)*
G04 Created by KiCad (PCBNEW (6.0.10)) date 2023-06-17 10:05:04*
%MOMM*%
%LPD*%
G01*
G04 APERTURE LIST*
G04 Aperture macros list*
%AMRoundRect*
0 Rectangle with rounded corners*
0 $1 Rounding radius*
0 $2 $3 $4 $5 $6 $7 $8 $9 X,Y pos of 4 corners*
0 Add a 4 corners polygon primitive as box body*
4,1,4,$2,$3,$4,$5,$6,$7,$8,$9,$2,$3,0*
0 Add four circle primitives for the rounded corners*
1,1,$1+$1,$2,$3*
1,1,$1+$1,$4,$5*
1,1,$1+$1,$6,$7*
1,1,$1+$1,$8,$9*
0 Add four rect primitives between the rounded corners*
20,1,$1+$1,$2,$3,$4,$5,0*
20,1,$1+$1,$4,$5,$6,$7,0*
20,1,$1+$1,$6,$7,$8,$9,0*
20,1,$1+$1,$8,$9,$2,$3,0*%
G04 Aperture macros list end*
%ADD10C,0.120000*%
%ADD11C,0.150000*%
%ADD12C,1.600000*%
%ADD13O,1.600000X1.600000*%
%ADD14RoundRect,0.075000X0.662500X0.075000X-0.662500X0.075000X-0.662500X-0.075000X0.662500X-0.075000X0*%
%ADD15RoundRect,0.075000X0.075000X0.662500X-0.075000X0.662500X-0.075000X-0.662500X0.075000X-0.662500X0*%
%ADD16C,1.500000*%
%ADD17RoundRect,0.250000X-0.625000X0.312500X-0.625000X-0.312500X0.625000X-0.312500X0.625000X0.312500X0*%
%ADD18RoundRect,0.250000X-0.475000X0.250000X-0.475000X-0.250000X0.475000X-0.250000X0.475000X0.250000X0*%
%ADD19R,1.600000X2.400000*%
%ADD20O,1.600000X2.400000*%
%ADD21R,1.700000X1.700000*%
%ADD22O,1.700000X1.700000*%
%ADD23RoundRect,0.250000X-0.250000X-0.475000X0.250000X-0.475000X0.250000X0.475000X-0.250000X0.475000X0*%
%ADD24C,2.000000*%
%ADD25C,2.340000*%
%ADD26R,1.400000X1.200000*%
%ADD27RoundRect,0.200000X-0.200000X-0.275000X0.200000X-0.275000X0.200000X0.275000X-0.200000X0.275000X0*%
%ADD28R,1.600000X1.600000*%
G04 APERTURE END LIST*
D10*
X105875000Y-72250000D02*
X138125000Y-72250000D01*
X105500000Y-46500000D02*
X134000000Y-46500000D01*
D11*
X53850595Y-69037380D02*
X53850595Y-68037380D01*
X54422023Y-69037380D01*
X54422023Y-68037380D01*
X55469642Y-69037380D02*
X55136309Y-68561190D01*
X54898214Y-69037380D02*
X54898214Y-68037380D01*
X55279166Y-68037380D01*
X55374404Y-68085000D01*
X55422023Y-68132619D01*
X55469642Y-68227857D01*
X55469642Y-68370714D01*
X55422023Y-68465952D01*
X55374404Y-68513571D01*
X55279166Y-68561190D01*
X54898214Y-68561190D01*
X55850595Y-68989761D02*
X55993452Y-69037380D01*
X56231547Y-69037380D01*
X56326785Y-68989761D01*
X56374404Y-68942142D01*
X56422023Y-68846904D01*
X56422023Y-68751666D01*
X56374404Y-68656428D01*
X56326785Y-68608809D01*
X56231547Y-68561190D01*
X56041071Y-68513571D01*
X55945833Y-68465952D01*
X55898214Y-68418333D01*
X55850595Y-68323095D01*
X55850595Y-68227857D01*
X55898214Y-68132619D01*
X55945833Y-68085000D01*
X56041071Y-68037380D01*
X56279166Y-68037380D01*
X56422023Y-68085000D01*
X56707738Y-68037380D02*
X57279166Y-68037380D01*
X56993452Y-69037380D02*
X56993452Y-68037380D01*
X82452380Y-82607142D02*
X82404761Y-82654761D01*
X82261904Y-82702380D01*
X82166666Y-82702380D01*
X82023809Y-82654761D01*
X81928571Y-82559523D01*
X81880952Y-82464285D01*
X81833333Y-82273809D01*
X81833333Y-82130952D01*
X81880952Y-81940476D01*
X81928571Y-81845238D01*
X82023809Y-81750000D01*
X82166666Y-81702380D01*
X82261904Y-81702380D01*
X82404761Y-81750000D01*
X82452380Y-81797619D01*
X82880952Y-82702380D02*
X82880952Y-81702380D01*
X82880952Y-82178571D02*
X83452380Y-82178571D01*
X83452380Y-82702380D02*
X83452380Y-81702380D01*
X83880952Y-82416666D02*
X84357142Y-82416666D01*
X83785714Y-82702380D02*
X84119047Y-81702380D01*
X84452380Y-82702380D01*
X84785714Y-82702380D02*
X84785714Y-81702380D01*
X85357142Y-82702380D01*
X85357142Y-81702380D01*
X85833333Y-82702380D02*
X85833333Y-81702380D01*
X86404761Y-82702380D01*
X86404761Y-81702380D01*
X86880952Y-82178571D02*
X87214285Y-82178571D01*
X87357142Y-82702380D02*
X86880952Y-82702380D01*
X86880952Y-81702380D01*
X87357142Y-81702380D01*
X88261904Y-82702380D02*
X87785714Y-82702380D01*
X87785714Y-81702380D01*
X44591785Y-63005000D02*
X44496547Y-62957380D01*
X44353690Y-62957380D01*
X44210833Y-63005000D01*
X44115595Y-63100238D01*
X44067976Y-63195476D01*
X44020357Y-63385952D01*
X44020357Y-63528809D01*
X44067976Y-63719285D01*
X44115595Y-63814523D01*
X44210833Y-63909761D01*
X44353690Y-63957380D01*
X44448928Y-63957380D01*
X44591785Y-63909761D01*
X44639404Y-63862142D01*
X44639404Y-63528809D01*
X44448928Y-63528809D01*
X45067976Y-63957380D02*
X45067976Y-62957380D01*
X45639404Y-63957380D01*
X45639404Y-62957380D01*
X46115595Y-63957380D02*
X46115595Y-62957380D01*
X46353690Y-62957380D01*
X46496547Y-63005000D01*
X46591785Y-63100238D01*
X46639404Y-63195476D01*
X46687023Y-63385952D01*
X46687023Y-63528809D01*
X46639404Y-63719285D01*
X46591785Y-63814523D01*
X46496547Y-63909761D01*
X46353690Y-63957380D01*
X46115595Y-63957380D01*
X91404761Y-81677380D02*
X91738095Y-82677380D01*
X92071428Y-81677380D01*
X92404761Y-82677380D02*
X92404761Y-81677380D01*
X92880952Y-82677380D02*
X92880952Y-81677380D01*
X93452380Y-82677380D01*
X93452380Y-81677380D01*
X44591785Y-60465000D02*
X44496547Y-60417380D01*
X44353690Y-60417380D01*
X44210833Y-60465000D01*
X44115595Y-60560238D01*
X44067976Y-60655476D01*
X44020357Y-60845952D01*
X44020357Y-60988809D01*
X44067976Y-61179285D01*
X44115595Y-61274523D01*
X44210833Y-61369761D01*
X44353690Y-61417380D01*
X44448928Y-61417380D01*
X44591785Y-61369761D01*
X44639404Y-61322142D01*
X44639404Y-60988809D01*
X44448928Y-60988809D01*
X45067976Y-61417380D02*
X45067976Y-60417380D01*
X45639404Y-61417380D01*
X45639404Y-60417380D01*
X46115595Y-61417380D02*
X46115595Y-60417380D01*
X46353690Y-60417380D01*
X46496547Y-60465000D01*
X46591785Y-60560238D01*
X46639404Y-60655476D01*
X46687023Y-60845952D01*
X46687023Y-60988809D01*
X46639404Y-61179285D01*
X46591785Y-61274523D01*
X46496547Y-61369761D01*
X46353690Y-61417380D01*
X46115595Y-61417380D01*
X88509047Y-23071428D02*
X89270952Y-23071428D01*
X91270952Y-22785714D02*
X90509047Y-23071428D01*
X91270952Y-23357142D01*
X91747142Y-23071428D02*
X92509047Y-23071428D01*
X95270952Y-23071428D02*
X96032857Y-23071428D01*
X96509047Y-22785714D02*
X97270952Y-23071428D01*
X96509047Y-23357142D01*
X98509047Y-23071428D02*
X99270952Y-23071428D01*
X98890000Y-23452380D02*
X98890000Y-22690476D01*
X75166666Y-82416666D02*
X75642857Y-82416666D01*
X75071428Y-82702380D02*
X75404761Y-81702380D01*
X75738095Y-82702380D01*
X76071428Y-82702380D02*
X76071428Y-81702380D01*
X76404761Y-82416666D01*
X76738095Y-81702380D01*
X76738095Y-82702380D01*
X77928571Y-81654761D02*
X77071428Y-82940476D01*
X78595238Y-82178571D02*
X78261904Y-82178571D01*
X78261904Y-82702380D02*
X78261904Y-81702380D01*
X78738095Y-81702380D01*
X79119047Y-82702380D02*
X79119047Y-81702380D01*
X79452380Y-82416666D01*
X79785714Y-81702380D01*
X79785714Y-82702380D01*
X72358095Y-34452380D02*
X72358095Y-33452380D01*
X72596190Y-33452380D01*
X72739047Y-33500000D01*
X72834285Y-33595238D01*
X72881904Y-33690476D01*
X72929523Y-33880952D01*
X72929523Y-34023809D01*
X72881904Y-34214285D01*
X72834285Y-34309523D01*
X72739047Y-34404761D01*
X72596190Y-34452380D01*
X72358095Y-34452380D01*
X56641904Y-34452380D02*
X56641904Y-33452380D01*
X56880000Y-33452380D01*
X57022857Y-33500000D01*
X57118095Y-33595238D01*
X57165714Y-33690476D01*
X57213333Y-33880952D01*
X57213333Y-34023809D01*
X57165714Y-34214285D01*
X57118095Y-34309523D01*
X57022857Y-34404761D01*
X56880000Y-34452380D01*
X56641904Y-34452380D01*
X58118095Y-33452380D02*
X57641904Y-33452380D01*
X57594285Y-33928571D01*
X57641904Y-33880952D01*
X57737142Y-33833333D01*
X57975238Y-33833333D01*
X58070476Y-33880952D01*
X58118095Y-33928571D01*
X58165714Y-34023809D01*
X58165714Y-34261904D01*
X58118095Y-34357142D01*
X58070476Y-34404761D01*
X57975238Y-34452380D01*
X57737142Y-34452380D01*
X57641904Y-34404761D01*
X57594285Y-34357142D01*
X74945714Y-33928571D02*
X75279047Y-33928571D01*
X75421904Y-34452380D02*
X74945714Y-34452380D01*
X74945714Y-33452380D01*
X75421904Y-33452380D01*
X97651904Y-21571428D02*
X97985238Y-21571428D01*
X97985238Y-21047619D02*
X97985238Y-22047619D01*
X97509047Y-22047619D01*
X96556666Y-21047619D02*
X96890000Y-21523809D01*
X97128095Y-21047619D02*
X97128095Y-22047619D01*
X96747142Y-22047619D01*
X96651904Y-22000000D01*
X96604285Y-21952380D01*
X96556666Y-21857142D01*
X96556666Y-21714285D01*
X96604285Y-21619047D01*
X96651904Y-21571428D01*
X96747142Y-21523809D01*
X97128095Y-21523809D01*
X96128095Y-21571428D02*
X95794761Y-21571428D01*
X95651904Y-21047619D02*
X96128095Y-21047619D01*
X96128095Y-22047619D01*
X95651904Y-22047619D01*
X94556666Y-20952380D02*
X94651904Y-21000000D01*
X94747142Y-21095238D01*
X94890000Y-21238095D01*
X94985238Y-21285714D01*
X95080476Y-21285714D01*
X95032857Y-21047619D02*
X95128095Y-21095238D01*
X95223333Y-21190476D01*
X95270952Y-21380952D01*
X95270952Y-21714285D01*
X95223333Y-21904761D01*
X95128095Y-22000000D01*
X95032857Y-22047619D01*
X94842380Y-22047619D01*
X94747142Y-22000000D01*
X94651904Y-21904761D01*
X94604285Y-21714285D01*
X94604285Y-21380952D01*
X94651904Y-21190476D01*
X94747142Y-21095238D01*
X94842380Y-21047619D01*
X95032857Y-21047619D01*
X94175714Y-22047619D02*
X94175714Y-21238095D01*
X94128095Y-21142857D01*
X94080476Y-21095238D01*
X93985238Y-21047619D01*
X93794761Y-21047619D01*
X93699523Y-21095238D01*
X93651904Y-21142857D01*
X93604285Y-21238095D01*
X93604285Y-22047619D01*
X93128095Y-21571428D02*
X92794761Y-21571428D01*
X92651904Y-21047619D02*
X93128095Y-21047619D01*
X93128095Y-22047619D01*
X92651904Y-22047619D01*
X92223333Y-21047619D02*
X92223333Y-22047619D01*
X91651904Y-21047619D01*
X91651904Y-22047619D01*
X90604285Y-21142857D02*
X90651904Y-21095238D01*
X90794761Y-21047619D01*
X90890000Y-21047619D01*
X91032857Y-21095238D01*
X91128095Y-21190476D01*
X91175714Y-21285714D01*
X91223333Y-21476190D01*
X91223333Y-21619047D01*
X91175714Y-21809523D01*
X91128095Y-21904761D01*
X91032857Y-22000000D01*
X90890000Y-22047619D01*
X90794761Y-22047619D01*
X90651904Y-22000000D01*
X90604285Y-21952380D01*
X89985238Y-21523809D02*
X89985238Y-21047619D01*
X90318571Y-22047619D02*
X89985238Y-21523809D01*
X89651904Y-22047619D01*
X64761904Y-34166666D02*
X65238095Y-34166666D01*
X64666666Y-34452380D02*
X65000000Y-33452380D01*
X65333333Y-34452380D01*
X82018095Y-34452380D02*
X82018095Y-33452380D01*
X82256190Y-33452380D01*
X82399047Y-33500000D01*
X82494285Y-33595238D01*
X82541904Y-33690476D01*
X82589523Y-33880952D01*
X82589523Y-34023809D01*
X82541904Y-34214285D01*
X82494285Y-34309523D01*
X82399047Y-34404761D01*
X82256190Y-34452380D01*
X82018095Y-34452380D01*
X83018095Y-34452380D02*
X83018095Y-33452380D01*
X83399047Y-33452380D01*
X83494285Y-33500000D01*
X83541904Y-33547619D01*
X83589523Y-33642857D01*
X83589523Y-33785714D01*
X83541904Y-33880952D01*
X83494285Y-33928571D01*
X83399047Y-33976190D01*
X83018095Y-33976190D01*
X46481904Y-34452380D02*
X46481904Y-33452380D01*
X46720000Y-33452380D01*
X46862857Y-33500000D01*
X46958095Y-33595238D01*
X47005714Y-33690476D01*
X47053333Y-33880952D01*
X47053333Y-34023809D01*
X47005714Y-34214285D01*
X46958095Y-34309523D01*
X46862857Y-34404761D01*
X46720000Y-34452380D01*
X46481904Y-34452380D01*
X48005714Y-34452380D02*
X47434285Y-34452380D01*
X47720000Y-34452380D02*
X47720000Y-33452380D01*
X47624761Y-33595238D01*
X47529523Y-33690476D01*
X47434285Y-33738095D01*
X77842857Y-33928571D02*
X77509523Y-33928571D01*
X77509523Y-34452380D02*
X77509523Y-33452380D01*
X77985714Y-33452380D01*
X80501904Y-33500000D02*
X80406666Y-33452380D01*
X80263809Y-33452380D01*
X80120952Y-33500000D01*
X80025714Y-33595238D01*
X79978095Y-33690476D01*
X79930476Y-33880952D01*
X79930476Y-34023809D01*
X79978095Y-34214285D01*
X80025714Y-34309523D01*
X80120952Y-34404761D01*
X80263809Y-34452380D01*
X80359047Y-34452380D01*
X80501904Y-34404761D01*
X80549523Y-34357142D01*
X80549523Y-34023809D01*
X80359047Y-34023809D01*
X54101904Y-34452380D02*
X54101904Y-33452380D01*
X54340000Y-33452380D01*
X54482857Y-33500000D01*
X54578095Y-33595238D01*
X54625714Y-33690476D01*
X54673333Y-33880952D01*
X54673333Y-34023809D01*
X54625714Y-34214285D01*
X54578095Y-34309523D01*
X54482857Y-34404761D01*
X54340000Y-34452380D01*
X54101904Y-34452380D01*
X55530476Y-33785714D02*
X55530476Y-34452380D01*
X55292380Y-33404761D02*
X55054285Y-34119047D01*
X55673333Y-34119047D01*
X51561904Y-34452380D02*
X51561904Y-33452380D01*
X51800000Y-33452380D01*
X51942857Y-33500000D01*
X52038095Y-33595238D01*
X52085714Y-33690476D01*
X52133333Y-33880952D01*
X52133333Y-34023809D01*
X52085714Y-34214285D01*
X52038095Y-34309523D01*
X51942857Y-34404761D01*
X51800000Y-34452380D01*
X51561904Y-34452380D01*
X52466666Y-33452380D02*
X53085714Y-33452380D01*
X52752380Y-33833333D01*
X52895238Y-33833333D01*
X52990476Y-33880952D01*
X53038095Y-33928571D01*
X53085714Y-34023809D01*
X53085714Y-34261904D01*
X53038095Y-34357142D01*
X52990476Y-34404761D01*
X52895238Y-34452380D01*
X52609523Y-34452380D01*
X52514285Y-34404761D01*
X52466666Y-34357142D01*
X99238095Y-81725000D02*
X99142857Y-81677380D01*
X99000000Y-81677380D01*
X98857142Y-81725000D01*
X98761904Y-81820238D01*
X98714285Y-81915476D01*
X98666666Y-82105952D01*
X98666666Y-82248809D01*
X98714285Y-82439285D01*
X98761904Y-82534523D01*
X98857142Y-82629761D01*
X99000000Y-82677380D01*
X99095238Y-82677380D01*
X99238095Y-82629761D01*
X99285714Y-82582142D01*
X99285714Y-82248809D01*
X99095238Y-82248809D01*
X99714285Y-82677380D02*
X99714285Y-81677380D01*
X100285714Y-82677380D01*
X100285714Y-81677380D01*
X100761904Y-82677380D02*
X100761904Y-81677380D01*
X101000000Y-81677380D01*
X101142857Y-81725000D01*
X101238095Y-81820238D01*
X101285714Y-81915476D01*
X101333333Y-82105952D01*
X101333333Y-82248809D01*
X101285714Y-82439285D01*
X101238095Y-82534523D01*
X101142857Y-82629761D01*
X101000000Y-82677380D01*
X100761904Y-82677380D01*
X53802976Y-61369761D02*
X53945833Y-61417380D01*
X54183928Y-61417380D01*
X54279166Y-61369761D01*
X54326785Y-61322142D01*
X54374404Y-61226904D01*
X54374404Y-61131666D01*
X54326785Y-61036428D01*
X54279166Y-60988809D01*
X54183928Y-60941190D01*
X53993452Y-60893571D01*
X53898214Y-60845952D01*
X53850595Y-60798333D01*
X53802976Y-60703095D01*
X53802976Y-60607857D01*
X53850595Y-60512619D01*
X53898214Y-60465000D01*
X53993452Y-60417380D01*
X54231547Y-60417380D01*
X54374404Y-60465000D01*
X54707738Y-60417380D02*
X54945833Y-61417380D01*
X55136309Y-60703095D01*
X55326785Y-61417380D01*
X55564880Y-60417380D01*
X56517261Y-61322142D02*
X56469642Y-61369761D01*
X56326785Y-61417380D01*
X56231547Y-61417380D01*
X56088690Y-61369761D01*
X55993452Y-61274523D01*
X55945833Y-61179285D01*
X55898214Y-60988809D01*
X55898214Y-60845952D01*
X55945833Y-60655476D01*
X55993452Y-60560238D01*
X56088690Y-60465000D01*
X56231547Y-60417380D01*
X56326785Y-60417380D01*
X56469642Y-60465000D01*
X56517261Y-60512619D01*
X57422023Y-61417380D02*
X56945833Y-61417380D01*
X56945833Y-60417380D01*
X57755357Y-61417380D02*
X57755357Y-60417380D01*
X58326785Y-61417380D02*
X57898214Y-60845952D01*
X58326785Y-60417380D02*
X57755357Y-60988809D01*
X67611428Y-33928571D02*
X67754285Y-33976190D01*
X67801904Y-34023809D01*
X67849523Y-34119047D01*
X67849523Y-34261904D01*
X67801904Y-34357142D01*
X67754285Y-34404761D01*
X67659047Y-34452380D01*
X67278095Y-34452380D01*
X67278095Y-33452380D01*
X67611428Y-33452380D01*
X67706666Y-33500000D01*
X67754285Y-33547619D01*
X67801904Y-33642857D01*
X67801904Y-33738095D01*
X67754285Y-33833333D01*
X67706666Y-33880952D01*
X67611428Y-33928571D01*
X67278095Y-33928571D01*
X70389523Y-34357142D02*
X70341904Y-34404761D01*
X70199047Y-34452380D01*
X70103809Y-34452380D01*
X69960952Y-34404761D01*
X69865714Y-34309523D01*
X69818095Y-34214285D01*
X69770476Y-34023809D01*
X69770476Y-33880952D01*
X69818095Y-33690476D01*
X69865714Y-33595238D01*
X69960952Y-33500000D01*
X70103809Y-33452380D01*
X70199047Y-33452380D01*
X70341904Y-33500000D01*
X70389523Y-33547619D01*
X70380952Y-48452380D02*
X70380952Y-49166666D01*
X70333333Y-49309523D01*
X70238095Y-49404761D01*
X70095238Y-49452380D01*
X70000000Y-49452380D01*
X71333333Y-49452380D02*
X70857142Y-49452380D01*
X70857142Y-48452380D01*
X72238095Y-49357142D02*
X72190476Y-49404761D01*
X72047619Y-49452380D01*
X71952380Y-49452380D01*
X71809523Y-49404761D01*
X71714285Y-49309523D01*
X71666666Y-49214285D01*
X71619047Y-49023809D01*
X71619047Y-48880952D01*
X71666666Y-48690476D01*
X71714285Y-48595238D01*
X71809523Y-48500000D01*
X71952380Y-48452380D01*
X72047619Y-48452380D01*
X72190476Y-48500000D01*
X72238095Y-48547619D01*
X72952380Y-48452380D02*
X72952380Y-49166666D01*
X72904761Y-49309523D01*
X72809523Y-49404761D01*
X72666666Y-49452380D01*
X72571428Y-49452380D01*
X73904761Y-49452380D02*
X73428571Y-49452380D01*
X73428571Y-48452380D01*
X74809523Y-49357142D02*
X74761904Y-49404761D01*
X74619047Y-49452380D01*
X74523809Y-49452380D01*
X74380952Y-49404761D01*
X74285714Y-49309523D01*
X74238095Y-49214285D01*
X74190476Y-49023809D01*
X74190476Y-48880952D01*
X74238095Y-48690476D01*
X74285714Y-48595238D01*
X74380952Y-48500000D01*
X74523809Y-48452380D01*
X74619047Y-48452380D01*
X74761904Y-48500000D01*
X74809523Y-48547619D01*
X75523809Y-48452380D02*
X75523809Y-49166666D01*
X75476190Y-49309523D01*
X75380952Y-49404761D01*
X75238095Y-49452380D01*
X75142857Y-49452380D01*
X76476190Y-49452380D02*
X76000000Y-49452380D01*
X76000000Y-48452380D01*
X77380952Y-49357142D02*
X77333333Y-49404761D01*
X77190476Y-49452380D01*
X77095238Y-49452380D01*
X76952380Y-49404761D01*
X76857142Y-49309523D01*
X76809523Y-49214285D01*
X76761904Y-49023809D01*
X76761904Y-48880952D01*
X76809523Y-48690476D01*
X76857142Y-48595238D01*
X76952380Y-48500000D01*
X77095238Y-48452380D01*
X77190476Y-48452380D01*
X77333333Y-48500000D01*
X77380952Y-48547619D01*
X78095238Y-48452380D02*
X78095238Y-49166666D01*
X78047619Y-49309523D01*
X77952380Y-49404761D01*
X77809523Y-49452380D01*
X77714285Y-49452380D01*
X79047619Y-49452380D02*
X78571428Y-49452380D01*
X78571428Y-48452380D01*
X79952380Y-49357142D02*
X79904761Y-49404761D01*
X79761904Y-49452380D01*
X79666666Y-49452380D01*
X79523809Y-49404761D01*
X79428571Y-49309523D01*
X79380952Y-49214285D01*
X79333333Y-49023809D01*
X79333333Y-48880952D01*
X79380952Y-48690476D01*
X79428571Y-48595238D01*
X79523809Y-48500000D01*
X79666666Y-48452380D01*
X79761904Y-48452380D01*
X79904761Y-48500000D01*
X79952380Y-48547619D01*
X53802976Y-58829761D02*
X53945833Y-58877380D01*
X54183928Y-58877380D01*
X54279166Y-58829761D01*
X54326785Y-58782142D01*
X54374404Y-58686904D01*
X54374404Y-58591666D01*
X54326785Y-58496428D01*
X54279166Y-58448809D01*
X54183928Y-58401190D01*
X53993452Y-58353571D01*
X53898214Y-58305952D01*
X53850595Y-58258333D01*
X53802976Y-58163095D01*
X53802976Y-58067857D01*
X53850595Y-57972619D01*
X53898214Y-57925000D01*
X53993452Y-57877380D01*
X54231547Y-57877380D01*
X54374404Y-57925000D01*
X54707738Y-57877380D02*
X54945833Y-58877380D01*
X55136309Y-58163095D01*
X55326785Y-58877380D01*
X55564880Y-57877380D01*
X55945833Y-58877380D02*
X55945833Y-57877380D01*
X56183928Y-57877380D01*
X56326785Y-57925000D01*
X56422023Y-58020238D01*
X56469642Y-58115476D01*
X56517261Y-58305952D01*
X56517261Y-58448809D01*
X56469642Y-58639285D01*
X56422023Y-58734523D01*
X56326785Y-58829761D01*
X56183928Y-58877380D01*
X55945833Y-58877380D01*
X56945833Y-58877380D02*
X56945833Y-57877380D01*
X57612500Y-57877380D02*
X57802976Y-57877380D01*
X57898214Y-57925000D01*
X57993452Y-58020238D01*
X58041071Y-58210714D01*
X58041071Y-58544047D01*
X57993452Y-58734523D01*
X57898214Y-58829761D01*
X57802976Y-58877380D01*
X57612500Y-58877380D01*
X57517261Y-58829761D01*
X57422023Y-58734523D01*
X57374404Y-58544047D01*
X57374404Y-58210714D01*
X57422023Y-58020238D01*
X57517261Y-57925000D01*
X57612500Y-57877380D01*
X44591785Y-68085000D02*
X44496547Y-68037380D01*
X44353690Y-68037380D01*
X44210833Y-68085000D01*
X44115595Y-68180238D01*
X44067976Y-68275476D01*
X44020357Y-68465952D01*
X44020357Y-68608809D01*
X44067976Y-68799285D01*
X44115595Y-68894523D01*
X44210833Y-68989761D01*
X44353690Y-69037380D01*
X44448928Y-69037380D01*
X44591785Y-68989761D01*
X44639404Y-68942142D01*
X44639404Y-68608809D01*
X44448928Y-68608809D01*
X45067976Y-69037380D02*
X45067976Y-68037380D01*
X45639404Y-69037380D01*
X45639404Y-68037380D01*
X46115595Y-69037380D02*
X46115595Y-68037380D01*
X46353690Y-68037380D01*
X46496547Y-68085000D01*
X46591785Y-68180238D01*
X46639404Y-68275476D01*
X46687023Y-68465952D01*
X46687023Y-68608809D01*
X46639404Y-68799285D01*
X46591785Y-68894523D01*
X46496547Y-68989761D01*
X46353690Y-69037380D01*
X46115595Y-69037380D01*
X43782261Y-57877380D02*
X44401309Y-57877380D01*
X44067976Y-58258333D01*
X44210833Y-58258333D01*
X44306071Y-58305952D01*
X44353690Y-58353571D01*
X44401309Y-58448809D01*
X44401309Y-58686904D01*
X44353690Y-58782142D01*
X44306071Y-58829761D01*
X44210833Y-58877380D01*
X43925119Y-58877380D01*
X43829880Y-58829761D01*
X43782261Y-58782142D01*
X44829880Y-58782142D02*
X44877500Y-58829761D01*
X44829880Y-58877380D01*
X44782261Y-58829761D01*
X44829880Y-58782142D01*
X44829880Y-58877380D01*
X45210833Y-57877380D02*
X45829880Y-57877380D01*
X45496547Y-58258333D01*
X45639404Y-58258333D01*
X45734642Y-58305952D01*
X45782261Y-58353571D01*
X45829880Y-58448809D01*
X45829880Y-58686904D01*
X45782261Y-58782142D01*
X45734642Y-58829761D01*
X45639404Y-58877380D01*
X45353690Y-58877380D01*
X45258452Y-58829761D01*
X45210833Y-58782142D01*
X46115595Y-57877380D02*
X46448928Y-58877380D01*
X46782261Y-57877380D01*
X49021904Y-34452380D02*
X49021904Y-33452380D01*
X49260000Y-33452380D01*
X49402857Y-33500000D01*
X49498095Y-33595238D01*
X49545714Y-33690476D01*
X49593333Y-33880952D01*
X49593333Y-34023809D01*
X49545714Y-34214285D01*
X49498095Y-34309523D01*
X49402857Y-34404761D01*
X49260000Y-34452380D01*
X49021904Y-34452380D01*
X49974285Y-33547619D02*
X50021904Y-33500000D01*
X50117142Y-33452380D01*
X50355238Y-33452380D01*
X50450476Y-33500000D01*
X50498095Y-33547619D01*
X50545714Y-33642857D01*
X50545714Y-33738095D01*
X50498095Y-33880952D01*
X49926666Y-34452380D01*
X50545714Y-34452380D01*
X94749404Y-35397380D02*
X94177976Y-35397380D01*
X94463690Y-35397380D02*
X94463690Y-34397380D01*
X94368452Y-34540238D01*
X94273214Y-34635476D01*
X94177976Y-34683095D01*
X95368452Y-34397380D02*
X95463690Y-34397380D01*
X95558928Y-34445000D01*
X95606547Y-34492619D01*
X95654166Y-34587857D01*
X95701785Y-34778333D01*
X95701785Y-35016428D01*
X95654166Y-35206904D01*
X95606547Y-35302142D01*
X95558928Y-35349761D01*
X95463690Y-35397380D01*
X95368452Y-35397380D01*
X95273214Y-35349761D01*
X95225595Y-35302142D01*
X95177976Y-35206904D01*
X95130357Y-35016428D01*
X95130357Y-34778333D01*
X95177976Y-34587857D01*
X95225595Y-34492619D01*
X95273214Y-34445000D01*
X95368452Y-34397380D01*
X96130357Y-35397380D02*
X96130357Y-34397380D01*
X96225595Y-35016428D02*
X96511309Y-35397380D01*
X96511309Y-34730714D02*
X96130357Y-35111666D01*
X96939880Y-35397380D02*
X96939880Y-34397380D01*
X96939880Y-34873571D02*
X97511309Y-34873571D01*
X97511309Y-35397380D02*
X97511309Y-34397380D01*
X97892261Y-34730714D02*
X98416071Y-34730714D01*
X97892261Y-35397380D01*
X98416071Y-35397380D01*
X94701785Y-39477380D02*
X94225595Y-39477380D01*
X94177976Y-39953571D01*
X94225595Y-39905952D01*
X94320833Y-39858333D01*
X94558928Y-39858333D01*
X94654166Y-39905952D01*
X94701785Y-39953571D01*
X94749404Y-40048809D01*
X94749404Y-40286904D01*
X94701785Y-40382142D01*
X94654166Y-40429761D01*
X94558928Y-40477380D01*
X94320833Y-40477380D01*
X94225595Y-40429761D01*
X94177976Y-40382142D01*
X95368452Y-39477380D02*
X95463690Y-39477380D01*
X95558928Y-39525000D01*
X95606547Y-39572619D01*
X95654166Y-39667857D01*
X95701785Y-39858333D01*
X95701785Y-40096428D01*
X95654166Y-40286904D01*
X95606547Y-40382142D01*
X95558928Y-40429761D01*
X95463690Y-40477380D01*
X95368452Y-40477380D01*
X95273214Y-40429761D01*
X95225595Y-40382142D01*
X95177976Y-40286904D01*
X95130357Y-40096428D01*
X95130357Y-39858333D01*
X95177976Y-39667857D01*
X95225595Y-39572619D01*
X95273214Y-39525000D01*
X95368452Y-39477380D01*
X96130357Y-40477380D02*
X96130357Y-39477380D01*
X96225595Y-40096428D02*
X96511309Y-40477380D01*
X96511309Y-39810714D02*
X96130357Y-40191666D01*
X96939880Y-40477380D02*
X96939880Y-39477380D01*
X96939880Y-39953571D02*
X97511309Y-39953571D01*
X97511309Y-40477380D02*
X97511309Y-39477380D01*
X97892261Y-39810714D02*
X98416071Y-39810714D01*
X97892261Y-40477380D01*
X98416071Y-40477380D01*
X42857142Y-84242857D02*
X42904761Y-84290476D01*
X42952380Y-84433333D01*
X42952380Y-84528571D01*
X42904761Y-84671428D01*
X42809523Y-84766666D01*
X42714285Y-84814285D01*
X42523809Y-84861904D01*
X42380952Y-84861904D01*
X42190476Y-84814285D01*
X42095238Y-84766666D01*
X42000000Y-84671428D01*
X41952380Y-84528571D01*
X41952380Y-84433333D01*
X42000000Y-84290476D01*
X42047619Y-84242857D01*
X41952380Y-83338095D02*
X41952380Y-83814285D01*
X42428571Y-83861904D01*
X42380952Y-83814285D01*
X42333333Y-83719047D01*
X42333333Y-83480952D01*
X42380952Y-83385714D01*
X42428571Y-83338095D01*
X42523809Y-83290476D01*
X42761904Y-83290476D01*
X42857142Y-83338095D01*
X42904761Y-83385714D01*
X42952380Y-83480952D01*
X42952380Y-83719047D01*
X42904761Y-83814285D01*
X42857142Y-83861904D01*
X42047619Y-82909523D02*
X42000000Y-82861904D01*
X41952380Y-82766666D01*
X41952380Y-82528571D01*
X42000000Y-82433333D01*
X42047619Y-82385714D01*
X42142857Y-82338095D01*
X42238095Y-82338095D01*
X42380952Y-82385714D01*
X42952380Y-82957142D01*
X42952380Y-82338095D01*
X58072380Y-76592857D02*
X57596190Y-76926190D01*
X58072380Y-77164285D02*
X57072380Y-77164285D01*
X57072380Y-76783333D01*
X57120000Y-76688095D01*
X57167619Y-76640476D01*
X57262857Y-76592857D01*
X57405714Y-76592857D01*
X57500952Y-76640476D01*
X57548571Y-76688095D01*
X57596190Y-76783333D01*
X57596190Y-77164285D01*
X57072380Y-75688095D02*
X57072380Y-76164285D01*
X57548571Y-76211904D01*
X57500952Y-76164285D01*
X57453333Y-76069047D01*
X57453333Y-75830952D01*
X57500952Y-75735714D01*
X57548571Y-75688095D01*
X57643809Y-75640476D01*
X57881904Y-75640476D01*
X57977142Y-75688095D01*
X58024761Y-75735714D01*
X58072380Y-75830952D01*
X58072380Y-76069047D01*
X58024761Y-76164285D01*
X57977142Y-76211904D01*
X57072380Y-75021428D02*
X57072380Y-74926190D01*
X57120000Y-74830952D01*
X57167619Y-74783333D01*
X57262857Y-74735714D01*
X57453333Y-74688095D01*
X57691428Y-74688095D01*
X57881904Y-74735714D01*
X57977142Y-74783333D01*
X58024761Y-74830952D01*
X58072380Y-74926190D01*
X58072380Y-75021428D01*
X58024761Y-75116666D01*
X57977142Y-75164285D01*
X57881904Y-75211904D01*
X57691428Y-75259523D01*
X57453333Y-75259523D01*
X57262857Y-75211904D01*
X57167619Y-75164285D01*
X57120000Y-75116666D01*
X57072380Y-75021428D01*
X63761904Y-73052380D02*
X63761904Y-73861904D01*
X63809523Y-73957142D01*
X63857142Y-74004761D01*
X63952380Y-74052380D01*
X64142857Y-74052380D01*
X64238095Y-74004761D01*
X64285714Y-73957142D01*
X64333333Y-73861904D01*
X64333333Y-73052380D01*
X65238095Y-73052380D02*
X65047619Y-73052380D01*
X64952380Y-73100000D01*
X64904761Y-73147619D01*
X64809523Y-73290476D01*
X64761904Y-73480952D01*
X64761904Y-73861904D01*
X64809523Y-73957142D01*
X64857142Y-74004761D01*
X64952380Y-74052380D01*
X65142857Y-74052380D01*
X65238095Y-74004761D01*
X65285714Y-73957142D01*
X65333333Y-73861904D01*
X65333333Y-73623809D01*
X65285714Y-73528571D01*
X65238095Y-73480952D01*
X65142857Y-73433333D01*
X64952380Y-73433333D01*
X64857142Y-73480952D01*
X64809523Y-73528571D01*
X64761904Y-73623809D01*
X65952380Y-73052380D02*
X66047619Y-73052380D01*
X66142857Y-73100000D01*
X66190476Y-73147619D01*
X66238095Y-73242857D01*
X66285714Y-73433333D01*
X66285714Y-73671428D01*
X66238095Y-73861904D01*
X66190476Y-73957142D01*
X66142857Y-74004761D01*
X66047619Y-74052380D01*
X65952380Y-74052380D01*
X65857142Y-74004761D01*
X65809523Y-73957142D01*
X65761904Y-73861904D01*
X65714285Y-73671428D01*
X65714285Y-73433333D01*
X65761904Y-73242857D01*
X65809523Y-73147619D01*
X65857142Y-73100000D01*
X65952380Y-73052380D01*
X94857142Y-50277142D02*
X94809523Y-50324761D01*
X94666666Y-50372380D01*
X94571428Y-50372380D01*
X94428571Y-50324761D01*
X94333333Y-50229523D01*
X94285714Y-50134285D01*
X94238095Y-49943809D01*
X94238095Y-49800952D01*
X94285714Y-49610476D01*
X94333333Y-49515238D01*
X94428571Y-49420000D01*
X94571428Y-49372380D01*
X94666666Y-49372380D01*
X94809523Y-49420000D01*
X94857142Y-49467619D01*
X95809523Y-50372380D02*
X95238095Y-50372380D01*
X95523809Y-50372380D02*
X95523809Y-49372380D01*
X95428571Y-49515238D01*
X95333333Y-49610476D01*
X95238095Y-49658095D01*
X96428571Y-49372380D02*
X96523809Y-49372380D01*
X96619047Y-49420000D01*
X96666666Y-49467619D01*
X96714285Y-49562857D01*
X96761904Y-49753333D01*
X96761904Y-49991428D01*
X96714285Y-50181904D01*
X96666666Y-50277142D01*
X96619047Y-50324761D01*
X96523809Y-50372380D01*
X96428571Y-50372380D01*
X96333333Y-50324761D01*
X96285714Y-50277142D01*
X96238095Y-50181904D01*
X96190476Y-49991428D01*
X96190476Y-49753333D01*
X96238095Y-49562857D01*
X96285714Y-49467619D01*
X96333333Y-49420000D01*
X96428571Y-49372380D01*
X101511904Y-64032380D02*
X101511904Y-64841904D01*
X101559523Y-64937142D01*
X101607142Y-64984761D01*
X101702380Y-65032380D01*
X101892857Y-65032380D01*
X101988095Y-64984761D01*
X102035714Y-64937142D01*
X102083333Y-64841904D01*
X102083333Y-64032380D01*
X103083333Y-65032380D02*
X102511904Y-65032380D01*
X102797619Y-65032380D02*
X102797619Y-64032380D01*
X102702380Y-64175238D01*
X102607142Y-64270476D01*
X102511904Y-64318095D01*
X104035714Y-65032380D02*
X103464285Y-65032380D01*
X103750000Y-65032380D02*
X103750000Y-64032380D01*
X103654761Y-64175238D01*
X103559523Y-64270476D01*
X103464285Y-64318095D01*
X83482380Y-42142857D02*
X83006190Y-42476190D01*
X83482380Y-42714285D02*
X82482380Y-42714285D01*
X82482380Y-42333333D01*
X82530000Y-42238095D01*
X82577619Y-42190476D01*
X82672857Y-42142857D01*
X82815714Y-42142857D01*
X82910952Y-42190476D01*
X82958571Y-42238095D01*
X83006190Y-42333333D01*
X83006190Y-42714285D01*
X82577619Y-41761904D02*
X82530000Y-41714285D01*
X82482380Y-41619047D01*
X82482380Y-41380952D01*
X82530000Y-41285714D01*
X82577619Y-41238095D01*
X82672857Y-41190476D01*
X82768095Y-41190476D01*
X82910952Y-41238095D01*
X83482380Y-41809523D01*
X83482380Y-41190476D01*
X82482380Y-40857142D02*
X82482380Y-40190476D01*
X83482380Y-40619047D01*
X52977142Y-84682857D02*
X53024761Y-84730476D01*
X53072380Y-84873333D01*
X53072380Y-84968571D01*
X53024761Y-85111428D01*
X52929523Y-85206666D01*
X52834285Y-85254285D01*
X52643809Y-85301904D01*
X52500952Y-85301904D01*
X52310476Y-85254285D01*
X52215238Y-85206666D01*
X52120000Y-85111428D01*
X52072380Y-84968571D01*
X52072380Y-84873333D01*
X52120000Y-84730476D01*
X52167619Y-84682857D01*
X52072380Y-83778095D02*
X52072380Y-84254285D01*
X52548571Y-84301904D01*
X52500952Y-84254285D01*
X52453333Y-84159047D01*
X52453333Y-83920952D01*
X52500952Y-83825714D01*
X52548571Y-83778095D01*
X52643809Y-83730476D01*
X52881904Y-83730476D01*
X52977142Y-83778095D01*
X53024761Y-83825714D01*
X53072380Y-83920952D01*
X53072380Y-84159047D01*
X53024761Y-84254285D01*
X52977142Y-84301904D01*
X52072380Y-83397142D02*
X52072380Y-82778095D01*
X52453333Y-83111428D01*
X52453333Y-82968571D01*
X52500952Y-82873333D01*
X52548571Y-82825714D01*
X52643809Y-82778095D01*
X52881904Y-82778095D01*
X52977142Y-82825714D01*
X53024761Y-82873333D01*
X53072380Y-82968571D01*
X53072380Y-83254285D01*
X53024761Y-83349523D01*
X52977142Y-83397142D01*
X74357142Y-73892857D02*
X74404761Y-73940476D01*
X74452380Y-74083333D01*
X74452380Y-74178571D01*
X74404761Y-74321428D01*
X74309523Y-74416666D01*
X74214285Y-74464285D01*
X74023809Y-74511904D01*
X73880952Y-74511904D01*
X73690476Y-74464285D01*
X73595238Y-74416666D01*
X73500000Y-74321428D01*
X73452380Y-74178571D01*
X73452380Y-74083333D01*
X73500000Y-73940476D01*
X73547619Y-73892857D01*
X73452380Y-73035714D02*
X73452380Y-73226190D01*
X73500000Y-73321428D01*
X73547619Y-73369047D01*
X73690476Y-73464285D01*
X73880952Y-73511904D01*
X74261904Y-73511904D01*
X74357142Y-73464285D01*
X74404761Y-73416666D01*
X74452380Y-73321428D01*
X74452380Y-73130952D01*
X74404761Y-73035714D01*
X74357142Y-72988095D01*
X74261904Y-72940476D01*
X74023809Y-72940476D01*
X73928571Y-72988095D01*
X73880952Y-73035714D01*
X73833333Y-73130952D01*
X73833333Y-73321428D01*
X73880952Y-73416666D01*
X73928571Y-73464285D01*
X74023809Y-73511904D01*
X74452380Y-71988095D02*
X74452380Y-72559523D01*
X74452380Y-72273809D02*
X73452380Y-72273809D01*
X73595238Y-72369047D01*
X73690476Y-72464285D01*
X73738095Y-72559523D01*
X75612380Y-42142857D02*
X75136190Y-42476190D01*
X75612380Y-42714285D02*
X74612380Y-42714285D01*
X74612380Y-42333333D01*
X74660000Y-42238095D01*
X74707619Y-42190476D01*
X74802857Y-42142857D01*
X74945714Y-42142857D01*
X75040952Y-42190476D01*
X75088571Y-42238095D01*
X75136190Y-42333333D01*
X75136190Y-42714285D01*
X74707619Y-41761904D02*
X74660000Y-41714285D01*
X74612380Y-41619047D01*
X74612380Y-41380952D01*
X74660000Y-41285714D01*
X74707619Y-41238095D01*
X74802857Y-41190476D01*
X74898095Y-41190476D01*
X75040952Y-41238095D01*
X75612380Y-41809523D01*
X75612380Y-41190476D01*
X74945714Y-40333333D02*
X75612380Y-40333333D01*
X74564761Y-40571428D02*
X75279047Y-40809523D01*
X75279047Y-40190476D01*
X38107142Y-76642857D02*
X38154761Y-76690476D01*
X38202380Y-76833333D01*
X38202380Y-76928571D01*
X38154761Y-77071428D01*
X38059523Y-77166666D01*
X37964285Y-77214285D01*
X37773809Y-77261904D01*
X37630952Y-77261904D01*
X37440476Y-77214285D01*
X37345238Y-77166666D01*
X37250000Y-77071428D01*
X37202380Y-76928571D01*
X37202380Y-76833333D01*
X37250000Y-76690476D01*
X37297619Y-76642857D01*
X37202380Y-75738095D02*
X37202380Y-76214285D01*
X37678571Y-76261904D01*
X37630952Y-76214285D01*
X37583333Y-76119047D01*
X37583333Y-75880952D01*
X37630952Y-75785714D01*
X37678571Y-75738095D01*
X37773809Y-75690476D01*
X38011904Y-75690476D01*
X38107142Y-75738095D01*
X38154761Y-75785714D01*
X38202380Y-75880952D01*
X38202380Y-76119047D01*
X38154761Y-76214285D01*
X38107142Y-76261904D01*
X37202380Y-75071428D02*
X37202380Y-74976190D01*
X37250000Y-74880952D01*
X37297619Y-74833333D01*
X37392857Y-74785714D01*
X37583333Y-74738095D01*
X37821428Y-74738095D01*
X38011904Y-74785714D01*
X38107142Y-74833333D01*
X38154761Y-74880952D01*
X38202380Y-74976190D01*
X38202380Y-75071428D01*
X38154761Y-75166666D01*
X38107142Y-75214285D01*
X38011904Y-75261904D01*
X37821428Y-75309523D01*
X37583333Y-75309523D01*
X37392857Y-75261904D01*
X37297619Y-75214285D01*
X37250000Y-75166666D01*
X37202380Y-75071428D01*
X87202380Y-50178095D02*
X88011904Y-50178095D01*
X88107142Y-50130476D01*
X88154761Y-50082857D01*
X88202380Y-49987619D01*
X88202380Y-49797142D01*
X88154761Y-49701904D01*
X88107142Y-49654285D01*
X88011904Y-49606666D01*
X87202380Y-49606666D01*
X87297619Y-49178095D02*
X87250000Y-49130476D01*
X87202380Y-49035238D01*
X87202380Y-48797142D01*
X87250000Y-48701904D01*
X87297619Y-48654285D01*
X87392857Y-48606666D01*
X87488095Y-48606666D01*
X87630952Y-48654285D01*
X88202380Y-49225714D01*
X88202380Y-48606666D01*
X88202380Y-47654285D02*
X88202380Y-48225714D01*
X88202380Y-47940000D02*
X87202380Y-47940000D01*
X87345238Y-48035238D01*
X87440476Y-48130476D01*
X87488095Y-48225714D01*
X59202380Y-85328095D02*
X59202380Y-84756666D01*
X60202380Y-85042380D02*
X59202380Y-85042380D01*
X59202380Y-83947142D02*
X59202380Y-84423333D01*
X59678571Y-84470952D01*
X59630952Y-84423333D01*
X59583333Y-84328095D01*
X59583333Y-84090000D01*
X59630952Y-83994761D01*
X59678571Y-83947142D01*
X59773809Y-83899523D01*
X60011904Y-83899523D01*
X60107142Y-83947142D01*
X60154761Y-83994761D01*
X60202380Y-84090000D01*
X60202380Y-84328095D01*
X60154761Y-84423333D01*
X60107142Y-84470952D01*
X59202380Y-83280476D02*
X59202380Y-83185238D01*
X59250000Y-83090000D01*
X59297619Y-83042380D01*
X59392857Y-82994761D01*
X59583333Y-82947142D01*
X59821428Y-82947142D01*
X60011904Y-82994761D01*
X60107142Y-83042380D01*
X60154761Y-83090000D01*
X60202380Y-83185238D01*
X60202380Y-83280476D01*
X60154761Y-83375714D01*
X60107142Y-83423333D01*
X60011904Y-83470952D01*
X59821428Y-83518571D01*
X59583333Y-83518571D01*
X59392857Y-83470952D01*
X59297619Y-83423333D01*
X59250000Y-83375714D01*
X59202380Y-83280476D01*
X94857142Y-65437142D02*
X94809523Y-65484761D01*
X94666666Y-65532380D01*
X94571428Y-65532380D01*
X94428571Y-65484761D01*
X94333333Y-65389523D01*
X94285714Y-65294285D01*
X94238095Y-65103809D01*
X94238095Y-64960952D01*
X94285714Y-64770476D01*
X94333333Y-64675238D01*
X94428571Y-64580000D01*
X94571428Y-64532380D01*
X94666666Y-64532380D01*
X94809523Y-64580000D01*
X94857142Y-64627619D01*
X95809523Y-65532380D02*
X95238095Y-65532380D01*
X95523809Y-65532380D02*
X95523809Y-64532380D01*
X95428571Y-64675238D01*
X95333333Y-64770476D01*
X95238095Y-64818095D01*
X96142857Y-64532380D02*
X96761904Y-64532380D01*
X96428571Y-64913333D01*
X96571428Y-64913333D01*
X96666666Y-64960952D01*
X96714285Y-65008571D01*
X96761904Y-65103809D01*
X96761904Y-65341904D01*
X96714285Y-65437142D01*
X96666666Y-65484761D01*
X96571428Y-65532380D01*
X96285714Y-65532380D01*
X96190476Y-65484761D01*
X96142857Y-65437142D01*
X42857142Y-76542857D02*
X42904761Y-76590476D01*
X42952380Y-76733333D01*
X42952380Y-76828571D01*
X42904761Y-76971428D01*
X42809523Y-77066666D01*
X42714285Y-77114285D01*
X42523809Y-77161904D01*
X42380952Y-77161904D01*
X42190476Y-77114285D01*
X42095238Y-77066666D01*
X42000000Y-76971428D01*
X41952380Y-76828571D01*
X41952380Y-76733333D01*
X42000000Y-76590476D01*
X42047619Y-76542857D01*
X41952380Y-75638095D02*
X41952380Y-76114285D01*
X42428571Y-76161904D01*
X42380952Y-76114285D01*
X42333333Y-76019047D01*
X42333333Y-75780952D01*
X42380952Y-75685714D01*
X42428571Y-75638095D01*
X42523809Y-75590476D01*
X42761904Y-75590476D01*
X42857142Y-75638095D01*
X42904761Y-75685714D01*
X42952380Y-75780952D01*
X42952380Y-76019047D01*
X42904761Y-76114285D01*
X42857142Y-76161904D01*
X42952380Y-74638095D02*
X42952380Y-75209523D01*
X42952380Y-74923809D02*
X41952380Y-74923809D01*
X42095238Y-75019047D01*
X42190476Y-75114285D01*
X42238095Y-75209523D01*
X72107142Y-73892857D02*
X72154761Y-73940476D01*
X72202380Y-74083333D01*
X72202380Y-74178571D01*
X72154761Y-74321428D01*
X72059523Y-74416666D01*
X71964285Y-74464285D01*
X71773809Y-74511904D01*
X71630952Y-74511904D01*
X71440476Y-74464285D01*
X71345238Y-74416666D01*
X71250000Y-74321428D01*
X71202380Y-74178571D01*
X71202380Y-74083333D01*
X71250000Y-73940476D01*
X71297619Y-73892857D01*
X71202380Y-73035714D02*
X71202380Y-73226190D01*
X71250000Y-73321428D01*
X71297619Y-73369047D01*
X71440476Y-73464285D01*
X71630952Y-73511904D01*
X72011904Y-73511904D01*
X72107142Y-73464285D01*
X72154761Y-73416666D01*
X72202380Y-73321428D01*
X72202380Y-73130952D01*
X72154761Y-73035714D01*
X72107142Y-72988095D01*
X72011904Y-72940476D01*
X71773809Y-72940476D01*
X71678571Y-72988095D01*
X71630952Y-73035714D01*
X71583333Y-73130952D01*
X71583333Y-73321428D01*
X71630952Y-73416666D01*
X71678571Y-73464285D01*
X71773809Y-73511904D01*
X71202380Y-72321428D02*
X71202380Y-72226190D01*
X71250000Y-72130952D01*
X71297619Y-72083333D01*
X71392857Y-72035714D01*
X71583333Y-71988095D01*
X71821428Y-71988095D01*
X72011904Y-72035714D01*
X72107142Y-72083333D01*
X72154761Y-72130952D01*
X72202380Y-72226190D01*
X72202380Y-72321428D01*
X72154761Y-72416666D01*
X72107142Y-72464285D01*
X72011904Y-72511904D01*
X71821428Y-72559523D01*
X71583333Y-72559523D01*
X71392857Y-72511904D01*
X71297619Y-72464285D01*
X71250000Y-72416666D01*
X71202380Y-72321428D01*
X72857142Y-67607142D02*
X72809523Y-67654761D01*
X72666666Y-67702380D01*
X72571428Y-67702380D01*
X72428571Y-67654761D01*
X72333333Y-67559523D01*
X72285714Y-67464285D01*
X72238095Y-67273809D01*
X72238095Y-67130952D01*
X72285714Y-66940476D01*
X72333333Y-66845238D01*
X72428571Y-66750000D01*
X72571428Y-66702380D01*
X72666666Y-66702380D01*
X72809523Y-66750000D01*
X72857142Y-66797619D01*
X73714285Y-66702380D02*
X73523809Y-66702380D01*
X73428571Y-66750000D01*
X73380952Y-66797619D01*
X73285714Y-66940476D01*
X73238095Y-67130952D01*
X73238095Y-67511904D01*
X73285714Y-67607142D01*
X73333333Y-67654761D01*
X73428571Y-67702380D01*
X73619047Y-67702380D01*
X73714285Y-67654761D01*
X73761904Y-67607142D01*
X73809523Y-67511904D01*
X73809523Y-67273809D01*
X73761904Y-67178571D01*
X73714285Y-67130952D01*
X73619047Y-67083333D01*
X73428571Y-67083333D01*
X73333333Y-67130952D01*
X73285714Y-67178571D01*
X73238095Y-67273809D01*
X74190476Y-66797619D02*
X74238095Y-66750000D01*
X74333333Y-66702380D01*
X74571428Y-66702380D01*
X74666666Y-66750000D01*
X74714285Y-66797619D01*
X74761904Y-66892857D01*
X74761904Y-66988095D01*
X74714285Y-67130952D01*
X74142857Y-67702380D01*
X74761904Y-67702380D01*
X65452380Y-42142857D02*
X64976190Y-42476190D01*
X65452380Y-42714285D02*
X64452380Y-42714285D01*
X64452380Y-42333333D01*
X64500000Y-42238095D01*
X64547619Y-42190476D01*
X64642857Y-42142857D01*
X64785714Y-42142857D01*
X64880952Y-42190476D01*
X64928571Y-42238095D01*
X64976190Y-42333333D01*
X64976190Y-42714285D01*
X64547619Y-41761904D02*
X64500000Y-41714285D01*
X64452380Y-41619047D01*
X64452380Y-41380952D01*
X64500000Y-41285714D01*
X64547619Y-41238095D01*
X64642857Y-41190476D01*
X64738095Y-41190476D01*
X64880952Y-41238095D01*
X65452380Y-41809523D01*
X65452380Y-41190476D01*
X64452380Y-40571428D02*
X64452380Y-40476190D01*
X64500000Y-40380952D01*
X64547619Y-40333333D01*
X64642857Y-40285714D01*
X64833333Y-40238095D01*
X65071428Y-40238095D01*
X65261904Y-40285714D01*
X65357142Y-40333333D01*
X65404761Y-40380952D01*
X65452380Y-40476190D01*
X65452380Y-40571428D01*
X65404761Y-40666666D01*
X65357142Y-40714285D01*
X65261904Y-40761904D01*
X65071428Y-40809523D01*
X64833333Y-40809523D01*
X64642857Y-40761904D01*
X64547619Y-40714285D01*
X64500000Y-40666666D01*
X64452380Y-40571428D01*
X67992380Y-42142857D02*
X67516190Y-42476190D01*
X67992380Y-42714285D02*
X66992380Y-42714285D01*
X66992380Y-42333333D01*
X67040000Y-42238095D01*
X67087619Y-42190476D01*
X67182857Y-42142857D01*
X67325714Y-42142857D01*
X67420952Y-42190476D01*
X67468571Y-42238095D01*
X67516190Y-42333333D01*
X67516190Y-42714285D01*
X67087619Y-41761904D02*
X67040000Y-41714285D01*
X66992380Y-41619047D01*
X66992380Y-41380952D01*
X67040000Y-41285714D01*
X67087619Y-41238095D01*
X67182857Y-41190476D01*
X67278095Y-41190476D01*
X67420952Y-41238095D01*
X67992380Y-41809523D01*
X67992380Y-41190476D01*
X67992380Y-40238095D02*
X67992380Y-40809523D01*
X67992380Y-40523809D02*
X66992380Y-40523809D01*
X67135238Y-40619047D01*
X67230476Y-40714285D01*
X67278095Y-40809523D01*
X85202380Y-76592857D02*
X84726190Y-76926190D01*
X85202380Y-77164285D02*
X84202380Y-77164285D01*
X84202380Y-76783333D01*
X84250000Y-76688095D01*
X84297619Y-76640476D01*
X84392857Y-76592857D01*
X84535714Y-76592857D01*
X84630952Y-76640476D01*
X84678571Y-76688095D01*
X84726190Y-76783333D01*
X84726190Y-77164285D01*
X84202380Y-76259523D02*
X84202380Y-75640476D01*
X84583333Y-75973809D01*
X84583333Y-75830952D01*
X84630952Y-75735714D01*
X84678571Y-75688095D01*
X84773809Y-75640476D01*
X85011904Y-75640476D01*
X85107142Y-75688095D01*
X85154761Y-75735714D01*
X85202380Y-75830952D01*
X85202380Y-76116666D01*
X85154761Y-76211904D01*
X85107142Y-76259523D01*
X85202380Y-74688095D02*
X85202380Y-75259523D01*
X85202380Y-74973809D02*
X84202380Y-74973809D01*
X84345238Y-75069047D01*
X84440476Y-75164285D01*
X84488095Y-75259523D01*
X70532380Y-42142857D02*
X70056190Y-42476190D01*
X70532380Y-42714285D02*
X69532380Y-42714285D01*
X69532380Y-42333333D01*
X69580000Y-42238095D01*
X69627619Y-42190476D01*
X69722857Y-42142857D01*
X69865714Y-42142857D01*
X69960952Y-42190476D01*
X70008571Y-42238095D01*
X70056190Y-42333333D01*
X70056190Y-42714285D01*
X69627619Y-41761904D02*
X69580000Y-41714285D01*
X69532380Y-41619047D01*
X69532380Y-41380952D01*
X69580000Y-41285714D01*
X69627619Y-41238095D01*
X69722857Y-41190476D01*
X69818095Y-41190476D01*
X69960952Y-41238095D01*
X70532380Y-41809523D01*
X70532380Y-41190476D01*
X69627619Y-40809523D02*
X69580000Y-40761904D01*
X69532380Y-40666666D01*
X69532380Y-40428571D01*
X69580000Y-40333333D01*
X69627619Y-40285714D01*
X69722857Y-40238095D01*
X69818095Y-40238095D01*
X69960952Y-40285714D01*
X70532380Y-40857142D01*
X70532380Y-40238095D01*
X78152380Y-42142857D02*
X77676190Y-42476190D01*
X78152380Y-42714285D02*
X77152380Y-42714285D01*
X77152380Y-42333333D01*
X77200000Y-42238095D01*
X77247619Y-42190476D01*
X77342857Y-42142857D01*
X77485714Y-42142857D01*
X77580952Y-42190476D01*
X77628571Y-42238095D01*
X77676190Y-42333333D01*
X77676190Y-42714285D01*
X77247619Y-41761904D02*
X77200000Y-41714285D01*
X77152380Y-41619047D01*
X77152380Y-41380952D01*
X77200000Y-41285714D01*
X77247619Y-41238095D01*
X77342857Y-41190476D01*
X77438095Y-41190476D01*
X77580952Y-41238095D01*
X78152380Y-41809523D01*
X78152380Y-41190476D01*
X77152380Y-40285714D02*
X77152380Y-40761904D01*
X77628571Y-40809523D01*
X77580952Y-40761904D01*
X77533333Y-40666666D01*
X77533333Y-40428571D01*
X77580952Y-40333333D01*
X77628571Y-40285714D01*
X77723809Y-40238095D01*
X77961904Y-40238095D01*
X78057142Y-40285714D01*
X78104761Y-40333333D01*
X78152380Y-40428571D01*
X78152380Y-40666666D01*
X78104761Y-40761904D01*
X78057142Y-40809523D01*
X61702380Y-50178095D02*
X62511904Y-50178095D01*
X62607142Y-50130476D01*
X62654761Y-50082857D01*
X62702380Y-49987619D01*
X62702380Y-49797142D01*
X62654761Y-49701904D01*
X62607142Y-49654285D01*
X62511904Y-49606666D01*
X61702380Y-49606666D01*
X61797619Y-49178095D02*
X61750000Y-49130476D01*
X61702380Y-49035238D01*
X61702380Y-48797142D01*
X61750000Y-48701904D01*
X61797619Y-48654285D01*
X61892857Y-48606666D01*
X61988095Y-48606666D01*
X62130952Y-48654285D01*
X62702380Y-49225714D01*
X62702380Y-48606666D01*
X61702380Y-47987619D02*
X61702380Y-47892380D01*
X61750000Y-47797142D01*
X61797619Y-47749523D01*
X61892857Y-47701904D01*
X62083333Y-47654285D01*
X62321428Y-47654285D01*
X62511904Y-47701904D01*
X62607142Y-47749523D01*
X62654761Y-47797142D01*
X62702380Y-47892380D01*
X62702380Y-47987619D01*
X62654761Y-48082857D01*
X62607142Y-48130476D01*
X62511904Y-48178095D01*
X62321428Y-48225714D01*
X62083333Y-48225714D01*
X61892857Y-48178095D01*
X61797619Y-48130476D01*
X61750000Y-48082857D01*
X61702380Y-47987619D01*
X94857142Y-60357142D02*
X94809523Y-60404761D01*
X94666666Y-60452380D01*
X94571428Y-60452380D01*
X94428571Y-60404761D01*
X94333333Y-60309523D01*
X94285714Y-60214285D01*
X94238095Y-60023809D01*
X94238095Y-59880952D01*
X94285714Y-59690476D01*
X94333333Y-59595238D01*
X94428571Y-59500000D01*
X94571428Y-59452380D01*
X94666666Y-59452380D01*
X94809523Y-59500000D01*
X94857142Y-59547619D01*
X95809523Y-60452380D02*
X95238095Y-60452380D01*
X95523809Y-60452380D02*
X95523809Y-59452380D01*
X95428571Y-59595238D01*
X95333333Y-59690476D01*
X95238095Y-59738095D01*
X96190476Y-59547619D02*
X96238095Y-59500000D01*
X96333333Y-59452380D01*
X96571428Y-59452380D01*
X96666666Y-59500000D01*
X96714285Y-59547619D01*
X96761904Y-59642857D01*
X96761904Y-59738095D01*
X96714285Y-59880952D01*
X96142857Y-60452380D01*
X96761904Y-60452380D01*
X90278751Y-77164285D02*
X89278751Y-77164285D01*
X89278751Y-76926190D01*
X89326371Y-76783333D01*
X89421609Y-76688095D01*
X89516847Y-76640476D01*
X89707323Y-76592857D01*
X89850180Y-76592857D01*
X90040656Y-76640476D01*
X90135894Y-76688095D01*
X90231132Y-76783333D01*
X90278751Y-76926190D01*
X90278751Y-77164285D01*
X89278751Y-76259523D02*
X89278751Y-75640476D01*
X89659704Y-75973809D01*
X89659704Y-75830952D01*
X89707323Y-75735714D01*
X89754942Y-75688095D01*
X89850180Y-75640476D01*
X90088275Y-75640476D01*
X90183513Y-75688095D01*
X90231132Y-75735714D01*
X90278751Y-75830952D01*
X90278751Y-76116666D01*
X90231132Y-76211904D01*
X90183513Y-76259523D01*
X89278751Y-75021428D02*
X89278751Y-74926190D01*
X89326371Y-74830952D01*
X89373990Y-74783333D01*
X89469228Y-74735714D01*
X89659704Y-74688095D01*
X89897799Y-74688095D01*
X90088275Y-74735714D01*
X90183513Y-74783333D01*
X90231132Y-74830952D01*
X90278751Y-74926190D01*
X90278751Y-75021428D01*
X90231132Y-75116666D01*
X90183513Y-75164285D01*
X90088275Y-75211904D01*
X89897799Y-75259523D01*
X89659704Y-75259523D01*
X89469228Y-75211904D01*
X89373990Y-75164285D01*
X89326371Y-75116666D01*
X89278751Y-75021428D01*
X89416666Y-78728095D02*
X89416666Y-78251904D01*
X89702380Y-78823333D02*
X88702380Y-78490000D01*
X89702380Y-78156666D01*
X70726190Y-63452380D02*
X71202380Y-63452380D01*
X70202380Y-63785714D02*
X70726190Y-63452380D01*
X70202380Y-63119047D01*
X70202380Y-62357142D02*
X70202380Y-62547619D01*
X70250000Y-62642857D01*
X70297619Y-62690476D01*
X70440476Y-62785714D01*
X70630952Y-62833333D01*
X71011904Y-62833333D01*
X71107142Y-62785714D01*
X71154761Y-62738095D01*
X71202380Y-62642857D01*
X71202380Y-62452380D01*
X71154761Y-62357142D01*
X71107142Y-62309523D01*
X71011904Y-62261904D01*
X70773809Y-62261904D01*
X70678571Y-62309523D01*
X70630952Y-62357142D01*
X70583333Y-62452380D01*
X70583333Y-62642857D01*
X70630952Y-62738095D01*
X70678571Y-62785714D01*
X70773809Y-62833333D01*
X70202380Y-61642857D02*
X70202380Y-61547619D01*
X70250000Y-61452380D01*
X70297619Y-61404761D01*
X70392857Y-61357142D01*
X70583333Y-61309523D01*
X70821428Y-61309523D01*
X71011904Y-61357142D01*
X71107142Y-61404761D01*
X71154761Y-61452380D01*
X71202380Y-61547619D01*
X71202380Y-61642857D01*
X71154761Y-61738095D01*
X71107142Y-61785714D01*
X71011904Y-61833333D01*
X70821428Y-61880952D01*
X70583333Y-61880952D01*
X70392857Y-61833333D01*
X70297619Y-61785714D01*
X70250000Y-61738095D01*
X70202380Y-61642857D01*
X38107142Y-59892857D02*
X38154761Y-59940476D01*
X38202380Y-60083333D01*
X38202380Y-60178571D01*
X38154761Y-60321428D01*
X38059523Y-60416666D01*
X37964285Y-60464285D01*
X37773809Y-60511904D01*
X37630952Y-60511904D01*
X37440476Y-60464285D01*
X37345238Y-60416666D01*
X37250000Y-60321428D01*
X37202380Y-60178571D01*
X37202380Y-60083333D01*
X37250000Y-59940476D01*
X37297619Y-59892857D01*
X37535714Y-59035714D02*
X38202380Y-59035714D01*
X37154761Y-59273809D02*
X37869047Y-59511904D01*
X37869047Y-58892857D01*
X38202380Y-57988095D02*
X38202380Y-58559523D01*
X38202380Y-58273809D02*
X37202380Y-58273809D01*
X37345238Y-58369047D01*
X37440476Y-58464285D01*
X37488095Y-58559523D01*
X94857142Y-55357142D02*
X94809523Y-55404761D01*
X94666666Y-55452380D01*
X94571428Y-55452380D01*
X94428571Y-55404761D01*
X94333333Y-55309523D01*
X94285714Y-55214285D01*
X94238095Y-55023809D01*
X94238095Y-54880952D01*
X94285714Y-54690476D01*
X94333333Y-54595238D01*
X94428571Y-54500000D01*
X94571428Y-54452380D01*
X94666666Y-54452380D01*
X94809523Y-54500000D01*
X94857142Y-54547619D01*
X95809523Y-55452380D02*
X95238095Y-55452380D01*
X95523809Y-55452380D02*
X95523809Y-54452380D01*
X95428571Y-54595238D01*
X95333333Y-54690476D01*
X95238095Y-54738095D01*
X96761904Y-55452380D02*
X96190476Y-55452380D01*
X96476190Y-55452380D02*
X96476190Y-54452380D01*
X96380952Y-54595238D01*
X96285714Y-54690476D01*
X96190476Y-54738095D01*
X80692380Y-42142857D02*
X80216190Y-42476190D01*
X80692380Y-42714285D02*
X79692380Y-42714285D01*
X79692380Y-42333333D01*
X79740000Y-42238095D01*
X79787619Y-42190476D01*
X79882857Y-42142857D01*
X80025714Y-42142857D01*
X80120952Y-42190476D01*
X80168571Y-42238095D01*
X80216190Y-42333333D01*
X80216190Y-42714285D01*
X79787619Y-41761904D02*
X79740000Y-41714285D01*
X79692380Y-41619047D01*
X79692380Y-41380952D01*
X79740000Y-41285714D01*
X79787619Y-41238095D01*
X79882857Y-41190476D01*
X79978095Y-41190476D01*
X80120952Y-41238095D01*
X80692380Y-41809523D01*
X80692380Y-41190476D01*
X79692380Y-40333333D02*
X79692380Y-40523809D01*
X79740000Y-40619047D01*
X79787619Y-40666666D01*
X79930476Y-40761904D01*
X80120952Y-40809523D01*
X80501904Y-40809523D01*
X80597142Y-40761904D01*
X80644761Y-40714285D01*
X80692380Y-40619047D01*
X80692380Y-40428571D01*
X80644761Y-40333333D01*
X80597142Y-40285714D01*
X80501904Y-40238095D01*
X80263809Y-40238095D01*
X80168571Y-40285714D01*
X80120952Y-40333333D01*
X80073333Y-40428571D01*
X80073333Y-40619047D01*
X80120952Y-40714285D01*
X80168571Y-40761904D01*
X80263809Y-40809523D01*
X73072380Y-42142857D02*
X72596190Y-42476190D01*
X73072380Y-42714285D02*
X72072380Y-42714285D01*
X72072380Y-42333333D01*
X72120000Y-42238095D01*
X72167619Y-42190476D01*
X72262857Y-42142857D01*
X72405714Y-42142857D01*
X72500952Y-42190476D01*
X72548571Y-42238095D01*
X72596190Y-42333333D01*
X72596190Y-42714285D01*
X72167619Y-41761904D02*
X72120000Y-41714285D01*
X72072380Y-41619047D01*
X72072380Y-41380952D01*
X72120000Y-41285714D01*
X72167619Y-41238095D01*
X72262857Y-41190476D01*
X72358095Y-41190476D01*
X72500952Y-41238095D01*
X73072380Y-41809523D01*
X73072380Y-41190476D01*
X72072380Y-40857142D02*
X72072380Y-40238095D01*
X72453333Y-40571428D01*
X72453333Y-40428571D01*
X72500952Y-40333333D01*
X72548571Y-40285714D01*
X72643809Y-40238095D01*
X72881904Y-40238095D01*
X72977142Y-40285714D01*
X73024761Y-40333333D01*
X73072380Y-40428571D01*
X73072380Y-40714285D01*
X73024761Y-40809523D01*
X72977142Y-40857142D01*
X33107142Y-76642857D02*
X33154761Y-76690476D01*
X33202380Y-76833333D01*
X33202380Y-76928571D01*
X33154761Y-77071428D01*
X33059523Y-77166666D01*
X32964285Y-77214285D01*
X32773809Y-77261904D01*
X32630952Y-77261904D01*
X32440476Y-77214285D01*
X32345238Y-77166666D01*
X32250000Y-77071428D01*
X32202380Y-76928571D01*
X32202380Y-76833333D01*
X32250000Y-76690476D01*
X32297619Y-76642857D01*
X32535714Y-75785714D02*
X33202380Y-75785714D01*
X32154761Y-76023809D02*
X32869047Y-76261904D01*
X32869047Y-75642857D01*
X32202380Y-75071428D02*
X32202380Y-74976190D01*
X32250000Y-74880952D01*
X32297619Y-74833333D01*
X32392857Y-74785714D01*
X32583333Y-74738095D01*
X32821428Y-74738095D01*
X33011904Y-74785714D01*
X33107142Y-74833333D01*
X33154761Y-74880952D01*
X33202380Y-74976190D01*
X33202380Y-75071428D01*
X33154761Y-75166666D01*
X33107142Y-75214285D01*
X33011904Y-75261904D01*
X32821428Y-75309523D01*
X32583333Y-75309523D01*
X32392857Y-75261904D01*
X32297619Y-75214285D01*
X32250000Y-75166666D01*
X32202380Y-75071428D01*
X53072380Y-76592857D02*
X52596190Y-76926190D01*
X53072380Y-77164285D02*
X52072380Y-77164285D01*
X52072380Y-76783333D01*
X52120000Y-76688095D01*
X52167619Y-76640476D01*
X52262857Y-76592857D01*
X52405714Y-76592857D01*
X52500952Y-76640476D01*
X52548571Y-76688095D01*
X52596190Y-76783333D01*
X52596190Y-77164285D01*
X52072380Y-75688095D02*
X52072380Y-76164285D01*
X52548571Y-76211904D01*
X52500952Y-76164285D01*
X52453333Y-76069047D01*
X52453333Y-75830952D01*
X52500952Y-75735714D01*
X52548571Y-75688095D01*
X52643809Y-75640476D01*
X52881904Y-75640476D01*
X52977142Y-75688095D01*
X53024761Y-75735714D01*
X53072380Y-75830952D01*
X53072380Y-76069047D01*
X53024761Y-76164285D01*
X52977142Y-76211904D01*
X53072380Y-74688095D02*
X53072380Y-75259523D01*
X53072380Y-74973809D02*
X52072380Y-74973809D01*
X52215238Y-75069047D01*
X52310476Y-75164285D01*
X52358095Y-75259523D01*
X95202380Y-76727857D02*
X94726190Y-77061190D01*
X95202380Y-77299285D02*
X94202380Y-77299285D01*
X94202380Y-76918333D01*
X94250000Y-76823095D01*
X94297619Y-76775476D01*
X94392857Y-76727857D01*
X94535714Y-76727857D01*
X94630952Y-76775476D01*
X94678571Y-76823095D01*
X94726190Y-76918333D01*
X94726190Y-77299285D01*
X94202380Y-76394523D02*
X94202380Y-75775476D01*
X94583333Y-76108809D01*
X94583333Y-75965952D01*
X94630952Y-75870714D01*
X94678571Y-75823095D01*
X94773809Y-75775476D01*
X95011904Y-75775476D01*
X95107142Y-75823095D01*
X95154761Y-75870714D01*
X95202380Y-75965952D01*
X95202380Y-76251666D01*
X95154761Y-76346904D01*
X95107142Y-76394523D01*
X94202380Y-75156428D02*
X94202380Y-75061190D01*
X94250000Y-74965952D01*
X94297619Y-74918333D01*
X94392857Y-74870714D01*
X94583333Y-74823095D01*
X94821428Y-74823095D01*
X95011904Y-74870714D01*
X95107142Y-74918333D01*
X95154761Y-74965952D01*
X95202380Y-75061190D01*
X95202380Y-75156428D01*
X95154761Y-75251666D01*
X95107142Y-75299285D01*
X95011904Y-75346904D01*
X94821428Y-75394523D01*
X94583333Y-75394523D01*
X94392857Y-75346904D01*
X94297619Y-75299285D01*
X94250000Y-75251666D01*
X94202380Y-75156428D01*
X80278751Y-77164285D02*
X79278751Y-77164285D01*
X79278751Y-76926190D01*
X79326371Y-76783333D01*
X79421609Y-76688095D01*
X79516847Y-76640476D01*
X79707323Y-76592857D01*
X79850180Y-76592857D01*
X80040656Y-76640476D01*
X80135894Y-76688095D01*
X80231132Y-76783333D01*
X80278751Y-76926190D01*
X80278751Y-77164285D01*
X79278751Y-76259523D02*
X79278751Y-75640476D01*
X79659704Y-75973809D01*
X79659704Y-75830952D01*
X79707323Y-75735714D01*
X79754942Y-75688095D01*
X79850180Y-75640476D01*
X80088275Y-75640476D01*
X80183513Y-75688095D01*
X80231132Y-75735714D01*
X80278751Y-75830952D01*
X80278751Y-76116666D01*
X80231132Y-76211904D01*
X80183513Y-76259523D01*
X79373990Y-75259523D02*
X79326371Y-75211904D01*
X79278751Y-75116666D01*
X79278751Y-74878571D01*
X79326371Y-74783333D01*
X79373990Y-74735714D01*
X79469228Y-74688095D01*
X79564466Y-74688095D01*
X79707323Y-74735714D01*
X80278751Y-75307142D01*
X80278751Y-74688095D01*
X79416666Y-78728095D02*
X79416666Y-78251904D01*
X79702380Y-78823333D02*
X78702380Y-78490000D01*
X79702380Y-78156666D01*
X65607142Y-84682857D02*
X65654761Y-84730476D01*
X65702380Y-84873333D01*
X65702380Y-84968571D01*
X65654761Y-85111428D01*
X65559523Y-85206666D01*
X65464285Y-85254285D01*
X65273809Y-85301904D01*
X65130952Y-85301904D01*
X64940476Y-85254285D01*
X64845238Y-85206666D01*
X64750000Y-85111428D01*
X64702380Y-84968571D01*
X64702380Y-84873333D01*
X64750000Y-84730476D01*
X64797619Y-84682857D01*
X64702380Y-83778095D02*
X64702380Y-84254285D01*
X65178571Y-84301904D01*
X65130952Y-84254285D01*
X65083333Y-84159047D01*
X65083333Y-83920952D01*
X65130952Y-83825714D01*
X65178571Y-83778095D01*
X65273809Y-83730476D01*
X65511904Y-83730476D01*
X65607142Y-83778095D01*
X65654761Y-83825714D01*
X65702380Y-83920952D01*
X65702380Y-84159047D01*
X65654761Y-84254285D01*
X65607142Y-84301904D01*
X65035714Y-82873333D02*
X65702380Y-82873333D01*
X64654761Y-83111428D02*
X65369047Y-83349523D01*
X65369047Y-82730476D01*
X38072380Y-67917857D02*
X37596190Y-68251190D01*
X38072380Y-68489285D02*
X37072380Y-68489285D01*
X37072380Y-68108333D01*
X37120000Y-68013095D01*
X37167619Y-67965476D01*
X37262857Y-67917857D01*
X37405714Y-67917857D01*
X37500952Y-67965476D01*
X37548571Y-68013095D01*
X37596190Y-68108333D01*
X37596190Y-68489285D01*
X37405714Y-67060714D02*
X38072380Y-67060714D01*
X37024761Y-67298809D02*
X37739047Y-67536904D01*
X37739047Y-66917857D01*
X38072380Y-66013095D02*
X38072380Y-66584523D01*
X38072380Y-66298809D02*
X37072380Y-66298809D01*
X37215238Y-66394047D01*
X37310476Y-66489285D01*
X37358095Y-66584523D01*
X72857142Y-58452380D02*
X72523809Y-57976190D01*
X72285714Y-58452380D02*
X72285714Y-57452380D01*
X72666666Y-57452380D01*
X72761904Y-57500000D01*
X72809523Y-57547619D01*
X72857142Y-57642857D01*
X72857142Y-57785714D01*
X72809523Y-57880952D01*
X72761904Y-57928571D01*
X72666666Y-57976190D01*
X72285714Y-57976190D01*
X73714285Y-57452380D02*
X73523809Y-57452380D01*
X73428571Y-57500000D01*
X73380952Y-57547619D01*
X73285714Y-57690476D01*
X73238095Y-57880952D01*
X73238095Y-58261904D01*
X73285714Y-58357142D01*
X73333333Y-58404761D01*
X73428571Y-58452380D01*
X73619047Y-58452380D01*
X73714285Y-58404761D01*
X73761904Y-58357142D01*
X73809523Y-58261904D01*
X73809523Y-58023809D01*
X73761904Y-57928571D01*
X73714285Y-57880952D01*
X73619047Y-57833333D01*
X73428571Y-57833333D01*
X73333333Y-57880952D01*
X73285714Y-57928571D01*
X73238095Y-58023809D01*
X74428571Y-57452380D02*
X74523809Y-57452380D01*
X74619047Y-57500000D01*
X74666666Y-57547619D01*
X74714285Y-57642857D01*
X74761904Y-57833333D01*
X74761904Y-58071428D01*
X74714285Y-58261904D01*
X74666666Y-58357142D01*
X74619047Y-58404761D01*
X74523809Y-58452380D01*
X74428571Y-58452380D01*
X74333333Y-58404761D01*
X74285714Y-58357142D01*
X74238095Y-58261904D01*
X74190476Y-58071428D01*
X74190476Y-57833333D01*
X74238095Y-57642857D01*
X74285714Y-57547619D01*
X74333333Y-57500000D01*
X74428571Y-57452380D01*
X47202380Y-80988095D02*
X48011904Y-80988095D01*
X48107142Y-80940476D01*
X48154761Y-80892857D01*
X48202380Y-80797619D01*
X48202380Y-80607142D01*
X48154761Y-80511904D01*
X48107142Y-80464285D01*
X48011904Y-80416666D01*
X47202380Y-80416666D01*
X47202380Y-79464285D02*
X47202380Y-79940476D01*
X47678571Y-79988095D01*
X47630952Y-79940476D01*
X47583333Y-79845238D01*
X47583333Y-79607142D01*
X47630952Y-79511904D01*
X47678571Y-79464285D01*
X47773809Y-79416666D01*
X48011904Y-79416666D01*
X48107142Y-79464285D01*
X48154761Y-79511904D01*
X48202380Y-79607142D01*
X48202380Y-79845238D01*
X48154761Y-79940476D01*
X48107142Y-79988095D01*
X47202380Y-78797619D02*
X47202380Y-78702380D01*
X47250000Y-78607142D01*
X47297619Y-78559523D01*
X47392857Y-78511904D01*
X47583333Y-78464285D01*
X47821428Y-78464285D01*
X48011904Y-78511904D01*
X48107142Y-78559523D01*
X48154761Y-78607142D01*
X48202380Y-78702380D01*
X48202380Y-78797619D01*
X48154761Y-78892857D01*
X48107142Y-78940476D01*
X48011904Y-78988095D01*
X47821428Y-79035714D01*
X47583333Y-79035714D01*
X47392857Y-78988095D01*
X47297619Y-78940476D01*
X47250000Y-78892857D01*
X47202380Y-78797619D01*
X33072380Y-67917857D02*
X32596190Y-68251190D01*
X33072380Y-68489285D02*
X32072380Y-68489285D01*
X32072380Y-68108333D01*
X32120000Y-68013095D01*
X32167619Y-67965476D01*
X32262857Y-67917857D01*
X32405714Y-67917857D01*
X32500952Y-67965476D01*
X32548571Y-68013095D01*
X32596190Y-68108333D01*
X32596190Y-68489285D01*
X32405714Y-67060714D02*
X33072380Y-67060714D01*
X32024761Y-67298809D02*
X32739047Y-67536904D01*
X32739047Y-66917857D01*
X32072380Y-66346428D02*
X32072380Y-66251190D01*
X32120000Y-66155952D01*
X32167619Y-66108333D01*
X32262857Y-66060714D01*
X32453333Y-66013095D01*
X32691428Y-66013095D01*
X32881904Y-66060714D01*
X32977142Y-66108333D01*
X33024761Y-66155952D01*
X33072380Y-66251190D01*
X33072380Y-66346428D01*
X33024761Y-66441666D01*
X32977142Y-66489285D01*
X32881904Y-66536904D01*
X32691428Y-66584523D01*
X32453333Y-66584523D01*
X32262857Y-66536904D01*
X32167619Y-66489285D01*
X32120000Y-66441666D01*
X32072380Y-66346428D01*
X101511904Y-53952380D02*
X101511904Y-54761904D01*
X101559523Y-54857142D01*
X101607142Y-54904761D01*
X101702380Y-54952380D01*
X101892857Y-54952380D01*
X101988095Y-54904761D01*
X102035714Y-54857142D01*
X102083333Y-54761904D01*
X102083333Y-53952380D01*
X103083333Y-54952380D02*
X102511904Y-54952380D01*
X102797619Y-54952380D02*
X102797619Y-53952380D01*
X102702380Y-54095238D01*
X102607142Y-54190476D01*
X102511904Y-54238095D01*
X103702380Y-53952380D02*
X103797619Y-53952380D01*
X103892857Y-54000000D01*
X103940476Y-54047619D01*
X103988095Y-54142857D01*
X104035714Y-54333333D01*
X104035714Y-54571428D01*
X103988095Y-54761904D01*
X103940476Y-54857142D01*
X103892857Y-54904761D01*
X103797619Y-54952380D01*
X103702380Y-54952380D01*
X103607142Y-54904761D01*
X103559523Y-54857142D01*
X103511904Y-54761904D01*
X103464285Y-54571428D01*
X103464285Y-54333333D01*
X103511904Y-54142857D01*
X103559523Y-54047619D01*
X103607142Y-54000000D01*
X103702380Y-53952380D01*
X32452380Y-60423095D02*
X32452380Y-59851666D01*
X33452380Y-60137380D02*
X32452380Y-60137380D01*
X32785714Y-59089761D02*
X33452380Y-59089761D01*
X32404761Y-59327857D02*
X33119047Y-59565952D01*
X33119047Y-58946904D01*
X32452380Y-58375476D02*
X32452380Y-58280238D01*
X32500000Y-58185000D01*
X32547619Y-58137380D01*
X32642857Y-58089761D01*
X32833333Y-58042142D01*
X33071428Y-58042142D01*
X33261904Y-58089761D01*
X33357142Y-58137380D01*
X33404761Y-58185000D01*
X33452380Y-58280238D01*
X33452380Y-58375476D01*
X33404761Y-58470714D01*
X33357142Y-58518333D01*
X33261904Y-58565952D01*
X33071428Y-58613571D01*
X32833333Y-58613571D01*
X32642857Y-58565952D01*
X32547619Y-58518333D01*
X32500000Y-58470714D01*
X32452380Y-58375476D01*
X79107142Y-63142857D02*
X79154761Y-63190476D01*
X79202380Y-63333333D01*
X79202380Y-63428571D01*
X79154761Y-63571428D01*
X79059523Y-63666666D01*
X78964285Y-63714285D01*
X78773809Y-63761904D01*
X78630952Y-63761904D01*
X78440476Y-63714285D01*
X78345238Y-63666666D01*
X78250000Y-63571428D01*
X78202380Y-63428571D01*
X78202380Y-63333333D01*
X78250000Y-63190476D01*
X78297619Y-63142857D01*
X78202380Y-62285714D02*
X78202380Y-62476190D01*
X78250000Y-62571428D01*
X78297619Y-62619047D01*
X78440476Y-62714285D01*
X78630952Y-62761904D01*
X79011904Y-62761904D01*
X79107142Y-62714285D01*
X79154761Y-62666666D01*
X79202380Y-62571428D01*
X79202380Y-62380952D01*
X79154761Y-62285714D01*
X79107142Y-62238095D01*
X79011904Y-62190476D01*
X78773809Y-62190476D01*
X78678571Y-62238095D01*
X78630952Y-62285714D01*
X78583333Y-62380952D01*
X78583333Y-62571428D01*
X78630952Y-62666666D01*
X78678571Y-62714285D01*
X78773809Y-62761904D01*
X78202380Y-61857142D02*
X78202380Y-61238095D01*
X78583333Y-61571428D01*
X78583333Y-61428571D01*
X78630952Y-61333333D01*
X78678571Y-61285714D01*
X78773809Y-61238095D01*
X79011904Y-61238095D01*
X79107142Y-61285714D01*
X79154761Y-61333333D01*
X79202380Y-61428571D01*
X79202380Y-61714285D01*
X79154761Y-61809523D01*
X79107142Y-61857142D01*
D10*
X41620000Y-80480000D02*
X41175000Y-80480000D01*
X38880000Y-80480000D02*
X38880000Y-86720000D01*
X41620000Y-86720000D02*
X41175000Y-86720000D01*
X41620000Y-80480000D02*
X41620000Y-86720000D01*
X39325000Y-80480000D02*
X38880000Y-80480000D01*
X39325000Y-86720000D02*
X38880000Y-86720000D01*
X55250000Y-74780000D02*
X55250000Y-77390000D01*
X56620000Y-73410000D02*
G75*
G03*
X56620000Y-73410000I-1370000J0D01*
G01*
X68610000Y-64140000D02*
X68610000Y-64590000D01*
X61390000Y-64140000D02*
X61390000Y-64590000D01*
X61840000Y-64140000D02*
X61390000Y-64140000D01*
X68160000Y-64140000D02*
X68610000Y-64140000D01*
X68610000Y-70910000D02*
X69900000Y-70910000D01*
X68160000Y-71360000D02*
X68610000Y-71360000D01*
X68610000Y-71360000D02*
X68610000Y-70910000D01*
X61390000Y-71360000D02*
X61390000Y-70910000D01*
X61840000Y-71360000D02*
X61390000Y-71360000D01*
X91880000Y-48790000D02*
X91880000Y-46050000D01*
X99120000Y-46050000D02*
X91880000Y-46050000D01*
X99120000Y-48790000D02*
X91880000Y-48790000D01*
X99120000Y-48790000D02*
X99120000Y-46050000D01*
X104850000Y-61840000D02*
X104850000Y-58240000D01*
X101901629Y-57684543D02*
G75*
G03*
X100650000Y-58930000I1098371J-2355457D01*
G01*
X104122795Y-62364184D02*
G75*
G03*
X104850000Y-61840000I-1122795J2324184D01*
G01*
X104850000Y-58240000D02*
G75*
G03*
X104122795Y-57715816I-1850000J-1800000D01*
G01*
X100650000Y-61180000D02*
G75*
G03*
X101896158Y-62407199I2350000J1140000D01*
G01*
X81870000Y-36772936D02*
X81870000Y-38227064D01*
X83690000Y-36772936D02*
X83690000Y-38227064D01*
X49325000Y-80920000D02*
X48880000Y-80920000D01*
X51620000Y-87160000D02*
X51175000Y-87160000D01*
X48880000Y-80920000D02*
X48880000Y-87160000D01*
X51620000Y-80920000D02*
X51620000Y-87160000D01*
X51620000Y-80920000D02*
X51175000Y-80920000D01*
X49325000Y-87160000D02*
X48880000Y-87160000D01*
X74735000Y-69688748D02*
X74735000Y-70211252D01*
X73265000Y-69688748D02*
X73265000Y-70211252D01*
X74250000Y-36772936D02*
X74250000Y-38227064D01*
X76070000Y-36772936D02*
X76070000Y-38227064D01*
X34325000Y-72880000D02*
X33880000Y-72880000D01*
X36620000Y-72880000D02*
X36175000Y-72880000D01*
X36620000Y-72880000D02*
X36620000Y-79120000D01*
X33880000Y-72880000D02*
X33880000Y-79120000D01*
X36620000Y-79120000D02*
X36175000Y-79120000D01*
X34325000Y-79120000D02*
X33880000Y-79120000D01*
X86650000Y-51190000D02*
X86650000Y-46690000D01*
X63670000Y-51190000D02*
X86650000Y-51190000D01*
X63670000Y-49940000D02*
X63670000Y-51190000D01*
X63670000Y-46690000D02*
X63670000Y-47940000D01*
X86650000Y-46690000D02*
X63670000Y-46690000D01*
X63670000Y-49940000D02*
G75*
G03*
X63670000Y-47940000I0J1000000D01*
G01*
X92720000Y-40025000D02*
X92720000Y-41355000D01*
X92720000Y-38755000D02*
X92720000Y-33615000D01*
X92720000Y-41355000D02*
X91390000Y-41355000D01*
X92720000Y-33615000D02*
X90060000Y-33615000D01*
X90060000Y-38755000D02*
X90060000Y-33615000D01*
X92720000Y-38755000D02*
X90060000Y-38755000D01*
X53400000Y-82280000D02*
X53400000Y-85880000D01*
X56348371Y-86435457D02*
G75*
G03*
X57600000Y-85190000I-1098371J2355457D01*
G01*
X57600000Y-82940000D02*
G75*
G03*
X56353842Y-81712801I-2350000J-1140000D01*
G01*
X54127205Y-81755816D02*
G75*
G03*
X53400000Y-82280000I1122795J-2324184D01*
G01*
X53400000Y-85880000D02*
G75*
G03*
X54127205Y-86404184I1850000J1800000D01*
G01*
X99120000Y-63950000D02*
X99120000Y-61210000D01*
X99120000Y-63950000D02*
X91880000Y-63950000D01*
X99120000Y-61210000D02*
X91880000Y-61210000D01*
X91880000Y-63950000D02*
X91880000Y-61210000D01*
X41620000Y-72780000D02*
X41620000Y-79020000D01*
X38880000Y-72780000D02*
X38880000Y-79020000D01*
X39325000Y-79020000D02*
X38880000Y-79020000D01*
X41620000Y-79020000D02*
X41175000Y-79020000D01*
X39325000Y-72780000D02*
X38880000Y-72780000D01*
X41620000Y-72780000D02*
X41175000Y-72780000D01*
X50245000Y-59695000D02*
X50245000Y-57095000D01*
X47645000Y-59695000D02*
X50245000Y-59695000D01*
X50245000Y-57095000D02*
X52845000Y-57095000D01*
X47645000Y-57095000D02*
X48975000Y-57095000D01*
X52845000Y-57095000D02*
X52845000Y-69915000D01*
X47645000Y-69915000D02*
X52845000Y-69915000D01*
X47645000Y-59695000D02*
X47645000Y-69915000D01*
X47645000Y-58425000D02*
X47645000Y-57095000D01*
X83871905Y-20660000D02*
X83871905Y-29290000D01*
X66270000Y-20660000D02*
X66270000Y-29290000D01*
X83990000Y-20660000D02*
X83990000Y-29290000D01*
X84110000Y-20660000D02*
X63670000Y-20660000D01*
X81864290Y-20660000D02*
X81864290Y-29290000D01*
X82218575Y-20660000D02*
X82218575Y-29290000D01*
X84110000Y-20660000D02*
X84110000Y-29290000D01*
X83635715Y-20660000D02*
X83635715Y-29290000D01*
X78060000Y-29290000D02*
X78060000Y-29700000D01*
X67900000Y-29290000D02*
X67900000Y-29700000D01*
X63670000Y-20660000D02*
X63670000Y-29290000D01*
X65360000Y-29290000D02*
X65360000Y-29700000D01*
X82336670Y-20660000D02*
X82336670Y-29290000D01*
X75520000Y-29290000D02*
X75520000Y-29700000D01*
X82690955Y-20660000D02*
X82690955Y-29290000D01*
X84110000Y-29290000D02*
X63670000Y-29290000D01*
X71350000Y-20660000D02*
X71350000Y-29290000D01*
X83045240Y-20660000D02*
X83045240Y-29290000D01*
X77340000Y-29290000D02*
X77340000Y-29700000D01*
X83399525Y-20660000D02*
X83399525Y-29290000D01*
X82927145Y-20660000D02*
X82927145Y-29290000D01*
X78970000Y-20660000D02*
X78970000Y-29290000D01*
X76430000Y-20660000D02*
X76430000Y-29290000D01*
X81982385Y-20660000D02*
X81982385Y-29290000D01*
X81746195Y-20660000D02*
X81746195Y-29290000D01*
X72980000Y-29290000D02*
X72980000Y-29700000D01*
X82420000Y-29290000D02*
X82420000Y-29640000D01*
X73890000Y-20660000D02*
X73890000Y-29290000D01*
X69720000Y-29290000D02*
X69720000Y-29700000D01*
X82809050Y-20660000D02*
X82809050Y-29290000D01*
X80600000Y-29290000D02*
X80600000Y-29700000D01*
X70440000Y-29290000D02*
X70440000Y-29700000D01*
X74800000Y-29290000D02*
X74800000Y-29700000D01*
X79880000Y-29290000D02*
X79880000Y-29700000D01*
X83517620Y-20660000D02*
X83517620Y-29290000D01*
X82100480Y-20660000D02*
X82100480Y-29290000D01*
X64640000Y-29290000D02*
X64640000Y-29700000D01*
X68810000Y-20660000D02*
X68810000Y-29290000D01*
X84110000Y-31860000D02*
X82780000Y-31860000D01*
X83140000Y-29290000D02*
X83140000Y-29640000D01*
X83163335Y-20660000D02*
X83163335Y-29290000D01*
X82572860Y-20660000D02*
X82572860Y-29290000D01*
X81628100Y-20660000D02*
X81628100Y-29290000D01*
X72260000Y-29290000D02*
X72260000Y-29700000D01*
X82454765Y-20660000D02*
X82454765Y-29290000D01*
X83281430Y-20660000D02*
X83281430Y-29290000D01*
X84110000Y-30750000D02*
X84110000Y-31860000D01*
X83753810Y-20660000D02*
X83753810Y-29290000D01*
X81510000Y-20660000D02*
X81510000Y-29290000D01*
X67180000Y-29290000D02*
X67180000Y-29700000D01*
X71015000Y-69688748D02*
X71015000Y-70211252D01*
X72485000Y-69688748D02*
X72485000Y-70211252D01*
X73238748Y-64765000D02*
X73761252Y-64765000D01*
X73238748Y-66235000D02*
X73761252Y-66235000D01*
X64090000Y-36772936D02*
X64090000Y-38227064D01*
X65910000Y-36772936D02*
X65910000Y-38227064D01*
X66630000Y-36772936D02*
X66630000Y-38227064D01*
X68450000Y-36772936D02*
X68450000Y-38227064D01*
X86700000Y-85000000D02*
G75*
G03*
X86700000Y-85000000I-1700000J0D01*
G01*
X82500000Y-74780000D02*
X82500000Y-77390000D01*
X83870000Y-73410000D02*
G75*
G03*
X83870000Y-73410000I-1370000J0D01*
G01*
X70990000Y-36772936D02*
X70990000Y-38227064D01*
X69170000Y-36772936D02*
X69170000Y-38227064D01*
X78610000Y-36772936D02*
X78610000Y-38227064D01*
X76790000Y-36772936D02*
X76790000Y-38227064D01*
X58710000Y-20660000D02*
X58710000Y-29290000D01*
X57409050Y-20660000D02*
X57409050Y-29290000D01*
X56346195Y-20660000D02*
X56346195Y-29290000D01*
X57527145Y-20660000D02*
X57527145Y-29290000D01*
X50120000Y-29290000D02*
X50120000Y-29700000D01*
X47580000Y-29290000D02*
X47580000Y-29700000D01*
X54480000Y-29290000D02*
X54480000Y-29700000D01*
X51940000Y-29290000D02*
X51940000Y-29700000D01*
X58710000Y-30750000D02*
X58710000Y-31860000D01*
X51030000Y-20660000D02*
X51030000Y-29290000D01*
X46860000Y-29290000D02*
X46860000Y-29700000D01*
X58710000Y-20660000D02*
X45890000Y-20660000D01*
X56936670Y-20660000D02*
X56936670Y-29290000D01*
X57054765Y-20660000D02*
X57054765Y-29290000D01*
X56464290Y-20660000D02*
X56464290Y-29290000D01*
X48490000Y-20660000D02*
X48490000Y-29290000D01*
X58590000Y-20660000D02*
X58590000Y-29290000D01*
X58710000Y-31860000D02*
X57380000Y-31860000D01*
X57740000Y-29290000D02*
X57740000Y-29640000D01*
X56582385Y-20660000D02*
X56582385Y-29290000D01*
X57020000Y-29290000D02*
X57020000Y-29640000D01*
X57172860Y-20660000D02*
X57172860Y-29290000D01*
X56818575Y-20660000D02*
X56818575Y-29290000D01*
X56110000Y-20660000D02*
X56110000Y-29290000D01*
X58471905Y-20660000D02*
X58471905Y-29290000D01*
X58710000Y-29290000D02*
X45890000Y-29290000D01*
X56700480Y-20660000D02*
X56700480Y-29290000D01*
X58235715Y-20660000D02*
X58235715Y-29290000D01*
X58117620Y-20660000D02*
X58117620Y-29290000D01*
X53570000Y-20660000D02*
X53570000Y-29290000D01*
X56228100Y-20660000D02*
X56228100Y-29290000D01*
X57645240Y-20660000D02*
X57645240Y-29290000D01*
X57290955Y-20660000D02*
X57290955Y-29290000D01*
X52660000Y-29290000D02*
X52660000Y-29700000D01*
X57763335Y-20660000D02*
X57763335Y-29290000D01*
X55200000Y-29290000D02*
X55200000Y-29700000D01*
X45890000Y-20660000D02*
X45890000Y-29290000D01*
X57881430Y-20660000D02*
X57881430Y-29290000D01*
X49400000Y-29290000D02*
X49400000Y-29700000D01*
X58353810Y-20660000D02*
X58353810Y-29290000D01*
X57999525Y-20660000D02*
X57999525Y-29290000D01*
X101700000Y-85000000D02*
G75*
G03*
X101700000Y-85000000I-1700000J0D01*
G01*
X88620000Y-25629000D02*
X88620000Y-30670000D01*
X99161000Y-30670000D02*
X88620000Y-30670000D01*
X92020000Y-27131000D02*
X92020000Y-30670000D01*
X99161000Y-25629000D02*
X99161000Y-30670000D01*
X95760000Y-30670000D02*
X92020000Y-30670000D01*
X94964000Y-25629000D02*
X92815000Y-25629000D01*
X95760000Y-27131000D02*
X95760000Y-30670000D01*
X94964000Y-25629000D02*
X92815000Y-25629000D01*
X99161000Y-25629000D02*
X97816000Y-25629000D01*
X89965000Y-25629000D02*
X88620000Y-25629000D01*
X38270000Y-51190000D02*
X61250000Y-51190000D01*
X61250000Y-51190000D02*
X61250000Y-46690000D01*
X38270000Y-46690000D02*
X38270000Y-47940000D01*
X61250000Y-46690000D02*
X38270000Y-46690000D01*
X38270000Y-49940000D02*
X38270000Y-51190000D01*
X38270000Y-49940000D02*
G75*
G03*
X38270000Y-47940000I0J1000000D01*
G01*
X99120000Y-56130000D02*
X91880000Y-56130000D01*
X99120000Y-58870000D02*
X91880000Y-58870000D01*
X91880000Y-58870000D02*
X91880000Y-56130000D01*
X99120000Y-58870000D02*
X99120000Y-56130000D01*
X87500000Y-74736371D02*
X87500000Y-77390000D01*
X88826371Y-73410000D02*
G75*
G03*
X88826371Y-73410000I-1326371J0D01*
G01*
X71500000Y-64150000D02*
X75500000Y-64150000D01*
X71500000Y-60850000D02*
X71500000Y-64150000D01*
X36620000Y-62370000D02*
X36175000Y-62370000D01*
X34325000Y-62370000D02*
X33880000Y-62370000D01*
X33880000Y-56130000D02*
X33880000Y-62370000D01*
X34325000Y-56130000D02*
X33880000Y-56130000D01*
X36620000Y-56130000D02*
X36175000Y-56130000D01*
X36620000Y-56130000D02*
X36620000Y-62370000D01*
X99120000Y-53870000D02*
X91880000Y-53870000D01*
X99120000Y-51130000D02*
X91880000Y-51130000D01*
X99120000Y-53870000D02*
X99120000Y-51130000D01*
X91880000Y-53870000D02*
X91880000Y-51130000D01*
X79330000Y-36772936D02*
X79330000Y-38227064D01*
X81150000Y-36772936D02*
X81150000Y-38227064D01*
X73530000Y-36772936D02*
X73530000Y-38227064D01*
X71710000Y-36772936D02*
X71710000Y-38227064D01*
X29325000Y-72880000D02*
X28880000Y-72880000D01*
X28880000Y-72880000D02*
X28880000Y-79120000D01*
X29325000Y-79120000D02*
X28880000Y-79120000D01*
X31620000Y-72880000D02*
X31175000Y-72880000D01*
X31620000Y-79120000D02*
X31175000Y-79120000D01*
X31620000Y-72880000D02*
X31620000Y-79120000D01*
X50250000Y-74780000D02*
X50250000Y-77390000D01*
X51620000Y-73410000D02*
G75*
G03*
X51620000Y-73410000I-1370000J0D01*
G01*
X92500000Y-74780000D02*
X92500000Y-77390000D01*
X93870000Y-73410000D02*
G75*
G03*
X93870000Y-73410000I-1370000J0D01*
G01*
X77500000Y-74736371D02*
X77500000Y-77390000D01*
X78826371Y-73410000D02*
G75*
G03*
X78826371Y-73410000I-1326371J0D01*
G01*
X61825000Y-80920000D02*
X61380000Y-80920000D01*
X64120000Y-80920000D02*
X63675000Y-80920000D01*
X61825000Y-87160000D02*
X61380000Y-87160000D01*
X64120000Y-87160000D02*
X63675000Y-87160000D01*
X64120000Y-80920000D02*
X64120000Y-87160000D01*
X61380000Y-80920000D02*
X61380000Y-87160000D01*
X35250000Y-66105000D02*
X35250000Y-68715000D01*
X36620000Y-64735000D02*
G75*
G03*
X36620000Y-64735000I-1370000J0D01*
G01*
X73262742Y-58977500D02*
X73737258Y-58977500D01*
X73262742Y-60022500D02*
X73737258Y-60022500D01*
X43850000Y-87540000D02*
X46650000Y-87540000D01*
X46650000Y-71960000D02*
X43850000Y-71960000D01*
X43850000Y-71960000D02*
X43850000Y-87540000D01*
X46650000Y-87540000D02*
X46650000Y-71960000D01*
X43850000Y-84830000D02*
X46650000Y-84830000D01*
X79200000Y-85000000D02*
G75*
G03*
X79200000Y-85000000I-1700000J0D01*
G01*
X94200000Y-85000000D02*
G75*
G03*
X94200000Y-85000000I-1700000J0D01*
G01*
X30250000Y-66105000D02*
X30250000Y-68715000D01*
X31620000Y-64735000D02*
G75*
G03*
X31620000Y-64735000I-1370000J0D01*
G01*
X104850000Y-51760000D02*
X104850000Y-48160000D01*
X101901629Y-47604543D02*
G75*
G03*
X100650000Y-48850000I1098371J-2355457D01*
G01*
X100650000Y-51100000D02*
G75*
G03*
X101896158Y-52327199I2350000J1140000D01*
G01*
X104122795Y-52284184D02*
G75*
G03*
X104850000Y-51760000I-1122795J2324184D01*
G01*
X104850000Y-48160000D02*
G75*
G03*
X104122795Y-47635816I-1850000J-1800000D01*
G01*
X32100000Y-60995000D02*
X32100000Y-57395000D01*
X32100000Y-57395000D02*
G75*
G03*
X31372795Y-56870816I-1850000J-1800000D01*
G01*
X27900000Y-60335000D02*
G75*
G03*
X29146158Y-61562199I2350000J1140000D01*
G01*
X31372795Y-61519184D02*
G75*
G03*
X32100000Y-60995000I-1122795J2324184D01*
G01*
X29151629Y-56839543D02*
G75*
G03*
X27900000Y-58085000I1098371J-2355457D01*
G01*
X76265000Y-62238748D02*
X76265000Y-62761252D01*
X77735000Y-62238748D02*
X77735000Y-62761252D01*
%LPC*%
D12*
X40250000Y-81100000D03*
X40250000Y-86100000D03*
X55250000Y-73410000D03*
D13*
X55250000Y-78490000D03*
D14*
X69162500Y-70500000D03*
X69162500Y-70000000D03*
X69162500Y-69500000D03*
X69162500Y-69000000D03*
X69162500Y-68500000D03*
X69162500Y-68000000D03*
X69162500Y-67500000D03*
X69162500Y-67000000D03*
X69162500Y-66500000D03*
X69162500Y-66000000D03*
X69162500Y-65500000D03*
X69162500Y-65000000D03*
D15*
X67750000Y-63587500D03*
X67250000Y-63587500D03*
X66750000Y-63587500D03*
X66250000Y-63587500D03*
X65750000Y-63587500D03*
X65250000Y-63587500D03*
X64750000Y-63587500D03*
X64250000Y-63587500D03*
X63750000Y-63587500D03*
X63250000Y-63587500D03*
X62750000Y-63587500D03*
X62250000Y-63587500D03*
D14*
X60837500Y-65000000D03*
X60837500Y-65500000D03*
X60837500Y-66000000D03*
X60837500Y-66500000D03*
X60837500Y-67000000D03*
X60837500Y-67500000D03*
X60837500Y-68000000D03*
X60837500Y-68500000D03*
X60837500Y-69000000D03*
X60837500Y-69500000D03*
X60837500Y-70000000D03*
X60837500Y-70500000D03*
D15*
X62250000Y-71912500D03*
X62750000Y-71912500D03*
X63250000Y-71912500D03*
X63750000Y-71912500D03*
X64250000Y-71912500D03*
X64750000Y-71912500D03*
X65250000Y-71912500D03*
X65750000Y-71912500D03*
X66250000Y-71912500D03*
X66750000Y-71912500D03*
X67250000Y-71912500D03*
X67750000Y-71912500D03*
D12*
X98000000Y-47420000D03*
X93000000Y-47420000D03*
D16*
X103000000Y-62580000D03*
X100460000Y-60040000D03*
X103000000Y-57500000D03*
D17*
X82780000Y-36037500D03*
X82780000Y-38962500D03*
D12*
X50250000Y-81540000D03*
X50250000Y-86540000D03*
D18*
X74000000Y-69000000D03*
X74000000Y-70900000D03*
D17*
X75160000Y-36037500D03*
X75160000Y-38962500D03*
D12*
X35250000Y-73500000D03*
X35250000Y-78500000D03*
D19*
X65000000Y-52750000D03*
D20*
X67540000Y-52750000D03*
X70080000Y-52750000D03*
X72620000Y-52750000D03*
X75160000Y-52750000D03*
X77700000Y-52750000D03*
X80240000Y-52750000D03*
X82780000Y-52750000D03*
X85320000Y-52750000D03*
X85320000Y-45130000D03*
X82780000Y-45130000D03*
X80240000Y-45130000D03*
X77700000Y-45130000D03*
X75160000Y-45130000D03*
X72620000Y-45130000D03*
X70080000Y-45130000D03*
X67540000Y-45130000D03*
X65000000Y-45130000D03*
D21*
X91390000Y-40025000D03*
D22*
X91390000Y-37485000D03*
X91390000Y-34945000D03*
D16*
X55250000Y-81540000D03*
X57790000Y-84080000D03*
X55250000Y-86620000D03*
D12*
X98000000Y-62580000D03*
X93000000Y-62580000D03*
X40250000Y-73400000D03*
X40250000Y-78400000D03*
D21*
X48975000Y-58425000D03*
D22*
X51515000Y-58425000D03*
X48975000Y-60965000D03*
X51515000Y-60965000D03*
X48975000Y-63505000D03*
X51515000Y-63505000D03*
X48975000Y-66045000D03*
X51515000Y-66045000D03*
X48975000Y-68585000D03*
X51515000Y-68585000D03*
D21*
X82780000Y-30750000D03*
D22*
X80240000Y-30750000D03*
X77700000Y-30750000D03*
X75160000Y-30750000D03*
X72620000Y-30750000D03*
X70080000Y-30750000D03*
X67540000Y-30750000D03*
X65000000Y-30750000D03*
D18*
X71750000Y-69000000D03*
X71750000Y-70900000D03*
D23*
X72550000Y-65500000D03*
X74450000Y-65500000D03*
D17*
X65000000Y-36037500D03*
X65000000Y-38962500D03*
X67540000Y-36037500D03*
X67540000Y-38962500D03*
D24*
X85000000Y-85000000D03*
D12*
X82500000Y-73410000D03*
D13*
X82500000Y-78490000D03*
D17*
X70080000Y-36037500D03*
X70080000Y-38962500D03*
X77700000Y-36037500D03*
X77700000Y-38962500D03*
D21*
X57380000Y-30750000D03*
D22*
X54840000Y-30750000D03*
X52300000Y-30750000D03*
X49760000Y-30750000D03*
X47220000Y-30750000D03*
D24*
X100000000Y-85000000D03*
D25*
X96390000Y-25750000D03*
X93890000Y-28250000D03*
X91390000Y-25750000D03*
D19*
X39600000Y-52750000D03*
D20*
X42140000Y-52750000D03*
X44680000Y-52750000D03*
X47220000Y-52750000D03*
X49760000Y-52750000D03*
X52300000Y-52750000D03*
X54840000Y-52750000D03*
X57380000Y-52750000D03*
X59920000Y-52750000D03*
X59920000Y-45130000D03*
X57380000Y-45130000D03*
X54840000Y-45130000D03*
X52300000Y-45130000D03*
X49760000Y-45130000D03*
X47220000Y-45130000D03*
X44680000Y-45130000D03*
X42140000Y-45130000D03*
X39600000Y-45130000D03*
D12*
X98000000Y-57500000D03*
X93000000Y-57500000D03*
X87500000Y-73410000D03*
D13*
X87500000Y-78490000D03*
D26*
X72400000Y-63350000D03*
X74600000Y-63350000D03*
X74600000Y-61650000D03*
X72400000Y-61650000D03*
D12*
X35250000Y-56750000D03*
X35250000Y-61750000D03*
X98000000Y-52500000D03*
X93000000Y-52500000D03*
D17*
X80240000Y-36037500D03*
X80240000Y-38962500D03*
X72620000Y-36037500D03*
X72620000Y-38962500D03*
D12*
X30250000Y-73500000D03*
X30250000Y-78500000D03*
X50250000Y-73410000D03*
D13*
X50250000Y-78490000D03*
D12*
X92500000Y-73410000D03*
D13*
X92500000Y-78490000D03*
D12*
X77500000Y-73410000D03*
D13*
X77500000Y-78490000D03*
D12*
X62750000Y-81540000D03*
X62750000Y-86540000D03*
X35250000Y-64735000D03*
D13*
X35250000Y-69815000D03*
D27*
X72675000Y-59500000D03*
X74325000Y-59500000D03*
D28*
X45250000Y-86100000D03*
D13*
X45250000Y-83560000D03*
X45250000Y-81020000D03*
X45250000Y-78480000D03*
X45250000Y-75940000D03*
X45250000Y-73400000D03*
D24*
X77500000Y-85000000D03*
X92500000Y-85000000D03*
D12*
X30250000Y-64735000D03*
D13*
X30250000Y-69815000D03*
D16*
X103000000Y-52500000D03*
X100460000Y-49960000D03*
X103000000Y-47420000D03*
X30250000Y-61735000D03*
X27710000Y-59195000D03*
X30250000Y-56655000D03*
D18*
X77000000Y-61550000D03*
X77000000Y-63450000D03*
M02*
