G04 #@! TF.GenerationSoftware,KiCad,Pcbnew,(6.0.10)*
G04 #@! TF.CreationDate,2023-06-17T10:05:04+02:00*
G04 #@! TF.ProjectId,Zaehler-Modul,5a616568-6c65-4722-9d4d-6f64756c2e6b,rev?*
G04 #@! TF.SameCoordinates,Original*
G04 #@! TF.FileFunction,Paste,Top*
G04 #@! TF.FilePolarity,Positive*
%FSLAX46Y46*%
G04 Gerber Fmt 4.6, Leading zero omitted, Abs format (unit mm)*
G04 Created by KiCad (PCBNEW (6.0.10)) date 2023-06-17 10:05:04*
%MOMM*%
%LPD*%
G01*
G04 APERTURE LIST*
G04 Aperture macros list*
%AMRoundRect*
0 Rectangle with rounded corners*
0 $1 Rounding radius*
0 $2 $3 $4 $5 $6 $7 $8 $9 X,Y pos of 4 corners*
0 Add a 4 corners polygon primitive as box body*
4,1,4,$2,$3,$4,$5,$6,$7,$8,$9,$2,$3,0*
0 Add four circle primitives for the rounded corners*
1,1,$1+$1,$2,$3*
1,1,$1+$1,$4,$5*
1,1,$1+$1,$6,$7*
1,1,$1+$1,$8,$9*
0 Add four rect primitives between the rounded corners*
20,1,$1+$1,$2,$3,$4,$5,0*
20,1,$1+$1,$4,$5,$6,$7,0*
20,1,$1+$1,$6,$7,$8,$9,0*
20,1,$1+$1,$8,$9,$2,$3,0*%
G04 Aperture macros list end*
%ADD10RoundRect,0.075000X0.662500X0.075000X-0.662500X0.075000X-0.662500X-0.075000X0.662500X-0.075000X0*%
%ADD11RoundRect,0.075000X0.075000X0.662500X-0.075000X0.662500X-0.075000X-0.662500X0.075000X-0.662500X0*%
%ADD12RoundRect,0.250000X-0.625000X0.312500X-0.625000X-0.312500X0.625000X-0.312500X0.625000X0.312500X0*%
%ADD13RoundRect,0.250000X-0.475000X0.250000X-0.475000X-0.250000X0.475000X-0.250000X0.475000X0.250000X0*%
%ADD14RoundRect,0.250000X-0.250000X-0.475000X0.250000X-0.475000X0.250000X0.475000X-0.250000X0.475000X0*%
%ADD15R,1.400000X1.200000*%
%ADD16RoundRect,0.200000X-0.200000X-0.275000X0.200000X-0.275000X0.200000X0.275000X-0.200000X0.275000X0*%
G04 APERTURE END LIST*
D10*
X69162500Y-70500000D03*
X69162500Y-70000000D03*
X69162500Y-69500000D03*
X69162500Y-69000000D03*
X69162500Y-68500000D03*
X69162500Y-68000000D03*
X69162500Y-67500000D03*
X69162500Y-67000000D03*
X69162500Y-66500000D03*
X69162500Y-66000000D03*
X69162500Y-65500000D03*
X69162500Y-65000000D03*
D11*
X67750000Y-63587500D03*
X67250000Y-63587500D03*
X66750000Y-63587500D03*
X66250000Y-63587500D03*
X65750000Y-63587500D03*
X65250000Y-63587500D03*
X64750000Y-63587500D03*
X64250000Y-63587500D03*
X63750000Y-63587500D03*
X63250000Y-63587500D03*
X62750000Y-63587500D03*
X62250000Y-63587500D03*
D10*
X60837500Y-65000000D03*
X60837500Y-65500000D03*
X60837500Y-66000000D03*
X60837500Y-66500000D03*
X60837500Y-67000000D03*
X60837500Y-67500000D03*
X60837500Y-68000000D03*
X60837500Y-68500000D03*
X60837500Y-69000000D03*
X60837500Y-69500000D03*
X60837500Y-70000000D03*
X60837500Y-70500000D03*
D11*
X62250000Y-71912500D03*
X62750000Y-71912500D03*
X63250000Y-71912500D03*
X63750000Y-71912500D03*
X64250000Y-71912500D03*
X64750000Y-71912500D03*
X65250000Y-71912500D03*
X65750000Y-71912500D03*
X66250000Y-71912500D03*
X66750000Y-71912500D03*
X67250000Y-71912500D03*
X67750000Y-71912500D03*
D12*
X82780000Y-36037500D03*
X82780000Y-38962500D03*
D13*
X74000000Y-69000000D03*
X74000000Y-70900000D03*
D12*
X75160000Y-36037500D03*
X75160000Y-38962500D03*
D13*
X71750000Y-69000000D03*
X71750000Y-70900000D03*
D14*
X72550000Y-65500000D03*
X74450000Y-65500000D03*
D12*
X65000000Y-36037500D03*
X65000000Y-38962500D03*
X67540000Y-36037500D03*
X67540000Y-38962500D03*
X70080000Y-36037500D03*
X70080000Y-38962500D03*
X77700000Y-36037500D03*
X77700000Y-38962500D03*
D15*
X72400000Y-63350000D03*
X74600000Y-63350000D03*
X74600000Y-61650000D03*
X72400000Y-61650000D03*
D12*
X80240000Y-36037500D03*
X80240000Y-38962500D03*
X72620000Y-36037500D03*
X72620000Y-38962500D03*
D16*
X72675000Y-59500000D03*
X74325000Y-59500000D03*
D13*
X77000000Y-61550000D03*
X77000000Y-63450000D03*
M02*
