M48
; DRILL file {KiCad (6.0.10)} date Sat Jun 17 10:05:10 2023
; FORMAT={-:-/ absolute / metric / decimal}
; #@! TF.CreationDate,2023-06-17T10:05:10+02:00
; #@! TF.GenerationSoftware,Kicad,Pcbnew,(6.0.10)
; #@! TF.FileFunction,Plated,1,2,PTH
FMAT,2
METRIC
; #@! TA.AperFunction,Plated,PTH,ViaDrill
T1C0.400
; #@! TA.AperFunction,Plated,PTH,ComponentDrill
T2C0.800
; #@! TA.AperFunction,Plated,PTH,ComponentDrill
T3C1.000
; #@! TA.AperFunction,Plated,PTH,ComponentDrill
T4C1.300
%
G90
G05
T1
X58.0Y-65.0
X67.25Y-67.5
X67.25Y-69.0
X75.9Y-70.9
X77.0Y-65.5
X87.5Y-60.75
X89.25Y-47.5
X89.25Y-52.5
T2
X27.71Y-59.195
X30.25Y-56.655
X30.25Y-61.735
X30.25Y-64.735
X30.25Y-69.815
X30.25Y-73.5
X30.25Y-78.5
X35.25Y-56.75
X35.25Y-61.75
X35.25Y-64.735
X35.25Y-69.815
X35.25Y-73.5
X35.25Y-78.5
X39.6Y-45.13
X39.6Y-52.75
X40.25Y-73.4
X40.25Y-78.4
X40.25Y-81.1
X40.25Y-86.1
X42.14Y-45.13
X42.14Y-52.75
X44.68Y-45.13
X44.68Y-52.75
X45.25Y-73.4
X45.25Y-75.94
X45.25Y-78.48
X45.25Y-81.02
X45.25Y-83.56
X45.25Y-86.1
X47.22Y-45.13
X47.22Y-52.75
X49.76Y-45.13
X49.76Y-52.75
X50.25Y-73.41
X50.25Y-78.49
X50.25Y-81.54
X50.25Y-86.54
X52.3Y-45.13
X52.3Y-52.75
X54.84Y-45.13
X54.84Y-52.75
X55.25Y-73.41
X55.25Y-78.49
X55.25Y-81.54
X55.25Y-86.62
X57.38Y-45.13
X57.38Y-52.75
X57.79Y-84.08
X59.92Y-45.13
X59.92Y-52.75
X62.75Y-81.54
X62.75Y-86.54
X65.0Y-45.13
X65.0Y-52.75
X67.54Y-45.13
X67.54Y-52.75
X70.08Y-45.13
X70.08Y-52.75
X72.62Y-45.13
X72.62Y-52.75
X75.16Y-45.13
X75.16Y-52.75
X77.5Y-73.41
X77.5Y-78.49
X77.7Y-45.13
X77.7Y-52.75
X80.24Y-45.13
X80.24Y-52.75
X82.5Y-73.41
X82.5Y-78.49
X82.78Y-45.13
X82.78Y-52.75
X85.32Y-45.13
X85.32Y-52.75
X87.5Y-73.41
X87.5Y-78.49
X92.5Y-73.41
X92.5Y-78.49
X93.0Y-47.42
X93.0Y-52.5
X93.0Y-57.5
X93.0Y-62.58
X98.0Y-47.42
X98.0Y-52.5
X98.0Y-57.5
X98.0Y-62.58
X100.46Y-49.96
X100.46Y-60.04
X103.0Y-47.42
X103.0Y-52.5
X103.0Y-57.5
X103.0Y-62.58
T3
X47.22Y-30.75
X48.975Y-58.425
X48.975Y-60.965
X48.975Y-63.505
X48.975Y-66.045
X48.975Y-68.585
X49.76Y-30.75
X51.515Y-58.425
X51.515Y-60.965
X51.515Y-63.505
X51.515Y-66.045
X51.515Y-68.585
X52.3Y-30.75
X54.84Y-30.75
X57.38Y-30.75
X65.0Y-30.75
X67.54Y-30.75
X70.08Y-30.75
X72.62Y-30.75
X75.16Y-30.75
X77.5Y-85.0
X77.7Y-30.75
X80.24Y-30.75
X82.78Y-30.75
X85.0Y-85.0
X91.39Y-34.945
X91.39Y-37.485
X91.39Y-40.025
X92.5Y-85.0
X100.0Y-85.0
T4
X91.39Y-25.75
X93.89Y-28.25
X96.39Y-25.75
T0
M30
