G04 #@! TF.GenerationSoftware,KiCad,Pcbnew,(6.0.10)*
G04 #@! TF.CreationDate,2023-06-17T10:05:04+02:00*
G04 #@! TF.ProjectId,Zaehler-Modul,5a616568-6c65-4722-9d4d-6f64756c2e6b,rev?*
G04 #@! TF.SameCoordinates,Original*
G04 #@! TF.FileFunction,Copper,L1,Top*
G04 #@! TF.FilePolarity,Positive*
%FSLAX46Y46*%
G04 Gerber Fmt 4.6, Leading zero omitted, Abs format (unit mm)*
G04 Created by KiCad (PCBNEW (6.0.10)) date 2023-06-17 10:05:04*
%MOMM*%
%LPD*%
G01*
G04 APERTURE LIST*
G04 Aperture macros list*
%AMRoundRect*
0 Rectangle with rounded corners*
0 $1 Rounding radius*
0 $2 $3 $4 $5 $6 $7 $8 $9 X,Y pos of 4 corners*
0 Add a 4 corners polygon primitive as box body*
4,1,4,$2,$3,$4,$5,$6,$7,$8,$9,$2,$3,0*
0 Add four circle primitives for the rounded corners*
1,1,$1+$1,$2,$3*
1,1,$1+$1,$4,$5*
1,1,$1+$1,$6,$7*
1,1,$1+$1,$8,$9*
0 Add four rect primitives between the rounded corners*
20,1,$1+$1,$2,$3,$4,$5,0*
20,1,$1+$1,$4,$5,$6,$7,0*
20,1,$1+$1,$6,$7,$8,$9,0*
20,1,$1+$1,$8,$9,$2,$3,0*%
G04 Aperture macros list end*
G04 #@! TA.AperFunction,NonConductor*
%ADD10C,0.200000*%
G04 #@! TD*
G04 #@! TA.AperFunction,ComponentPad*
%ADD11C,1.600000*%
G04 #@! TD*
G04 #@! TA.AperFunction,ComponentPad*
%ADD12O,1.600000X1.600000*%
G04 #@! TD*
G04 #@! TA.AperFunction,SMDPad,CuDef*
%ADD13RoundRect,0.075000X0.662500X0.075000X-0.662500X0.075000X-0.662500X-0.075000X0.662500X-0.075000X0*%
G04 #@! TD*
G04 #@! TA.AperFunction,SMDPad,CuDef*
%ADD14RoundRect,0.075000X0.075000X0.662500X-0.075000X0.662500X-0.075000X-0.662500X0.075000X-0.662500X0*%
G04 #@! TD*
G04 #@! TA.AperFunction,ComponentPad*
%ADD15C,1.500000*%
G04 #@! TD*
G04 #@! TA.AperFunction,SMDPad,CuDef*
%ADD16RoundRect,0.250000X-0.625000X0.312500X-0.625000X-0.312500X0.625000X-0.312500X0.625000X0.312500X0*%
G04 #@! TD*
G04 #@! TA.AperFunction,SMDPad,CuDef*
%ADD17RoundRect,0.250000X-0.475000X0.250000X-0.475000X-0.250000X0.475000X-0.250000X0.475000X0.250000X0*%
G04 #@! TD*
G04 #@! TA.AperFunction,ComponentPad*
%ADD18R,1.600000X2.400000*%
G04 #@! TD*
G04 #@! TA.AperFunction,ComponentPad*
%ADD19O,1.600000X2.400000*%
G04 #@! TD*
G04 #@! TA.AperFunction,ComponentPad*
%ADD20R,1.700000X1.700000*%
G04 #@! TD*
G04 #@! TA.AperFunction,ComponentPad*
%ADD21O,1.700000X1.700000*%
G04 #@! TD*
G04 #@! TA.AperFunction,SMDPad,CuDef*
%ADD22RoundRect,0.250000X-0.250000X-0.475000X0.250000X-0.475000X0.250000X0.475000X-0.250000X0.475000X0*%
G04 #@! TD*
G04 #@! TA.AperFunction,ComponentPad*
%ADD23C,2.000000*%
G04 #@! TD*
G04 #@! TA.AperFunction,ComponentPad*
%ADD24C,2.340000*%
G04 #@! TD*
G04 #@! TA.AperFunction,SMDPad,CuDef*
%ADD25R,1.400000X1.200000*%
G04 #@! TD*
G04 #@! TA.AperFunction,SMDPad,CuDef*
%ADD26RoundRect,0.200000X-0.200000X-0.275000X0.200000X-0.275000X0.200000X0.275000X-0.200000X0.275000X0*%
G04 #@! TD*
G04 #@! TA.AperFunction,ComponentPad*
%ADD27R,1.600000X1.600000*%
G04 #@! TD*
G04 #@! TA.AperFunction,ViaPad*
%ADD28C,0.800000*%
G04 #@! TD*
G04 #@! TA.AperFunction,Conductor*
%ADD29C,0.500000*%
G04 #@! TD*
G04 #@! TA.AperFunction,Conductor*
%ADD30C,0.200000*%
G04 #@! TD*
G04 #@! TA.AperFunction,Conductor*
%ADD31C,0.250000*%
G04 #@! TD*
G04 APERTURE END LIST*
D10*
X106750000Y-55000000D02*
X125500000Y-55000000D01*
D11*
X40250000Y-81100000D03*
X40250000Y-86100000D03*
X55250000Y-73410000D03*
D12*
X55250000Y-78490000D03*
D13*
X69162500Y-70500000D03*
X69162500Y-70000000D03*
X69162500Y-69500000D03*
X69162500Y-69000000D03*
X69162500Y-68500000D03*
X69162500Y-68000000D03*
X69162500Y-67500000D03*
X69162500Y-67000000D03*
X69162500Y-66500000D03*
X69162500Y-66000000D03*
X69162500Y-65500000D03*
X69162500Y-65000000D03*
D14*
X67750000Y-63587500D03*
X67250000Y-63587500D03*
X66750000Y-63587500D03*
X66250000Y-63587500D03*
X65750000Y-63587500D03*
X65250000Y-63587500D03*
X64750000Y-63587500D03*
X64250000Y-63587500D03*
X63750000Y-63587500D03*
X63250000Y-63587500D03*
X62750000Y-63587500D03*
X62250000Y-63587500D03*
D13*
X60837500Y-65000000D03*
X60837500Y-65500000D03*
X60837500Y-66000000D03*
X60837500Y-66500000D03*
X60837500Y-67000000D03*
X60837500Y-67500000D03*
X60837500Y-68000000D03*
X60837500Y-68500000D03*
X60837500Y-69000000D03*
X60837500Y-69500000D03*
X60837500Y-70000000D03*
X60837500Y-70500000D03*
D14*
X62250000Y-71912500D03*
X62750000Y-71912500D03*
X63250000Y-71912500D03*
X63750000Y-71912500D03*
X64250000Y-71912500D03*
X64750000Y-71912500D03*
X65250000Y-71912500D03*
X65750000Y-71912500D03*
X66250000Y-71912500D03*
X66750000Y-71912500D03*
X67250000Y-71912500D03*
X67750000Y-71912500D03*
D11*
X98000000Y-47420000D03*
X93000000Y-47420000D03*
D15*
X103000000Y-62580000D03*
X100460000Y-60040000D03*
X103000000Y-57500000D03*
D16*
X82780000Y-36037500D03*
X82780000Y-38962500D03*
D11*
X50250000Y-81540000D03*
X50250000Y-86540000D03*
D17*
X74000000Y-69000000D03*
X74000000Y-70900000D03*
D16*
X75160000Y-36037500D03*
X75160000Y-38962500D03*
D11*
X35250000Y-73500000D03*
X35250000Y-78500000D03*
D18*
X65000000Y-52750000D03*
D19*
X67540000Y-52750000D03*
X70080000Y-52750000D03*
X72620000Y-52750000D03*
X75160000Y-52750000D03*
X77700000Y-52750000D03*
X80240000Y-52750000D03*
X82780000Y-52750000D03*
X85320000Y-52750000D03*
X85320000Y-45130000D03*
X82780000Y-45130000D03*
X80240000Y-45130000D03*
X77700000Y-45130000D03*
X75160000Y-45130000D03*
X72620000Y-45130000D03*
X70080000Y-45130000D03*
X67540000Y-45130000D03*
X65000000Y-45130000D03*
D20*
X91390000Y-40025000D03*
D21*
X91390000Y-37485000D03*
X91390000Y-34945000D03*
D15*
X55250000Y-81540000D03*
X57790000Y-84080000D03*
X55250000Y-86620000D03*
D11*
X98000000Y-62580000D03*
X93000000Y-62580000D03*
X40250000Y-73400000D03*
X40250000Y-78400000D03*
D20*
X48975000Y-58425000D03*
D21*
X51515000Y-58425000D03*
X48975000Y-60965000D03*
X51515000Y-60965000D03*
X48975000Y-63505000D03*
X51515000Y-63505000D03*
X48975000Y-66045000D03*
X51515000Y-66045000D03*
X48975000Y-68585000D03*
X51515000Y-68585000D03*
D20*
X82780000Y-30750000D03*
D21*
X80240000Y-30750000D03*
X77700000Y-30750000D03*
X75160000Y-30750000D03*
X72620000Y-30750000D03*
X70080000Y-30750000D03*
X67540000Y-30750000D03*
X65000000Y-30750000D03*
D17*
X71750000Y-69000000D03*
X71750000Y-70900000D03*
D22*
X72550000Y-65500000D03*
X74450000Y-65500000D03*
D16*
X65000000Y-36037500D03*
X65000000Y-38962500D03*
X67540000Y-36037500D03*
X67540000Y-38962500D03*
D23*
X85000000Y-85000000D03*
D11*
X82500000Y-73410000D03*
D12*
X82500000Y-78490000D03*
D16*
X70080000Y-36037500D03*
X70080000Y-38962500D03*
X77700000Y-36037500D03*
X77700000Y-38962500D03*
D20*
X57380000Y-30750000D03*
D21*
X54840000Y-30750000D03*
X52300000Y-30750000D03*
X49760000Y-30750000D03*
X47220000Y-30750000D03*
D23*
X100000000Y-85000000D03*
D24*
X96390000Y-25750000D03*
X93890000Y-28250000D03*
X91390000Y-25750000D03*
D18*
X39600000Y-52750000D03*
D19*
X42140000Y-52750000D03*
X44680000Y-52750000D03*
X47220000Y-52750000D03*
X49760000Y-52750000D03*
X52300000Y-52750000D03*
X54840000Y-52750000D03*
X57380000Y-52750000D03*
X59920000Y-52750000D03*
X59920000Y-45130000D03*
X57380000Y-45130000D03*
X54840000Y-45130000D03*
X52300000Y-45130000D03*
X49760000Y-45130000D03*
X47220000Y-45130000D03*
X44680000Y-45130000D03*
X42140000Y-45130000D03*
X39600000Y-45130000D03*
D11*
X98000000Y-57500000D03*
X93000000Y-57500000D03*
X87500000Y-73410000D03*
D12*
X87500000Y-78490000D03*
D25*
X72400000Y-63350000D03*
X74600000Y-63350000D03*
X74600000Y-61650000D03*
X72400000Y-61650000D03*
D11*
X35250000Y-56750000D03*
X35250000Y-61750000D03*
X98000000Y-52500000D03*
X93000000Y-52500000D03*
D16*
X80240000Y-36037500D03*
X80240000Y-38962500D03*
X72620000Y-36037500D03*
X72620000Y-38962500D03*
D11*
X30250000Y-73500000D03*
X30250000Y-78500000D03*
X50250000Y-73410000D03*
D12*
X50250000Y-78490000D03*
D11*
X92500000Y-73410000D03*
D12*
X92500000Y-78490000D03*
D11*
X77500000Y-73410000D03*
D12*
X77500000Y-78490000D03*
D11*
X62750000Y-81540000D03*
X62750000Y-86540000D03*
X35250000Y-64735000D03*
D12*
X35250000Y-69815000D03*
D26*
X72675000Y-59500000D03*
X74325000Y-59500000D03*
D27*
X45250000Y-86100000D03*
D12*
X45250000Y-83560000D03*
X45250000Y-81020000D03*
X45250000Y-78480000D03*
X45250000Y-75940000D03*
X45250000Y-73400000D03*
D23*
X77500000Y-85000000D03*
X92500000Y-85000000D03*
D11*
X30250000Y-64735000D03*
D12*
X30250000Y-69815000D03*
D15*
X103000000Y-52500000D03*
X100460000Y-49960000D03*
X103000000Y-47420000D03*
X30250000Y-61735000D03*
X27710000Y-59195000D03*
X30250000Y-56655000D03*
D17*
X77000000Y-61550000D03*
X77000000Y-63450000D03*
D28*
X75900000Y-70900000D03*
X67250000Y-67500000D03*
X77000000Y-65500000D03*
X89250000Y-52500000D03*
X89250000Y-47500000D03*
X67250000Y-69000000D03*
X58000000Y-65000000D03*
X87500000Y-60750000D03*
D29*
X74450000Y-65500000D02*
X77000000Y-65500000D01*
X74450000Y-63500000D02*
X74600000Y-63350000D01*
X77000000Y-63450000D02*
X74700000Y-63450000D01*
X77000000Y-65500000D02*
X77000000Y-63450000D01*
X74000000Y-70900000D02*
X75900000Y-70900000D01*
D30*
X72400000Y-61650000D02*
X72500000Y-61650000D01*
D29*
X74450000Y-65500000D02*
X74450000Y-63500000D01*
D30*
X72500000Y-61650000D02*
X74200000Y-63350000D01*
D29*
X74700000Y-63450000D02*
X74600000Y-63350000D01*
X71750000Y-70900000D02*
X74000000Y-70900000D01*
D31*
X69162500Y-67500000D02*
X67250000Y-67500000D01*
D30*
X74200000Y-63350000D02*
X74600000Y-63350000D01*
D29*
X47220000Y-30750000D02*
X47220000Y-45130000D01*
X49760000Y-30750000D02*
X49760000Y-45130000D01*
X52300000Y-30750000D02*
X52300000Y-45130000D01*
X54840000Y-30750000D02*
X54840000Y-45130000D01*
X57380000Y-30750000D02*
X57380000Y-45130000D01*
X80240000Y-30750000D02*
X80240000Y-36037500D01*
X77700000Y-30750000D02*
X77700000Y-36037500D01*
X75160000Y-30750000D02*
X75160000Y-36037500D01*
X72620000Y-30750000D02*
X72620000Y-36037500D01*
X65000000Y-30750000D02*
X65000000Y-36037500D01*
X70080000Y-30750000D02*
X70080000Y-36037500D01*
X67540000Y-30750000D02*
X67540000Y-36037500D01*
X82780000Y-30750000D02*
X82780000Y-36037500D01*
X98000000Y-62580000D02*
X103000000Y-62580000D01*
X45250000Y-78480000D02*
X50240000Y-78480000D01*
X42750000Y-86000000D02*
X40250000Y-83500000D01*
X40250000Y-81100000D02*
X41400000Y-81100000D01*
X42750000Y-88500000D02*
X42750000Y-86000000D01*
X50240000Y-78480000D02*
X50250000Y-78490000D01*
X32750000Y-80000000D02*
X33850000Y-81100000D01*
X64500000Y-89000000D02*
X43250000Y-89000000D01*
X103000000Y-85750000D02*
X100750000Y-88000000D01*
X32750000Y-72315000D02*
X32750000Y-80000000D01*
X103000000Y-62580000D02*
X103000000Y-85750000D01*
X40250000Y-83500000D02*
X40250000Y-81100000D01*
X35250000Y-69815000D02*
X32750000Y-72315000D01*
X33850000Y-81100000D02*
X40250000Y-81100000D01*
X65500000Y-88000000D02*
X64500000Y-89000000D01*
X44020000Y-78480000D02*
X45250000Y-78480000D01*
X100750000Y-88000000D02*
X65500000Y-88000000D01*
X43250000Y-89000000D02*
X42750000Y-88500000D01*
X41400000Y-81100000D02*
X44020000Y-78480000D01*
D31*
X89250000Y-52500000D02*
X83577208Y-58172792D01*
X89250000Y-47500000D02*
X89250000Y-33250000D01*
X70500000Y-59886396D02*
X72213604Y-58172792D01*
X93890000Y-30360000D02*
X93890000Y-28250000D01*
X69162500Y-65500000D02*
X70250000Y-65500000D01*
X72213604Y-58172792D02*
X83077208Y-58172792D01*
X83577208Y-58172792D02*
X83077208Y-58172792D01*
X70250000Y-65500000D02*
X70500000Y-65250000D01*
X92750000Y-31500000D02*
X93890000Y-30360000D01*
X91000000Y-31500000D02*
X92750000Y-31500000D01*
X89250000Y-33250000D02*
X91000000Y-31500000D01*
X70500000Y-65250000D02*
X70500000Y-59886396D01*
X56250000Y-59950000D02*
X56250000Y-67500000D01*
X58750000Y-70000000D02*
X60837500Y-70000000D01*
X54725000Y-58425000D02*
X56250000Y-59950000D01*
X56250000Y-67500000D02*
X58750000Y-70000000D01*
X51515000Y-58425000D02*
X54725000Y-58425000D01*
X58500000Y-70500000D02*
X55725000Y-67725000D01*
X54765000Y-60965000D02*
X51515000Y-60965000D01*
X55725000Y-61925000D02*
X54765000Y-60965000D01*
X60837500Y-70500000D02*
X58500000Y-70500000D01*
X55725000Y-67725000D02*
X55725000Y-61925000D01*
X69162500Y-66000000D02*
X66750000Y-66000000D01*
X58500000Y-71250000D02*
X55835000Y-68585000D01*
X55835000Y-68585000D02*
X51515000Y-68585000D01*
X66750000Y-66000000D02*
X61500000Y-71250000D01*
X61500000Y-71250000D02*
X58500000Y-71250000D01*
X80777208Y-57722792D02*
X82780000Y-55720000D01*
X82780000Y-55720000D02*
X82780000Y-52750000D01*
X69162500Y-60587500D02*
X72027208Y-57722792D01*
X69162500Y-60587500D02*
X69162500Y-65000000D01*
X72027208Y-57722792D02*
X80777208Y-57722792D01*
X65250000Y-60681624D02*
X67540000Y-58391624D01*
X67540000Y-58391624D02*
X67540000Y-52750000D01*
X65250000Y-63587500D02*
X65250000Y-60681624D01*
X65750000Y-63587500D02*
X65750000Y-60818020D01*
X70080000Y-56488020D02*
X70080000Y-52750000D01*
X65750000Y-60818020D02*
X70080000Y-56488020D01*
X66250000Y-60954416D02*
X72620000Y-54584416D01*
X66250000Y-63587500D02*
X66250000Y-60954416D01*
X72620000Y-54584416D02*
X72620000Y-52750000D01*
X75160000Y-55340000D02*
X75160000Y-52750000D01*
X66750000Y-63587500D02*
X66750000Y-61090812D01*
X66750000Y-61090812D02*
X71468020Y-56372792D01*
X71468020Y-56372792D02*
X74127208Y-56372792D01*
X74127208Y-56372792D02*
X75160000Y-55340000D01*
X64750000Y-60500000D02*
X65000000Y-60250000D01*
X65000000Y-60250000D02*
X65000000Y-52750000D01*
X64750000Y-63587500D02*
X64750000Y-60500000D01*
X67250000Y-61227208D02*
X71654416Y-56822792D01*
X76177208Y-56822792D02*
X77700000Y-55300000D01*
X71654416Y-56822792D02*
X76177208Y-56822792D01*
X67250000Y-63587500D02*
X67250000Y-61227208D01*
X77700000Y-55300000D02*
X77700000Y-52750000D01*
X67750000Y-61363604D02*
X67750000Y-63587500D01*
X78727208Y-57272792D02*
X71840812Y-57272792D01*
X71840812Y-57272792D02*
X67750000Y-61363604D01*
X80240000Y-55760000D02*
X78727208Y-57272792D01*
X80240000Y-52750000D02*
X80240000Y-55760000D01*
X69162500Y-69000000D02*
X74000000Y-69000000D01*
X69162500Y-69000000D02*
X67250000Y-69000000D01*
D29*
X98000000Y-52500000D02*
X95500000Y-55000000D01*
X98000000Y-52500000D02*
X103000000Y-52500000D01*
X90500000Y-55000000D02*
X76500000Y-69000000D01*
X76500000Y-69000000D02*
X74000000Y-69000000D01*
D31*
X69162500Y-68000000D02*
X69162500Y-69000000D01*
D29*
X95500000Y-55000000D02*
X90500000Y-55000000D01*
X98000000Y-47420000D02*
X103000000Y-47420000D01*
X98000000Y-57500000D02*
X103000000Y-57500000D01*
X95420000Y-50000000D02*
X61000000Y-50000000D01*
X95500000Y-82000000D02*
X95500000Y-60000000D01*
X104500000Y-48920000D02*
X104500000Y-56000000D01*
X98000000Y-47420000D02*
X95420000Y-50000000D01*
X92500000Y-85000000D02*
X95500000Y-82000000D01*
X95500000Y-60000000D02*
X98000000Y-57500000D01*
X61000000Y-50000000D02*
X59920000Y-51080000D01*
X104500000Y-56000000D02*
X103000000Y-57500000D01*
X103000000Y-47420000D02*
X104500000Y-48920000D01*
X59920000Y-51080000D02*
X59920000Y-52750000D01*
D31*
X57300000Y-56800000D02*
X49050000Y-56800000D01*
X47220000Y-54970000D02*
X47220000Y-52750000D01*
X62250000Y-61750000D02*
X57300000Y-56800000D01*
X62250000Y-63587500D02*
X62250000Y-61750000D01*
X49050000Y-56800000D02*
X47220000Y-54970000D01*
X63250000Y-61477208D02*
X63250000Y-63587500D01*
X53250000Y-55900000D02*
X57672792Y-55900000D01*
X52300000Y-52750000D02*
X52300000Y-54950000D01*
X57672792Y-55900000D02*
X63250000Y-61477208D01*
X52300000Y-54950000D02*
X53250000Y-55900000D01*
X64250000Y-63587500D02*
X64250000Y-61204416D01*
X57380000Y-54334416D02*
X57380000Y-52750000D01*
X64250000Y-61204416D02*
X57380000Y-54334416D01*
X49760000Y-54990000D02*
X51120000Y-56350000D01*
X62750000Y-61613604D02*
X62750000Y-63587500D01*
X57486396Y-56350000D02*
X62750000Y-61613604D01*
X51120000Y-56350000D02*
X57486396Y-56350000D01*
X49760000Y-52750000D02*
X49760000Y-54990000D01*
X54840000Y-54660000D02*
X54840000Y-52750000D01*
X57859188Y-55450000D02*
X63750000Y-61340812D01*
X56300000Y-55450000D02*
X55630000Y-55450000D01*
X63750000Y-61340812D02*
X63750000Y-61750000D01*
X63750000Y-63587500D02*
X63750000Y-61750000D01*
X56300000Y-55450000D02*
X57859188Y-55450000D01*
X55630000Y-55450000D02*
X54840000Y-54660000D01*
X35250000Y-73500000D02*
X35250000Y-74750000D01*
X36440000Y-75940000D02*
X35250000Y-74750000D01*
X45250000Y-75940000D02*
X36440000Y-75940000D01*
X30250000Y-67750000D02*
X30250000Y-69815000D01*
X27710000Y-59195000D02*
X27710000Y-65210000D01*
X30250000Y-73500000D02*
X30250000Y-69815000D01*
X27710000Y-65210000D02*
X30250000Y-67750000D01*
X59000000Y-69500000D02*
X58000000Y-68500000D01*
X60837500Y-69500000D02*
X59000000Y-69500000D01*
X58000000Y-68500000D02*
X58000000Y-65000000D01*
X35250000Y-61750000D02*
X35250000Y-64735000D01*
X30250000Y-61735000D02*
X30250000Y-64735000D01*
X30250000Y-64735000D02*
X35250000Y-64735000D01*
X50250000Y-83000000D02*
X50250000Y-81540000D01*
X57790000Y-84080000D02*
X51330000Y-84080000D01*
X53300000Y-78490000D02*
X50250000Y-81540000D01*
X51330000Y-84080000D02*
X50250000Y-83000000D01*
X55250000Y-78490000D02*
X53300000Y-78490000D01*
X40250000Y-73400000D02*
X45250000Y-73400000D01*
X62750000Y-75500000D02*
X63750000Y-74500000D01*
X62750000Y-81540000D02*
X62750000Y-75500000D01*
X63750000Y-74500000D02*
X63750000Y-71912500D01*
X55250000Y-75750000D02*
X55250000Y-73410000D01*
X62750000Y-86540000D02*
X62750000Y-84500000D01*
X62750000Y-84500000D02*
X59790000Y-81540000D01*
X55250000Y-81540000D02*
X57000000Y-79790000D01*
X59790000Y-81540000D02*
X55250000Y-81540000D01*
X55290000Y-81500000D02*
X55250000Y-81540000D01*
X57000000Y-79790000D02*
X57000000Y-77500000D01*
X57000000Y-77500000D02*
X55250000Y-75750000D01*
X50250000Y-73410000D02*
X55250000Y-73410000D01*
X72550000Y-66700000D02*
X72550000Y-65500000D01*
X69162500Y-67000000D02*
X72250000Y-67000000D01*
X72250000Y-67000000D02*
X72550000Y-66700000D01*
X72550000Y-65500000D02*
X72550000Y-63500000D01*
X72550000Y-63500000D02*
X72400000Y-63350000D01*
X71750000Y-59500000D02*
X71000000Y-60250000D01*
X71000000Y-66000000D02*
X71000000Y-60250000D01*
X70500000Y-66500000D02*
X71000000Y-66000000D01*
X71750000Y-59500000D02*
X72675000Y-59500000D01*
X69162500Y-66500000D02*
X70500000Y-66500000D01*
X50250000Y-84500000D02*
X50250000Y-86540000D01*
X46770000Y-81020000D02*
X50250000Y-84500000D01*
X45250000Y-81020000D02*
X46770000Y-81020000D01*
X92500000Y-73410000D02*
X87500000Y-73410000D01*
X85910000Y-75000000D02*
X69000000Y-75000000D01*
X87500000Y-73410000D02*
X85910000Y-75000000D01*
X67250000Y-73250000D02*
X67250000Y-71912500D01*
X69000000Y-75000000D02*
X67250000Y-73250000D01*
X88990000Y-82000000D02*
X86500000Y-82000000D01*
X92500000Y-78490000D02*
X88990000Y-82000000D01*
X85000000Y-83500000D02*
X85000000Y-85000000D01*
X86500000Y-82000000D02*
X85000000Y-83500000D01*
X77500000Y-73410000D02*
X68160000Y-73410000D01*
X67750000Y-73000000D02*
X67750000Y-71912500D01*
X68160000Y-73410000D02*
X67750000Y-73000000D01*
X82500000Y-73410000D02*
X77500000Y-73410000D01*
X82500000Y-80750000D02*
X82500000Y-78490000D01*
X77500000Y-85000000D02*
X77500000Y-83250000D01*
X78750000Y-82000000D02*
X81250000Y-82000000D01*
X77500000Y-83250000D02*
X78750000Y-82000000D01*
X81250000Y-82000000D02*
X82500000Y-80750000D01*
X69162500Y-71662500D02*
X69750000Y-72250000D01*
X69750000Y-72250000D02*
X74250000Y-72250000D01*
X74250000Y-72250000D02*
X74750000Y-72250000D01*
X74250000Y-72250000D02*
X76000000Y-72250000D01*
X74750000Y-72250000D02*
X75250000Y-72250000D01*
X76000000Y-72250000D02*
X87500000Y-60750000D01*
X75250000Y-72250000D02*
X76000000Y-72250000D01*
X69162500Y-70500000D02*
X69162500Y-71662500D01*
X74325000Y-61375000D02*
X74600000Y-61650000D01*
X74325000Y-59500000D02*
X74325000Y-61375000D01*
X77000000Y-61550000D02*
X74700000Y-61550000D01*
X74700000Y-61550000D02*
X74600000Y-61650000D01*
D29*
X65000000Y-38962500D02*
X65000000Y-45130000D01*
X67540000Y-38962500D02*
X67540000Y-45130000D01*
X70080000Y-38962500D02*
X70080000Y-45130000D01*
X72620000Y-38962500D02*
X72620000Y-45130000D01*
X75160000Y-38962500D02*
X75160000Y-45130000D01*
X77700000Y-38962500D02*
X77700000Y-45130000D01*
X80240000Y-38962500D02*
X80240000Y-45130000D01*
X82780000Y-38962500D02*
X82780000Y-45130000D01*
M02*
