G04 #@! TF.GenerationSoftware,KiCad,Pcbnew,(5.1.7)-1*
G04 #@! TF.CreationDate,2022-05-13T22:18:05+02:00*
G04 #@! TF.ProjectId,Anzeige-Modul,416e7a65-6967-4652-9d4d-6f64756c2e6b,rev?*
G04 #@! TF.SameCoordinates,Original*
G04 #@! TF.FileFunction,Legend,Top*
G04 #@! TF.FilePolarity,Positive*
%FSLAX46Y46*%
G04 Gerber Fmt 4.6, Leading zero omitted, Abs format (unit mm)*
G04 Created by KiCad (PCBNEW (5.1.7)-1) date 2022-05-13 22:18:05*
%MOMM*%
%LPD*%
G01*
G04 APERTURE LIST*
%ADD10C,0.150000*%
%ADD11C,0.500000*%
%ADD12C,0.120000*%
%ADD13C,0.300000*%
%ADD14C,0.100000*%
%ADD15R,0.800000X0.900000*%
%ADD16C,2.250000*%
%ADD17R,1.250000X1.000000*%
%ADD18R,1.000000X1.250000*%
%ADD19C,1.750000*%
%ADD20R,0.700000X1.300000*%
%ADD21R,0.550000X1.600000*%
%ADD22R,1.600000X0.550000*%
%ADD23R,1.800000X1.800000*%
%ADD24C,1.800000*%
%ADD25R,2.200000X1.840000*%
%ADD26R,1.000000X1.500000*%
%ADD27R,1.000000X1.800000*%
%ADD28R,1.700000X1.700000*%
%ADD29O,1.700000X1.700000*%
%ADD30C,6.000000*%
G04 APERTURE END LIST*
D10*
X15607023Y-109802380D02*
X15273690Y-109326190D01*
X15035595Y-109802380D02*
X15035595Y-108802380D01*
X15416547Y-108802380D01*
X15511785Y-108850000D01*
X15559404Y-108897619D01*
X15607023Y-108992857D01*
X15607023Y-109135714D01*
X15559404Y-109230952D01*
X15511785Y-109278571D01*
X15416547Y-109326190D01*
X15035595Y-109326190D01*
X16416547Y-109754761D02*
X16321309Y-109802380D01*
X16130833Y-109802380D01*
X16035595Y-109754761D01*
X15987976Y-109659523D01*
X15987976Y-109278571D01*
X16035595Y-109183333D01*
X16130833Y-109135714D01*
X16321309Y-109135714D01*
X16416547Y-109183333D01*
X16464166Y-109278571D01*
X16464166Y-109373809D01*
X15987976Y-109469047D01*
X16797500Y-109135714D02*
X17035595Y-109802380D01*
X17273690Y-109135714D01*
X17654642Y-109707142D02*
X17702261Y-109754761D01*
X17654642Y-109802380D01*
X17607023Y-109754761D01*
X17654642Y-109707142D01*
X17654642Y-109802380D01*
X18845119Y-109516666D02*
X19321309Y-109516666D01*
X18749880Y-109802380D02*
X19083214Y-108802380D01*
X19416547Y-109802380D01*
X14987976Y-110547619D02*
X15035595Y-110500000D01*
X15130833Y-110452380D01*
X15368928Y-110452380D01*
X15464166Y-110500000D01*
X15511785Y-110547619D01*
X15559404Y-110642857D01*
X15559404Y-110738095D01*
X15511785Y-110880952D01*
X14940357Y-111452380D01*
X15559404Y-111452380D01*
X16178452Y-110452380D02*
X16273690Y-110452380D01*
X16368928Y-110500000D01*
X16416547Y-110547619D01*
X16464166Y-110642857D01*
X16511785Y-110833333D01*
X16511785Y-111071428D01*
X16464166Y-111261904D01*
X16416547Y-111357142D01*
X16368928Y-111404761D01*
X16273690Y-111452380D01*
X16178452Y-111452380D01*
X16083214Y-111404761D01*
X16035595Y-111357142D01*
X15987976Y-111261904D01*
X15940357Y-111071428D01*
X15940357Y-110833333D01*
X15987976Y-110642857D01*
X16035595Y-110547619D01*
X16083214Y-110500000D01*
X16178452Y-110452380D01*
X16892738Y-110547619D02*
X16940357Y-110500000D01*
X17035595Y-110452380D01*
X17273690Y-110452380D01*
X17368928Y-110500000D01*
X17416547Y-110547619D01*
X17464166Y-110642857D01*
X17464166Y-110738095D01*
X17416547Y-110880952D01*
X16845119Y-111452380D01*
X17464166Y-111452380D01*
X17845119Y-110547619D02*
X17892738Y-110500000D01*
X17987976Y-110452380D01*
X18226071Y-110452380D01*
X18321309Y-110500000D01*
X18368928Y-110547619D01*
X18416547Y-110642857D01*
X18416547Y-110738095D01*
X18368928Y-110880952D01*
X17797500Y-111452380D01*
X18416547Y-111452380D01*
X18845119Y-111071428D02*
X19607023Y-111071428D01*
X20273690Y-110452380D02*
X20368928Y-110452380D01*
X20464166Y-110500000D01*
X20511785Y-110547619D01*
X20559404Y-110642857D01*
X20607023Y-110833333D01*
X20607023Y-111071428D01*
X20559404Y-111261904D01*
X20511785Y-111357142D01*
X20464166Y-111404761D01*
X20368928Y-111452380D01*
X20273690Y-111452380D01*
X20178452Y-111404761D01*
X20130833Y-111357142D01*
X20083214Y-111261904D01*
X20035595Y-111071428D01*
X20035595Y-110833333D01*
X20083214Y-110642857D01*
X20130833Y-110547619D01*
X20178452Y-110500000D01*
X20273690Y-110452380D01*
X20940357Y-110452380D02*
X21559404Y-110452380D01*
X21226071Y-110833333D01*
X21368928Y-110833333D01*
X21464166Y-110880952D01*
X21511785Y-110928571D01*
X21559404Y-111023809D01*
X21559404Y-111261904D01*
X21511785Y-111357142D01*
X21464166Y-111404761D01*
X21368928Y-111452380D01*
X21083214Y-111452380D01*
X20987976Y-111404761D01*
X20940357Y-111357142D01*
X21987976Y-111071428D02*
X22749880Y-111071428D01*
X23130833Y-110452380D02*
X23749880Y-110452380D01*
X23416547Y-110833333D01*
X23559404Y-110833333D01*
X23654642Y-110880952D01*
X23702261Y-110928571D01*
X23749880Y-111023809D01*
X23749880Y-111261904D01*
X23702261Y-111357142D01*
X23654642Y-111404761D01*
X23559404Y-111452380D01*
X23273690Y-111452380D01*
X23178452Y-111404761D01*
X23130833Y-111357142D01*
X24368928Y-110452380D02*
X24464166Y-110452380D01*
X24559404Y-110500000D01*
X24607023Y-110547619D01*
X24654642Y-110642857D01*
X24702261Y-110833333D01*
X24702261Y-111071428D01*
X24654642Y-111261904D01*
X24607023Y-111357142D01*
X24559404Y-111404761D01*
X24464166Y-111452380D01*
X24368928Y-111452380D01*
X24273690Y-111404761D01*
X24226071Y-111357142D01*
X24178452Y-111261904D01*
X24130833Y-111071428D01*
X24130833Y-110833333D01*
X24178452Y-110642857D01*
X24226071Y-110547619D01*
X24273690Y-110500000D01*
X24368928Y-110452380D01*
X15226071Y-112626190D02*
X15226071Y-113102380D01*
X14892738Y-112102380D02*
X15226071Y-112626190D01*
X15559404Y-112102380D01*
X16321309Y-113102380D02*
X16321309Y-112578571D01*
X16273690Y-112483333D01*
X16178452Y-112435714D01*
X15987976Y-112435714D01*
X15892738Y-112483333D01*
X16321309Y-113054761D02*
X16226071Y-113102380D01*
X15987976Y-113102380D01*
X15892738Y-113054761D01*
X15845119Y-112959523D01*
X15845119Y-112864285D01*
X15892738Y-112769047D01*
X15987976Y-112721428D01*
X16226071Y-112721428D01*
X16321309Y-112673809D01*
X16797500Y-112435714D02*
X16797500Y-113102380D01*
X16797500Y-112530952D02*
X16845119Y-112483333D01*
X16940357Y-112435714D01*
X17083214Y-112435714D01*
X17178452Y-112483333D01*
X17226071Y-112578571D01*
X17226071Y-113102380D01*
X17702261Y-112435714D02*
X17702261Y-113102380D01*
X17702261Y-112530952D02*
X17749880Y-112483333D01*
X17845119Y-112435714D01*
X17987976Y-112435714D01*
X18083214Y-112483333D01*
X18130833Y-112578571D01*
X18130833Y-113102380D01*
X18607023Y-113102380D02*
X18607023Y-112435714D01*
X18607023Y-112102380D02*
X18559404Y-112150000D01*
X18607023Y-112197619D01*
X18654642Y-112150000D01*
X18607023Y-112102380D01*
X18607023Y-112197619D01*
X19511785Y-113054761D02*
X19416547Y-113102380D01*
X19226071Y-113102380D01*
X19130833Y-113054761D01*
X19083214Y-113007142D01*
X19035595Y-112911904D01*
X19035595Y-112626190D01*
X19083214Y-112530952D01*
X19130833Y-112483333D01*
X19226071Y-112435714D01*
X19416547Y-112435714D01*
X19511785Y-112483333D01*
X19940357Y-113102380D02*
X19940357Y-112102380D01*
X20035595Y-112721428D02*
X20321309Y-113102380D01*
X20321309Y-112435714D02*
X19940357Y-112816666D01*
X21845119Y-112578571D02*
X21987976Y-112626190D01*
X22035595Y-112673809D01*
X22083214Y-112769047D01*
X22083214Y-112911904D01*
X22035595Y-113007142D01*
X21987976Y-113054761D01*
X21892738Y-113102380D01*
X21511785Y-113102380D01*
X21511785Y-112102380D01*
X21845119Y-112102380D01*
X21940357Y-112150000D01*
X21987976Y-112197619D01*
X22035595Y-112292857D01*
X22035595Y-112388095D01*
X21987976Y-112483333D01*
X21940357Y-112530952D01*
X21845119Y-112578571D01*
X21511785Y-112578571D01*
X22654642Y-113102380D02*
X22559404Y-113054761D01*
X22511785Y-113007142D01*
X22464166Y-112911904D01*
X22464166Y-112626190D01*
X22511785Y-112530952D01*
X22559404Y-112483333D01*
X22654642Y-112435714D01*
X22797500Y-112435714D01*
X22892738Y-112483333D01*
X22940357Y-112530952D01*
X22987976Y-112626190D01*
X22987976Y-112911904D01*
X22940357Y-113007142D01*
X22892738Y-113054761D01*
X22797500Y-113102380D01*
X22654642Y-113102380D01*
X23845119Y-113054761D02*
X23749880Y-113102380D01*
X23559404Y-113102380D01*
X23464166Y-113054761D01*
X23416547Y-113007142D01*
X23368928Y-112911904D01*
X23368928Y-112626190D01*
X23416547Y-112530952D01*
X23464166Y-112483333D01*
X23559404Y-112435714D01*
X23749880Y-112435714D01*
X23845119Y-112483333D01*
X24273690Y-113102380D02*
X24273690Y-112102380D01*
X24368928Y-112721428D02*
X24654642Y-113102380D01*
X24654642Y-112435714D02*
X24273690Y-112816666D01*
D11*
X89800000Y-94092857D02*
X89919047Y-94211904D01*
X89800000Y-94330952D01*
X89680952Y-94211904D01*
X89800000Y-94092857D01*
X89800000Y-94330952D01*
D10*
X92648809Y-87412380D02*
X92648809Y-86412380D01*
X93696428Y-87317142D02*
X93648809Y-87364761D01*
X93505952Y-87412380D01*
X93410714Y-87412380D01*
X93267857Y-87364761D01*
X93172619Y-87269523D01*
X93125000Y-87174285D01*
X93077380Y-86983809D01*
X93077380Y-86840952D01*
X93125000Y-86650476D01*
X93172619Y-86555238D01*
X93267857Y-86460000D01*
X93410714Y-86412380D01*
X93505952Y-86412380D01*
X93648809Y-86460000D01*
X93696428Y-86507619D01*
X94077380Y-87364761D02*
X94220238Y-87412380D01*
X94458333Y-87412380D01*
X94553571Y-87364761D01*
X94601190Y-87317142D01*
X94648809Y-87221904D01*
X94648809Y-87126666D01*
X94601190Y-87031428D01*
X94553571Y-86983809D01*
X94458333Y-86936190D01*
X94267857Y-86888571D01*
X94172619Y-86840952D01*
X94125000Y-86793333D01*
X94077380Y-86698095D01*
X94077380Y-86602857D01*
X94125000Y-86507619D01*
X94172619Y-86460000D01*
X94267857Y-86412380D01*
X94505952Y-86412380D01*
X94648809Y-86460000D01*
X95077380Y-87412380D02*
X95077380Y-86412380D01*
X95458333Y-86412380D01*
X95553571Y-86460000D01*
X95601190Y-86507619D01*
X95648809Y-86602857D01*
X95648809Y-86745714D01*
X95601190Y-86840952D01*
X95553571Y-86888571D01*
X95458333Y-86936190D01*
X95077380Y-86936190D01*
D12*
X83750000Y-56000000D02*
X50750000Y-56000000D01*
X83750000Y-47700000D02*
X83750000Y-56000000D01*
X50750000Y-47700000D02*
X83750000Y-47700000D01*
X50750000Y-56000000D02*
X50750000Y-47700000D01*
D13*
X26352380Y-17233333D02*
X27304761Y-17233333D01*
X26161904Y-17804761D02*
X26828571Y-15804761D01*
X27495238Y-17804761D01*
X27971428Y-15804761D02*
X29304761Y-15804761D01*
X27971428Y-17804761D01*
X29304761Y-17804761D01*
X32542857Y-15804761D02*
X31590476Y-15804761D01*
X31495238Y-16757142D01*
X31590476Y-16661904D01*
X31780952Y-16566666D01*
X32257142Y-16566666D01*
X32447619Y-16661904D01*
X32542857Y-16757142D01*
X32638095Y-16947619D01*
X32638095Y-17423809D01*
X32542857Y-17614285D01*
X32447619Y-17709523D01*
X32257142Y-17804761D01*
X31780952Y-17804761D01*
X31590476Y-17709523D01*
X31495238Y-17614285D01*
X34447619Y-15804761D02*
X33495238Y-15804761D01*
X33400000Y-16757142D01*
X33495238Y-16661904D01*
X33685714Y-16566666D01*
X34161904Y-16566666D01*
X34352380Y-16661904D01*
X34447619Y-16757142D01*
X34542857Y-16947619D01*
X34542857Y-17423809D01*
X34447619Y-17614285D01*
X34352380Y-17709523D01*
X34161904Y-17804761D01*
X33685714Y-17804761D01*
X33495238Y-17709523D01*
X33400000Y-17614285D01*
X35209523Y-15804761D02*
X36447619Y-15804761D01*
X35780952Y-16566666D01*
X36066666Y-16566666D01*
X36257142Y-16661904D01*
X36352380Y-16757142D01*
X36447619Y-16947619D01*
X36447619Y-17423809D01*
X36352380Y-17614285D01*
X36257142Y-17709523D01*
X36066666Y-17804761D01*
X35495238Y-17804761D01*
X35304761Y-17709523D01*
X35209523Y-17614285D01*
D12*
X16500000Y-47500000D02*
X16500000Y-19500000D01*
X92500000Y-47500000D02*
X16500000Y-47500000D01*
X92500000Y-19500000D02*
X92500000Y-47500000D01*
X16500000Y-19500000D02*
X92500000Y-19500000D01*
D10*
X140892857Y-111535714D02*
X141273809Y-111535714D01*
X141035714Y-112202380D02*
X141035714Y-111345238D01*
X141083333Y-111250000D01*
X141178571Y-111202380D01*
X141273809Y-111202380D01*
X141607142Y-112202380D02*
X141607142Y-111535714D01*
X141607142Y-111630952D02*
X141654761Y-111583333D01*
X141750000Y-111535714D01*
X141892857Y-111535714D01*
X141988095Y-111583333D01*
X142035714Y-111678571D01*
X142035714Y-112202380D01*
X142035714Y-111678571D02*
X142083333Y-111583333D01*
X142178571Y-111535714D01*
X142321428Y-111535714D01*
X142416666Y-111583333D01*
X142464285Y-111678571D01*
X142464285Y-112202380D01*
X69071428Y-112202380D02*
X69071428Y-111202380D01*
X69071428Y-111583333D02*
X69166666Y-111535714D01*
X69357142Y-111535714D01*
X69452380Y-111583333D01*
X69500000Y-111630952D01*
X69547619Y-111726190D01*
X69547619Y-112011904D01*
X69500000Y-112107142D01*
X69452380Y-112154761D01*
X69357142Y-112202380D01*
X69166666Y-112202380D01*
X69071428Y-112154761D01*
X70404761Y-112202380D02*
X70404761Y-111678571D01*
X70357142Y-111583333D01*
X70261904Y-111535714D01*
X70071428Y-111535714D01*
X69976190Y-111583333D01*
X70404761Y-112154761D02*
X70309523Y-112202380D01*
X70071428Y-112202380D01*
X69976190Y-112154761D01*
X69928571Y-112059523D01*
X69928571Y-111964285D01*
X69976190Y-111869047D01*
X70071428Y-111821428D01*
X70309523Y-111821428D01*
X70404761Y-111773809D01*
X70880952Y-111535714D02*
X70880952Y-112202380D01*
X70880952Y-111630952D02*
X70928571Y-111583333D01*
X71023809Y-111535714D01*
X71166666Y-111535714D01*
X71261904Y-111583333D01*
X71309523Y-111678571D01*
X71309523Y-112202380D01*
X72214285Y-112202380D02*
X72214285Y-111202380D01*
X72214285Y-112154761D02*
X72119047Y-112202380D01*
X71928571Y-112202380D01*
X71833333Y-112154761D01*
X71785714Y-112107142D01*
X71738095Y-112011904D01*
X71738095Y-111726190D01*
X71785714Y-111630952D01*
X71833333Y-111583333D01*
X71928571Y-111535714D01*
X72119047Y-111535714D01*
X72214285Y-111583333D01*
X73404761Y-111297619D02*
X73452380Y-111250000D01*
X73547619Y-111202380D01*
X73785714Y-111202380D01*
X73880952Y-111250000D01*
X73928571Y-111297619D01*
X73976190Y-111392857D01*
X73976190Y-111488095D01*
X73928571Y-111630952D01*
X73357142Y-112202380D01*
X73976190Y-112202380D01*
X51571428Y-112202380D02*
X51571428Y-111202380D01*
X51571428Y-111583333D02*
X51666666Y-111535714D01*
X51857142Y-111535714D01*
X51952380Y-111583333D01*
X52000000Y-111630952D01*
X52047619Y-111726190D01*
X52047619Y-112011904D01*
X52000000Y-112107142D01*
X51952380Y-112154761D01*
X51857142Y-112202380D01*
X51666666Y-112202380D01*
X51571428Y-112154761D01*
X52904761Y-112202380D02*
X52904761Y-111678571D01*
X52857142Y-111583333D01*
X52761904Y-111535714D01*
X52571428Y-111535714D01*
X52476190Y-111583333D01*
X52904761Y-112154761D02*
X52809523Y-112202380D01*
X52571428Y-112202380D01*
X52476190Y-112154761D01*
X52428571Y-112059523D01*
X52428571Y-111964285D01*
X52476190Y-111869047D01*
X52571428Y-111821428D01*
X52809523Y-111821428D01*
X52904761Y-111773809D01*
X53380952Y-111535714D02*
X53380952Y-112202380D01*
X53380952Y-111630952D02*
X53428571Y-111583333D01*
X53523809Y-111535714D01*
X53666666Y-111535714D01*
X53761904Y-111583333D01*
X53809523Y-111678571D01*
X53809523Y-112202380D01*
X54714285Y-112202380D02*
X54714285Y-111202380D01*
X54714285Y-112154761D02*
X54619047Y-112202380D01*
X54428571Y-112202380D01*
X54333333Y-112154761D01*
X54285714Y-112107142D01*
X54238095Y-112011904D01*
X54238095Y-111726190D01*
X54285714Y-111630952D01*
X54333333Y-111583333D01*
X54428571Y-111535714D01*
X54619047Y-111535714D01*
X54714285Y-111583333D01*
X56476190Y-112202380D02*
X55904761Y-112202380D01*
X56190476Y-112202380D02*
X56190476Y-111202380D01*
X56095238Y-111345238D01*
X56000000Y-111440476D01*
X55904761Y-111488095D01*
X123797619Y-112202380D02*
X123797619Y-111678571D01*
X123750000Y-111583333D01*
X123654761Y-111535714D01*
X123464285Y-111535714D01*
X123369047Y-111583333D01*
X123797619Y-112154761D02*
X123702380Y-112202380D01*
X123464285Y-112202380D01*
X123369047Y-112154761D01*
X123321428Y-112059523D01*
X123321428Y-111964285D01*
X123369047Y-111869047D01*
X123464285Y-111821428D01*
X123702380Y-111821428D01*
X123797619Y-111773809D01*
X124273809Y-112202380D02*
X124273809Y-111535714D01*
X124273809Y-111630952D02*
X124321428Y-111583333D01*
X124416666Y-111535714D01*
X124559523Y-111535714D01*
X124654761Y-111583333D01*
X124702380Y-111678571D01*
X124702380Y-112202380D01*
X124702380Y-111678571D02*
X124750000Y-111583333D01*
X124845238Y-111535714D01*
X124988095Y-111535714D01*
X125083333Y-111583333D01*
X125130952Y-111678571D01*
X125130952Y-112202380D01*
X35619047Y-112202380D02*
X35619047Y-111678571D01*
X35571428Y-111583333D01*
X35476190Y-111535714D01*
X35285714Y-111535714D01*
X35190476Y-111583333D01*
X35619047Y-112154761D02*
X35523809Y-112202380D01*
X35285714Y-112202380D01*
X35190476Y-112154761D01*
X35142857Y-112059523D01*
X35142857Y-111964285D01*
X35190476Y-111869047D01*
X35285714Y-111821428D01*
X35523809Y-111821428D01*
X35619047Y-111773809D01*
X36523809Y-111535714D02*
X36523809Y-112202380D01*
X36095238Y-111535714D02*
X36095238Y-112059523D01*
X36142857Y-112154761D01*
X36238095Y-112202380D01*
X36380952Y-112202380D01*
X36476190Y-112154761D01*
X36523809Y-112107142D01*
X36904761Y-112202380D02*
X37428571Y-111535714D01*
X36904761Y-111535714D02*
X37428571Y-112202380D01*
X37809523Y-112107142D02*
X37857142Y-112154761D01*
X37809523Y-112202380D01*
X37761904Y-112154761D01*
X37809523Y-112107142D01*
X37809523Y-112202380D01*
X104726190Y-111535714D02*
X104726190Y-112535714D01*
X104726190Y-111583333D02*
X104821428Y-111535714D01*
X105011904Y-111535714D01*
X105107142Y-111583333D01*
X105154761Y-111630952D01*
X105202380Y-111726190D01*
X105202380Y-112011904D01*
X105154761Y-112107142D01*
X105107142Y-112154761D01*
X105011904Y-112202380D01*
X104821428Y-112202380D01*
X104726190Y-112154761D01*
X105630952Y-112202380D02*
X105630952Y-111202380D01*
X106059523Y-112202380D02*
X106059523Y-111678571D01*
X106011904Y-111583333D01*
X105916666Y-111535714D01*
X105773809Y-111535714D01*
X105678571Y-111583333D01*
X105630952Y-111630952D01*
X106678571Y-112202380D02*
X106583333Y-112154761D01*
X106535714Y-112107142D01*
X106488095Y-112011904D01*
X106488095Y-111726190D01*
X106535714Y-111630952D01*
X106583333Y-111583333D01*
X106678571Y-111535714D01*
X106821428Y-111535714D01*
X106916666Y-111583333D01*
X106964285Y-111630952D01*
X107011904Y-111726190D01*
X107011904Y-112011904D01*
X106964285Y-112107142D01*
X106916666Y-112154761D01*
X106821428Y-112202380D01*
X106678571Y-112202380D01*
X107440476Y-111535714D02*
X107440476Y-112202380D01*
X107440476Y-111630952D02*
X107488095Y-111583333D01*
X107583333Y-111535714D01*
X107726190Y-111535714D01*
X107821428Y-111583333D01*
X107869047Y-111678571D01*
X107869047Y-112202380D01*
X108488095Y-112202380D02*
X108392857Y-112154761D01*
X108345238Y-112107142D01*
X108297619Y-112011904D01*
X108297619Y-111726190D01*
X108345238Y-111630952D01*
X108392857Y-111583333D01*
X108488095Y-111535714D01*
X108630952Y-111535714D01*
X108726190Y-111583333D01*
X108773809Y-111630952D01*
X108821428Y-111726190D01*
X108821428Y-112011904D01*
X108773809Y-112107142D01*
X108726190Y-112154761D01*
X108630952Y-112202380D01*
X108488095Y-112202380D01*
X74807261Y-72952380D02*
X74807261Y-71952380D01*
X74807261Y-72333333D02*
X74902500Y-72285714D01*
X75092976Y-72285714D01*
X75188214Y-72333333D01*
X75235833Y-72380952D01*
X75283452Y-72476190D01*
X75283452Y-72761904D01*
X75235833Y-72857142D01*
X75188214Y-72904761D01*
X75092976Y-72952380D01*
X74902500Y-72952380D01*
X74807261Y-72904761D01*
X76140595Y-72952380D02*
X76140595Y-72428571D01*
X76092976Y-72333333D01*
X75997738Y-72285714D01*
X75807261Y-72285714D01*
X75712023Y-72333333D01*
X76140595Y-72904761D02*
X76045357Y-72952380D01*
X75807261Y-72952380D01*
X75712023Y-72904761D01*
X75664404Y-72809523D01*
X75664404Y-72714285D01*
X75712023Y-72619047D01*
X75807261Y-72571428D01*
X76045357Y-72571428D01*
X76140595Y-72523809D01*
X76616785Y-72285714D02*
X76616785Y-72952380D01*
X76616785Y-72380952D02*
X76664404Y-72333333D01*
X76759642Y-72285714D01*
X76902500Y-72285714D01*
X76997738Y-72333333D01*
X77045357Y-72428571D01*
X77045357Y-72952380D01*
X77950119Y-72952380D02*
X77950119Y-71952380D01*
X77950119Y-72904761D02*
X77854880Y-72952380D01*
X77664404Y-72952380D01*
X77569166Y-72904761D01*
X77521547Y-72857142D01*
X77473928Y-72761904D01*
X77473928Y-72476190D01*
X77521547Y-72380952D01*
X77569166Y-72333333D01*
X77664404Y-72285714D01*
X77854880Y-72285714D01*
X77950119Y-72333333D01*
X79140595Y-72047619D02*
X79188214Y-72000000D01*
X79283452Y-71952380D01*
X79521547Y-71952380D01*
X79616785Y-72000000D01*
X79664404Y-72047619D01*
X79712023Y-72142857D01*
X79712023Y-72238095D01*
X79664404Y-72380952D01*
X79092976Y-72952380D01*
X79712023Y-72952380D01*
X51807261Y-72952380D02*
X51807261Y-71952380D01*
X51807261Y-72333333D02*
X51902500Y-72285714D01*
X52092976Y-72285714D01*
X52188214Y-72333333D01*
X52235833Y-72380952D01*
X52283452Y-72476190D01*
X52283452Y-72761904D01*
X52235833Y-72857142D01*
X52188214Y-72904761D01*
X52092976Y-72952380D01*
X51902500Y-72952380D01*
X51807261Y-72904761D01*
X53140595Y-72952380D02*
X53140595Y-72428571D01*
X53092976Y-72333333D01*
X52997738Y-72285714D01*
X52807261Y-72285714D01*
X52712023Y-72333333D01*
X53140595Y-72904761D02*
X53045357Y-72952380D01*
X52807261Y-72952380D01*
X52712023Y-72904761D01*
X52664404Y-72809523D01*
X52664404Y-72714285D01*
X52712023Y-72619047D01*
X52807261Y-72571428D01*
X53045357Y-72571428D01*
X53140595Y-72523809D01*
X53616785Y-72285714D02*
X53616785Y-72952380D01*
X53616785Y-72380952D02*
X53664404Y-72333333D01*
X53759642Y-72285714D01*
X53902500Y-72285714D01*
X53997738Y-72333333D01*
X54045357Y-72428571D01*
X54045357Y-72952380D01*
X54950119Y-72952380D02*
X54950119Y-71952380D01*
X54950119Y-72904761D02*
X54854880Y-72952380D01*
X54664404Y-72952380D01*
X54569166Y-72904761D01*
X54521547Y-72857142D01*
X54473928Y-72761904D01*
X54473928Y-72476190D01*
X54521547Y-72380952D01*
X54569166Y-72333333D01*
X54664404Y-72285714D01*
X54854880Y-72285714D01*
X54950119Y-72333333D01*
X56712023Y-72952380D02*
X56140595Y-72952380D01*
X56426309Y-72952380D02*
X56426309Y-71952380D01*
X56331071Y-72095238D01*
X56235833Y-72190476D01*
X56140595Y-72238095D01*
X31473928Y-72952380D02*
X31473928Y-72428571D01*
X31426309Y-72333333D01*
X31331071Y-72285714D01*
X31140595Y-72285714D01*
X31045357Y-72333333D01*
X31473928Y-72904761D02*
X31378690Y-72952380D01*
X31140595Y-72952380D01*
X31045357Y-72904761D01*
X30997738Y-72809523D01*
X30997738Y-72714285D01*
X31045357Y-72619047D01*
X31140595Y-72571428D01*
X31378690Y-72571428D01*
X31473928Y-72523809D01*
X32378690Y-72285714D02*
X32378690Y-72952380D01*
X31950119Y-72285714D02*
X31950119Y-72809523D01*
X31997738Y-72904761D01*
X32092976Y-72952380D01*
X32235833Y-72952380D01*
X32331071Y-72904761D01*
X32378690Y-72857142D01*
X32759642Y-72952380D02*
X33283452Y-72285714D01*
X32759642Y-72285714D02*
X33283452Y-72952380D01*
X33664404Y-72857142D02*
X33712023Y-72904761D01*
X33664404Y-72952380D01*
X33616785Y-72904761D01*
X33664404Y-72857142D01*
X33664404Y-72952380D01*
X78092976Y-61285714D02*
X78473928Y-61285714D01*
X78235833Y-61952380D02*
X78235833Y-61095238D01*
X78283452Y-61000000D01*
X78378690Y-60952380D01*
X78473928Y-60952380D01*
X78807261Y-61952380D02*
X78807261Y-61285714D01*
X78807261Y-61380952D02*
X78854880Y-61333333D01*
X78950119Y-61285714D01*
X79092976Y-61285714D01*
X79188214Y-61333333D01*
X79235833Y-61428571D01*
X79235833Y-61952380D01*
X79235833Y-61428571D02*
X79283452Y-61333333D01*
X79378690Y-61285714D01*
X79521547Y-61285714D01*
X79616785Y-61333333D01*
X79664404Y-61428571D01*
X79664404Y-61952380D01*
X55331071Y-61952380D02*
X55331071Y-61428571D01*
X55283452Y-61333333D01*
X55188214Y-61285714D01*
X54997738Y-61285714D01*
X54902500Y-61333333D01*
X55331071Y-61904761D02*
X55235833Y-61952380D01*
X54997738Y-61952380D01*
X54902500Y-61904761D01*
X54854880Y-61809523D01*
X54854880Y-61714285D01*
X54902500Y-61619047D01*
X54997738Y-61571428D01*
X55235833Y-61571428D01*
X55331071Y-61523809D01*
X55807261Y-61952380D02*
X55807261Y-61285714D01*
X55807261Y-61380952D02*
X55854880Y-61333333D01*
X55950119Y-61285714D01*
X56092976Y-61285714D01*
X56188214Y-61333333D01*
X56235833Y-61428571D01*
X56235833Y-61952380D01*
X56235833Y-61428571D02*
X56283452Y-61333333D01*
X56378690Y-61285714D01*
X56521547Y-61285714D01*
X56616785Y-61333333D01*
X56664404Y-61428571D01*
X56664404Y-61952380D01*
X29616785Y-61285714D02*
X29616785Y-62285714D01*
X29616785Y-61333333D02*
X29712023Y-61285714D01*
X29902500Y-61285714D01*
X29997738Y-61333333D01*
X30045357Y-61380952D01*
X30092976Y-61476190D01*
X30092976Y-61761904D01*
X30045357Y-61857142D01*
X29997738Y-61904761D01*
X29902500Y-61952380D01*
X29712023Y-61952380D01*
X29616785Y-61904761D01*
X30521547Y-61952380D02*
X30521547Y-60952380D01*
X30950119Y-61952380D02*
X30950119Y-61428571D01*
X30902500Y-61333333D01*
X30807261Y-61285714D01*
X30664404Y-61285714D01*
X30569166Y-61333333D01*
X30521547Y-61380952D01*
X31569166Y-61952380D02*
X31473928Y-61904761D01*
X31426309Y-61857142D01*
X31378690Y-61761904D01*
X31378690Y-61476190D01*
X31426309Y-61380952D01*
X31473928Y-61333333D01*
X31569166Y-61285714D01*
X31712023Y-61285714D01*
X31807261Y-61333333D01*
X31854880Y-61380952D01*
X31902500Y-61476190D01*
X31902500Y-61761904D01*
X31854880Y-61857142D01*
X31807261Y-61904761D01*
X31712023Y-61952380D01*
X31569166Y-61952380D01*
X32331071Y-61285714D02*
X32331071Y-61952380D01*
X32331071Y-61380952D02*
X32378690Y-61333333D01*
X32473928Y-61285714D01*
X32616785Y-61285714D01*
X32712023Y-61333333D01*
X32759642Y-61428571D01*
X32759642Y-61952380D01*
X33378690Y-61952380D02*
X33283452Y-61904761D01*
X33235833Y-61857142D01*
X33188214Y-61761904D01*
X33188214Y-61476190D01*
X33235833Y-61380952D01*
X33283452Y-61333333D01*
X33378690Y-61285714D01*
X33521547Y-61285714D01*
X33616785Y-61333333D01*
X33664404Y-61380952D01*
X33712023Y-61476190D01*
X33712023Y-61761904D01*
X33664404Y-61857142D01*
X33616785Y-61904761D01*
X33521547Y-61952380D01*
X33378690Y-61952380D01*
D12*
X95000000Y-82000000D02*
X80000000Y-82000000D01*
X95000000Y-55000000D02*
X95000000Y-82000000D01*
X35690000Y-88760000D02*
X35690000Y-87300000D01*
X38850000Y-88760000D02*
X38850000Y-86600000D01*
X38850000Y-88760000D02*
X37920000Y-88760000D01*
X35690000Y-88760000D02*
X36620000Y-88760000D01*
D10*
X42500000Y-98000000D02*
X42500000Y-110000000D01*
X30500000Y-98000000D02*
X42500000Y-98000000D01*
X30500000Y-110000000D02*
X30500000Y-98000000D01*
X42500000Y-110000000D02*
X30500000Y-110000000D01*
X60000000Y-98000000D02*
X60000000Y-110000000D01*
X48000000Y-98000000D02*
X60000000Y-98000000D01*
X48000000Y-110000000D02*
X48000000Y-98000000D01*
X60000000Y-110000000D02*
X48000000Y-110000000D01*
X77500000Y-98000000D02*
X77500000Y-110000000D01*
X65500000Y-98000000D02*
X77500000Y-98000000D01*
X65500000Y-110000000D02*
X65500000Y-98000000D01*
X77500000Y-110000000D02*
X65500000Y-110000000D01*
X112750000Y-98000000D02*
X112750000Y-110000000D01*
X100750000Y-98000000D02*
X112750000Y-98000000D01*
X100750000Y-110000000D02*
X100750000Y-98000000D01*
X112750000Y-110000000D02*
X100750000Y-110000000D01*
X147750000Y-98000000D02*
X147750000Y-110000000D01*
X135750000Y-98000000D02*
X147750000Y-98000000D01*
X135750000Y-110000000D02*
X135750000Y-98000000D01*
X147750000Y-110000000D02*
X135750000Y-110000000D01*
X130250000Y-98000000D02*
X130250000Y-110000000D01*
X118250000Y-98000000D02*
X130250000Y-98000000D01*
X118250000Y-110000000D02*
X118250000Y-98000000D01*
X130250000Y-110000000D02*
X118250000Y-110000000D01*
D12*
X108850000Y-93500000D02*
X108850000Y-92500000D01*
X107150000Y-92500000D02*
X107150000Y-93500000D01*
X107300000Y-78850000D02*
X108300000Y-78850000D01*
X108300000Y-77150000D02*
X107300000Y-77150000D01*
X111900000Y-74650000D02*
X110900000Y-74650000D01*
X110900000Y-76350000D02*
X111900000Y-76350000D01*
X104850000Y-74000000D02*
X104850000Y-73000000D01*
X103150000Y-73000000D02*
X103150000Y-74000000D01*
X101100000Y-93380000D02*
X99900000Y-93380000D01*
X99900000Y-91620000D02*
X101100000Y-91620000D01*
X109150000Y-92500000D02*
X109150000Y-93500000D01*
X110850000Y-93500000D02*
X110850000Y-92500000D01*
D10*
X113625000Y-81375000D02*
X113400000Y-81375000D01*
X113625000Y-88625000D02*
X113300000Y-88625000D01*
X106375000Y-88625000D02*
X106700000Y-88625000D01*
X106375000Y-81375000D02*
X106700000Y-81375000D01*
X113625000Y-81375000D02*
X113625000Y-81700000D01*
X106375000Y-81375000D02*
X106375000Y-81700000D01*
X106375000Y-88625000D02*
X106375000Y-88300000D01*
X113625000Y-88625000D02*
X113625000Y-88300000D01*
X113400000Y-81375000D02*
X113400000Y-79950000D01*
D12*
X34830000Y-60440000D02*
X34830000Y-62560000D01*
X39830000Y-60440000D02*
X39830000Y-62560000D01*
X34710000Y-60440000D02*
X34710000Y-62560000D01*
X39270000Y-62560000D02*
X39830000Y-62560000D01*
X37080000Y-62560000D02*
X37811000Y-62560000D01*
X34710000Y-62560000D02*
X34920000Y-62560000D01*
X39270000Y-60440000D02*
X39830000Y-60440000D01*
X37080000Y-60440000D02*
X37811000Y-60440000D01*
X34710000Y-60440000D02*
X34920000Y-60440000D01*
X57830000Y-60440000D02*
X57830000Y-62560000D01*
X62830000Y-60440000D02*
X62830000Y-62560000D01*
X57710000Y-60440000D02*
X57710000Y-62560000D01*
X62270000Y-62560000D02*
X62830000Y-62560000D01*
X60080000Y-62560000D02*
X60811000Y-62560000D01*
X57710000Y-62560000D02*
X57920000Y-62560000D01*
X62270000Y-60440000D02*
X62830000Y-60440000D01*
X60080000Y-60440000D02*
X60811000Y-60440000D01*
X57710000Y-60440000D02*
X57920000Y-60440000D01*
X80830000Y-60440000D02*
X80830000Y-62560000D01*
X85830000Y-60440000D02*
X85830000Y-62560000D01*
X80710000Y-60440000D02*
X80710000Y-62560000D01*
X85270000Y-62560000D02*
X85830000Y-62560000D01*
X83080000Y-62560000D02*
X83811000Y-62560000D01*
X80710000Y-62560000D02*
X80920000Y-62560000D01*
X85270000Y-60440000D02*
X85830000Y-60440000D01*
X83080000Y-60440000D02*
X83811000Y-60440000D01*
X80710000Y-60440000D02*
X80920000Y-60440000D01*
X34830000Y-71440000D02*
X34830000Y-73560000D01*
X39830000Y-71440000D02*
X39830000Y-73560000D01*
X34710000Y-71440000D02*
X34710000Y-73560000D01*
X39270000Y-73560000D02*
X39830000Y-73560000D01*
X37080000Y-73560000D02*
X37811000Y-73560000D01*
X34710000Y-73560000D02*
X34920000Y-73560000D01*
X39270000Y-71440000D02*
X39830000Y-71440000D01*
X37080000Y-71440000D02*
X37811000Y-71440000D01*
X34710000Y-71440000D02*
X34920000Y-71440000D01*
X57830000Y-71440000D02*
X57830000Y-73560000D01*
X62830000Y-71440000D02*
X62830000Y-73560000D01*
X57710000Y-71440000D02*
X57710000Y-73560000D01*
X62270000Y-73560000D02*
X62830000Y-73560000D01*
X60080000Y-73560000D02*
X60811000Y-73560000D01*
X57710000Y-73560000D02*
X57920000Y-73560000D01*
X62270000Y-71440000D02*
X62830000Y-71440000D01*
X60080000Y-71440000D02*
X60811000Y-71440000D01*
X57710000Y-71440000D02*
X57920000Y-71440000D01*
X80830000Y-71440000D02*
X80830000Y-73560000D01*
X85830000Y-71440000D02*
X85830000Y-73560000D01*
X80710000Y-71440000D02*
X80710000Y-73560000D01*
X85270000Y-73560000D02*
X85830000Y-73560000D01*
X83080000Y-73560000D02*
X83811000Y-73560000D01*
X80710000Y-73560000D02*
X80920000Y-73560000D01*
X85270000Y-71440000D02*
X85830000Y-71440000D01*
X83080000Y-71440000D02*
X83811000Y-71440000D01*
X80710000Y-71440000D02*
X80920000Y-71440000D01*
X41670000Y-60620000D02*
X42870000Y-60620000D01*
X42870000Y-62380000D02*
X41670000Y-62380000D01*
X64670000Y-60620000D02*
X65870000Y-60620000D01*
X65870000Y-62380000D02*
X64670000Y-62380000D01*
X87670000Y-60620000D02*
X88870000Y-60620000D01*
X88870000Y-62380000D02*
X87670000Y-62380000D01*
X41670000Y-71620000D02*
X42870000Y-71620000D01*
X42870000Y-73380000D02*
X41670000Y-73380000D01*
X64670000Y-71620000D02*
X65870000Y-71620000D01*
X65870000Y-73380000D02*
X64670000Y-73380000D01*
X87670000Y-71620000D02*
X88870000Y-71620000D01*
X88870000Y-73380000D02*
X87670000Y-73380000D01*
X38850000Y-66240000D02*
X38850000Y-67700000D01*
X35690000Y-66240000D02*
X35690000Y-68400000D01*
X35690000Y-66240000D02*
X36620000Y-66240000D01*
X38850000Y-66240000D02*
X37920000Y-66240000D01*
X61850000Y-66240000D02*
X61850000Y-67700000D01*
X58690000Y-66240000D02*
X58690000Y-68400000D01*
X58690000Y-66240000D02*
X59620000Y-66240000D01*
X61850000Y-66240000D02*
X60920000Y-66240000D01*
X84850000Y-66240000D02*
X84850000Y-67700000D01*
X81690000Y-66240000D02*
X81690000Y-68400000D01*
X81690000Y-66240000D02*
X82620000Y-66240000D01*
X84850000Y-66240000D02*
X83920000Y-66240000D01*
X38850000Y-77240000D02*
X38850000Y-78700000D01*
X35690000Y-77240000D02*
X35690000Y-79400000D01*
X35690000Y-77240000D02*
X36620000Y-77240000D01*
X38850000Y-77240000D02*
X37920000Y-77240000D01*
X61850000Y-77240000D02*
X61850000Y-78700000D01*
X58690000Y-77240000D02*
X58690000Y-79400000D01*
X58690000Y-77240000D02*
X59620000Y-77240000D01*
X61850000Y-77240000D02*
X60920000Y-77240000D01*
X84850000Y-77240000D02*
X84850000Y-78700000D01*
X81690000Y-77240000D02*
X81690000Y-79400000D01*
X81690000Y-77240000D02*
X82620000Y-77240000D01*
X84850000Y-77240000D02*
X83920000Y-77240000D01*
X41670000Y-66120000D02*
X42870000Y-66120000D01*
X42870000Y-67880000D02*
X41670000Y-67880000D01*
X64670000Y-66120000D02*
X65870000Y-66120000D01*
X65870000Y-67880000D02*
X64670000Y-67880000D01*
X87670000Y-66120000D02*
X88870000Y-66120000D01*
X88870000Y-67880000D02*
X87670000Y-67880000D01*
X41670000Y-77120000D02*
X42870000Y-77120000D01*
X42870000Y-78880000D02*
X41670000Y-78880000D01*
X64670000Y-77120000D02*
X65870000Y-77120000D01*
X65870000Y-78880000D02*
X64670000Y-78880000D01*
X88870000Y-78880000D02*
X87670000Y-78880000D01*
X87670000Y-77120000D02*
X88870000Y-77120000D01*
X31670000Y-66120000D02*
X32870000Y-66120000D01*
X32870000Y-67880000D02*
X31670000Y-67880000D01*
X54670000Y-66120000D02*
X55870000Y-66120000D01*
X55870000Y-67880000D02*
X54670000Y-67880000D01*
X77670000Y-66120000D02*
X78870000Y-66120000D01*
X78870000Y-67880000D02*
X77670000Y-67880000D01*
X31670000Y-77120000D02*
X32870000Y-77120000D01*
X32870000Y-78880000D02*
X31670000Y-78880000D01*
X54670000Y-77120000D02*
X55870000Y-77120000D01*
X55870000Y-78880000D02*
X54670000Y-78880000D01*
X77670000Y-77120000D02*
X78870000Y-77120000D01*
X78870000Y-78880000D02*
X77670000Y-78880000D01*
X98800000Y-75760000D02*
X97600000Y-75760000D01*
X97600000Y-75760000D02*
X97600000Y-73060000D01*
X102400000Y-71760000D02*
X102400000Y-75760000D01*
X102400000Y-75760000D02*
X101200000Y-75760000D01*
X90255000Y-93830000D02*
X90255000Y-92500000D01*
X91585000Y-93830000D02*
X90255000Y-93830000D01*
X90255000Y-91230000D02*
X90255000Y-88630000D01*
X92855000Y-91230000D02*
X90255000Y-91230000D01*
X92855000Y-93830000D02*
X92855000Y-91230000D01*
X90255000Y-88630000D02*
X97995000Y-88630000D01*
X92855000Y-93830000D02*
X97995000Y-93830000D01*
X97995000Y-93830000D02*
X97995000Y-88630000D01*
X42870000Y-87880000D02*
X41670000Y-87880000D01*
X41670000Y-86120000D02*
X42870000Y-86120000D01*
X31670000Y-88120000D02*
X32870000Y-88120000D01*
X32870000Y-89880000D02*
X31670000Y-89880000D01*
X97650000Y-68500000D02*
X97650000Y-69500000D01*
X99350000Y-69500000D02*
X99350000Y-68500000D01*
X100650000Y-68500000D02*
X100650000Y-69500000D01*
X102350000Y-69500000D02*
X102350000Y-68500000D01*
D10*
X36698571Y-86047619D02*
X36603333Y-86000000D01*
X36508095Y-85904761D01*
X36365238Y-85761904D01*
X36270000Y-85714285D01*
X36174761Y-85714285D01*
X36222380Y-85952380D02*
X36127142Y-85904761D01*
X36031904Y-85809523D01*
X35984285Y-85619047D01*
X35984285Y-85285714D01*
X36031904Y-85095238D01*
X36127142Y-85000000D01*
X36222380Y-84952380D01*
X36412857Y-84952380D01*
X36508095Y-85000000D01*
X36603333Y-85095238D01*
X36650952Y-85285714D01*
X36650952Y-85619047D01*
X36603333Y-85809523D01*
X36508095Y-85904761D01*
X36412857Y-85952380D01*
X36222380Y-85952380D01*
X36984285Y-84952380D02*
X37650952Y-84952380D01*
X37222380Y-85952380D01*
X38555714Y-85952380D02*
X37984285Y-85952380D01*
X38270000Y-85952380D02*
X38270000Y-84952380D01*
X38174761Y-85095238D01*
X38079523Y-85190476D01*
X37984285Y-85238095D01*
X112357142Y-93166666D02*
X112404761Y-93214285D01*
X112452380Y-93357142D01*
X112452380Y-93452380D01*
X112404761Y-93595238D01*
X112309523Y-93690476D01*
X112214285Y-93738095D01*
X112023809Y-93785714D01*
X111880952Y-93785714D01*
X111690476Y-93738095D01*
X111595238Y-93690476D01*
X111500000Y-93595238D01*
X111452380Y-93452380D01*
X111452380Y-93357142D01*
X111500000Y-93214285D01*
X111547619Y-93166666D01*
X111452380Y-92309523D02*
X111452380Y-92500000D01*
X111500000Y-92595238D01*
X111547619Y-92642857D01*
X111690476Y-92738095D01*
X111880952Y-92785714D01*
X112261904Y-92785714D01*
X112357142Y-92738095D01*
X112404761Y-92690476D01*
X112452380Y-92595238D01*
X112452380Y-92404761D01*
X112404761Y-92309523D01*
X112357142Y-92261904D01*
X112261904Y-92214285D01*
X112023809Y-92214285D01*
X111928571Y-92261904D01*
X111880952Y-92309523D01*
X111833333Y-92404761D01*
X111833333Y-92595238D01*
X111880952Y-92690476D01*
X111928571Y-92738095D01*
X112023809Y-92785714D01*
X110833333Y-78357142D02*
X110785714Y-78404761D01*
X110642857Y-78452380D01*
X110547619Y-78452380D01*
X110404761Y-78404761D01*
X110309523Y-78309523D01*
X110261904Y-78214285D01*
X110214285Y-78023809D01*
X110214285Y-77880952D01*
X110261904Y-77690476D01*
X110309523Y-77595238D01*
X110404761Y-77500000D01*
X110547619Y-77452380D01*
X110642857Y-77452380D01*
X110785714Y-77500000D01*
X110833333Y-77547619D01*
X111738095Y-77452380D02*
X111261904Y-77452380D01*
X111214285Y-77928571D01*
X111261904Y-77880952D01*
X111357142Y-77833333D01*
X111595238Y-77833333D01*
X111690476Y-77880952D01*
X111738095Y-77928571D01*
X111785714Y-78023809D01*
X111785714Y-78261904D01*
X111738095Y-78357142D01*
X111690476Y-78404761D01*
X111595238Y-78452380D01*
X111357142Y-78452380D01*
X111261904Y-78404761D01*
X111214285Y-78357142D01*
X114333333Y-75857142D02*
X114285714Y-75904761D01*
X114142857Y-75952380D01*
X114047619Y-75952380D01*
X113904761Y-75904761D01*
X113809523Y-75809523D01*
X113761904Y-75714285D01*
X113714285Y-75523809D01*
X113714285Y-75380952D01*
X113761904Y-75190476D01*
X113809523Y-75095238D01*
X113904761Y-75000000D01*
X114047619Y-74952380D01*
X114142857Y-74952380D01*
X114285714Y-75000000D01*
X114333333Y-75047619D01*
X115190476Y-75285714D02*
X115190476Y-75952380D01*
X114952380Y-74904761D02*
X114714285Y-75619047D01*
X115333333Y-75619047D01*
X104357142Y-70166666D02*
X104404761Y-70214285D01*
X104452380Y-70357142D01*
X104452380Y-70452380D01*
X104404761Y-70595238D01*
X104309523Y-70690476D01*
X104214285Y-70738095D01*
X104023809Y-70785714D01*
X103880952Y-70785714D01*
X103690476Y-70738095D01*
X103595238Y-70690476D01*
X103500000Y-70595238D01*
X103452380Y-70452380D01*
X103452380Y-70357142D01*
X103500000Y-70214285D01*
X103547619Y-70166666D01*
X103452380Y-69833333D02*
X103452380Y-69214285D01*
X103833333Y-69547619D01*
X103833333Y-69404761D01*
X103880952Y-69309523D01*
X103928571Y-69261904D01*
X104023809Y-69214285D01*
X104261904Y-69214285D01*
X104357142Y-69261904D01*
X104404761Y-69309523D01*
X104452380Y-69404761D01*
X104452380Y-69690476D01*
X104404761Y-69785714D01*
X104357142Y-69833333D01*
D14*
X26098333Y-87390000D02*
X26031666Y-87356666D01*
X25931666Y-87356666D01*
X25831666Y-87390000D01*
X25765000Y-87456666D01*
X25731666Y-87523333D01*
X25698333Y-87656666D01*
X25698333Y-87756666D01*
X25731666Y-87890000D01*
X25765000Y-87956666D01*
X25831666Y-88023333D01*
X25931666Y-88056666D01*
X25998333Y-88056666D01*
X26098333Y-88023333D01*
X26131666Y-87990000D01*
X26131666Y-87756666D01*
X25998333Y-87756666D01*
X26431666Y-88056666D02*
X26431666Y-87356666D01*
X26831666Y-88056666D01*
X26831666Y-87356666D01*
X27165000Y-88056666D02*
X27165000Y-87356666D01*
X27331666Y-87356666D01*
X27431666Y-87390000D01*
X27498333Y-87456666D01*
X27531666Y-87523333D01*
X27565000Y-87656666D01*
X27565000Y-87756666D01*
X27531666Y-87890000D01*
X27498333Y-87956666D01*
X27431666Y-88023333D01*
X27331666Y-88056666D01*
X27165000Y-88056666D01*
X26098333Y-84246666D02*
X25698333Y-84246666D01*
X25898333Y-84246666D02*
X25898333Y-83546666D01*
X25831666Y-83646666D01*
X25765000Y-83713333D01*
X25698333Y-83746666D01*
X26365000Y-83613333D02*
X26398333Y-83580000D01*
X26465000Y-83546666D01*
X26631666Y-83546666D01*
X26698333Y-83580000D01*
X26731666Y-83613333D01*
X26765000Y-83680000D01*
X26765000Y-83746666D01*
X26731666Y-83846666D01*
X26331666Y-84246666D01*
X26765000Y-84246666D01*
X26965000Y-83546666D02*
X27198333Y-84246666D01*
X27431666Y-83546666D01*
X25731666Y-80436666D02*
X25731666Y-79736666D01*
X26065000Y-80436666D02*
X26065000Y-79970000D01*
X26065000Y-80036666D02*
X26098333Y-80003333D01*
X26165000Y-79970000D01*
X26265000Y-79970000D01*
X26331666Y-80003333D01*
X26365000Y-80070000D01*
X26365000Y-80436666D01*
X26365000Y-80070000D02*
X26398333Y-80003333D01*
X26465000Y-79970000D01*
X26565000Y-79970000D01*
X26631666Y-80003333D01*
X26665000Y-80070000D01*
X26665000Y-80436666D01*
X26998333Y-79970000D02*
X26998333Y-80670000D01*
X26998333Y-80003333D02*
X27065000Y-79970000D01*
X27198333Y-79970000D01*
X27265000Y-80003333D01*
X27298333Y-80036666D01*
X27331666Y-80103333D01*
X27331666Y-80303333D01*
X27298333Y-80370000D01*
X27265000Y-80403333D01*
X27198333Y-80436666D01*
X27065000Y-80436666D01*
X26998333Y-80403333D01*
X27931666Y-79970000D02*
X27931666Y-80436666D01*
X27631666Y-79970000D02*
X27631666Y-80336666D01*
X27665000Y-80403333D01*
X27731666Y-80436666D01*
X27831666Y-80436666D01*
X27898333Y-80403333D01*
X27931666Y-80370000D01*
X28365000Y-80436666D02*
X28298333Y-80403333D01*
X28265000Y-80336666D01*
X28265000Y-79736666D01*
X28598333Y-80403333D02*
X28665000Y-80436666D01*
X28798333Y-80436666D01*
X28865000Y-80403333D01*
X28898333Y-80336666D01*
X28898333Y-80303333D01*
X28865000Y-80236666D01*
X28798333Y-80203333D01*
X28698333Y-80203333D01*
X28631666Y-80170000D01*
X28598333Y-80103333D01*
X28598333Y-80070000D01*
X28631666Y-80003333D01*
X28698333Y-79970000D01*
X28798333Y-79970000D01*
X28865000Y-80003333D01*
X25731666Y-76626666D02*
X25731666Y-75926666D01*
X25731666Y-76193333D02*
X25798333Y-76160000D01*
X25931666Y-76160000D01*
X25998333Y-76193333D01*
X26031666Y-76226666D01*
X26065000Y-76293333D01*
X26065000Y-76493333D01*
X26031666Y-76560000D01*
X25998333Y-76593333D01*
X25931666Y-76626666D01*
X25798333Y-76626666D01*
X25731666Y-76593333D01*
X26665000Y-76626666D02*
X26665000Y-76260000D01*
X26631666Y-76193333D01*
X26565000Y-76160000D01*
X26431666Y-76160000D01*
X26365000Y-76193333D01*
X26665000Y-76593333D02*
X26598333Y-76626666D01*
X26431666Y-76626666D01*
X26365000Y-76593333D01*
X26331666Y-76526666D01*
X26331666Y-76460000D01*
X26365000Y-76393333D01*
X26431666Y-76360000D01*
X26598333Y-76360000D01*
X26665000Y-76326666D01*
X26998333Y-76160000D02*
X26998333Y-76626666D01*
X26998333Y-76226666D02*
X27031666Y-76193333D01*
X27098333Y-76160000D01*
X27198333Y-76160000D01*
X27265000Y-76193333D01*
X27298333Y-76260000D01*
X27298333Y-76626666D01*
X27931666Y-76626666D02*
X27931666Y-75926666D01*
X27931666Y-76593333D02*
X27865000Y-76626666D01*
X27731666Y-76626666D01*
X27665000Y-76593333D01*
X27631666Y-76560000D01*
X27598333Y-76493333D01*
X27598333Y-76293333D01*
X27631666Y-76226666D01*
X27665000Y-76193333D01*
X27731666Y-76160000D01*
X27865000Y-76160000D01*
X27931666Y-76193333D01*
X29165000Y-76626666D02*
X28765000Y-76626666D01*
X28965000Y-76626666D02*
X28965000Y-75926666D01*
X28898333Y-76026666D01*
X28831666Y-76093333D01*
X28765000Y-76126666D01*
X25731666Y-72816666D02*
X25731666Y-72116666D01*
X25731666Y-72383333D02*
X25798333Y-72350000D01*
X25931666Y-72350000D01*
X25998333Y-72383333D01*
X26031666Y-72416666D01*
X26065000Y-72483333D01*
X26065000Y-72683333D01*
X26031666Y-72750000D01*
X25998333Y-72783333D01*
X25931666Y-72816666D01*
X25798333Y-72816666D01*
X25731666Y-72783333D01*
X26665000Y-72816666D02*
X26665000Y-72450000D01*
X26631666Y-72383333D01*
X26565000Y-72350000D01*
X26431666Y-72350000D01*
X26365000Y-72383333D01*
X26665000Y-72783333D02*
X26598333Y-72816666D01*
X26431666Y-72816666D01*
X26365000Y-72783333D01*
X26331666Y-72716666D01*
X26331666Y-72650000D01*
X26365000Y-72583333D01*
X26431666Y-72550000D01*
X26598333Y-72550000D01*
X26665000Y-72516666D01*
X26998333Y-72350000D02*
X26998333Y-72816666D01*
X26998333Y-72416666D02*
X27031666Y-72383333D01*
X27098333Y-72350000D01*
X27198333Y-72350000D01*
X27265000Y-72383333D01*
X27298333Y-72450000D01*
X27298333Y-72816666D01*
X27931666Y-72816666D02*
X27931666Y-72116666D01*
X27931666Y-72783333D02*
X27865000Y-72816666D01*
X27731666Y-72816666D01*
X27665000Y-72783333D01*
X27631666Y-72750000D01*
X27598333Y-72683333D01*
X27598333Y-72483333D01*
X27631666Y-72416666D01*
X27665000Y-72383333D01*
X27731666Y-72350000D01*
X27865000Y-72350000D01*
X27931666Y-72383333D01*
X28765000Y-72183333D02*
X28798333Y-72150000D01*
X28865000Y-72116666D01*
X29031666Y-72116666D01*
X29098333Y-72150000D01*
X29131666Y-72183333D01*
X29165000Y-72250000D01*
X29165000Y-72316666D01*
X29131666Y-72416666D01*
X28731666Y-72816666D01*
X29165000Y-72816666D01*
X26031666Y-69006666D02*
X26031666Y-68640000D01*
X25998333Y-68573333D01*
X25931666Y-68540000D01*
X25798333Y-68540000D01*
X25731666Y-68573333D01*
X26031666Y-68973333D02*
X25965000Y-69006666D01*
X25798333Y-69006666D01*
X25731666Y-68973333D01*
X25698333Y-68906666D01*
X25698333Y-68840000D01*
X25731666Y-68773333D01*
X25798333Y-68740000D01*
X25965000Y-68740000D01*
X26031666Y-68706666D01*
X26665000Y-68540000D02*
X26665000Y-69006666D01*
X26365000Y-68540000D02*
X26365000Y-68906666D01*
X26398333Y-68973333D01*
X26465000Y-69006666D01*
X26565000Y-69006666D01*
X26631666Y-68973333D01*
X26665000Y-68940000D01*
X26931666Y-69006666D02*
X27298333Y-68540000D01*
X26931666Y-68540000D02*
X27298333Y-69006666D01*
X27565000Y-68940000D02*
X27598333Y-68973333D01*
X27565000Y-69006666D01*
X27531666Y-68973333D01*
X27565000Y-68940000D01*
X27565000Y-69006666D01*
X25731666Y-64730000D02*
X25731666Y-65430000D01*
X25731666Y-64763333D02*
X25798333Y-64730000D01*
X25931666Y-64730000D01*
X25998333Y-64763333D01*
X26031666Y-64796666D01*
X26065000Y-64863333D01*
X26065000Y-65063333D01*
X26031666Y-65130000D01*
X25998333Y-65163333D01*
X25931666Y-65196666D01*
X25798333Y-65196666D01*
X25731666Y-65163333D01*
X26365000Y-65196666D02*
X26365000Y-64496666D01*
X26665000Y-65196666D02*
X26665000Y-64830000D01*
X26631666Y-64763333D01*
X26565000Y-64730000D01*
X26465000Y-64730000D01*
X26398333Y-64763333D01*
X26365000Y-64796666D01*
X27098333Y-65196666D02*
X27031666Y-65163333D01*
X26998333Y-65130000D01*
X26965000Y-65063333D01*
X26965000Y-64863333D01*
X26998333Y-64796666D01*
X27031666Y-64763333D01*
X27098333Y-64730000D01*
X27198333Y-64730000D01*
X27265000Y-64763333D01*
X27298333Y-64796666D01*
X27331666Y-64863333D01*
X27331666Y-65063333D01*
X27298333Y-65130000D01*
X27265000Y-65163333D01*
X27198333Y-65196666D01*
X27098333Y-65196666D01*
X27631666Y-64730000D02*
X27631666Y-65196666D01*
X27631666Y-64796666D02*
X27665000Y-64763333D01*
X27731666Y-64730000D01*
X27831666Y-64730000D01*
X27898333Y-64763333D01*
X27931666Y-64830000D01*
X27931666Y-65196666D01*
X28365000Y-65196666D02*
X28298333Y-65163333D01*
X28265000Y-65130000D01*
X28231666Y-65063333D01*
X28231666Y-64863333D01*
X28265000Y-64796666D01*
X28298333Y-64763333D01*
X28365000Y-64730000D01*
X28465000Y-64730000D01*
X28531666Y-64763333D01*
X28565000Y-64796666D01*
X28598333Y-64863333D01*
X28598333Y-65063333D01*
X28565000Y-65130000D01*
X28531666Y-65163333D01*
X28465000Y-65196666D01*
X28365000Y-65196666D01*
X25631666Y-60920000D02*
X25898333Y-60920000D01*
X25731666Y-61386666D02*
X25731666Y-60786666D01*
X25765000Y-60720000D01*
X25831666Y-60686666D01*
X25898333Y-60686666D01*
X26131666Y-61386666D02*
X26131666Y-60920000D01*
X26131666Y-60986666D02*
X26165000Y-60953333D01*
X26231666Y-60920000D01*
X26331666Y-60920000D01*
X26398333Y-60953333D01*
X26431666Y-61020000D01*
X26431666Y-61386666D01*
X26431666Y-61020000D02*
X26465000Y-60953333D01*
X26531666Y-60920000D01*
X26631666Y-60920000D01*
X26698333Y-60953333D01*
X26731666Y-61020000D01*
X26731666Y-61386666D01*
X26031666Y-57576666D02*
X26031666Y-57210000D01*
X25998333Y-57143333D01*
X25931666Y-57110000D01*
X25798333Y-57110000D01*
X25731666Y-57143333D01*
X26031666Y-57543333D02*
X25965000Y-57576666D01*
X25798333Y-57576666D01*
X25731666Y-57543333D01*
X25698333Y-57476666D01*
X25698333Y-57410000D01*
X25731666Y-57343333D01*
X25798333Y-57310000D01*
X25965000Y-57310000D01*
X26031666Y-57276666D01*
X26365000Y-57576666D02*
X26365000Y-57110000D01*
X26365000Y-57176666D02*
X26398333Y-57143333D01*
X26465000Y-57110000D01*
X26565000Y-57110000D01*
X26631666Y-57143333D01*
X26665000Y-57210000D01*
X26665000Y-57576666D01*
X26665000Y-57210000D02*
X26698333Y-57143333D01*
X26765000Y-57110000D01*
X26865000Y-57110000D01*
X26931666Y-57143333D01*
X26965000Y-57210000D01*
X26965000Y-57576666D01*
D10*
X20616785Y-88192380D02*
X20616785Y-87192380D01*
X20616785Y-87573333D02*
X20712023Y-87525714D01*
X20902500Y-87525714D01*
X20997738Y-87573333D01*
X21045357Y-87620952D01*
X21092976Y-87716190D01*
X21092976Y-88001904D01*
X21045357Y-88097142D01*
X20997738Y-88144761D01*
X20902500Y-88192380D01*
X20712023Y-88192380D01*
X20616785Y-88144761D01*
X21521547Y-88192380D02*
X21521547Y-87525714D01*
X21521547Y-87716190D02*
X21569166Y-87620952D01*
X21616785Y-87573333D01*
X21712023Y-87525714D01*
X21807261Y-87525714D01*
X20950119Y-84382380D02*
X20950119Y-83715714D01*
X20950119Y-83906190D02*
X20997738Y-83810952D01*
X21045357Y-83763333D01*
X21140595Y-83715714D01*
X21235833Y-83715714D01*
X21426309Y-83715714D02*
X21807261Y-83715714D01*
X21569166Y-83382380D02*
X21569166Y-84239523D01*
X21616785Y-84334761D01*
X21712023Y-84382380D01*
X21807261Y-84382380D01*
X20759642Y-80572380D02*
X20664404Y-80524761D01*
X20616785Y-80477142D01*
X20569166Y-80381904D01*
X20569166Y-80096190D01*
X20616785Y-80000952D01*
X20664404Y-79953333D01*
X20759642Y-79905714D01*
X20902500Y-79905714D01*
X20997738Y-79953333D01*
X21045357Y-80000952D01*
X21092976Y-80096190D01*
X21092976Y-80381904D01*
X21045357Y-80477142D01*
X20997738Y-80524761D01*
X20902500Y-80572380D01*
X20759642Y-80572380D01*
X21521547Y-80572380D02*
X21521547Y-79905714D01*
X21521547Y-80096190D02*
X21569166Y-80000952D01*
X21616785Y-79953333D01*
X21712023Y-79905714D01*
X21807261Y-79905714D01*
X20807261Y-76095714D02*
X20807261Y-76905238D01*
X20759642Y-77000476D01*
X20712023Y-77048095D01*
X20616785Y-77095714D01*
X20473928Y-77095714D01*
X20378690Y-77048095D01*
X20807261Y-76714761D02*
X20712023Y-76762380D01*
X20521547Y-76762380D01*
X20426309Y-76714761D01*
X20378690Y-76667142D01*
X20331071Y-76571904D01*
X20331071Y-76286190D01*
X20378690Y-76190952D01*
X20426309Y-76143333D01*
X20521547Y-76095714D01*
X20712023Y-76095714D01*
X20807261Y-76143333D01*
X21664404Y-76714761D02*
X21569166Y-76762380D01*
X21378690Y-76762380D01*
X21283452Y-76714761D01*
X21235833Y-76619523D01*
X21235833Y-76238571D01*
X21283452Y-76143333D01*
X21378690Y-76095714D01*
X21569166Y-76095714D01*
X21664404Y-76143333D01*
X21712023Y-76238571D01*
X21712023Y-76333809D01*
X21235833Y-76429047D01*
X20759642Y-72285714D02*
X20759642Y-73095238D01*
X20712023Y-73190476D01*
X20664404Y-73238095D01*
X20569166Y-73285714D01*
X20426309Y-73285714D01*
X20331071Y-73238095D01*
X20759642Y-72904761D02*
X20664404Y-72952380D01*
X20473928Y-72952380D01*
X20378690Y-72904761D01*
X20331071Y-72857142D01*
X20283452Y-72761904D01*
X20283452Y-72476190D01*
X20331071Y-72380952D01*
X20378690Y-72333333D01*
X20473928Y-72285714D01*
X20664404Y-72285714D01*
X20759642Y-72333333D01*
X21235833Y-72285714D02*
X21235833Y-72952380D01*
X21235833Y-72380952D02*
X21283452Y-72333333D01*
X21378690Y-72285714D01*
X21521547Y-72285714D01*
X21616785Y-72333333D01*
X21664404Y-72428571D01*
X21664404Y-72952380D01*
X20712023Y-69142380D02*
X20712023Y-68142380D01*
X20712023Y-68523333D02*
X20807261Y-68475714D01*
X20997738Y-68475714D01*
X21092976Y-68523333D01*
X21140595Y-68570952D01*
X21188214Y-68666190D01*
X21188214Y-68951904D01*
X21140595Y-69047142D01*
X21092976Y-69094761D01*
X20997738Y-69142380D01*
X20807261Y-69142380D01*
X20712023Y-69094761D01*
X21759642Y-69142380D02*
X21664404Y-69094761D01*
X21616785Y-68999523D01*
X21616785Y-68142380D01*
X20807261Y-64665714D02*
X21045357Y-65332380D01*
X21283452Y-64665714D01*
X21664404Y-65332380D02*
X21664404Y-64665714D01*
X21664404Y-64332380D02*
X21616785Y-64380000D01*
X21664404Y-64427619D01*
X21712023Y-64380000D01*
X21664404Y-64332380D01*
X21664404Y-64427619D01*
X21045357Y-60855714D02*
X21045357Y-61665238D01*
X20997738Y-61760476D01*
X20950119Y-61808095D01*
X20854880Y-61855714D01*
X20712023Y-61855714D01*
X20616785Y-61808095D01*
X21045357Y-61474761D02*
X20950119Y-61522380D01*
X20759642Y-61522380D01*
X20664404Y-61474761D01*
X20616785Y-61427142D01*
X20569166Y-61331904D01*
X20569166Y-61046190D01*
X20616785Y-60950952D01*
X20664404Y-60903333D01*
X20759642Y-60855714D01*
X20950119Y-60855714D01*
X21045357Y-60903333D01*
X21521547Y-61522380D02*
X21521547Y-60855714D01*
X21521547Y-61046190D02*
X21569166Y-60950952D01*
X21616785Y-60903333D01*
X21712023Y-60855714D01*
X21807261Y-60855714D01*
X20712023Y-57712380D02*
X20712023Y-57045714D01*
X20712023Y-57236190D02*
X20759642Y-57140952D01*
X20807261Y-57093333D01*
X20902500Y-57045714D01*
X20997738Y-57045714D01*
X21283452Y-57664761D02*
X21378690Y-57712380D01*
X21569166Y-57712380D01*
X21664404Y-57664761D01*
X21712023Y-57569523D01*
X21712023Y-57521904D01*
X21664404Y-57426666D01*
X21569166Y-57379047D01*
X21426309Y-57379047D01*
X21331071Y-57331428D01*
X21283452Y-57236190D01*
X21283452Y-57188571D01*
X21331071Y-57093333D01*
X21426309Y-57045714D01*
X21569166Y-57045714D01*
X21664404Y-57093333D01*
X100333333Y-91302380D02*
X100000000Y-90826190D01*
X99761904Y-91302380D02*
X99761904Y-90302380D01*
X100142857Y-90302380D01*
X100238095Y-90350000D01*
X100285714Y-90397619D01*
X100333333Y-90492857D01*
X100333333Y-90635714D01*
X100285714Y-90730952D01*
X100238095Y-90778571D01*
X100142857Y-90826190D01*
X99761904Y-90826190D01*
X101285714Y-91302380D02*
X100714285Y-91302380D01*
X101000000Y-91302380D02*
X101000000Y-90302380D01*
X100904761Y-90445238D01*
X100809523Y-90540476D01*
X100714285Y-90588095D01*
X113857142Y-93166666D02*
X113904761Y-93214285D01*
X113952380Y-93357142D01*
X113952380Y-93452380D01*
X113904761Y-93595238D01*
X113809523Y-93690476D01*
X113714285Y-93738095D01*
X113523809Y-93785714D01*
X113380952Y-93785714D01*
X113190476Y-93738095D01*
X113095238Y-93690476D01*
X113000000Y-93595238D01*
X112952380Y-93452380D01*
X112952380Y-93357142D01*
X113000000Y-93214285D01*
X113047619Y-93166666D01*
X112952380Y-92833333D02*
X112952380Y-92166666D01*
X113952380Y-92595238D01*
X36055714Y-59892380D02*
X36055714Y-58892380D01*
X36293809Y-58892380D01*
X36436666Y-58940000D01*
X36531904Y-59035238D01*
X36579523Y-59130476D01*
X36627142Y-59320952D01*
X36627142Y-59463809D01*
X36579523Y-59654285D01*
X36531904Y-59749523D01*
X36436666Y-59844761D01*
X36293809Y-59892380D01*
X36055714Y-59892380D01*
X37579523Y-59892380D02*
X37008095Y-59892380D01*
X37293809Y-59892380D02*
X37293809Y-58892380D01*
X37198571Y-59035238D01*
X37103333Y-59130476D01*
X37008095Y-59178095D01*
X38531904Y-59892380D02*
X37960476Y-59892380D01*
X38246190Y-59892380D02*
X38246190Y-58892380D01*
X38150952Y-59035238D01*
X38055714Y-59130476D01*
X37960476Y-59178095D01*
X59055714Y-59892380D02*
X59055714Y-58892380D01*
X59293809Y-58892380D01*
X59436666Y-58940000D01*
X59531904Y-59035238D01*
X59579523Y-59130476D01*
X59627142Y-59320952D01*
X59627142Y-59463809D01*
X59579523Y-59654285D01*
X59531904Y-59749523D01*
X59436666Y-59844761D01*
X59293809Y-59892380D01*
X59055714Y-59892380D01*
X60008095Y-58987619D02*
X60055714Y-58940000D01*
X60150952Y-58892380D01*
X60389047Y-58892380D01*
X60484285Y-58940000D01*
X60531904Y-58987619D01*
X60579523Y-59082857D01*
X60579523Y-59178095D01*
X60531904Y-59320952D01*
X59960476Y-59892380D01*
X60579523Y-59892380D01*
X61531904Y-59892380D02*
X60960476Y-59892380D01*
X61246190Y-59892380D02*
X61246190Y-58892380D01*
X61150952Y-59035238D01*
X61055714Y-59130476D01*
X60960476Y-59178095D01*
X82055714Y-59892380D02*
X82055714Y-58892380D01*
X82293809Y-58892380D01*
X82436666Y-58940000D01*
X82531904Y-59035238D01*
X82579523Y-59130476D01*
X82627142Y-59320952D01*
X82627142Y-59463809D01*
X82579523Y-59654285D01*
X82531904Y-59749523D01*
X82436666Y-59844761D01*
X82293809Y-59892380D01*
X82055714Y-59892380D01*
X82960476Y-58892380D02*
X83579523Y-58892380D01*
X83246190Y-59273333D01*
X83389047Y-59273333D01*
X83484285Y-59320952D01*
X83531904Y-59368571D01*
X83579523Y-59463809D01*
X83579523Y-59701904D01*
X83531904Y-59797142D01*
X83484285Y-59844761D01*
X83389047Y-59892380D01*
X83103333Y-59892380D01*
X83008095Y-59844761D01*
X82960476Y-59797142D01*
X84531904Y-59892380D02*
X83960476Y-59892380D01*
X84246190Y-59892380D02*
X84246190Y-58892380D01*
X84150952Y-59035238D01*
X84055714Y-59130476D01*
X83960476Y-59178095D01*
X36055714Y-70892380D02*
X36055714Y-69892380D01*
X36293809Y-69892380D01*
X36436666Y-69940000D01*
X36531904Y-70035238D01*
X36579523Y-70130476D01*
X36627142Y-70320952D01*
X36627142Y-70463809D01*
X36579523Y-70654285D01*
X36531904Y-70749523D01*
X36436666Y-70844761D01*
X36293809Y-70892380D01*
X36055714Y-70892380D01*
X37484285Y-70225714D02*
X37484285Y-70892380D01*
X37246190Y-69844761D02*
X37008095Y-70559047D01*
X37627142Y-70559047D01*
X38531904Y-70892380D02*
X37960476Y-70892380D01*
X38246190Y-70892380D02*
X38246190Y-69892380D01*
X38150952Y-70035238D01*
X38055714Y-70130476D01*
X37960476Y-70178095D01*
X59055714Y-70892380D02*
X59055714Y-69892380D01*
X59293809Y-69892380D01*
X59436666Y-69940000D01*
X59531904Y-70035238D01*
X59579523Y-70130476D01*
X59627142Y-70320952D01*
X59627142Y-70463809D01*
X59579523Y-70654285D01*
X59531904Y-70749523D01*
X59436666Y-70844761D01*
X59293809Y-70892380D01*
X59055714Y-70892380D01*
X60531904Y-69892380D02*
X60055714Y-69892380D01*
X60008095Y-70368571D01*
X60055714Y-70320952D01*
X60150952Y-70273333D01*
X60389047Y-70273333D01*
X60484285Y-70320952D01*
X60531904Y-70368571D01*
X60579523Y-70463809D01*
X60579523Y-70701904D01*
X60531904Y-70797142D01*
X60484285Y-70844761D01*
X60389047Y-70892380D01*
X60150952Y-70892380D01*
X60055714Y-70844761D01*
X60008095Y-70797142D01*
X61531904Y-70892380D02*
X60960476Y-70892380D01*
X61246190Y-70892380D02*
X61246190Y-69892380D01*
X61150952Y-70035238D01*
X61055714Y-70130476D01*
X60960476Y-70178095D01*
X82055714Y-70892380D02*
X82055714Y-69892380D01*
X82293809Y-69892380D01*
X82436666Y-69940000D01*
X82531904Y-70035238D01*
X82579523Y-70130476D01*
X82627142Y-70320952D01*
X82627142Y-70463809D01*
X82579523Y-70654285D01*
X82531904Y-70749523D01*
X82436666Y-70844761D01*
X82293809Y-70892380D01*
X82055714Y-70892380D01*
X83484285Y-69892380D02*
X83293809Y-69892380D01*
X83198571Y-69940000D01*
X83150952Y-69987619D01*
X83055714Y-70130476D01*
X83008095Y-70320952D01*
X83008095Y-70701904D01*
X83055714Y-70797142D01*
X83103333Y-70844761D01*
X83198571Y-70892380D01*
X83389047Y-70892380D01*
X83484285Y-70844761D01*
X83531904Y-70797142D01*
X83579523Y-70701904D01*
X83579523Y-70463809D01*
X83531904Y-70368571D01*
X83484285Y-70320952D01*
X83389047Y-70273333D01*
X83198571Y-70273333D01*
X83103333Y-70320952D01*
X83055714Y-70368571D01*
X83008095Y-70463809D01*
X84531904Y-70892380D02*
X83960476Y-70892380D01*
X84246190Y-70892380D02*
X84246190Y-69892380D01*
X84150952Y-70035238D01*
X84055714Y-70130476D01*
X83960476Y-70178095D01*
X41627142Y-60302380D02*
X41293809Y-59826190D01*
X41055714Y-60302380D02*
X41055714Y-59302380D01*
X41436666Y-59302380D01*
X41531904Y-59350000D01*
X41579523Y-59397619D01*
X41627142Y-59492857D01*
X41627142Y-59635714D01*
X41579523Y-59730952D01*
X41531904Y-59778571D01*
X41436666Y-59826190D01*
X41055714Y-59826190D01*
X42579523Y-60302380D02*
X42008095Y-60302380D01*
X42293809Y-60302380D02*
X42293809Y-59302380D01*
X42198571Y-59445238D01*
X42103333Y-59540476D01*
X42008095Y-59588095D01*
X42960476Y-59397619D02*
X43008095Y-59350000D01*
X43103333Y-59302380D01*
X43341428Y-59302380D01*
X43436666Y-59350000D01*
X43484285Y-59397619D01*
X43531904Y-59492857D01*
X43531904Y-59588095D01*
X43484285Y-59730952D01*
X42912857Y-60302380D01*
X43531904Y-60302380D01*
X64627142Y-60302380D02*
X64293809Y-59826190D01*
X64055714Y-60302380D02*
X64055714Y-59302380D01*
X64436666Y-59302380D01*
X64531904Y-59350000D01*
X64579523Y-59397619D01*
X64627142Y-59492857D01*
X64627142Y-59635714D01*
X64579523Y-59730952D01*
X64531904Y-59778571D01*
X64436666Y-59826190D01*
X64055714Y-59826190D01*
X65008095Y-59397619D02*
X65055714Y-59350000D01*
X65150952Y-59302380D01*
X65389047Y-59302380D01*
X65484285Y-59350000D01*
X65531904Y-59397619D01*
X65579523Y-59492857D01*
X65579523Y-59588095D01*
X65531904Y-59730952D01*
X64960476Y-60302380D01*
X65579523Y-60302380D01*
X65960476Y-59397619D02*
X66008095Y-59350000D01*
X66103333Y-59302380D01*
X66341428Y-59302380D01*
X66436666Y-59350000D01*
X66484285Y-59397619D01*
X66531904Y-59492857D01*
X66531904Y-59588095D01*
X66484285Y-59730952D01*
X65912857Y-60302380D01*
X66531904Y-60302380D01*
X87627142Y-60302380D02*
X87293809Y-59826190D01*
X87055714Y-60302380D02*
X87055714Y-59302380D01*
X87436666Y-59302380D01*
X87531904Y-59350000D01*
X87579523Y-59397619D01*
X87627142Y-59492857D01*
X87627142Y-59635714D01*
X87579523Y-59730952D01*
X87531904Y-59778571D01*
X87436666Y-59826190D01*
X87055714Y-59826190D01*
X87960476Y-59302380D02*
X88579523Y-59302380D01*
X88246190Y-59683333D01*
X88389047Y-59683333D01*
X88484285Y-59730952D01*
X88531904Y-59778571D01*
X88579523Y-59873809D01*
X88579523Y-60111904D01*
X88531904Y-60207142D01*
X88484285Y-60254761D01*
X88389047Y-60302380D01*
X88103333Y-60302380D01*
X88008095Y-60254761D01*
X87960476Y-60207142D01*
X88960476Y-59397619D02*
X89008095Y-59350000D01*
X89103333Y-59302380D01*
X89341428Y-59302380D01*
X89436666Y-59350000D01*
X89484285Y-59397619D01*
X89531904Y-59492857D01*
X89531904Y-59588095D01*
X89484285Y-59730952D01*
X88912857Y-60302380D01*
X89531904Y-60302380D01*
X41627142Y-71302380D02*
X41293809Y-70826190D01*
X41055714Y-71302380D02*
X41055714Y-70302380D01*
X41436666Y-70302380D01*
X41531904Y-70350000D01*
X41579523Y-70397619D01*
X41627142Y-70492857D01*
X41627142Y-70635714D01*
X41579523Y-70730952D01*
X41531904Y-70778571D01*
X41436666Y-70826190D01*
X41055714Y-70826190D01*
X42484285Y-70635714D02*
X42484285Y-71302380D01*
X42246190Y-70254761D02*
X42008095Y-70969047D01*
X42627142Y-70969047D01*
X42960476Y-70397619D02*
X43008095Y-70350000D01*
X43103333Y-70302380D01*
X43341428Y-70302380D01*
X43436666Y-70350000D01*
X43484285Y-70397619D01*
X43531904Y-70492857D01*
X43531904Y-70588095D01*
X43484285Y-70730952D01*
X42912857Y-71302380D01*
X43531904Y-71302380D01*
X64627142Y-71302380D02*
X64293809Y-70826190D01*
X64055714Y-71302380D02*
X64055714Y-70302380D01*
X64436666Y-70302380D01*
X64531904Y-70350000D01*
X64579523Y-70397619D01*
X64627142Y-70492857D01*
X64627142Y-70635714D01*
X64579523Y-70730952D01*
X64531904Y-70778571D01*
X64436666Y-70826190D01*
X64055714Y-70826190D01*
X65531904Y-70302380D02*
X65055714Y-70302380D01*
X65008095Y-70778571D01*
X65055714Y-70730952D01*
X65150952Y-70683333D01*
X65389047Y-70683333D01*
X65484285Y-70730952D01*
X65531904Y-70778571D01*
X65579523Y-70873809D01*
X65579523Y-71111904D01*
X65531904Y-71207142D01*
X65484285Y-71254761D01*
X65389047Y-71302380D01*
X65150952Y-71302380D01*
X65055714Y-71254761D01*
X65008095Y-71207142D01*
X65960476Y-70397619D02*
X66008095Y-70350000D01*
X66103333Y-70302380D01*
X66341428Y-70302380D01*
X66436666Y-70350000D01*
X66484285Y-70397619D01*
X66531904Y-70492857D01*
X66531904Y-70588095D01*
X66484285Y-70730952D01*
X65912857Y-71302380D01*
X66531904Y-71302380D01*
X87627142Y-71302380D02*
X87293809Y-70826190D01*
X87055714Y-71302380D02*
X87055714Y-70302380D01*
X87436666Y-70302380D01*
X87531904Y-70350000D01*
X87579523Y-70397619D01*
X87627142Y-70492857D01*
X87627142Y-70635714D01*
X87579523Y-70730952D01*
X87531904Y-70778571D01*
X87436666Y-70826190D01*
X87055714Y-70826190D01*
X88484285Y-70302380D02*
X88293809Y-70302380D01*
X88198571Y-70350000D01*
X88150952Y-70397619D01*
X88055714Y-70540476D01*
X88008095Y-70730952D01*
X88008095Y-71111904D01*
X88055714Y-71207142D01*
X88103333Y-71254761D01*
X88198571Y-71302380D01*
X88389047Y-71302380D01*
X88484285Y-71254761D01*
X88531904Y-71207142D01*
X88579523Y-71111904D01*
X88579523Y-70873809D01*
X88531904Y-70778571D01*
X88484285Y-70730952D01*
X88389047Y-70683333D01*
X88198571Y-70683333D01*
X88103333Y-70730952D01*
X88055714Y-70778571D01*
X88008095Y-70873809D01*
X88960476Y-70397619D02*
X89008095Y-70350000D01*
X89103333Y-70302380D01*
X89341428Y-70302380D01*
X89436666Y-70350000D01*
X89484285Y-70397619D01*
X89531904Y-70492857D01*
X89531904Y-70588095D01*
X89484285Y-70730952D01*
X88912857Y-71302380D01*
X89531904Y-71302380D01*
X36698571Y-65047619D02*
X36603333Y-65000000D01*
X36508095Y-64904761D01*
X36365238Y-64761904D01*
X36270000Y-64714285D01*
X36174761Y-64714285D01*
X36222380Y-64952380D02*
X36127142Y-64904761D01*
X36031904Y-64809523D01*
X35984285Y-64619047D01*
X35984285Y-64285714D01*
X36031904Y-64095238D01*
X36127142Y-64000000D01*
X36222380Y-63952380D01*
X36412857Y-63952380D01*
X36508095Y-64000000D01*
X36603333Y-64095238D01*
X36650952Y-64285714D01*
X36650952Y-64619047D01*
X36603333Y-64809523D01*
X36508095Y-64904761D01*
X36412857Y-64952380D01*
X36222380Y-64952380D01*
X37603333Y-64952380D02*
X37031904Y-64952380D01*
X37317619Y-64952380D02*
X37317619Y-63952380D01*
X37222380Y-64095238D01*
X37127142Y-64190476D01*
X37031904Y-64238095D01*
X38555714Y-64952380D02*
X37984285Y-64952380D01*
X38270000Y-64952380D02*
X38270000Y-63952380D01*
X38174761Y-64095238D01*
X38079523Y-64190476D01*
X37984285Y-64238095D01*
X59698571Y-65047619D02*
X59603333Y-65000000D01*
X59508095Y-64904761D01*
X59365238Y-64761904D01*
X59270000Y-64714285D01*
X59174761Y-64714285D01*
X59222380Y-64952380D02*
X59127142Y-64904761D01*
X59031904Y-64809523D01*
X58984285Y-64619047D01*
X58984285Y-64285714D01*
X59031904Y-64095238D01*
X59127142Y-64000000D01*
X59222380Y-63952380D01*
X59412857Y-63952380D01*
X59508095Y-64000000D01*
X59603333Y-64095238D01*
X59650952Y-64285714D01*
X59650952Y-64619047D01*
X59603333Y-64809523D01*
X59508095Y-64904761D01*
X59412857Y-64952380D01*
X59222380Y-64952380D01*
X60031904Y-64047619D02*
X60079523Y-64000000D01*
X60174761Y-63952380D01*
X60412857Y-63952380D01*
X60508095Y-64000000D01*
X60555714Y-64047619D01*
X60603333Y-64142857D01*
X60603333Y-64238095D01*
X60555714Y-64380952D01*
X59984285Y-64952380D01*
X60603333Y-64952380D01*
X61555714Y-64952380D02*
X60984285Y-64952380D01*
X61270000Y-64952380D02*
X61270000Y-63952380D01*
X61174761Y-64095238D01*
X61079523Y-64190476D01*
X60984285Y-64238095D01*
X82698571Y-65047619D02*
X82603333Y-65000000D01*
X82508095Y-64904761D01*
X82365238Y-64761904D01*
X82270000Y-64714285D01*
X82174761Y-64714285D01*
X82222380Y-64952380D02*
X82127142Y-64904761D01*
X82031904Y-64809523D01*
X81984285Y-64619047D01*
X81984285Y-64285714D01*
X82031904Y-64095238D01*
X82127142Y-64000000D01*
X82222380Y-63952380D01*
X82412857Y-63952380D01*
X82508095Y-64000000D01*
X82603333Y-64095238D01*
X82650952Y-64285714D01*
X82650952Y-64619047D01*
X82603333Y-64809523D01*
X82508095Y-64904761D01*
X82412857Y-64952380D01*
X82222380Y-64952380D01*
X82984285Y-63952380D02*
X83603333Y-63952380D01*
X83270000Y-64333333D01*
X83412857Y-64333333D01*
X83508095Y-64380952D01*
X83555714Y-64428571D01*
X83603333Y-64523809D01*
X83603333Y-64761904D01*
X83555714Y-64857142D01*
X83508095Y-64904761D01*
X83412857Y-64952380D01*
X83127142Y-64952380D01*
X83031904Y-64904761D01*
X82984285Y-64857142D01*
X84555714Y-64952380D02*
X83984285Y-64952380D01*
X84270000Y-64952380D02*
X84270000Y-63952380D01*
X84174761Y-64095238D01*
X84079523Y-64190476D01*
X83984285Y-64238095D01*
X36698571Y-76047619D02*
X36603333Y-76000000D01*
X36508095Y-75904761D01*
X36365238Y-75761904D01*
X36270000Y-75714285D01*
X36174761Y-75714285D01*
X36222380Y-75952380D02*
X36127142Y-75904761D01*
X36031904Y-75809523D01*
X35984285Y-75619047D01*
X35984285Y-75285714D01*
X36031904Y-75095238D01*
X36127142Y-75000000D01*
X36222380Y-74952380D01*
X36412857Y-74952380D01*
X36508095Y-75000000D01*
X36603333Y-75095238D01*
X36650952Y-75285714D01*
X36650952Y-75619047D01*
X36603333Y-75809523D01*
X36508095Y-75904761D01*
X36412857Y-75952380D01*
X36222380Y-75952380D01*
X37508095Y-75285714D02*
X37508095Y-75952380D01*
X37270000Y-74904761D02*
X37031904Y-75619047D01*
X37650952Y-75619047D01*
X38555714Y-75952380D02*
X37984285Y-75952380D01*
X38270000Y-75952380D02*
X38270000Y-74952380D01*
X38174761Y-75095238D01*
X38079523Y-75190476D01*
X37984285Y-75238095D01*
X59698571Y-76047619D02*
X59603333Y-76000000D01*
X59508095Y-75904761D01*
X59365238Y-75761904D01*
X59270000Y-75714285D01*
X59174761Y-75714285D01*
X59222380Y-75952380D02*
X59127142Y-75904761D01*
X59031904Y-75809523D01*
X58984285Y-75619047D01*
X58984285Y-75285714D01*
X59031904Y-75095238D01*
X59127142Y-75000000D01*
X59222380Y-74952380D01*
X59412857Y-74952380D01*
X59508095Y-75000000D01*
X59603333Y-75095238D01*
X59650952Y-75285714D01*
X59650952Y-75619047D01*
X59603333Y-75809523D01*
X59508095Y-75904761D01*
X59412857Y-75952380D01*
X59222380Y-75952380D01*
X60555714Y-74952380D02*
X60079523Y-74952380D01*
X60031904Y-75428571D01*
X60079523Y-75380952D01*
X60174761Y-75333333D01*
X60412857Y-75333333D01*
X60508095Y-75380952D01*
X60555714Y-75428571D01*
X60603333Y-75523809D01*
X60603333Y-75761904D01*
X60555714Y-75857142D01*
X60508095Y-75904761D01*
X60412857Y-75952380D01*
X60174761Y-75952380D01*
X60079523Y-75904761D01*
X60031904Y-75857142D01*
X61555714Y-75952380D02*
X60984285Y-75952380D01*
X61270000Y-75952380D02*
X61270000Y-74952380D01*
X61174761Y-75095238D01*
X61079523Y-75190476D01*
X60984285Y-75238095D01*
X82698571Y-76047619D02*
X82603333Y-76000000D01*
X82508095Y-75904761D01*
X82365238Y-75761904D01*
X82270000Y-75714285D01*
X82174761Y-75714285D01*
X82222380Y-75952380D02*
X82127142Y-75904761D01*
X82031904Y-75809523D01*
X81984285Y-75619047D01*
X81984285Y-75285714D01*
X82031904Y-75095238D01*
X82127142Y-75000000D01*
X82222380Y-74952380D01*
X82412857Y-74952380D01*
X82508095Y-75000000D01*
X82603333Y-75095238D01*
X82650952Y-75285714D01*
X82650952Y-75619047D01*
X82603333Y-75809523D01*
X82508095Y-75904761D01*
X82412857Y-75952380D01*
X82222380Y-75952380D01*
X83508095Y-74952380D02*
X83317619Y-74952380D01*
X83222380Y-75000000D01*
X83174761Y-75047619D01*
X83079523Y-75190476D01*
X83031904Y-75380952D01*
X83031904Y-75761904D01*
X83079523Y-75857142D01*
X83127142Y-75904761D01*
X83222380Y-75952380D01*
X83412857Y-75952380D01*
X83508095Y-75904761D01*
X83555714Y-75857142D01*
X83603333Y-75761904D01*
X83603333Y-75523809D01*
X83555714Y-75428571D01*
X83508095Y-75380952D01*
X83412857Y-75333333D01*
X83222380Y-75333333D01*
X83127142Y-75380952D01*
X83079523Y-75428571D01*
X83031904Y-75523809D01*
X84555714Y-75952380D02*
X83984285Y-75952380D01*
X84270000Y-75952380D02*
X84270000Y-74952380D01*
X84174761Y-75095238D01*
X84079523Y-75190476D01*
X83984285Y-75238095D01*
X41627142Y-65802380D02*
X41293809Y-65326190D01*
X41055714Y-65802380D02*
X41055714Y-64802380D01*
X41436666Y-64802380D01*
X41531904Y-64850000D01*
X41579523Y-64897619D01*
X41627142Y-64992857D01*
X41627142Y-65135714D01*
X41579523Y-65230952D01*
X41531904Y-65278571D01*
X41436666Y-65326190D01*
X41055714Y-65326190D01*
X42579523Y-65802380D02*
X42008095Y-65802380D01*
X42293809Y-65802380D02*
X42293809Y-64802380D01*
X42198571Y-64945238D01*
X42103333Y-65040476D01*
X42008095Y-65088095D01*
X42912857Y-64802380D02*
X43531904Y-64802380D01*
X43198571Y-65183333D01*
X43341428Y-65183333D01*
X43436666Y-65230952D01*
X43484285Y-65278571D01*
X43531904Y-65373809D01*
X43531904Y-65611904D01*
X43484285Y-65707142D01*
X43436666Y-65754761D01*
X43341428Y-65802380D01*
X43055714Y-65802380D01*
X42960476Y-65754761D01*
X42912857Y-65707142D01*
X64627142Y-65802380D02*
X64293809Y-65326190D01*
X64055714Y-65802380D02*
X64055714Y-64802380D01*
X64436666Y-64802380D01*
X64531904Y-64850000D01*
X64579523Y-64897619D01*
X64627142Y-64992857D01*
X64627142Y-65135714D01*
X64579523Y-65230952D01*
X64531904Y-65278571D01*
X64436666Y-65326190D01*
X64055714Y-65326190D01*
X65008095Y-64897619D02*
X65055714Y-64850000D01*
X65150952Y-64802380D01*
X65389047Y-64802380D01*
X65484285Y-64850000D01*
X65531904Y-64897619D01*
X65579523Y-64992857D01*
X65579523Y-65088095D01*
X65531904Y-65230952D01*
X64960476Y-65802380D01*
X65579523Y-65802380D01*
X65912857Y-64802380D02*
X66531904Y-64802380D01*
X66198571Y-65183333D01*
X66341428Y-65183333D01*
X66436666Y-65230952D01*
X66484285Y-65278571D01*
X66531904Y-65373809D01*
X66531904Y-65611904D01*
X66484285Y-65707142D01*
X66436666Y-65754761D01*
X66341428Y-65802380D01*
X66055714Y-65802380D01*
X65960476Y-65754761D01*
X65912857Y-65707142D01*
X87627142Y-65802380D02*
X87293809Y-65326190D01*
X87055714Y-65802380D02*
X87055714Y-64802380D01*
X87436666Y-64802380D01*
X87531904Y-64850000D01*
X87579523Y-64897619D01*
X87627142Y-64992857D01*
X87627142Y-65135714D01*
X87579523Y-65230952D01*
X87531904Y-65278571D01*
X87436666Y-65326190D01*
X87055714Y-65326190D01*
X87960476Y-64802380D02*
X88579523Y-64802380D01*
X88246190Y-65183333D01*
X88389047Y-65183333D01*
X88484285Y-65230952D01*
X88531904Y-65278571D01*
X88579523Y-65373809D01*
X88579523Y-65611904D01*
X88531904Y-65707142D01*
X88484285Y-65754761D01*
X88389047Y-65802380D01*
X88103333Y-65802380D01*
X88008095Y-65754761D01*
X87960476Y-65707142D01*
X88912857Y-64802380D02*
X89531904Y-64802380D01*
X89198571Y-65183333D01*
X89341428Y-65183333D01*
X89436666Y-65230952D01*
X89484285Y-65278571D01*
X89531904Y-65373809D01*
X89531904Y-65611904D01*
X89484285Y-65707142D01*
X89436666Y-65754761D01*
X89341428Y-65802380D01*
X89055714Y-65802380D01*
X88960476Y-65754761D01*
X88912857Y-65707142D01*
X41627142Y-76802380D02*
X41293809Y-76326190D01*
X41055714Y-76802380D02*
X41055714Y-75802380D01*
X41436666Y-75802380D01*
X41531904Y-75850000D01*
X41579523Y-75897619D01*
X41627142Y-75992857D01*
X41627142Y-76135714D01*
X41579523Y-76230952D01*
X41531904Y-76278571D01*
X41436666Y-76326190D01*
X41055714Y-76326190D01*
X42484285Y-76135714D02*
X42484285Y-76802380D01*
X42246190Y-75754761D02*
X42008095Y-76469047D01*
X42627142Y-76469047D01*
X42912857Y-75802380D02*
X43531904Y-75802380D01*
X43198571Y-76183333D01*
X43341428Y-76183333D01*
X43436666Y-76230952D01*
X43484285Y-76278571D01*
X43531904Y-76373809D01*
X43531904Y-76611904D01*
X43484285Y-76707142D01*
X43436666Y-76754761D01*
X43341428Y-76802380D01*
X43055714Y-76802380D01*
X42960476Y-76754761D01*
X42912857Y-76707142D01*
X64627142Y-76802380D02*
X64293809Y-76326190D01*
X64055714Y-76802380D02*
X64055714Y-75802380D01*
X64436666Y-75802380D01*
X64531904Y-75850000D01*
X64579523Y-75897619D01*
X64627142Y-75992857D01*
X64627142Y-76135714D01*
X64579523Y-76230952D01*
X64531904Y-76278571D01*
X64436666Y-76326190D01*
X64055714Y-76326190D01*
X65531904Y-75802380D02*
X65055714Y-75802380D01*
X65008095Y-76278571D01*
X65055714Y-76230952D01*
X65150952Y-76183333D01*
X65389047Y-76183333D01*
X65484285Y-76230952D01*
X65531904Y-76278571D01*
X65579523Y-76373809D01*
X65579523Y-76611904D01*
X65531904Y-76707142D01*
X65484285Y-76754761D01*
X65389047Y-76802380D01*
X65150952Y-76802380D01*
X65055714Y-76754761D01*
X65008095Y-76707142D01*
X65912857Y-75802380D02*
X66531904Y-75802380D01*
X66198571Y-76183333D01*
X66341428Y-76183333D01*
X66436666Y-76230952D01*
X66484285Y-76278571D01*
X66531904Y-76373809D01*
X66531904Y-76611904D01*
X66484285Y-76707142D01*
X66436666Y-76754761D01*
X66341428Y-76802380D01*
X66055714Y-76802380D01*
X65960476Y-76754761D01*
X65912857Y-76707142D01*
X87627142Y-76802380D02*
X87293809Y-76326190D01*
X87055714Y-76802380D02*
X87055714Y-75802380D01*
X87436666Y-75802380D01*
X87531904Y-75850000D01*
X87579523Y-75897619D01*
X87627142Y-75992857D01*
X87627142Y-76135714D01*
X87579523Y-76230952D01*
X87531904Y-76278571D01*
X87436666Y-76326190D01*
X87055714Y-76326190D01*
X88484285Y-75802380D02*
X88293809Y-75802380D01*
X88198571Y-75850000D01*
X88150952Y-75897619D01*
X88055714Y-76040476D01*
X88008095Y-76230952D01*
X88008095Y-76611904D01*
X88055714Y-76707142D01*
X88103333Y-76754761D01*
X88198571Y-76802380D01*
X88389047Y-76802380D01*
X88484285Y-76754761D01*
X88531904Y-76707142D01*
X88579523Y-76611904D01*
X88579523Y-76373809D01*
X88531904Y-76278571D01*
X88484285Y-76230952D01*
X88389047Y-76183333D01*
X88198571Y-76183333D01*
X88103333Y-76230952D01*
X88055714Y-76278571D01*
X88008095Y-76373809D01*
X88912857Y-75802380D02*
X89531904Y-75802380D01*
X89198571Y-76183333D01*
X89341428Y-76183333D01*
X89436666Y-76230952D01*
X89484285Y-76278571D01*
X89531904Y-76373809D01*
X89531904Y-76611904D01*
X89484285Y-76707142D01*
X89436666Y-76754761D01*
X89341428Y-76802380D01*
X89055714Y-76802380D01*
X88960476Y-76754761D01*
X88912857Y-76707142D01*
X31627142Y-65802380D02*
X31293809Y-65326190D01*
X31055714Y-65802380D02*
X31055714Y-64802380D01*
X31436666Y-64802380D01*
X31531904Y-64850000D01*
X31579523Y-64897619D01*
X31627142Y-64992857D01*
X31627142Y-65135714D01*
X31579523Y-65230952D01*
X31531904Y-65278571D01*
X31436666Y-65326190D01*
X31055714Y-65326190D01*
X32579523Y-65802380D02*
X32008095Y-65802380D01*
X32293809Y-65802380D02*
X32293809Y-64802380D01*
X32198571Y-64945238D01*
X32103333Y-65040476D01*
X32008095Y-65088095D01*
X33531904Y-65802380D02*
X32960476Y-65802380D01*
X33246190Y-65802380D02*
X33246190Y-64802380D01*
X33150952Y-64945238D01*
X33055714Y-65040476D01*
X32960476Y-65088095D01*
X54627142Y-65802380D02*
X54293809Y-65326190D01*
X54055714Y-65802380D02*
X54055714Y-64802380D01*
X54436666Y-64802380D01*
X54531904Y-64850000D01*
X54579523Y-64897619D01*
X54627142Y-64992857D01*
X54627142Y-65135714D01*
X54579523Y-65230952D01*
X54531904Y-65278571D01*
X54436666Y-65326190D01*
X54055714Y-65326190D01*
X55008095Y-64897619D02*
X55055714Y-64850000D01*
X55150952Y-64802380D01*
X55389047Y-64802380D01*
X55484285Y-64850000D01*
X55531904Y-64897619D01*
X55579523Y-64992857D01*
X55579523Y-65088095D01*
X55531904Y-65230952D01*
X54960476Y-65802380D01*
X55579523Y-65802380D01*
X56531904Y-65802380D02*
X55960476Y-65802380D01*
X56246190Y-65802380D02*
X56246190Y-64802380D01*
X56150952Y-64945238D01*
X56055714Y-65040476D01*
X55960476Y-65088095D01*
X77627142Y-65802380D02*
X77293809Y-65326190D01*
X77055714Y-65802380D02*
X77055714Y-64802380D01*
X77436666Y-64802380D01*
X77531904Y-64850000D01*
X77579523Y-64897619D01*
X77627142Y-64992857D01*
X77627142Y-65135714D01*
X77579523Y-65230952D01*
X77531904Y-65278571D01*
X77436666Y-65326190D01*
X77055714Y-65326190D01*
X77960476Y-64802380D02*
X78579523Y-64802380D01*
X78246190Y-65183333D01*
X78389047Y-65183333D01*
X78484285Y-65230952D01*
X78531904Y-65278571D01*
X78579523Y-65373809D01*
X78579523Y-65611904D01*
X78531904Y-65707142D01*
X78484285Y-65754761D01*
X78389047Y-65802380D01*
X78103333Y-65802380D01*
X78008095Y-65754761D01*
X77960476Y-65707142D01*
X79531904Y-65802380D02*
X78960476Y-65802380D01*
X79246190Y-65802380D02*
X79246190Y-64802380D01*
X79150952Y-64945238D01*
X79055714Y-65040476D01*
X78960476Y-65088095D01*
X31627142Y-76802380D02*
X31293809Y-76326190D01*
X31055714Y-76802380D02*
X31055714Y-75802380D01*
X31436666Y-75802380D01*
X31531904Y-75850000D01*
X31579523Y-75897619D01*
X31627142Y-75992857D01*
X31627142Y-76135714D01*
X31579523Y-76230952D01*
X31531904Y-76278571D01*
X31436666Y-76326190D01*
X31055714Y-76326190D01*
X32484285Y-76135714D02*
X32484285Y-76802380D01*
X32246190Y-75754761D02*
X32008095Y-76469047D01*
X32627142Y-76469047D01*
X33531904Y-76802380D02*
X32960476Y-76802380D01*
X33246190Y-76802380D02*
X33246190Y-75802380D01*
X33150952Y-75945238D01*
X33055714Y-76040476D01*
X32960476Y-76088095D01*
X54627142Y-76802380D02*
X54293809Y-76326190D01*
X54055714Y-76802380D02*
X54055714Y-75802380D01*
X54436666Y-75802380D01*
X54531904Y-75850000D01*
X54579523Y-75897619D01*
X54627142Y-75992857D01*
X54627142Y-76135714D01*
X54579523Y-76230952D01*
X54531904Y-76278571D01*
X54436666Y-76326190D01*
X54055714Y-76326190D01*
X55531904Y-75802380D02*
X55055714Y-75802380D01*
X55008095Y-76278571D01*
X55055714Y-76230952D01*
X55150952Y-76183333D01*
X55389047Y-76183333D01*
X55484285Y-76230952D01*
X55531904Y-76278571D01*
X55579523Y-76373809D01*
X55579523Y-76611904D01*
X55531904Y-76707142D01*
X55484285Y-76754761D01*
X55389047Y-76802380D01*
X55150952Y-76802380D01*
X55055714Y-76754761D01*
X55008095Y-76707142D01*
X56531904Y-76802380D02*
X55960476Y-76802380D01*
X56246190Y-76802380D02*
X56246190Y-75802380D01*
X56150952Y-75945238D01*
X56055714Y-76040476D01*
X55960476Y-76088095D01*
X77627142Y-76802380D02*
X77293809Y-76326190D01*
X77055714Y-76802380D02*
X77055714Y-75802380D01*
X77436666Y-75802380D01*
X77531904Y-75850000D01*
X77579523Y-75897619D01*
X77627142Y-75992857D01*
X77627142Y-76135714D01*
X77579523Y-76230952D01*
X77531904Y-76278571D01*
X77436666Y-76326190D01*
X77055714Y-76326190D01*
X78484285Y-75802380D02*
X78293809Y-75802380D01*
X78198571Y-75850000D01*
X78150952Y-75897619D01*
X78055714Y-76040476D01*
X78008095Y-76230952D01*
X78008095Y-76611904D01*
X78055714Y-76707142D01*
X78103333Y-76754761D01*
X78198571Y-76802380D01*
X78389047Y-76802380D01*
X78484285Y-76754761D01*
X78531904Y-76707142D01*
X78579523Y-76611904D01*
X78579523Y-76373809D01*
X78531904Y-76278571D01*
X78484285Y-76230952D01*
X78389047Y-76183333D01*
X78198571Y-76183333D01*
X78103333Y-76230952D01*
X78055714Y-76278571D01*
X78008095Y-76373809D01*
X79531904Y-76802380D02*
X78960476Y-76802380D01*
X79246190Y-76802380D02*
X79246190Y-75802380D01*
X79150952Y-75945238D01*
X79055714Y-76040476D01*
X78960476Y-76088095D01*
X99238095Y-77952380D02*
X99238095Y-78761904D01*
X99285714Y-78857142D01*
X99333333Y-78904761D01*
X99428571Y-78952380D01*
X99619047Y-78952380D01*
X99714285Y-78904761D01*
X99761904Y-78857142D01*
X99809523Y-78761904D01*
X99809523Y-77952380D01*
X100809523Y-78952380D02*
X100238095Y-78952380D01*
X100523809Y-78952380D02*
X100523809Y-77952380D01*
X100428571Y-78095238D01*
X100333333Y-78190476D01*
X100238095Y-78238095D01*
X41627142Y-85802380D02*
X41293809Y-85326190D01*
X41055714Y-85802380D02*
X41055714Y-84802380D01*
X41436666Y-84802380D01*
X41531904Y-84850000D01*
X41579523Y-84897619D01*
X41627142Y-84992857D01*
X41627142Y-85135714D01*
X41579523Y-85230952D01*
X41531904Y-85278571D01*
X41436666Y-85326190D01*
X41055714Y-85326190D01*
X41960476Y-84802380D02*
X42627142Y-84802380D01*
X42198571Y-85802380D01*
X43531904Y-85802380D02*
X42960476Y-85802380D01*
X43246190Y-85802380D02*
X43246190Y-84802380D01*
X43150952Y-84945238D01*
X43055714Y-85040476D01*
X42960476Y-85088095D01*
X31627142Y-87802380D02*
X31293809Y-87326190D01*
X31055714Y-87802380D02*
X31055714Y-86802380D01*
X31436666Y-86802380D01*
X31531904Y-86850000D01*
X31579523Y-86897619D01*
X31627142Y-86992857D01*
X31627142Y-87135714D01*
X31579523Y-87230952D01*
X31531904Y-87278571D01*
X31436666Y-87326190D01*
X31055714Y-87326190D01*
X31960476Y-86802380D02*
X32627142Y-86802380D01*
X32198571Y-87802380D01*
X32960476Y-86897619D02*
X33008095Y-86850000D01*
X33103333Y-86802380D01*
X33341428Y-86802380D01*
X33436666Y-86850000D01*
X33484285Y-86897619D01*
X33531904Y-86992857D01*
X33531904Y-87088095D01*
X33484285Y-87230952D01*
X32912857Y-87802380D01*
X33531904Y-87802380D01*
X98857142Y-65866666D02*
X98904761Y-65914285D01*
X98952380Y-66057142D01*
X98952380Y-66152380D01*
X98904761Y-66295238D01*
X98809523Y-66390476D01*
X98714285Y-66438095D01*
X98523809Y-66485714D01*
X98380952Y-66485714D01*
X98190476Y-66438095D01*
X98095238Y-66390476D01*
X98000000Y-66295238D01*
X97952380Y-66152380D01*
X97952380Y-66057142D01*
X98000000Y-65914285D01*
X98047619Y-65866666D01*
X98952380Y-64914285D02*
X98952380Y-65485714D01*
X98952380Y-65200000D02*
X97952380Y-65200000D01*
X98095238Y-65295238D01*
X98190476Y-65390476D01*
X98238095Y-65485714D01*
X101857142Y-65866666D02*
X101904761Y-65914285D01*
X101952380Y-66057142D01*
X101952380Y-66152380D01*
X101904761Y-66295238D01*
X101809523Y-66390476D01*
X101714285Y-66438095D01*
X101523809Y-66485714D01*
X101380952Y-66485714D01*
X101190476Y-66438095D01*
X101095238Y-66390476D01*
X101000000Y-66295238D01*
X100952380Y-66152380D01*
X100952380Y-66057142D01*
X101000000Y-65914285D01*
X101047619Y-65866666D01*
X101047619Y-65485714D02*
X101000000Y-65438095D01*
X100952380Y-65342857D01*
X100952380Y-65104761D01*
X101000000Y-65009523D01*
X101047619Y-64961904D01*
X101142857Y-64914285D01*
X101238095Y-64914285D01*
X101380952Y-64961904D01*
X101952380Y-65533333D01*
X101952380Y-64914285D01*
%LPC*%
D15*
X38220000Y-87000000D03*
X36320000Y-87000000D03*
X37270000Y-89000000D03*
D16*
X39500000Y-104200000D03*
X35800000Y-105600000D03*
X33200000Y-103000000D03*
X37000000Y-101500000D03*
X57000000Y-104200000D03*
X53300000Y-105600000D03*
X50700000Y-103000000D03*
X54500000Y-101500000D03*
X74500000Y-104200000D03*
X70800000Y-105600000D03*
X68200000Y-103000000D03*
X72000000Y-101500000D03*
X109750000Y-104200000D03*
X106050000Y-105600000D03*
X103450000Y-103000000D03*
X107250000Y-101500000D03*
X144750000Y-104200000D03*
X141050000Y-105600000D03*
X138450000Y-103000000D03*
X142250000Y-101500000D03*
X127250000Y-104200000D03*
X123550000Y-105600000D03*
X120950000Y-103000000D03*
X124750000Y-101500000D03*
D17*
X108000000Y-94000000D03*
X108000000Y-92000000D03*
D18*
X106800000Y-78000000D03*
X108800000Y-78000000D03*
X112400000Y-75500000D03*
X110400000Y-75500000D03*
D17*
X104000000Y-74500000D03*
X104000000Y-72500000D03*
D19*
X24000000Y-87740000D03*
X24000000Y-83930000D03*
X24000000Y-80120000D03*
X24000000Y-76310000D03*
X24000000Y-72500000D03*
X24000000Y-68690000D03*
X24000000Y-64880000D03*
X24000000Y-61070000D03*
X24000000Y-57260000D03*
D20*
X101450000Y-92500000D03*
X99550000Y-92500000D03*
D17*
X110000000Y-92000000D03*
X110000000Y-94000000D03*
D21*
X112800000Y-80750000D03*
X112000000Y-80750000D03*
X111200000Y-80750000D03*
X110400000Y-80750000D03*
X109600000Y-80750000D03*
X108800000Y-80750000D03*
X108000000Y-80750000D03*
X107200000Y-80750000D03*
D22*
X105750000Y-82200000D03*
X105750000Y-83000000D03*
X105750000Y-83800000D03*
X105750000Y-84600000D03*
X105750000Y-85400000D03*
X105750000Y-86200000D03*
X105750000Y-87000000D03*
X105750000Y-87800000D03*
D21*
X107200000Y-89250000D03*
X108000000Y-89250000D03*
X108800000Y-89250000D03*
X109600000Y-89250000D03*
X110400000Y-89250000D03*
X111200000Y-89250000D03*
X112000000Y-89250000D03*
X112800000Y-89250000D03*
D22*
X114250000Y-87800000D03*
X114250000Y-87000000D03*
X114250000Y-86200000D03*
X114250000Y-85400000D03*
X114250000Y-84600000D03*
X114250000Y-83800000D03*
X114250000Y-83000000D03*
X114250000Y-82200000D03*
D23*
X36000000Y-61500000D03*
D24*
X38540000Y-61500000D03*
D23*
X59000000Y-61500000D03*
D24*
X61540000Y-61500000D03*
D23*
X82000000Y-61500000D03*
D24*
X84540000Y-61500000D03*
D23*
X36000000Y-72500000D03*
D24*
X38540000Y-72500000D03*
D23*
X59000000Y-72500000D03*
D24*
X61540000Y-72500000D03*
D23*
X82000000Y-72500000D03*
D24*
X84540000Y-72500000D03*
D20*
X41320000Y-61500000D03*
X43220000Y-61500000D03*
X64320000Y-61500000D03*
X66220000Y-61500000D03*
X87320000Y-61500000D03*
X89220000Y-61500000D03*
X41320000Y-72500000D03*
X43220000Y-72500000D03*
X64320000Y-72500000D03*
X66220000Y-72500000D03*
X87320000Y-72500000D03*
X89220000Y-72500000D03*
D15*
X36320000Y-68000000D03*
X38220000Y-68000000D03*
X37270000Y-66000000D03*
X59320000Y-68000000D03*
X61220000Y-68000000D03*
X60270000Y-66000000D03*
X82320000Y-68000000D03*
X84220000Y-68000000D03*
X83270000Y-66000000D03*
X36320000Y-79000000D03*
X38220000Y-79000000D03*
X37270000Y-77000000D03*
X59320000Y-79000000D03*
X61220000Y-79000000D03*
X60270000Y-77000000D03*
X82320000Y-79000000D03*
X84220000Y-79000000D03*
X83270000Y-77000000D03*
D20*
X41320000Y-67000000D03*
X43220000Y-67000000D03*
X64320000Y-67000000D03*
X66220000Y-67000000D03*
X87320000Y-67000000D03*
X89220000Y-67000000D03*
X41320000Y-78000000D03*
X43220000Y-78000000D03*
X64320000Y-78000000D03*
X66220000Y-78000000D03*
X89220000Y-78000000D03*
X87320000Y-78000000D03*
X31320000Y-67000000D03*
X33220000Y-67000000D03*
X54320000Y-67000000D03*
X56220000Y-67000000D03*
X77320000Y-67000000D03*
X79220000Y-67000000D03*
X31320000Y-78000000D03*
X33220000Y-78000000D03*
X54320000Y-78000000D03*
X56220000Y-78000000D03*
X77320000Y-78000000D03*
X79220000Y-78000000D03*
D14*
G36*
X98900000Y-74403800D02*
G01*
X99600000Y-73403800D01*
X100400000Y-73403800D01*
X101100000Y-74403800D01*
X98900000Y-74403800D01*
G37*
D25*
X100000000Y-75313500D03*
D26*
X98500000Y-72500000D03*
D27*
X100000000Y-72646500D03*
D26*
X101500000Y-72500000D03*
D14*
G36*
X101100000Y-76222000D02*
G01*
X100500000Y-77072000D01*
X99500000Y-77072000D01*
X98900000Y-76222000D01*
X101100000Y-76222000D01*
G37*
D24*
X52000000Y-49000000D03*
X54540000Y-49000000D03*
X57080000Y-49000000D03*
X59620000Y-49000000D03*
X62160000Y-49000000D03*
X64700000Y-49000000D03*
X67240000Y-49000000D03*
X69780000Y-49000000D03*
X72320000Y-49000000D03*
X74860000Y-49000000D03*
X77400000Y-49000000D03*
X79940000Y-49000000D03*
X82480000Y-49000000D03*
X84000000Y-43000000D03*
X81460000Y-43000000D03*
X78920000Y-43000000D03*
X76380000Y-43000000D03*
X73840000Y-43000000D03*
X71300000Y-43000000D03*
X68760000Y-43000000D03*
X66220000Y-43000000D03*
X63680000Y-43000000D03*
X61140000Y-43000000D03*
X58600000Y-43000000D03*
X56060000Y-43000000D03*
X53520000Y-43000000D03*
X50980000Y-43000000D03*
X48440000Y-43000000D03*
X45900000Y-43000000D03*
D28*
X91585000Y-92500000D03*
D29*
X91585000Y-89960000D03*
X94125000Y-92500000D03*
X94125000Y-89960000D03*
X96665000Y-92500000D03*
X96665000Y-89960000D03*
D30*
X45000000Y-93000000D03*
X126500000Y-93500000D03*
D20*
X43220000Y-87000000D03*
X41320000Y-87000000D03*
X31320000Y-89000000D03*
X33220000Y-89000000D03*
D17*
X98500000Y-68000000D03*
X98500000Y-70000000D03*
X101500000Y-68000000D03*
X101500000Y-70000000D03*
M02*
