G04 #@! TF.GenerationSoftware,KiCad,Pcbnew,(5.1.7)-1*
G04 #@! TF.CreationDate,2022-05-13T22:18:05+02:00*
G04 #@! TF.ProjectId,Anzeige-Modul,416e7a65-6967-4652-9d4d-6f64756c2e6b,rev?*
G04 #@! TF.SameCoordinates,Original*
G04 #@! TF.FileFunction,Soldermask,Top*
G04 #@! TF.FilePolarity,Negative*
%FSLAX46Y46*%
G04 Gerber Fmt 4.6, Leading zero omitted, Abs format (unit mm)*
G04 Created by KiCad (PCBNEW (5.1.7)-1) date 2022-05-13 22:18:05*
%MOMM*%
%LPD*%
G01*
G04 APERTURE LIST*
%ADD10R,0.800000X0.900000*%
%ADD11C,2.250000*%
%ADD12R,1.250000X1.000000*%
%ADD13R,1.000000X1.250000*%
%ADD14C,1.750000*%
%ADD15R,0.700000X1.300000*%
%ADD16R,0.550000X1.600000*%
%ADD17R,1.600000X0.550000*%
%ADD18R,1.800000X1.800000*%
%ADD19C,1.800000*%
%ADD20C,0.100000*%
%ADD21R,2.200000X1.840000*%
%ADD22R,1.000000X1.500000*%
%ADD23R,1.000000X1.800000*%
%ADD24R,1.700000X1.700000*%
%ADD25O,1.700000X1.700000*%
%ADD26C,6.000000*%
G04 APERTURE END LIST*
D10*
X38220000Y-87000000D03*
X36320000Y-87000000D03*
X37270000Y-89000000D03*
D11*
X39500000Y-104200000D03*
X35800000Y-105600000D03*
X33200000Y-103000000D03*
X37000000Y-101500000D03*
X57000000Y-104200000D03*
X53300000Y-105600000D03*
X50700000Y-103000000D03*
X54500000Y-101500000D03*
X74500000Y-104200000D03*
X70800000Y-105600000D03*
X68200000Y-103000000D03*
X72000000Y-101500000D03*
X109750000Y-104200000D03*
X106050000Y-105600000D03*
X103450000Y-103000000D03*
X107250000Y-101500000D03*
X144750000Y-104200000D03*
X141050000Y-105600000D03*
X138450000Y-103000000D03*
X142250000Y-101500000D03*
X127250000Y-104200000D03*
X123550000Y-105600000D03*
X120950000Y-103000000D03*
X124750000Y-101500000D03*
D12*
X108000000Y-94000000D03*
X108000000Y-92000000D03*
D13*
X106800000Y-78000000D03*
X108800000Y-78000000D03*
X112400000Y-75500000D03*
X110400000Y-75500000D03*
D12*
X104000000Y-74500000D03*
X104000000Y-72500000D03*
D14*
X24000000Y-87740000D03*
X24000000Y-83930000D03*
X24000000Y-80120000D03*
X24000000Y-76310000D03*
X24000000Y-72500000D03*
X24000000Y-68690000D03*
X24000000Y-64880000D03*
X24000000Y-61070000D03*
X24000000Y-57260000D03*
D15*
X101450000Y-92500000D03*
X99550000Y-92500000D03*
D12*
X110000000Y-92000000D03*
X110000000Y-94000000D03*
D16*
X112800000Y-80750000D03*
X112000000Y-80750000D03*
X111200000Y-80750000D03*
X110400000Y-80750000D03*
X109600000Y-80750000D03*
X108800000Y-80750000D03*
X108000000Y-80750000D03*
X107200000Y-80750000D03*
D17*
X105750000Y-82200000D03*
X105750000Y-83000000D03*
X105750000Y-83800000D03*
X105750000Y-84600000D03*
X105750000Y-85400000D03*
X105750000Y-86200000D03*
X105750000Y-87000000D03*
X105750000Y-87800000D03*
D16*
X107200000Y-89250000D03*
X108000000Y-89250000D03*
X108800000Y-89250000D03*
X109600000Y-89250000D03*
X110400000Y-89250000D03*
X111200000Y-89250000D03*
X112000000Y-89250000D03*
X112800000Y-89250000D03*
D17*
X114250000Y-87800000D03*
X114250000Y-87000000D03*
X114250000Y-86200000D03*
X114250000Y-85400000D03*
X114250000Y-84600000D03*
X114250000Y-83800000D03*
X114250000Y-83000000D03*
X114250000Y-82200000D03*
D18*
X36000000Y-61500000D03*
D19*
X38540000Y-61500000D03*
D18*
X59000000Y-61500000D03*
D19*
X61540000Y-61500000D03*
D18*
X82000000Y-61500000D03*
D19*
X84540000Y-61500000D03*
D18*
X36000000Y-72500000D03*
D19*
X38540000Y-72500000D03*
D18*
X59000000Y-72500000D03*
D19*
X61540000Y-72500000D03*
D18*
X82000000Y-72500000D03*
D19*
X84540000Y-72500000D03*
D15*
X41320000Y-61500000D03*
X43220000Y-61500000D03*
X64320000Y-61500000D03*
X66220000Y-61500000D03*
X87320000Y-61500000D03*
X89220000Y-61500000D03*
X41320000Y-72500000D03*
X43220000Y-72500000D03*
X64320000Y-72500000D03*
X66220000Y-72500000D03*
X87320000Y-72500000D03*
X89220000Y-72500000D03*
D10*
X36320000Y-68000000D03*
X38220000Y-68000000D03*
X37270000Y-66000000D03*
X59320000Y-68000000D03*
X61220000Y-68000000D03*
X60270000Y-66000000D03*
X82320000Y-68000000D03*
X84220000Y-68000000D03*
X83270000Y-66000000D03*
X36320000Y-79000000D03*
X38220000Y-79000000D03*
X37270000Y-77000000D03*
X59320000Y-79000000D03*
X61220000Y-79000000D03*
X60270000Y-77000000D03*
X82320000Y-79000000D03*
X84220000Y-79000000D03*
X83270000Y-77000000D03*
D15*
X41320000Y-67000000D03*
X43220000Y-67000000D03*
X64320000Y-67000000D03*
X66220000Y-67000000D03*
X87320000Y-67000000D03*
X89220000Y-67000000D03*
X41320000Y-78000000D03*
X43220000Y-78000000D03*
X64320000Y-78000000D03*
X66220000Y-78000000D03*
X89220000Y-78000000D03*
X87320000Y-78000000D03*
X31320000Y-67000000D03*
X33220000Y-67000000D03*
X54320000Y-67000000D03*
X56220000Y-67000000D03*
X77320000Y-67000000D03*
X79220000Y-67000000D03*
X31320000Y-78000000D03*
X33220000Y-78000000D03*
X54320000Y-78000000D03*
X56220000Y-78000000D03*
X77320000Y-78000000D03*
X79220000Y-78000000D03*
D20*
G36*
X98900000Y-74403800D02*
G01*
X99600000Y-73403800D01*
X100400000Y-73403800D01*
X101100000Y-74403800D01*
X98900000Y-74403800D01*
G37*
D21*
X100000000Y-75313500D03*
D22*
X98500000Y-72500000D03*
D23*
X100000000Y-72646500D03*
D22*
X101500000Y-72500000D03*
D20*
G36*
X101100000Y-76222000D02*
G01*
X100500000Y-77072000D01*
X99500000Y-77072000D01*
X98900000Y-76222000D01*
X101100000Y-76222000D01*
G37*
D19*
X52000000Y-49000000D03*
X54540000Y-49000000D03*
X57080000Y-49000000D03*
X59620000Y-49000000D03*
X62160000Y-49000000D03*
X64700000Y-49000000D03*
X67240000Y-49000000D03*
X69780000Y-49000000D03*
X72320000Y-49000000D03*
X74860000Y-49000000D03*
X77400000Y-49000000D03*
X79940000Y-49000000D03*
X82480000Y-49000000D03*
X84000000Y-43000000D03*
X81460000Y-43000000D03*
X78920000Y-43000000D03*
X76380000Y-43000000D03*
X73840000Y-43000000D03*
X71300000Y-43000000D03*
X68760000Y-43000000D03*
X66220000Y-43000000D03*
X63680000Y-43000000D03*
X61140000Y-43000000D03*
X58600000Y-43000000D03*
X56060000Y-43000000D03*
X53520000Y-43000000D03*
X50980000Y-43000000D03*
X48440000Y-43000000D03*
X45900000Y-43000000D03*
D24*
X91585000Y-92500000D03*
D25*
X91585000Y-89960000D03*
X94125000Y-92500000D03*
X94125000Y-89960000D03*
X96665000Y-92500000D03*
X96665000Y-89960000D03*
D26*
X45000000Y-93000000D03*
X126500000Y-93500000D03*
D15*
X43220000Y-87000000D03*
X41320000Y-87000000D03*
X31320000Y-89000000D03*
X33220000Y-89000000D03*
D12*
X98500000Y-68000000D03*
X98500000Y-70000000D03*
X101500000Y-68000000D03*
X101500000Y-70000000D03*
M02*
