G04 #@! TF.GenerationSoftware,KiCad,Pcbnew,(5.1.7)-1*
G04 #@! TF.CreationDate,2022-06-07T01:14:45+02:00*
G04 #@! TF.ProjectId,Kondensator-Adapter-25mm,4b6f6e64-656e-4736-9174-6f722d416461,rev?*
G04 #@! TF.SameCoordinates,Original*
G04 #@! TF.FileFunction,Copper,L2,Bot*
G04 #@! TF.FilePolarity,Positive*
%FSLAX46Y46*%
G04 Gerber Fmt 4.6, Leading zero omitted, Abs format (unit mm)*
G04 Created by KiCad (PCBNEW (5.1.7)-1) date 2022-06-07 01:14:45*
%MOMM*%
%LPD*%
G01*
G04 APERTURE LIST*
G04 #@! TA.AperFunction,ComponentPad*
%ADD10C,2.500000*%
G04 #@! TD*
G04 #@! TA.AperFunction,Conductor*
%ADD11C,2.500000*%
G04 #@! TD*
G04 #@! TA.AperFunction,Conductor*
%ADD12C,0.500000*%
G04 #@! TD*
G04 #@! TA.AperFunction,Conductor*
%ADD13C,0.100000*%
G04 #@! TD*
G04 APERTURE END LIST*
G04 #@! TA.AperFunction,ComponentPad*
G36*
G01*
X168000000Y-40625000D02*
X168000000Y-39375000D01*
G75*
G02*
X168625000Y-38750000I625000J0D01*
G01*
X171875000Y-38750000D01*
G75*
G02*
X172500000Y-39375000I0J-625000D01*
G01*
X172500000Y-40625000D01*
G75*
G02*
X171875000Y-41250000I-625000J0D01*
G01*
X168625000Y-41250000D01*
G75*
G02*
X168000000Y-40625000I0J625000D01*
G01*
G37*
G04 #@! TD.AperFunction*
G04 #@! TA.AperFunction,ComponentPad*
G36*
G01*
X177500000Y-40625000D02*
X177500000Y-39375000D01*
G75*
G02*
X178125000Y-38750000I625000J0D01*
G01*
X181375000Y-38750000D01*
G75*
G02*
X182000000Y-39375000I0J-625000D01*
G01*
X182000000Y-40625000D01*
G75*
G02*
X181375000Y-41250000I-625000J0D01*
G01*
X178125000Y-41250000D01*
G75*
G02*
X177500000Y-40625000I0J625000D01*
G01*
G37*
G04 #@! TD.AperFunction*
D10*
X185825318Y-46250000D03*
X175000000Y-27500000D03*
X164174682Y-46250000D03*
X175000000Y-40000000D03*
D11*
X175000000Y-40000000D02*
X179750000Y-40000000D01*
D12*
X175367696Y-27485858D02*
X175353553Y-27500000D01*
X176856286Y-29002733D01*
X177373340Y-28915315D01*
X177603851Y-28425105D01*
X177734298Y-27899343D01*
X177759667Y-27358234D01*
X177756131Y-27334761D01*
X178079314Y-27395698D01*
X179401624Y-27794415D01*
X180674062Y-28331426D01*
X181882211Y-29000647D01*
X183012381Y-29794494D01*
X184051768Y-30703975D01*
X184988595Y-31718782D01*
X185812247Y-32827420D01*
X186513392Y-34017325D01*
X187084086Y-35275017D01*
X187517862Y-36586244D01*
X187809806Y-37936151D01*
X187956609Y-39309442D01*
X187956609Y-40690558D01*
X187809806Y-42063849D01*
X187517862Y-43413756D01*
X187282603Y-44124902D01*
X187240633Y-43876660D01*
X186750423Y-43646149D01*
X186224661Y-43515702D01*
X185683552Y-43490333D01*
X185147892Y-43571016D01*
X184638265Y-43754652D01*
X184410003Y-43876660D01*
X184322585Y-44393714D01*
X185825318Y-45896447D01*
X185839461Y-45882305D01*
X186193014Y-46235858D01*
X186178871Y-46250000D01*
X186290245Y-46361374D01*
X186028072Y-46806307D01*
X185825318Y-46603553D01*
X184322585Y-48106286D01*
X184410003Y-48623340D01*
X184593226Y-48709497D01*
X184051768Y-49296025D01*
X183012381Y-50205506D01*
X181882211Y-50999353D01*
X180674062Y-51668574D01*
X179401624Y-52205585D01*
X178079314Y-52604302D01*
X176722114Y-52860207D01*
X175345401Y-52970401D01*
X173964775Y-52933635D01*
X172595879Y-52750326D01*
X171254222Y-52422550D01*
X169955007Y-51954022D01*
X168712953Y-51350050D01*
X167542134Y-50617478D01*
X166455816Y-49764605D01*
X165466306Y-48801095D01*
X165402170Y-48723735D01*
X165589997Y-48623340D01*
X165677415Y-48106286D01*
X164174682Y-46603553D01*
X163968872Y-46809363D01*
X163821337Y-46586963D01*
X163706043Y-46365086D01*
X163821129Y-46250000D01*
X164528235Y-46250000D01*
X166030968Y-47752733D01*
X166548022Y-47665315D01*
X166778533Y-47175105D01*
X166908980Y-46649343D01*
X166921056Y-46391766D01*
X183065651Y-46391766D01*
X183146334Y-46927426D01*
X183329970Y-47437053D01*
X183451978Y-47665315D01*
X183969032Y-47752733D01*
X185471765Y-46250000D01*
X183969032Y-44747267D01*
X183451978Y-44834685D01*
X183221467Y-45324895D01*
X183091020Y-45850657D01*
X183065651Y-46391766D01*
X166921056Y-46391766D01*
X166934349Y-46108234D01*
X166853666Y-45572574D01*
X166670030Y-45062947D01*
X166548022Y-44834685D01*
X166030968Y-44747267D01*
X164528235Y-46250000D01*
X163821129Y-46250000D01*
X163806987Y-46235858D01*
X164160540Y-45882305D01*
X164174682Y-45896447D01*
X165677415Y-44393714D01*
X165589997Y-43876660D01*
X165099787Y-43646149D01*
X164574025Y-43515702D01*
X164032916Y-43490333D01*
X163497256Y-43571016D01*
X162987629Y-43754652D01*
X162759367Y-43876660D01*
X162712454Y-44154138D01*
X162681567Y-44075145D01*
X162318192Y-42742689D01*
X162098507Y-41379158D01*
X162091624Y-41250000D01*
X166492742Y-41250000D01*
X166521704Y-41544051D01*
X166607475Y-41826803D01*
X166746761Y-42087388D01*
X166934208Y-42315792D01*
X167162612Y-42503239D01*
X167423197Y-42642525D01*
X167705949Y-42728296D01*
X168000000Y-42757258D01*
X169625000Y-42750000D01*
X170000000Y-42375000D01*
X170000000Y-40250000D01*
X166875000Y-40250000D01*
X166500000Y-40625000D01*
X166492742Y-41250000D01*
X162091624Y-41250000D01*
X162025001Y-40000000D01*
X162091623Y-38750000D01*
X166492742Y-38750000D01*
X166500000Y-39375000D01*
X166875000Y-39750000D01*
X170000000Y-39750000D01*
X170000000Y-37625000D01*
X170500000Y-37625000D01*
X170500000Y-39750000D01*
X170520000Y-39750000D01*
X170520000Y-40250000D01*
X170500000Y-40250000D01*
X170500000Y-42375000D01*
X170875000Y-42750000D01*
X172500000Y-42757258D01*
X172794051Y-42728296D01*
X173076803Y-42642525D01*
X173337388Y-42503239D01*
X173565792Y-42315792D01*
X173753239Y-42087388D01*
X173837446Y-41929849D01*
X173841866Y-41932212D01*
X173934225Y-41993924D01*
X174036850Y-42036433D01*
X174134796Y-42088786D01*
X174241074Y-42121025D01*
X174343699Y-42163534D01*
X174452644Y-42185204D01*
X174558923Y-42217444D01*
X174669451Y-42228330D01*
X174778394Y-42250000D01*
X178075879Y-42250000D01*
X178125000Y-42254838D01*
X181375000Y-42254838D01*
X181692966Y-42223521D01*
X181998712Y-42130774D01*
X182280489Y-41980161D01*
X182527470Y-41777470D01*
X182730161Y-41530489D01*
X182880774Y-41248712D01*
X182973521Y-40942966D01*
X183004838Y-40625000D01*
X183004838Y-39375000D01*
X182973521Y-39057034D01*
X182880774Y-38751288D01*
X182730161Y-38469511D01*
X182527470Y-38222530D01*
X182280489Y-38019839D01*
X181998712Y-37869226D01*
X181692966Y-37776479D01*
X181375000Y-37745162D01*
X178125000Y-37745162D01*
X178075879Y-37750000D01*
X174778394Y-37750000D01*
X174669451Y-37771670D01*
X174558923Y-37782556D01*
X174452644Y-37814796D01*
X174343699Y-37836466D01*
X174241074Y-37878975D01*
X174134796Y-37911214D01*
X174036850Y-37963567D01*
X173934225Y-38006076D01*
X173841866Y-38067788D01*
X173837446Y-38070151D01*
X173753239Y-37912612D01*
X173565792Y-37684208D01*
X173337388Y-37496761D01*
X173076803Y-37357475D01*
X172794051Y-37271704D01*
X172500000Y-37242742D01*
X170875000Y-37250000D01*
X170500000Y-37625000D01*
X170000000Y-37625000D01*
X169625000Y-37250000D01*
X168000000Y-37242742D01*
X167705949Y-37271704D01*
X167423197Y-37357475D01*
X167162612Y-37496761D01*
X166934208Y-37684208D01*
X166746761Y-37912612D01*
X166607475Y-38173197D01*
X166521704Y-38455949D01*
X166492742Y-38750000D01*
X162091623Y-38750000D01*
X162098507Y-38620842D01*
X162318192Y-37257311D01*
X162681567Y-35924855D01*
X163184515Y-34638572D01*
X163821337Y-33413037D01*
X164584817Y-32262134D01*
X165466306Y-31198905D01*
X166455816Y-30235395D01*
X167542134Y-29382522D01*
X167584065Y-29356286D01*
X173497267Y-29356286D01*
X173584685Y-29873340D01*
X174074895Y-30103851D01*
X174600657Y-30234298D01*
X175141766Y-30259667D01*
X175677426Y-30178984D01*
X176187053Y-29995348D01*
X176415315Y-29873340D01*
X176502733Y-29356286D01*
X175000000Y-27853553D01*
X173497267Y-29356286D01*
X167584065Y-29356286D01*
X168712953Y-28649950D01*
X169955007Y-28045978D01*
X171254222Y-27577450D01*
X172254809Y-27333000D01*
X172240333Y-27641766D01*
X172321016Y-28177426D01*
X172504652Y-28687053D01*
X172626660Y-28915315D01*
X173143714Y-29002733D01*
X174646447Y-27500000D01*
X174632305Y-27485858D01*
X174985858Y-27132305D01*
X175000000Y-27146447D01*
X175014143Y-27132305D01*
X175367696Y-27485858D01*
G04 #@! TA.AperFunction,Conductor*
D13*
G36*
X175367696Y-27485858D02*
G01*
X175353553Y-27500000D01*
X176856286Y-29002733D01*
X177373340Y-28915315D01*
X177603851Y-28425105D01*
X177734298Y-27899343D01*
X177759667Y-27358234D01*
X177756131Y-27334761D01*
X178079314Y-27395698D01*
X179401624Y-27794415D01*
X180674062Y-28331426D01*
X181882211Y-29000647D01*
X183012381Y-29794494D01*
X184051768Y-30703975D01*
X184988595Y-31718782D01*
X185812247Y-32827420D01*
X186513392Y-34017325D01*
X187084086Y-35275017D01*
X187517862Y-36586244D01*
X187809806Y-37936151D01*
X187956609Y-39309442D01*
X187956609Y-40690558D01*
X187809806Y-42063849D01*
X187517862Y-43413756D01*
X187282603Y-44124902D01*
X187240633Y-43876660D01*
X186750423Y-43646149D01*
X186224661Y-43515702D01*
X185683552Y-43490333D01*
X185147892Y-43571016D01*
X184638265Y-43754652D01*
X184410003Y-43876660D01*
X184322585Y-44393714D01*
X185825318Y-45896447D01*
X185839461Y-45882305D01*
X186193014Y-46235858D01*
X186178871Y-46250000D01*
X186290245Y-46361374D01*
X186028072Y-46806307D01*
X185825318Y-46603553D01*
X184322585Y-48106286D01*
X184410003Y-48623340D01*
X184593226Y-48709497D01*
X184051768Y-49296025D01*
X183012381Y-50205506D01*
X181882211Y-50999353D01*
X180674062Y-51668574D01*
X179401624Y-52205585D01*
X178079314Y-52604302D01*
X176722114Y-52860207D01*
X175345401Y-52970401D01*
X173964775Y-52933635D01*
X172595879Y-52750326D01*
X171254222Y-52422550D01*
X169955007Y-51954022D01*
X168712953Y-51350050D01*
X167542134Y-50617478D01*
X166455816Y-49764605D01*
X165466306Y-48801095D01*
X165402170Y-48723735D01*
X165589997Y-48623340D01*
X165677415Y-48106286D01*
X164174682Y-46603553D01*
X163968872Y-46809363D01*
X163821337Y-46586963D01*
X163706043Y-46365086D01*
X163821129Y-46250000D01*
X164528235Y-46250000D01*
X166030968Y-47752733D01*
X166548022Y-47665315D01*
X166778533Y-47175105D01*
X166908980Y-46649343D01*
X166921056Y-46391766D01*
X183065651Y-46391766D01*
X183146334Y-46927426D01*
X183329970Y-47437053D01*
X183451978Y-47665315D01*
X183969032Y-47752733D01*
X185471765Y-46250000D01*
X183969032Y-44747267D01*
X183451978Y-44834685D01*
X183221467Y-45324895D01*
X183091020Y-45850657D01*
X183065651Y-46391766D01*
X166921056Y-46391766D01*
X166934349Y-46108234D01*
X166853666Y-45572574D01*
X166670030Y-45062947D01*
X166548022Y-44834685D01*
X166030968Y-44747267D01*
X164528235Y-46250000D01*
X163821129Y-46250000D01*
X163806987Y-46235858D01*
X164160540Y-45882305D01*
X164174682Y-45896447D01*
X165677415Y-44393714D01*
X165589997Y-43876660D01*
X165099787Y-43646149D01*
X164574025Y-43515702D01*
X164032916Y-43490333D01*
X163497256Y-43571016D01*
X162987629Y-43754652D01*
X162759367Y-43876660D01*
X162712454Y-44154138D01*
X162681567Y-44075145D01*
X162318192Y-42742689D01*
X162098507Y-41379158D01*
X162091624Y-41250000D01*
X166492742Y-41250000D01*
X166521704Y-41544051D01*
X166607475Y-41826803D01*
X166746761Y-42087388D01*
X166934208Y-42315792D01*
X167162612Y-42503239D01*
X167423197Y-42642525D01*
X167705949Y-42728296D01*
X168000000Y-42757258D01*
X169625000Y-42750000D01*
X170000000Y-42375000D01*
X170000000Y-40250000D01*
X166875000Y-40250000D01*
X166500000Y-40625000D01*
X166492742Y-41250000D01*
X162091624Y-41250000D01*
X162025001Y-40000000D01*
X162091623Y-38750000D01*
X166492742Y-38750000D01*
X166500000Y-39375000D01*
X166875000Y-39750000D01*
X170000000Y-39750000D01*
X170000000Y-37625000D01*
X170500000Y-37625000D01*
X170500000Y-39750000D01*
X170520000Y-39750000D01*
X170520000Y-40250000D01*
X170500000Y-40250000D01*
X170500000Y-42375000D01*
X170875000Y-42750000D01*
X172500000Y-42757258D01*
X172794051Y-42728296D01*
X173076803Y-42642525D01*
X173337388Y-42503239D01*
X173565792Y-42315792D01*
X173753239Y-42087388D01*
X173837446Y-41929849D01*
X173841866Y-41932212D01*
X173934225Y-41993924D01*
X174036850Y-42036433D01*
X174134796Y-42088786D01*
X174241074Y-42121025D01*
X174343699Y-42163534D01*
X174452644Y-42185204D01*
X174558923Y-42217444D01*
X174669451Y-42228330D01*
X174778394Y-42250000D01*
X178075879Y-42250000D01*
X178125000Y-42254838D01*
X181375000Y-42254838D01*
X181692966Y-42223521D01*
X181998712Y-42130774D01*
X182280489Y-41980161D01*
X182527470Y-41777470D01*
X182730161Y-41530489D01*
X182880774Y-41248712D01*
X182973521Y-40942966D01*
X183004838Y-40625000D01*
X183004838Y-39375000D01*
X182973521Y-39057034D01*
X182880774Y-38751288D01*
X182730161Y-38469511D01*
X182527470Y-38222530D01*
X182280489Y-38019839D01*
X181998712Y-37869226D01*
X181692966Y-37776479D01*
X181375000Y-37745162D01*
X178125000Y-37745162D01*
X178075879Y-37750000D01*
X174778394Y-37750000D01*
X174669451Y-37771670D01*
X174558923Y-37782556D01*
X174452644Y-37814796D01*
X174343699Y-37836466D01*
X174241074Y-37878975D01*
X174134796Y-37911214D01*
X174036850Y-37963567D01*
X173934225Y-38006076D01*
X173841866Y-38067788D01*
X173837446Y-38070151D01*
X173753239Y-37912612D01*
X173565792Y-37684208D01*
X173337388Y-37496761D01*
X173076803Y-37357475D01*
X172794051Y-37271704D01*
X172500000Y-37242742D01*
X170875000Y-37250000D01*
X170500000Y-37625000D01*
X170000000Y-37625000D01*
X169625000Y-37250000D01*
X168000000Y-37242742D01*
X167705949Y-37271704D01*
X167423197Y-37357475D01*
X167162612Y-37496761D01*
X166934208Y-37684208D01*
X166746761Y-37912612D01*
X166607475Y-38173197D01*
X166521704Y-38455949D01*
X166492742Y-38750000D01*
X162091623Y-38750000D01*
X162098507Y-38620842D01*
X162318192Y-37257311D01*
X162681567Y-35924855D01*
X163184515Y-34638572D01*
X163821337Y-33413037D01*
X164584817Y-32262134D01*
X165466306Y-31198905D01*
X166455816Y-30235395D01*
X167542134Y-29382522D01*
X167584065Y-29356286D01*
X173497267Y-29356286D01*
X173584685Y-29873340D01*
X174074895Y-30103851D01*
X174600657Y-30234298D01*
X175141766Y-30259667D01*
X175677426Y-30178984D01*
X176187053Y-29995348D01*
X176415315Y-29873340D01*
X176502733Y-29356286D01*
X175000000Y-27853553D01*
X173497267Y-29356286D01*
X167584065Y-29356286D01*
X168712953Y-28649950D01*
X169955007Y-28045978D01*
X171254222Y-27577450D01*
X172254809Y-27333000D01*
X172240333Y-27641766D01*
X172321016Y-28177426D01*
X172504652Y-28687053D01*
X172626660Y-28915315D01*
X173143714Y-29002733D01*
X174646447Y-27500000D01*
X174632305Y-27485858D01*
X174985858Y-27132305D01*
X175000000Y-27146447D01*
X175014143Y-27132305D01*
X175367696Y-27485858D01*
G37*
G04 #@! TD.AperFunction*
M02*
