G04 #@! TF.GenerationSoftware,KiCad,Pcbnew,(5.1.7)-1*
G04 #@! TF.CreationDate,2022-06-07T01:10:59+02:00*
G04 #@! TF.ProjectId,Kondensator-Adapter-21mm,4b6f6e64-656e-4736-9174-6f722d416461,rev?*
G04 #@! TF.SameCoordinates,Original*
G04 #@! TF.FileFunction,Copper,L2,Bot*
G04 #@! TF.FilePolarity,Positive*
%FSLAX46Y46*%
G04 Gerber Fmt 4.6, Leading zero omitted, Abs format (unit mm)*
G04 Created by KiCad (PCBNEW (5.1.7)-1) date 2022-06-07 01:10:59*
%MOMM*%
%LPD*%
G01*
G04 APERTURE LIST*
G04 #@! TA.AperFunction,ComponentPad*
%ADD10C,2.500000*%
G04 #@! TD*
G04 #@! TA.AperFunction,Conductor*
%ADD11C,2.500000*%
G04 #@! TD*
G04 #@! TA.AperFunction,Conductor*
%ADD12C,0.500000*%
G04 #@! TD*
G04 #@! TA.AperFunction,Conductor*
%ADD13C,0.100000*%
G04 #@! TD*
G04 APERTURE END LIST*
G04 #@! TA.AperFunction,ComponentPad*
G36*
G01*
X166264527Y-39555525D02*
X166264527Y-38305525D01*
G75*
G02*
X166889527Y-37680525I625000J0D01*
G01*
X170139527Y-37680525D01*
G75*
G02*
X170764527Y-38305525I0J-625000D01*
G01*
X170764527Y-39555525D01*
G75*
G02*
X170139527Y-40180525I-625000J0D01*
G01*
X166889527Y-40180525D01*
G75*
G02*
X166264527Y-39555525I0J625000D01*
G01*
G37*
G04 #@! TD.AperFunction*
G04 #@! TA.AperFunction,ComponentPad*
G36*
G01*
X175764526Y-39555524D02*
X175764526Y-38305524D01*
G75*
G02*
X176389526Y-37680524I625000J0D01*
G01*
X179639526Y-37680524D01*
G75*
G02*
X180264526Y-38305524I0J-625000D01*
G01*
X180264526Y-39555524D01*
G75*
G02*
X179639526Y-40180524I-625000J0D01*
G01*
X176389526Y-40180524D01*
G75*
G02*
X175764526Y-39555524I0J625000D01*
G01*
G37*
G04 #@! TD.AperFunction*
D10*
X182357793Y-44180524D03*
X173264526Y-28430525D03*
X164171259Y-44180524D03*
X173264526Y-38930524D03*
D11*
X173264526Y-38930524D02*
X178014526Y-38930524D01*
D12*
X173632222Y-28416383D02*
X173618079Y-28430525D01*
X175120812Y-29933258D01*
X175637866Y-29845840D01*
X175868377Y-29355630D01*
X175998824Y-28829868D01*
X176022757Y-28319383D01*
X177018197Y-28617397D01*
X178190097Y-29122906D01*
X179295387Y-29761045D01*
X180319120Y-30523186D01*
X181247452Y-31399022D01*
X182067828Y-32376708D01*
X182769155Y-33443024D01*
X183341948Y-34583549D01*
X183778461Y-35782859D01*
X184072791Y-37024735D01*
X184220958Y-38292385D01*
X184220958Y-39568663D01*
X184072791Y-40836313D01*
X183802079Y-41978538D01*
X183773108Y-41807184D01*
X183282898Y-41576673D01*
X182757136Y-41446226D01*
X182216027Y-41420857D01*
X181680367Y-41501540D01*
X181170740Y-41685176D01*
X180942478Y-41807184D01*
X180855060Y-42324238D01*
X182357793Y-43826971D01*
X182371936Y-43812829D01*
X182725489Y-44166382D01*
X182711346Y-44180524D01*
X182829229Y-44298407D01*
X182769155Y-44418024D01*
X182559899Y-44736183D01*
X182357793Y-44534077D01*
X180855060Y-46036810D01*
X180942478Y-46553864D01*
X181081045Y-46619022D01*
X180319120Y-47337862D01*
X179295387Y-48100003D01*
X178190097Y-48738142D01*
X177018197Y-49243651D01*
X175795535Y-49609691D01*
X174538646Y-49831315D01*
X173264526Y-49905524D01*
X171990406Y-49831315D01*
X170733517Y-49609691D01*
X169510855Y-49243651D01*
X168338955Y-48738142D01*
X167233665Y-48100003D01*
X166209932Y-47337862D01*
X165454033Y-46624708D01*
X165586574Y-46553864D01*
X165673992Y-46036810D01*
X164171259Y-44534077D01*
X163969153Y-44736183D01*
X163759897Y-44418024D01*
X163699823Y-44298407D01*
X163817706Y-44180524D01*
X164524812Y-44180524D01*
X166027545Y-45683257D01*
X166544599Y-45595839D01*
X166775110Y-45105629D01*
X166905557Y-44579867D01*
X166917633Y-44322290D01*
X179598126Y-44322290D01*
X179678809Y-44857950D01*
X179862445Y-45367577D01*
X179984453Y-45595839D01*
X180501507Y-45683257D01*
X182004240Y-44180524D01*
X180501507Y-42677791D01*
X179984453Y-42765209D01*
X179753942Y-43255419D01*
X179623495Y-43781181D01*
X179598126Y-44322290D01*
X166917633Y-44322290D01*
X166930926Y-44038758D01*
X166850243Y-43503098D01*
X166666607Y-42993471D01*
X166544599Y-42765209D01*
X166027545Y-42677791D01*
X164524812Y-44180524D01*
X163817706Y-44180524D01*
X163803564Y-44166382D01*
X164157117Y-43812829D01*
X164171259Y-43826971D01*
X165673992Y-42324238D01*
X165586574Y-41807184D01*
X165096364Y-41576673D01*
X164570602Y-41446226D01*
X164029493Y-41420857D01*
X163493833Y-41501540D01*
X162984206Y-41685176D01*
X162755944Y-41807184D01*
X162726973Y-41978538D01*
X162456261Y-40836313D01*
X162379611Y-40180525D01*
X164757269Y-40180525D01*
X164786231Y-40474576D01*
X164872002Y-40757328D01*
X165011288Y-41017913D01*
X165198735Y-41246317D01*
X165427139Y-41433764D01*
X165687724Y-41573050D01*
X165970476Y-41658821D01*
X166264527Y-41687783D01*
X167889527Y-41680525D01*
X168264527Y-41305525D01*
X168264527Y-39180525D01*
X165139527Y-39180525D01*
X164764527Y-39555525D01*
X164757269Y-40180525D01*
X162379611Y-40180525D01*
X162308094Y-39568663D01*
X162308094Y-38292385D01*
X162379610Y-37680525D01*
X164757269Y-37680525D01*
X164764527Y-38305525D01*
X165139527Y-38680525D01*
X168264527Y-38680525D01*
X168264527Y-36555525D01*
X168764527Y-36555525D01*
X168764527Y-38680525D01*
X168784527Y-38680525D01*
X168784527Y-39180525D01*
X168764527Y-39180525D01*
X168764527Y-41305525D01*
X169139527Y-41680525D01*
X170764527Y-41687783D01*
X171058578Y-41658821D01*
X171341330Y-41573050D01*
X171601915Y-41433764D01*
X171830319Y-41246317D01*
X172017766Y-41017913D01*
X172101973Y-40860374D01*
X172106392Y-40862736D01*
X172198751Y-40924448D01*
X172301376Y-40966957D01*
X172399322Y-41019310D01*
X172505600Y-41051549D01*
X172608225Y-41094058D01*
X172717170Y-41115728D01*
X172823449Y-41147968D01*
X172933977Y-41158854D01*
X173042920Y-41180524D01*
X176340405Y-41180524D01*
X176389526Y-41185362D01*
X179639526Y-41185362D01*
X179957492Y-41154045D01*
X180263238Y-41061298D01*
X180545015Y-40910685D01*
X180791996Y-40707994D01*
X180994687Y-40461013D01*
X181145300Y-40179236D01*
X181238047Y-39873490D01*
X181269364Y-39555524D01*
X181269364Y-38305524D01*
X181238047Y-37987558D01*
X181145300Y-37681812D01*
X180994687Y-37400035D01*
X180791996Y-37153054D01*
X180545015Y-36950363D01*
X180263238Y-36799750D01*
X179957492Y-36707003D01*
X179639526Y-36675686D01*
X176389526Y-36675686D01*
X176340405Y-36680524D01*
X173042920Y-36680524D01*
X172933977Y-36702194D01*
X172823449Y-36713080D01*
X172717170Y-36745320D01*
X172608225Y-36766990D01*
X172505600Y-36809499D01*
X172399322Y-36841738D01*
X172301376Y-36894091D01*
X172198751Y-36936600D01*
X172106392Y-36998312D01*
X172101972Y-37000675D01*
X172017766Y-36843137D01*
X171830319Y-36614733D01*
X171601915Y-36427286D01*
X171341330Y-36288000D01*
X171058578Y-36202229D01*
X170764527Y-36173267D01*
X169139527Y-36180525D01*
X168764527Y-36555525D01*
X168264527Y-36555525D01*
X167889527Y-36180525D01*
X166264527Y-36173267D01*
X165970476Y-36202229D01*
X165687724Y-36288000D01*
X165427139Y-36427286D01*
X165198735Y-36614733D01*
X165011288Y-36843137D01*
X164872002Y-37103722D01*
X164786231Y-37386474D01*
X164757269Y-37680525D01*
X162379610Y-37680525D01*
X162456261Y-37024735D01*
X162750591Y-35782859D01*
X163187104Y-34583549D01*
X163759897Y-33443024D01*
X164461224Y-32376708D01*
X165281600Y-31399022D01*
X166209932Y-30523186D01*
X166527438Y-30286811D01*
X171761793Y-30286811D01*
X171849211Y-30803865D01*
X172339421Y-31034376D01*
X172865183Y-31164823D01*
X173406292Y-31190192D01*
X173941952Y-31109509D01*
X174451579Y-30925873D01*
X174679841Y-30803865D01*
X174767259Y-30286811D01*
X173264526Y-28784078D01*
X171761793Y-30286811D01*
X166527438Y-30286811D01*
X167233665Y-29761045D01*
X168338955Y-29122906D01*
X169510855Y-28617397D01*
X170516865Y-28316218D01*
X170504859Y-28572291D01*
X170585542Y-29107951D01*
X170769178Y-29617578D01*
X170891186Y-29845840D01*
X171408240Y-29933258D01*
X172910973Y-28430525D01*
X172896831Y-28416383D01*
X173250384Y-28062830D01*
X173264526Y-28076972D01*
X173278669Y-28062830D01*
X173632222Y-28416383D01*
G04 #@! TA.AperFunction,Conductor*
D13*
G36*
X173632222Y-28416383D02*
G01*
X173618079Y-28430525D01*
X175120812Y-29933258D01*
X175637866Y-29845840D01*
X175868377Y-29355630D01*
X175998824Y-28829868D01*
X176022757Y-28319383D01*
X177018197Y-28617397D01*
X178190097Y-29122906D01*
X179295387Y-29761045D01*
X180319120Y-30523186D01*
X181247452Y-31399022D01*
X182067828Y-32376708D01*
X182769155Y-33443024D01*
X183341948Y-34583549D01*
X183778461Y-35782859D01*
X184072791Y-37024735D01*
X184220958Y-38292385D01*
X184220958Y-39568663D01*
X184072791Y-40836313D01*
X183802079Y-41978538D01*
X183773108Y-41807184D01*
X183282898Y-41576673D01*
X182757136Y-41446226D01*
X182216027Y-41420857D01*
X181680367Y-41501540D01*
X181170740Y-41685176D01*
X180942478Y-41807184D01*
X180855060Y-42324238D01*
X182357793Y-43826971D01*
X182371936Y-43812829D01*
X182725489Y-44166382D01*
X182711346Y-44180524D01*
X182829229Y-44298407D01*
X182769155Y-44418024D01*
X182559899Y-44736183D01*
X182357793Y-44534077D01*
X180855060Y-46036810D01*
X180942478Y-46553864D01*
X181081045Y-46619022D01*
X180319120Y-47337862D01*
X179295387Y-48100003D01*
X178190097Y-48738142D01*
X177018197Y-49243651D01*
X175795535Y-49609691D01*
X174538646Y-49831315D01*
X173264526Y-49905524D01*
X171990406Y-49831315D01*
X170733517Y-49609691D01*
X169510855Y-49243651D01*
X168338955Y-48738142D01*
X167233665Y-48100003D01*
X166209932Y-47337862D01*
X165454033Y-46624708D01*
X165586574Y-46553864D01*
X165673992Y-46036810D01*
X164171259Y-44534077D01*
X163969153Y-44736183D01*
X163759897Y-44418024D01*
X163699823Y-44298407D01*
X163817706Y-44180524D01*
X164524812Y-44180524D01*
X166027545Y-45683257D01*
X166544599Y-45595839D01*
X166775110Y-45105629D01*
X166905557Y-44579867D01*
X166917633Y-44322290D01*
X179598126Y-44322290D01*
X179678809Y-44857950D01*
X179862445Y-45367577D01*
X179984453Y-45595839D01*
X180501507Y-45683257D01*
X182004240Y-44180524D01*
X180501507Y-42677791D01*
X179984453Y-42765209D01*
X179753942Y-43255419D01*
X179623495Y-43781181D01*
X179598126Y-44322290D01*
X166917633Y-44322290D01*
X166930926Y-44038758D01*
X166850243Y-43503098D01*
X166666607Y-42993471D01*
X166544599Y-42765209D01*
X166027545Y-42677791D01*
X164524812Y-44180524D01*
X163817706Y-44180524D01*
X163803564Y-44166382D01*
X164157117Y-43812829D01*
X164171259Y-43826971D01*
X165673992Y-42324238D01*
X165586574Y-41807184D01*
X165096364Y-41576673D01*
X164570602Y-41446226D01*
X164029493Y-41420857D01*
X163493833Y-41501540D01*
X162984206Y-41685176D01*
X162755944Y-41807184D01*
X162726973Y-41978538D01*
X162456261Y-40836313D01*
X162379611Y-40180525D01*
X164757269Y-40180525D01*
X164786231Y-40474576D01*
X164872002Y-40757328D01*
X165011288Y-41017913D01*
X165198735Y-41246317D01*
X165427139Y-41433764D01*
X165687724Y-41573050D01*
X165970476Y-41658821D01*
X166264527Y-41687783D01*
X167889527Y-41680525D01*
X168264527Y-41305525D01*
X168264527Y-39180525D01*
X165139527Y-39180525D01*
X164764527Y-39555525D01*
X164757269Y-40180525D01*
X162379611Y-40180525D01*
X162308094Y-39568663D01*
X162308094Y-38292385D01*
X162379610Y-37680525D01*
X164757269Y-37680525D01*
X164764527Y-38305525D01*
X165139527Y-38680525D01*
X168264527Y-38680525D01*
X168264527Y-36555525D01*
X168764527Y-36555525D01*
X168764527Y-38680525D01*
X168784527Y-38680525D01*
X168784527Y-39180525D01*
X168764527Y-39180525D01*
X168764527Y-41305525D01*
X169139527Y-41680525D01*
X170764527Y-41687783D01*
X171058578Y-41658821D01*
X171341330Y-41573050D01*
X171601915Y-41433764D01*
X171830319Y-41246317D01*
X172017766Y-41017913D01*
X172101973Y-40860374D01*
X172106392Y-40862736D01*
X172198751Y-40924448D01*
X172301376Y-40966957D01*
X172399322Y-41019310D01*
X172505600Y-41051549D01*
X172608225Y-41094058D01*
X172717170Y-41115728D01*
X172823449Y-41147968D01*
X172933977Y-41158854D01*
X173042920Y-41180524D01*
X176340405Y-41180524D01*
X176389526Y-41185362D01*
X179639526Y-41185362D01*
X179957492Y-41154045D01*
X180263238Y-41061298D01*
X180545015Y-40910685D01*
X180791996Y-40707994D01*
X180994687Y-40461013D01*
X181145300Y-40179236D01*
X181238047Y-39873490D01*
X181269364Y-39555524D01*
X181269364Y-38305524D01*
X181238047Y-37987558D01*
X181145300Y-37681812D01*
X180994687Y-37400035D01*
X180791996Y-37153054D01*
X180545015Y-36950363D01*
X180263238Y-36799750D01*
X179957492Y-36707003D01*
X179639526Y-36675686D01*
X176389526Y-36675686D01*
X176340405Y-36680524D01*
X173042920Y-36680524D01*
X172933977Y-36702194D01*
X172823449Y-36713080D01*
X172717170Y-36745320D01*
X172608225Y-36766990D01*
X172505600Y-36809499D01*
X172399322Y-36841738D01*
X172301376Y-36894091D01*
X172198751Y-36936600D01*
X172106392Y-36998312D01*
X172101972Y-37000675D01*
X172017766Y-36843137D01*
X171830319Y-36614733D01*
X171601915Y-36427286D01*
X171341330Y-36288000D01*
X171058578Y-36202229D01*
X170764527Y-36173267D01*
X169139527Y-36180525D01*
X168764527Y-36555525D01*
X168264527Y-36555525D01*
X167889527Y-36180525D01*
X166264527Y-36173267D01*
X165970476Y-36202229D01*
X165687724Y-36288000D01*
X165427139Y-36427286D01*
X165198735Y-36614733D01*
X165011288Y-36843137D01*
X164872002Y-37103722D01*
X164786231Y-37386474D01*
X164757269Y-37680525D01*
X162379610Y-37680525D01*
X162456261Y-37024735D01*
X162750591Y-35782859D01*
X163187104Y-34583549D01*
X163759897Y-33443024D01*
X164461224Y-32376708D01*
X165281600Y-31399022D01*
X166209932Y-30523186D01*
X166527438Y-30286811D01*
X171761793Y-30286811D01*
X171849211Y-30803865D01*
X172339421Y-31034376D01*
X172865183Y-31164823D01*
X173406292Y-31190192D01*
X173941952Y-31109509D01*
X174451579Y-30925873D01*
X174679841Y-30803865D01*
X174767259Y-30286811D01*
X173264526Y-28784078D01*
X171761793Y-30286811D01*
X166527438Y-30286811D01*
X167233665Y-29761045D01*
X168338955Y-29122906D01*
X169510855Y-28617397D01*
X170516865Y-28316218D01*
X170504859Y-28572291D01*
X170585542Y-29107951D01*
X170769178Y-29617578D01*
X170891186Y-29845840D01*
X171408240Y-29933258D01*
X172910973Y-28430525D01*
X172896831Y-28416383D01*
X173250384Y-28062830D01*
X173264526Y-28076972D01*
X173278669Y-28062830D01*
X173632222Y-28416383D01*
G37*
G04 #@! TD.AperFunction*
M02*
