%TF.GenerationSoftware,KiCad,Pcbnew,(5.1.7)-1*%
%TF.CreationDate,2022-11-29T10:47:03+01:00*%
%TF.ProjectId,M190B,4d313930-422e-46b6-9963-61645f706362,rev?*%
%TF.SameCoordinates,Original*%
%TF.FileFunction,Copper,L2,Bot*%
%TF.FilePolarity,Positive*%
%FSLAX46Y46*%
G04 Gerber Fmt 4.6, Leading zero omitted, Abs format (unit mm)*
G04 Created by KiCad (PCBNEW (5.1.7)-1) date 2022-11-29 10:47:03*
%MOMM*%
%LPD*%
G01*
G04 APERTURE LIST*
%TA.AperFunction,ComponentPad*%
%ADD10C,1.700000*%
%TD*%
%TA.AperFunction,ComponentPad*%
%ADD11O,1.700000X1.700000*%
%TD*%
%TA.AperFunction,ComponentPad*%
%ADD12R,1.700000X1.700000*%
%TD*%
%TA.AperFunction,ViaPad*%
%ADD13C,0.800000*%
%TD*%
%TA.AperFunction,Conductor*%
%ADD14C,0.500000*%
%TD*%
%TA.AperFunction,Conductor*%
%ADD15C,0.200000*%
%TD*%
G04 APERTURE END LIST*
D10*
%TO.P,J4,1*%
%TO.N,GND*%
X107950000Y-115000000D03*
D11*
%TO.P,J4,2*%
%TO.N,UPDI*%
X107950000Y-117540000D03*
%TO.P,J4,3*%
%TO.N,+5V*%
X107950000Y-120080000D03*
%TD*%
D12*
%TO.P,J5,1*%
%TO.N,IC3101_P1*%
X111760000Y-134600000D03*
D11*
%TO.P,J5,2*%
%TO.N,IC3101_P2*%
X111760000Y-132060000D03*
%TO.P,J5,3*%
%TO.N,IC3101_P3*%
X111760000Y-129520000D03*
%TO.P,J5,4*%
%TO.N,IC3101_P4*%
X111760000Y-126980000D03*
%TO.P,J5,5*%
%TO.N,IC3101_P5*%
X111760000Y-124440000D03*
%TO.P,J5,6*%
%TO.N,IC3101_P6*%
X111760000Y-121900000D03*
%TO.P,J5,7*%
%TO.N,IC3101_P7*%
X111760000Y-119360000D03*
%TO.P,J5,8*%
%TO.N,IC3101_P8*%
X111760000Y-116820000D03*
%TO.P,J5,9*%
%TO.N,Net-(J5-Pad9)*%
X111760000Y-114280000D03*
%TD*%
D10*
%TO.P,J3,1*%
%TO.N,GND*%
X104140000Y-134600000D03*
D11*
%TO.P,J3,2*%
%TO.N,+12V*%
X104140000Y-132060000D03*
%TO.P,J3,3*%
%TO.N,IC3101_P16*%
X104140000Y-129520000D03*
%TO.P,J3,4*%
%TO.N,IC3101_P15*%
X104140000Y-126980000D03*
%TO.P,J3,5*%
%TO.N,IC3101_P14*%
X104140000Y-124440000D03*
%TO.P,J3,6*%
%TO.N,IC3101_P13*%
X104140000Y-121900000D03*
%TO.P,J3,7*%
%TO.N,IC3101_P12*%
X104140000Y-119360000D03*
%TO.P,J3,8*%
%TO.N,Net-(J3-Pad8)*%
X104140000Y-116820000D03*
%TO.P,J3,9*%
%TO.N,Net-(J3-Pad9)*%
X104140000Y-114280000D03*
%TD*%
D13*
%TO.N,+5V*%
X109500000Y-126700000D03*
X109800000Y-132150000D03*
%TO.N,UPDI*%
X106300000Y-126550000D03*
%TD*%
D14*
%TO.N,+5V*%
X109500000Y-121630000D02*
X107950000Y-120080000D01*
X109500000Y-126700000D02*
X109500000Y-121630000D01*
X109500000Y-129400000D02*
X109800000Y-129700000D01*
X109500000Y-126700000D02*
X109500000Y-129400000D01*
X109800000Y-132150000D02*
X109800000Y-129700000D01*
%TO.N,GND*%
X104140000Y-134600000D02*
X105440001Y-133299999D01*
X105440001Y-133299999D02*
X105440001Y-115959999D01*
X106400000Y-115000000D02*
X107950000Y-115000000D01*
X105440001Y-115959999D02*
X106400000Y-115000000D01*
D15*
%TO.N,UPDI*%
X106300000Y-126550000D02*
X106300000Y-118400000D01*
X107950000Y-117540000D02*
X106910000Y-117540000D01*
X106300000Y-118150000D02*
X106300000Y-118400000D01*
X106910000Y-117540000D02*
X106300000Y-118150000D01*
%TD*%
M02*
