%TF.GenerationSoftware,KiCad,Pcbnew,(5.1.7)-1*%
%TF.CreationDate,2022-11-29T10:47:03+01:00*%
%TF.ProjectId,M190B,4d313930-422e-46b6-9963-61645f706362,rev?*%
%TF.SameCoordinates,Original*%
%TF.FileFunction,Legend,Bot*%
%TF.FilePolarity,Positive*%
%FSLAX46Y46*%
G04 Gerber Fmt 4.6, Leading zero omitted, Abs format (unit mm)*
G04 Created by KiCad (PCBNEW (5.1.7)-1) date 2022-11-29 10:47:03*
%MOMM*%
%LPD*%
G01*
G04 APERTURE LIST*
%ADD10C,0.125000*%
%ADD11C,0.120000*%
%ADD12C,1.700000*%
%ADD13O,1.700000X1.700000*%
%ADD14R,1.700000X1.700000*%
G04 APERTURE END LIST*
D10*
X108311904Y-122630476D02*
X107511904Y-122630476D01*
X108083333Y-122897142D01*
X107511904Y-123163809D01*
X108311904Y-123163809D01*
X108311904Y-123963809D02*
X108311904Y-123506666D01*
X108311904Y-123735238D02*
X107511904Y-123735238D01*
X107626190Y-123659047D01*
X107702380Y-123582857D01*
X107740476Y-123506666D01*
X108311904Y-124344761D02*
X108311904Y-124497142D01*
X108273809Y-124573333D01*
X108235714Y-124611428D01*
X108121428Y-124687619D01*
X107969047Y-124725714D01*
X107664285Y-124725714D01*
X107588095Y-124687619D01*
X107550000Y-124649523D01*
X107511904Y-124573333D01*
X107511904Y-124420952D01*
X107550000Y-124344761D01*
X107588095Y-124306666D01*
X107664285Y-124268571D01*
X107854761Y-124268571D01*
X107930952Y-124306666D01*
X107969047Y-124344761D01*
X108007142Y-124420952D01*
X108007142Y-124573333D01*
X107969047Y-124649523D01*
X107930952Y-124687619D01*
X107854761Y-124725714D01*
X107511904Y-125220952D02*
X107511904Y-125297142D01*
X107550000Y-125373333D01*
X107588095Y-125411428D01*
X107664285Y-125449523D01*
X107816666Y-125487619D01*
X108007142Y-125487619D01*
X108159523Y-125449523D01*
X108235714Y-125411428D01*
X108273809Y-125373333D01*
X108311904Y-125297142D01*
X108311904Y-125220952D01*
X108273809Y-125144761D01*
X108235714Y-125106666D01*
X108159523Y-125068571D01*
X108007142Y-125030476D01*
X107816666Y-125030476D01*
X107664285Y-125068571D01*
X107588095Y-125106666D01*
X107550000Y-125144761D01*
X107511904Y-125220952D01*
X107892857Y-126097142D02*
X107930952Y-126211428D01*
X107969047Y-126249523D01*
X108045238Y-126287619D01*
X108159523Y-126287619D01*
X108235714Y-126249523D01*
X108273809Y-126211428D01*
X108311904Y-126135238D01*
X108311904Y-125830476D01*
X107511904Y-125830476D01*
X107511904Y-126097142D01*
X107550000Y-126173333D01*
X107588095Y-126211428D01*
X107664285Y-126249523D01*
X107740476Y-126249523D01*
X107816666Y-126211428D01*
X107854761Y-126173333D01*
X107892857Y-126097142D01*
X107892857Y-125830476D01*
D11*
%TO.C,J5*%
X110430000Y-135930000D02*
X111760000Y-135930000D01*
X110430000Y-134600000D02*
X110430000Y-135930000D01*
X110430000Y-133330000D02*
X113090000Y-133330000D01*
X113090000Y-133330000D02*
X113090000Y-112950000D01*
X110430000Y-133330000D02*
X110430000Y-112950000D01*
X110430000Y-112950000D02*
X113090000Y-112950000D01*
%TO.C,J3*%
X102810000Y-135930000D02*
X104140000Y-135930000D01*
X102810000Y-134600000D02*
X102810000Y-135930000D01*
X102810000Y-133330000D02*
X105470000Y-133330000D01*
X105470000Y-133330000D02*
X105470000Y-112950000D01*
X102810000Y-133330000D02*
X102810000Y-112950000D01*
X102810000Y-112950000D02*
X105470000Y-112950000D01*
%TD*%
%LPC*%
D12*
%TO.C,J4*%
X107950000Y-115000000D03*
D13*
X107950000Y-117540000D03*
X107950000Y-120080000D03*
%TD*%
D14*
%TO.C,J5*%
X111760000Y-134600000D03*
D13*
X111760000Y-132060000D03*
X111760000Y-129520000D03*
X111760000Y-126980000D03*
X111760000Y-124440000D03*
X111760000Y-121900000D03*
X111760000Y-119360000D03*
X111760000Y-116820000D03*
X111760000Y-114280000D03*
%TD*%
D12*
%TO.C,J3*%
X104140000Y-134600000D03*
D13*
X104140000Y-132060000D03*
X104140000Y-129520000D03*
X104140000Y-126980000D03*
X104140000Y-124440000D03*
X104140000Y-121900000D03*
X104140000Y-119360000D03*
X104140000Y-116820000D03*
X104140000Y-114280000D03*
%TD*%
M02*
