%TF.GenerationSoftware,KiCad,Pcbnew,(5.1.7)-1*%
%TF.CreationDate,2022-11-29T10:47:03+01:00*%
%TF.ProjectId,M190B,4d313930-422e-46b6-9963-61645f706362,rev?*%
%TF.SameCoordinates,Original*%
%TF.FileFunction,Legend,Top*%
%TF.FilePolarity,Positive*%
%FSLAX46Y46*%
G04 Gerber Fmt 4.6, Leading zero omitted, Abs format (unit mm)*
G04 Created by KiCad (PCBNEW (5.1.7)-1) date 2022-11-29 10:47:03*
%MOMM*%
%LPD*%
G01*
G04 APERTURE LIST*
%ADD10C,0.100000*%
%ADD11C,0.120000*%
%ADD12C,0.150000*%
%ADD13C,1.700000*%
%ADD14O,1.700000X1.700000*%
%ADD15R,1.700000X1.700000*%
%ADD16R,1.000000X1.500000*%
%ADD17R,1.000000X1.800000*%
%ADD18R,2.200000X1.840000*%
%ADD19O,0.200000X0.750000*%
%ADD20O,0.750000X0.200000*%
%ADD21R,0.925000X0.925000*%
%ADD22R,0.500000X0.600000*%
G04 APERTURE END LIST*
D10*
X105451904Y-120232380D02*
X105451904Y-120613333D01*
X105832857Y-120651428D01*
X105794761Y-120613333D01*
X105756666Y-120537142D01*
X105756666Y-120346666D01*
X105794761Y-120270476D01*
X105832857Y-120232380D01*
X105909047Y-120194285D01*
X106099523Y-120194285D01*
X106175714Y-120232380D01*
X106213809Y-120270476D01*
X106251904Y-120346666D01*
X106251904Y-120537142D01*
X106213809Y-120613333D01*
X106175714Y-120651428D01*
X105451904Y-119965714D02*
X106251904Y-119699047D01*
X105451904Y-119432380D01*
X105490000Y-115609523D02*
X105451904Y-115685714D01*
X105451904Y-115800000D01*
X105490000Y-115914285D01*
X105566190Y-115990476D01*
X105642380Y-116028571D01*
X105794761Y-116066666D01*
X105909047Y-116066666D01*
X106061428Y-116028571D01*
X106137619Y-115990476D01*
X106213809Y-115914285D01*
X106251904Y-115800000D01*
X106251904Y-115723809D01*
X106213809Y-115609523D01*
X106175714Y-115571428D01*
X105909047Y-115571428D01*
X105909047Y-115723809D01*
X106251904Y-115228571D02*
X105451904Y-115228571D01*
X106251904Y-114771428D01*
X105451904Y-114771428D01*
X106251904Y-114390476D02*
X105451904Y-114390476D01*
X105451904Y-114200000D01*
X105490000Y-114085714D01*
X105566190Y-114009523D01*
X105642380Y-113971428D01*
X105794761Y-113933333D01*
X105909047Y-113933333D01*
X106061428Y-113971428D01*
X106137619Y-114009523D01*
X106213809Y-114085714D01*
X106251904Y-114200000D01*
X106251904Y-114390476D01*
X109571904Y-118759047D02*
X110219523Y-118759047D01*
X110295714Y-118720952D01*
X110333809Y-118682857D01*
X110371904Y-118606666D01*
X110371904Y-118454285D01*
X110333809Y-118378095D01*
X110295714Y-118340000D01*
X110219523Y-118301904D01*
X109571904Y-118301904D01*
X110371904Y-117920952D02*
X109571904Y-117920952D01*
X109571904Y-117616190D01*
X109610000Y-117540000D01*
X109648095Y-117501904D01*
X109724285Y-117463809D01*
X109838571Y-117463809D01*
X109914761Y-117501904D01*
X109952857Y-117540000D01*
X109990952Y-117616190D01*
X109990952Y-117920952D01*
X110371904Y-117120952D02*
X109571904Y-117120952D01*
X109571904Y-116930476D01*
X109610000Y-116816190D01*
X109686190Y-116740000D01*
X109762380Y-116701904D01*
X109914761Y-116663809D01*
X110029047Y-116663809D01*
X110181428Y-116701904D01*
X110257619Y-116740000D01*
X110333809Y-116816190D01*
X110371904Y-116930476D01*
X110371904Y-117120952D01*
X110371904Y-116320952D02*
X109571904Y-116320952D01*
D11*
%TO.C,J4*%
X106620000Y-113670000D02*
X107950000Y-113670000D01*
X106620000Y-115000000D02*
X106620000Y-113670000D01*
X106620000Y-116270000D02*
X109280000Y-116270000D01*
X109280000Y-116270000D02*
X109280000Y-121410000D01*
X106620000Y-116270000D02*
X106620000Y-121410000D01*
X106620000Y-121410000D02*
X109280000Y-121410000D01*
%TO.C,U101*%
X106750000Y-133780000D02*
X105550000Y-133780000D01*
X105550000Y-133780000D02*
X105550000Y-131080000D01*
X110350000Y-129780000D02*
X110350000Y-133780000D01*
X110350000Y-133780000D02*
X109150000Y-133780000D01*
D12*
%TO.C,U1*%
X106325000Y-122825000D02*
X106325000Y-123325000D01*
X109575000Y-122825000D02*
X109575000Y-123325000D01*
X109575000Y-126075000D02*
X109575000Y-125575000D01*
X106325000Y-126075000D02*
X106325000Y-125575000D01*
X109575000Y-122825000D02*
X109075000Y-122825000D01*
X109575000Y-126075000D02*
X109075000Y-126075000D01*
X106325000Y-122825000D02*
X106825000Y-122825000D01*
D11*
%TO.C,C103*%
X107480000Y-128050000D02*
X107480000Y-128550000D01*
X108420000Y-128550000D02*
X108420000Y-128050000D01*
%TO.C,C102*%
X108980000Y-128050000D02*
X108980000Y-128550000D01*
X109920000Y-128550000D02*
X109920000Y-128050000D01*
%TO.C,C101*%
X105980000Y-128050000D02*
X105980000Y-128550000D01*
X106920000Y-128550000D02*
X106920000Y-128050000D01*
%TD*%
%LPC*%
D13*
%TO.C,J4*%
X107950000Y-115000000D03*
D14*
X107950000Y-117540000D03*
X107950000Y-120080000D03*
%TD*%
D15*
%TO.C,J5*%
X111760000Y-134600000D03*
D14*
X111760000Y-132060000D03*
X111760000Y-129520000D03*
X111760000Y-126980000D03*
X111760000Y-124440000D03*
X111760000Y-121900000D03*
X111760000Y-119360000D03*
X111760000Y-116820000D03*
X111760000Y-114280000D03*
%TD*%
D13*
%TO.C,J3*%
X104140000Y-134600000D03*
D14*
X104140000Y-132060000D03*
X104140000Y-129520000D03*
X104140000Y-126980000D03*
X104140000Y-124440000D03*
X104140000Y-121900000D03*
X104140000Y-119360000D03*
X104140000Y-116820000D03*
X104140000Y-114280000D03*
%TD*%
D10*
%TO.C,U101*%
G36*
X109050000Y-134242000D02*
G01*
X108450000Y-135092000D01*
X107450000Y-135092000D01*
X106850000Y-134242000D01*
X109050000Y-134242000D01*
G37*
D16*
X109450000Y-130520000D03*
D17*
X107950000Y-130666500D03*
D16*
X106450000Y-130520000D03*
D18*
X107950000Y-133333500D03*
D10*
G36*
X106850000Y-132423800D02*
G01*
X107550000Y-131423800D01*
X108350000Y-131423800D01*
X109050000Y-132423800D01*
X106850000Y-132423800D01*
G37*
%TD*%
D19*
%TO.C,U1*%
X107150000Y-125950000D03*
X107550000Y-125950000D03*
X107950000Y-125950000D03*
X108350000Y-125950000D03*
X108750000Y-125950000D03*
D20*
X109450000Y-125250000D03*
X109450000Y-124850000D03*
X109450000Y-124450000D03*
X109450000Y-124050000D03*
X109450000Y-123650000D03*
D19*
X108750000Y-122950000D03*
X108350000Y-122950000D03*
X107950000Y-122950000D03*
X107550000Y-122950000D03*
X107150000Y-122950000D03*
D20*
X106450000Y-123650000D03*
X106450000Y-124050000D03*
X106450000Y-124450000D03*
X106450000Y-124850000D03*
X106450000Y-125250000D03*
D21*
X108412500Y-123987500D03*
X107487500Y-123987500D03*
X108412500Y-124912500D03*
X107487500Y-124912500D03*
%TD*%
D22*
%TO.C,C103*%
X107950000Y-128850000D03*
X107950000Y-127750000D03*
%TD*%
%TO.C,C102*%
X109450000Y-128850000D03*
X109450000Y-127750000D03*
%TD*%
%TO.C,C101*%
X106450000Y-128850000D03*
X106450000Y-127750000D03*
%TD*%
M02*
