%TF.GenerationSoftware,KiCad,Pcbnew,(5.1.7)-1*%
%TF.CreationDate,2022-11-29T10:47:03+01:00*%
%TF.ProjectId,M190B,4d313930-422e-46b6-9963-61645f706362,rev?*%
%TF.SameCoordinates,Original*%
%TF.FileFunction,Paste,Top*%
%TF.FilePolarity,Positive*%
%FSLAX46Y46*%
G04 Gerber Fmt 4.6, Leading zero omitted, Abs format (unit mm)*
G04 Created by KiCad (PCBNEW (5.1.7)-1) date 2022-11-29 10:47:03*
%MOMM*%
%LPD*%
G01*
G04 APERTURE LIST*
%ADD10C,0.100000*%
%ADD11R,1.000000X1.500000*%
%ADD12R,1.000000X1.800000*%
%ADD13R,2.200000X1.840000*%
%ADD14O,0.200000X0.750000*%
%ADD15O,0.750000X0.200000*%
%ADD16R,0.555000X0.555000*%
%ADD17R,0.500000X0.600000*%
G04 APERTURE END LIST*
D10*
%TO.C,U101*%
G36*
X109050000Y-134242000D02*
G01*
X108450000Y-135092000D01*
X107450000Y-135092000D01*
X106850000Y-134242000D01*
X109050000Y-134242000D01*
G37*
D11*
X109450000Y-130520000D03*
D12*
X107950000Y-130666500D03*
D11*
X106450000Y-130520000D03*
D13*
X107950000Y-133333500D03*
D10*
G36*
X106850000Y-132423800D02*
G01*
X107550000Y-131423800D01*
X108350000Y-131423800D01*
X109050000Y-132423800D01*
X106850000Y-132423800D01*
G37*
%TD*%
D14*
%TO.C,U1*%
X107150000Y-125950000D03*
X107550000Y-125950000D03*
X107950000Y-125950000D03*
X108350000Y-125950000D03*
X108750000Y-125950000D03*
D15*
X109450000Y-125250000D03*
X109450000Y-124850000D03*
X109450000Y-124450000D03*
X109450000Y-124050000D03*
X109450000Y-123650000D03*
D14*
X108750000Y-122950000D03*
X108350000Y-122950000D03*
X107950000Y-122950000D03*
X107550000Y-122950000D03*
X107150000Y-122950000D03*
D15*
X106450000Y-123650000D03*
X106450000Y-124050000D03*
X106450000Y-124450000D03*
X106450000Y-124850000D03*
X106450000Y-125250000D03*
D16*
X108412500Y-123987500D03*
X107487500Y-123987500D03*
X108412500Y-124912500D03*
X107487500Y-124912500D03*
%TD*%
D17*
%TO.C,C103*%
X107950000Y-128850000D03*
X107950000Y-127750000D03*
%TD*%
%TO.C,C102*%
X109450000Y-128850000D03*
X109450000Y-127750000D03*
%TD*%
%TO.C,C101*%
X106450000Y-128850000D03*
X106450000Y-127750000D03*
%TD*%
M02*
