M48
; DRILL file {KiCad (5.1.7)-1} date 11/29/22 10:47:05
; FORMAT={-:-/ absolute / metric / decimal}
; #@! TF.CreationDate,2022-11-29T10:47:05+01:00
; #@! TF.GenerationSoftware,Kicad,Pcbnew,(5.1.7)-1
; #@! TF.FileFunction,Plated,1,2,PTH
FMAT,2
METRIC
T1C0.400
T2C1.000
%
G90
G05
T1
X106.3Y-126.55
X109.5Y-126.7
X109.8Y-132.15
T2
X107.95Y-115.0
X107.95Y-117.54
X107.95Y-120.08
X104.14Y-114.28
X104.14Y-116.82
X104.14Y-119.36
X104.14Y-121.9
X104.14Y-124.44
X104.14Y-126.98
X104.14Y-129.52
X104.14Y-132.06
X104.14Y-134.6
X111.76Y-114.28
X111.76Y-116.82
X111.76Y-119.36
X111.76Y-121.9
X111.76Y-124.44
X111.76Y-126.98
X111.76Y-129.52
X111.76Y-132.06
X111.76Y-134.6
T0
M30
