G04 #@! TF.GenerationSoftware,KiCad,Pcbnew,(5.1.7)-1*
G04 #@! TF.CreationDate,2022-12-10T21:58:36+01:00*
G04 #@! TF.ProjectId,Skalen-Beleuchtung,536b616c-656e-42d4-9265-6c6575636874,rev?*
G04 #@! TF.SameCoordinates,Original*
G04 #@! TF.FileFunction,Legend,Top*
G04 #@! TF.FilePolarity,Positive*
%FSLAX46Y46*%
G04 Gerber Fmt 4.6, Leading zero omitted, Abs format (unit mm)*
G04 Created by KiCad (PCBNEW (5.1.7)-1) date 2022-12-10 21:58:36*
%MOMM*%
%LPD*%
G01*
G04 APERTURE LIST*
%ADD10C,0.150000*%
%ADD11C,0.120000*%
%ADD12O,1.600000X1.600000*%
%ADD13C,1.600000*%
%ADD14R,1.700000X0.900000*%
%ADD15R,2.300000X2.000000*%
%ADD16R,2.300000X1.200000*%
%ADD17R,1.600000X1.600000*%
%ADD18C,2.000000*%
G04 APERTURE END LIST*
D10*
X93880952Y-28952380D02*
X93880952Y-29666666D01*
X93833333Y-29809523D01*
X93738095Y-29904761D01*
X93595238Y-29952380D01*
X93500000Y-29952380D01*
X94833333Y-29952380D02*
X94357142Y-29952380D01*
X94357142Y-28952380D01*
X95738095Y-29857142D02*
X95690476Y-29904761D01*
X95547619Y-29952380D01*
X95452380Y-29952380D01*
X95309523Y-29904761D01*
X95214285Y-29809523D01*
X95166666Y-29714285D01*
X95119047Y-29523809D01*
X95119047Y-29380952D01*
X95166666Y-29190476D01*
X95214285Y-29095238D01*
X95309523Y-29000000D01*
X95452380Y-28952380D01*
X95547619Y-28952380D01*
X95690476Y-29000000D01*
X95738095Y-29047619D01*
X96452380Y-28952380D02*
X96452380Y-29666666D01*
X96404761Y-29809523D01*
X96309523Y-29904761D01*
X96166666Y-29952380D01*
X96071428Y-29952380D01*
X97404761Y-29952380D02*
X96928571Y-29952380D01*
X96928571Y-28952380D01*
X98309523Y-29857142D02*
X98261904Y-29904761D01*
X98119047Y-29952380D01*
X98023809Y-29952380D01*
X97880952Y-29904761D01*
X97785714Y-29809523D01*
X97738095Y-29714285D01*
X97690476Y-29523809D01*
X97690476Y-29380952D01*
X97738095Y-29190476D01*
X97785714Y-29095238D01*
X97880952Y-29000000D01*
X98023809Y-28952380D01*
X98119047Y-28952380D01*
X98261904Y-29000000D01*
X98309523Y-29047619D01*
X99023809Y-28952380D02*
X99023809Y-29666666D01*
X98976190Y-29809523D01*
X98880952Y-29904761D01*
X98738095Y-29952380D01*
X98642857Y-29952380D01*
X99976190Y-29952380D02*
X99500000Y-29952380D01*
X99500000Y-28952380D01*
X100880952Y-29857142D02*
X100833333Y-29904761D01*
X100690476Y-29952380D01*
X100595238Y-29952380D01*
X100452380Y-29904761D01*
X100357142Y-29809523D01*
X100309523Y-29714285D01*
X100261904Y-29523809D01*
X100261904Y-29380952D01*
X100309523Y-29190476D01*
X100357142Y-29095238D01*
X100452380Y-29000000D01*
X100595238Y-28952380D01*
X100690476Y-28952380D01*
X100833333Y-29000000D01*
X100880952Y-29047619D01*
X101595238Y-28952380D02*
X101595238Y-29666666D01*
X101547619Y-29809523D01*
X101452380Y-29904761D01*
X101309523Y-29952380D01*
X101214285Y-29952380D01*
X102547619Y-29952380D02*
X102071428Y-29952380D01*
X102071428Y-28952380D01*
X103452380Y-29857142D02*
X103404761Y-29904761D01*
X103261904Y-29952380D01*
X103166666Y-29952380D01*
X103023809Y-29904761D01*
X102928571Y-29809523D01*
X102880952Y-29714285D01*
X102833333Y-29523809D01*
X102833333Y-29380952D01*
X102880952Y-29190476D01*
X102928571Y-29095238D01*
X103023809Y-29000000D01*
X103166666Y-28952380D01*
X103261904Y-28952380D01*
X103404761Y-29000000D01*
X103452380Y-29047619D01*
D11*
X104750000Y-36500000D02*
X104750000Y-22500000D01*
X92250000Y-36500000D02*
X104750000Y-36500000D01*
X92250000Y-22500000D02*
X92250000Y-36500000D01*
X90000000Y-33673629D02*
X90000000Y-32290000D01*
X91326371Y-35000000D02*
G75*
G03*
X91326371Y-35000000I-1326371J0D01*
G01*
X107000000Y-33673629D02*
X107000000Y-32290000D01*
X108326371Y-35000000D02*
G75*
G03*
X108326371Y-35000000I-1326371J0D01*
G01*
X90000000Y-27033629D02*
X90000000Y-25650000D01*
X91326371Y-28360000D02*
G75*
G03*
X91326371Y-28360000I-1326371J0D01*
G01*
X107000000Y-27033629D02*
X107000000Y-25650000D01*
X108326371Y-28360000D02*
G75*
G03*
X108326371Y-28360000I-1326371J0D01*
G01*
X80500000Y-29340000D02*
X80500000Y-30230000D01*
X80500000Y-37540000D02*
X80500000Y-36650000D01*
X79190000Y-30230000D02*
X79190000Y-36650000D01*
X81810000Y-30230000D02*
X79190000Y-30230000D01*
X81810000Y-36650000D02*
X81810000Y-30230000D01*
X79190000Y-36650000D02*
X81810000Y-36650000D01*
X257070000Y-36000000D02*
X257070000Y-38000000D01*
X254930000Y-38000000D02*
X254930000Y-36000000D01*
X234570000Y-36000000D02*
X234570000Y-38000000D01*
X232430000Y-38000000D02*
X232430000Y-36000000D01*
X212070000Y-36000000D02*
X212070000Y-38000000D01*
X209930000Y-38000000D02*
X209930000Y-36000000D01*
X189570000Y-36000000D02*
X189570000Y-38000000D01*
X187430000Y-38000000D02*
X187430000Y-36000000D01*
X167070000Y-36000000D02*
X167070000Y-38000000D01*
X164930000Y-38000000D02*
X164930000Y-36000000D01*
X144570000Y-36000000D02*
X144570000Y-38000000D01*
X142430000Y-38000000D02*
X142430000Y-36000000D01*
X122070000Y-36000000D02*
X122070000Y-38000000D01*
X119930000Y-38000000D02*
X119930000Y-36000000D01*
X77070000Y-36000000D02*
X77070000Y-38000000D01*
X74930000Y-38000000D02*
X74930000Y-36000000D01*
X27070000Y-36000000D02*
X27070000Y-38000000D01*
X24930000Y-38000000D02*
X24930000Y-36000000D01*
X52070000Y-36000000D02*
X52070000Y-38000000D01*
X49930000Y-38000000D02*
X49930000Y-36000000D01*
D10*
X254600000Y-27450000D02*
X254600000Y-23550000D01*
X257400000Y-27450000D02*
X257400000Y-23550000D01*
X232100000Y-27450000D02*
X232100000Y-23550000D01*
X234900000Y-27450000D02*
X234900000Y-23550000D01*
X209600000Y-27450000D02*
X209600000Y-23550000D01*
X212400000Y-27450000D02*
X212400000Y-23550000D01*
X187100000Y-27450000D02*
X187100000Y-23550000D01*
X189900000Y-27450000D02*
X189900000Y-23550000D01*
X164600000Y-27450000D02*
X164600000Y-23550000D01*
X167400000Y-27450000D02*
X167400000Y-23550000D01*
X142100000Y-27450000D02*
X142100000Y-23550000D01*
X144900000Y-27450000D02*
X144900000Y-23550000D01*
X119600000Y-27450000D02*
X119600000Y-23550000D01*
X122400000Y-27450000D02*
X122400000Y-23550000D01*
X74600000Y-27450000D02*
X74600000Y-23550000D01*
X77400000Y-27450000D02*
X77400000Y-23550000D01*
X24600000Y-27450000D02*
X24600000Y-23550000D01*
X27400000Y-27450000D02*
X27400000Y-23550000D01*
X49600000Y-27450000D02*
X49600000Y-23550000D01*
X52400000Y-27450000D02*
X52400000Y-23550000D01*
D11*
X85250000Y-29340000D02*
X85250000Y-30230000D01*
X85250000Y-37540000D02*
X85250000Y-36650000D01*
X83940000Y-30230000D02*
X83940000Y-36650000D01*
X86560000Y-30230000D02*
X83940000Y-30230000D01*
X86560000Y-36650000D02*
X86560000Y-30230000D01*
X83940000Y-36650000D02*
X86560000Y-36650000D01*
X113100000Y-32575000D02*
X114400000Y-32575000D01*
X113750000Y-33175000D02*
X113750000Y-31975000D01*
X113282000Y-26524000D02*
X114218000Y-26524000D01*
X113074000Y-26564000D02*
X114426000Y-26564000D01*
X112916000Y-26604000D02*
X114584000Y-26604000D01*
X112784000Y-26644000D02*
X114716000Y-26644000D01*
X112669000Y-26684000D02*
X114831000Y-26684000D01*
X112566000Y-26724000D02*
X114934000Y-26724000D01*
X112472000Y-26764000D02*
X115028000Y-26764000D01*
X112386000Y-26804000D02*
X115114000Y-26804000D01*
X112305000Y-26844000D02*
X115195000Y-26844000D01*
X112230000Y-26884000D02*
X115270000Y-26884000D01*
X112159000Y-26924000D02*
X115341000Y-26924000D01*
X112092000Y-26964000D02*
X115408000Y-26964000D01*
X112029000Y-27004000D02*
X115471000Y-27004000D01*
X111969000Y-27044000D02*
X115531000Y-27044000D01*
X111911000Y-27084000D02*
X115589000Y-27084000D01*
X111856000Y-27124000D02*
X115644000Y-27124000D01*
X111804000Y-27164000D02*
X115696000Y-27164000D01*
X111753000Y-27204000D02*
X115747000Y-27204000D01*
X111705000Y-27244000D02*
X115795000Y-27244000D01*
X111658000Y-27284000D02*
X115842000Y-27284000D01*
X111613000Y-27324000D02*
X115887000Y-27324000D01*
X111570000Y-27364000D02*
X115930000Y-27364000D01*
X111528000Y-27404000D02*
X115972000Y-27404000D01*
X111488000Y-27444000D02*
X116012000Y-27444000D01*
X111449000Y-27484000D02*
X116051000Y-27484000D01*
X114730000Y-27524000D02*
X116089000Y-27524000D01*
X111411000Y-27524000D02*
X112770000Y-27524000D01*
X114730000Y-27564000D02*
X116125000Y-27564000D01*
X111375000Y-27564000D02*
X112770000Y-27564000D01*
X114730000Y-27604000D02*
X116161000Y-27604000D01*
X111339000Y-27604000D02*
X112770000Y-27604000D01*
X114730000Y-27644000D02*
X116195000Y-27644000D01*
X111305000Y-27644000D02*
X112770000Y-27644000D01*
X114730000Y-27684000D02*
X116228000Y-27684000D01*
X111272000Y-27684000D02*
X112770000Y-27684000D01*
X114730000Y-27724000D02*
X116260000Y-27724000D01*
X111240000Y-27724000D02*
X112770000Y-27724000D01*
X114730000Y-27764000D02*
X116290000Y-27764000D01*
X111210000Y-27764000D02*
X112770000Y-27764000D01*
X114730000Y-27804000D02*
X116320000Y-27804000D01*
X111180000Y-27804000D02*
X112770000Y-27804000D01*
X114730000Y-27844000D02*
X116349000Y-27844000D01*
X111151000Y-27844000D02*
X112770000Y-27844000D01*
X114730000Y-27884000D02*
X116377000Y-27884000D01*
X111123000Y-27884000D02*
X112770000Y-27884000D01*
X114730000Y-27924000D02*
X116404000Y-27924000D01*
X111096000Y-27924000D02*
X112770000Y-27924000D01*
X114730000Y-27964000D02*
X116431000Y-27964000D01*
X111069000Y-27964000D02*
X112770000Y-27964000D01*
X114730000Y-28004000D02*
X116456000Y-28004000D01*
X111044000Y-28004000D02*
X112770000Y-28004000D01*
X114730000Y-28044000D02*
X116481000Y-28044000D01*
X111019000Y-28044000D02*
X112770000Y-28044000D01*
X114730000Y-28084000D02*
X116505000Y-28084000D01*
X110995000Y-28084000D02*
X112770000Y-28084000D01*
X114730000Y-28124000D02*
X116528000Y-28124000D01*
X110972000Y-28124000D02*
X112770000Y-28124000D01*
X114730000Y-28164000D02*
X116550000Y-28164000D01*
X110950000Y-28164000D02*
X112770000Y-28164000D01*
X114730000Y-28204000D02*
X116572000Y-28204000D01*
X110928000Y-28204000D02*
X112770000Y-28204000D01*
X114730000Y-28244000D02*
X116593000Y-28244000D01*
X110907000Y-28244000D02*
X112770000Y-28244000D01*
X114730000Y-28284000D02*
X116613000Y-28284000D01*
X110887000Y-28284000D02*
X112770000Y-28284000D01*
X114730000Y-28324000D02*
X116632000Y-28324000D01*
X110868000Y-28324000D02*
X112770000Y-28324000D01*
X114730000Y-28364000D02*
X116651000Y-28364000D01*
X110849000Y-28364000D02*
X112770000Y-28364000D01*
X114730000Y-28404000D02*
X116669000Y-28404000D01*
X110831000Y-28404000D02*
X112770000Y-28404000D01*
X114730000Y-28444000D02*
X116687000Y-28444000D01*
X110813000Y-28444000D02*
X112770000Y-28444000D01*
X114730000Y-28484000D02*
X116704000Y-28484000D01*
X110796000Y-28484000D02*
X112770000Y-28484000D01*
X114730000Y-28524000D02*
X116720000Y-28524000D01*
X110780000Y-28524000D02*
X112770000Y-28524000D01*
X114730000Y-28564000D02*
X116736000Y-28564000D01*
X110764000Y-28564000D02*
X112770000Y-28564000D01*
X114730000Y-28604000D02*
X116751000Y-28604000D01*
X110749000Y-28604000D02*
X112770000Y-28604000D01*
X114730000Y-28644000D02*
X116765000Y-28644000D01*
X110735000Y-28644000D02*
X112770000Y-28644000D01*
X114730000Y-28684000D02*
X116779000Y-28684000D01*
X110721000Y-28684000D02*
X112770000Y-28684000D01*
X114730000Y-28724000D02*
X116792000Y-28724000D01*
X110708000Y-28724000D02*
X112770000Y-28724000D01*
X114730000Y-28764000D02*
X116805000Y-28764000D01*
X110695000Y-28764000D02*
X112770000Y-28764000D01*
X114730000Y-28804000D02*
X116817000Y-28804000D01*
X110683000Y-28804000D02*
X112770000Y-28804000D01*
X114730000Y-28844000D02*
X116829000Y-28844000D01*
X110671000Y-28844000D02*
X112770000Y-28844000D01*
X114730000Y-28884000D02*
X116840000Y-28884000D01*
X110660000Y-28884000D02*
X112770000Y-28884000D01*
X114730000Y-28924000D02*
X116850000Y-28924000D01*
X110650000Y-28924000D02*
X112770000Y-28924000D01*
X114730000Y-28964000D02*
X116860000Y-28964000D01*
X110640000Y-28964000D02*
X112770000Y-28964000D01*
X114730000Y-29004000D02*
X116869000Y-29004000D01*
X110631000Y-29004000D02*
X112770000Y-29004000D01*
X114730000Y-29045000D02*
X116878000Y-29045000D01*
X110622000Y-29045000D02*
X112770000Y-29045000D01*
X114730000Y-29085000D02*
X116887000Y-29085000D01*
X110613000Y-29085000D02*
X112770000Y-29085000D01*
X114730000Y-29125000D02*
X116894000Y-29125000D01*
X110606000Y-29125000D02*
X112770000Y-29125000D01*
X114730000Y-29165000D02*
X116902000Y-29165000D01*
X110598000Y-29165000D02*
X112770000Y-29165000D01*
X114730000Y-29205000D02*
X116908000Y-29205000D01*
X110592000Y-29205000D02*
X112770000Y-29205000D01*
X114730000Y-29245000D02*
X116915000Y-29245000D01*
X110585000Y-29245000D02*
X112770000Y-29245000D01*
X114730000Y-29285000D02*
X116920000Y-29285000D01*
X110580000Y-29285000D02*
X112770000Y-29285000D01*
X114730000Y-29325000D02*
X116926000Y-29325000D01*
X110574000Y-29325000D02*
X112770000Y-29325000D01*
X114730000Y-29365000D02*
X116930000Y-29365000D01*
X110570000Y-29365000D02*
X112770000Y-29365000D01*
X114730000Y-29405000D02*
X116935000Y-29405000D01*
X110565000Y-29405000D02*
X112770000Y-29405000D01*
X114730000Y-29445000D02*
X116938000Y-29445000D01*
X110562000Y-29445000D02*
X112770000Y-29445000D01*
X110558000Y-29485000D02*
X116942000Y-29485000D01*
X110556000Y-29525000D02*
X116944000Y-29525000D01*
X110553000Y-29565000D02*
X116947000Y-29565000D01*
X110552000Y-29605000D02*
X116948000Y-29605000D01*
X110550000Y-29645000D02*
X116950000Y-29645000D01*
X110550000Y-29685000D02*
X116950000Y-29685000D01*
X110550000Y-29725000D02*
X116950000Y-29725000D01*
X112570864Y-26707180D02*
G75*
G03*
X112570000Y-32742482I1179136J-3017820D01*
G01*
X114929136Y-26707180D02*
G75*
G02*
X114930000Y-32742482I-1179136J-3017820D01*
G01*
X114929136Y-26707180D02*
G75*
G03*
X112570000Y-26707518I-1179136J-3017820D01*
G01*
D10*
X88452380Y-33833095D02*
X87452380Y-33833095D01*
X87452380Y-33595000D01*
X87500000Y-33452142D01*
X87595238Y-33356904D01*
X87690476Y-33309285D01*
X87880952Y-33261666D01*
X88023809Y-33261666D01*
X88214285Y-33309285D01*
X88309523Y-33356904D01*
X88404761Y-33452142D01*
X88452380Y-33595000D01*
X88452380Y-33833095D01*
X87785714Y-32404523D02*
X88452380Y-32404523D01*
X87404761Y-32642619D02*
X88119047Y-32880714D01*
X88119047Y-32261666D01*
X109452380Y-33833095D02*
X108452380Y-33833095D01*
X108452380Y-33595000D01*
X108500000Y-33452142D01*
X108595238Y-33356904D01*
X108690476Y-33309285D01*
X108880952Y-33261666D01*
X109023809Y-33261666D01*
X109214285Y-33309285D01*
X109309523Y-33356904D01*
X109404761Y-33452142D01*
X109452380Y-33595000D01*
X109452380Y-33833095D01*
X109452380Y-32309285D02*
X109452380Y-32880714D01*
X109452380Y-32595000D02*
X108452380Y-32595000D01*
X108595238Y-32690238D01*
X108690476Y-32785476D01*
X108738095Y-32880714D01*
X88452380Y-27193095D02*
X87452380Y-27193095D01*
X87452380Y-26955000D01*
X87500000Y-26812142D01*
X87595238Y-26716904D01*
X87690476Y-26669285D01*
X87880952Y-26621666D01*
X88023809Y-26621666D01*
X88214285Y-26669285D01*
X88309523Y-26716904D01*
X88404761Y-26812142D01*
X88452380Y-26955000D01*
X88452380Y-27193095D01*
X87452380Y-26288333D02*
X87452380Y-25669285D01*
X87833333Y-26002619D01*
X87833333Y-25859761D01*
X87880952Y-25764523D01*
X87928571Y-25716904D01*
X88023809Y-25669285D01*
X88261904Y-25669285D01*
X88357142Y-25716904D01*
X88404761Y-25764523D01*
X88452380Y-25859761D01*
X88452380Y-26145476D01*
X88404761Y-26240714D01*
X88357142Y-26288333D01*
X109452380Y-27193095D02*
X108452380Y-27193095D01*
X108452380Y-26955000D01*
X108500000Y-26812142D01*
X108595238Y-26716904D01*
X108690476Y-26669285D01*
X108880952Y-26621666D01*
X109023809Y-26621666D01*
X109214285Y-26669285D01*
X109309523Y-26716904D01*
X109404761Y-26812142D01*
X109452380Y-26955000D01*
X109452380Y-27193095D01*
X108547619Y-26240714D02*
X108500000Y-26193095D01*
X108452380Y-26097857D01*
X108452380Y-25859761D01*
X108500000Y-25764523D01*
X108547619Y-25716904D01*
X108642857Y-25669285D01*
X108738095Y-25669285D01*
X108880952Y-25716904D01*
X109452380Y-26288333D01*
X109452380Y-25669285D01*
X80952380Y-41166666D02*
X80476190Y-41500000D01*
X80952380Y-41738095D02*
X79952380Y-41738095D01*
X79952380Y-41357142D01*
X80000000Y-41261904D01*
X80047619Y-41214285D01*
X80142857Y-41166666D01*
X80285714Y-41166666D01*
X80380952Y-41214285D01*
X80428571Y-41261904D01*
X80476190Y-41357142D01*
X80476190Y-41738095D01*
X80952380Y-40214285D02*
X80952380Y-40785714D01*
X80952380Y-40500000D02*
X79952380Y-40500000D01*
X80095238Y-40595238D01*
X80190476Y-40690476D01*
X80238095Y-40785714D01*
X258302380Y-37642857D02*
X257826190Y-37976190D01*
X258302380Y-38214285D02*
X257302380Y-38214285D01*
X257302380Y-37833333D01*
X257350000Y-37738095D01*
X257397619Y-37690476D01*
X257492857Y-37642857D01*
X257635714Y-37642857D01*
X257730952Y-37690476D01*
X257778571Y-37738095D01*
X257826190Y-37833333D01*
X257826190Y-38214285D01*
X258302380Y-36690476D02*
X258302380Y-37261904D01*
X258302380Y-36976190D02*
X257302380Y-36976190D01*
X257445238Y-37071428D01*
X257540476Y-37166666D01*
X257588095Y-37261904D01*
X258302380Y-36214285D02*
X258302380Y-36023809D01*
X258254761Y-35928571D01*
X258207142Y-35880952D01*
X258064285Y-35785714D01*
X257873809Y-35738095D01*
X257492857Y-35738095D01*
X257397619Y-35785714D01*
X257350000Y-35833333D01*
X257302380Y-35928571D01*
X257302380Y-36119047D01*
X257350000Y-36214285D01*
X257397619Y-36261904D01*
X257492857Y-36309523D01*
X257730952Y-36309523D01*
X257826190Y-36261904D01*
X257873809Y-36214285D01*
X257921428Y-36119047D01*
X257921428Y-35928571D01*
X257873809Y-35833333D01*
X257826190Y-35785714D01*
X257730952Y-35738095D01*
X235802380Y-37642857D02*
X235326190Y-37976190D01*
X235802380Y-38214285D02*
X234802380Y-38214285D01*
X234802380Y-37833333D01*
X234850000Y-37738095D01*
X234897619Y-37690476D01*
X234992857Y-37642857D01*
X235135714Y-37642857D01*
X235230952Y-37690476D01*
X235278571Y-37738095D01*
X235326190Y-37833333D01*
X235326190Y-38214285D01*
X235802380Y-36690476D02*
X235802380Y-37261904D01*
X235802380Y-36976190D02*
X234802380Y-36976190D01*
X234945238Y-37071428D01*
X235040476Y-37166666D01*
X235088095Y-37261904D01*
X235230952Y-36119047D02*
X235183333Y-36214285D01*
X235135714Y-36261904D01*
X235040476Y-36309523D01*
X234992857Y-36309523D01*
X234897619Y-36261904D01*
X234850000Y-36214285D01*
X234802380Y-36119047D01*
X234802380Y-35928571D01*
X234850000Y-35833333D01*
X234897619Y-35785714D01*
X234992857Y-35738095D01*
X235040476Y-35738095D01*
X235135714Y-35785714D01*
X235183333Y-35833333D01*
X235230952Y-35928571D01*
X235230952Y-36119047D01*
X235278571Y-36214285D01*
X235326190Y-36261904D01*
X235421428Y-36309523D01*
X235611904Y-36309523D01*
X235707142Y-36261904D01*
X235754761Y-36214285D01*
X235802380Y-36119047D01*
X235802380Y-35928571D01*
X235754761Y-35833333D01*
X235707142Y-35785714D01*
X235611904Y-35738095D01*
X235421428Y-35738095D01*
X235326190Y-35785714D01*
X235278571Y-35833333D01*
X235230952Y-35928571D01*
X213302380Y-37642857D02*
X212826190Y-37976190D01*
X213302380Y-38214285D02*
X212302380Y-38214285D01*
X212302380Y-37833333D01*
X212350000Y-37738095D01*
X212397619Y-37690476D01*
X212492857Y-37642857D01*
X212635714Y-37642857D01*
X212730952Y-37690476D01*
X212778571Y-37738095D01*
X212826190Y-37833333D01*
X212826190Y-38214285D01*
X213302380Y-36690476D02*
X213302380Y-37261904D01*
X213302380Y-36976190D02*
X212302380Y-36976190D01*
X212445238Y-37071428D01*
X212540476Y-37166666D01*
X212588095Y-37261904D01*
X212302380Y-36357142D02*
X212302380Y-35690476D01*
X213302380Y-36119047D01*
X190802380Y-37642857D02*
X190326190Y-37976190D01*
X190802380Y-38214285D02*
X189802380Y-38214285D01*
X189802380Y-37833333D01*
X189850000Y-37738095D01*
X189897619Y-37690476D01*
X189992857Y-37642857D01*
X190135714Y-37642857D01*
X190230952Y-37690476D01*
X190278571Y-37738095D01*
X190326190Y-37833333D01*
X190326190Y-38214285D01*
X190802380Y-36690476D02*
X190802380Y-37261904D01*
X190802380Y-36976190D02*
X189802380Y-36976190D01*
X189945238Y-37071428D01*
X190040476Y-37166666D01*
X190088095Y-37261904D01*
X189802380Y-35833333D02*
X189802380Y-36023809D01*
X189850000Y-36119047D01*
X189897619Y-36166666D01*
X190040476Y-36261904D01*
X190230952Y-36309523D01*
X190611904Y-36309523D01*
X190707142Y-36261904D01*
X190754761Y-36214285D01*
X190802380Y-36119047D01*
X190802380Y-35928571D01*
X190754761Y-35833333D01*
X190707142Y-35785714D01*
X190611904Y-35738095D01*
X190373809Y-35738095D01*
X190278571Y-35785714D01*
X190230952Y-35833333D01*
X190183333Y-35928571D01*
X190183333Y-36119047D01*
X190230952Y-36214285D01*
X190278571Y-36261904D01*
X190373809Y-36309523D01*
X168302380Y-37642857D02*
X167826190Y-37976190D01*
X168302380Y-38214285D02*
X167302380Y-38214285D01*
X167302380Y-37833333D01*
X167350000Y-37738095D01*
X167397619Y-37690476D01*
X167492857Y-37642857D01*
X167635714Y-37642857D01*
X167730952Y-37690476D01*
X167778571Y-37738095D01*
X167826190Y-37833333D01*
X167826190Y-38214285D01*
X168302380Y-36690476D02*
X168302380Y-37261904D01*
X168302380Y-36976190D02*
X167302380Y-36976190D01*
X167445238Y-37071428D01*
X167540476Y-37166666D01*
X167588095Y-37261904D01*
X167302380Y-35785714D02*
X167302380Y-36261904D01*
X167778571Y-36309523D01*
X167730952Y-36261904D01*
X167683333Y-36166666D01*
X167683333Y-35928571D01*
X167730952Y-35833333D01*
X167778571Y-35785714D01*
X167873809Y-35738095D01*
X168111904Y-35738095D01*
X168207142Y-35785714D01*
X168254761Y-35833333D01*
X168302380Y-35928571D01*
X168302380Y-36166666D01*
X168254761Y-36261904D01*
X168207142Y-36309523D01*
X145802380Y-37642857D02*
X145326190Y-37976190D01*
X145802380Y-38214285D02*
X144802380Y-38214285D01*
X144802380Y-37833333D01*
X144850000Y-37738095D01*
X144897619Y-37690476D01*
X144992857Y-37642857D01*
X145135714Y-37642857D01*
X145230952Y-37690476D01*
X145278571Y-37738095D01*
X145326190Y-37833333D01*
X145326190Y-38214285D01*
X145802380Y-36690476D02*
X145802380Y-37261904D01*
X145802380Y-36976190D02*
X144802380Y-36976190D01*
X144945238Y-37071428D01*
X145040476Y-37166666D01*
X145088095Y-37261904D01*
X145135714Y-35833333D02*
X145802380Y-35833333D01*
X144754761Y-36071428D02*
X145469047Y-36309523D01*
X145469047Y-35690476D01*
X123302380Y-37642857D02*
X122826190Y-37976190D01*
X123302380Y-38214285D02*
X122302380Y-38214285D01*
X122302380Y-37833333D01*
X122350000Y-37738095D01*
X122397619Y-37690476D01*
X122492857Y-37642857D01*
X122635714Y-37642857D01*
X122730952Y-37690476D01*
X122778571Y-37738095D01*
X122826190Y-37833333D01*
X122826190Y-38214285D01*
X123302380Y-36690476D02*
X123302380Y-37261904D01*
X123302380Y-36976190D02*
X122302380Y-36976190D01*
X122445238Y-37071428D01*
X122540476Y-37166666D01*
X122588095Y-37261904D01*
X122302380Y-36357142D02*
X122302380Y-35738095D01*
X122683333Y-36071428D01*
X122683333Y-35928571D01*
X122730952Y-35833333D01*
X122778571Y-35785714D01*
X122873809Y-35738095D01*
X123111904Y-35738095D01*
X123207142Y-35785714D01*
X123254761Y-35833333D01*
X123302380Y-35928571D01*
X123302380Y-36214285D01*
X123254761Y-36309523D01*
X123207142Y-36357142D01*
X78302380Y-37642857D02*
X77826190Y-37976190D01*
X78302380Y-38214285D02*
X77302380Y-38214285D01*
X77302380Y-37833333D01*
X77350000Y-37738095D01*
X77397619Y-37690476D01*
X77492857Y-37642857D01*
X77635714Y-37642857D01*
X77730952Y-37690476D01*
X77778571Y-37738095D01*
X77826190Y-37833333D01*
X77826190Y-38214285D01*
X78302380Y-36690476D02*
X78302380Y-37261904D01*
X78302380Y-36976190D02*
X77302380Y-36976190D01*
X77445238Y-37071428D01*
X77540476Y-37166666D01*
X77588095Y-37261904D01*
X77397619Y-36309523D02*
X77350000Y-36261904D01*
X77302380Y-36166666D01*
X77302380Y-35928571D01*
X77350000Y-35833333D01*
X77397619Y-35785714D01*
X77492857Y-35738095D01*
X77588095Y-35738095D01*
X77730952Y-35785714D01*
X78302380Y-36357142D01*
X78302380Y-35738095D01*
X28302380Y-37642857D02*
X27826190Y-37976190D01*
X28302380Y-38214285D02*
X27302380Y-38214285D01*
X27302380Y-37833333D01*
X27350000Y-37738095D01*
X27397619Y-37690476D01*
X27492857Y-37642857D01*
X27635714Y-37642857D01*
X27730952Y-37690476D01*
X27778571Y-37738095D01*
X27826190Y-37833333D01*
X27826190Y-38214285D01*
X28302380Y-36690476D02*
X28302380Y-37261904D01*
X28302380Y-36976190D02*
X27302380Y-36976190D01*
X27445238Y-37071428D01*
X27540476Y-37166666D01*
X27588095Y-37261904D01*
X27302380Y-36071428D02*
X27302380Y-35976190D01*
X27350000Y-35880952D01*
X27397619Y-35833333D01*
X27492857Y-35785714D01*
X27683333Y-35738095D01*
X27921428Y-35738095D01*
X28111904Y-35785714D01*
X28207142Y-35833333D01*
X28254761Y-35880952D01*
X28302380Y-35976190D01*
X28302380Y-36071428D01*
X28254761Y-36166666D01*
X28207142Y-36214285D01*
X28111904Y-36261904D01*
X27921428Y-36309523D01*
X27683333Y-36309523D01*
X27492857Y-36261904D01*
X27397619Y-36214285D01*
X27350000Y-36166666D01*
X27302380Y-36071428D01*
X53302380Y-37642857D02*
X52826190Y-37976190D01*
X53302380Y-38214285D02*
X52302380Y-38214285D01*
X52302380Y-37833333D01*
X52350000Y-37738095D01*
X52397619Y-37690476D01*
X52492857Y-37642857D01*
X52635714Y-37642857D01*
X52730952Y-37690476D01*
X52778571Y-37738095D01*
X52826190Y-37833333D01*
X52826190Y-38214285D01*
X53302380Y-36690476D02*
X53302380Y-37261904D01*
X53302380Y-36976190D02*
X52302380Y-36976190D01*
X52445238Y-37071428D01*
X52540476Y-37166666D01*
X52588095Y-37261904D01*
X53302380Y-35738095D02*
X53302380Y-36309523D01*
X53302380Y-36023809D02*
X52302380Y-36023809D01*
X52445238Y-36119047D01*
X52540476Y-36214285D01*
X52588095Y-36309523D01*
X258852380Y-26714285D02*
X257852380Y-26714285D01*
X257852380Y-26476190D01*
X257900000Y-26333333D01*
X257995238Y-26238095D01*
X258090476Y-26190476D01*
X258280952Y-26142857D01*
X258423809Y-26142857D01*
X258614285Y-26190476D01*
X258709523Y-26238095D01*
X258804761Y-26333333D01*
X258852380Y-26476190D01*
X258852380Y-26714285D01*
X258852380Y-25190476D02*
X258852380Y-25761904D01*
X258852380Y-25476190D02*
X257852380Y-25476190D01*
X257995238Y-25571428D01*
X258090476Y-25666666D01*
X258138095Y-25761904D01*
X258852380Y-24714285D02*
X258852380Y-24523809D01*
X258804761Y-24428571D01*
X258757142Y-24380952D01*
X258614285Y-24285714D01*
X258423809Y-24238095D01*
X258042857Y-24238095D01*
X257947619Y-24285714D01*
X257900000Y-24333333D01*
X257852380Y-24428571D01*
X257852380Y-24619047D01*
X257900000Y-24714285D01*
X257947619Y-24761904D01*
X258042857Y-24809523D01*
X258280952Y-24809523D01*
X258376190Y-24761904D01*
X258423809Y-24714285D01*
X258471428Y-24619047D01*
X258471428Y-24428571D01*
X258423809Y-24333333D01*
X258376190Y-24285714D01*
X258280952Y-24238095D01*
X255996428Y-28530952D02*
X255996428Y-27769047D01*
X256377380Y-28150000D02*
X255615476Y-28150000D01*
X236352380Y-26714285D02*
X235352380Y-26714285D01*
X235352380Y-26476190D01*
X235400000Y-26333333D01*
X235495238Y-26238095D01*
X235590476Y-26190476D01*
X235780952Y-26142857D01*
X235923809Y-26142857D01*
X236114285Y-26190476D01*
X236209523Y-26238095D01*
X236304761Y-26333333D01*
X236352380Y-26476190D01*
X236352380Y-26714285D01*
X236352380Y-25190476D02*
X236352380Y-25761904D01*
X236352380Y-25476190D02*
X235352380Y-25476190D01*
X235495238Y-25571428D01*
X235590476Y-25666666D01*
X235638095Y-25761904D01*
X235780952Y-24619047D02*
X235733333Y-24714285D01*
X235685714Y-24761904D01*
X235590476Y-24809523D01*
X235542857Y-24809523D01*
X235447619Y-24761904D01*
X235400000Y-24714285D01*
X235352380Y-24619047D01*
X235352380Y-24428571D01*
X235400000Y-24333333D01*
X235447619Y-24285714D01*
X235542857Y-24238095D01*
X235590476Y-24238095D01*
X235685714Y-24285714D01*
X235733333Y-24333333D01*
X235780952Y-24428571D01*
X235780952Y-24619047D01*
X235828571Y-24714285D01*
X235876190Y-24761904D01*
X235971428Y-24809523D01*
X236161904Y-24809523D01*
X236257142Y-24761904D01*
X236304761Y-24714285D01*
X236352380Y-24619047D01*
X236352380Y-24428571D01*
X236304761Y-24333333D01*
X236257142Y-24285714D01*
X236161904Y-24238095D01*
X235971428Y-24238095D01*
X235876190Y-24285714D01*
X235828571Y-24333333D01*
X235780952Y-24428571D01*
X233496428Y-28530952D02*
X233496428Y-27769047D01*
X233877380Y-28150000D02*
X233115476Y-28150000D01*
X213852380Y-26714285D02*
X212852380Y-26714285D01*
X212852380Y-26476190D01*
X212900000Y-26333333D01*
X212995238Y-26238095D01*
X213090476Y-26190476D01*
X213280952Y-26142857D01*
X213423809Y-26142857D01*
X213614285Y-26190476D01*
X213709523Y-26238095D01*
X213804761Y-26333333D01*
X213852380Y-26476190D01*
X213852380Y-26714285D01*
X213852380Y-25190476D02*
X213852380Y-25761904D01*
X213852380Y-25476190D02*
X212852380Y-25476190D01*
X212995238Y-25571428D01*
X213090476Y-25666666D01*
X213138095Y-25761904D01*
X212852380Y-24857142D02*
X212852380Y-24190476D01*
X213852380Y-24619047D01*
X210996428Y-28530952D02*
X210996428Y-27769047D01*
X211377380Y-28150000D02*
X210615476Y-28150000D01*
X191352380Y-26714285D02*
X190352380Y-26714285D01*
X190352380Y-26476190D01*
X190400000Y-26333333D01*
X190495238Y-26238095D01*
X190590476Y-26190476D01*
X190780952Y-26142857D01*
X190923809Y-26142857D01*
X191114285Y-26190476D01*
X191209523Y-26238095D01*
X191304761Y-26333333D01*
X191352380Y-26476190D01*
X191352380Y-26714285D01*
X191352380Y-25190476D02*
X191352380Y-25761904D01*
X191352380Y-25476190D02*
X190352380Y-25476190D01*
X190495238Y-25571428D01*
X190590476Y-25666666D01*
X190638095Y-25761904D01*
X190352380Y-24333333D02*
X190352380Y-24523809D01*
X190400000Y-24619047D01*
X190447619Y-24666666D01*
X190590476Y-24761904D01*
X190780952Y-24809523D01*
X191161904Y-24809523D01*
X191257142Y-24761904D01*
X191304761Y-24714285D01*
X191352380Y-24619047D01*
X191352380Y-24428571D01*
X191304761Y-24333333D01*
X191257142Y-24285714D01*
X191161904Y-24238095D01*
X190923809Y-24238095D01*
X190828571Y-24285714D01*
X190780952Y-24333333D01*
X190733333Y-24428571D01*
X190733333Y-24619047D01*
X190780952Y-24714285D01*
X190828571Y-24761904D01*
X190923809Y-24809523D01*
X188496428Y-28530952D02*
X188496428Y-27769047D01*
X188877380Y-28150000D02*
X188115476Y-28150000D01*
X168852380Y-26714285D02*
X167852380Y-26714285D01*
X167852380Y-26476190D01*
X167900000Y-26333333D01*
X167995238Y-26238095D01*
X168090476Y-26190476D01*
X168280952Y-26142857D01*
X168423809Y-26142857D01*
X168614285Y-26190476D01*
X168709523Y-26238095D01*
X168804761Y-26333333D01*
X168852380Y-26476190D01*
X168852380Y-26714285D01*
X168852380Y-25190476D02*
X168852380Y-25761904D01*
X168852380Y-25476190D02*
X167852380Y-25476190D01*
X167995238Y-25571428D01*
X168090476Y-25666666D01*
X168138095Y-25761904D01*
X167852380Y-24285714D02*
X167852380Y-24761904D01*
X168328571Y-24809523D01*
X168280952Y-24761904D01*
X168233333Y-24666666D01*
X168233333Y-24428571D01*
X168280952Y-24333333D01*
X168328571Y-24285714D01*
X168423809Y-24238095D01*
X168661904Y-24238095D01*
X168757142Y-24285714D01*
X168804761Y-24333333D01*
X168852380Y-24428571D01*
X168852380Y-24666666D01*
X168804761Y-24761904D01*
X168757142Y-24809523D01*
X165996428Y-28530952D02*
X165996428Y-27769047D01*
X166377380Y-28150000D02*
X165615476Y-28150000D01*
X146352380Y-26714285D02*
X145352380Y-26714285D01*
X145352380Y-26476190D01*
X145400000Y-26333333D01*
X145495238Y-26238095D01*
X145590476Y-26190476D01*
X145780952Y-26142857D01*
X145923809Y-26142857D01*
X146114285Y-26190476D01*
X146209523Y-26238095D01*
X146304761Y-26333333D01*
X146352380Y-26476190D01*
X146352380Y-26714285D01*
X146352380Y-25190476D02*
X146352380Y-25761904D01*
X146352380Y-25476190D02*
X145352380Y-25476190D01*
X145495238Y-25571428D01*
X145590476Y-25666666D01*
X145638095Y-25761904D01*
X145685714Y-24333333D02*
X146352380Y-24333333D01*
X145304761Y-24571428D02*
X146019047Y-24809523D01*
X146019047Y-24190476D01*
X143496428Y-28530952D02*
X143496428Y-27769047D01*
X143877380Y-28150000D02*
X143115476Y-28150000D01*
X123852380Y-26714285D02*
X122852380Y-26714285D01*
X122852380Y-26476190D01*
X122900000Y-26333333D01*
X122995238Y-26238095D01*
X123090476Y-26190476D01*
X123280952Y-26142857D01*
X123423809Y-26142857D01*
X123614285Y-26190476D01*
X123709523Y-26238095D01*
X123804761Y-26333333D01*
X123852380Y-26476190D01*
X123852380Y-26714285D01*
X123852380Y-25190476D02*
X123852380Y-25761904D01*
X123852380Y-25476190D02*
X122852380Y-25476190D01*
X122995238Y-25571428D01*
X123090476Y-25666666D01*
X123138095Y-25761904D01*
X122852380Y-24857142D02*
X122852380Y-24238095D01*
X123233333Y-24571428D01*
X123233333Y-24428571D01*
X123280952Y-24333333D01*
X123328571Y-24285714D01*
X123423809Y-24238095D01*
X123661904Y-24238095D01*
X123757142Y-24285714D01*
X123804761Y-24333333D01*
X123852380Y-24428571D01*
X123852380Y-24714285D01*
X123804761Y-24809523D01*
X123757142Y-24857142D01*
X120996428Y-28530952D02*
X120996428Y-27769047D01*
X121377380Y-28150000D02*
X120615476Y-28150000D01*
X78852380Y-26714285D02*
X77852380Y-26714285D01*
X77852380Y-26476190D01*
X77900000Y-26333333D01*
X77995238Y-26238095D01*
X78090476Y-26190476D01*
X78280952Y-26142857D01*
X78423809Y-26142857D01*
X78614285Y-26190476D01*
X78709523Y-26238095D01*
X78804761Y-26333333D01*
X78852380Y-26476190D01*
X78852380Y-26714285D01*
X78852380Y-25190476D02*
X78852380Y-25761904D01*
X78852380Y-25476190D02*
X77852380Y-25476190D01*
X77995238Y-25571428D01*
X78090476Y-25666666D01*
X78138095Y-25761904D01*
X77947619Y-24809523D02*
X77900000Y-24761904D01*
X77852380Y-24666666D01*
X77852380Y-24428571D01*
X77900000Y-24333333D01*
X77947619Y-24285714D01*
X78042857Y-24238095D01*
X78138095Y-24238095D01*
X78280952Y-24285714D01*
X78852380Y-24857142D01*
X78852380Y-24238095D01*
X75996428Y-28530952D02*
X75996428Y-27769047D01*
X76377380Y-28150000D02*
X75615476Y-28150000D01*
X28852380Y-26714285D02*
X27852380Y-26714285D01*
X27852380Y-26476190D01*
X27900000Y-26333333D01*
X27995238Y-26238095D01*
X28090476Y-26190476D01*
X28280952Y-26142857D01*
X28423809Y-26142857D01*
X28614285Y-26190476D01*
X28709523Y-26238095D01*
X28804761Y-26333333D01*
X28852380Y-26476190D01*
X28852380Y-26714285D01*
X28852380Y-25190476D02*
X28852380Y-25761904D01*
X28852380Y-25476190D02*
X27852380Y-25476190D01*
X27995238Y-25571428D01*
X28090476Y-25666666D01*
X28138095Y-25761904D01*
X27852380Y-24571428D02*
X27852380Y-24476190D01*
X27900000Y-24380952D01*
X27947619Y-24333333D01*
X28042857Y-24285714D01*
X28233333Y-24238095D01*
X28471428Y-24238095D01*
X28661904Y-24285714D01*
X28757142Y-24333333D01*
X28804761Y-24380952D01*
X28852380Y-24476190D01*
X28852380Y-24571428D01*
X28804761Y-24666666D01*
X28757142Y-24714285D01*
X28661904Y-24761904D01*
X28471428Y-24809523D01*
X28233333Y-24809523D01*
X28042857Y-24761904D01*
X27947619Y-24714285D01*
X27900000Y-24666666D01*
X27852380Y-24571428D01*
X25996428Y-28530952D02*
X25996428Y-27769047D01*
X26377380Y-28150000D02*
X25615476Y-28150000D01*
X53852380Y-26714285D02*
X52852380Y-26714285D01*
X52852380Y-26476190D01*
X52900000Y-26333333D01*
X52995238Y-26238095D01*
X53090476Y-26190476D01*
X53280952Y-26142857D01*
X53423809Y-26142857D01*
X53614285Y-26190476D01*
X53709523Y-26238095D01*
X53804761Y-26333333D01*
X53852380Y-26476190D01*
X53852380Y-26714285D01*
X53852380Y-25190476D02*
X53852380Y-25761904D01*
X53852380Y-25476190D02*
X52852380Y-25476190D01*
X52995238Y-25571428D01*
X53090476Y-25666666D01*
X53138095Y-25761904D01*
X53852380Y-24238095D02*
X53852380Y-24809523D01*
X53852380Y-24523809D02*
X52852380Y-24523809D01*
X52995238Y-24619047D01*
X53090476Y-24714285D01*
X53138095Y-24809523D01*
X50996428Y-28530952D02*
X50996428Y-27769047D01*
X51377380Y-28150000D02*
X50615476Y-28150000D01*
X85178571Y-41333333D02*
X85178571Y-41666666D01*
X85702380Y-41666666D02*
X84702380Y-41666666D01*
X84702380Y-41190476D01*
X85702380Y-40285714D02*
X85702380Y-40857142D01*
X85702380Y-40571428D02*
X84702380Y-40571428D01*
X84845238Y-40666666D01*
X84940476Y-40761904D01*
X84988095Y-40857142D01*
X113583333Y-26032142D02*
X113535714Y-26079761D01*
X113392857Y-26127380D01*
X113297619Y-26127380D01*
X113154761Y-26079761D01*
X113059523Y-25984523D01*
X113011904Y-25889285D01*
X112964285Y-25698809D01*
X112964285Y-25555952D01*
X113011904Y-25365476D01*
X113059523Y-25270238D01*
X113154761Y-25175000D01*
X113297619Y-25127380D01*
X113392857Y-25127380D01*
X113535714Y-25175000D01*
X113583333Y-25222619D01*
X114535714Y-26127380D02*
X113964285Y-26127380D01*
X114250000Y-26127380D02*
X114250000Y-25127380D01*
X114154761Y-25270238D01*
X114059523Y-25365476D01*
X113964285Y-25413095D01*
%LPC*%
D12*
X90000000Y-31190000D03*
D13*
X90000000Y-35000000D03*
D12*
X107000000Y-31190000D03*
D13*
X107000000Y-35000000D03*
D12*
X90000000Y-24550000D03*
D13*
X90000000Y-28360000D03*
D12*
X107000000Y-24550000D03*
D13*
X107000000Y-28360000D03*
X80500000Y-38520000D03*
D12*
X80500000Y-28360000D03*
D14*
X256000000Y-38450000D03*
X256000000Y-35550000D03*
X233500000Y-38450000D03*
X233500000Y-35550000D03*
X211000000Y-38450000D03*
X211000000Y-35550000D03*
X188500000Y-38450000D03*
X188500000Y-35550000D03*
X166000000Y-38450000D03*
X166000000Y-35550000D03*
X143500000Y-38450000D03*
X143500000Y-35550000D03*
X121000000Y-38450000D03*
X121000000Y-35550000D03*
X76000000Y-38450000D03*
X76000000Y-35550000D03*
X26000000Y-38450000D03*
X26000000Y-35550000D03*
X51000000Y-38450000D03*
X51000000Y-35550000D03*
D15*
X256000000Y-24550000D03*
D16*
X256000000Y-26850000D03*
D15*
X233500000Y-24550000D03*
D16*
X233500000Y-26850000D03*
D15*
X211000000Y-24550000D03*
D16*
X211000000Y-26850000D03*
D15*
X188500000Y-24550000D03*
D16*
X188500000Y-26850000D03*
D15*
X166000000Y-24550000D03*
D16*
X166000000Y-26850000D03*
D15*
X143500000Y-24550000D03*
D16*
X143500000Y-26850000D03*
D15*
X121000000Y-24550000D03*
D16*
X121000000Y-26850000D03*
D15*
X76000000Y-24550000D03*
D16*
X76000000Y-26850000D03*
D15*
X26000000Y-24550000D03*
D16*
X26000000Y-26850000D03*
D15*
X51000000Y-24550000D03*
D16*
X51000000Y-26850000D03*
D13*
X85250000Y-38520000D03*
D12*
X85250000Y-28360000D03*
D17*
X113750000Y-30975000D03*
D13*
X113750000Y-28475000D03*
D18*
X101000000Y-36500000D03*
X98500000Y-40500000D03*
X96000000Y-36500000D03*
M02*
