G04 #@! TF.GenerationSoftware,KiCad,Pcbnew,(5.1.7)-1*
G04 #@! TF.CreationDate,2022-12-10T21:58:36+01:00*
G04 #@! TF.ProjectId,Skalen-Beleuchtung,536b616c-656e-42d4-9265-6c6575636874,rev?*
G04 #@! TF.SameCoordinates,Original*
G04 #@! TF.FileFunction,Copper,L1,Top*
G04 #@! TF.FilePolarity,Positive*
%FSLAX46Y46*%
G04 Gerber Fmt 4.6, Leading zero omitted, Abs format (unit mm)*
G04 Created by KiCad (PCBNEW (5.1.7)-1) date 2022-12-10 21:58:36*
%MOMM*%
%LPD*%
G01*
G04 APERTURE LIST*
G04 #@! TA.AperFunction,ComponentPad*
%ADD10O,1.600000X1.600000*%
G04 #@! TD*
G04 #@! TA.AperFunction,ComponentPad*
%ADD11C,1.600000*%
G04 #@! TD*
G04 #@! TA.AperFunction,SMDPad,CuDef*
%ADD12R,1.700000X0.900000*%
G04 #@! TD*
G04 #@! TA.AperFunction,SMDPad,CuDef*
%ADD13R,2.300000X2.000000*%
G04 #@! TD*
G04 #@! TA.AperFunction,SMDPad,CuDef*
%ADD14R,2.300000X1.200000*%
G04 #@! TD*
G04 #@! TA.AperFunction,ComponentPad*
%ADD15R,1.600000X1.600000*%
G04 #@! TD*
G04 #@! TA.AperFunction,ComponentPad*
%ADD16C,2.000000*%
G04 #@! TD*
G04 #@! TA.AperFunction,ViaPad*
%ADD17C,0.800000*%
G04 #@! TD*
G04 #@! TA.AperFunction,Conductor*
%ADD18C,1.000000*%
G04 #@! TD*
G04 APERTURE END LIST*
D10*
X90000000Y-31190000D03*
D11*
X90000000Y-35000000D03*
D10*
X107000000Y-31190000D03*
D11*
X107000000Y-35000000D03*
D10*
X90000000Y-24550000D03*
D11*
X90000000Y-28360000D03*
D10*
X107000000Y-24550000D03*
D11*
X107000000Y-28360000D03*
X80500000Y-38520000D03*
D10*
X80500000Y-28360000D03*
D12*
X256000000Y-38450000D03*
X256000000Y-35550000D03*
X233500000Y-38450000D03*
X233500000Y-35550000D03*
X211000000Y-38450000D03*
X211000000Y-35550000D03*
X188500000Y-38450000D03*
X188500000Y-35550000D03*
X166000000Y-38450000D03*
X166000000Y-35550000D03*
X143500000Y-38450000D03*
X143500000Y-35550000D03*
X121000000Y-38450000D03*
X121000000Y-35550000D03*
X76000000Y-38450000D03*
X76000000Y-35550000D03*
X26000000Y-38450000D03*
X26000000Y-35550000D03*
X51000000Y-38450000D03*
X51000000Y-35550000D03*
D13*
X256000000Y-24550000D03*
D14*
X256000000Y-26850000D03*
D13*
X233500000Y-24550000D03*
D14*
X233500000Y-26850000D03*
D13*
X211000000Y-24550000D03*
D14*
X211000000Y-26850000D03*
D13*
X188500000Y-24550000D03*
D14*
X188500000Y-26850000D03*
D13*
X166000000Y-24550000D03*
D14*
X166000000Y-26850000D03*
D13*
X143500000Y-24550000D03*
D14*
X143500000Y-26850000D03*
D13*
X121000000Y-24550000D03*
D14*
X121000000Y-26850000D03*
D13*
X76000000Y-24550000D03*
D14*
X76000000Y-26850000D03*
D13*
X26000000Y-24550000D03*
D14*
X26000000Y-26850000D03*
D13*
X51000000Y-24550000D03*
D14*
X51000000Y-26850000D03*
D11*
X85250000Y-38520000D03*
D10*
X85250000Y-28360000D03*
D15*
X113750000Y-30975000D03*
D11*
X113750000Y-28475000D03*
D16*
X101000000Y-36500000D03*
X98500000Y-40500000D03*
X96000000Y-36500000D03*
D17*
X76000000Y-41724990D03*
X121000000Y-41724990D03*
D18*
X26000000Y-24550000D02*
X112700000Y-24550000D01*
X113750000Y-24600000D02*
X113700000Y-24550000D01*
X113750000Y-28475000D02*
X113750000Y-24600000D01*
X113700000Y-24550000D02*
X256000000Y-24550000D01*
X112700000Y-24550000D02*
X113700000Y-24550000D01*
X90000000Y-35000000D02*
X84250000Y-35000000D01*
X80500000Y-31250000D02*
X80500000Y-28360000D01*
X84250000Y-35000000D02*
X80500000Y-31250000D01*
X107000000Y-35000000D02*
X111750000Y-35000000D01*
X113750000Y-33000000D02*
X113750000Y-30975000D01*
X111750000Y-35000000D02*
X113750000Y-33000000D01*
X26000000Y-26850000D02*
X26000000Y-35550000D01*
X51000000Y-26850000D02*
X51000000Y-35550000D01*
X76000000Y-26850000D02*
X76000000Y-35550000D01*
X166000000Y-38450000D02*
X211000000Y-38450000D01*
X233500000Y-38450000D02*
X256000000Y-38450000D01*
X143500000Y-38450000D02*
X143500000Y-41724990D01*
X143500000Y-41724990D02*
X166000000Y-41724990D01*
X166000000Y-41724990D02*
X166000000Y-38450000D01*
X211000000Y-38450000D02*
X211000000Y-41724990D01*
X211000000Y-41724990D02*
X233500000Y-41724990D01*
X233500000Y-41724990D02*
X233500000Y-38450000D01*
X121000000Y-38450000D02*
X121000000Y-41724990D01*
X76000000Y-38450000D02*
X76000000Y-41724990D01*
X76000000Y-38450000D02*
X26000000Y-38450000D01*
X121000000Y-38450000D02*
X143500000Y-38450000D01*
X76000000Y-41724990D02*
X76000000Y-41724990D01*
X121000000Y-41724990D02*
X121000000Y-41724990D01*
X76000000Y-38450000D02*
X78950000Y-38450000D01*
X79020000Y-38520000D02*
X80500000Y-38520000D01*
X78950000Y-38450000D02*
X79020000Y-38520000D01*
X107000000Y-28360000D02*
X107000000Y-31190000D01*
X107000000Y-31190000D02*
X103060000Y-31190000D01*
X101000000Y-33250000D02*
X101000000Y-36500000D01*
X103060000Y-31190000D02*
X101000000Y-33250000D01*
X85250000Y-38520000D02*
X95230000Y-38520000D01*
X96000000Y-37750000D02*
X96000000Y-36500000D01*
X95230000Y-38520000D02*
X96000000Y-37750000D01*
X90000000Y-28360000D02*
X90000000Y-31190000D01*
X85250000Y-28360000D02*
X90000000Y-28360000D01*
X121000000Y-26850000D02*
X121000000Y-35550000D01*
X143500000Y-26850000D02*
X143500000Y-35550000D01*
X166000000Y-26850000D02*
X166000000Y-35550000D01*
X188500000Y-26850000D02*
X188500000Y-35550000D01*
X211000000Y-26850000D02*
X211000000Y-35550000D01*
X233500000Y-26850000D02*
X233500000Y-35550000D01*
X256000000Y-26850000D02*
X256000000Y-35550000D01*
M02*
