M48
; DRILL file {KiCad (5.1.7)-1} date 07/12/22 08:38:09
; FORMAT={-:-/ absolute / metric / decimal}
; #@! TF.CreationDate,2022-07-12T08:38:09+02:00
; #@! TF.GenerationSoftware,Kicad,Pcbnew,(5.1.7)-1
; #@! TF.FileFunction,Plated,1,2,PTH
FMAT,2
METRIC
T1C0.400
T2C0.600
T3C0.800
T4C1.100
T5C1.200
T6C1.300
T7C1.400
T8C1.750
%
G90
G05
T1
X30.75Y-30.5
X42.5Y-30.5
T2
X43.25Y-83.0
T3
X55.75Y-47.09
X55.75Y-57.25
X41.96Y-35.08
X44.5Y-32.54
X44.5Y-37.62
X60.67Y-54.75
X63.21Y-57.29
X65.75Y-54.75
X30.75Y-57.34
X30.75Y-67.5
X30.75Y-39.59
X30.75Y-49.75
X69.92Y-32.5
X69.92Y-35.0
X50.75Y-47.18
X50.75Y-57.34
X79.09Y-35.0
X89.25Y-35.0
X55.75Y-27.5
X55.75Y-37.66
X65.75Y-40.16
X65.75Y-50.32
X87.0Y-46.5
X87.0Y-51.58
X89.54Y-49.04
X35.67Y-44.75
X45.83Y-44.75
X35.75Y-54.8
X35.75Y-59.88
X38.29Y-57.34
X35.67Y-49.75
X45.83Y-49.75
X79.09Y-30.0
X89.25Y-30.0
X35.67Y-32.58
X35.67Y-35.08
X45.75Y-57.34
X45.75Y-67.5
X60.75Y-30.0
X60.75Y-40.16
X50.75Y-30.0
X50.75Y-40.16
T4
X35.75Y-64.8
X35.75Y-77.5
X50.75Y-64.8
X50.75Y-77.5
X71.88Y-40.5
X79.5Y-40.5
X55.75Y-64.8
X55.75Y-77.5
X40.75Y-64.8
X40.75Y-77.5
T5
X82.13Y-76.5
X89.75Y-76.5
X61.75Y-76.5
X69.37Y-76.5
T6
X60.88Y-67.0
X65.88Y-67.0
X85.5Y-67.0
X90.5Y-67.0
T7
X71.88Y-45.5
X71.88Y-60.74
X71.88Y-65.82
X71.88Y-70.9
X79.5Y-45.5
X79.5Y-60.74
X79.5Y-65.82
X79.5Y-70.9
T8
X33.25Y-87.0
X38.25Y-87.0
X43.25Y-87.0
X48.25Y-87.0
X53.25Y-87.0
X58.25Y-87.0
X63.25Y-87.0
X68.25Y-87.0
X73.25Y-87.0
X78.25Y-87.0
X83.25Y-87.0
T0
M30
