G04 #@! TF.GenerationSoftware,KiCad,Pcbnew,(5.1.7)-1*
G04 #@! TF.CreationDate,2022-07-12T08:38:02+02:00*
G04 #@! TF.ProjectId,Relais-Modul,52656c61-6973-42d4-9d6f-64756c2e6b69,rev?*
G04 #@! TF.SameCoordinates,Original*
G04 #@! TF.FileFunction,Copper,L1,Top*
G04 #@! TF.FilePolarity,Positive*
%FSLAX46Y46*%
G04 Gerber Fmt 4.6, Leading zero omitted, Abs format (unit mm)*
G04 Created by KiCad (PCBNEW (5.1.7)-1) date 2022-07-12 08:38:02*
%MOMM*%
%LPD*%
G01*
G04 APERTURE LIST*
G04 #@! TA.AperFunction,ComponentPad*
%ADD10C,2.400000*%
G04 #@! TD*
G04 #@! TA.AperFunction,ComponentPad*
%ADD11O,2.400000X2.400000*%
G04 #@! TD*
G04 #@! TA.AperFunction,ComponentPad*
%ADD12O,2.200000X2.200000*%
G04 #@! TD*
G04 #@! TA.AperFunction,ComponentPad*
%ADD13R,2.200000X2.200000*%
G04 #@! TD*
G04 #@! TA.AperFunction,ComponentPad*
%ADD14O,1.500000X2.000000*%
G04 #@! TD*
G04 #@! TA.AperFunction,ComponentPad*
%ADD15R,1.500000X2.000000*%
G04 #@! TD*
G04 #@! TA.AperFunction,ComponentPad*
%ADD16O,2.000000X1.500000*%
G04 #@! TD*
G04 #@! TA.AperFunction,ComponentPad*
%ADD17R,2.000000X1.500000*%
G04 #@! TD*
G04 #@! TA.AperFunction,ComponentPad*
%ADD18C,1.600000*%
G04 #@! TD*
G04 #@! TA.AperFunction,ComponentPad*
%ADD19O,1.600000X1.600000*%
G04 #@! TD*
G04 #@! TA.AperFunction,ComponentPad*
%ADD20C,2.600000*%
G04 #@! TD*
G04 #@! TA.AperFunction,ComponentPad*
%ADD21R,1.600000X1.600000*%
G04 #@! TD*
G04 #@! TA.AperFunction,ComponentPad*
%ADD22C,3.000000*%
G04 #@! TD*
G04 #@! TA.AperFunction,ViaPad*
%ADD23C,0.800000*%
G04 #@! TD*
G04 #@! TA.AperFunction,ViaPad*
%ADD24C,1.200000*%
G04 #@! TD*
G04 #@! TA.AperFunction,Conductor*
%ADD25C,1.000000*%
G04 #@! TD*
G04 #@! TA.AperFunction,Conductor*
%ADD26C,2.000000*%
G04 #@! TD*
G04 APERTURE END LIST*
D10*
X61750000Y-76500000D03*
D11*
X69370000Y-76500000D03*
D10*
X89750000Y-76500000D03*
D11*
X82130000Y-76500000D03*
D12*
X71880000Y-40500000D03*
D13*
X79500000Y-40500000D03*
D14*
X87000000Y-51580000D03*
D15*
X87000000Y-46500000D03*
D16*
X89540000Y-49040000D03*
D14*
X63210000Y-57290000D03*
D17*
X65750000Y-54750000D03*
D16*
X60670000Y-54750000D03*
X41960000Y-35080000D03*
D15*
X44500000Y-37620000D03*
D14*
X44500000Y-32540000D03*
D16*
X38290000Y-57340000D03*
D15*
X35750000Y-54800000D03*
D14*
X35750000Y-59880000D03*
D18*
X30750000Y-49750000D03*
D19*
X30750000Y-39590000D03*
D18*
X79090000Y-30000000D03*
D19*
X89250000Y-30000000D03*
D18*
X79090000Y-35000000D03*
D19*
X89250000Y-35000000D03*
D18*
X60750000Y-40160000D03*
D19*
X60750000Y-30000000D03*
D18*
X65750000Y-40160000D03*
D19*
X65750000Y-50320000D03*
D18*
X55750000Y-57250000D03*
D19*
X55750000Y-47090000D03*
D18*
X55750000Y-37660000D03*
D19*
X55750000Y-27500000D03*
D18*
X50750000Y-40160000D03*
D19*
X50750000Y-30000000D03*
D18*
X35670000Y-44750000D03*
D19*
X45830000Y-44750000D03*
D18*
X30750000Y-67500000D03*
D19*
X30750000Y-57340000D03*
D18*
X35670000Y-49750000D03*
D19*
X45830000Y-49750000D03*
D18*
X50750000Y-57340000D03*
D19*
X50750000Y-47180000D03*
D18*
X45750000Y-67500000D03*
D19*
X45750000Y-57340000D03*
D20*
X60880000Y-67000000D03*
X65880000Y-67000000D03*
X85500000Y-67000000D03*
X90500000Y-67000000D03*
D12*
X55750000Y-64800000D03*
D13*
X55750000Y-77500000D03*
D12*
X35750000Y-64800000D03*
D13*
X35750000Y-77500000D03*
D12*
X40750000Y-64800000D03*
D13*
X40750000Y-77500000D03*
D12*
X50750000Y-64800000D03*
D13*
X50750000Y-77500000D03*
D21*
X69920000Y-32500000D03*
D18*
X69920000Y-35000000D03*
D21*
X35670000Y-32580000D03*
D18*
X35670000Y-35080000D03*
D22*
X79500000Y-45500000D03*
X71880000Y-45500000D03*
X71880000Y-60740000D03*
X71880000Y-65820000D03*
X71880000Y-70900000D03*
X79500000Y-60740000D03*
X79500000Y-65820000D03*
X79500000Y-70900000D03*
D23*
X42500000Y-30500000D03*
X30750000Y-30500000D03*
D24*
X43250000Y-83000000D03*
D25*
X30750000Y-30500000D02*
X42500000Y-30500000D01*
D26*
X50750000Y-30000000D02*
X60750000Y-30000000D01*
X60750000Y-30000000D02*
X60750000Y-36250000D01*
X55750000Y-41250000D02*
X55750000Y-47090000D01*
X60750000Y-36250000D02*
X55750000Y-41250000D01*
X30750000Y-54670000D02*
X30750000Y-57340000D01*
X35670000Y-49750000D02*
X30750000Y-54670000D01*
X35670000Y-49750000D02*
X43420000Y-42000000D01*
X43420000Y-42000000D02*
X44500000Y-42000000D01*
X50750000Y-35750000D02*
X50750000Y-30000000D01*
X44500000Y-42000000D02*
X50750000Y-35750000D01*
X34000000Y-83000000D02*
X43250000Y-83000000D01*
X30750000Y-57340000D02*
X27500000Y-60590000D01*
X27500000Y-76500000D02*
X34000000Y-83000000D01*
X27500000Y-60590000D02*
X27500000Y-76500000D01*
X67910000Y-47090000D02*
X55750000Y-47090000D01*
X70320000Y-49500000D02*
X67910000Y-47090000D01*
X81000000Y-49500000D02*
X70320000Y-49500000D01*
X84000000Y-46500000D02*
X81000000Y-49500000D01*
X87000000Y-46500000D02*
X84000000Y-46500000D01*
M02*
