G04 #@! TF.GenerationSoftware,KiCad,Pcbnew,(5.1.7)-1*
G04 #@! TF.CreationDate,2022-07-12T08:38:02+02:00*
G04 #@! TF.ProjectId,Relais-Modul,52656c61-6973-42d4-9d6f-64756c2e6b69,rev?*
G04 #@! TF.SameCoordinates,Original*
G04 #@! TF.FileFunction,Soldermask,Top*
G04 #@! TF.FilePolarity,Negative*
%FSLAX46Y46*%
G04 Gerber Fmt 4.6, Leading zero omitted, Abs format (unit mm)*
G04 Created by KiCad (PCBNEW (5.1.7)-1) date 2022-07-12 08:38:02*
%MOMM*%
%LPD*%
G01*
G04 APERTURE LIST*
%ADD10C,2.400000*%
%ADD11O,2.400000X2.400000*%
%ADD12O,2.200000X2.200000*%
%ADD13R,2.200000X2.200000*%
%ADD14O,1.500000X2.000000*%
%ADD15R,1.500000X2.000000*%
%ADD16O,2.000000X1.500000*%
%ADD17R,2.000000X1.500000*%
%ADD18C,1.600000*%
%ADD19O,1.600000X1.600000*%
%ADD20C,2.600000*%
%ADD21R,1.600000X1.600000*%
%ADD22C,3.000000*%
G04 APERTURE END LIST*
D10*
X61750000Y-76500000D03*
D11*
X69370000Y-76500000D03*
D10*
X89750000Y-76500000D03*
D11*
X82130000Y-76500000D03*
D12*
X71880000Y-40500000D03*
D13*
X79500000Y-40500000D03*
D14*
X87000000Y-51580000D03*
D15*
X87000000Y-46500000D03*
D16*
X89540000Y-49040000D03*
D14*
X63210000Y-57290000D03*
D17*
X65750000Y-54750000D03*
D16*
X60670000Y-54750000D03*
X41960000Y-35080000D03*
D15*
X44500000Y-37620000D03*
D14*
X44500000Y-32540000D03*
D16*
X38290000Y-57340000D03*
D15*
X35750000Y-54800000D03*
D14*
X35750000Y-59880000D03*
D18*
X30750000Y-49750000D03*
D19*
X30750000Y-39590000D03*
D18*
X79090000Y-30000000D03*
D19*
X89250000Y-30000000D03*
D18*
X79090000Y-35000000D03*
D19*
X89250000Y-35000000D03*
D18*
X60750000Y-40160000D03*
D19*
X60750000Y-30000000D03*
D18*
X65750000Y-40160000D03*
D19*
X65750000Y-50320000D03*
D18*
X55750000Y-57250000D03*
D19*
X55750000Y-47090000D03*
D18*
X55750000Y-37660000D03*
D19*
X55750000Y-27500000D03*
D18*
X50750000Y-40160000D03*
D19*
X50750000Y-30000000D03*
D18*
X35670000Y-44750000D03*
D19*
X45830000Y-44750000D03*
D18*
X30750000Y-67500000D03*
D19*
X30750000Y-57340000D03*
D18*
X35670000Y-49750000D03*
D19*
X45830000Y-49750000D03*
D18*
X50750000Y-57340000D03*
D19*
X50750000Y-47180000D03*
D18*
X45750000Y-67500000D03*
D19*
X45750000Y-57340000D03*
D20*
X60880000Y-67000000D03*
X65880000Y-67000000D03*
X85500000Y-67000000D03*
X90500000Y-67000000D03*
D12*
X55750000Y-64800000D03*
D13*
X55750000Y-77500000D03*
D12*
X35750000Y-64800000D03*
D13*
X35750000Y-77500000D03*
D12*
X40750000Y-64800000D03*
D13*
X40750000Y-77500000D03*
D12*
X50750000Y-64800000D03*
D13*
X50750000Y-77500000D03*
D21*
X69920000Y-32500000D03*
D18*
X69920000Y-35000000D03*
D21*
X35670000Y-32580000D03*
D18*
X35670000Y-35080000D03*
D22*
X79500000Y-45500000D03*
X71880000Y-45500000D03*
X71880000Y-60740000D03*
X71880000Y-65820000D03*
X71880000Y-70900000D03*
X79500000Y-60740000D03*
X79500000Y-65820000D03*
X79500000Y-70900000D03*
M02*
