G04 #@! TF.GenerationSoftware,KiCad,Pcbnew,(5.1.7)-1*
G04 #@! TF.CreationDate,2022-07-12T08:38:02+02:00*
G04 #@! TF.ProjectId,Relais-Modul,52656c61-6973-42d4-9d6f-64756c2e6b69,rev?*
G04 #@! TF.SameCoordinates,Original*
G04 #@! TF.FileFunction,Copper,L2,Bot*
G04 #@! TF.FilePolarity,Positive*
%FSLAX46Y46*%
G04 Gerber Fmt 4.6, Leading zero omitted, Abs format (unit mm)*
G04 Created by KiCad (PCBNEW (5.1.7)-1) date 2022-07-12 08:38:02*
%MOMM*%
%LPD*%
G01*
G04 APERTURE LIST*
G04 #@! TA.AperFunction,ComponentPad*
%ADD10C,3.500000*%
G04 #@! TD*
G04 #@! TA.AperFunction,ComponentPad*
%ADD11C,2.400000*%
G04 #@! TD*
G04 #@! TA.AperFunction,ComponentPad*
%ADD12O,2.400000X2.400000*%
G04 #@! TD*
G04 #@! TA.AperFunction,ComponentPad*
%ADD13O,2.200000X2.200000*%
G04 #@! TD*
G04 #@! TA.AperFunction,ComponentPad*
%ADD14R,2.200000X2.200000*%
G04 #@! TD*
G04 #@! TA.AperFunction,ComponentPad*
%ADD15O,1.500000X2.000000*%
G04 #@! TD*
G04 #@! TA.AperFunction,ComponentPad*
%ADD16R,1.500000X2.000000*%
G04 #@! TD*
G04 #@! TA.AperFunction,ComponentPad*
%ADD17O,2.000000X1.500000*%
G04 #@! TD*
G04 #@! TA.AperFunction,ComponentPad*
%ADD18R,2.000000X1.500000*%
G04 #@! TD*
G04 #@! TA.AperFunction,ComponentPad*
%ADD19C,1.600000*%
G04 #@! TD*
G04 #@! TA.AperFunction,ComponentPad*
%ADD20O,1.600000X1.600000*%
G04 #@! TD*
G04 #@! TA.AperFunction,ComponentPad*
%ADD21C,2.600000*%
G04 #@! TD*
G04 #@! TA.AperFunction,ComponentPad*
%ADD22R,1.600000X1.600000*%
G04 #@! TD*
G04 #@! TA.AperFunction,ComponentPad*
%ADD23C,3.000000*%
G04 #@! TD*
G04 #@! TA.AperFunction,ViaPad*
%ADD24C,0.800000*%
G04 #@! TD*
G04 #@! TA.AperFunction,ViaPad*
%ADD25C,1.200000*%
G04 #@! TD*
G04 #@! TA.AperFunction,Conductor*
%ADD26C,1.000000*%
G04 #@! TD*
G04 #@! TA.AperFunction,Conductor*
%ADD27C,2.750000*%
G04 #@! TD*
G04 #@! TA.AperFunction,Conductor*
%ADD28C,2.000000*%
G04 #@! TD*
G04 APERTURE END LIST*
D10*
X83250000Y-87000000D03*
X78250000Y-87000000D03*
X73250000Y-87000000D03*
X68250000Y-87000000D03*
X63250000Y-87000000D03*
X58250000Y-87000000D03*
X53250000Y-87000000D03*
X48250000Y-87000000D03*
X43250000Y-87000000D03*
X38250000Y-87000000D03*
X33250000Y-87000000D03*
D11*
X61750000Y-76500000D03*
D12*
X69370000Y-76500000D03*
D11*
X89750000Y-76500000D03*
D12*
X82130000Y-76500000D03*
D13*
X71880000Y-40500000D03*
D14*
X79500000Y-40500000D03*
D15*
X87000000Y-51580000D03*
D16*
X87000000Y-46500000D03*
D17*
X89540000Y-49040000D03*
D15*
X63210000Y-57290000D03*
D18*
X65750000Y-54750000D03*
D17*
X60670000Y-54750000D03*
X41960000Y-35080000D03*
D16*
X44500000Y-37620000D03*
D15*
X44500000Y-32540000D03*
D17*
X38290000Y-57340000D03*
D16*
X35750000Y-54800000D03*
D15*
X35750000Y-59880000D03*
D19*
X30750000Y-49750000D03*
D20*
X30750000Y-39590000D03*
D19*
X79090000Y-30000000D03*
D20*
X89250000Y-30000000D03*
D19*
X79090000Y-35000000D03*
D20*
X89250000Y-35000000D03*
D19*
X60750000Y-40160000D03*
D20*
X60750000Y-30000000D03*
D19*
X65750000Y-40160000D03*
D20*
X65750000Y-50320000D03*
D19*
X55750000Y-57250000D03*
D20*
X55750000Y-47090000D03*
D19*
X55750000Y-37660000D03*
D20*
X55750000Y-27500000D03*
D19*
X50750000Y-40160000D03*
D20*
X50750000Y-30000000D03*
D19*
X35670000Y-44750000D03*
D20*
X45830000Y-44750000D03*
D19*
X30750000Y-67500000D03*
D20*
X30750000Y-57340000D03*
D19*
X35670000Y-49750000D03*
D20*
X45830000Y-49750000D03*
D19*
X50750000Y-57340000D03*
D20*
X50750000Y-47180000D03*
D19*
X45750000Y-67500000D03*
D20*
X45750000Y-57340000D03*
D21*
X60880000Y-67000000D03*
X65880000Y-67000000D03*
X85500000Y-67000000D03*
X90500000Y-67000000D03*
D13*
X55750000Y-64800000D03*
D14*
X55750000Y-77500000D03*
D13*
X35750000Y-64800000D03*
D14*
X35750000Y-77500000D03*
D13*
X40750000Y-64800000D03*
D14*
X40750000Y-77500000D03*
D13*
X50750000Y-64800000D03*
D14*
X50750000Y-77500000D03*
D22*
X69920000Y-32500000D03*
D19*
X69920000Y-35000000D03*
D22*
X35670000Y-32580000D03*
D19*
X35670000Y-35080000D03*
D23*
X79500000Y-45500000D03*
X71880000Y-45500000D03*
X71880000Y-60740000D03*
X71880000Y-65820000D03*
X71880000Y-70900000D03*
X79500000Y-60740000D03*
X79500000Y-65820000D03*
X79500000Y-70900000D03*
D24*
X42500000Y-30500000D03*
X30750000Y-30500000D03*
D25*
X43250000Y-83000000D03*
D26*
X35670000Y-44750000D02*
X35670000Y-35080000D01*
X41960000Y-35080000D02*
X35670000Y-35080000D01*
X89250000Y-30000000D02*
X89250000Y-35000000D01*
X79500000Y-45500000D02*
X79500000Y-40500000D01*
X85000000Y-30000000D02*
X82500000Y-32500000D01*
X89250000Y-30000000D02*
X85000000Y-30000000D01*
X69920000Y-32500000D02*
X82500000Y-32500000D01*
X69920000Y-32500000D02*
X49500000Y-32500000D01*
X30750000Y-30500000D02*
X30750000Y-39590000D01*
X47500000Y-30500000D02*
X49500000Y-32500000D01*
X42500000Y-30500000D02*
X47500000Y-30500000D01*
X79500000Y-40500000D02*
X83750000Y-40500000D01*
X83750000Y-40500000D02*
X89250000Y-35000000D01*
X69920000Y-35000000D02*
X79090000Y-35000000D01*
X65910000Y-35000000D02*
X60750000Y-40160000D01*
X69920000Y-35000000D02*
X65910000Y-35000000D01*
X63210000Y-42620000D02*
X60750000Y-40160000D01*
X63210000Y-57290000D02*
X63210000Y-42620000D01*
X71880000Y-40500000D02*
X71880000Y-45500000D01*
X75420000Y-49040000D02*
X71880000Y-45500000D01*
X89540000Y-49040000D02*
X75420000Y-49040000D01*
X40750000Y-77500000D02*
X50750000Y-77500000D01*
X45750000Y-67500000D02*
X45750000Y-68750000D01*
X40750000Y-73750000D02*
X40750000Y-77500000D01*
X45750000Y-68750000D02*
X40750000Y-73750000D01*
X33050000Y-67500000D02*
X35750000Y-64800000D01*
X30750000Y-67500000D02*
X33050000Y-67500000D01*
X35750000Y-59880000D02*
X35750000Y-64800000D01*
X55750000Y-61500000D02*
X55750000Y-64800000D01*
X54130000Y-59880000D02*
X55750000Y-61500000D01*
X35750000Y-59880000D02*
X54130000Y-59880000D01*
D27*
X82130000Y-76500000D02*
X85500000Y-73130000D01*
X85500000Y-73130000D02*
X85500000Y-67000000D01*
X84320000Y-65820000D02*
X85500000Y-67000000D01*
X79500000Y-65820000D02*
X84320000Y-65820000D01*
X69370000Y-76500000D02*
X65880000Y-73010000D01*
X65880000Y-67000000D02*
X65880000Y-73010000D01*
X67060000Y-65820000D02*
X65880000Y-67000000D01*
X71880000Y-65820000D02*
X67060000Y-65820000D01*
D26*
X35780000Y-54800000D02*
X45830000Y-44750000D01*
X35750000Y-54800000D02*
X35780000Y-54800000D01*
X87000000Y-51580000D02*
X73080000Y-51580000D01*
X65750000Y-44250000D02*
X65750000Y-40160000D01*
X73080000Y-51580000D02*
X65750000Y-44250000D01*
X65750000Y-50320000D02*
X65750000Y-54750000D01*
X38290000Y-57340000D02*
X50750000Y-57340000D01*
X45750000Y-57340000D02*
X45750000Y-51250000D01*
X45830000Y-51170000D02*
X45750000Y-51250000D01*
X45830000Y-49750000D02*
X45830000Y-51170000D01*
X50750000Y-40160000D02*
X50750000Y-47180000D01*
X47040000Y-40160000D02*
X44500000Y-37620000D01*
X50750000Y-40160000D02*
X47040000Y-40160000D01*
X58250000Y-54750000D02*
X55750000Y-57250000D01*
X60670000Y-54750000D02*
X58250000Y-54750000D01*
X60670000Y-54750000D02*
X60670000Y-45670000D01*
X55750000Y-40750000D02*
X55750000Y-37660000D01*
X60670000Y-45670000D02*
X55750000Y-40750000D01*
X49620000Y-37660000D02*
X44500000Y-32540000D01*
X55750000Y-37660000D02*
X49620000Y-37660000D01*
X40750000Y-27500000D02*
X35670000Y-32580000D01*
X55750000Y-27500000D02*
X40750000Y-27500000D01*
X76590000Y-27500000D02*
X79090000Y-30000000D01*
X55750000Y-27500000D02*
X76590000Y-27500000D01*
X38250000Y-87000000D02*
X38250000Y-85250000D01*
X33625000Y-34625000D02*
X35670000Y-32580000D01*
X33625000Y-50375000D02*
X33625000Y-34625000D01*
X28500000Y-55500000D02*
X33625000Y-50375000D01*
X38250000Y-84250000D02*
X28500000Y-74500000D01*
X28500000Y-74500000D02*
X28500000Y-55500000D01*
X38250000Y-87000000D02*
X38250000Y-84250000D01*
X50750000Y-64800000D02*
X50750000Y-68750000D01*
X55750000Y-73750000D02*
X55750000Y-77500000D01*
X50750000Y-68750000D02*
X55750000Y-73750000D01*
X53250000Y-87000000D02*
X53250000Y-82750000D01*
X55750000Y-80250000D02*
X55750000Y-77500000D01*
X53250000Y-82750000D02*
X55750000Y-80250000D01*
X40750000Y-64800000D02*
X40750000Y-68750000D01*
X35750000Y-73750000D02*
X35750000Y-77500000D01*
X40750000Y-68750000D02*
X35750000Y-73750000D01*
X35750000Y-77500000D02*
X35750000Y-79250000D01*
X35750000Y-79250000D02*
X37000000Y-80500000D01*
X37000000Y-80500000D02*
X46000000Y-80500000D01*
X48250000Y-82750000D02*
X48250000Y-87000000D01*
X46000000Y-80500000D02*
X48250000Y-82750000D01*
D27*
X79500000Y-73500000D02*
X79500000Y-70900000D01*
X78000000Y-75000000D02*
X79500000Y-73500000D01*
X78000000Y-78500000D02*
X78000000Y-75000000D01*
X83250000Y-83750000D02*
X78000000Y-78500000D01*
X83250000Y-87000000D02*
X83250000Y-83750000D01*
X78250000Y-87000000D02*
X78250000Y-89750000D01*
X78250000Y-89750000D02*
X80000000Y-91500000D01*
X80000000Y-91500000D02*
X86500000Y-91500000D01*
X89750000Y-88250000D02*
X89750000Y-76500000D01*
X86500000Y-91500000D02*
X89750000Y-88250000D01*
X90500000Y-75750000D02*
X89750000Y-76500000D01*
X90500000Y-67000000D02*
X90500000Y-75750000D01*
X68250000Y-87000000D02*
X73250000Y-87000000D01*
X71880000Y-72880000D02*
X73250000Y-74250000D01*
X71880000Y-70900000D02*
X71880000Y-72880000D01*
X73250000Y-87000000D02*
X73250000Y-74250000D01*
X60880000Y-75630000D02*
X61750000Y-76500000D01*
X60880000Y-67000000D02*
X60880000Y-75630000D01*
X61750000Y-81750000D02*
X63250000Y-83250000D01*
X61750000Y-76500000D02*
X61750000Y-81750000D01*
X63250000Y-87000000D02*
X63250000Y-83250000D01*
X63250000Y-87000000D02*
X58250000Y-87000000D01*
D28*
X43250000Y-87000000D02*
X43250000Y-83000000D01*
X43250000Y-83000000D02*
X43250000Y-83000000D01*
D26*
X33250000Y-87000000D02*
X33250000Y-83750000D01*
X33250000Y-83750000D02*
X27000000Y-77500000D01*
X27000000Y-53500000D02*
X30750000Y-49750000D01*
X27000000Y-77500000D02*
X27000000Y-53500000D01*
M02*
