G04 #@! TF.GenerationSoftware,KiCad,Pcbnew,(5.1.7)-1*
G04 #@! TF.CreationDate,2022-09-30T21:54:46+02:00*
G04 #@! TF.ProjectId,Tipp-Tasten-Modul,54697070-2d54-4617-9374-656e2d4d6f64,rev?*
G04 #@! TF.SameCoordinates,Original*
G04 #@! TF.FileFunction,Legend,Top*
G04 #@! TF.FilePolarity,Positive*
%FSLAX46Y46*%
G04 Gerber Fmt 4.6, Leading zero omitted, Abs format (unit mm)*
G04 Created by KiCad (PCBNEW (5.1.7)-1) date 2022-09-30 21:54:46*
%MOMM*%
%LPD*%
G01*
G04 APERTURE LIST*
%ADD10C,0.150000*%
%ADD11C,0.120000*%
%ADD12C,1.600000*%
%ADD13C,2.500000*%
%ADD14C,2.250000*%
%ADD15R,1.800000X1.800000*%
%ADD16C,1.800000*%
%ADD17C,3.500000*%
G04 APERTURE END LIST*
D10*
X25657023Y-62802380D02*
X25323690Y-62326190D01*
X25085595Y-62802380D02*
X25085595Y-61802380D01*
X25466547Y-61802380D01*
X25561785Y-61850000D01*
X25609404Y-61897619D01*
X25657023Y-61992857D01*
X25657023Y-62135714D01*
X25609404Y-62230952D01*
X25561785Y-62278571D01*
X25466547Y-62326190D01*
X25085595Y-62326190D01*
X26466547Y-62754761D02*
X26371309Y-62802380D01*
X26180833Y-62802380D01*
X26085595Y-62754761D01*
X26037976Y-62659523D01*
X26037976Y-62278571D01*
X26085595Y-62183333D01*
X26180833Y-62135714D01*
X26371309Y-62135714D01*
X26466547Y-62183333D01*
X26514166Y-62278571D01*
X26514166Y-62373809D01*
X26037976Y-62469047D01*
X26847500Y-62135714D02*
X27085595Y-62802380D01*
X27323690Y-62135714D01*
X27704642Y-62707142D02*
X27752261Y-62754761D01*
X27704642Y-62802380D01*
X27657023Y-62754761D01*
X27704642Y-62707142D01*
X27704642Y-62802380D01*
X28895119Y-62516666D02*
X29371309Y-62516666D01*
X28799880Y-62802380D02*
X29133214Y-61802380D01*
X29466547Y-62802380D01*
X25037976Y-63547619D02*
X25085595Y-63500000D01*
X25180833Y-63452380D01*
X25418928Y-63452380D01*
X25514166Y-63500000D01*
X25561785Y-63547619D01*
X25609404Y-63642857D01*
X25609404Y-63738095D01*
X25561785Y-63880952D01*
X24990357Y-64452380D01*
X25609404Y-64452380D01*
X26228452Y-63452380D02*
X26323690Y-63452380D01*
X26418928Y-63500000D01*
X26466547Y-63547619D01*
X26514166Y-63642857D01*
X26561785Y-63833333D01*
X26561785Y-64071428D01*
X26514166Y-64261904D01*
X26466547Y-64357142D01*
X26418928Y-64404761D01*
X26323690Y-64452380D01*
X26228452Y-64452380D01*
X26133214Y-64404761D01*
X26085595Y-64357142D01*
X26037976Y-64261904D01*
X25990357Y-64071428D01*
X25990357Y-63833333D01*
X26037976Y-63642857D01*
X26085595Y-63547619D01*
X26133214Y-63500000D01*
X26228452Y-63452380D01*
X26942738Y-63547619D02*
X26990357Y-63500000D01*
X27085595Y-63452380D01*
X27323690Y-63452380D01*
X27418928Y-63500000D01*
X27466547Y-63547619D01*
X27514166Y-63642857D01*
X27514166Y-63738095D01*
X27466547Y-63880952D01*
X26895119Y-64452380D01*
X27514166Y-64452380D01*
X27895119Y-63547619D02*
X27942738Y-63500000D01*
X28037976Y-63452380D01*
X28276071Y-63452380D01*
X28371309Y-63500000D01*
X28418928Y-63547619D01*
X28466547Y-63642857D01*
X28466547Y-63738095D01*
X28418928Y-63880952D01*
X27847500Y-64452380D01*
X28466547Y-64452380D01*
X28895119Y-64071428D02*
X29657023Y-64071428D01*
X30323690Y-63452380D02*
X30418928Y-63452380D01*
X30514166Y-63500000D01*
X30561785Y-63547619D01*
X30609404Y-63642857D01*
X30657023Y-63833333D01*
X30657023Y-64071428D01*
X30609404Y-64261904D01*
X30561785Y-64357142D01*
X30514166Y-64404761D01*
X30418928Y-64452380D01*
X30323690Y-64452380D01*
X30228452Y-64404761D01*
X30180833Y-64357142D01*
X30133214Y-64261904D01*
X30085595Y-64071428D01*
X30085595Y-63833333D01*
X30133214Y-63642857D01*
X30180833Y-63547619D01*
X30228452Y-63500000D01*
X30323690Y-63452380D01*
X30990357Y-63452380D02*
X31609404Y-63452380D01*
X31276071Y-63833333D01*
X31418928Y-63833333D01*
X31514166Y-63880952D01*
X31561785Y-63928571D01*
X31609404Y-64023809D01*
X31609404Y-64261904D01*
X31561785Y-64357142D01*
X31514166Y-64404761D01*
X31418928Y-64452380D01*
X31133214Y-64452380D01*
X31037976Y-64404761D01*
X30990357Y-64357142D01*
X32037976Y-64071428D02*
X32799880Y-64071428D01*
X33180833Y-63452380D02*
X33799880Y-63452380D01*
X33466547Y-63833333D01*
X33609404Y-63833333D01*
X33704642Y-63880952D01*
X33752261Y-63928571D01*
X33799880Y-64023809D01*
X33799880Y-64261904D01*
X33752261Y-64357142D01*
X33704642Y-64404761D01*
X33609404Y-64452380D01*
X33323690Y-64452380D01*
X33228452Y-64404761D01*
X33180833Y-64357142D01*
X34418928Y-63452380D02*
X34514166Y-63452380D01*
X34609404Y-63500000D01*
X34657023Y-63547619D01*
X34704642Y-63642857D01*
X34752261Y-63833333D01*
X34752261Y-64071428D01*
X34704642Y-64261904D01*
X34657023Y-64357142D01*
X34609404Y-64404761D01*
X34514166Y-64452380D01*
X34418928Y-64452380D01*
X34323690Y-64404761D01*
X34276071Y-64357142D01*
X34228452Y-64261904D01*
X34180833Y-64071428D01*
X34180833Y-63833333D01*
X34228452Y-63642857D01*
X34276071Y-63547619D01*
X34323690Y-63500000D01*
X34418928Y-63452380D01*
X25276071Y-65626190D02*
X25276071Y-66102380D01*
X24942738Y-65102380D02*
X25276071Y-65626190D01*
X25609404Y-65102380D01*
X26371309Y-66102380D02*
X26371309Y-65578571D01*
X26323690Y-65483333D01*
X26228452Y-65435714D01*
X26037976Y-65435714D01*
X25942738Y-65483333D01*
X26371309Y-66054761D02*
X26276071Y-66102380D01*
X26037976Y-66102380D01*
X25942738Y-66054761D01*
X25895119Y-65959523D01*
X25895119Y-65864285D01*
X25942738Y-65769047D01*
X26037976Y-65721428D01*
X26276071Y-65721428D01*
X26371309Y-65673809D01*
X26847500Y-65435714D02*
X26847500Y-66102380D01*
X26847500Y-65530952D02*
X26895119Y-65483333D01*
X26990357Y-65435714D01*
X27133214Y-65435714D01*
X27228452Y-65483333D01*
X27276071Y-65578571D01*
X27276071Y-66102380D01*
X27752261Y-65435714D02*
X27752261Y-66102380D01*
X27752261Y-65530952D02*
X27799880Y-65483333D01*
X27895119Y-65435714D01*
X28037976Y-65435714D01*
X28133214Y-65483333D01*
X28180833Y-65578571D01*
X28180833Y-66102380D01*
X28657023Y-66102380D02*
X28657023Y-65435714D01*
X28657023Y-65102380D02*
X28609404Y-65150000D01*
X28657023Y-65197619D01*
X28704642Y-65150000D01*
X28657023Y-65102380D01*
X28657023Y-65197619D01*
X29561785Y-66054761D02*
X29466547Y-66102380D01*
X29276071Y-66102380D01*
X29180833Y-66054761D01*
X29133214Y-66007142D01*
X29085595Y-65911904D01*
X29085595Y-65626190D01*
X29133214Y-65530952D01*
X29180833Y-65483333D01*
X29276071Y-65435714D01*
X29466547Y-65435714D01*
X29561785Y-65483333D01*
X29990357Y-66102380D02*
X29990357Y-65102380D01*
X30085595Y-65721428D02*
X30371309Y-66102380D01*
X30371309Y-65435714D02*
X29990357Y-65816666D01*
X31895119Y-65578571D02*
X32037976Y-65626190D01*
X32085595Y-65673809D01*
X32133214Y-65769047D01*
X32133214Y-65911904D01*
X32085595Y-66007142D01*
X32037976Y-66054761D01*
X31942738Y-66102380D01*
X31561785Y-66102380D01*
X31561785Y-65102380D01*
X31895119Y-65102380D01*
X31990357Y-65150000D01*
X32037976Y-65197619D01*
X32085595Y-65292857D01*
X32085595Y-65388095D01*
X32037976Y-65483333D01*
X31990357Y-65530952D01*
X31895119Y-65578571D01*
X31561785Y-65578571D01*
X32704642Y-66102380D02*
X32609404Y-66054761D01*
X32561785Y-66007142D01*
X32514166Y-65911904D01*
X32514166Y-65626190D01*
X32561785Y-65530952D01*
X32609404Y-65483333D01*
X32704642Y-65435714D01*
X32847500Y-65435714D01*
X32942738Y-65483333D01*
X32990357Y-65530952D01*
X33037976Y-65626190D01*
X33037976Y-65911904D01*
X32990357Y-66007142D01*
X32942738Y-66054761D01*
X32847500Y-66102380D01*
X32704642Y-66102380D01*
X33895119Y-66054761D02*
X33799880Y-66102380D01*
X33609404Y-66102380D01*
X33514166Y-66054761D01*
X33466547Y-66007142D01*
X33418928Y-65911904D01*
X33418928Y-65626190D01*
X33466547Y-65530952D01*
X33514166Y-65483333D01*
X33609404Y-65435714D01*
X33799880Y-65435714D01*
X33895119Y-65483333D01*
X34323690Y-66102380D02*
X34323690Y-65102380D01*
X34418928Y-65721428D02*
X34704642Y-66102380D01*
X34704642Y-65435714D02*
X34323690Y-65816666D01*
X195988095Y-65404761D02*
X195892857Y-65452380D01*
X195702380Y-65452380D01*
X195607142Y-65404761D01*
X195559523Y-65357142D01*
X195511904Y-65261904D01*
X195511904Y-64976190D01*
X195559523Y-64880952D01*
X195607142Y-64833333D01*
X195702380Y-64785714D01*
X195892857Y-64785714D01*
X195988095Y-64833333D01*
X196416666Y-65452380D02*
X196416666Y-64452380D01*
X196845238Y-65452380D02*
X196845238Y-64928571D01*
X196797619Y-64833333D01*
X196702380Y-64785714D01*
X196559523Y-64785714D01*
X196464285Y-64833333D01*
X196416666Y-64880952D01*
X197750000Y-65452380D02*
X197750000Y-64928571D01*
X197702380Y-64833333D01*
X197607142Y-64785714D01*
X197416666Y-64785714D01*
X197321428Y-64833333D01*
X197750000Y-65404761D02*
X197654761Y-65452380D01*
X197416666Y-65452380D01*
X197321428Y-65404761D01*
X197273809Y-65309523D01*
X197273809Y-65214285D01*
X197321428Y-65119047D01*
X197416666Y-65071428D01*
X197654761Y-65071428D01*
X197750000Y-65023809D01*
X198226190Y-64785714D02*
X198226190Y-65452380D01*
X198226190Y-64880952D02*
X198273809Y-64833333D01*
X198369047Y-64785714D01*
X198511904Y-64785714D01*
X198607142Y-64833333D01*
X198654761Y-64928571D01*
X198654761Y-65452380D01*
X199130952Y-64785714D02*
X199130952Y-65452380D01*
X199130952Y-64880952D02*
X199178571Y-64833333D01*
X199273809Y-64785714D01*
X199416666Y-64785714D01*
X199511904Y-64833333D01*
X199559523Y-64928571D01*
X199559523Y-65452380D01*
X200416666Y-65404761D02*
X200321428Y-65452380D01*
X200130952Y-65452380D01*
X200035714Y-65404761D01*
X199988095Y-65309523D01*
X199988095Y-64928571D01*
X200035714Y-64833333D01*
X200130952Y-64785714D01*
X200321428Y-64785714D01*
X200416666Y-64833333D01*
X200464285Y-64928571D01*
X200464285Y-65023809D01*
X199988095Y-65119047D01*
X201035714Y-65452380D02*
X200940476Y-65404761D01*
X200892857Y-65309523D01*
X200892857Y-64452380D01*
X178130952Y-65452380D02*
X178130952Y-64785714D01*
X178130952Y-64880952D02*
X178178571Y-64833333D01*
X178273809Y-64785714D01*
X178416666Y-64785714D01*
X178511904Y-64833333D01*
X178559523Y-64928571D01*
X178559523Y-65452380D01*
X178559523Y-64928571D02*
X178607142Y-64833333D01*
X178702380Y-64785714D01*
X178845238Y-64785714D01*
X178940476Y-64833333D01*
X178988095Y-64928571D01*
X178988095Y-65452380D01*
X179607142Y-65452380D02*
X179511904Y-65404761D01*
X179464285Y-65357142D01*
X179416666Y-65261904D01*
X179416666Y-64976190D01*
X179464285Y-64880952D01*
X179511904Y-64833333D01*
X179607142Y-64785714D01*
X179750000Y-64785714D01*
X179845238Y-64833333D01*
X179892857Y-64880952D01*
X179940476Y-64976190D01*
X179940476Y-65261904D01*
X179892857Y-65357142D01*
X179845238Y-65404761D01*
X179750000Y-65452380D01*
X179607142Y-65452380D01*
X180369047Y-64785714D02*
X180369047Y-65452380D01*
X180369047Y-64880952D02*
X180416666Y-64833333D01*
X180511904Y-64785714D01*
X180654761Y-64785714D01*
X180750000Y-64833333D01*
X180797619Y-64928571D01*
X180797619Y-65452380D01*
X181273809Y-65452380D02*
X181273809Y-64785714D01*
X181273809Y-64452380D02*
X181226190Y-64500000D01*
X181273809Y-64547619D01*
X181321428Y-64500000D01*
X181273809Y-64452380D01*
X181273809Y-64547619D01*
X181607142Y-64785714D02*
X181988095Y-64785714D01*
X181750000Y-64452380D02*
X181750000Y-65309523D01*
X181797619Y-65404761D01*
X181892857Y-65452380D01*
X181988095Y-65452380D01*
X182464285Y-65452380D02*
X182369047Y-65404761D01*
X182321428Y-65357142D01*
X182273809Y-65261904D01*
X182273809Y-64976190D01*
X182321428Y-64880952D01*
X182369047Y-64833333D01*
X182464285Y-64785714D01*
X182607142Y-64785714D01*
X182702380Y-64833333D01*
X182750000Y-64880952D01*
X182797619Y-64976190D01*
X182797619Y-65261904D01*
X182750000Y-65357142D01*
X182702380Y-65404761D01*
X182607142Y-65452380D01*
X182464285Y-65452380D01*
X183226190Y-65452380D02*
X183226190Y-64785714D01*
X183226190Y-64976190D02*
X183273809Y-64880952D01*
X183321428Y-64833333D01*
X183416666Y-64785714D01*
X183511904Y-64785714D01*
X162750000Y-65452380D02*
X162750000Y-64928571D01*
X162702380Y-64833333D01*
X162607142Y-64785714D01*
X162416666Y-64785714D01*
X162321428Y-64833333D01*
X162750000Y-65404761D02*
X162654761Y-65452380D01*
X162416666Y-65452380D01*
X162321428Y-65404761D01*
X162273809Y-65309523D01*
X162273809Y-65214285D01*
X162321428Y-65119047D01*
X162416666Y-65071428D01*
X162654761Y-65071428D01*
X162750000Y-65023809D01*
X163083333Y-64785714D02*
X163464285Y-64785714D01*
X163226190Y-65452380D02*
X163226190Y-64595238D01*
X163273809Y-64500000D01*
X163369047Y-64452380D01*
X163464285Y-64452380D01*
X164226190Y-65404761D02*
X164130952Y-65452380D01*
X163940476Y-65452380D01*
X163845238Y-65404761D01*
X163797619Y-65357142D01*
X163750000Y-65261904D01*
X163750000Y-64976190D01*
X163797619Y-64880952D01*
X163845238Y-64833333D01*
X163940476Y-64785714D01*
X164130952Y-64785714D01*
X164226190Y-64833333D01*
X143440476Y-65452380D02*
X143440476Y-64785714D01*
X143440476Y-64880952D02*
X143488095Y-64833333D01*
X143583333Y-64785714D01*
X143726190Y-64785714D01*
X143821428Y-64833333D01*
X143869047Y-64928571D01*
X143869047Y-65452380D01*
X143869047Y-64928571D02*
X143916666Y-64833333D01*
X144011904Y-64785714D01*
X144154761Y-64785714D01*
X144250000Y-64833333D01*
X144297619Y-64928571D01*
X144297619Y-65452380D01*
X145202380Y-64785714D02*
X145202380Y-65452380D01*
X144773809Y-64785714D02*
X144773809Y-65309523D01*
X144821428Y-65404761D01*
X144916666Y-65452380D01*
X145059523Y-65452380D01*
X145154761Y-65404761D01*
X145202380Y-65357142D01*
X145535714Y-64785714D02*
X145916666Y-64785714D01*
X145678571Y-64452380D02*
X145678571Y-65309523D01*
X145726190Y-65404761D01*
X145821428Y-65452380D01*
X145916666Y-65452380D01*
X146250000Y-65452380D02*
X146250000Y-64785714D01*
X146250000Y-64452380D02*
X146202380Y-64500000D01*
X146250000Y-64547619D01*
X146297619Y-64500000D01*
X146250000Y-64452380D01*
X146250000Y-64547619D01*
X146726190Y-64785714D02*
X146726190Y-65452380D01*
X146726190Y-64880952D02*
X146773809Y-64833333D01*
X146869047Y-64785714D01*
X147011904Y-64785714D01*
X147107142Y-64833333D01*
X147154761Y-64928571D01*
X147154761Y-65452380D01*
X148059523Y-64785714D02*
X148059523Y-65595238D01*
X148011904Y-65690476D01*
X147964285Y-65738095D01*
X147869047Y-65785714D01*
X147726190Y-65785714D01*
X147630952Y-65738095D01*
X148059523Y-65404761D02*
X147964285Y-65452380D01*
X147773809Y-65452380D01*
X147678571Y-65404761D01*
X147630952Y-65357142D01*
X147583333Y-65261904D01*
X147583333Y-64976190D01*
X147630952Y-64880952D01*
X147678571Y-64833333D01*
X147773809Y-64785714D01*
X147964285Y-64785714D01*
X148059523Y-64833333D01*
X126464285Y-65452380D02*
X126464285Y-64785714D01*
X126464285Y-64880952D02*
X126511904Y-64833333D01*
X126607142Y-64785714D01*
X126750000Y-64785714D01*
X126845238Y-64833333D01*
X126892857Y-64928571D01*
X126892857Y-65452380D01*
X126892857Y-64928571D02*
X126940476Y-64833333D01*
X127035714Y-64785714D01*
X127178571Y-64785714D01*
X127273809Y-64833333D01*
X127321428Y-64928571D01*
X127321428Y-65452380D01*
X127940476Y-65452380D02*
X127845238Y-65404761D01*
X127797619Y-65357142D01*
X127750000Y-65261904D01*
X127750000Y-64976190D01*
X127797619Y-64880952D01*
X127845238Y-64833333D01*
X127940476Y-64785714D01*
X128083333Y-64785714D01*
X128178571Y-64833333D01*
X128226190Y-64880952D01*
X128273809Y-64976190D01*
X128273809Y-65261904D01*
X128226190Y-65357142D01*
X128178571Y-65404761D01*
X128083333Y-65452380D01*
X127940476Y-65452380D01*
X128702380Y-64785714D02*
X128702380Y-65452380D01*
X128702380Y-64880952D02*
X128750000Y-64833333D01*
X128845238Y-64785714D01*
X128988095Y-64785714D01*
X129083333Y-64833333D01*
X129130952Y-64928571D01*
X129130952Y-65452380D01*
X129750000Y-65452380D02*
X129654761Y-65404761D01*
X129607142Y-65357142D01*
X129559523Y-65261904D01*
X129559523Y-64976190D01*
X129607142Y-64880952D01*
X129654761Y-64833333D01*
X129750000Y-64785714D01*
X129892857Y-64785714D01*
X129988095Y-64833333D01*
X130035714Y-64880952D01*
X130083333Y-64976190D01*
X130083333Y-65261904D01*
X130035714Y-65357142D01*
X129988095Y-65404761D01*
X129892857Y-65452380D01*
X129750000Y-65452380D01*
X109011904Y-64785714D02*
X109011904Y-65452380D01*
X109011904Y-64880952D02*
X109059523Y-64833333D01*
X109154761Y-64785714D01*
X109297619Y-64785714D01*
X109392857Y-64833333D01*
X109440476Y-64928571D01*
X109440476Y-65452380D01*
X110059523Y-65452380D02*
X109964285Y-65404761D01*
X109916666Y-65357142D01*
X109869047Y-65261904D01*
X109869047Y-64976190D01*
X109916666Y-64880952D01*
X109964285Y-64833333D01*
X110059523Y-64785714D01*
X110202380Y-64785714D01*
X110297619Y-64833333D01*
X110345238Y-64880952D01*
X110392857Y-64976190D01*
X110392857Y-65261904D01*
X110345238Y-65357142D01*
X110297619Y-65404761D01*
X110202380Y-65452380D01*
X110059523Y-65452380D01*
X110821428Y-65452380D02*
X110821428Y-64785714D01*
X110821428Y-64452380D02*
X110773809Y-64500000D01*
X110821428Y-64547619D01*
X110869047Y-64500000D01*
X110821428Y-64452380D01*
X110821428Y-64547619D01*
X111250000Y-65404761D02*
X111345238Y-65452380D01*
X111535714Y-65452380D01*
X111630952Y-65404761D01*
X111678571Y-65309523D01*
X111678571Y-65261904D01*
X111630952Y-65166666D01*
X111535714Y-65119047D01*
X111392857Y-65119047D01*
X111297619Y-65071428D01*
X111250000Y-64976190D01*
X111250000Y-64928571D01*
X111297619Y-64833333D01*
X111392857Y-64785714D01*
X111535714Y-64785714D01*
X111630952Y-64833333D01*
X112488095Y-65404761D02*
X112392857Y-65452380D01*
X112202380Y-65452380D01*
X112107142Y-65404761D01*
X112059523Y-65309523D01*
X112059523Y-64928571D01*
X112107142Y-64833333D01*
X112202380Y-64785714D01*
X112392857Y-64785714D01*
X112488095Y-64833333D01*
X112535714Y-64928571D01*
X112535714Y-65023809D01*
X112059523Y-65119047D01*
X90916666Y-65452380D02*
X90916666Y-64785714D01*
X90916666Y-64976190D02*
X90964285Y-64880952D01*
X91011904Y-64833333D01*
X91107142Y-64785714D01*
X91202380Y-64785714D01*
X91964285Y-64785714D02*
X91964285Y-65452380D01*
X91535714Y-64785714D02*
X91535714Y-65309523D01*
X91583333Y-65404761D01*
X91678571Y-65452380D01*
X91821428Y-65452380D01*
X91916666Y-65404761D01*
X91964285Y-65357142D01*
X92440476Y-65452380D02*
X92440476Y-64785714D01*
X92440476Y-64880952D02*
X92488095Y-64833333D01*
X92583333Y-64785714D01*
X92726190Y-64785714D01*
X92821428Y-64833333D01*
X92869047Y-64928571D01*
X92869047Y-65452380D01*
X92869047Y-64928571D02*
X92916666Y-64833333D01*
X93011904Y-64785714D01*
X93154761Y-64785714D01*
X93250000Y-64833333D01*
X93297619Y-64928571D01*
X93297619Y-65452380D01*
X93773809Y-65452380D02*
X93773809Y-64452380D01*
X93773809Y-64833333D02*
X93869047Y-64785714D01*
X94059523Y-64785714D01*
X94154761Y-64833333D01*
X94202380Y-64880952D01*
X94250000Y-64976190D01*
X94250000Y-65261904D01*
X94202380Y-65357142D01*
X94154761Y-65404761D01*
X94059523Y-65452380D01*
X93869047Y-65452380D01*
X93773809Y-65404761D01*
X94821428Y-65452380D02*
X94726190Y-65404761D01*
X94678571Y-65309523D01*
X94678571Y-64452380D01*
X95583333Y-65404761D02*
X95488095Y-65452380D01*
X95297619Y-65452380D01*
X95202380Y-65404761D01*
X95154761Y-65309523D01*
X95154761Y-64928571D01*
X95202380Y-64833333D01*
X95297619Y-64785714D01*
X95488095Y-64785714D01*
X95583333Y-64833333D01*
X95630952Y-64928571D01*
X95630952Y-65023809D01*
X95154761Y-65119047D01*
X72654761Y-64785714D02*
X72654761Y-65785714D01*
X72654761Y-64833333D02*
X72750000Y-64785714D01*
X72940476Y-64785714D01*
X73035714Y-64833333D01*
X73083333Y-64880952D01*
X73130952Y-64976190D01*
X73130952Y-65261904D01*
X73083333Y-65357142D01*
X73035714Y-65404761D01*
X72940476Y-65452380D01*
X72750000Y-65452380D01*
X72654761Y-65404761D01*
X73559523Y-65452380D02*
X73559523Y-64785714D01*
X73559523Y-64976190D02*
X73607142Y-64880952D01*
X73654761Y-64833333D01*
X73750000Y-64785714D01*
X73845238Y-64785714D01*
X74559523Y-65404761D02*
X74464285Y-65452380D01*
X74273809Y-65452380D01*
X74178571Y-65404761D01*
X74130952Y-65309523D01*
X74130952Y-64928571D01*
X74178571Y-64833333D01*
X74273809Y-64785714D01*
X74464285Y-64785714D01*
X74559523Y-64833333D01*
X74607142Y-64928571D01*
X74607142Y-65023809D01*
X74130952Y-65119047D01*
X74988095Y-65404761D02*
X75083333Y-65452380D01*
X75273809Y-65452380D01*
X75369047Y-65404761D01*
X75416666Y-65309523D01*
X75416666Y-65261904D01*
X75369047Y-65166666D01*
X75273809Y-65119047D01*
X75130952Y-65119047D01*
X75035714Y-65071428D01*
X74988095Y-64976190D01*
X74988095Y-64928571D01*
X75035714Y-64833333D01*
X75130952Y-64785714D01*
X75273809Y-64785714D01*
X75369047Y-64833333D01*
X76226190Y-65404761D02*
X76130952Y-65452380D01*
X75940476Y-65452380D01*
X75845238Y-65404761D01*
X75797619Y-65309523D01*
X75797619Y-64928571D01*
X75845238Y-64833333D01*
X75940476Y-64785714D01*
X76130952Y-64785714D01*
X76226190Y-64833333D01*
X76273809Y-64928571D01*
X76273809Y-65023809D01*
X75797619Y-65119047D01*
X76702380Y-64785714D02*
X76702380Y-65452380D01*
X76702380Y-64880952D02*
X76750000Y-64833333D01*
X76845238Y-64785714D01*
X76988095Y-64785714D01*
X77083333Y-64833333D01*
X77130952Y-64928571D01*
X77130952Y-65452380D01*
X78035714Y-65404761D02*
X77940476Y-65452380D01*
X77750000Y-65452380D01*
X77654761Y-65404761D01*
X77607142Y-65357142D01*
X77559523Y-65261904D01*
X77559523Y-64976190D01*
X77607142Y-64880952D01*
X77654761Y-64833333D01*
X77750000Y-64785714D01*
X77940476Y-64785714D01*
X78035714Y-64833333D01*
X78845238Y-65404761D02*
X78750000Y-65452380D01*
X78559523Y-65452380D01*
X78464285Y-65404761D01*
X78416666Y-65309523D01*
X78416666Y-64928571D01*
X78464285Y-64833333D01*
X78559523Y-64785714D01*
X78750000Y-64785714D01*
X78845238Y-64833333D01*
X78892857Y-64928571D01*
X78892857Y-65023809D01*
X78416666Y-65119047D01*
X55321428Y-65452380D02*
X55226190Y-65404761D01*
X55178571Y-65309523D01*
X55178571Y-64452380D01*
X55845238Y-65452380D02*
X55750000Y-65404761D01*
X55702380Y-65357142D01*
X55654761Y-65261904D01*
X55654761Y-64976190D01*
X55702380Y-64880952D01*
X55750000Y-64833333D01*
X55845238Y-64785714D01*
X55988095Y-64785714D01*
X56083333Y-64833333D01*
X56130952Y-64880952D01*
X56178571Y-64976190D01*
X56178571Y-65261904D01*
X56130952Y-65357142D01*
X56083333Y-65404761D01*
X55988095Y-65452380D01*
X55845238Y-65452380D01*
X57035714Y-64785714D02*
X57035714Y-65452380D01*
X56607142Y-64785714D02*
X56607142Y-65309523D01*
X56654761Y-65404761D01*
X56750000Y-65452380D01*
X56892857Y-65452380D01*
X56988095Y-65404761D01*
X57035714Y-65357142D01*
X57940476Y-65452380D02*
X57940476Y-64452380D01*
X57940476Y-65404761D02*
X57845238Y-65452380D01*
X57654761Y-65452380D01*
X57559523Y-65404761D01*
X57511904Y-65357142D01*
X57464285Y-65261904D01*
X57464285Y-64976190D01*
X57511904Y-64880952D01*
X57559523Y-64833333D01*
X57654761Y-64785714D01*
X57845238Y-64785714D01*
X57940476Y-64833333D01*
X58416666Y-64785714D02*
X58416666Y-65452380D01*
X58416666Y-64880952D02*
X58464285Y-64833333D01*
X58559523Y-64785714D01*
X58702380Y-64785714D01*
X58797619Y-64833333D01*
X58845238Y-64928571D01*
X58845238Y-65452380D01*
X59702380Y-65404761D02*
X59607142Y-65452380D01*
X59416666Y-65452380D01*
X59321428Y-65404761D01*
X59273809Y-65309523D01*
X59273809Y-64928571D01*
X59321428Y-64833333D01*
X59416666Y-64785714D01*
X59607142Y-64785714D01*
X59702380Y-64833333D01*
X59750000Y-64928571D01*
X59750000Y-65023809D01*
X59273809Y-65119047D01*
X60130952Y-65404761D02*
X60226190Y-65452380D01*
X60416666Y-65452380D01*
X60511904Y-65404761D01*
X60559523Y-65309523D01*
X60559523Y-65261904D01*
X60511904Y-65166666D01*
X60416666Y-65119047D01*
X60273809Y-65119047D01*
X60178571Y-65071428D01*
X60130952Y-64976190D01*
X60130952Y-64928571D01*
X60178571Y-64833333D01*
X60273809Y-64785714D01*
X60416666Y-64785714D01*
X60511904Y-64833333D01*
X60940476Y-65404761D02*
X61035714Y-65452380D01*
X61226190Y-65452380D01*
X61321428Y-65404761D01*
X61369047Y-65309523D01*
X61369047Y-65261904D01*
X61321428Y-65166666D01*
X61226190Y-65119047D01*
X61083333Y-65119047D01*
X60988095Y-65071428D01*
X60940476Y-64976190D01*
X60940476Y-64928571D01*
X60988095Y-64833333D01*
X61083333Y-64785714D01*
X61226190Y-64785714D01*
X61321428Y-64833333D01*
X148476190Y-39952380D02*
X148476190Y-38952380D01*
X148476190Y-39333333D02*
X148571428Y-39285714D01*
X148761904Y-39285714D01*
X148857142Y-39333333D01*
X148904761Y-39380952D01*
X148952380Y-39476190D01*
X148952380Y-39761904D01*
X148904761Y-39857142D01*
X148857142Y-39904761D01*
X148761904Y-39952380D01*
X148571428Y-39952380D01*
X148476190Y-39904761D01*
X149380952Y-39952380D02*
X149380952Y-39285714D01*
X149380952Y-39476190D02*
X149428571Y-39380952D01*
X149476190Y-39333333D01*
X149571428Y-39285714D01*
X149666666Y-39285714D01*
X127894285Y-39285714D02*
X128084761Y-39952380D01*
X128275238Y-39476190D01*
X128465714Y-39952380D01*
X128656190Y-39285714D01*
X128989523Y-39904761D02*
X129084761Y-39952380D01*
X129275238Y-39952380D01*
X129370476Y-39904761D01*
X129418095Y-39809523D01*
X129418095Y-39761904D01*
X129370476Y-39666666D01*
X129275238Y-39619047D01*
X129132380Y-39619047D01*
X129037142Y-39571428D01*
X128989523Y-39476190D01*
X128989523Y-39428571D01*
X129037142Y-39333333D01*
X129132380Y-39285714D01*
X129275238Y-39285714D01*
X129370476Y-39333333D01*
X121476190Y-39952380D02*
X121476190Y-38952380D01*
X121476190Y-39333333D02*
X121571428Y-39285714D01*
X121761904Y-39285714D01*
X121857142Y-39333333D01*
X121904761Y-39380952D01*
X121952380Y-39476190D01*
X121952380Y-39761904D01*
X121904761Y-39857142D01*
X121857142Y-39904761D01*
X121761904Y-39952380D01*
X121571428Y-39952380D01*
X121476190Y-39904761D01*
X122380952Y-39952380D02*
X122380952Y-39285714D01*
X122380952Y-39476190D02*
X122428571Y-39380952D01*
X122476190Y-39333333D01*
X122571428Y-39285714D01*
X122666666Y-39285714D01*
X111601904Y-39285714D02*
X111601904Y-40095238D01*
X111554285Y-40190476D01*
X111506666Y-40238095D01*
X111411428Y-40285714D01*
X111268571Y-40285714D01*
X111173333Y-40238095D01*
X111601904Y-39904761D02*
X111506666Y-39952380D01*
X111316190Y-39952380D01*
X111220952Y-39904761D01*
X111173333Y-39857142D01*
X111125714Y-39761904D01*
X111125714Y-39476190D01*
X111173333Y-39380952D01*
X111220952Y-39333333D01*
X111316190Y-39285714D01*
X111506666Y-39285714D01*
X111601904Y-39333333D01*
X112078095Y-39285714D02*
X112078095Y-39952380D01*
X112078095Y-39380952D02*
X112125714Y-39333333D01*
X112220952Y-39285714D01*
X112363809Y-39285714D01*
X112459047Y-39333333D01*
X112506666Y-39428571D01*
X112506666Y-39952380D01*
X104636190Y-39952380D02*
X104636190Y-38952380D01*
X104636190Y-39333333D02*
X104731428Y-39285714D01*
X104921904Y-39285714D01*
X105017142Y-39333333D01*
X105064761Y-39380952D01*
X105112380Y-39476190D01*
X105112380Y-39761904D01*
X105064761Y-39857142D01*
X105017142Y-39904761D01*
X104921904Y-39952380D01*
X104731428Y-39952380D01*
X104636190Y-39904761D01*
X105540952Y-39952380D02*
X105540952Y-39285714D01*
X105540952Y-39476190D02*
X105588571Y-39380952D01*
X105636190Y-39333333D01*
X105731428Y-39285714D01*
X105826666Y-39285714D01*
X94761904Y-39285714D02*
X94761904Y-40095238D01*
X94714285Y-40190476D01*
X94666666Y-40238095D01*
X94571428Y-40285714D01*
X94428571Y-40285714D01*
X94333333Y-40238095D01*
X94761904Y-39904761D02*
X94666666Y-39952380D01*
X94476190Y-39952380D01*
X94380952Y-39904761D01*
X94333333Y-39857142D01*
X94285714Y-39761904D01*
X94285714Y-39476190D01*
X94333333Y-39380952D01*
X94380952Y-39333333D01*
X94476190Y-39285714D01*
X94666666Y-39285714D01*
X94761904Y-39333333D01*
X95238095Y-39285714D02*
X95238095Y-39952380D01*
X95238095Y-39380952D02*
X95285714Y-39333333D01*
X95380952Y-39285714D01*
X95523809Y-39285714D01*
X95619047Y-39333333D01*
X95666666Y-39428571D01*
X95666666Y-39952380D01*
X28261904Y-45904761D02*
X28357142Y-45952380D01*
X28547619Y-45952380D01*
X28642857Y-45904761D01*
X28690476Y-45809523D01*
X28690476Y-45761904D01*
X28642857Y-45666666D01*
X28547619Y-45619047D01*
X28404761Y-45619047D01*
X28309523Y-45571428D01*
X28261904Y-45476190D01*
X28261904Y-45428571D01*
X28309523Y-45333333D01*
X28404761Y-45285714D01*
X28547619Y-45285714D01*
X28642857Y-45333333D01*
X29023809Y-45285714D02*
X29214285Y-45952380D01*
X29404761Y-45476190D01*
X29595238Y-45952380D01*
X29785714Y-45285714D01*
X34785714Y-37785714D02*
X34785714Y-38595238D01*
X34738095Y-38690476D01*
X34690476Y-38738095D01*
X34595238Y-38785714D01*
X34452380Y-38785714D01*
X34357142Y-38738095D01*
X34785714Y-38404761D02*
X34690476Y-38452380D01*
X34500000Y-38452380D01*
X34404761Y-38404761D01*
X34357142Y-38357142D01*
X34309523Y-38261904D01*
X34309523Y-37976190D01*
X34357142Y-37880952D01*
X34404761Y-37833333D01*
X34500000Y-37785714D01*
X34690476Y-37785714D01*
X34785714Y-37833333D01*
X35642857Y-38404761D02*
X35547619Y-38452380D01*
X35357142Y-38452380D01*
X35261904Y-38404761D01*
X35214285Y-38309523D01*
X35214285Y-37928571D01*
X35261904Y-37833333D01*
X35357142Y-37785714D01*
X35547619Y-37785714D01*
X35642857Y-37833333D01*
X35690476Y-37928571D01*
X35690476Y-38023809D01*
X35214285Y-38119047D01*
X30761904Y-32285714D02*
X30761904Y-33095238D01*
X30714285Y-33190476D01*
X30666666Y-33238095D01*
X30571428Y-33285714D01*
X30428571Y-33285714D01*
X30333333Y-33238095D01*
X30761904Y-32904761D02*
X30666666Y-32952380D01*
X30476190Y-32952380D01*
X30380952Y-32904761D01*
X30333333Y-32857142D01*
X30285714Y-32761904D01*
X30285714Y-32476190D01*
X30333333Y-32380952D01*
X30380952Y-32333333D01*
X30476190Y-32285714D01*
X30666666Y-32285714D01*
X30761904Y-32333333D01*
X31238095Y-32285714D02*
X31238095Y-32952380D01*
X31238095Y-32380952D02*
X31285714Y-32333333D01*
X31380952Y-32285714D01*
X31523809Y-32285714D01*
X31619047Y-32333333D01*
X31666666Y-32428571D01*
X31666666Y-32952380D01*
X220761904Y-50404761D02*
X220857142Y-50452380D01*
X221047619Y-50452380D01*
X221142857Y-50404761D01*
X221190476Y-50309523D01*
X221190476Y-50261904D01*
X221142857Y-50166666D01*
X221047619Y-50119047D01*
X220904761Y-50119047D01*
X220809523Y-50071428D01*
X220761904Y-49976190D01*
X220761904Y-49928571D01*
X220809523Y-49833333D01*
X220904761Y-49785714D01*
X221047619Y-49785714D01*
X221142857Y-49833333D01*
X221523809Y-49785714D02*
X221714285Y-50452380D01*
X221904761Y-49976190D01*
X222095238Y-50452380D01*
X222285714Y-49785714D01*
X221142857Y-42952380D02*
X221142857Y-42285714D01*
X221142857Y-42476190D02*
X221190476Y-42380952D01*
X221238095Y-42333333D01*
X221333333Y-42285714D01*
X221428571Y-42285714D01*
X221619047Y-42285714D02*
X222000000Y-42285714D01*
X221761904Y-41952380D02*
X221761904Y-42809523D01*
X221809523Y-42904761D01*
X221904761Y-42952380D01*
X222000000Y-42952380D01*
X216976190Y-37452380D02*
X216976190Y-36452380D01*
X216976190Y-36833333D02*
X217071428Y-36785714D01*
X217261904Y-36785714D01*
X217357142Y-36833333D01*
X217404761Y-36880952D01*
X217452380Y-36976190D01*
X217452380Y-37261904D01*
X217404761Y-37357142D01*
X217357142Y-37404761D01*
X217261904Y-37452380D01*
X217071428Y-37452380D01*
X216976190Y-37404761D01*
X217880952Y-37452380D02*
X217880952Y-36785714D01*
X217880952Y-36976190D02*
X217928571Y-36880952D01*
X217976190Y-36833333D01*
X218071428Y-36785714D01*
X218166666Y-36785714D01*
D11*
X188940000Y-62060000D02*
X188940000Y-56940000D01*
X191560000Y-62060000D02*
X191560000Y-56940000D01*
X188940000Y-62060000D02*
X189254000Y-62060000D01*
X191246000Y-62060000D02*
X191560000Y-62060000D01*
X188940000Y-56940000D02*
X189254000Y-56940000D01*
X191246000Y-56940000D02*
X191560000Y-56940000D01*
X171440000Y-62060000D02*
X171440000Y-56940000D01*
X174060000Y-62060000D02*
X174060000Y-56940000D01*
X171440000Y-62060000D02*
X171754000Y-62060000D01*
X173746000Y-62060000D02*
X174060000Y-62060000D01*
X171440000Y-56940000D02*
X171754000Y-56940000D01*
X173746000Y-56940000D02*
X174060000Y-56940000D01*
X118940000Y-62060000D02*
X118940000Y-56940000D01*
X121560000Y-62060000D02*
X121560000Y-56940000D01*
X118940000Y-62060000D02*
X119254000Y-62060000D01*
X121246000Y-62060000D02*
X121560000Y-62060000D01*
X118940000Y-56940000D02*
X119254000Y-56940000D01*
X121246000Y-56940000D02*
X121560000Y-56940000D01*
X153940000Y-62060000D02*
X153940000Y-56940000D01*
X156560000Y-62060000D02*
X156560000Y-56940000D01*
X153940000Y-62060000D02*
X154254000Y-62060000D01*
X156246000Y-62060000D02*
X156560000Y-62060000D01*
X153940000Y-56940000D02*
X154254000Y-56940000D01*
X156246000Y-56940000D02*
X156560000Y-56940000D01*
X136440000Y-62060000D02*
X136440000Y-56940000D01*
X139060000Y-62060000D02*
X139060000Y-56940000D01*
X136440000Y-62060000D02*
X136754000Y-62060000D01*
X138746000Y-62060000D02*
X139060000Y-62060000D01*
X136440000Y-56940000D02*
X136754000Y-56940000D01*
X138746000Y-56940000D02*
X139060000Y-56940000D01*
X101440000Y-62060000D02*
X101440000Y-56940000D01*
X104060000Y-62060000D02*
X104060000Y-56940000D01*
X101440000Y-62060000D02*
X101754000Y-62060000D01*
X103746000Y-62060000D02*
X104060000Y-62060000D01*
X101440000Y-56940000D02*
X101754000Y-56940000D01*
X103746000Y-56940000D02*
X104060000Y-56940000D01*
X83940000Y-62060000D02*
X83940000Y-56940000D01*
X86560000Y-62060000D02*
X86560000Y-56940000D01*
X83940000Y-62060000D02*
X84254000Y-62060000D01*
X86246000Y-62060000D02*
X86560000Y-62060000D01*
X83940000Y-56940000D02*
X84254000Y-56940000D01*
X86246000Y-56940000D02*
X86560000Y-56940000D01*
X66440000Y-62060000D02*
X66440000Y-56940000D01*
X69060000Y-62060000D02*
X69060000Y-56940000D01*
X66440000Y-62060000D02*
X66754000Y-62060000D01*
X68746000Y-62060000D02*
X69060000Y-62060000D01*
X66440000Y-56940000D02*
X66754000Y-56940000D01*
X68746000Y-56940000D02*
X69060000Y-56940000D01*
X48940000Y-62060000D02*
X48940000Y-56940000D01*
X51560000Y-62060000D02*
X51560000Y-56940000D01*
X48940000Y-62060000D02*
X49254000Y-62060000D01*
X51246000Y-62060000D02*
X51560000Y-62060000D01*
X48940000Y-56940000D02*
X49254000Y-56940000D01*
X51246000Y-56940000D02*
X51560000Y-56940000D01*
D10*
X64250000Y-63000000D02*
X52250000Y-63000000D01*
X52250000Y-63000000D02*
X52250000Y-51000000D01*
X52250000Y-51000000D02*
X64250000Y-51000000D01*
X64250000Y-51000000D02*
X64250000Y-63000000D01*
X204250000Y-63000000D02*
X192250000Y-63000000D01*
X192250000Y-63000000D02*
X192250000Y-51000000D01*
X192250000Y-51000000D02*
X204250000Y-51000000D01*
X204250000Y-51000000D02*
X204250000Y-63000000D01*
X99250000Y-63000000D02*
X87250000Y-63000000D01*
X87250000Y-63000000D02*
X87250000Y-51000000D01*
X87250000Y-51000000D02*
X99250000Y-51000000D01*
X99250000Y-51000000D02*
X99250000Y-63000000D01*
X116750000Y-63000000D02*
X104750000Y-63000000D01*
X104750000Y-63000000D02*
X104750000Y-51000000D01*
X104750000Y-51000000D02*
X116750000Y-51000000D01*
X116750000Y-51000000D02*
X116750000Y-63000000D01*
X151750000Y-63000000D02*
X139750000Y-63000000D01*
X139750000Y-63000000D02*
X139750000Y-51000000D01*
X139750000Y-51000000D02*
X151750000Y-51000000D01*
X151750000Y-51000000D02*
X151750000Y-63000000D01*
X169250000Y-63000000D02*
X157250000Y-63000000D01*
X157250000Y-63000000D02*
X157250000Y-51000000D01*
X157250000Y-51000000D02*
X169250000Y-51000000D01*
X169250000Y-51000000D02*
X169250000Y-63000000D01*
X134250000Y-63000000D02*
X122250000Y-63000000D01*
X122250000Y-63000000D02*
X122250000Y-51000000D01*
X122250000Y-51000000D02*
X134250000Y-51000000D01*
X134250000Y-51000000D02*
X134250000Y-63000000D01*
X186750000Y-63000000D02*
X174750000Y-63000000D01*
X174750000Y-63000000D02*
X174750000Y-51000000D01*
X174750000Y-51000000D02*
X186750000Y-51000000D01*
X186750000Y-51000000D02*
X186750000Y-63000000D01*
X81750000Y-63000000D02*
X69750000Y-63000000D01*
X69750000Y-63000000D02*
X69750000Y-51000000D01*
X69750000Y-51000000D02*
X81750000Y-51000000D01*
X81750000Y-51000000D02*
X81750000Y-63000000D01*
D11*
X74210000Y-45764000D02*
X74210000Y-45920000D01*
X74210000Y-48080000D02*
X74210000Y-48236000D01*
X77442335Y-45921392D02*
G75*
G03*
X74210000Y-45764484I-1672335J-1078608D01*
G01*
X77442335Y-48078608D02*
G75*
G02*
X74210000Y-48235516I-1672335J1078608D01*
G01*
X76811130Y-45920163D02*
G75*
G03*
X74729039Y-45920000I-1041130J-1079837D01*
G01*
X76811130Y-48079837D02*
G75*
G02*
X74729039Y-48080000I-1041130J1079837D01*
G01*
X196710000Y-45764000D02*
X196710000Y-45920000D01*
X196710000Y-48080000D02*
X196710000Y-48236000D01*
X199942335Y-45921392D02*
G75*
G03*
X196710000Y-45764484I-1672335J-1078608D01*
G01*
X199942335Y-48078608D02*
G75*
G02*
X196710000Y-48235516I-1672335J1078608D01*
G01*
X199311130Y-45920163D02*
G75*
G03*
X197229039Y-45920000I-1041130J-1079837D01*
G01*
X199311130Y-48079837D02*
G75*
G02*
X197229039Y-48080000I-1041130J1079837D01*
G01*
X161710000Y-45764000D02*
X161710000Y-45920000D01*
X161710000Y-48080000D02*
X161710000Y-48236000D01*
X164942335Y-45921392D02*
G75*
G03*
X161710000Y-45764484I-1672335J-1078608D01*
G01*
X164942335Y-48078608D02*
G75*
G02*
X161710000Y-48235516I-1672335J1078608D01*
G01*
X164311130Y-45920163D02*
G75*
G03*
X162229039Y-45920000I-1041130J-1079837D01*
G01*
X164311130Y-48079837D02*
G75*
G02*
X162229039Y-48080000I-1041130J1079837D01*
G01*
X144210000Y-45764000D02*
X144210000Y-45920000D01*
X144210000Y-48080000D02*
X144210000Y-48236000D01*
X147442335Y-45921392D02*
G75*
G03*
X144210000Y-45764484I-1672335J-1078608D01*
G01*
X147442335Y-48078608D02*
G75*
G02*
X144210000Y-48235516I-1672335J1078608D01*
G01*
X146811130Y-45920163D02*
G75*
G03*
X144729039Y-45920000I-1041130J-1079837D01*
G01*
X146811130Y-48079837D02*
G75*
G02*
X144729039Y-48080000I-1041130J1079837D01*
G01*
X109210000Y-45764000D02*
X109210000Y-45920000D01*
X109210000Y-48080000D02*
X109210000Y-48236000D01*
X112442335Y-45921392D02*
G75*
G03*
X109210000Y-45764484I-1672335J-1078608D01*
G01*
X112442335Y-48078608D02*
G75*
G02*
X109210000Y-48235516I-1672335J1078608D01*
G01*
X111811130Y-45920163D02*
G75*
G03*
X109729039Y-45920000I-1041130J-1079837D01*
G01*
X111811130Y-48079837D02*
G75*
G02*
X109729039Y-48080000I-1041130J1079837D01*
G01*
X179210000Y-45764000D02*
X179210000Y-45920000D01*
X179210000Y-48080000D02*
X179210000Y-48236000D01*
X182442335Y-45921392D02*
G75*
G03*
X179210000Y-45764484I-1672335J-1078608D01*
G01*
X182442335Y-48078608D02*
G75*
G02*
X179210000Y-48235516I-1672335J1078608D01*
G01*
X181811130Y-45920163D02*
G75*
G03*
X179729039Y-45920000I-1041130J-1079837D01*
G01*
X181811130Y-48079837D02*
G75*
G02*
X179729039Y-48080000I-1041130J1079837D01*
G01*
X126710000Y-45764000D02*
X126710000Y-45920000D01*
X126710000Y-48080000D02*
X126710000Y-48236000D01*
X129942335Y-45921392D02*
G75*
G03*
X126710000Y-45764484I-1672335J-1078608D01*
G01*
X129942335Y-48078608D02*
G75*
G02*
X126710000Y-48235516I-1672335J1078608D01*
G01*
X129311130Y-45920163D02*
G75*
G03*
X127229039Y-45920000I-1041130J-1079837D01*
G01*
X129311130Y-48079837D02*
G75*
G02*
X127229039Y-48080000I-1041130J1079837D01*
G01*
X91710000Y-45764000D02*
X91710000Y-45920000D01*
X91710000Y-48080000D02*
X91710000Y-48236000D01*
X94942335Y-45921392D02*
G75*
G03*
X91710000Y-45764484I-1672335J-1078608D01*
G01*
X94942335Y-48078608D02*
G75*
G02*
X91710000Y-48235516I-1672335J1078608D01*
G01*
X94311130Y-45920163D02*
G75*
G03*
X92229039Y-45920000I-1041130J-1079837D01*
G01*
X94311130Y-48079837D02*
G75*
G02*
X92229039Y-48080000I-1041130J1079837D01*
G01*
X29270000Y-23000000D02*
G75*
G03*
X29270000Y-23000000I-2500000J0D01*
G01*
X24210000Y-21455000D02*
X24210000Y-24545000D01*
X29760000Y-23000462D02*
G75*
G03*
X24210000Y-21455170I-2990000J462D01*
G01*
X29760000Y-22999538D02*
G75*
G02*
X24210000Y-24544830I-2990000J-462D01*
G01*
X56710000Y-45764000D02*
X56710000Y-45920000D01*
X56710000Y-48080000D02*
X56710000Y-48236000D01*
X59942335Y-45921392D02*
G75*
G03*
X56710000Y-45764484I-1672335J-1078608D01*
G01*
X59942335Y-48078608D02*
G75*
G02*
X56710000Y-48235516I-1672335J1078608D01*
G01*
X59311130Y-45920163D02*
G75*
G03*
X57229039Y-45920000I-1041130J-1079837D01*
G01*
X59311130Y-48079837D02*
G75*
G02*
X57229039Y-48080000I-1041130J1079837D01*
G01*
D10*
X188047142Y-61095238D02*
X188094761Y-61142857D01*
X188142380Y-61285714D01*
X188142380Y-61380952D01*
X188094761Y-61523809D01*
X187999523Y-61619047D01*
X187904285Y-61666666D01*
X187713809Y-61714285D01*
X187570952Y-61714285D01*
X187380476Y-61666666D01*
X187285238Y-61619047D01*
X187190000Y-61523809D01*
X187142380Y-61380952D01*
X187142380Y-61285714D01*
X187190000Y-61142857D01*
X187237619Y-61095238D01*
X188142380Y-60142857D02*
X188142380Y-60714285D01*
X188142380Y-60428571D02*
X187142380Y-60428571D01*
X187285238Y-60523809D01*
X187380476Y-60619047D01*
X187428095Y-60714285D01*
X188142380Y-59190476D02*
X188142380Y-59761904D01*
X188142380Y-59476190D02*
X187142380Y-59476190D01*
X187285238Y-59571428D01*
X187380476Y-59666666D01*
X187428095Y-59761904D01*
X188142380Y-58714285D02*
X188142380Y-58523809D01*
X188094761Y-58428571D01*
X188047142Y-58380952D01*
X187904285Y-58285714D01*
X187713809Y-58238095D01*
X187332857Y-58238095D01*
X187237619Y-58285714D01*
X187190000Y-58333333D01*
X187142380Y-58428571D01*
X187142380Y-58619047D01*
X187190000Y-58714285D01*
X187237619Y-58761904D01*
X187332857Y-58809523D01*
X187570952Y-58809523D01*
X187666190Y-58761904D01*
X187713809Y-58714285D01*
X187761428Y-58619047D01*
X187761428Y-58428571D01*
X187713809Y-58333333D01*
X187666190Y-58285714D01*
X187570952Y-58238095D01*
X187237619Y-57857142D02*
X187190000Y-57809523D01*
X187142380Y-57714285D01*
X187142380Y-57476190D01*
X187190000Y-57380952D01*
X187237619Y-57333333D01*
X187332857Y-57285714D01*
X187428095Y-57285714D01*
X187570952Y-57333333D01*
X188142380Y-57904761D01*
X188142380Y-57285714D01*
X170547142Y-61095238D02*
X170594761Y-61142857D01*
X170642380Y-61285714D01*
X170642380Y-61380952D01*
X170594761Y-61523809D01*
X170499523Y-61619047D01*
X170404285Y-61666666D01*
X170213809Y-61714285D01*
X170070952Y-61714285D01*
X169880476Y-61666666D01*
X169785238Y-61619047D01*
X169690000Y-61523809D01*
X169642380Y-61380952D01*
X169642380Y-61285714D01*
X169690000Y-61142857D01*
X169737619Y-61095238D01*
X170642380Y-60142857D02*
X170642380Y-60714285D01*
X170642380Y-60428571D02*
X169642380Y-60428571D01*
X169785238Y-60523809D01*
X169880476Y-60619047D01*
X169928095Y-60714285D01*
X170642380Y-59190476D02*
X170642380Y-59761904D01*
X170642380Y-59476190D02*
X169642380Y-59476190D01*
X169785238Y-59571428D01*
X169880476Y-59666666D01*
X169928095Y-59761904D01*
X170642380Y-58714285D02*
X170642380Y-58523809D01*
X170594761Y-58428571D01*
X170547142Y-58380952D01*
X170404285Y-58285714D01*
X170213809Y-58238095D01*
X169832857Y-58238095D01*
X169737619Y-58285714D01*
X169690000Y-58333333D01*
X169642380Y-58428571D01*
X169642380Y-58619047D01*
X169690000Y-58714285D01*
X169737619Y-58761904D01*
X169832857Y-58809523D01*
X170070952Y-58809523D01*
X170166190Y-58761904D01*
X170213809Y-58714285D01*
X170261428Y-58619047D01*
X170261428Y-58428571D01*
X170213809Y-58333333D01*
X170166190Y-58285714D01*
X170070952Y-58238095D01*
X170642380Y-57285714D02*
X170642380Y-57857142D01*
X170642380Y-57571428D02*
X169642380Y-57571428D01*
X169785238Y-57666666D01*
X169880476Y-57761904D01*
X169928095Y-57857142D01*
X118047142Y-61095238D02*
X118094761Y-61142857D01*
X118142380Y-61285714D01*
X118142380Y-61380952D01*
X118094761Y-61523809D01*
X117999523Y-61619047D01*
X117904285Y-61666666D01*
X117713809Y-61714285D01*
X117570952Y-61714285D01*
X117380476Y-61666666D01*
X117285238Y-61619047D01*
X117190000Y-61523809D01*
X117142380Y-61380952D01*
X117142380Y-61285714D01*
X117190000Y-61142857D01*
X117237619Y-61095238D01*
X118142380Y-60142857D02*
X118142380Y-60714285D01*
X118142380Y-60428571D02*
X117142380Y-60428571D01*
X117285238Y-60523809D01*
X117380476Y-60619047D01*
X117428095Y-60714285D01*
X118142380Y-59190476D02*
X118142380Y-59761904D01*
X118142380Y-59476190D02*
X117142380Y-59476190D01*
X117285238Y-59571428D01*
X117380476Y-59666666D01*
X117428095Y-59761904D01*
X117570952Y-58619047D02*
X117523333Y-58714285D01*
X117475714Y-58761904D01*
X117380476Y-58809523D01*
X117332857Y-58809523D01*
X117237619Y-58761904D01*
X117190000Y-58714285D01*
X117142380Y-58619047D01*
X117142380Y-58428571D01*
X117190000Y-58333333D01*
X117237619Y-58285714D01*
X117332857Y-58238095D01*
X117380476Y-58238095D01*
X117475714Y-58285714D01*
X117523333Y-58333333D01*
X117570952Y-58428571D01*
X117570952Y-58619047D01*
X117618571Y-58714285D01*
X117666190Y-58761904D01*
X117761428Y-58809523D01*
X117951904Y-58809523D01*
X118047142Y-58761904D01*
X118094761Y-58714285D01*
X118142380Y-58619047D01*
X118142380Y-58428571D01*
X118094761Y-58333333D01*
X118047142Y-58285714D01*
X117951904Y-58238095D01*
X117761428Y-58238095D01*
X117666190Y-58285714D01*
X117618571Y-58333333D01*
X117570952Y-58428571D01*
X117570952Y-57666666D02*
X117523333Y-57761904D01*
X117475714Y-57809523D01*
X117380476Y-57857142D01*
X117332857Y-57857142D01*
X117237619Y-57809523D01*
X117190000Y-57761904D01*
X117142380Y-57666666D01*
X117142380Y-57476190D01*
X117190000Y-57380952D01*
X117237619Y-57333333D01*
X117332857Y-57285714D01*
X117380476Y-57285714D01*
X117475714Y-57333333D01*
X117523333Y-57380952D01*
X117570952Y-57476190D01*
X117570952Y-57666666D01*
X117618571Y-57761904D01*
X117666190Y-57809523D01*
X117761428Y-57857142D01*
X117951904Y-57857142D01*
X118047142Y-57809523D01*
X118094761Y-57761904D01*
X118142380Y-57666666D01*
X118142380Y-57476190D01*
X118094761Y-57380952D01*
X118047142Y-57333333D01*
X117951904Y-57285714D01*
X117761428Y-57285714D01*
X117666190Y-57333333D01*
X117618571Y-57380952D01*
X117570952Y-57476190D01*
X153047142Y-61095238D02*
X153094761Y-61142857D01*
X153142380Y-61285714D01*
X153142380Y-61380952D01*
X153094761Y-61523809D01*
X152999523Y-61619047D01*
X152904285Y-61666666D01*
X152713809Y-61714285D01*
X152570952Y-61714285D01*
X152380476Y-61666666D01*
X152285238Y-61619047D01*
X152190000Y-61523809D01*
X152142380Y-61380952D01*
X152142380Y-61285714D01*
X152190000Y-61142857D01*
X152237619Y-61095238D01*
X153142380Y-60142857D02*
X153142380Y-60714285D01*
X153142380Y-60428571D02*
X152142380Y-60428571D01*
X152285238Y-60523809D01*
X152380476Y-60619047D01*
X152428095Y-60714285D01*
X153142380Y-59190476D02*
X153142380Y-59761904D01*
X153142380Y-59476190D02*
X152142380Y-59476190D01*
X152285238Y-59571428D01*
X152380476Y-59666666D01*
X152428095Y-59761904D01*
X152570952Y-58619047D02*
X152523333Y-58714285D01*
X152475714Y-58761904D01*
X152380476Y-58809523D01*
X152332857Y-58809523D01*
X152237619Y-58761904D01*
X152190000Y-58714285D01*
X152142380Y-58619047D01*
X152142380Y-58428571D01*
X152190000Y-58333333D01*
X152237619Y-58285714D01*
X152332857Y-58238095D01*
X152380476Y-58238095D01*
X152475714Y-58285714D01*
X152523333Y-58333333D01*
X152570952Y-58428571D01*
X152570952Y-58619047D01*
X152618571Y-58714285D01*
X152666190Y-58761904D01*
X152761428Y-58809523D01*
X152951904Y-58809523D01*
X153047142Y-58761904D01*
X153094761Y-58714285D01*
X153142380Y-58619047D01*
X153142380Y-58428571D01*
X153094761Y-58333333D01*
X153047142Y-58285714D01*
X152951904Y-58238095D01*
X152761428Y-58238095D01*
X152666190Y-58285714D01*
X152618571Y-58333333D01*
X152570952Y-58428571D01*
X152142380Y-57904761D02*
X152142380Y-57238095D01*
X153142380Y-57666666D01*
X135547142Y-61095238D02*
X135594761Y-61142857D01*
X135642380Y-61285714D01*
X135642380Y-61380952D01*
X135594761Y-61523809D01*
X135499523Y-61619047D01*
X135404285Y-61666666D01*
X135213809Y-61714285D01*
X135070952Y-61714285D01*
X134880476Y-61666666D01*
X134785238Y-61619047D01*
X134690000Y-61523809D01*
X134642380Y-61380952D01*
X134642380Y-61285714D01*
X134690000Y-61142857D01*
X134737619Y-61095238D01*
X135642380Y-60142857D02*
X135642380Y-60714285D01*
X135642380Y-60428571D02*
X134642380Y-60428571D01*
X134785238Y-60523809D01*
X134880476Y-60619047D01*
X134928095Y-60714285D01*
X135642380Y-59190476D02*
X135642380Y-59761904D01*
X135642380Y-59476190D02*
X134642380Y-59476190D01*
X134785238Y-59571428D01*
X134880476Y-59666666D01*
X134928095Y-59761904D01*
X135070952Y-58619047D02*
X135023333Y-58714285D01*
X134975714Y-58761904D01*
X134880476Y-58809523D01*
X134832857Y-58809523D01*
X134737619Y-58761904D01*
X134690000Y-58714285D01*
X134642380Y-58619047D01*
X134642380Y-58428571D01*
X134690000Y-58333333D01*
X134737619Y-58285714D01*
X134832857Y-58238095D01*
X134880476Y-58238095D01*
X134975714Y-58285714D01*
X135023333Y-58333333D01*
X135070952Y-58428571D01*
X135070952Y-58619047D01*
X135118571Y-58714285D01*
X135166190Y-58761904D01*
X135261428Y-58809523D01*
X135451904Y-58809523D01*
X135547142Y-58761904D01*
X135594761Y-58714285D01*
X135642380Y-58619047D01*
X135642380Y-58428571D01*
X135594761Y-58333333D01*
X135547142Y-58285714D01*
X135451904Y-58238095D01*
X135261428Y-58238095D01*
X135166190Y-58285714D01*
X135118571Y-58333333D01*
X135070952Y-58428571D01*
X134642380Y-57380952D02*
X134642380Y-57571428D01*
X134690000Y-57666666D01*
X134737619Y-57714285D01*
X134880476Y-57809523D01*
X135070952Y-57857142D01*
X135451904Y-57857142D01*
X135547142Y-57809523D01*
X135594761Y-57761904D01*
X135642380Y-57666666D01*
X135642380Y-57476190D01*
X135594761Y-57380952D01*
X135547142Y-57333333D01*
X135451904Y-57285714D01*
X135213809Y-57285714D01*
X135118571Y-57333333D01*
X135070952Y-57380952D01*
X135023333Y-57476190D01*
X135023333Y-57666666D01*
X135070952Y-57761904D01*
X135118571Y-57809523D01*
X135213809Y-57857142D01*
X100547142Y-61095238D02*
X100594761Y-61142857D01*
X100642380Y-61285714D01*
X100642380Y-61380952D01*
X100594761Y-61523809D01*
X100499523Y-61619047D01*
X100404285Y-61666666D01*
X100213809Y-61714285D01*
X100070952Y-61714285D01*
X99880476Y-61666666D01*
X99785238Y-61619047D01*
X99690000Y-61523809D01*
X99642380Y-61380952D01*
X99642380Y-61285714D01*
X99690000Y-61142857D01*
X99737619Y-61095238D01*
X100642380Y-60142857D02*
X100642380Y-60714285D01*
X100642380Y-60428571D02*
X99642380Y-60428571D01*
X99785238Y-60523809D01*
X99880476Y-60619047D01*
X99928095Y-60714285D01*
X100642380Y-59190476D02*
X100642380Y-59761904D01*
X100642380Y-59476190D02*
X99642380Y-59476190D01*
X99785238Y-59571428D01*
X99880476Y-59666666D01*
X99928095Y-59761904D01*
X100070952Y-58619047D02*
X100023333Y-58714285D01*
X99975714Y-58761904D01*
X99880476Y-58809523D01*
X99832857Y-58809523D01*
X99737619Y-58761904D01*
X99690000Y-58714285D01*
X99642380Y-58619047D01*
X99642380Y-58428571D01*
X99690000Y-58333333D01*
X99737619Y-58285714D01*
X99832857Y-58238095D01*
X99880476Y-58238095D01*
X99975714Y-58285714D01*
X100023333Y-58333333D01*
X100070952Y-58428571D01*
X100070952Y-58619047D01*
X100118571Y-58714285D01*
X100166190Y-58761904D01*
X100261428Y-58809523D01*
X100451904Y-58809523D01*
X100547142Y-58761904D01*
X100594761Y-58714285D01*
X100642380Y-58619047D01*
X100642380Y-58428571D01*
X100594761Y-58333333D01*
X100547142Y-58285714D01*
X100451904Y-58238095D01*
X100261428Y-58238095D01*
X100166190Y-58285714D01*
X100118571Y-58333333D01*
X100070952Y-58428571D01*
X99975714Y-57380952D02*
X100642380Y-57380952D01*
X99594761Y-57619047D02*
X100309047Y-57857142D01*
X100309047Y-57238095D01*
X83047142Y-61095238D02*
X83094761Y-61142857D01*
X83142380Y-61285714D01*
X83142380Y-61380952D01*
X83094761Y-61523809D01*
X82999523Y-61619047D01*
X82904285Y-61666666D01*
X82713809Y-61714285D01*
X82570952Y-61714285D01*
X82380476Y-61666666D01*
X82285238Y-61619047D01*
X82190000Y-61523809D01*
X82142380Y-61380952D01*
X82142380Y-61285714D01*
X82190000Y-61142857D01*
X82237619Y-61095238D01*
X83142380Y-60142857D02*
X83142380Y-60714285D01*
X83142380Y-60428571D02*
X82142380Y-60428571D01*
X82285238Y-60523809D01*
X82380476Y-60619047D01*
X82428095Y-60714285D01*
X83142380Y-59190476D02*
X83142380Y-59761904D01*
X83142380Y-59476190D02*
X82142380Y-59476190D01*
X82285238Y-59571428D01*
X82380476Y-59666666D01*
X82428095Y-59761904D01*
X82570952Y-58619047D02*
X82523333Y-58714285D01*
X82475714Y-58761904D01*
X82380476Y-58809523D01*
X82332857Y-58809523D01*
X82237619Y-58761904D01*
X82190000Y-58714285D01*
X82142380Y-58619047D01*
X82142380Y-58428571D01*
X82190000Y-58333333D01*
X82237619Y-58285714D01*
X82332857Y-58238095D01*
X82380476Y-58238095D01*
X82475714Y-58285714D01*
X82523333Y-58333333D01*
X82570952Y-58428571D01*
X82570952Y-58619047D01*
X82618571Y-58714285D01*
X82666190Y-58761904D01*
X82761428Y-58809523D01*
X82951904Y-58809523D01*
X83047142Y-58761904D01*
X83094761Y-58714285D01*
X83142380Y-58619047D01*
X83142380Y-58428571D01*
X83094761Y-58333333D01*
X83047142Y-58285714D01*
X82951904Y-58238095D01*
X82761428Y-58238095D01*
X82666190Y-58285714D01*
X82618571Y-58333333D01*
X82570952Y-58428571D01*
X82142380Y-57904761D02*
X82142380Y-57285714D01*
X82523333Y-57619047D01*
X82523333Y-57476190D01*
X82570952Y-57380952D01*
X82618571Y-57333333D01*
X82713809Y-57285714D01*
X82951904Y-57285714D01*
X83047142Y-57333333D01*
X83094761Y-57380952D01*
X83142380Y-57476190D01*
X83142380Y-57761904D01*
X83094761Y-57857142D01*
X83047142Y-57904761D01*
X65547142Y-61095238D02*
X65594761Y-61142857D01*
X65642380Y-61285714D01*
X65642380Y-61380952D01*
X65594761Y-61523809D01*
X65499523Y-61619047D01*
X65404285Y-61666666D01*
X65213809Y-61714285D01*
X65070952Y-61714285D01*
X64880476Y-61666666D01*
X64785238Y-61619047D01*
X64690000Y-61523809D01*
X64642380Y-61380952D01*
X64642380Y-61285714D01*
X64690000Y-61142857D01*
X64737619Y-61095238D01*
X65642380Y-60142857D02*
X65642380Y-60714285D01*
X65642380Y-60428571D02*
X64642380Y-60428571D01*
X64785238Y-60523809D01*
X64880476Y-60619047D01*
X64928095Y-60714285D01*
X65642380Y-59190476D02*
X65642380Y-59761904D01*
X65642380Y-59476190D02*
X64642380Y-59476190D01*
X64785238Y-59571428D01*
X64880476Y-59666666D01*
X64928095Y-59761904D01*
X65070952Y-58619047D02*
X65023333Y-58714285D01*
X64975714Y-58761904D01*
X64880476Y-58809523D01*
X64832857Y-58809523D01*
X64737619Y-58761904D01*
X64690000Y-58714285D01*
X64642380Y-58619047D01*
X64642380Y-58428571D01*
X64690000Y-58333333D01*
X64737619Y-58285714D01*
X64832857Y-58238095D01*
X64880476Y-58238095D01*
X64975714Y-58285714D01*
X65023333Y-58333333D01*
X65070952Y-58428571D01*
X65070952Y-58619047D01*
X65118571Y-58714285D01*
X65166190Y-58761904D01*
X65261428Y-58809523D01*
X65451904Y-58809523D01*
X65547142Y-58761904D01*
X65594761Y-58714285D01*
X65642380Y-58619047D01*
X65642380Y-58428571D01*
X65594761Y-58333333D01*
X65547142Y-58285714D01*
X65451904Y-58238095D01*
X65261428Y-58238095D01*
X65166190Y-58285714D01*
X65118571Y-58333333D01*
X65070952Y-58428571D01*
X64737619Y-57857142D02*
X64690000Y-57809523D01*
X64642380Y-57714285D01*
X64642380Y-57476190D01*
X64690000Y-57380952D01*
X64737619Y-57333333D01*
X64832857Y-57285714D01*
X64928095Y-57285714D01*
X65070952Y-57333333D01*
X65642380Y-57904761D01*
X65642380Y-57285714D01*
X48047142Y-61095238D02*
X48094761Y-61142857D01*
X48142380Y-61285714D01*
X48142380Y-61380952D01*
X48094761Y-61523809D01*
X47999523Y-61619047D01*
X47904285Y-61666666D01*
X47713809Y-61714285D01*
X47570952Y-61714285D01*
X47380476Y-61666666D01*
X47285238Y-61619047D01*
X47190000Y-61523809D01*
X47142380Y-61380952D01*
X47142380Y-61285714D01*
X47190000Y-61142857D01*
X47237619Y-61095238D01*
X48142380Y-60142857D02*
X48142380Y-60714285D01*
X48142380Y-60428571D02*
X47142380Y-60428571D01*
X47285238Y-60523809D01*
X47380476Y-60619047D01*
X47428095Y-60714285D01*
X48142380Y-59190476D02*
X48142380Y-59761904D01*
X48142380Y-59476190D02*
X47142380Y-59476190D01*
X47285238Y-59571428D01*
X47380476Y-59666666D01*
X47428095Y-59761904D01*
X47570952Y-58619047D02*
X47523333Y-58714285D01*
X47475714Y-58761904D01*
X47380476Y-58809523D01*
X47332857Y-58809523D01*
X47237619Y-58761904D01*
X47190000Y-58714285D01*
X47142380Y-58619047D01*
X47142380Y-58428571D01*
X47190000Y-58333333D01*
X47237619Y-58285714D01*
X47332857Y-58238095D01*
X47380476Y-58238095D01*
X47475714Y-58285714D01*
X47523333Y-58333333D01*
X47570952Y-58428571D01*
X47570952Y-58619047D01*
X47618571Y-58714285D01*
X47666190Y-58761904D01*
X47761428Y-58809523D01*
X47951904Y-58809523D01*
X48047142Y-58761904D01*
X48094761Y-58714285D01*
X48142380Y-58619047D01*
X48142380Y-58428571D01*
X48094761Y-58333333D01*
X48047142Y-58285714D01*
X47951904Y-58238095D01*
X47761428Y-58238095D01*
X47666190Y-58285714D01*
X47618571Y-58333333D01*
X47570952Y-58428571D01*
X48142380Y-57285714D02*
X48142380Y-57857142D01*
X48142380Y-57571428D02*
X47142380Y-57571428D01*
X47285238Y-57666666D01*
X47380476Y-57761904D01*
X47428095Y-57857142D01*
X73603333Y-44452380D02*
X73603333Y-43452380D01*
X73841428Y-43452380D01*
X73984285Y-43500000D01*
X74079523Y-43595238D01*
X74127142Y-43690476D01*
X74174761Y-43880952D01*
X74174761Y-44023809D01*
X74127142Y-44214285D01*
X74079523Y-44309523D01*
X73984285Y-44404761D01*
X73841428Y-44452380D01*
X73603333Y-44452380D01*
X75127142Y-44452380D02*
X74555714Y-44452380D01*
X74841428Y-44452380D02*
X74841428Y-43452380D01*
X74746190Y-43595238D01*
X74650952Y-43690476D01*
X74555714Y-43738095D01*
X76079523Y-44452380D02*
X75508095Y-44452380D01*
X75793809Y-44452380D02*
X75793809Y-43452380D01*
X75698571Y-43595238D01*
X75603333Y-43690476D01*
X75508095Y-43738095D01*
X76650952Y-43880952D02*
X76555714Y-43833333D01*
X76508095Y-43785714D01*
X76460476Y-43690476D01*
X76460476Y-43642857D01*
X76508095Y-43547619D01*
X76555714Y-43500000D01*
X76650952Y-43452380D01*
X76841428Y-43452380D01*
X76936666Y-43500000D01*
X76984285Y-43547619D01*
X77031904Y-43642857D01*
X77031904Y-43690476D01*
X76984285Y-43785714D01*
X76936666Y-43833333D01*
X76841428Y-43880952D01*
X76650952Y-43880952D01*
X76555714Y-43928571D01*
X76508095Y-43976190D01*
X76460476Y-44071428D01*
X76460476Y-44261904D01*
X76508095Y-44357142D01*
X76555714Y-44404761D01*
X76650952Y-44452380D01*
X76841428Y-44452380D01*
X76936666Y-44404761D01*
X76984285Y-44357142D01*
X77031904Y-44261904D01*
X77031904Y-44071428D01*
X76984285Y-43976190D01*
X76936666Y-43928571D01*
X76841428Y-43880952D01*
X77984285Y-44452380D02*
X77412857Y-44452380D01*
X77698571Y-44452380D02*
X77698571Y-43452380D01*
X77603333Y-43595238D01*
X77508095Y-43690476D01*
X77412857Y-43738095D01*
X196103333Y-44452380D02*
X196103333Y-43452380D01*
X196341428Y-43452380D01*
X196484285Y-43500000D01*
X196579523Y-43595238D01*
X196627142Y-43690476D01*
X196674761Y-43880952D01*
X196674761Y-44023809D01*
X196627142Y-44214285D01*
X196579523Y-44309523D01*
X196484285Y-44404761D01*
X196341428Y-44452380D01*
X196103333Y-44452380D01*
X197627142Y-44452380D02*
X197055714Y-44452380D01*
X197341428Y-44452380D02*
X197341428Y-43452380D01*
X197246190Y-43595238D01*
X197150952Y-43690476D01*
X197055714Y-43738095D01*
X198579523Y-44452380D02*
X198008095Y-44452380D01*
X198293809Y-44452380D02*
X198293809Y-43452380D01*
X198198571Y-43595238D01*
X198103333Y-43690476D01*
X198008095Y-43738095D01*
X199055714Y-44452380D02*
X199246190Y-44452380D01*
X199341428Y-44404761D01*
X199389047Y-44357142D01*
X199484285Y-44214285D01*
X199531904Y-44023809D01*
X199531904Y-43642857D01*
X199484285Y-43547619D01*
X199436666Y-43500000D01*
X199341428Y-43452380D01*
X199150952Y-43452380D01*
X199055714Y-43500000D01*
X199008095Y-43547619D01*
X198960476Y-43642857D01*
X198960476Y-43880952D01*
X199008095Y-43976190D01*
X199055714Y-44023809D01*
X199150952Y-44071428D01*
X199341428Y-44071428D01*
X199436666Y-44023809D01*
X199484285Y-43976190D01*
X199531904Y-43880952D01*
X199912857Y-43547619D02*
X199960476Y-43500000D01*
X200055714Y-43452380D01*
X200293809Y-43452380D01*
X200389047Y-43500000D01*
X200436666Y-43547619D01*
X200484285Y-43642857D01*
X200484285Y-43738095D01*
X200436666Y-43880952D01*
X199865238Y-44452380D01*
X200484285Y-44452380D01*
X161103333Y-44452380D02*
X161103333Y-43452380D01*
X161341428Y-43452380D01*
X161484285Y-43500000D01*
X161579523Y-43595238D01*
X161627142Y-43690476D01*
X161674761Y-43880952D01*
X161674761Y-44023809D01*
X161627142Y-44214285D01*
X161579523Y-44309523D01*
X161484285Y-44404761D01*
X161341428Y-44452380D01*
X161103333Y-44452380D01*
X162627142Y-44452380D02*
X162055714Y-44452380D01*
X162341428Y-44452380D02*
X162341428Y-43452380D01*
X162246190Y-43595238D01*
X162150952Y-43690476D01*
X162055714Y-43738095D01*
X163579523Y-44452380D02*
X163008095Y-44452380D01*
X163293809Y-44452380D02*
X163293809Y-43452380D01*
X163198571Y-43595238D01*
X163103333Y-43690476D01*
X163008095Y-43738095D01*
X164055714Y-44452380D02*
X164246190Y-44452380D01*
X164341428Y-44404761D01*
X164389047Y-44357142D01*
X164484285Y-44214285D01*
X164531904Y-44023809D01*
X164531904Y-43642857D01*
X164484285Y-43547619D01*
X164436666Y-43500000D01*
X164341428Y-43452380D01*
X164150952Y-43452380D01*
X164055714Y-43500000D01*
X164008095Y-43547619D01*
X163960476Y-43642857D01*
X163960476Y-43880952D01*
X164008095Y-43976190D01*
X164055714Y-44023809D01*
X164150952Y-44071428D01*
X164341428Y-44071428D01*
X164436666Y-44023809D01*
X164484285Y-43976190D01*
X164531904Y-43880952D01*
X165484285Y-44452380D02*
X164912857Y-44452380D01*
X165198571Y-44452380D02*
X165198571Y-43452380D01*
X165103333Y-43595238D01*
X165008095Y-43690476D01*
X164912857Y-43738095D01*
X143603333Y-44452380D02*
X143603333Y-43452380D01*
X143841428Y-43452380D01*
X143984285Y-43500000D01*
X144079523Y-43595238D01*
X144127142Y-43690476D01*
X144174761Y-43880952D01*
X144174761Y-44023809D01*
X144127142Y-44214285D01*
X144079523Y-44309523D01*
X143984285Y-44404761D01*
X143841428Y-44452380D01*
X143603333Y-44452380D01*
X145127142Y-44452380D02*
X144555714Y-44452380D01*
X144841428Y-44452380D02*
X144841428Y-43452380D01*
X144746190Y-43595238D01*
X144650952Y-43690476D01*
X144555714Y-43738095D01*
X146079523Y-44452380D02*
X145508095Y-44452380D01*
X145793809Y-44452380D02*
X145793809Y-43452380D01*
X145698571Y-43595238D01*
X145603333Y-43690476D01*
X145508095Y-43738095D01*
X146650952Y-43880952D02*
X146555714Y-43833333D01*
X146508095Y-43785714D01*
X146460476Y-43690476D01*
X146460476Y-43642857D01*
X146508095Y-43547619D01*
X146555714Y-43500000D01*
X146650952Y-43452380D01*
X146841428Y-43452380D01*
X146936666Y-43500000D01*
X146984285Y-43547619D01*
X147031904Y-43642857D01*
X147031904Y-43690476D01*
X146984285Y-43785714D01*
X146936666Y-43833333D01*
X146841428Y-43880952D01*
X146650952Y-43880952D01*
X146555714Y-43928571D01*
X146508095Y-43976190D01*
X146460476Y-44071428D01*
X146460476Y-44261904D01*
X146508095Y-44357142D01*
X146555714Y-44404761D01*
X146650952Y-44452380D01*
X146841428Y-44452380D01*
X146936666Y-44404761D01*
X146984285Y-44357142D01*
X147031904Y-44261904D01*
X147031904Y-44071428D01*
X146984285Y-43976190D01*
X146936666Y-43928571D01*
X146841428Y-43880952D01*
X147603333Y-43880952D02*
X147508095Y-43833333D01*
X147460476Y-43785714D01*
X147412857Y-43690476D01*
X147412857Y-43642857D01*
X147460476Y-43547619D01*
X147508095Y-43500000D01*
X147603333Y-43452380D01*
X147793809Y-43452380D01*
X147889047Y-43500000D01*
X147936666Y-43547619D01*
X147984285Y-43642857D01*
X147984285Y-43690476D01*
X147936666Y-43785714D01*
X147889047Y-43833333D01*
X147793809Y-43880952D01*
X147603333Y-43880952D01*
X147508095Y-43928571D01*
X147460476Y-43976190D01*
X147412857Y-44071428D01*
X147412857Y-44261904D01*
X147460476Y-44357142D01*
X147508095Y-44404761D01*
X147603333Y-44452380D01*
X147793809Y-44452380D01*
X147889047Y-44404761D01*
X147936666Y-44357142D01*
X147984285Y-44261904D01*
X147984285Y-44071428D01*
X147936666Y-43976190D01*
X147889047Y-43928571D01*
X147793809Y-43880952D01*
X108603333Y-44452380D02*
X108603333Y-43452380D01*
X108841428Y-43452380D01*
X108984285Y-43500000D01*
X109079523Y-43595238D01*
X109127142Y-43690476D01*
X109174761Y-43880952D01*
X109174761Y-44023809D01*
X109127142Y-44214285D01*
X109079523Y-44309523D01*
X108984285Y-44404761D01*
X108841428Y-44452380D01*
X108603333Y-44452380D01*
X110127142Y-44452380D02*
X109555714Y-44452380D01*
X109841428Y-44452380D02*
X109841428Y-43452380D01*
X109746190Y-43595238D01*
X109650952Y-43690476D01*
X109555714Y-43738095D01*
X111079523Y-44452380D02*
X110508095Y-44452380D01*
X110793809Y-44452380D02*
X110793809Y-43452380D01*
X110698571Y-43595238D01*
X110603333Y-43690476D01*
X110508095Y-43738095D01*
X111650952Y-43880952D02*
X111555714Y-43833333D01*
X111508095Y-43785714D01*
X111460476Y-43690476D01*
X111460476Y-43642857D01*
X111508095Y-43547619D01*
X111555714Y-43500000D01*
X111650952Y-43452380D01*
X111841428Y-43452380D01*
X111936666Y-43500000D01*
X111984285Y-43547619D01*
X112031904Y-43642857D01*
X112031904Y-43690476D01*
X111984285Y-43785714D01*
X111936666Y-43833333D01*
X111841428Y-43880952D01*
X111650952Y-43880952D01*
X111555714Y-43928571D01*
X111508095Y-43976190D01*
X111460476Y-44071428D01*
X111460476Y-44261904D01*
X111508095Y-44357142D01*
X111555714Y-44404761D01*
X111650952Y-44452380D01*
X111841428Y-44452380D01*
X111936666Y-44404761D01*
X111984285Y-44357142D01*
X112031904Y-44261904D01*
X112031904Y-44071428D01*
X111984285Y-43976190D01*
X111936666Y-43928571D01*
X111841428Y-43880952D01*
X112365238Y-43452380D02*
X113031904Y-43452380D01*
X112603333Y-44452380D01*
X178603333Y-44452380D02*
X178603333Y-43452380D01*
X178841428Y-43452380D01*
X178984285Y-43500000D01*
X179079523Y-43595238D01*
X179127142Y-43690476D01*
X179174761Y-43880952D01*
X179174761Y-44023809D01*
X179127142Y-44214285D01*
X179079523Y-44309523D01*
X178984285Y-44404761D01*
X178841428Y-44452380D01*
X178603333Y-44452380D01*
X180127142Y-44452380D02*
X179555714Y-44452380D01*
X179841428Y-44452380D02*
X179841428Y-43452380D01*
X179746190Y-43595238D01*
X179650952Y-43690476D01*
X179555714Y-43738095D01*
X181079523Y-44452380D02*
X180508095Y-44452380D01*
X180793809Y-44452380D02*
X180793809Y-43452380D01*
X180698571Y-43595238D01*
X180603333Y-43690476D01*
X180508095Y-43738095D01*
X181650952Y-43880952D02*
X181555714Y-43833333D01*
X181508095Y-43785714D01*
X181460476Y-43690476D01*
X181460476Y-43642857D01*
X181508095Y-43547619D01*
X181555714Y-43500000D01*
X181650952Y-43452380D01*
X181841428Y-43452380D01*
X181936666Y-43500000D01*
X181984285Y-43547619D01*
X182031904Y-43642857D01*
X182031904Y-43690476D01*
X181984285Y-43785714D01*
X181936666Y-43833333D01*
X181841428Y-43880952D01*
X181650952Y-43880952D01*
X181555714Y-43928571D01*
X181508095Y-43976190D01*
X181460476Y-44071428D01*
X181460476Y-44261904D01*
X181508095Y-44357142D01*
X181555714Y-44404761D01*
X181650952Y-44452380D01*
X181841428Y-44452380D01*
X181936666Y-44404761D01*
X181984285Y-44357142D01*
X182031904Y-44261904D01*
X182031904Y-44071428D01*
X181984285Y-43976190D01*
X181936666Y-43928571D01*
X181841428Y-43880952D01*
X182889047Y-43452380D02*
X182698571Y-43452380D01*
X182603333Y-43500000D01*
X182555714Y-43547619D01*
X182460476Y-43690476D01*
X182412857Y-43880952D01*
X182412857Y-44261904D01*
X182460476Y-44357142D01*
X182508095Y-44404761D01*
X182603333Y-44452380D01*
X182793809Y-44452380D01*
X182889047Y-44404761D01*
X182936666Y-44357142D01*
X182984285Y-44261904D01*
X182984285Y-44023809D01*
X182936666Y-43928571D01*
X182889047Y-43880952D01*
X182793809Y-43833333D01*
X182603333Y-43833333D01*
X182508095Y-43880952D01*
X182460476Y-43928571D01*
X182412857Y-44023809D01*
X126103333Y-44452380D02*
X126103333Y-43452380D01*
X126341428Y-43452380D01*
X126484285Y-43500000D01*
X126579523Y-43595238D01*
X126627142Y-43690476D01*
X126674761Y-43880952D01*
X126674761Y-44023809D01*
X126627142Y-44214285D01*
X126579523Y-44309523D01*
X126484285Y-44404761D01*
X126341428Y-44452380D01*
X126103333Y-44452380D01*
X127627142Y-44452380D02*
X127055714Y-44452380D01*
X127341428Y-44452380D02*
X127341428Y-43452380D01*
X127246190Y-43595238D01*
X127150952Y-43690476D01*
X127055714Y-43738095D01*
X128579523Y-44452380D02*
X128008095Y-44452380D01*
X128293809Y-44452380D02*
X128293809Y-43452380D01*
X128198571Y-43595238D01*
X128103333Y-43690476D01*
X128008095Y-43738095D01*
X129150952Y-43880952D02*
X129055714Y-43833333D01*
X129008095Y-43785714D01*
X128960476Y-43690476D01*
X128960476Y-43642857D01*
X129008095Y-43547619D01*
X129055714Y-43500000D01*
X129150952Y-43452380D01*
X129341428Y-43452380D01*
X129436666Y-43500000D01*
X129484285Y-43547619D01*
X129531904Y-43642857D01*
X129531904Y-43690476D01*
X129484285Y-43785714D01*
X129436666Y-43833333D01*
X129341428Y-43880952D01*
X129150952Y-43880952D01*
X129055714Y-43928571D01*
X129008095Y-43976190D01*
X128960476Y-44071428D01*
X128960476Y-44261904D01*
X129008095Y-44357142D01*
X129055714Y-44404761D01*
X129150952Y-44452380D01*
X129341428Y-44452380D01*
X129436666Y-44404761D01*
X129484285Y-44357142D01*
X129531904Y-44261904D01*
X129531904Y-44071428D01*
X129484285Y-43976190D01*
X129436666Y-43928571D01*
X129341428Y-43880952D01*
X129865238Y-43452380D02*
X130484285Y-43452380D01*
X130150952Y-43833333D01*
X130293809Y-43833333D01*
X130389047Y-43880952D01*
X130436666Y-43928571D01*
X130484285Y-44023809D01*
X130484285Y-44261904D01*
X130436666Y-44357142D01*
X130389047Y-44404761D01*
X130293809Y-44452380D01*
X130008095Y-44452380D01*
X129912857Y-44404761D01*
X129865238Y-44357142D01*
X91103333Y-44452380D02*
X91103333Y-43452380D01*
X91341428Y-43452380D01*
X91484285Y-43500000D01*
X91579523Y-43595238D01*
X91627142Y-43690476D01*
X91674761Y-43880952D01*
X91674761Y-44023809D01*
X91627142Y-44214285D01*
X91579523Y-44309523D01*
X91484285Y-44404761D01*
X91341428Y-44452380D01*
X91103333Y-44452380D01*
X92627142Y-44452380D02*
X92055714Y-44452380D01*
X92341428Y-44452380D02*
X92341428Y-43452380D01*
X92246190Y-43595238D01*
X92150952Y-43690476D01*
X92055714Y-43738095D01*
X93579523Y-44452380D02*
X93008095Y-44452380D01*
X93293809Y-44452380D02*
X93293809Y-43452380D01*
X93198571Y-43595238D01*
X93103333Y-43690476D01*
X93008095Y-43738095D01*
X94150952Y-43880952D02*
X94055714Y-43833333D01*
X94008095Y-43785714D01*
X93960476Y-43690476D01*
X93960476Y-43642857D01*
X94008095Y-43547619D01*
X94055714Y-43500000D01*
X94150952Y-43452380D01*
X94341428Y-43452380D01*
X94436666Y-43500000D01*
X94484285Y-43547619D01*
X94531904Y-43642857D01*
X94531904Y-43690476D01*
X94484285Y-43785714D01*
X94436666Y-43833333D01*
X94341428Y-43880952D01*
X94150952Y-43880952D01*
X94055714Y-43928571D01*
X94008095Y-43976190D01*
X93960476Y-44071428D01*
X93960476Y-44261904D01*
X94008095Y-44357142D01*
X94055714Y-44404761D01*
X94150952Y-44452380D01*
X94341428Y-44452380D01*
X94436666Y-44404761D01*
X94484285Y-44357142D01*
X94531904Y-44261904D01*
X94531904Y-44071428D01*
X94484285Y-43976190D01*
X94436666Y-43928571D01*
X94341428Y-43880952D01*
X94912857Y-43547619D02*
X94960476Y-43500000D01*
X95055714Y-43452380D01*
X95293809Y-43452380D01*
X95389047Y-43500000D01*
X95436666Y-43547619D01*
X95484285Y-43642857D01*
X95484285Y-43738095D01*
X95436666Y-43880952D01*
X94865238Y-44452380D01*
X95484285Y-44452380D01*
X24603333Y-29452380D02*
X24603333Y-28452380D01*
X24841428Y-28452380D01*
X24984285Y-28500000D01*
X25079523Y-28595238D01*
X25127142Y-28690476D01*
X25174761Y-28880952D01*
X25174761Y-29023809D01*
X25127142Y-29214285D01*
X25079523Y-29309523D01*
X24984285Y-29404761D01*
X24841428Y-29452380D01*
X24603333Y-29452380D01*
X26127142Y-29452380D02*
X25555714Y-29452380D01*
X25841428Y-29452380D02*
X25841428Y-28452380D01*
X25746190Y-28595238D01*
X25650952Y-28690476D01*
X25555714Y-28738095D01*
X26746190Y-28452380D02*
X26841428Y-28452380D01*
X26936666Y-28500000D01*
X26984285Y-28547619D01*
X27031904Y-28642857D01*
X27079523Y-28833333D01*
X27079523Y-29071428D01*
X27031904Y-29261904D01*
X26984285Y-29357142D01*
X26936666Y-29404761D01*
X26841428Y-29452380D01*
X26746190Y-29452380D01*
X26650952Y-29404761D01*
X26603333Y-29357142D01*
X26555714Y-29261904D01*
X26508095Y-29071428D01*
X26508095Y-28833333D01*
X26555714Y-28642857D01*
X26603333Y-28547619D01*
X26650952Y-28500000D01*
X26746190Y-28452380D01*
X28031904Y-29452380D02*
X27460476Y-29452380D01*
X27746190Y-29452380D02*
X27746190Y-28452380D01*
X27650952Y-28595238D01*
X27555714Y-28690476D01*
X27460476Y-28738095D01*
X28889047Y-28452380D02*
X28698571Y-28452380D01*
X28603333Y-28500000D01*
X28555714Y-28547619D01*
X28460476Y-28690476D01*
X28412857Y-28880952D01*
X28412857Y-29261904D01*
X28460476Y-29357142D01*
X28508095Y-29404761D01*
X28603333Y-29452380D01*
X28793809Y-29452380D01*
X28889047Y-29404761D01*
X28936666Y-29357142D01*
X28984285Y-29261904D01*
X28984285Y-29023809D01*
X28936666Y-28928571D01*
X28889047Y-28880952D01*
X28793809Y-28833333D01*
X28603333Y-28833333D01*
X28508095Y-28880952D01*
X28460476Y-28928571D01*
X28412857Y-29023809D01*
X56103333Y-44452380D02*
X56103333Y-43452380D01*
X56341428Y-43452380D01*
X56484285Y-43500000D01*
X56579523Y-43595238D01*
X56627142Y-43690476D01*
X56674761Y-43880952D01*
X56674761Y-44023809D01*
X56627142Y-44214285D01*
X56579523Y-44309523D01*
X56484285Y-44404761D01*
X56341428Y-44452380D01*
X56103333Y-44452380D01*
X57627142Y-44452380D02*
X57055714Y-44452380D01*
X57341428Y-44452380D02*
X57341428Y-43452380D01*
X57246190Y-43595238D01*
X57150952Y-43690476D01*
X57055714Y-43738095D01*
X58579523Y-44452380D02*
X58008095Y-44452380D01*
X58293809Y-44452380D02*
X58293809Y-43452380D01*
X58198571Y-43595238D01*
X58103333Y-43690476D01*
X58008095Y-43738095D01*
X59150952Y-43880952D02*
X59055714Y-43833333D01*
X59008095Y-43785714D01*
X58960476Y-43690476D01*
X58960476Y-43642857D01*
X59008095Y-43547619D01*
X59055714Y-43500000D01*
X59150952Y-43452380D01*
X59341428Y-43452380D01*
X59436666Y-43500000D01*
X59484285Y-43547619D01*
X59531904Y-43642857D01*
X59531904Y-43690476D01*
X59484285Y-43785714D01*
X59436666Y-43833333D01*
X59341428Y-43880952D01*
X59150952Y-43880952D01*
X59055714Y-43928571D01*
X59008095Y-43976190D01*
X58960476Y-44071428D01*
X58960476Y-44261904D01*
X59008095Y-44357142D01*
X59055714Y-44404761D01*
X59150952Y-44452380D01*
X59341428Y-44452380D01*
X59436666Y-44404761D01*
X59484285Y-44357142D01*
X59531904Y-44261904D01*
X59531904Y-44071428D01*
X59484285Y-43976190D01*
X59436666Y-43928571D01*
X59341428Y-43880952D01*
X60389047Y-43785714D02*
X60389047Y-44452380D01*
X60150952Y-43404761D02*
X59912857Y-44119047D01*
X60531904Y-44119047D01*
%LPC*%
D12*
X190250000Y-62000000D03*
X190250000Y-57000000D03*
X172750000Y-62000000D03*
X172750000Y-57000000D03*
X120250000Y-62000000D03*
X120250000Y-57000000D03*
X155250000Y-62000000D03*
X155250000Y-57000000D03*
X137750000Y-62000000D03*
X137750000Y-57000000D03*
X102750000Y-62000000D03*
X102750000Y-57000000D03*
X85250000Y-62000000D03*
X85250000Y-57000000D03*
X67750000Y-62000000D03*
X67750000Y-57000000D03*
X50250000Y-62000000D03*
X50250000Y-57000000D03*
D13*
X218000000Y-42500000D03*
D14*
X61250000Y-57200000D03*
X57550000Y-58600000D03*
X54950000Y-56000000D03*
X58750000Y-54500000D03*
X201250000Y-57200000D03*
X197550000Y-58600000D03*
X194950000Y-56000000D03*
X198750000Y-54500000D03*
X96250000Y-57200000D03*
X92550000Y-58600000D03*
X89950000Y-56000000D03*
X93750000Y-54500000D03*
X113750000Y-57200000D03*
X110050000Y-58600000D03*
X107450000Y-56000000D03*
X111250000Y-54500000D03*
X148750000Y-57200000D03*
X145050000Y-58600000D03*
X142450000Y-56000000D03*
X146250000Y-54500000D03*
X166250000Y-57200000D03*
X162550000Y-58600000D03*
X159950000Y-56000000D03*
X163750000Y-54500000D03*
X131250000Y-57200000D03*
X127550000Y-58600000D03*
X124950000Y-56000000D03*
X128750000Y-54500000D03*
X183750000Y-57200000D03*
X180050000Y-58600000D03*
X177450000Y-56000000D03*
X181250000Y-54500000D03*
X78750000Y-57200000D03*
X75050000Y-58600000D03*
X72450000Y-56000000D03*
X76250000Y-54500000D03*
D13*
X27500000Y-32500000D03*
X31500000Y-38000000D03*
D15*
X74500000Y-47000000D03*
D16*
X77040000Y-47000000D03*
D13*
X218000000Y-50000000D03*
X214000000Y-37000000D03*
X25500000Y-45500000D03*
G36*
G01*
X104160000Y-38000000D02*
X104160000Y-36000000D01*
G75*
G02*
X104660000Y-35500000I500000J0D01*
G01*
X105660000Y-35500000D01*
G75*
G02*
X106160000Y-36000000I0J-500000D01*
G01*
X106160000Y-38000000D01*
G75*
G02*
X105660000Y-38500000I-500000J0D01*
G01*
X104660000Y-38500000D01*
G75*
G02*
X104160000Y-38000000I0J500000D01*
G01*
G37*
G36*
G01*
X101620000Y-38000000D02*
X101620000Y-36000000D01*
G75*
G02*
X102120000Y-35500000I500000J0D01*
G01*
X103120000Y-35500000D01*
G75*
G02*
X103620000Y-36000000I0J-500000D01*
G01*
X103620000Y-38000000D01*
G75*
G02*
X103120000Y-38500000I-500000J0D01*
G01*
X102120000Y-38500000D01*
G75*
G02*
X101620000Y-38000000I0J500000D01*
G01*
G37*
G36*
G01*
X99080000Y-38000000D02*
X99080000Y-36000000D01*
G75*
G02*
X99580000Y-35500000I500000J0D01*
G01*
X100580000Y-35500000D01*
G75*
G02*
X101080000Y-36000000I0J-500000D01*
G01*
X101080000Y-38000000D01*
G75*
G02*
X100580000Y-38500000I-500000J0D01*
G01*
X99580000Y-38500000D01*
G75*
G02*
X99080000Y-38000000I0J500000D01*
G01*
G37*
G36*
G01*
X96540000Y-38000000D02*
X96540000Y-36000000D01*
G75*
G02*
X97040000Y-35500000I500000J0D01*
G01*
X98040000Y-35500000D01*
G75*
G02*
X98540000Y-36000000I0J-500000D01*
G01*
X98540000Y-38000000D01*
G75*
G02*
X98040000Y-38500000I-500000J0D01*
G01*
X97040000Y-38500000D01*
G75*
G02*
X96540000Y-38000000I0J500000D01*
G01*
G37*
G36*
G01*
X94000000Y-38000000D02*
X94000000Y-36000000D01*
G75*
G02*
X94500000Y-35500000I500000J0D01*
G01*
X95500000Y-35500000D01*
G75*
G02*
X96000000Y-36000000I0J-500000D01*
G01*
X96000000Y-38000000D01*
G75*
G02*
X95500000Y-38500000I-500000J0D01*
G01*
X94500000Y-38500000D01*
G75*
G02*
X94000000Y-38000000I0J500000D01*
G01*
G37*
G36*
G01*
X121000000Y-38000000D02*
X121000000Y-36000000D01*
G75*
G02*
X121500000Y-35500000I500000J0D01*
G01*
X122500000Y-35500000D01*
G75*
G02*
X123000000Y-36000000I0J-500000D01*
G01*
X123000000Y-38000000D01*
G75*
G02*
X122500000Y-38500000I-500000J0D01*
G01*
X121500000Y-38500000D01*
G75*
G02*
X121000000Y-38000000I0J500000D01*
G01*
G37*
G36*
G01*
X118460000Y-38000000D02*
X118460000Y-36000000D01*
G75*
G02*
X118960000Y-35500000I500000J0D01*
G01*
X119960000Y-35500000D01*
G75*
G02*
X120460000Y-36000000I0J-500000D01*
G01*
X120460000Y-38000000D01*
G75*
G02*
X119960000Y-38500000I-500000J0D01*
G01*
X118960000Y-38500000D01*
G75*
G02*
X118460000Y-38000000I0J500000D01*
G01*
G37*
G36*
G01*
X115920000Y-38000000D02*
X115920000Y-36000000D01*
G75*
G02*
X116420000Y-35500000I500000J0D01*
G01*
X117420000Y-35500000D01*
G75*
G02*
X117920000Y-36000000I0J-500000D01*
G01*
X117920000Y-38000000D01*
G75*
G02*
X117420000Y-38500000I-500000J0D01*
G01*
X116420000Y-38500000D01*
G75*
G02*
X115920000Y-38000000I0J500000D01*
G01*
G37*
G36*
G01*
X113380000Y-38000000D02*
X113380000Y-36000000D01*
G75*
G02*
X113880000Y-35500000I500000J0D01*
G01*
X114880000Y-35500000D01*
G75*
G02*
X115380000Y-36000000I0J-500000D01*
G01*
X115380000Y-38000000D01*
G75*
G02*
X114880000Y-38500000I-500000J0D01*
G01*
X113880000Y-38500000D01*
G75*
G02*
X113380000Y-38000000I0J500000D01*
G01*
G37*
G36*
G01*
X110840000Y-38000000D02*
X110840000Y-36000000D01*
G75*
G02*
X111340000Y-35500000I500000J0D01*
G01*
X112340000Y-35500000D01*
G75*
G02*
X112840000Y-36000000I0J-500000D01*
G01*
X112840000Y-38000000D01*
G75*
G02*
X112340000Y-38500000I-500000J0D01*
G01*
X111340000Y-38500000D01*
G75*
G02*
X110840000Y-38000000I0J500000D01*
G01*
G37*
G36*
G01*
X148000000Y-38000000D02*
X148000000Y-36000000D01*
G75*
G02*
X148500000Y-35500000I500000J0D01*
G01*
X149500000Y-35500000D01*
G75*
G02*
X150000000Y-36000000I0J-500000D01*
G01*
X150000000Y-38000000D01*
G75*
G02*
X149500000Y-38500000I-500000J0D01*
G01*
X148500000Y-38500000D01*
G75*
G02*
X148000000Y-38000000I0J500000D01*
G01*
G37*
G36*
G01*
X145460000Y-38000000D02*
X145460000Y-36000000D01*
G75*
G02*
X145960000Y-35500000I500000J0D01*
G01*
X146960000Y-35500000D01*
G75*
G02*
X147460000Y-36000000I0J-500000D01*
G01*
X147460000Y-38000000D01*
G75*
G02*
X146960000Y-38500000I-500000J0D01*
G01*
X145960000Y-38500000D01*
G75*
G02*
X145460000Y-38000000I0J500000D01*
G01*
G37*
G36*
G01*
X142920000Y-38000000D02*
X142920000Y-36000000D01*
G75*
G02*
X143420000Y-35500000I500000J0D01*
G01*
X144420000Y-35500000D01*
G75*
G02*
X144920000Y-36000000I0J-500000D01*
G01*
X144920000Y-38000000D01*
G75*
G02*
X144420000Y-38500000I-500000J0D01*
G01*
X143420000Y-38500000D01*
G75*
G02*
X142920000Y-38000000I0J500000D01*
G01*
G37*
G36*
G01*
X140380000Y-38000000D02*
X140380000Y-36000000D01*
G75*
G02*
X140880000Y-35500000I500000J0D01*
G01*
X141880000Y-35500000D01*
G75*
G02*
X142380000Y-36000000I0J-500000D01*
G01*
X142380000Y-38000000D01*
G75*
G02*
X141880000Y-38500000I-500000J0D01*
G01*
X140880000Y-38500000D01*
G75*
G02*
X140380000Y-38000000I0J500000D01*
G01*
G37*
G36*
G01*
X137840000Y-38000000D02*
X137840000Y-36000000D01*
G75*
G02*
X138340000Y-35500000I500000J0D01*
G01*
X139340000Y-35500000D01*
G75*
G02*
X139840000Y-36000000I0J-500000D01*
G01*
X139840000Y-38000000D01*
G75*
G02*
X139340000Y-38500000I-500000J0D01*
G01*
X138340000Y-38500000D01*
G75*
G02*
X137840000Y-38000000I0J500000D01*
G01*
G37*
G36*
G01*
X135300000Y-38000000D02*
X135300000Y-36000000D01*
G75*
G02*
X135800000Y-35500000I500000J0D01*
G01*
X136800000Y-35500000D01*
G75*
G02*
X137300000Y-36000000I0J-500000D01*
G01*
X137300000Y-38000000D01*
G75*
G02*
X136800000Y-38500000I-500000J0D01*
G01*
X135800000Y-38500000D01*
G75*
G02*
X135300000Y-38000000I0J500000D01*
G01*
G37*
G36*
G01*
X132760000Y-38000000D02*
X132760000Y-36000000D01*
G75*
G02*
X133260000Y-35500000I500000J0D01*
G01*
X134260000Y-35500000D01*
G75*
G02*
X134760000Y-36000000I0J-500000D01*
G01*
X134760000Y-38000000D01*
G75*
G02*
X134260000Y-38500000I-500000J0D01*
G01*
X133260000Y-38500000D01*
G75*
G02*
X132760000Y-38000000I0J500000D01*
G01*
G37*
G36*
G01*
X130220000Y-38000000D02*
X130220000Y-36000000D01*
G75*
G02*
X130720000Y-35500000I500000J0D01*
G01*
X131720000Y-35500000D01*
G75*
G02*
X132220000Y-36000000I0J-500000D01*
G01*
X132220000Y-38000000D01*
G75*
G02*
X131720000Y-38500000I-500000J0D01*
G01*
X130720000Y-38500000D01*
G75*
G02*
X130220000Y-38000000I0J500000D01*
G01*
G37*
G36*
G01*
X127680000Y-38000000D02*
X127680000Y-36000000D01*
G75*
G02*
X128180000Y-35500000I500000J0D01*
G01*
X129180000Y-35500000D01*
G75*
G02*
X129680000Y-36000000I0J-500000D01*
G01*
X129680000Y-38000000D01*
G75*
G02*
X129180000Y-38500000I-500000J0D01*
G01*
X128180000Y-38500000D01*
G75*
G02*
X127680000Y-38000000I0J500000D01*
G01*
G37*
D15*
X197000000Y-47000000D03*
D16*
X199540000Y-47000000D03*
D15*
X162000000Y-47000000D03*
D16*
X164540000Y-47000000D03*
D15*
X144500000Y-47000000D03*
D16*
X147040000Y-47000000D03*
D15*
X109500000Y-47000000D03*
D16*
X112040000Y-47000000D03*
D15*
X179500000Y-47000000D03*
D16*
X182040000Y-47000000D03*
D15*
X127000000Y-47000000D03*
D16*
X129540000Y-47000000D03*
D15*
X92000000Y-47000000D03*
D16*
X94540000Y-47000000D03*
D15*
X25500000Y-23000000D03*
D16*
X28040000Y-23000000D03*
D17*
X176000000Y-37000000D03*
X84500000Y-37000000D03*
D15*
X57000000Y-47000000D03*
D16*
X59540000Y-47000000D03*
M02*
