M48
; DRILL file {KiCad (5.1.7)-1} date 09/30/22 21:54:49
; FORMAT={-:-/ absolute / metric / decimal}
; #@! TF.CreationDate,2022-09-30T21:54:49+02:00
; #@! TF.GenerationSoftware,Kicad,Pcbnew,(5.1.7)-1
; #@! TF.FileFunction,Plated,1,2,PTH
FMAT,2
METRIC
T1C0.400
T2C0.800
T3C0.900
T4C1.200
T5C1.500
%
G90
G05
T1
X107.5Y-44.0
X114.0Y-44.0
X156.25Y-39.75
T2
X67.75Y-57.0
X67.75Y-62.0
X155.25Y-57.0
X155.25Y-62.0
X190.25Y-57.0
X190.25Y-62.0
X85.25Y-57.0
X85.25Y-62.0
X120.25Y-57.0
X120.25Y-62.0
X50.25Y-57.0
X50.25Y-62.0
X137.75Y-57.0
X137.75Y-62.0
X102.75Y-57.0
X102.75Y-62.0
X172.75Y-57.0
X172.75Y-62.0
T3
X179.5Y-47.0
X182.04Y-47.0
X92.0Y-47.0
X94.54Y-47.0
X197.0Y-47.0
X199.54Y-47.0
X74.5Y-47.0
X77.04Y-47.0
X57.0Y-47.0
X59.54Y-47.0
X109.5Y-47.0
X112.04Y-47.0
X127.0Y-47.0
X129.54Y-47.0
X25.5Y-23.0
X28.04Y-23.0
X162.0Y-47.0
X164.54Y-47.0
X144.5Y-47.0
X147.04Y-47.0
T4
X31.5Y-38.0
X218.0Y-50.0
X25.5Y-45.5
X218.0Y-42.5
X27.5Y-32.5
X214.0Y-37.0
T5
X111.84Y-37.0
X114.38Y-37.0
X116.92Y-37.0
X119.46Y-37.0
X122.0Y-37.0
X194.95Y-56.0
X197.55Y-58.6
X198.75Y-54.5
X201.25Y-57.2
X142.45Y-56.0
X145.05Y-58.6
X146.25Y-54.5
X148.75Y-57.2
X124.95Y-56.0
X127.55Y-58.6
X128.75Y-54.5
X131.25Y-57.2
X95.0Y-37.0
X97.54Y-37.0
X100.08Y-37.0
X102.62Y-37.0
X105.16Y-37.0
X72.45Y-56.0
X75.05Y-58.6
X76.25Y-54.5
X78.75Y-57.2
X128.68Y-37.0
X131.22Y-37.0
X133.76Y-37.0
X136.3Y-37.0
X138.84Y-37.0
X141.38Y-37.0
X143.92Y-37.0
X146.46Y-37.0
X149.0Y-37.0
X54.95Y-56.0
X57.55Y-58.6
X58.75Y-54.5
X61.25Y-57.2
X107.45Y-56.0
X110.05Y-58.6
X111.25Y-54.5
X113.75Y-57.2
X89.95Y-56.0
X92.55Y-58.6
X93.75Y-54.5
X96.25Y-57.2
X159.95Y-56.0
X162.55Y-58.6
X163.75Y-54.5
X166.25Y-57.2
X177.45Y-56.0
X180.05Y-58.6
X181.25Y-54.5
X183.75Y-57.2
T0
M30
