G04 #@! TF.GenerationSoftware,KiCad,Pcbnew,(5.1.7)-1*
G04 #@! TF.CreationDate,2022-11-29T22:14:09+01:00*
G04 #@! TF.ProjectId,LED-Mounting-Tool,4c45442d-4d6f-4756-9e74-696e672d546f,rev?*
G04 #@! TF.SameCoordinates,Original*
G04 #@! TF.FileFunction,Profile,NP*
%FSLAX46Y46*%
G04 Gerber Fmt 4.6, Leading zero omitted, Abs format (unit mm)*
G04 Created by KiCad (PCBNEW (5.1.7)-1) date 2022-11-29 22:14:09*
%MOMM*%
%LPD*%
G01*
G04 APERTURE LIST*
G04 #@! TA.AperFunction,Profile*
%ADD10C,0.050000*%
G04 #@! TD*
G04 APERTURE END LIST*
D10*
X139807500Y-60000000D02*
G75*
G03*
X139807500Y-60000000I-1537500J0D01*
G01*
X157307500Y-60000000D02*
G75*
G03*
X157307500Y-60000000I-1537500J0D01*
G01*
X112307500Y-60000000D02*
G75*
G03*
X112307500Y-60000000I-1537500J0D01*
G01*
X59807500Y-60000000D02*
G75*
G03*
X59807500Y-60000000I-1537500J0D01*
G01*
X94807500Y-60000000D02*
G75*
G03*
X94807500Y-60000000I-1537500J0D01*
G01*
X77307500Y-60000000D02*
G75*
G03*
X77307500Y-60000000I-1537500J0D01*
G01*
X217307500Y-72000000D02*
G75*
G03*
X217307500Y-72000000I-1537500J0D01*
G01*
X59807500Y-72000000D02*
G75*
G03*
X59807500Y-72000000I-1537500J0D01*
G01*
X77307500Y-72000000D02*
G75*
G03*
X77307500Y-72000000I-1537500J0D01*
G01*
X94807500Y-72000000D02*
G75*
G03*
X94807500Y-72000000I-1537500J0D01*
G01*
X112307500Y-72000000D02*
G75*
G03*
X112307500Y-72000000I-1537500J0D01*
G01*
X129807500Y-72000000D02*
G75*
G03*
X129807500Y-72000000I-1537500J0D01*
G01*
X164807500Y-72000000D02*
G75*
G03*
X164807500Y-72000000I-1537500J0D01*
G01*
X182307500Y-72000000D02*
G75*
G03*
X182307500Y-72000000I-1537500J0D01*
G01*
X199807500Y-72000000D02*
G75*
G03*
X199807500Y-72000000I-1537500J0D01*
G01*
X217307500Y-47000000D02*
G75*
G03*
X217307500Y-47000000I-1537500J0D01*
G01*
X43270000Y-42000000D02*
X43270000Y-77000000D01*
X199807500Y-47000000D02*
G75*
G03*
X199807500Y-47000000I-1537500J0D01*
G01*
X182307500Y-47000000D02*
G75*
G03*
X182307500Y-47000000I-1537500J0D01*
G01*
X164807500Y-47000000D02*
G75*
G03*
X164807500Y-47000000I-1537500J0D01*
G01*
X147307500Y-47000000D02*
G75*
G03*
X147307500Y-47000000I-1537500J0D01*
G01*
X129807500Y-47000000D02*
G75*
G03*
X129807500Y-47000000I-1537500J0D01*
G01*
X112307500Y-47000000D02*
G75*
G03*
X112307500Y-47000000I-1537500J0D01*
G01*
X94807500Y-47000000D02*
G75*
G03*
X94807500Y-47000000I-1537500J0D01*
G01*
X77307500Y-47000000D02*
G75*
G03*
X77307500Y-47000000I-1537500J0D01*
G01*
X59807500Y-47000000D02*
G75*
G03*
X59807500Y-47000000I-1537500J0D01*
G01*
X220770000Y-42000000D02*
X43270000Y-42000000D01*
X43270000Y-77000000D02*
X220770000Y-77000000D01*
X220770000Y-42000000D02*
X220770000Y-77000000D01*
M02*
