G04 #@! TF.GenerationSoftware,KiCad,Pcbnew,(5.1.7)-1*
G04 #@! TF.CreationDate,2022-11-29T22:14:09+01:00*
G04 #@! TF.ProjectId,LED-Mounting-Tool,4c45442d-4d6f-4756-9e74-696e672d546f,rev?*
G04 #@! TF.SameCoordinates,Original*
G04 #@! TF.FileFunction,Legend,Top*
G04 #@! TF.FilePolarity,Positive*
%FSLAX46Y46*%
G04 Gerber Fmt 4.6, Leading zero omitted, Abs format (unit mm)*
G04 Created by KiCad (PCBNEW (5.1.7)-1) date 2022-11-29 22:14:09*
%MOMM*%
%LPD*%
G01*
G04 APERTURE LIST*
%ADD10C,0.120000*%
%ADD11C,0.150000*%
%ADD12C,3.200000*%
G04 APERTURE END LIST*
D10*
X157770000Y-60000000D02*
G75*
G03*
X157770000Y-60000000I-2000000J0D01*
G01*
X140270000Y-60000000D02*
G75*
G03*
X140270000Y-60000000I-2000000J0D01*
G01*
X112770000Y-60000000D02*
G75*
G03*
X112770000Y-60000000I-2000000J0D01*
G01*
X95270000Y-60000000D02*
G75*
G03*
X95270000Y-60000000I-2000000J0D01*
G01*
X77770000Y-60000000D02*
G75*
G03*
X77770000Y-60000000I-2000000J0D01*
G01*
X60270000Y-60000000D02*
G75*
G03*
X60270000Y-60000000I-2000000J0D01*
G01*
X87808237Y-57000000D02*
G75*
G03*
X87808237Y-57000000I-3288237J0D01*
G01*
X162038237Y-51500000D02*
G75*
G03*
X162038237Y-51500000I-3288237J0D01*
G01*
D11*
X136083333Y-57452380D02*
X136083333Y-56452380D01*
X136321428Y-56452380D01*
X136464285Y-56500000D01*
X136559523Y-56595238D01*
X136607142Y-56690476D01*
X136654761Y-56880952D01*
X136654761Y-57023809D01*
X136607142Y-57214285D01*
X136559523Y-57309523D01*
X136464285Y-57404761D01*
X136321428Y-57452380D01*
X136083333Y-57452380D01*
X136988095Y-56452380D02*
X137607142Y-56452380D01*
X137273809Y-56833333D01*
X137416666Y-56833333D01*
X137511904Y-56880952D01*
X137559523Y-56928571D01*
X137607142Y-57023809D01*
X137607142Y-57261904D01*
X137559523Y-57357142D01*
X137511904Y-57404761D01*
X137416666Y-57452380D01*
X137130952Y-57452380D01*
X137035714Y-57404761D01*
X136988095Y-57357142D01*
X138559523Y-57452380D02*
X137988095Y-57452380D01*
X138273809Y-57452380D02*
X138273809Y-56452380D01*
X138178571Y-56595238D01*
X138083333Y-56690476D01*
X137988095Y-56738095D01*
X139464285Y-56452380D02*
X138988095Y-56452380D01*
X138940476Y-56928571D01*
X138988095Y-56880952D01*
X139083333Y-56833333D01*
X139321428Y-56833333D01*
X139416666Y-56880952D01*
X139464285Y-56928571D01*
X139511904Y-57023809D01*
X139511904Y-57261904D01*
X139464285Y-57357142D01*
X139416666Y-57404761D01*
X139321428Y-57452380D01*
X139083333Y-57452380D01*
X138988095Y-57404761D01*
X138940476Y-57357142D01*
X140464285Y-57452380D02*
X139892857Y-57452380D01*
X140178571Y-57452380D02*
X140178571Y-56452380D01*
X140083333Y-56595238D01*
X139988095Y-56690476D01*
X139892857Y-56738095D01*
X153583333Y-57452380D02*
X153583333Y-56452380D01*
X153821428Y-56452380D01*
X153964285Y-56500000D01*
X154059523Y-56595238D01*
X154107142Y-56690476D01*
X154154761Y-56880952D01*
X154154761Y-57023809D01*
X154107142Y-57214285D01*
X154059523Y-57309523D01*
X153964285Y-57404761D01*
X153821428Y-57452380D01*
X153583333Y-57452380D01*
X154488095Y-56452380D02*
X155107142Y-56452380D01*
X154773809Y-56833333D01*
X154916666Y-56833333D01*
X155011904Y-56880952D01*
X155059523Y-56928571D01*
X155107142Y-57023809D01*
X155107142Y-57261904D01*
X155059523Y-57357142D01*
X155011904Y-57404761D01*
X154916666Y-57452380D01*
X154630952Y-57452380D01*
X154535714Y-57404761D01*
X154488095Y-57357142D01*
X156059523Y-57452380D02*
X155488095Y-57452380D01*
X155773809Y-57452380D02*
X155773809Y-56452380D01*
X155678571Y-56595238D01*
X155583333Y-56690476D01*
X155488095Y-56738095D01*
X156916666Y-56785714D02*
X156916666Y-57452380D01*
X156678571Y-56404761D02*
X156440476Y-57119047D01*
X157059523Y-57119047D01*
X157869047Y-56785714D02*
X157869047Y-57452380D01*
X157630952Y-56404761D02*
X157392857Y-57119047D01*
X158011904Y-57119047D01*
X108583333Y-57452380D02*
X108583333Y-56452380D01*
X108821428Y-56452380D01*
X108964285Y-56500000D01*
X109059523Y-56595238D01*
X109107142Y-56690476D01*
X109154761Y-56880952D01*
X109154761Y-57023809D01*
X109107142Y-57214285D01*
X109059523Y-57309523D01*
X108964285Y-57404761D01*
X108821428Y-57452380D01*
X108583333Y-57452380D01*
X109488095Y-56452380D02*
X110107142Y-56452380D01*
X109773809Y-56833333D01*
X109916666Y-56833333D01*
X110011904Y-56880952D01*
X110059523Y-56928571D01*
X110107142Y-57023809D01*
X110107142Y-57261904D01*
X110059523Y-57357142D01*
X110011904Y-57404761D01*
X109916666Y-57452380D01*
X109630952Y-57452380D01*
X109535714Y-57404761D01*
X109488095Y-57357142D01*
X111059523Y-57452380D02*
X110488095Y-57452380D01*
X110773809Y-57452380D02*
X110773809Y-56452380D01*
X110678571Y-56595238D01*
X110583333Y-56690476D01*
X110488095Y-56738095D01*
X111916666Y-56785714D02*
X111916666Y-57452380D01*
X111678571Y-56404761D02*
X111440476Y-57119047D01*
X112059523Y-57119047D01*
X112583333Y-56880952D02*
X112488095Y-56833333D01*
X112440476Y-56785714D01*
X112392857Y-56690476D01*
X112392857Y-56642857D01*
X112440476Y-56547619D01*
X112488095Y-56500000D01*
X112583333Y-56452380D01*
X112773809Y-56452380D01*
X112869047Y-56500000D01*
X112916666Y-56547619D01*
X112964285Y-56642857D01*
X112964285Y-56690476D01*
X112916666Y-56785714D01*
X112869047Y-56833333D01*
X112773809Y-56880952D01*
X112583333Y-56880952D01*
X112488095Y-56928571D01*
X112440476Y-56976190D01*
X112392857Y-57071428D01*
X112392857Y-57261904D01*
X112440476Y-57357142D01*
X112488095Y-57404761D01*
X112583333Y-57452380D01*
X112773809Y-57452380D01*
X112869047Y-57404761D01*
X112916666Y-57357142D01*
X112964285Y-57261904D01*
X112964285Y-57071428D01*
X112916666Y-56976190D01*
X112869047Y-56928571D01*
X112773809Y-56880952D01*
X56083333Y-57452380D02*
X56083333Y-56452380D01*
X56321428Y-56452380D01*
X56464285Y-56500000D01*
X56559523Y-56595238D01*
X56607142Y-56690476D01*
X56654761Y-56880952D01*
X56654761Y-57023809D01*
X56607142Y-57214285D01*
X56559523Y-57309523D01*
X56464285Y-57404761D01*
X56321428Y-57452380D01*
X56083333Y-57452380D01*
X56988095Y-56452380D02*
X57607142Y-56452380D01*
X57273809Y-56833333D01*
X57416666Y-56833333D01*
X57511904Y-56880952D01*
X57559523Y-56928571D01*
X57607142Y-57023809D01*
X57607142Y-57261904D01*
X57559523Y-57357142D01*
X57511904Y-57404761D01*
X57416666Y-57452380D01*
X57130952Y-57452380D01*
X57035714Y-57404761D01*
X56988095Y-57357142D01*
X58559523Y-57452380D02*
X57988095Y-57452380D01*
X58273809Y-57452380D02*
X58273809Y-56452380D01*
X58178571Y-56595238D01*
X58083333Y-56690476D01*
X57988095Y-56738095D01*
X59464285Y-56452380D02*
X58988095Y-56452380D01*
X58940476Y-56928571D01*
X58988095Y-56880952D01*
X59083333Y-56833333D01*
X59321428Y-56833333D01*
X59416666Y-56880952D01*
X59464285Y-56928571D01*
X59511904Y-57023809D01*
X59511904Y-57261904D01*
X59464285Y-57357142D01*
X59416666Y-57404761D01*
X59321428Y-57452380D01*
X59083333Y-57452380D01*
X58988095Y-57404761D01*
X58940476Y-57357142D01*
X59892857Y-56547619D02*
X59940476Y-56500000D01*
X60035714Y-56452380D01*
X60273809Y-56452380D01*
X60369047Y-56500000D01*
X60416666Y-56547619D01*
X60464285Y-56642857D01*
X60464285Y-56738095D01*
X60416666Y-56880952D01*
X59845238Y-57452380D01*
X60464285Y-57452380D01*
X91083333Y-57452380D02*
X91083333Y-56452380D01*
X91321428Y-56452380D01*
X91464285Y-56500000D01*
X91559523Y-56595238D01*
X91607142Y-56690476D01*
X91654761Y-56880952D01*
X91654761Y-57023809D01*
X91607142Y-57214285D01*
X91559523Y-57309523D01*
X91464285Y-57404761D01*
X91321428Y-57452380D01*
X91083333Y-57452380D01*
X91988095Y-56452380D02*
X92607142Y-56452380D01*
X92273809Y-56833333D01*
X92416666Y-56833333D01*
X92511904Y-56880952D01*
X92559523Y-56928571D01*
X92607142Y-57023809D01*
X92607142Y-57261904D01*
X92559523Y-57357142D01*
X92511904Y-57404761D01*
X92416666Y-57452380D01*
X92130952Y-57452380D01*
X92035714Y-57404761D01*
X91988095Y-57357142D01*
X93559523Y-57452380D02*
X92988095Y-57452380D01*
X93273809Y-57452380D02*
X93273809Y-56452380D01*
X93178571Y-56595238D01*
X93083333Y-56690476D01*
X92988095Y-56738095D01*
X94416666Y-56785714D02*
X94416666Y-57452380D01*
X94178571Y-56404761D02*
X93940476Y-57119047D01*
X94559523Y-57119047D01*
X94845238Y-56452380D02*
X95511904Y-56452380D01*
X95083333Y-57452380D01*
X73583333Y-57452380D02*
X73583333Y-56452380D01*
X73821428Y-56452380D01*
X73964285Y-56500000D01*
X74059523Y-56595238D01*
X74107142Y-56690476D01*
X74154761Y-56880952D01*
X74154761Y-57023809D01*
X74107142Y-57214285D01*
X74059523Y-57309523D01*
X73964285Y-57404761D01*
X73821428Y-57452380D01*
X73583333Y-57452380D01*
X74488095Y-56452380D02*
X75107142Y-56452380D01*
X74773809Y-56833333D01*
X74916666Y-56833333D01*
X75011904Y-56880952D01*
X75059523Y-56928571D01*
X75107142Y-57023809D01*
X75107142Y-57261904D01*
X75059523Y-57357142D01*
X75011904Y-57404761D01*
X74916666Y-57452380D01*
X74630952Y-57452380D01*
X74535714Y-57404761D01*
X74488095Y-57357142D01*
X76059523Y-57452380D02*
X75488095Y-57452380D01*
X75773809Y-57452380D02*
X75773809Y-56452380D01*
X75678571Y-56595238D01*
X75583333Y-56690476D01*
X75488095Y-56738095D01*
X76916666Y-56785714D02*
X76916666Y-57452380D01*
X76678571Y-56404761D02*
X76440476Y-57119047D01*
X77059523Y-57119047D01*
X77869047Y-56452380D02*
X77678571Y-56452380D01*
X77583333Y-56500000D01*
X77535714Y-56547619D01*
X77440476Y-56690476D01*
X77392857Y-56880952D01*
X77392857Y-57261904D01*
X77440476Y-57357142D01*
X77488095Y-57404761D01*
X77583333Y-57452380D01*
X77773809Y-57452380D01*
X77869047Y-57404761D01*
X77916666Y-57357142D01*
X77964285Y-57261904D01*
X77964285Y-57023809D01*
X77916666Y-56928571D01*
X77869047Y-56880952D01*
X77773809Y-56833333D01*
X77583333Y-56833333D01*
X77488095Y-56880952D01*
X77440476Y-56928571D01*
X77392857Y-57023809D01*
X213583333Y-69452380D02*
X213583333Y-68452380D01*
X213821428Y-68452380D01*
X213964285Y-68500000D01*
X214059523Y-68595238D01*
X214107142Y-68690476D01*
X214154761Y-68880952D01*
X214154761Y-69023809D01*
X214107142Y-69214285D01*
X214059523Y-69309523D01*
X213964285Y-69404761D01*
X213821428Y-69452380D01*
X213583333Y-69452380D01*
X214488095Y-68452380D02*
X215107142Y-68452380D01*
X214773809Y-68833333D01*
X214916666Y-68833333D01*
X215011904Y-68880952D01*
X215059523Y-68928571D01*
X215107142Y-69023809D01*
X215107142Y-69261904D01*
X215059523Y-69357142D01*
X215011904Y-69404761D01*
X214916666Y-69452380D01*
X214630952Y-69452380D01*
X214535714Y-69404761D01*
X214488095Y-69357142D01*
X216059523Y-69452380D02*
X215488095Y-69452380D01*
X215773809Y-69452380D02*
X215773809Y-68452380D01*
X215678571Y-68595238D01*
X215583333Y-68690476D01*
X215488095Y-68738095D01*
X216392857Y-68452380D02*
X217059523Y-68452380D01*
X216630952Y-69452380D01*
X217345238Y-68452380D02*
X217964285Y-68452380D01*
X217630952Y-68833333D01*
X217773809Y-68833333D01*
X217869047Y-68880952D01*
X217916666Y-68928571D01*
X217964285Y-69023809D01*
X217964285Y-69261904D01*
X217916666Y-69357142D01*
X217869047Y-69404761D01*
X217773809Y-69452380D01*
X217488095Y-69452380D01*
X217392857Y-69404761D01*
X217345238Y-69357142D01*
X56083333Y-69452380D02*
X56083333Y-68452380D01*
X56321428Y-68452380D01*
X56464285Y-68500000D01*
X56559523Y-68595238D01*
X56607142Y-68690476D01*
X56654761Y-68880952D01*
X56654761Y-69023809D01*
X56607142Y-69214285D01*
X56559523Y-69309523D01*
X56464285Y-69404761D01*
X56321428Y-69452380D01*
X56083333Y-69452380D01*
X56988095Y-68452380D02*
X57607142Y-68452380D01*
X57273809Y-68833333D01*
X57416666Y-68833333D01*
X57511904Y-68880952D01*
X57559523Y-68928571D01*
X57607142Y-69023809D01*
X57607142Y-69261904D01*
X57559523Y-69357142D01*
X57511904Y-69404761D01*
X57416666Y-69452380D01*
X57130952Y-69452380D01*
X57035714Y-69404761D01*
X56988095Y-69357142D01*
X58559523Y-69452380D02*
X57988095Y-69452380D01*
X58273809Y-69452380D02*
X58273809Y-68452380D01*
X58178571Y-68595238D01*
X58083333Y-68690476D01*
X57988095Y-68738095D01*
X59416666Y-68452380D02*
X59226190Y-68452380D01*
X59130952Y-68500000D01*
X59083333Y-68547619D01*
X58988095Y-68690476D01*
X58940476Y-68880952D01*
X58940476Y-69261904D01*
X58988095Y-69357142D01*
X59035714Y-69404761D01*
X59130952Y-69452380D01*
X59321428Y-69452380D01*
X59416666Y-69404761D01*
X59464285Y-69357142D01*
X59511904Y-69261904D01*
X59511904Y-69023809D01*
X59464285Y-68928571D01*
X59416666Y-68880952D01*
X59321428Y-68833333D01*
X59130952Y-68833333D01*
X59035714Y-68880952D01*
X58988095Y-68928571D01*
X58940476Y-69023809D01*
X60369047Y-68785714D02*
X60369047Y-69452380D01*
X60130952Y-68404761D02*
X59892857Y-69119047D01*
X60511904Y-69119047D01*
X73583333Y-69452380D02*
X73583333Y-68452380D01*
X73821428Y-68452380D01*
X73964285Y-68500000D01*
X74059523Y-68595238D01*
X74107142Y-68690476D01*
X74154761Y-68880952D01*
X74154761Y-69023809D01*
X74107142Y-69214285D01*
X74059523Y-69309523D01*
X73964285Y-69404761D01*
X73821428Y-69452380D01*
X73583333Y-69452380D01*
X74488095Y-68452380D02*
X75107142Y-68452380D01*
X74773809Y-68833333D01*
X74916666Y-68833333D01*
X75011904Y-68880952D01*
X75059523Y-68928571D01*
X75107142Y-69023809D01*
X75107142Y-69261904D01*
X75059523Y-69357142D01*
X75011904Y-69404761D01*
X74916666Y-69452380D01*
X74630952Y-69452380D01*
X74535714Y-69404761D01*
X74488095Y-69357142D01*
X76059523Y-69452380D02*
X75488095Y-69452380D01*
X75773809Y-69452380D02*
X75773809Y-68452380D01*
X75678571Y-68595238D01*
X75583333Y-68690476D01*
X75488095Y-68738095D01*
X76916666Y-68452380D02*
X76726190Y-68452380D01*
X76630952Y-68500000D01*
X76583333Y-68547619D01*
X76488095Y-68690476D01*
X76440476Y-68880952D01*
X76440476Y-69261904D01*
X76488095Y-69357142D01*
X76535714Y-69404761D01*
X76630952Y-69452380D01*
X76821428Y-69452380D01*
X76916666Y-69404761D01*
X76964285Y-69357142D01*
X77011904Y-69261904D01*
X77011904Y-69023809D01*
X76964285Y-68928571D01*
X76916666Y-68880952D01*
X76821428Y-68833333D01*
X76630952Y-68833333D01*
X76535714Y-68880952D01*
X76488095Y-68928571D01*
X76440476Y-69023809D01*
X77964285Y-69452380D02*
X77392857Y-69452380D01*
X77678571Y-69452380D02*
X77678571Y-68452380D01*
X77583333Y-68595238D01*
X77488095Y-68690476D01*
X77392857Y-68738095D01*
X91083333Y-69452380D02*
X91083333Y-68452380D01*
X91321428Y-68452380D01*
X91464285Y-68500000D01*
X91559523Y-68595238D01*
X91607142Y-68690476D01*
X91654761Y-68880952D01*
X91654761Y-69023809D01*
X91607142Y-69214285D01*
X91559523Y-69309523D01*
X91464285Y-69404761D01*
X91321428Y-69452380D01*
X91083333Y-69452380D01*
X91988095Y-68452380D02*
X92607142Y-68452380D01*
X92273809Y-68833333D01*
X92416666Y-68833333D01*
X92511904Y-68880952D01*
X92559523Y-68928571D01*
X92607142Y-69023809D01*
X92607142Y-69261904D01*
X92559523Y-69357142D01*
X92511904Y-69404761D01*
X92416666Y-69452380D01*
X92130952Y-69452380D01*
X92035714Y-69404761D01*
X91988095Y-69357142D01*
X93559523Y-69452380D02*
X92988095Y-69452380D01*
X93273809Y-69452380D02*
X93273809Y-68452380D01*
X93178571Y-68595238D01*
X93083333Y-68690476D01*
X92988095Y-68738095D01*
X94416666Y-68452380D02*
X94226190Y-68452380D01*
X94130952Y-68500000D01*
X94083333Y-68547619D01*
X93988095Y-68690476D01*
X93940476Y-68880952D01*
X93940476Y-69261904D01*
X93988095Y-69357142D01*
X94035714Y-69404761D01*
X94130952Y-69452380D01*
X94321428Y-69452380D01*
X94416666Y-69404761D01*
X94464285Y-69357142D01*
X94511904Y-69261904D01*
X94511904Y-69023809D01*
X94464285Y-68928571D01*
X94416666Y-68880952D01*
X94321428Y-68833333D01*
X94130952Y-68833333D01*
X94035714Y-68880952D01*
X93988095Y-68928571D01*
X93940476Y-69023809D01*
X94892857Y-68547619D02*
X94940476Y-68500000D01*
X95035714Y-68452380D01*
X95273809Y-68452380D01*
X95369047Y-68500000D01*
X95416666Y-68547619D01*
X95464285Y-68642857D01*
X95464285Y-68738095D01*
X95416666Y-68880952D01*
X94845238Y-69452380D01*
X95464285Y-69452380D01*
X108583333Y-69452380D02*
X108583333Y-68452380D01*
X108821428Y-68452380D01*
X108964285Y-68500000D01*
X109059523Y-68595238D01*
X109107142Y-68690476D01*
X109154761Y-68880952D01*
X109154761Y-69023809D01*
X109107142Y-69214285D01*
X109059523Y-69309523D01*
X108964285Y-69404761D01*
X108821428Y-69452380D01*
X108583333Y-69452380D01*
X109488095Y-68452380D02*
X110107142Y-68452380D01*
X109773809Y-68833333D01*
X109916666Y-68833333D01*
X110011904Y-68880952D01*
X110059523Y-68928571D01*
X110107142Y-69023809D01*
X110107142Y-69261904D01*
X110059523Y-69357142D01*
X110011904Y-69404761D01*
X109916666Y-69452380D01*
X109630952Y-69452380D01*
X109535714Y-69404761D01*
X109488095Y-69357142D01*
X111059523Y-69452380D02*
X110488095Y-69452380D01*
X110773809Y-69452380D02*
X110773809Y-68452380D01*
X110678571Y-68595238D01*
X110583333Y-68690476D01*
X110488095Y-68738095D01*
X111916666Y-68452380D02*
X111726190Y-68452380D01*
X111630952Y-68500000D01*
X111583333Y-68547619D01*
X111488095Y-68690476D01*
X111440476Y-68880952D01*
X111440476Y-69261904D01*
X111488095Y-69357142D01*
X111535714Y-69404761D01*
X111630952Y-69452380D01*
X111821428Y-69452380D01*
X111916666Y-69404761D01*
X111964285Y-69357142D01*
X112011904Y-69261904D01*
X112011904Y-69023809D01*
X111964285Y-68928571D01*
X111916666Y-68880952D01*
X111821428Y-68833333D01*
X111630952Y-68833333D01*
X111535714Y-68880952D01*
X111488095Y-68928571D01*
X111440476Y-69023809D01*
X112345238Y-68452380D02*
X113011904Y-68452380D01*
X112583333Y-69452380D01*
X126083333Y-69452380D02*
X126083333Y-68452380D01*
X126321428Y-68452380D01*
X126464285Y-68500000D01*
X126559523Y-68595238D01*
X126607142Y-68690476D01*
X126654761Y-68880952D01*
X126654761Y-69023809D01*
X126607142Y-69214285D01*
X126559523Y-69309523D01*
X126464285Y-69404761D01*
X126321428Y-69452380D01*
X126083333Y-69452380D01*
X126988095Y-68452380D02*
X127607142Y-68452380D01*
X127273809Y-68833333D01*
X127416666Y-68833333D01*
X127511904Y-68880952D01*
X127559523Y-68928571D01*
X127607142Y-69023809D01*
X127607142Y-69261904D01*
X127559523Y-69357142D01*
X127511904Y-69404761D01*
X127416666Y-69452380D01*
X127130952Y-69452380D01*
X127035714Y-69404761D01*
X126988095Y-69357142D01*
X128559523Y-69452380D02*
X127988095Y-69452380D01*
X128273809Y-69452380D02*
X128273809Y-68452380D01*
X128178571Y-68595238D01*
X128083333Y-68690476D01*
X127988095Y-68738095D01*
X129416666Y-68452380D02*
X129226190Y-68452380D01*
X129130952Y-68500000D01*
X129083333Y-68547619D01*
X128988095Y-68690476D01*
X128940476Y-68880952D01*
X128940476Y-69261904D01*
X128988095Y-69357142D01*
X129035714Y-69404761D01*
X129130952Y-69452380D01*
X129321428Y-69452380D01*
X129416666Y-69404761D01*
X129464285Y-69357142D01*
X129511904Y-69261904D01*
X129511904Y-69023809D01*
X129464285Y-68928571D01*
X129416666Y-68880952D01*
X129321428Y-68833333D01*
X129130952Y-68833333D01*
X129035714Y-68880952D01*
X128988095Y-68928571D01*
X128940476Y-69023809D01*
X130369047Y-68452380D02*
X130178571Y-68452380D01*
X130083333Y-68500000D01*
X130035714Y-68547619D01*
X129940476Y-68690476D01*
X129892857Y-68880952D01*
X129892857Y-69261904D01*
X129940476Y-69357142D01*
X129988095Y-69404761D01*
X130083333Y-69452380D01*
X130273809Y-69452380D01*
X130369047Y-69404761D01*
X130416666Y-69357142D01*
X130464285Y-69261904D01*
X130464285Y-69023809D01*
X130416666Y-68928571D01*
X130369047Y-68880952D01*
X130273809Y-68833333D01*
X130083333Y-68833333D01*
X129988095Y-68880952D01*
X129940476Y-68928571D01*
X129892857Y-69023809D01*
X161083333Y-69452380D02*
X161083333Y-68452380D01*
X161321428Y-68452380D01*
X161464285Y-68500000D01*
X161559523Y-68595238D01*
X161607142Y-68690476D01*
X161654761Y-68880952D01*
X161654761Y-69023809D01*
X161607142Y-69214285D01*
X161559523Y-69309523D01*
X161464285Y-69404761D01*
X161321428Y-69452380D01*
X161083333Y-69452380D01*
X161988095Y-68452380D02*
X162607142Y-68452380D01*
X162273809Y-68833333D01*
X162416666Y-68833333D01*
X162511904Y-68880952D01*
X162559523Y-68928571D01*
X162607142Y-69023809D01*
X162607142Y-69261904D01*
X162559523Y-69357142D01*
X162511904Y-69404761D01*
X162416666Y-69452380D01*
X162130952Y-69452380D01*
X162035714Y-69404761D01*
X161988095Y-69357142D01*
X163559523Y-69452380D02*
X162988095Y-69452380D01*
X163273809Y-69452380D02*
X163273809Y-68452380D01*
X163178571Y-68595238D01*
X163083333Y-68690476D01*
X162988095Y-68738095D01*
X164416666Y-68452380D02*
X164226190Y-68452380D01*
X164130952Y-68500000D01*
X164083333Y-68547619D01*
X163988095Y-68690476D01*
X163940476Y-68880952D01*
X163940476Y-69261904D01*
X163988095Y-69357142D01*
X164035714Y-69404761D01*
X164130952Y-69452380D01*
X164321428Y-69452380D01*
X164416666Y-69404761D01*
X164464285Y-69357142D01*
X164511904Y-69261904D01*
X164511904Y-69023809D01*
X164464285Y-68928571D01*
X164416666Y-68880952D01*
X164321428Y-68833333D01*
X164130952Y-68833333D01*
X164035714Y-68880952D01*
X163988095Y-68928571D01*
X163940476Y-69023809D01*
X164845238Y-68452380D02*
X165464285Y-68452380D01*
X165130952Y-68833333D01*
X165273809Y-68833333D01*
X165369047Y-68880952D01*
X165416666Y-68928571D01*
X165464285Y-69023809D01*
X165464285Y-69261904D01*
X165416666Y-69357142D01*
X165369047Y-69404761D01*
X165273809Y-69452380D01*
X164988095Y-69452380D01*
X164892857Y-69404761D01*
X164845238Y-69357142D01*
X178583333Y-69452380D02*
X178583333Y-68452380D01*
X178821428Y-68452380D01*
X178964285Y-68500000D01*
X179059523Y-68595238D01*
X179107142Y-68690476D01*
X179154761Y-68880952D01*
X179154761Y-69023809D01*
X179107142Y-69214285D01*
X179059523Y-69309523D01*
X178964285Y-69404761D01*
X178821428Y-69452380D01*
X178583333Y-69452380D01*
X179488095Y-68452380D02*
X180107142Y-68452380D01*
X179773809Y-68833333D01*
X179916666Y-68833333D01*
X180011904Y-68880952D01*
X180059523Y-68928571D01*
X180107142Y-69023809D01*
X180107142Y-69261904D01*
X180059523Y-69357142D01*
X180011904Y-69404761D01*
X179916666Y-69452380D01*
X179630952Y-69452380D01*
X179535714Y-69404761D01*
X179488095Y-69357142D01*
X181059523Y-69452380D02*
X180488095Y-69452380D01*
X180773809Y-69452380D02*
X180773809Y-68452380D01*
X180678571Y-68595238D01*
X180583333Y-68690476D01*
X180488095Y-68738095D01*
X181916666Y-68452380D02*
X181726190Y-68452380D01*
X181630952Y-68500000D01*
X181583333Y-68547619D01*
X181488095Y-68690476D01*
X181440476Y-68880952D01*
X181440476Y-69261904D01*
X181488095Y-69357142D01*
X181535714Y-69404761D01*
X181630952Y-69452380D01*
X181821428Y-69452380D01*
X181916666Y-69404761D01*
X181964285Y-69357142D01*
X182011904Y-69261904D01*
X182011904Y-69023809D01*
X181964285Y-68928571D01*
X181916666Y-68880952D01*
X181821428Y-68833333D01*
X181630952Y-68833333D01*
X181535714Y-68880952D01*
X181488095Y-68928571D01*
X181440476Y-69023809D01*
X182583333Y-68880952D02*
X182488095Y-68833333D01*
X182440476Y-68785714D01*
X182392857Y-68690476D01*
X182392857Y-68642857D01*
X182440476Y-68547619D01*
X182488095Y-68500000D01*
X182583333Y-68452380D01*
X182773809Y-68452380D01*
X182869047Y-68500000D01*
X182916666Y-68547619D01*
X182964285Y-68642857D01*
X182964285Y-68690476D01*
X182916666Y-68785714D01*
X182869047Y-68833333D01*
X182773809Y-68880952D01*
X182583333Y-68880952D01*
X182488095Y-68928571D01*
X182440476Y-68976190D01*
X182392857Y-69071428D01*
X182392857Y-69261904D01*
X182440476Y-69357142D01*
X182488095Y-69404761D01*
X182583333Y-69452380D01*
X182773809Y-69452380D01*
X182869047Y-69404761D01*
X182916666Y-69357142D01*
X182964285Y-69261904D01*
X182964285Y-69071428D01*
X182916666Y-68976190D01*
X182869047Y-68928571D01*
X182773809Y-68880952D01*
X196083333Y-69452380D02*
X196083333Y-68452380D01*
X196321428Y-68452380D01*
X196464285Y-68500000D01*
X196559523Y-68595238D01*
X196607142Y-68690476D01*
X196654761Y-68880952D01*
X196654761Y-69023809D01*
X196607142Y-69214285D01*
X196559523Y-69309523D01*
X196464285Y-69404761D01*
X196321428Y-69452380D01*
X196083333Y-69452380D01*
X196988095Y-68452380D02*
X197607142Y-68452380D01*
X197273809Y-68833333D01*
X197416666Y-68833333D01*
X197511904Y-68880952D01*
X197559523Y-68928571D01*
X197607142Y-69023809D01*
X197607142Y-69261904D01*
X197559523Y-69357142D01*
X197511904Y-69404761D01*
X197416666Y-69452380D01*
X197130952Y-69452380D01*
X197035714Y-69404761D01*
X196988095Y-69357142D01*
X198559523Y-69452380D02*
X197988095Y-69452380D01*
X198273809Y-69452380D02*
X198273809Y-68452380D01*
X198178571Y-68595238D01*
X198083333Y-68690476D01*
X197988095Y-68738095D01*
X198892857Y-68452380D02*
X199559523Y-68452380D01*
X199130952Y-69452380D01*
X200464285Y-69452380D02*
X199892857Y-69452380D01*
X200178571Y-69452380D02*
X200178571Y-68452380D01*
X200083333Y-68595238D01*
X199988095Y-68690476D01*
X199892857Y-68738095D01*
X213583333Y-44452380D02*
X213583333Y-43452380D01*
X213821428Y-43452380D01*
X213964285Y-43500000D01*
X214059523Y-43595238D01*
X214107142Y-43690476D01*
X214154761Y-43880952D01*
X214154761Y-44023809D01*
X214107142Y-44214285D01*
X214059523Y-44309523D01*
X213964285Y-44404761D01*
X213821428Y-44452380D01*
X213583333Y-44452380D01*
X214488095Y-43452380D02*
X215107142Y-43452380D01*
X214773809Y-43833333D01*
X214916666Y-43833333D01*
X215011904Y-43880952D01*
X215059523Y-43928571D01*
X215107142Y-44023809D01*
X215107142Y-44261904D01*
X215059523Y-44357142D01*
X215011904Y-44404761D01*
X214916666Y-44452380D01*
X214630952Y-44452380D01*
X214535714Y-44404761D01*
X214488095Y-44357142D01*
X216059523Y-44452380D02*
X215488095Y-44452380D01*
X215773809Y-44452380D02*
X215773809Y-43452380D01*
X215678571Y-43595238D01*
X215583333Y-43690476D01*
X215488095Y-43738095D01*
X216916666Y-43785714D02*
X216916666Y-44452380D01*
X216678571Y-43404761D02*
X216440476Y-44119047D01*
X217059523Y-44119047D01*
X217345238Y-43452380D02*
X217964285Y-43452380D01*
X217630952Y-43833333D01*
X217773809Y-43833333D01*
X217869047Y-43880952D01*
X217916666Y-43928571D01*
X217964285Y-44023809D01*
X217964285Y-44261904D01*
X217916666Y-44357142D01*
X217869047Y-44404761D01*
X217773809Y-44452380D01*
X217488095Y-44452380D01*
X217392857Y-44404761D01*
X217345238Y-44357142D01*
X56083333Y-44452380D02*
X56083333Y-43452380D01*
X56321428Y-43452380D01*
X56464285Y-43500000D01*
X56559523Y-43595238D01*
X56607142Y-43690476D01*
X56654761Y-43880952D01*
X56654761Y-44023809D01*
X56607142Y-44214285D01*
X56559523Y-44309523D01*
X56464285Y-44404761D01*
X56321428Y-44452380D01*
X56083333Y-44452380D01*
X56988095Y-43452380D02*
X57607142Y-43452380D01*
X57273809Y-43833333D01*
X57416666Y-43833333D01*
X57511904Y-43880952D01*
X57559523Y-43928571D01*
X57607142Y-44023809D01*
X57607142Y-44261904D01*
X57559523Y-44357142D01*
X57511904Y-44404761D01*
X57416666Y-44452380D01*
X57130952Y-44452380D01*
X57035714Y-44404761D01*
X56988095Y-44357142D01*
X58559523Y-44452380D02*
X57988095Y-44452380D01*
X58273809Y-44452380D02*
X58273809Y-43452380D01*
X58178571Y-43595238D01*
X58083333Y-43690476D01*
X57988095Y-43738095D01*
X58892857Y-43452380D02*
X59511904Y-43452380D01*
X59178571Y-43833333D01*
X59321428Y-43833333D01*
X59416666Y-43880952D01*
X59464285Y-43928571D01*
X59511904Y-44023809D01*
X59511904Y-44261904D01*
X59464285Y-44357142D01*
X59416666Y-44404761D01*
X59321428Y-44452380D01*
X59035714Y-44452380D01*
X58940476Y-44404761D01*
X58892857Y-44357142D01*
X60464285Y-44452380D02*
X59892857Y-44452380D01*
X60178571Y-44452380D02*
X60178571Y-43452380D01*
X60083333Y-43595238D01*
X59988095Y-43690476D01*
X59892857Y-43738095D01*
X73583333Y-44452380D02*
X73583333Y-43452380D01*
X73821428Y-43452380D01*
X73964285Y-43500000D01*
X74059523Y-43595238D01*
X74107142Y-43690476D01*
X74154761Y-43880952D01*
X74154761Y-44023809D01*
X74107142Y-44214285D01*
X74059523Y-44309523D01*
X73964285Y-44404761D01*
X73821428Y-44452380D01*
X73583333Y-44452380D01*
X74488095Y-43452380D02*
X75107142Y-43452380D01*
X74773809Y-43833333D01*
X74916666Y-43833333D01*
X75011904Y-43880952D01*
X75059523Y-43928571D01*
X75107142Y-44023809D01*
X75107142Y-44261904D01*
X75059523Y-44357142D01*
X75011904Y-44404761D01*
X74916666Y-44452380D01*
X74630952Y-44452380D01*
X74535714Y-44404761D01*
X74488095Y-44357142D01*
X76059523Y-44452380D02*
X75488095Y-44452380D01*
X75773809Y-44452380D02*
X75773809Y-43452380D01*
X75678571Y-43595238D01*
X75583333Y-43690476D01*
X75488095Y-43738095D01*
X76392857Y-43452380D02*
X77011904Y-43452380D01*
X76678571Y-43833333D01*
X76821428Y-43833333D01*
X76916666Y-43880952D01*
X76964285Y-43928571D01*
X77011904Y-44023809D01*
X77011904Y-44261904D01*
X76964285Y-44357142D01*
X76916666Y-44404761D01*
X76821428Y-44452380D01*
X76535714Y-44452380D01*
X76440476Y-44404761D01*
X76392857Y-44357142D01*
X77392857Y-43547619D02*
X77440476Y-43500000D01*
X77535714Y-43452380D01*
X77773809Y-43452380D01*
X77869047Y-43500000D01*
X77916666Y-43547619D01*
X77964285Y-43642857D01*
X77964285Y-43738095D01*
X77916666Y-43880952D01*
X77345238Y-44452380D01*
X77964285Y-44452380D01*
X91083333Y-44452380D02*
X91083333Y-43452380D01*
X91321428Y-43452380D01*
X91464285Y-43500000D01*
X91559523Y-43595238D01*
X91607142Y-43690476D01*
X91654761Y-43880952D01*
X91654761Y-44023809D01*
X91607142Y-44214285D01*
X91559523Y-44309523D01*
X91464285Y-44404761D01*
X91321428Y-44452380D01*
X91083333Y-44452380D01*
X91988095Y-43452380D02*
X92607142Y-43452380D01*
X92273809Y-43833333D01*
X92416666Y-43833333D01*
X92511904Y-43880952D01*
X92559523Y-43928571D01*
X92607142Y-44023809D01*
X92607142Y-44261904D01*
X92559523Y-44357142D01*
X92511904Y-44404761D01*
X92416666Y-44452380D01*
X92130952Y-44452380D01*
X92035714Y-44404761D01*
X91988095Y-44357142D01*
X93559523Y-44452380D02*
X92988095Y-44452380D01*
X93273809Y-44452380D02*
X93273809Y-43452380D01*
X93178571Y-43595238D01*
X93083333Y-43690476D01*
X92988095Y-43738095D01*
X93892857Y-43452380D02*
X94511904Y-43452380D01*
X94178571Y-43833333D01*
X94321428Y-43833333D01*
X94416666Y-43880952D01*
X94464285Y-43928571D01*
X94511904Y-44023809D01*
X94511904Y-44261904D01*
X94464285Y-44357142D01*
X94416666Y-44404761D01*
X94321428Y-44452380D01*
X94035714Y-44452380D01*
X93940476Y-44404761D01*
X93892857Y-44357142D01*
X94845238Y-43452380D02*
X95464285Y-43452380D01*
X95130952Y-43833333D01*
X95273809Y-43833333D01*
X95369047Y-43880952D01*
X95416666Y-43928571D01*
X95464285Y-44023809D01*
X95464285Y-44261904D01*
X95416666Y-44357142D01*
X95369047Y-44404761D01*
X95273809Y-44452380D01*
X94988095Y-44452380D01*
X94892857Y-44404761D01*
X94845238Y-44357142D01*
X108583333Y-44452380D02*
X108583333Y-43452380D01*
X108821428Y-43452380D01*
X108964285Y-43500000D01*
X109059523Y-43595238D01*
X109107142Y-43690476D01*
X109154761Y-43880952D01*
X109154761Y-44023809D01*
X109107142Y-44214285D01*
X109059523Y-44309523D01*
X108964285Y-44404761D01*
X108821428Y-44452380D01*
X108583333Y-44452380D01*
X109488095Y-43452380D02*
X110107142Y-43452380D01*
X109773809Y-43833333D01*
X109916666Y-43833333D01*
X110011904Y-43880952D01*
X110059523Y-43928571D01*
X110107142Y-44023809D01*
X110107142Y-44261904D01*
X110059523Y-44357142D01*
X110011904Y-44404761D01*
X109916666Y-44452380D01*
X109630952Y-44452380D01*
X109535714Y-44404761D01*
X109488095Y-44357142D01*
X111059523Y-44452380D02*
X110488095Y-44452380D01*
X110773809Y-44452380D02*
X110773809Y-43452380D01*
X110678571Y-43595238D01*
X110583333Y-43690476D01*
X110488095Y-43738095D01*
X111392857Y-43452380D02*
X112011904Y-43452380D01*
X111678571Y-43833333D01*
X111821428Y-43833333D01*
X111916666Y-43880952D01*
X111964285Y-43928571D01*
X112011904Y-44023809D01*
X112011904Y-44261904D01*
X111964285Y-44357142D01*
X111916666Y-44404761D01*
X111821428Y-44452380D01*
X111535714Y-44452380D01*
X111440476Y-44404761D01*
X111392857Y-44357142D01*
X112869047Y-43785714D02*
X112869047Y-44452380D01*
X112630952Y-43404761D02*
X112392857Y-44119047D01*
X113011904Y-44119047D01*
X126083333Y-44452380D02*
X126083333Y-43452380D01*
X126321428Y-43452380D01*
X126464285Y-43500000D01*
X126559523Y-43595238D01*
X126607142Y-43690476D01*
X126654761Y-43880952D01*
X126654761Y-44023809D01*
X126607142Y-44214285D01*
X126559523Y-44309523D01*
X126464285Y-44404761D01*
X126321428Y-44452380D01*
X126083333Y-44452380D01*
X126988095Y-43452380D02*
X127607142Y-43452380D01*
X127273809Y-43833333D01*
X127416666Y-43833333D01*
X127511904Y-43880952D01*
X127559523Y-43928571D01*
X127607142Y-44023809D01*
X127607142Y-44261904D01*
X127559523Y-44357142D01*
X127511904Y-44404761D01*
X127416666Y-44452380D01*
X127130952Y-44452380D01*
X127035714Y-44404761D01*
X126988095Y-44357142D01*
X128559523Y-44452380D02*
X127988095Y-44452380D01*
X128273809Y-44452380D02*
X128273809Y-43452380D01*
X128178571Y-43595238D01*
X128083333Y-43690476D01*
X127988095Y-43738095D01*
X128892857Y-43452380D02*
X129511904Y-43452380D01*
X129178571Y-43833333D01*
X129321428Y-43833333D01*
X129416666Y-43880952D01*
X129464285Y-43928571D01*
X129511904Y-44023809D01*
X129511904Y-44261904D01*
X129464285Y-44357142D01*
X129416666Y-44404761D01*
X129321428Y-44452380D01*
X129035714Y-44452380D01*
X128940476Y-44404761D01*
X128892857Y-44357142D01*
X130369047Y-43452380D02*
X130178571Y-43452380D01*
X130083333Y-43500000D01*
X130035714Y-43547619D01*
X129940476Y-43690476D01*
X129892857Y-43880952D01*
X129892857Y-44261904D01*
X129940476Y-44357142D01*
X129988095Y-44404761D01*
X130083333Y-44452380D01*
X130273809Y-44452380D01*
X130369047Y-44404761D01*
X130416666Y-44357142D01*
X130464285Y-44261904D01*
X130464285Y-44023809D01*
X130416666Y-43928571D01*
X130369047Y-43880952D01*
X130273809Y-43833333D01*
X130083333Y-43833333D01*
X129988095Y-43880952D01*
X129940476Y-43928571D01*
X129892857Y-44023809D01*
X196083333Y-44452380D02*
X196083333Y-43452380D01*
X196321428Y-43452380D01*
X196464285Y-43500000D01*
X196559523Y-43595238D01*
X196607142Y-43690476D01*
X196654761Y-43880952D01*
X196654761Y-44023809D01*
X196607142Y-44214285D01*
X196559523Y-44309523D01*
X196464285Y-44404761D01*
X196321428Y-44452380D01*
X196083333Y-44452380D01*
X196988095Y-43452380D02*
X197607142Y-43452380D01*
X197273809Y-43833333D01*
X197416666Y-43833333D01*
X197511904Y-43880952D01*
X197559523Y-43928571D01*
X197607142Y-44023809D01*
X197607142Y-44261904D01*
X197559523Y-44357142D01*
X197511904Y-44404761D01*
X197416666Y-44452380D01*
X197130952Y-44452380D01*
X197035714Y-44404761D01*
X196988095Y-44357142D01*
X198559523Y-44452380D02*
X197988095Y-44452380D01*
X198273809Y-44452380D02*
X198273809Y-43452380D01*
X198178571Y-43595238D01*
X198083333Y-43690476D01*
X197988095Y-43738095D01*
X199416666Y-43785714D02*
X199416666Y-44452380D01*
X199178571Y-43404761D02*
X198940476Y-44119047D01*
X199559523Y-44119047D01*
X199892857Y-43547619D02*
X199940476Y-43500000D01*
X200035714Y-43452380D01*
X200273809Y-43452380D01*
X200369047Y-43500000D01*
X200416666Y-43547619D01*
X200464285Y-43642857D01*
X200464285Y-43738095D01*
X200416666Y-43880952D01*
X199845238Y-44452380D01*
X200464285Y-44452380D01*
X178583333Y-44452380D02*
X178583333Y-43452380D01*
X178821428Y-43452380D01*
X178964285Y-43500000D01*
X179059523Y-43595238D01*
X179107142Y-43690476D01*
X179154761Y-43880952D01*
X179154761Y-44023809D01*
X179107142Y-44214285D01*
X179059523Y-44309523D01*
X178964285Y-44404761D01*
X178821428Y-44452380D01*
X178583333Y-44452380D01*
X179488095Y-43452380D02*
X180107142Y-43452380D01*
X179773809Y-43833333D01*
X179916666Y-43833333D01*
X180011904Y-43880952D01*
X180059523Y-43928571D01*
X180107142Y-44023809D01*
X180107142Y-44261904D01*
X180059523Y-44357142D01*
X180011904Y-44404761D01*
X179916666Y-44452380D01*
X179630952Y-44452380D01*
X179535714Y-44404761D01*
X179488095Y-44357142D01*
X181059523Y-44452380D02*
X180488095Y-44452380D01*
X180773809Y-44452380D02*
X180773809Y-43452380D01*
X180678571Y-43595238D01*
X180583333Y-43690476D01*
X180488095Y-43738095D01*
X181916666Y-43785714D02*
X181916666Y-44452380D01*
X181678571Y-43404761D02*
X181440476Y-44119047D01*
X182059523Y-44119047D01*
X182964285Y-44452380D02*
X182392857Y-44452380D01*
X182678571Y-44452380D02*
X182678571Y-43452380D01*
X182583333Y-43595238D01*
X182488095Y-43690476D01*
X182392857Y-43738095D01*
X161083333Y-44452380D02*
X161083333Y-43452380D01*
X161321428Y-43452380D01*
X161464285Y-43500000D01*
X161559523Y-43595238D01*
X161607142Y-43690476D01*
X161654761Y-43880952D01*
X161654761Y-44023809D01*
X161607142Y-44214285D01*
X161559523Y-44309523D01*
X161464285Y-44404761D01*
X161321428Y-44452380D01*
X161083333Y-44452380D01*
X161988095Y-43452380D02*
X162607142Y-43452380D01*
X162273809Y-43833333D01*
X162416666Y-43833333D01*
X162511904Y-43880952D01*
X162559523Y-43928571D01*
X162607142Y-44023809D01*
X162607142Y-44261904D01*
X162559523Y-44357142D01*
X162511904Y-44404761D01*
X162416666Y-44452380D01*
X162130952Y-44452380D01*
X162035714Y-44404761D01*
X161988095Y-44357142D01*
X163559523Y-44452380D02*
X162988095Y-44452380D01*
X163273809Y-44452380D02*
X163273809Y-43452380D01*
X163178571Y-43595238D01*
X163083333Y-43690476D01*
X162988095Y-43738095D01*
X163892857Y-43452380D02*
X164511904Y-43452380D01*
X164178571Y-43833333D01*
X164321428Y-43833333D01*
X164416666Y-43880952D01*
X164464285Y-43928571D01*
X164511904Y-44023809D01*
X164511904Y-44261904D01*
X164464285Y-44357142D01*
X164416666Y-44404761D01*
X164321428Y-44452380D01*
X164035714Y-44452380D01*
X163940476Y-44404761D01*
X163892857Y-44357142D01*
X165083333Y-43880952D02*
X164988095Y-43833333D01*
X164940476Y-43785714D01*
X164892857Y-43690476D01*
X164892857Y-43642857D01*
X164940476Y-43547619D01*
X164988095Y-43500000D01*
X165083333Y-43452380D01*
X165273809Y-43452380D01*
X165369047Y-43500000D01*
X165416666Y-43547619D01*
X165464285Y-43642857D01*
X165464285Y-43690476D01*
X165416666Y-43785714D01*
X165369047Y-43833333D01*
X165273809Y-43880952D01*
X165083333Y-43880952D01*
X164988095Y-43928571D01*
X164940476Y-43976190D01*
X164892857Y-44071428D01*
X164892857Y-44261904D01*
X164940476Y-44357142D01*
X164988095Y-44404761D01*
X165083333Y-44452380D01*
X165273809Y-44452380D01*
X165369047Y-44404761D01*
X165416666Y-44357142D01*
X165464285Y-44261904D01*
X165464285Y-44071428D01*
X165416666Y-43976190D01*
X165369047Y-43928571D01*
X165273809Y-43880952D01*
X143583333Y-44452380D02*
X143583333Y-43452380D01*
X143821428Y-43452380D01*
X143964285Y-43500000D01*
X144059523Y-43595238D01*
X144107142Y-43690476D01*
X144154761Y-43880952D01*
X144154761Y-44023809D01*
X144107142Y-44214285D01*
X144059523Y-44309523D01*
X143964285Y-44404761D01*
X143821428Y-44452380D01*
X143583333Y-44452380D01*
X144488095Y-43452380D02*
X145107142Y-43452380D01*
X144773809Y-43833333D01*
X144916666Y-43833333D01*
X145011904Y-43880952D01*
X145059523Y-43928571D01*
X145107142Y-44023809D01*
X145107142Y-44261904D01*
X145059523Y-44357142D01*
X145011904Y-44404761D01*
X144916666Y-44452380D01*
X144630952Y-44452380D01*
X144535714Y-44404761D01*
X144488095Y-44357142D01*
X146059523Y-44452380D02*
X145488095Y-44452380D01*
X145773809Y-44452380D02*
X145773809Y-43452380D01*
X145678571Y-43595238D01*
X145583333Y-43690476D01*
X145488095Y-43738095D01*
X146392857Y-43452380D02*
X147011904Y-43452380D01*
X146678571Y-43833333D01*
X146821428Y-43833333D01*
X146916666Y-43880952D01*
X146964285Y-43928571D01*
X147011904Y-44023809D01*
X147011904Y-44261904D01*
X146964285Y-44357142D01*
X146916666Y-44404761D01*
X146821428Y-44452380D01*
X146535714Y-44452380D01*
X146440476Y-44404761D01*
X146392857Y-44357142D01*
X147345238Y-43452380D02*
X148011904Y-43452380D01*
X147583333Y-44452380D01*
%LPC*%
D12*
X158770000Y-51500000D03*
X84520000Y-57000000D03*
X137020000Y-45500000D03*
X207020000Y-69000000D03*
X48270000Y-69000000D03*
M02*
