G04 #@! TF.GenerationSoftware,KiCad,Pcbnew,(5.1.7)-1*
G04 #@! TF.CreationDate,2022-06-07T00:48:51+02:00*
G04 #@! TF.ProjectId,Kondensator-Adapter-16mm,4b6f6e64-656e-4736-9174-6f722d416461,rev?*
G04 #@! TF.SameCoordinates,Original*
G04 #@! TF.FileFunction,Copper,L2,Bot*
G04 #@! TF.FilePolarity,Positive*
%FSLAX46Y46*%
G04 Gerber Fmt 4.6, Leading zero omitted, Abs format (unit mm)*
G04 Created by KiCad (PCBNEW (5.1.7)-1) date 2022-06-07 00:48:51*
%MOMM*%
%LPD*%
G01*
G04 APERTURE LIST*
G04 #@! TA.AperFunction,ComponentPad*
%ADD10C,2.500000*%
G04 #@! TD*
G04 #@! TA.AperFunction,Conductor*
%ADD11C,2.500000*%
G04 #@! TD*
G04 #@! TA.AperFunction,Conductor*
%ADD12C,0.500000*%
G04 #@! TD*
G04 #@! TA.AperFunction,Conductor*
%ADD13C,0.100000*%
G04 #@! TD*
G04 APERTURE END LIST*
D10*
X169048862Y-38661675D03*
X176548861Y-38661674D03*
X179727066Y-42661675D03*
X172798862Y-30661674D03*
X165870658Y-42661674D03*
X172798862Y-38661675D03*
D11*
X176548860Y-38661675D02*
X176548861Y-38661674D01*
X172798862Y-38661675D02*
X176548860Y-38661675D01*
D12*
X172989781Y-30647532D02*
X172975639Y-30661674D01*
X174306412Y-31992448D01*
X174698634Y-31887430D01*
X174901264Y-31493251D01*
X175023100Y-31067114D01*
X175059458Y-30625397D01*
X175046063Y-30508631D01*
X175523061Y-30636442D01*
X176547259Y-31060679D01*
X177507320Y-31614970D01*
X178386818Y-32289833D01*
X179170704Y-33073719D01*
X179845567Y-33953217D01*
X180399858Y-34913278D01*
X180824095Y-35937476D01*
X181111017Y-37008285D01*
X181255716Y-38107383D01*
X181255716Y-39215967D01*
X181111017Y-40315065D01*
X180972048Y-40833706D01*
X180952822Y-40761903D01*
X180558643Y-40559273D01*
X180132506Y-40437437D01*
X179690789Y-40401079D01*
X179250465Y-40451593D01*
X178828456Y-40587039D01*
X178501310Y-40761903D01*
X178396292Y-41154125D01*
X179727066Y-42484898D01*
X179741208Y-42470756D01*
X179917985Y-42647533D01*
X179903843Y-42661675D01*
X179917985Y-42675817D01*
X179741208Y-42852594D01*
X179727066Y-42838452D01*
X178396292Y-44169225D01*
X178501310Y-44561447D01*
X178737482Y-44682853D01*
X178386818Y-45033517D01*
X177507320Y-45708380D01*
X176547259Y-46262671D01*
X175523061Y-46686908D01*
X174452252Y-46973830D01*
X173353154Y-47118529D01*
X172244570Y-47118529D01*
X171145472Y-46973830D01*
X170074663Y-46686908D01*
X169050465Y-46262671D01*
X168090404Y-45708380D01*
X167210906Y-45033517D01*
X166863390Y-44686001D01*
X167096414Y-44561446D01*
X167201432Y-44169224D01*
X165870658Y-42838451D01*
X165856516Y-42852593D01*
X165679739Y-42675816D01*
X165693881Y-42661674D01*
X166047435Y-42661674D01*
X167378208Y-43992448D01*
X167770430Y-43887430D01*
X167973060Y-43493251D01*
X168094896Y-43067114D01*
X168125281Y-42697952D01*
X177466470Y-42697952D01*
X177516984Y-43138276D01*
X177652430Y-43560285D01*
X177827294Y-43887431D01*
X178219516Y-43992449D01*
X179550289Y-42661675D01*
X178219516Y-41330901D01*
X177827294Y-41435919D01*
X177624664Y-41830098D01*
X177502828Y-42256235D01*
X177466470Y-42697952D01*
X168125281Y-42697952D01*
X168131254Y-42625397D01*
X168080740Y-42185073D01*
X167945294Y-41763064D01*
X167770430Y-41435918D01*
X167378208Y-41330900D01*
X166047435Y-42661674D01*
X165693881Y-42661674D01*
X165679739Y-42647532D01*
X165856516Y-42470755D01*
X165870658Y-42484897D01*
X167201432Y-41154124D01*
X167096414Y-40761902D01*
X166702235Y-40559272D01*
X166276098Y-40437436D01*
X165834381Y-40401078D01*
X165394057Y-40451592D01*
X164972048Y-40587038D01*
X164644902Y-40761902D01*
X164625676Y-40833706D01*
X164486707Y-40315065D01*
X164467507Y-40169225D01*
X167718088Y-40169225D01*
X167823106Y-40561447D01*
X168217285Y-40764077D01*
X168643422Y-40885913D01*
X169085139Y-40922271D01*
X169525463Y-40871757D01*
X169947472Y-40736311D01*
X170274618Y-40561447D01*
X170379636Y-40169225D01*
X169048862Y-38838452D01*
X167718088Y-40169225D01*
X164467507Y-40169225D01*
X164342008Y-39215967D01*
X164342008Y-38697952D01*
X166788266Y-38697952D01*
X166838780Y-39138276D01*
X166974226Y-39560285D01*
X167149090Y-39887431D01*
X167541312Y-39992449D01*
X168872085Y-38661675D01*
X169225639Y-38661675D01*
X170556412Y-39992449D01*
X170908534Y-39898168D01*
X170919004Y-39917756D01*
X170989460Y-40003607D01*
X171051173Y-40095967D01*
X171129718Y-40174512D01*
X171200174Y-40260363D01*
X171286025Y-40330819D01*
X171364570Y-40409364D01*
X171456930Y-40471077D01*
X171542781Y-40541533D01*
X171640728Y-40593887D01*
X171733087Y-40655599D01*
X171835712Y-40698108D01*
X171933658Y-40750461D01*
X172039936Y-40782700D01*
X172142561Y-40825209D01*
X172251506Y-40846879D01*
X172357785Y-40879119D01*
X172468313Y-40890005D01*
X172577256Y-40911675D01*
X176438335Y-40911675D01*
X176548860Y-40922561D01*
X176659385Y-40911675D01*
X176659388Y-40911675D01*
X176659398Y-40911674D01*
X176770467Y-40911674D01*
X176879401Y-40890006D01*
X176989937Y-40879119D01*
X177096224Y-40846877D01*
X177205162Y-40825208D01*
X177307781Y-40782702D01*
X177414064Y-40750461D01*
X177512015Y-40698105D01*
X177614636Y-40655598D01*
X177706992Y-40593888D01*
X177804941Y-40541533D01*
X177890794Y-40471075D01*
X177983153Y-40409363D01*
X178061697Y-40330819D01*
X178147548Y-40260363D01*
X178218004Y-40174512D01*
X178296550Y-40095966D01*
X178358264Y-40003605D01*
X178428718Y-39917756D01*
X178481070Y-39819811D01*
X178542785Y-39727449D01*
X178585295Y-39624821D01*
X178637646Y-39526879D01*
X178669883Y-39420607D01*
X178712395Y-39317975D01*
X178734067Y-39209024D01*
X178766304Y-39102752D01*
X178777189Y-38992232D01*
X178798861Y-38883280D01*
X178798861Y-38772193D01*
X178809746Y-38661675D01*
X178798861Y-38551157D01*
X178798861Y-38440068D01*
X178777189Y-38331114D01*
X178766304Y-38220598D01*
X178755528Y-38185074D01*
X178734068Y-38114328D01*
X178712395Y-38005373D01*
X178669883Y-37902740D01*
X178637647Y-37796472D01*
X178585298Y-37698533D01*
X178542785Y-37595899D01*
X178481066Y-37503529D01*
X178428718Y-37405594D01*
X178358271Y-37319754D01*
X178296550Y-37227382D01*
X178217995Y-37148827D01*
X178147548Y-37062987D01*
X178061708Y-36992540D01*
X177983153Y-36913985D01*
X177890781Y-36852264D01*
X177804941Y-36781817D01*
X177707006Y-36729469D01*
X177614636Y-36667750D01*
X177512002Y-36625237D01*
X177414063Y-36572888D01*
X177307795Y-36540652D01*
X177205162Y-36498140D01*
X177096207Y-36476467D01*
X176989937Y-36444231D01*
X176879421Y-36433346D01*
X176770467Y-36411674D01*
X176659378Y-36411674D01*
X176548860Y-36400789D01*
X176438342Y-36411674D01*
X176327255Y-36411674D01*
X176327250Y-36411675D01*
X172577256Y-36411675D01*
X172468313Y-36433345D01*
X172357785Y-36444231D01*
X172251506Y-36476471D01*
X172142561Y-36498141D01*
X172039936Y-36540650D01*
X171933658Y-36572889D01*
X171835712Y-36625242D01*
X171733087Y-36667751D01*
X171640728Y-36729463D01*
X171542781Y-36781817D01*
X171456930Y-36852273D01*
X171364570Y-36913986D01*
X171286027Y-36992529D01*
X171200174Y-37062987D01*
X171129718Y-37148838D01*
X171051173Y-37227383D01*
X170989460Y-37319743D01*
X170919004Y-37405594D01*
X170908534Y-37425182D01*
X170556412Y-37330901D01*
X169225639Y-38661675D01*
X168872085Y-38661675D01*
X167541312Y-37330901D01*
X167149090Y-37435919D01*
X166946460Y-37830098D01*
X166824624Y-38256235D01*
X166788266Y-38697952D01*
X164342008Y-38697952D01*
X164342008Y-38107383D01*
X164467506Y-37154125D01*
X167718088Y-37154125D01*
X169048862Y-38484898D01*
X170379636Y-37154125D01*
X170274618Y-36761903D01*
X169880439Y-36559273D01*
X169454302Y-36437437D01*
X169012585Y-36401079D01*
X168572261Y-36451593D01*
X168150252Y-36587039D01*
X167823106Y-36761903D01*
X167718088Y-37154125D01*
X164467506Y-37154125D01*
X164486707Y-37008285D01*
X164773629Y-35937476D01*
X165197866Y-34913278D01*
X165752157Y-33953217D01*
X166427020Y-33073719D01*
X167210906Y-32289833D01*
X167368086Y-32169224D01*
X171468088Y-32169224D01*
X171573106Y-32561446D01*
X171967285Y-32764076D01*
X172393422Y-32885912D01*
X172835139Y-32922270D01*
X173275463Y-32871756D01*
X173697472Y-32736310D01*
X174024618Y-32561446D01*
X174129636Y-32169224D01*
X172798862Y-30838451D01*
X171468088Y-32169224D01*
X167368086Y-32169224D01*
X168090404Y-31614970D01*
X169050465Y-31060679D01*
X170074663Y-30636442D01*
X170553898Y-30508031D01*
X170538266Y-30697951D01*
X170588780Y-31138275D01*
X170724226Y-31560284D01*
X170899090Y-31887430D01*
X171291312Y-31992448D01*
X172622085Y-30661674D01*
X172607943Y-30647532D01*
X172784720Y-30470755D01*
X172798862Y-30484897D01*
X172813004Y-30470755D01*
X172989781Y-30647532D01*
G04 #@! TA.AperFunction,Conductor*
D13*
G36*
X172989781Y-30647532D02*
G01*
X172975639Y-30661674D01*
X174306412Y-31992448D01*
X174698634Y-31887430D01*
X174901264Y-31493251D01*
X175023100Y-31067114D01*
X175059458Y-30625397D01*
X175046063Y-30508631D01*
X175523061Y-30636442D01*
X176547259Y-31060679D01*
X177507320Y-31614970D01*
X178386818Y-32289833D01*
X179170704Y-33073719D01*
X179845567Y-33953217D01*
X180399858Y-34913278D01*
X180824095Y-35937476D01*
X181111017Y-37008285D01*
X181255716Y-38107383D01*
X181255716Y-39215967D01*
X181111017Y-40315065D01*
X180972048Y-40833706D01*
X180952822Y-40761903D01*
X180558643Y-40559273D01*
X180132506Y-40437437D01*
X179690789Y-40401079D01*
X179250465Y-40451593D01*
X178828456Y-40587039D01*
X178501310Y-40761903D01*
X178396292Y-41154125D01*
X179727066Y-42484898D01*
X179741208Y-42470756D01*
X179917985Y-42647533D01*
X179903843Y-42661675D01*
X179917985Y-42675817D01*
X179741208Y-42852594D01*
X179727066Y-42838452D01*
X178396292Y-44169225D01*
X178501310Y-44561447D01*
X178737482Y-44682853D01*
X178386818Y-45033517D01*
X177507320Y-45708380D01*
X176547259Y-46262671D01*
X175523061Y-46686908D01*
X174452252Y-46973830D01*
X173353154Y-47118529D01*
X172244570Y-47118529D01*
X171145472Y-46973830D01*
X170074663Y-46686908D01*
X169050465Y-46262671D01*
X168090404Y-45708380D01*
X167210906Y-45033517D01*
X166863390Y-44686001D01*
X167096414Y-44561446D01*
X167201432Y-44169224D01*
X165870658Y-42838451D01*
X165856516Y-42852593D01*
X165679739Y-42675816D01*
X165693881Y-42661674D01*
X166047435Y-42661674D01*
X167378208Y-43992448D01*
X167770430Y-43887430D01*
X167973060Y-43493251D01*
X168094896Y-43067114D01*
X168125281Y-42697952D01*
X177466470Y-42697952D01*
X177516984Y-43138276D01*
X177652430Y-43560285D01*
X177827294Y-43887431D01*
X178219516Y-43992449D01*
X179550289Y-42661675D01*
X178219516Y-41330901D01*
X177827294Y-41435919D01*
X177624664Y-41830098D01*
X177502828Y-42256235D01*
X177466470Y-42697952D01*
X168125281Y-42697952D01*
X168131254Y-42625397D01*
X168080740Y-42185073D01*
X167945294Y-41763064D01*
X167770430Y-41435918D01*
X167378208Y-41330900D01*
X166047435Y-42661674D01*
X165693881Y-42661674D01*
X165679739Y-42647532D01*
X165856516Y-42470755D01*
X165870658Y-42484897D01*
X167201432Y-41154124D01*
X167096414Y-40761902D01*
X166702235Y-40559272D01*
X166276098Y-40437436D01*
X165834381Y-40401078D01*
X165394057Y-40451592D01*
X164972048Y-40587038D01*
X164644902Y-40761902D01*
X164625676Y-40833706D01*
X164486707Y-40315065D01*
X164467507Y-40169225D01*
X167718088Y-40169225D01*
X167823106Y-40561447D01*
X168217285Y-40764077D01*
X168643422Y-40885913D01*
X169085139Y-40922271D01*
X169525463Y-40871757D01*
X169947472Y-40736311D01*
X170274618Y-40561447D01*
X170379636Y-40169225D01*
X169048862Y-38838452D01*
X167718088Y-40169225D01*
X164467507Y-40169225D01*
X164342008Y-39215967D01*
X164342008Y-38697952D01*
X166788266Y-38697952D01*
X166838780Y-39138276D01*
X166974226Y-39560285D01*
X167149090Y-39887431D01*
X167541312Y-39992449D01*
X168872085Y-38661675D01*
X169225639Y-38661675D01*
X170556412Y-39992449D01*
X170908534Y-39898168D01*
X170919004Y-39917756D01*
X170989460Y-40003607D01*
X171051173Y-40095967D01*
X171129718Y-40174512D01*
X171200174Y-40260363D01*
X171286025Y-40330819D01*
X171364570Y-40409364D01*
X171456930Y-40471077D01*
X171542781Y-40541533D01*
X171640728Y-40593887D01*
X171733087Y-40655599D01*
X171835712Y-40698108D01*
X171933658Y-40750461D01*
X172039936Y-40782700D01*
X172142561Y-40825209D01*
X172251506Y-40846879D01*
X172357785Y-40879119D01*
X172468313Y-40890005D01*
X172577256Y-40911675D01*
X176438335Y-40911675D01*
X176548860Y-40922561D01*
X176659385Y-40911675D01*
X176659388Y-40911675D01*
X176659398Y-40911674D01*
X176770467Y-40911674D01*
X176879401Y-40890006D01*
X176989937Y-40879119D01*
X177096224Y-40846877D01*
X177205162Y-40825208D01*
X177307781Y-40782702D01*
X177414064Y-40750461D01*
X177512015Y-40698105D01*
X177614636Y-40655598D01*
X177706992Y-40593888D01*
X177804941Y-40541533D01*
X177890794Y-40471075D01*
X177983153Y-40409363D01*
X178061697Y-40330819D01*
X178147548Y-40260363D01*
X178218004Y-40174512D01*
X178296550Y-40095966D01*
X178358264Y-40003605D01*
X178428718Y-39917756D01*
X178481070Y-39819811D01*
X178542785Y-39727449D01*
X178585295Y-39624821D01*
X178637646Y-39526879D01*
X178669883Y-39420607D01*
X178712395Y-39317975D01*
X178734067Y-39209024D01*
X178766304Y-39102752D01*
X178777189Y-38992232D01*
X178798861Y-38883280D01*
X178798861Y-38772193D01*
X178809746Y-38661675D01*
X178798861Y-38551157D01*
X178798861Y-38440068D01*
X178777189Y-38331114D01*
X178766304Y-38220598D01*
X178755528Y-38185074D01*
X178734068Y-38114328D01*
X178712395Y-38005373D01*
X178669883Y-37902740D01*
X178637647Y-37796472D01*
X178585298Y-37698533D01*
X178542785Y-37595899D01*
X178481066Y-37503529D01*
X178428718Y-37405594D01*
X178358271Y-37319754D01*
X178296550Y-37227382D01*
X178217995Y-37148827D01*
X178147548Y-37062987D01*
X178061708Y-36992540D01*
X177983153Y-36913985D01*
X177890781Y-36852264D01*
X177804941Y-36781817D01*
X177707006Y-36729469D01*
X177614636Y-36667750D01*
X177512002Y-36625237D01*
X177414063Y-36572888D01*
X177307795Y-36540652D01*
X177205162Y-36498140D01*
X177096207Y-36476467D01*
X176989937Y-36444231D01*
X176879421Y-36433346D01*
X176770467Y-36411674D01*
X176659378Y-36411674D01*
X176548860Y-36400789D01*
X176438342Y-36411674D01*
X176327255Y-36411674D01*
X176327250Y-36411675D01*
X172577256Y-36411675D01*
X172468313Y-36433345D01*
X172357785Y-36444231D01*
X172251506Y-36476471D01*
X172142561Y-36498141D01*
X172039936Y-36540650D01*
X171933658Y-36572889D01*
X171835712Y-36625242D01*
X171733087Y-36667751D01*
X171640728Y-36729463D01*
X171542781Y-36781817D01*
X171456930Y-36852273D01*
X171364570Y-36913986D01*
X171286027Y-36992529D01*
X171200174Y-37062987D01*
X171129718Y-37148838D01*
X171051173Y-37227383D01*
X170989460Y-37319743D01*
X170919004Y-37405594D01*
X170908534Y-37425182D01*
X170556412Y-37330901D01*
X169225639Y-38661675D01*
X168872085Y-38661675D01*
X167541312Y-37330901D01*
X167149090Y-37435919D01*
X166946460Y-37830098D01*
X166824624Y-38256235D01*
X166788266Y-38697952D01*
X164342008Y-38697952D01*
X164342008Y-38107383D01*
X164467506Y-37154125D01*
X167718088Y-37154125D01*
X169048862Y-38484898D01*
X170379636Y-37154125D01*
X170274618Y-36761903D01*
X169880439Y-36559273D01*
X169454302Y-36437437D01*
X169012585Y-36401079D01*
X168572261Y-36451593D01*
X168150252Y-36587039D01*
X167823106Y-36761903D01*
X167718088Y-37154125D01*
X164467506Y-37154125D01*
X164486707Y-37008285D01*
X164773629Y-35937476D01*
X165197866Y-34913278D01*
X165752157Y-33953217D01*
X166427020Y-33073719D01*
X167210906Y-32289833D01*
X167368086Y-32169224D01*
X171468088Y-32169224D01*
X171573106Y-32561446D01*
X171967285Y-32764076D01*
X172393422Y-32885912D01*
X172835139Y-32922270D01*
X173275463Y-32871756D01*
X173697472Y-32736310D01*
X174024618Y-32561446D01*
X174129636Y-32169224D01*
X172798862Y-30838451D01*
X171468088Y-32169224D01*
X167368086Y-32169224D01*
X168090404Y-31614970D01*
X169050465Y-31060679D01*
X170074663Y-30636442D01*
X170553898Y-30508031D01*
X170538266Y-30697951D01*
X170588780Y-31138275D01*
X170724226Y-31560284D01*
X170899090Y-31887430D01*
X171291312Y-31992448D01*
X172622085Y-30661674D01*
X172607943Y-30647532D01*
X172784720Y-30470755D01*
X172798862Y-30484897D01*
X172813004Y-30470755D01*
X172989781Y-30647532D01*
G37*
G04 #@! TD.AperFunction*
M02*
