G04 #@! TF.GenerationSoftware,KiCad,Pcbnew,(6.0.10)*
G04 #@! TF.CreationDate,2023-02-04T23:50:25+01:00*
G04 #@! TF.ProjectId,Stereo-Decoder-Modul,53746572-656f-42d4-9465-636f6465722d,rev?*
G04 #@! TF.SameCoordinates,Original*
G04 #@! TF.FileFunction,Soldermask,Top*
G04 #@! TF.FilePolarity,Negative*
%FSLAX46Y46*%
G04 Gerber Fmt 4.6, Leading zero omitted, Abs format (unit mm)*
G04 Created by KiCad (PCBNEW (6.0.10)) date 2023-02-04 23:50:25*
%MOMM*%
%LPD*%
G01*
G04 APERTURE LIST*
%ADD10C,1.600000*%
%ADD11C,2.000000*%
%ADD12O,2.000000X2.000000*%
%ADD13O,1.600000X1.600000*%
%ADD14R,1.600000X1.600000*%
%ADD15C,1.500000*%
%ADD16R,2.400000X1.600000*%
%ADD17O,2.400000X1.600000*%
%ADD18C,2.340000*%
G04 APERTURE END LIST*
D10*
X92500000Y-60750000D03*
X92500000Y-55750000D03*
D11*
X128750000Y-85165000D03*
D12*
X128750000Y-80085000D03*
D11*
X128750000Y-70165000D03*
D12*
X128750000Y-65085000D03*
X128750000Y-50085000D03*
D11*
X128750000Y-55165000D03*
X50750000Y-81335000D03*
D12*
X50750000Y-86415000D03*
D11*
X50750000Y-66335000D03*
D12*
X50750000Y-71415000D03*
D11*
X50750000Y-51335000D03*
D12*
X50750000Y-56415000D03*
D11*
X134250000Y-81335000D03*
D12*
X134250000Y-86415000D03*
D11*
X56250000Y-85165000D03*
D12*
X56250000Y-80085000D03*
D11*
X134250000Y-66335000D03*
D12*
X134250000Y-71415000D03*
D11*
X56250000Y-70165000D03*
D12*
X56250000Y-65085000D03*
D11*
X134250000Y-51335000D03*
D12*
X134250000Y-56415000D03*
D11*
X56250000Y-55165000D03*
D12*
X56250000Y-50085000D03*
D10*
X84000000Y-75120000D03*
D13*
X84000000Y-72580000D03*
D10*
X109765000Y-80280000D03*
D13*
X104685000Y-80280000D03*
D10*
X80250000Y-69250000D03*
X80250000Y-64250000D03*
X62750000Y-90750000D03*
D13*
X67830000Y-90750000D03*
D10*
X86000000Y-60750000D03*
D13*
X86000000Y-55670000D03*
D11*
X72000000Y-80000000D03*
X72000000Y-72500000D03*
D10*
X75250000Y-60750000D03*
D13*
X75250000Y-55670000D03*
D10*
X114830000Y-50250000D03*
D13*
X109750000Y-50250000D03*
D10*
X114250000Y-90750000D03*
D13*
X109170000Y-90750000D03*
D10*
X106250000Y-90750000D03*
D13*
X101170000Y-90750000D03*
D14*
X120250000Y-50250000D03*
D10*
X122250000Y-50250000D03*
D11*
X62750000Y-79500000D03*
X62750000Y-87000000D03*
D10*
X81000000Y-60750000D03*
D13*
X81000000Y-55670000D03*
D15*
X114000000Y-80210000D03*
X116540000Y-82750000D03*
X114000000Y-85290000D03*
D11*
X127750000Y-75750000D03*
X135250000Y-75750000D03*
D10*
X109765000Y-85250000D03*
D13*
X104685000Y-85250000D03*
D11*
X127750000Y-90750000D03*
X135250000Y-90750000D03*
D16*
X88675000Y-67500000D03*
D17*
X88675000Y-70040000D03*
X88675000Y-72580000D03*
X88675000Y-75120000D03*
X88675000Y-77660000D03*
X88675000Y-80200000D03*
X88675000Y-82740000D03*
X88675000Y-85280000D03*
X96295000Y-85280000D03*
X96295000Y-82740000D03*
X96295000Y-80200000D03*
X96295000Y-77660000D03*
X96295000Y-75120000D03*
X96295000Y-72580000D03*
X96295000Y-70040000D03*
X96295000Y-67500000D03*
D11*
X122250000Y-87000000D03*
X122250000Y-79500000D03*
D18*
X104000000Y-49000000D03*
X101500000Y-51500000D03*
X99000000Y-49000000D03*
D10*
X62750000Y-60750000D03*
D13*
X62750000Y-55670000D03*
D10*
X72500000Y-90750000D03*
D13*
X72500000Y-85670000D03*
D15*
X68250000Y-55670000D03*
X70790000Y-58210000D03*
X68250000Y-60750000D03*
D10*
X109750000Y-60750000D03*
D13*
X109750000Y-55670000D03*
D10*
X98250000Y-90750000D03*
D13*
X93170000Y-90750000D03*
D10*
X70000000Y-69250000D03*
X70000000Y-64250000D03*
D14*
X81000000Y-85670000D03*
D10*
X81000000Y-89170000D03*
D11*
X127750000Y-60750000D03*
X135250000Y-60750000D03*
D10*
X106065000Y-69250000D03*
X106065000Y-74250000D03*
D11*
X49750000Y-75750000D03*
X57250000Y-75750000D03*
D10*
X106065000Y-64750000D03*
D13*
X100985000Y-64750000D03*
D18*
X86000000Y-49000000D03*
X83500000Y-51500000D03*
X81000000Y-49000000D03*
D10*
X101000000Y-74250000D03*
X101000000Y-69250000D03*
X122250000Y-60750000D03*
D13*
X122250000Y-55670000D03*
D10*
X114845000Y-75250000D03*
D13*
X109765000Y-75250000D03*
D11*
X62750000Y-64500000D03*
X62750000Y-72000000D03*
D14*
X64750000Y-50250000D03*
D10*
X62750000Y-50250000D03*
X101000000Y-85280000D03*
X101000000Y-80280000D03*
X114845000Y-64750000D03*
D13*
X109765000Y-64750000D03*
D11*
X49750000Y-90750000D03*
X57250000Y-90750000D03*
D15*
X116750000Y-60750000D03*
X114210000Y-58210000D03*
X116750000Y-55670000D03*
D10*
X122250000Y-90750000D03*
D13*
X117170000Y-90750000D03*
D10*
X99000000Y-55750000D03*
X99000000Y-60750000D03*
X84000000Y-80200000D03*
D13*
X84000000Y-77660000D03*
D15*
X109765000Y-71520000D03*
X112305000Y-68980000D03*
X114845000Y-71520000D03*
D10*
X104000000Y-60750000D03*
D13*
X104000000Y-55670000D03*
D10*
X70170000Y-50250000D03*
D13*
X75250000Y-50250000D03*
D11*
X122250000Y-72000000D03*
X122250000Y-64500000D03*
X78250000Y-72500000D03*
X78250000Y-80000000D03*
X49750000Y-60750000D03*
X57250000Y-60750000D03*
M02*
