M48
; DRILL file {KiCad (6.0.10)} date Sat Feb  4 23:50:55 2023
; FORMAT={-:-/ absolute / metric / decimal}
; #@! TF.CreationDate,2023-02-04T23:50:55+01:00
; #@! TF.GenerationSoftware,Kicad,Pcbnew,(6.0.10)
; #@! TF.FileFunction,Plated,1,2,PTH
FMAT,2
METRIC
; #@! TA.AperFunction,Plated,PTH,ViaDrill
T1C0.400
; #@! TA.AperFunction,Plated,PTH,ComponentDrill
T2C0.800
; #@! TA.AperFunction,Plated,PTH,ComponentDrill
T3C1.000
; #@! TA.AperFunction,Plated,PTH,ComponentDrill
T4C1.300
; #@! TA.AperFunction,Plated,PTH,ComponentDrill
T5C1.750
%
G90
G05
T1
X67.5Y-100.75
T2
X62.75Y-50.25
X62.75Y-55.67
X62.75Y-60.75
X62.75Y-90.75
X64.75Y-50.25
X67.83Y-90.75
X68.25Y-55.67
X68.25Y-60.75
X70.0Y-64.25
X70.0Y-69.25
X70.17Y-50.25
X70.79Y-58.21
X72.5Y-85.67
X72.5Y-90.75
X75.25Y-50.25
X75.25Y-55.67
X75.25Y-60.75
X80.25Y-64.25
X80.25Y-69.25
X81.0Y-55.67
X81.0Y-60.75
X81.0Y-85.67
X81.0Y-89.17
X84.0Y-72.58
X84.0Y-75.12
X84.0Y-77.66
X84.0Y-80.2
X86.0Y-55.67
X86.0Y-60.75
X88.675Y-67.5
X88.675Y-70.04
X88.675Y-72.58
X88.675Y-75.12
X88.675Y-77.66
X88.675Y-80.2
X88.675Y-82.74
X88.675Y-85.28
X92.5Y-55.75
X92.5Y-60.75
X93.17Y-90.75
X96.295Y-67.5
X96.295Y-70.04
X96.295Y-72.58
X96.295Y-75.12
X96.295Y-77.66
X96.295Y-80.2
X96.295Y-82.74
X96.295Y-85.28
X98.25Y-90.75
X99.0Y-55.75
X99.0Y-60.75
X100.985Y-64.75
X101.0Y-69.25
X101.0Y-74.25
X101.0Y-80.28
X101.0Y-85.28
X101.17Y-90.75
X104.0Y-55.67
X104.0Y-60.75
X104.685Y-80.28
X104.685Y-85.25
X106.065Y-64.75
X106.065Y-69.25
X106.065Y-74.25
X106.25Y-90.75
X109.17Y-90.75
X109.75Y-50.25
X109.75Y-55.67
X109.75Y-60.75
X109.765Y-64.75
X109.765Y-71.52
X109.765Y-75.25
X109.765Y-80.28
X109.765Y-85.25
X112.305Y-68.98
X114.0Y-80.21
X114.0Y-85.29
X114.21Y-58.21
X114.25Y-90.75
X114.83Y-50.25
X114.845Y-64.75
X114.845Y-71.52
X114.845Y-75.25
X116.54Y-82.75
X116.75Y-55.67
X116.75Y-60.75
X117.17Y-90.75
X120.25Y-50.25
X122.25Y-50.25
X122.25Y-55.67
X122.25Y-60.75
X122.25Y-90.75
T3
X49.75Y-60.75
X49.75Y-75.75
X49.75Y-90.75
X50.75Y-51.335
X50.75Y-56.415
X50.75Y-66.335
X50.75Y-71.415
X50.75Y-81.335
X50.75Y-86.415
X56.25Y-50.085
X56.25Y-55.165
X56.25Y-65.085
X56.25Y-70.165
X56.25Y-80.085
X56.25Y-85.165
X57.25Y-60.75
X57.25Y-75.75
X57.25Y-90.75
X62.75Y-64.5
X62.75Y-72.0
X62.75Y-79.5
X62.75Y-87.0
X72.0Y-72.5
X72.0Y-80.0
X78.25Y-72.5
X78.25Y-80.0
X122.25Y-64.5
X122.25Y-72.0
X122.25Y-79.5
X122.25Y-87.0
X127.75Y-60.75
X127.75Y-75.75
X127.75Y-90.75
X128.75Y-50.085
X128.75Y-55.165
X128.75Y-65.085
X128.75Y-70.165
X128.75Y-80.085
X128.75Y-85.165
X134.25Y-51.335
X134.25Y-56.415
X134.25Y-66.335
X134.25Y-71.415
X134.25Y-81.335
X134.25Y-86.415
X135.25Y-60.75
X135.25Y-75.75
X135.25Y-90.75
T4
X81.0Y-49.0
X83.5Y-51.5
X86.0Y-49.0
X99.0Y-49.0
X101.5Y-51.5
X104.0Y-49.0
T5
X57.5Y-96.75
X62.5Y-96.75
X67.5Y-96.75
X72.5Y-96.75
X77.5Y-96.75
X82.5Y-96.75
X87.5Y-96.75
X92.5Y-96.75
X97.5Y-96.75
X102.5Y-96.75
X107.5Y-96.75
X112.5Y-96.75
X117.5Y-96.75
X122.5Y-96.75
X127.5Y-96.75
T0
M30
