G04 #@! TF.GenerationSoftware,KiCad,Pcbnew,(6.0.10)*
G04 #@! TF.CreationDate,2023-02-04T23:50:25+01:00*
G04 #@! TF.ProjectId,Stereo-Decoder-Modul,53746572-656f-42d4-9465-636f6465722d,rev?*
G04 #@! TF.SameCoordinates,Original*
G04 #@! TF.FileFunction,Legend,Top*
G04 #@! TF.FilePolarity,Positive*
%FSLAX46Y46*%
G04 Gerber Fmt 4.6, Leading zero omitted, Abs format (unit mm)*
G04 Created by KiCad (PCBNEW (6.0.10)) date 2023-02-04 23:50:25*
%MOMM*%
%LPD*%
G01*
G04 APERTURE LIST*
%ADD10C,0.200000*%
%ADD11C,0.150000*%
%ADD12C,0.120000*%
%ADD13C,1.600000*%
%ADD14C,2.000000*%
%ADD15O,2.000000X2.000000*%
%ADD16O,1.600000X1.600000*%
%ADD17R,1.600000X1.600000*%
%ADD18C,1.500000*%
%ADD19R,2.400000X1.600000*%
%ADD20O,2.400000X1.600000*%
%ADD21C,2.340000*%
G04 APERTURE END LIST*
D10*
X92380952Y-100952380D02*
X92380952Y-101666666D01*
X92333333Y-101809523D01*
X92238095Y-101904761D01*
X92095238Y-101952380D01*
X92000000Y-101952380D01*
X93333333Y-101952380D02*
X92857142Y-101952380D01*
X92857142Y-100952380D01*
X94238095Y-101857142D02*
X94190476Y-101904761D01*
X94047619Y-101952380D01*
X93952380Y-101952380D01*
X93809523Y-101904761D01*
X93714285Y-101809523D01*
X93666666Y-101714285D01*
X93619047Y-101523809D01*
X93619047Y-101380952D01*
X93666666Y-101190476D01*
X93714285Y-101095238D01*
X93809523Y-101000000D01*
X93952380Y-100952380D01*
X94047619Y-100952380D01*
X94190476Y-101000000D01*
X94238095Y-101047619D01*
X94952380Y-100952380D02*
X94952380Y-101666666D01*
X94904761Y-101809523D01*
X94809523Y-101904761D01*
X94666666Y-101952380D01*
X94571428Y-101952380D01*
X95904761Y-101952380D02*
X95428571Y-101952380D01*
X95428571Y-100952380D01*
X96809523Y-101857142D02*
X96761904Y-101904761D01*
X96619047Y-101952380D01*
X96523809Y-101952380D01*
X96380952Y-101904761D01*
X96285714Y-101809523D01*
X96238095Y-101714285D01*
X96190476Y-101523809D01*
X96190476Y-101380952D01*
X96238095Y-101190476D01*
X96285714Y-101095238D01*
X96380952Y-101000000D01*
X96523809Y-100952380D01*
X96619047Y-100952380D01*
X96761904Y-101000000D01*
X96809523Y-101047619D01*
X97523809Y-100952380D02*
X97523809Y-101666666D01*
X97476190Y-101809523D01*
X97380952Y-101904761D01*
X97238095Y-101952380D01*
X97142857Y-101952380D01*
X98476190Y-101952380D02*
X98000000Y-101952380D01*
X98000000Y-100952380D01*
X99380952Y-101857142D02*
X99333333Y-101904761D01*
X99190476Y-101952380D01*
X99095238Y-101952380D01*
X98952380Y-101904761D01*
X98857142Y-101809523D01*
X98809523Y-101714285D01*
X98761904Y-101523809D01*
X98761904Y-101380952D01*
X98809523Y-101190476D01*
X98857142Y-101095238D01*
X98952380Y-101000000D01*
X99095238Y-100952380D01*
X99190476Y-100952380D01*
X99333333Y-101000000D01*
X99380952Y-101047619D01*
X100095238Y-100952380D02*
X100095238Y-101666666D01*
X100047619Y-101809523D01*
X99952380Y-101904761D01*
X99809523Y-101952380D01*
X99714285Y-101952380D01*
X101047619Y-101952380D02*
X100571428Y-101952380D01*
X100571428Y-100952380D01*
X101952380Y-101857142D02*
X101904761Y-101904761D01*
X101761904Y-101952380D01*
X101666666Y-101952380D01*
X101523809Y-101904761D01*
X101428571Y-101809523D01*
X101380952Y-101714285D01*
X101333333Y-101523809D01*
X101333333Y-101380952D01*
X101380952Y-101190476D01*
X101428571Y-101095238D01*
X101523809Y-101000000D01*
X101666666Y-100952380D01*
X101761904Y-100952380D01*
X101904761Y-101000000D01*
X101952380Y-101047619D01*
D11*
X91380952Y-63357142D02*
X91333333Y-63404761D01*
X91190476Y-63452380D01*
X91095238Y-63452380D01*
X90952380Y-63404761D01*
X90857142Y-63309523D01*
X90809523Y-63214285D01*
X90761904Y-63023809D01*
X90761904Y-62880952D01*
X90809523Y-62690476D01*
X90857142Y-62595238D01*
X90952380Y-62500000D01*
X91095238Y-62452380D01*
X91190476Y-62452380D01*
X91333333Y-62500000D01*
X91380952Y-62547619D01*
X91857142Y-63452380D02*
X92047619Y-63452380D01*
X92142857Y-63404761D01*
X92190476Y-63357142D01*
X92285714Y-63214285D01*
X92333333Y-63023809D01*
X92333333Y-62642857D01*
X92285714Y-62547619D01*
X92238095Y-62500000D01*
X92142857Y-62452380D01*
X91952380Y-62452380D01*
X91857142Y-62500000D01*
X91809523Y-62547619D01*
X91761904Y-62642857D01*
X91761904Y-62880952D01*
X91809523Y-62976190D01*
X91857142Y-63023809D01*
X91952380Y-63071428D01*
X92142857Y-63071428D01*
X92238095Y-63023809D01*
X92285714Y-62976190D01*
X92333333Y-62880952D01*
X93285714Y-63452380D02*
X92714285Y-63452380D01*
X93000000Y-63452380D02*
X93000000Y-62452380D01*
X92904761Y-62595238D01*
X92809523Y-62690476D01*
X92714285Y-62738095D01*
X94238095Y-63452380D02*
X93666666Y-63452380D01*
X93952380Y-63452380D02*
X93952380Y-62452380D01*
X93857142Y-62595238D01*
X93761904Y-62690476D01*
X93666666Y-62738095D01*
X138202380Y-83914047D02*
X138202380Y-84390238D01*
X137202380Y-84390238D01*
X138202380Y-83533095D02*
X138202380Y-83342619D01*
X138154761Y-83247380D01*
X138107142Y-83199761D01*
X137964285Y-83104523D01*
X137773809Y-83056904D01*
X137392857Y-83056904D01*
X137297619Y-83104523D01*
X137250000Y-83152142D01*
X137202380Y-83247380D01*
X137202380Y-83437857D01*
X137250000Y-83533095D01*
X137297619Y-83580714D01*
X137392857Y-83628333D01*
X137630952Y-83628333D01*
X137726190Y-83580714D01*
X137773809Y-83533095D01*
X137821428Y-83437857D01*
X137821428Y-83247380D01*
X137773809Y-83152142D01*
X137726190Y-83104523D01*
X137630952Y-83056904D01*
X137202380Y-82152142D02*
X137202380Y-82628333D01*
X137678571Y-82675952D01*
X137630952Y-82628333D01*
X137583333Y-82533095D01*
X137583333Y-82295000D01*
X137630952Y-82199761D01*
X137678571Y-82152142D01*
X137773809Y-82104523D01*
X138011904Y-82104523D01*
X138107142Y-82152142D01*
X138154761Y-82199761D01*
X138202380Y-82295000D01*
X138202380Y-82533095D01*
X138154761Y-82628333D01*
X138107142Y-82675952D01*
X138202380Y-81152142D02*
X138202380Y-81723571D01*
X138202380Y-81437857D02*
X137202380Y-81437857D01*
X137345238Y-81533095D01*
X137440476Y-81628333D01*
X137488095Y-81723571D01*
X138202380Y-68914047D02*
X138202380Y-69390238D01*
X137202380Y-69390238D01*
X138202380Y-68533095D02*
X138202380Y-68342619D01*
X138154761Y-68247380D01*
X138107142Y-68199761D01*
X137964285Y-68104523D01*
X137773809Y-68056904D01*
X137392857Y-68056904D01*
X137297619Y-68104523D01*
X137250000Y-68152142D01*
X137202380Y-68247380D01*
X137202380Y-68437857D01*
X137250000Y-68533095D01*
X137297619Y-68580714D01*
X137392857Y-68628333D01*
X137630952Y-68628333D01*
X137726190Y-68580714D01*
X137773809Y-68533095D01*
X137821428Y-68437857D01*
X137821428Y-68247380D01*
X137773809Y-68152142D01*
X137726190Y-68104523D01*
X137630952Y-68056904D01*
X137535714Y-67199761D02*
X138202380Y-67199761D01*
X137154761Y-67437857D02*
X137869047Y-67675952D01*
X137869047Y-67056904D01*
X137202380Y-66771190D02*
X137202380Y-66104523D01*
X138202380Y-66533095D01*
X138202380Y-53914047D02*
X138202380Y-54390238D01*
X137202380Y-54390238D01*
X138202380Y-53533095D02*
X138202380Y-53342619D01*
X138154761Y-53247380D01*
X138107142Y-53199761D01*
X137964285Y-53104523D01*
X137773809Y-53056904D01*
X137392857Y-53056904D01*
X137297619Y-53104523D01*
X137250000Y-53152142D01*
X137202380Y-53247380D01*
X137202380Y-53437857D01*
X137250000Y-53533095D01*
X137297619Y-53580714D01*
X137392857Y-53628333D01*
X137630952Y-53628333D01*
X137726190Y-53580714D01*
X137773809Y-53533095D01*
X137821428Y-53437857D01*
X137821428Y-53247380D01*
X137773809Y-53152142D01*
X137726190Y-53104523D01*
X137630952Y-53056904D01*
X137535714Y-52199761D02*
X138202380Y-52199761D01*
X137154761Y-52437857D02*
X137869047Y-52675952D01*
X137869047Y-52056904D01*
X137535714Y-51247380D02*
X138202380Y-51247380D01*
X137154761Y-51485476D02*
X137869047Y-51723571D01*
X137869047Y-51104523D01*
X47702380Y-84824047D02*
X47702380Y-85300238D01*
X46702380Y-85300238D01*
X47702380Y-84443095D02*
X47702380Y-84252619D01*
X47654761Y-84157380D01*
X47607142Y-84109761D01*
X47464285Y-84014523D01*
X47273809Y-83966904D01*
X46892857Y-83966904D01*
X46797619Y-84014523D01*
X46750000Y-84062142D01*
X46702380Y-84157380D01*
X46702380Y-84347857D01*
X46750000Y-84443095D01*
X46797619Y-84490714D01*
X46892857Y-84538333D01*
X47130952Y-84538333D01*
X47226190Y-84490714D01*
X47273809Y-84443095D01*
X47321428Y-84347857D01*
X47321428Y-84157380D01*
X47273809Y-84062142D01*
X47226190Y-84014523D01*
X47130952Y-83966904D01*
X46702380Y-83633571D02*
X46702380Y-83014523D01*
X47083333Y-83347857D01*
X47083333Y-83205000D01*
X47130952Y-83109761D01*
X47178571Y-83062142D01*
X47273809Y-83014523D01*
X47511904Y-83014523D01*
X47607142Y-83062142D01*
X47654761Y-83109761D01*
X47702380Y-83205000D01*
X47702380Y-83490714D01*
X47654761Y-83585952D01*
X47607142Y-83633571D01*
X47702380Y-82062142D02*
X47702380Y-82633571D01*
X47702380Y-82347857D02*
X46702380Y-82347857D01*
X46845238Y-82443095D01*
X46940476Y-82538333D01*
X46988095Y-82633571D01*
X47702380Y-69824047D02*
X47702380Y-70300238D01*
X46702380Y-70300238D01*
X47702380Y-69443095D02*
X47702380Y-69252619D01*
X47654761Y-69157380D01*
X47607142Y-69109761D01*
X47464285Y-69014523D01*
X47273809Y-68966904D01*
X46892857Y-68966904D01*
X46797619Y-69014523D01*
X46750000Y-69062142D01*
X46702380Y-69157380D01*
X46702380Y-69347857D01*
X46750000Y-69443095D01*
X46797619Y-69490714D01*
X46892857Y-69538333D01*
X47130952Y-69538333D01*
X47226190Y-69490714D01*
X47273809Y-69443095D01*
X47321428Y-69347857D01*
X47321428Y-69157380D01*
X47273809Y-69062142D01*
X47226190Y-69014523D01*
X47130952Y-68966904D01*
X46797619Y-68585952D02*
X46750000Y-68538333D01*
X46702380Y-68443095D01*
X46702380Y-68205000D01*
X46750000Y-68109761D01*
X46797619Y-68062142D01*
X46892857Y-68014523D01*
X46988095Y-68014523D01*
X47130952Y-68062142D01*
X47702380Y-68633571D01*
X47702380Y-68014523D01*
X46702380Y-67681190D02*
X46702380Y-67014523D01*
X47702380Y-67443095D01*
X47702380Y-54824047D02*
X47702380Y-55300238D01*
X46702380Y-55300238D01*
X47702380Y-54443095D02*
X47702380Y-54252619D01*
X47654761Y-54157380D01*
X47607142Y-54109761D01*
X47464285Y-54014523D01*
X47273809Y-53966904D01*
X46892857Y-53966904D01*
X46797619Y-54014523D01*
X46750000Y-54062142D01*
X46702380Y-54157380D01*
X46702380Y-54347857D01*
X46750000Y-54443095D01*
X46797619Y-54490714D01*
X46892857Y-54538333D01*
X47130952Y-54538333D01*
X47226190Y-54490714D01*
X47273809Y-54443095D01*
X47321428Y-54347857D01*
X47321428Y-54157380D01*
X47273809Y-54062142D01*
X47226190Y-54014523D01*
X47130952Y-53966904D01*
X46797619Y-53585952D02*
X46750000Y-53538333D01*
X46702380Y-53443095D01*
X46702380Y-53205000D01*
X46750000Y-53109761D01*
X46797619Y-53062142D01*
X46892857Y-53014523D01*
X46988095Y-53014523D01*
X47130952Y-53062142D01*
X47702380Y-53633571D01*
X47702380Y-53014523D01*
X47035714Y-52157380D02*
X47702380Y-52157380D01*
X46654761Y-52395476D02*
X47369047Y-52633571D01*
X47369047Y-52014523D01*
X86822380Y-74969047D02*
X86346190Y-75302380D01*
X86822380Y-75540476D02*
X85822380Y-75540476D01*
X85822380Y-75159523D01*
X85870000Y-75064285D01*
X85917619Y-75016666D01*
X86012857Y-74969047D01*
X86155714Y-74969047D01*
X86250952Y-75016666D01*
X86298571Y-75064285D01*
X86346190Y-75159523D01*
X86346190Y-75540476D01*
X86822380Y-74492857D02*
X86822380Y-74302380D01*
X86774761Y-74207142D01*
X86727142Y-74159523D01*
X86584285Y-74064285D01*
X86393809Y-74016666D01*
X86012857Y-74016666D01*
X85917619Y-74064285D01*
X85870000Y-74111904D01*
X85822380Y-74207142D01*
X85822380Y-74397619D01*
X85870000Y-74492857D01*
X85917619Y-74540476D01*
X86012857Y-74588095D01*
X86250952Y-74588095D01*
X86346190Y-74540476D01*
X86393809Y-74492857D01*
X86441428Y-74397619D01*
X86441428Y-74207142D01*
X86393809Y-74111904D01*
X86346190Y-74064285D01*
X86250952Y-74016666D01*
X86822380Y-73064285D02*
X86822380Y-73635714D01*
X86822380Y-73350000D02*
X85822380Y-73350000D01*
X85965238Y-73445238D01*
X86060476Y-73540476D01*
X86108095Y-73635714D01*
X86155714Y-72207142D02*
X86822380Y-72207142D01*
X85774761Y-72445238D02*
X86489047Y-72683333D01*
X86489047Y-72064285D01*
X105534523Y-83058751D02*
X105534523Y-82058751D01*
X105772619Y-82058751D01*
X105915476Y-82106371D01*
X106010714Y-82201609D01*
X106058333Y-82296847D01*
X106105952Y-82487323D01*
X106105952Y-82630180D01*
X106058333Y-82820656D01*
X106010714Y-82915894D01*
X105915476Y-83011132D01*
X105772619Y-83058751D01*
X105534523Y-83058751D01*
X106582142Y-83058751D02*
X106772619Y-83058751D01*
X106867857Y-83011132D01*
X106915476Y-82963513D01*
X107010714Y-82820656D01*
X107058333Y-82630180D01*
X107058333Y-82249228D01*
X107010714Y-82153990D01*
X106963095Y-82106371D01*
X106867857Y-82058751D01*
X106677380Y-82058751D01*
X106582142Y-82106371D01*
X106534523Y-82153990D01*
X106486904Y-82249228D01*
X106486904Y-82487323D01*
X106534523Y-82582561D01*
X106582142Y-82630180D01*
X106677380Y-82677799D01*
X106867857Y-82677799D01*
X106963095Y-82630180D01*
X107010714Y-82582561D01*
X107058333Y-82487323D01*
X107677380Y-82058751D02*
X107772619Y-82058751D01*
X107867857Y-82106371D01*
X107915476Y-82153990D01*
X107963095Y-82249228D01*
X108010714Y-82439704D01*
X108010714Y-82677799D01*
X107963095Y-82868275D01*
X107915476Y-82963513D01*
X107867857Y-83011132D01*
X107772619Y-83058751D01*
X107677380Y-83058751D01*
X107582142Y-83011132D01*
X107534523Y-82963513D01*
X107486904Y-82868275D01*
X107439285Y-82677799D01*
X107439285Y-82439704D01*
X107486904Y-82249228D01*
X107534523Y-82153990D01*
X107582142Y-82106371D01*
X107677380Y-82058751D01*
X108867857Y-82392085D02*
X108867857Y-83058751D01*
X108629761Y-82011132D02*
X108391666Y-82725418D01*
X109010714Y-82725418D01*
X105946904Y-79646666D02*
X106423095Y-79646666D01*
X105851666Y-79932380D02*
X106185000Y-78932380D01*
X106518333Y-79932380D01*
X85357142Y-67869047D02*
X85404761Y-67916666D01*
X85452380Y-68059523D01*
X85452380Y-68154761D01*
X85404761Y-68297619D01*
X85309523Y-68392857D01*
X85214285Y-68440476D01*
X85023809Y-68488095D01*
X84880952Y-68488095D01*
X84690476Y-68440476D01*
X84595238Y-68392857D01*
X84500000Y-68297619D01*
X84452380Y-68154761D01*
X84452380Y-68059523D01*
X84500000Y-67916666D01*
X84547619Y-67869047D01*
X85452380Y-67392857D02*
X85452380Y-67202380D01*
X85404761Y-67107142D01*
X85357142Y-67059523D01*
X85214285Y-66964285D01*
X85023809Y-66916666D01*
X84642857Y-66916666D01*
X84547619Y-66964285D01*
X84500000Y-67011904D01*
X84452380Y-67107142D01*
X84452380Y-67297619D01*
X84500000Y-67392857D01*
X84547619Y-67440476D01*
X84642857Y-67488095D01*
X84880952Y-67488095D01*
X84976190Y-67440476D01*
X85023809Y-67392857D01*
X85071428Y-67297619D01*
X85071428Y-67107142D01*
X85023809Y-67011904D01*
X84976190Y-66964285D01*
X84880952Y-66916666D01*
X85452380Y-65964285D02*
X85452380Y-66535714D01*
X85452380Y-66250000D02*
X84452380Y-66250000D01*
X84595238Y-66345238D01*
X84690476Y-66440476D01*
X84738095Y-66535714D01*
X84452380Y-65630952D02*
X84452380Y-65011904D01*
X84833333Y-65345238D01*
X84833333Y-65202380D01*
X84880952Y-65107142D01*
X84928571Y-65059523D01*
X85023809Y-65011904D01*
X85261904Y-65011904D01*
X85357142Y-65059523D01*
X85404761Y-65107142D01*
X85452380Y-65202380D01*
X85452380Y-65488095D01*
X85404761Y-65583333D01*
X85357142Y-65630952D01*
X64170952Y-93572380D02*
X63837619Y-93096190D01*
X63599523Y-93572380D02*
X63599523Y-92572380D01*
X63980476Y-92572380D01*
X64075714Y-92620000D01*
X64123333Y-92667619D01*
X64170952Y-92762857D01*
X64170952Y-92905714D01*
X64123333Y-93000952D01*
X64075714Y-93048571D01*
X63980476Y-93096190D01*
X63599523Y-93096190D01*
X64647142Y-93572380D02*
X64837619Y-93572380D01*
X64932857Y-93524761D01*
X64980476Y-93477142D01*
X65075714Y-93334285D01*
X65123333Y-93143809D01*
X65123333Y-92762857D01*
X65075714Y-92667619D01*
X65028095Y-92620000D01*
X64932857Y-92572380D01*
X64742380Y-92572380D01*
X64647142Y-92620000D01*
X64599523Y-92667619D01*
X64551904Y-92762857D01*
X64551904Y-93000952D01*
X64599523Y-93096190D01*
X64647142Y-93143809D01*
X64742380Y-93191428D01*
X64932857Y-93191428D01*
X65028095Y-93143809D01*
X65075714Y-93096190D01*
X65123333Y-93000952D01*
X65456666Y-92572380D02*
X66075714Y-92572380D01*
X65742380Y-92953333D01*
X65885238Y-92953333D01*
X65980476Y-93000952D01*
X66028095Y-93048571D01*
X66075714Y-93143809D01*
X66075714Y-93381904D01*
X66028095Y-93477142D01*
X65980476Y-93524761D01*
X65885238Y-93572380D01*
X65599523Y-93572380D01*
X65504285Y-93524761D01*
X65456666Y-93477142D01*
X67028095Y-93572380D02*
X66456666Y-93572380D01*
X66742380Y-93572380D02*
X66742380Y-92572380D01*
X66647142Y-92715238D01*
X66551904Y-92810476D01*
X66456666Y-92858095D01*
X88822380Y-59329047D02*
X88346190Y-59662380D01*
X88822380Y-59900476D02*
X87822380Y-59900476D01*
X87822380Y-59519523D01*
X87870000Y-59424285D01*
X87917619Y-59376666D01*
X88012857Y-59329047D01*
X88155714Y-59329047D01*
X88250952Y-59376666D01*
X88298571Y-59424285D01*
X88346190Y-59519523D01*
X88346190Y-59900476D01*
X88822380Y-58852857D02*
X88822380Y-58662380D01*
X88774761Y-58567142D01*
X88727142Y-58519523D01*
X88584285Y-58424285D01*
X88393809Y-58376666D01*
X88012857Y-58376666D01*
X87917619Y-58424285D01*
X87870000Y-58471904D01*
X87822380Y-58567142D01*
X87822380Y-58757619D01*
X87870000Y-58852857D01*
X87917619Y-58900476D01*
X88012857Y-58948095D01*
X88250952Y-58948095D01*
X88346190Y-58900476D01*
X88393809Y-58852857D01*
X88441428Y-58757619D01*
X88441428Y-58567142D01*
X88393809Y-58471904D01*
X88346190Y-58424285D01*
X88250952Y-58376666D01*
X88822380Y-57424285D02*
X88822380Y-57995714D01*
X88822380Y-57710000D02*
X87822380Y-57710000D01*
X87965238Y-57805238D01*
X88060476Y-57900476D01*
X88108095Y-57995714D01*
X87822380Y-56567142D02*
X87822380Y-56757619D01*
X87870000Y-56852857D01*
X87917619Y-56900476D01*
X88060476Y-56995714D01*
X88250952Y-57043333D01*
X88631904Y-57043333D01*
X88727142Y-56995714D01*
X88774761Y-56948095D01*
X88822380Y-56852857D01*
X88822380Y-56662380D01*
X88774761Y-56567142D01*
X88727142Y-56519523D01*
X88631904Y-56471904D01*
X88393809Y-56471904D01*
X88298571Y-56519523D01*
X88250952Y-56567142D01*
X88203333Y-56662380D01*
X88203333Y-56852857D01*
X88250952Y-56948095D01*
X88298571Y-56995714D01*
X88393809Y-57043333D01*
X75107142Y-77369047D02*
X75154761Y-77416666D01*
X75202380Y-77559523D01*
X75202380Y-77654761D01*
X75154761Y-77797619D01*
X75059523Y-77892857D01*
X74964285Y-77940476D01*
X74773809Y-77988095D01*
X74630952Y-77988095D01*
X74440476Y-77940476D01*
X74345238Y-77892857D01*
X74250000Y-77797619D01*
X74202380Y-77654761D01*
X74202380Y-77559523D01*
X74250000Y-77416666D01*
X74297619Y-77369047D01*
X75202380Y-76892857D02*
X75202380Y-76702380D01*
X75154761Y-76607142D01*
X75107142Y-76559523D01*
X74964285Y-76464285D01*
X74773809Y-76416666D01*
X74392857Y-76416666D01*
X74297619Y-76464285D01*
X74250000Y-76511904D01*
X74202380Y-76607142D01*
X74202380Y-76797619D01*
X74250000Y-76892857D01*
X74297619Y-76940476D01*
X74392857Y-76988095D01*
X74630952Y-76988095D01*
X74726190Y-76940476D01*
X74773809Y-76892857D01*
X74821428Y-76797619D01*
X74821428Y-76607142D01*
X74773809Y-76511904D01*
X74726190Y-76464285D01*
X74630952Y-76416666D01*
X75202380Y-75464285D02*
X75202380Y-76035714D01*
X75202380Y-75750000D02*
X74202380Y-75750000D01*
X74345238Y-75845238D01*
X74440476Y-75940476D01*
X74488095Y-76035714D01*
X74535714Y-74607142D02*
X75202380Y-74607142D01*
X74154761Y-74845238D02*
X74869047Y-75083333D01*
X74869047Y-74464285D01*
X78072380Y-59329047D02*
X77596190Y-59662380D01*
X78072380Y-59900476D02*
X77072380Y-59900476D01*
X77072380Y-59519523D01*
X77120000Y-59424285D01*
X77167619Y-59376666D01*
X77262857Y-59329047D01*
X77405714Y-59329047D01*
X77500952Y-59376666D01*
X77548571Y-59424285D01*
X77596190Y-59519523D01*
X77596190Y-59900476D01*
X78072380Y-58852857D02*
X78072380Y-58662380D01*
X78024761Y-58567142D01*
X77977142Y-58519523D01*
X77834285Y-58424285D01*
X77643809Y-58376666D01*
X77262857Y-58376666D01*
X77167619Y-58424285D01*
X77120000Y-58471904D01*
X77072380Y-58567142D01*
X77072380Y-58757619D01*
X77120000Y-58852857D01*
X77167619Y-58900476D01*
X77262857Y-58948095D01*
X77500952Y-58948095D01*
X77596190Y-58900476D01*
X77643809Y-58852857D01*
X77691428Y-58757619D01*
X77691428Y-58567142D01*
X77643809Y-58471904D01*
X77596190Y-58424285D01*
X77500952Y-58376666D01*
X77167619Y-57995714D02*
X77120000Y-57948095D01*
X77072380Y-57852857D01*
X77072380Y-57614761D01*
X77120000Y-57519523D01*
X77167619Y-57471904D01*
X77262857Y-57424285D01*
X77358095Y-57424285D01*
X77500952Y-57471904D01*
X78072380Y-58043333D01*
X78072380Y-57424285D01*
X77167619Y-57043333D02*
X77120000Y-56995714D01*
X77072380Y-56900476D01*
X77072380Y-56662380D01*
X77120000Y-56567142D01*
X77167619Y-56519523D01*
X77262857Y-56471904D01*
X77358095Y-56471904D01*
X77500952Y-56519523D01*
X78072380Y-57090952D01*
X78072380Y-56471904D01*
X111170952Y-53072380D02*
X110837619Y-52596190D01*
X110599523Y-53072380D02*
X110599523Y-52072380D01*
X110980476Y-52072380D01*
X111075714Y-52120000D01*
X111123333Y-52167619D01*
X111170952Y-52262857D01*
X111170952Y-52405714D01*
X111123333Y-52500952D01*
X111075714Y-52548571D01*
X110980476Y-52596190D01*
X110599523Y-52596190D01*
X111647142Y-53072380D02*
X111837619Y-53072380D01*
X111932857Y-53024761D01*
X111980476Y-52977142D01*
X112075714Y-52834285D01*
X112123333Y-52643809D01*
X112123333Y-52262857D01*
X112075714Y-52167619D01*
X112028095Y-52120000D01*
X111932857Y-52072380D01*
X111742380Y-52072380D01*
X111647142Y-52120000D01*
X111599523Y-52167619D01*
X111551904Y-52262857D01*
X111551904Y-52500952D01*
X111599523Y-52596190D01*
X111647142Y-52643809D01*
X111742380Y-52691428D01*
X111932857Y-52691428D01*
X112028095Y-52643809D01*
X112075714Y-52596190D01*
X112123333Y-52500952D01*
X112980476Y-52405714D02*
X112980476Y-53072380D01*
X112742380Y-52024761D02*
X112504285Y-52739047D01*
X113123333Y-52739047D01*
X113409047Y-52072380D02*
X114028095Y-52072380D01*
X113694761Y-52453333D01*
X113837619Y-52453333D01*
X113932857Y-52500952D01*
X113980476Y-52548571D01*
X114028095Y-52643809D01*
X114028095Y-52881904D01*
X113980476Y-52977142D01*
X113932857Y-53024761D01*
X113837619Y-53072380D01*
X113551904Y-53072380D01*
X113456666Y-53024761D01*
X113409047Y-52977142D01*
X110019523Y-93572380D02*
X110019523Y-92572380D01*
X110257619Y-92572380D01*
X110400476Y-92620000D01*
X110495714Y-92715238D01*
X110543333Y-92810476D01*
X110590952Y-93000952D01*
X110590952Y-93143809D01*
X110543333Y-93334285D01*
X110495714Y-93429523D01*
X110400476Y-93524761D01*
X110257619Y-93572380D01*
X110019523Y-93572380D01*
X111067142Y-93572380D02*
X111257619Y-93572380D01*
X111352857Y-93524761D01*
X111400476Y-93477142D01*
X111495714Y-93334285D01*
X111543333Y-93143809D01*
X111543333Y-92762857D01*
X111495714Y-92667619D01*
X111448095Y-92620000D01*
X111352857Y-92572380D01*
X111162380Y-92572380D01*
X111067142Y-92620000D01*
X111019523Y-92667619D01*
X110971904Y-92762857D01*
X110971904Y-93000952D01*
X111019523Y-93096190D01*
X111067142Y-93143809D01*
X111162380Y-93191428D01*
X111352857Y-93191428D01*
X111448095Y-93143809D01*
X111495714Y-93096190D01*
X111543333Y-93000952D01*
X112162380Y-92572380D02*
X112257619Y-92572380D01*
X112352857Y-92620000D01*
X112400476Y-92667619D01*
X112448095Y-92762857D01*
X112495714Y-92953333D01*
X112495714Y-93191428D01*
X112448095Y-93381904D01*
X112400476Y-93477142D01*
X112352857Y-93524761D01*
X112257619Y-93572380D01*
X112162380Y-93572380D01*
X112067142Y-93524761D01*
X112019523Y-93477142D01*
X111971904Y-93381904D01*
X111924285Y-93191428D01*
X111924285Y-92953333D01*
X111971904Y-92762857D01*
X112019523Y-92667619D01*
X112067142Y-92620000D01*
X112162380Y-92572380D01*
X112829047Y-92572380D02*
X113495714Y-92572380D01*
X113067142Y-93572380D01*
X110431904Y-90116666D02*
X110908095Y-90116666D01*
X110336666Y-90402380D02*
X110670000Y-89402380D01*
X111003333Y-90402380D01*
X102019523Y-93572380D02*
X102019523Y-92572380D01*
X102257619Y-92572380D01*
X102400476Y-92620000D01*
X102495714Y-92715238D01*
X102543333Y-92810476D01*
X102590952Y-93000952D01*
X102590952Y-93143809D01*
X102543333Y-93334285D01*
X102495714Y-93429523D01*
X102400476Y-93524761D01*
X102257619Y-93572380D01*
X102019523Y-93572380D01*
X103067142Y-93572380D02*
X103257619Y-93572380D01*
X103352857Y-93524761D01*
X103400476Y-93477142D01*
X103495714Y-93334285D01*
X103543333Y-93143809D01*
X103543333Y-92762857D01*
X103495714Y-92667619D01*
X103448095Y-92620000D01*
X103352857Y-92572380D01*
X103162380Y-92572380D01*
X103067142Y-92620000D01*
X103019523Y-92667619D01*
X102971904Y-92762857D01*
X102971904Y-93000952D01*
X103019523Y-93096190D01*
X103067142Y-93143809D01*
X103162380Y-93191428D01*
X103352857Y-93191428D01*
X103448095Y-93143809D01*
X103495714Y-93096190D01*
X103543333Y-93000952D01*
X104162380Y-92572380D02*
X104257619Y-92572380D01*
X104352857Y-92620000D01*
X104400476Y-92667619D01*
X104448095Y-92762857D01*
X104495714Y-92953333D01*
X104495714Y-93191428D01*
X104448095Y-93381904D01*
X104400476Y-93477142D01*
X104352857Y-93524761D01*
X104257619Y-93572380D01*
X104162380Y-93572380D01*
X104067142Y-93524761D01*
X104019523Y-93477142D01*
X103971904Y-93381904D01*
X103924285Y-93191428D01*
X103924285Y-92953333D01*
X103971904Y-92762857D01*
X104019523Y-92667619D01*
X104067142Y-92620000D01*
X104162380Y-92572380D01*
X105352857Y-92572380D02*
X105162380Y-92572380D01*
X105067142Y-92620000D01*
X105019523Y-92667619D01*
X104924285Y-92810476D01*
X104876666Y-93000952D01*
X104876666Y-93381904D01*
X104924285Y-93477142D01*
X104971904Y-93524761D01*
X105067142Y-93572380D01*
X105257619Y-93572380D01*
X105352857Y-93524761D01*
X105400476Y-93477142D01*
X105448095Y-93381904D01*
X105448095Y-93143809D01*
X105400476Y-93048571D01*
X105352857Y-93000952D01*
X105257619Y-92953333D01*
X105067142Y-92953333D01*
X104971904Y-93000952D01*
X104924285Y-93048571D01*
X104876666Y-93143809D01*
X102431904Y-90116666D02*
X102908095Y-90116666D01*
X102336666Y-90402380D02*
X102670000Y-89402380D01*
X103003333Y-90402380D01*
X120130952Y-46857142D02*
X120083333Y-46904761D01*
X119940476Y-46952380D01*
X119845238Y-46952380D01*
X119702380Y-46904761D01*
X119607142Y-46809523D01*
X119559523Y-46714285D01*
X119511904Y-46523809D01*
X119511904Y-46380952D01*
X119559523Y-46190476D01*
X119607142Y-46095238D01*
X119702380Y-46000000D01*
X119845238Y-45952380D01*
X119940476Y-45952380D01*
X120083333Y-46000000D01*
X120130952Y-46047619D01*
X120607142Y-46952380D02*
X120797619Y-46952380D01*
X120892857Y-46904761D01*
X120940476Y-46857142D01*
X121035714Y-46714285D01*
X121083333Y-46523809D01*
X121083333Y-46142857D01*
X121035714Y-46047619D01*
X120988095Y-46000000D01*
X120892857Y-45952380D01*
X120702380Y-45952380D01*
X120607142Y-46000000D01*
X120559523Y-46047619D01*
X120511904Y-46142857D01*
X120511904Y-46380952D01*
X120559523Y-46476190D01*
X120607142Y-46523809D01*
X120702380Y-46571428D01*
X120892857Y-46571428D01*
X120988095Y-46523809D01*
X121035714Y-46476190D01*
X121083333Y-46380952D01*
X121940476Y-46285714D02*
X121940476Y-46952380D01*
X121702380Y-45904761D02*
X121464285Y-46619047D01*
X122083333Y-46619047D01*
X122369047Y-45952380D02*
X122988095Y-45952380D01*
X122654761Y-46333333D01*
X122797619Y-46333333D01*
X122892857Y-46380952D01*
X122940476Y-46428571D01*
X122988095Y-46523809D01*
X122988095Y-46761904D01*
X122940476Y-46857142D01*
X122892857Y-46904761D01*
X122797619Y-46952380D01*
X122511904Y-46952380D01*
X122416666Y-46904761D01*
X122369047Y-46857142D01*
X65607142Y-84369047D02*
X65654761Y-84416666D01*
X65702380Y-84559523D01*
X65702380Y-84654761D01*
X65654761Y-84797619D01*
X65559523Y-84892857D01*
X65464285Y-84940476D01*
X65273809Y-84988095D01*
X65130952Y-84988095D01*
X64940476Y-84940476D01*
X64845238Y-84892857D01*
X64750000Y-84797619D01*
X64702380Y-84654761D01*
X64702380Y-84559523D01*
X64750000Y-84416666D01*
X64797619Y-84369047D01*
X65702380Y-83892857D02*
X65702380Y-83702380D01*
X65654761Y-83607142D01*
X65607142Y-83559523D01*
X65464285Y-83464285D01*
X65273809Y-83416666D01*
X64892857Y-83416666D01*
X64797619Y-83464285D01*
X64750000Y-83511904D01*
X64702380Y-83607142D01*
X64702380Y-83797619D01*
X64750000Y-83892857D01*
X64797619Y-83940476D01*
X64892857Y-83988095D01*
X65130952Y-83988095D01*
X65226190Y-83940476D01*
X65273809Y-83892857D01*
X65321428Y-83797619D01*
X65321428Y-83607142D01*
X65273809Y-83511904D01*
X65226190Y-83464285D01*
X65130952Y-83416666D01*
X64797619Y-83035714D02*
X64750000Y-82988095D01*
X64702380Y-82892857D01*
X64702380Y-82654761D01*
X64750000Y-82559523D01*
X64797619Y-82511904D01*
X64892857Y-82464285D01*
X64988095Y-82464285D01*
X65130952Y-82511904D01*
X65702380Y-83083333D01*
X65702380Y-82464285D01*
X65130952Y-81892857D02*
X65083333Y-81988095D01*
X65035714Y-82035714D01*
X64940476Y-82083333D01*
X64892857Y-82083333D01*
X64797619Y-82035714D01*
X64750000Y-81988095D01*
X64702380Y-81892857D01*
X64702380Y-81702380D01*
X64750000Y-81607142D01*
X64797619Y-81559523D01*
X64892857Y-81511904D01*
X64940476Y-81511904D01*
X65035714Y-81559523D01*
X65083333Y-81607142D01*
X65130952Y-81702380D01*
X65130952Y-81892857D01*
X65178571Y-81988095D01*
X65226190Y-82035714D01*
X65321428Y-82083333D01*
X65511904Y-82083333D01*
X65607142Y-82035714D01*
X65654761Y-81988095D01*
X65702380Y-81892857D01*
X65702380Y-81702380D01*
X65654761Y-81607142D01*
X65607142Y-81559523D01*
X65511904Y-81511904D01*
X65321428Y-81511904D01*
X65226190Y-81559523D01*
X65178571Y-81607142D01*
X65130952Y-81702380D01*
X83822380Y-59329047D02*
X83346190Y-59662380D01*
X83822380Y-59900476D02*
X82822380Y-59900476D01*
X82822380Y-59519523D01*
X82870000Y-59424285D01*
X82917619Y-59376666D01*
X83012857Y-59329047D01*
X83155714Y-59329047D01*
X83250952Y-59376666D01*
X83298571Y-59424285D01*
X83346190Y-59519523D01*
X83346190Y-59900476D01*
X83822380Y-58852857D02*
X83822380Y-58662380D01*
X83774761Y-58567142D01*
X83727142Y-58519523D01*
X83584285Y-58424285D01*
X83393809Y-58376666D01*
X83012857Y-58376666D01*
X82917619Y-58424285D01*
X82870000Y-58471904D01*
X82822380Y-58567142D01*
X82822380Y-58757619D01*
X82870000Y-58852857D01*
X82917619Y-58900476D01*
X83012857Y-58948095D01*
X83250952Y-58948095D01*
X83346190Y-58900476D01*
X83393809Y-58852857D01*
X83441428Y-58757619D01*
X83441428Y-58567142D01*
X83393809Y-58471904D01*
X83346190Y-58424285D01*
X83250952Y-58376666D01*
X83822380Y-57424285D02*
X83822380Y-57995714D01*
X83822380Y-57710000D02*
X82822380Y-57710000D01*
X82965238Y-57805238D01*
X83060476Y-57900476D01*
X83108095Y-57995714D01*
X82822380Y-57090952D02*
X82822380Y-56471904D01*
X83203333Y-56805238D01*
X83203333Y-56662380D01*
X83250952Y-56567142D01*
X83298571Y-56519523D01*
X83393809Y-56471904D01*
X83631904Y-56471904D01*
X83727142Y-56519523D01*
X83774761Y-56567142D01*
X83822380Y-56662380D01*
X83822380Y-56948095D01*
X83774761Y-57043333D01*
X83727142Y-57090952D01*
X112285714Y-87072380D02*
X112857142Y-87072380D01*
X112571428Y-88072380D02*
X112571428Y-87072380D01*
X113238095Y-88072380D02*
X113428571Y-88072380D01*
X113523809Y-88024761D01*
X113571428Y-87977142D01*
X113666666Y-87834285D01*
X113714285Y-87643809D01*
X113714285Y-87262857D01*
X113666666Y-87167619D01*
X113619047Y-87120000D01*
X113523809Y-87072380D01*
X113333333Y-87072380D01*
X113238095Y-87120000D01*
X113190476Y-87167619D01*
X113142857Y-87262857D01*
X113142857Y-87500952D01*
X113190476Y-87596190D01*
X113238095Y-87643809D01*
X113333333Y-87691428D01*
X113523809Y-87691428D01*
X113619047Y-87643809D01*
X113666666Y-87596190D01*
X113714285Y-87500952D01*
X114333333Y-87072380D02*
X114428571Y-87072380D01*
X114523809Y-87120000D01*
X114571428Y-87167619D01*
X114619047Y-87262857D01*
X114666666Y-87453333D01*
X114666666Y-87691428D01*
X114619047Y-87881904D01*
X114571428Y-87977142D01*
X114523809Y-88024761D01*
X114428571Y-88072380D01*
X114333333Y-88072380D01*
X114238095Y-88024761D01*
X114190476Y-87977142D01*
X114142857Y-87881904D01*
X114095238Y-87691428D01*
X114095238Y-87453333D01*
X114142857Y-87262857D01*
X114190476Y-87167619D01*
X114238095Y-87120000D01*
X114333333Y-87072380D01*
X115000000Y-87072380D02*
X115666666Y-87072380D01*
X115238095Y-88072380D01*
X125607142Y-76869047D02*
X125654761Y-76916666D01*
X125702380Y-77059523D01*
X125702380Y-77154761D01*
X125654761Y-77297619D01*
X125559523Y-77392857D01*
X125464285Y-77440476D01*
X125273809Y-77488095D01*
X125130952Y-77488095D01*
X124940476Y-77440476D01*
X124845238Y-77392857D01*
X124750000Y-77297619D01*
X124702380Y-77154761D01*
X124702380Y-77059523D01*
X124750000Y-76916666D01*
X124797619Y-76869047D01*
X125702380Y-76392857D02*
X125702380Y-76202380D01*
X125654761Y-76107142D01*
X125607142Y-76059523D01*
X125464285Y-75964285D01*
X125273809Y-75916666D01*
X124892857Y-75916666D01*
X124797619Y-75964285D01*
X124750000Y-76011904D01*
X124702380Y-76107142D01*
X124702380Y-76297619D01*
X124750000Y-76392857D01*
X124797619Y-76440476D01*
X124892857Y-76488095D01*
X125130952Y-76488095D01*
X125226190Y-76440476D01*
X125273809Y-76392857D01*
X125321428Y-76297619D01*
X125321428Y-76107142D01*
X125273809Y-76011904D01*
X125226190Y-75964285D01*
X125130952Y-75916666D01*
X125035714Y-75059523D02*
X125702380Y-75059523D01*
X124654761Y-75297619D02*
X125369047Y-75535714D01*
X125369047Y-74916666D01*
X124702380Y-74630952D02*
X124702380Y-73964285D01*
X125702380Y-74392857D01*
X106105952Y-88072380D02*
X105772619Y-87596190D01*
X105534523Y-88072380D02*
X105534523Y-87072380D01*
X105915476Y-87072380D01*
X106010714Y-87120000D01*
X106058333Y-87167619D01*
X106105952Y-87262857D01*
X106105952Y-87405714D01*
X106058333Y-87500952D01*
X106010714Y-87548571D01*
X105915476Y-87596190D01*
X105534523Y-87596190D01*
X106582142Y-88072380D02*
X106772619Y-88072380D01*
X106867857Y-88024761D01*
X106915476Y-87977142D01*
X107010714Y-87834285D01*
X107058333Y-87643809D01*
X107058333Y-87262857D01*
X107010714Y-87167619D01*
X106963095Y-87120000D01*
X106867857Y-87072380D01*
X106677380Y-87072380D01*
X106582142Y-87120000D01*
X106534523Y-87167619D01*
X106486904Y-87262857D01*
X106486904Y-87500952D01*
X106534523Y-87596190D01*
X106582142Y-87643809D01*
X106677380Y-87691428D01*
X106867857Y-87691428D01*
X106963095Y-87643809D01*
X107010714Y-87596190D01*
X107058333Y-87500952D01*
X107677380Y-87072380D02*
X107772619Y-87072380D01*
X107867857Y-87120000D01*
X107915476Y-87167619D01*
X107963095Y-87262857D01*
X108010714Y-87453333D01*
X108010714Y-87691428D01*
X107963095Y-87881904D01*
X107915476Y-87977142D01*
X107867857Y-88024761D01*
X107772619Y-88072380D01*
X107677380Y-88072380D01*
X107582142Y-88024761D01*
X107534523Y-87977142D01*
X107486904Y-87881904D01*
X107439285Y-87691428D01*
X107439285Y-87453333D01*
X107486904Y-87262857D01*
X107534523Y-87167619D01*
X107582142Y-87120000D01*
X107677380Y-87072380D01*
X108582142Y-87500952D02*
X108486904Y-87453333D01*
X108439285Y-87405714D01*
X108391666Y-87310476D01*
X108391666Y-87262857D01*
X108439285Y-87167619D01*
X108486904Y-87120000D01*
X108582142Y-87072380D01*
X108772619Y-87072380D01*
X108867857Y-87120000D01*
X108915476Y-87167619D01*
X108963095Y-87262857D01*
X108963095Y-87310476D01*
X108915476Y-87405714D01*
X108867857Y-87453333D01*
X108772619Y-87500952D01*
X108582142Y-87500952D01*
X108486904Y-87548571D01*
X108439285Y-87596190D01*
X108391666Y-87691428D01*
X108391666Y-87881904D01*
X108439285Y-87977142D01*
X108486904Y-88024761D01*
X108582142Y-88072380D01*
X108772619Y-88072380D01*
X108867857Y-88024761D01*
X108915476Y-87977142D01*
X108963095Y-87881904D01*
X108963095Y-87691428D01*
X108915476Y-87596190D01*
X108867857Y-87548571D01*
X108772619Y-87500952D01*
X125607142Y-91869047D02*
X125654761Y-91916666D01*
X125702380Y-92059523D01*
X125702380Y-92154761D01*
X125654761Y-92297619D01*
X125559523Y-92392857D01*
X125464285Y-92440476D01*
X125273809Y-92488095D01*
X125130952Y-92488095D01*
X124940476Y-92440476D01*
X124845238Y-92392857D01*
X124750000Y-92297619D01*
X124702380Y-92154761D01*
X124702380Y-92059523D01*
X124750000Y-91916666D01*
X124797619Y-91869047D01*
X125702380Y-91392857D02*
X125702380Y-91202380D01*
X125654761Y-91107142D01*
X125607142Y-91059523D01*
X125464285Y-90964285D01*
X125273809Y-90916666D01*
X124892857Y-90916666D01*
X124797619Y-90964285D01*
X124750000Y-91011904D01*
X124702380Y-91107142D01*
X124702380Y-91297619D01*
X124750000Y-91392857D01*
X124797619Y-91440476D01*
X124892857Y-91488095D01*
X125130952Y-91488095D01*
X125226190Y-91440476D01*
X125273809Y-91392857D01*
X125321428Y-91297619D01*
X125321428Y-91107142D01*
X125273809Y-91011904D01*
X125226190Y-90964285D01*
X125130952Y-90916666D01*
X124702380Y-90011904D02*
X124702380Y-90488095D01*
X125178571Y-90535714D01*
X125130952Y-90488095D01*
X125083333Y-90392857D01*
X125083333Y-90154761D01*
X125130952Y-90059523D01*
X125178571Y-90011904D01*
X125273809Y-89964285D01*
X125511904Y-89964285D01*
X125607142Y-90011904D01*
X125654761Y-90059523D01*
X125702380Y-90154761D01*
X125702380Y-90392857D01*
X125654761Y-90488095D01*
X125607142Y-90535714D01*
X125702380Y-89011904D02*
X125702380Y-89583333D01*
X125702380Y-89297619D02*
X124702380Y-89297619D01*
X124845238Y-89392857D01*
X124940476Y-89488095D01*
X124988095Y-89583333D01*
X90556428Y-88202380D02*
X90556428Y-87202380D01*
X91604047Y-88107142D02*
X91556428Y-88154761D01*
X91413571Y-88202380D01*
X91318333Y-88202380D01*
X91175476Y-88154761D01*
X91080238Y-88059523D01*
X91032619Y-87964285D01*
X90985000Y-87773809D01*
X90985000Y-87630952D01*
X91032619Y-87440476D01*
X91080238Y-87345238D01*
X91175476Y-87250000D01*
X91318333Y-87202380D01*
X91413571Y-87202380D01*
X91556428Y-87250000D01*
X91604047Y-87297619D01*
X92080238Y-88202380D02*
X92270714Y-88202380D01*
X92365952Y-88154761D01*
X92413571Y-88107142D01*
X92508809Y-87964285D01*
X92556428Y-87773809D01*
X92556428Y-87392857D01*
X92508809Y-87297619D01*
X92461190Y-87250000D01*
X92365952Y-87202380D01*
X92175476Y-87202380D01*
X92080238Y-87250000D01*
X92032619Y-87297619D01*
X91985000Y-87392857D01*
X91985000Y-87630952D01*
X92032619Y-87726190D01*
X92080238Y-87773809D01*
X92175476Y-87821428D01*
X92365952Y-87821428D01*
X92461190Y-87773809D01*
X92508809Y-87726190D01*
X92556428Y-87630952D01*
X93175476Y-87202380D02*
X93270714Y-87202380D01*
X93365952Y-87250000D01*
X93413571Y-87297619D01*
X93461190Y-87392857D01*
X93508809Y-87583333D01*
X93508809Y-87821428D01*
X93461190Y-88011904D01*
X93413571Y-88107142D01*
X93365952Y-88154761D01*
X93270714Y-88202380D01*
X93175476Y-88202380D01*
X93080238Y-88154761D01*
X93032619Y-88107142D01*
X92985000Y-88011904D01*
X92937380Y-87821428D01*
X92937380Y-87583333D01*
X92985000Y-87392857D01*
X93032619Y-87297619D01*
X93080238Y-87250000D01*
X93175476Y-87202380D01*
X94461190Y-88202380D02*
X93889761Y-88202380D01*
X94175476Y-88202380D02*
X94175476Y-87202380D01*
X94080238Y-87345238D01*
X93985000Y-87440476D01*
X93889761Y-87488095D01*
X120107142Y-84369047D02*
X120154761Y-84416666D01*
X120202380Y-84559523D01*
X120202380Y-84654761D01*
X120154761Y-84797619D01*
X120059523Y-84892857D01*
X119964285Y-84940476D01*
X119773809Y-84988095D01*
X119630952Y-84988095D01*
X119440476Y-84940476D01*
X119345238Y-84892857D01*
X119250000Y-84797619D01*
X119202380Y-84654761D01*
X119202380Y-84559523D01*
X119250000Y-84416666D01*
X119297619Y-84369047D01*
X120202380Y-83892857D02*
X120202380Y-83702380D01*
X120154761Y-83607142D01*
X120107142Y-83559523D01*
X119964285Y-83464285D01*
X119773809Y-83416666D01*
X119392857Y-83416666D01*
X119297619Y-83464285D01*
X119250000Y-83511904D01*
X119202380Y-83607142D01*
X119202380Y-83797619D01*
X119250000Y-83892857D01*
X119297619Y-83940476D01*
X119392857Y-83988095D01*
X119630952Y-83988095D01*
X119726190Y-83940476D01*
X119773809Y-83892857D01*
X119821428Y-83797619D01*
X119821428Y-83607142D01*
X119773809Y-83511904D01*
X119726190Y-83464285D01*
X119630952Y-83416666D01*
X119535714Y-82559523D02*
X120202380Y-82559523D01*
X119154761Y-82797619D02*
X119869047Y-83035714D01*
X119869047Y-82416666D01*
X119630952Y-81892857D02*
X119583333Y-81988095D01*
X119535714Y-82035714D01*
X119440476Y-82083333D01*
X119392857Y-82083333D01*
X119297619Y-82035714D01*
X119250000Y-81988095D01*
X119202380Y-81892857D01*
X119202380Y-81702380D01*
X119250000Y-81607142D01*
X119297619Y-81559523D01*
X119392857Y-81511904D01*
X119440476Y-81511904D01*
X119535714Y-81559523D01*
X119583333Y-81607142D01*
X119630952Y-81702380D01*
X119630952Y-81892857D01*
X119678571Y-81988095D01*
X119726190Y-82035714D01*
X119821428Y-82083333D01*
X120011904Y-82083333D01*
X120107142Y-82035714D01*
X120154761Y-81988095D01*
X120202380Y-81892857D01*
X120202380Y-81702380D01*
X120154761Y-81607142D01*
X120107142Y-81559523D01*
X120011904Y-81511904D01*
X119821428Y-81511904D01*
X119726190Y-81559523D01*
X119678571Y-81607142D01*
X119630952Y-81702380D01*
X99809523Y-46952380D02*
X99809523Y-45952380D01*
X100190476Y-45952380D01*
X100285714Y-46000000D01*
X100333333Y-46047619D01*
X100380952Y-46142857D01*
X100380952Y-46285714D01*
X100333333Y-46380952D01*
X100285714Y-46428571D01*
X100190476Y-46476190D01*
X99809523Y-46476190D01*
X100857142Y-46952380D02*
X101047619Y-46952380D01*
X101142857Y-46904761D01*
X101190476Y-46857142D01*
X101285714Y-46714285D01*
X101333333Y-46523809D01*
X101333333Y-46142857D01*
X101285714Y-46047619D01*
X101238095Y-46000000D01*
X101142857Y-45952380D01*
X100952380Y-45952380D01*
X100857142Y-46000000D01*
X100809523Y-46047619D01*
X100761904Y-46142857D01*
X100761904Y-46380952D01*
X100809523Y-46476190D01*
X100857142Y-46523809D01*
X100952380Y-46571428D01*
X101142857Y-46571428D01*
X101238095Y-46523809D01*
X101285714Y-46476190D01*
X101333333Y-46380952D01*
X101952380Y-45952380D02*
X102047619Y-45952380D01*
X102142857Y-46000000D01*
X102190476Y-46047619D01*
X102238095Y-46142857D01*
X102285714Y-46333333D01*
X102285714Y-46571428D01*
X102238095Y-46761904D01*
X102190476Y-46857142D01*
X102142857Y-46904761D01*
X102047619Y-46952380D01*
X101952380Y-46952380D01*
X101857142Y-46904761D01*
X101809523Y-46857142D01*
X101761904Y-46761904D01*
X101714285Y-46571428D01*
X101714285Y-46333333D01*
X101761904Y-46142857D01*
X101809523Y-46047619D01*
X101857142Y-46000000D01*
X101952380Y-45952380D01*
X103238095Y-46952380D02*
X102666666Y-46952380D01*
X102952380Y-46952380D02*
X102952380Y-45952380D01*
X102857142Y-46095238D01*
X102761904Y-46190476D01*
X102666666Y-46238095D01*
X65572380Y-59329047D02*
X65096190Y-59662380D01*
X65572380Y-59900476D02*
X64572380Y-59900476D01*
X64572380Y-59519523D01*
X64620000Y-59424285D01*
X64667619Y-59376666D01*
X64762857Y-59329047D01*
X64905714Y-59329047D01*
X65000952Y-59376666D01*
X65048571Y-59424285D01*
X65096190Y-59519523D01*
X65096190Y-59900476D01*
X65572380Y-58852857D02*
X65572380Y-58662380D01*
X65524761Y-58567142D01*
X65477142Y-58519523D01*
X65334285Y-58424285D01*
X65143809Y-58376666D01*
X64762857Y-58376666D01*
X64667619Y-58424285D01*
X64620000Y-58471904D01*
X64572380Y-58567142D01*
X64572380Y-58757619D01*
X64620000Y-58852857D01*
X64667619Y-58900476D01*
X64762857Y-58948095D01*
X65000952Y-58948095D01*
X65096190Y-58900476D01*
X65143809Y-58852857D01*
X65191428Y-58757619D01*
X65191428Y-58567142D01*
X65143809Y-58471904D01*
X65096190Y-58424285D01*
X65000952Y-58376666D01*
X64667619Y-57995714D02*
X64620000Y-57948095D01*
X64572380Y-57852857D01*
X64572380Y-57614761D01*
X64620000Y-57519523D01*
X64667619Y-57471904D01*
X64762857Y-57424285D01*
X64858095Y-57424285D01*
X65000952Y-57471904D01*
X65572380Y-58043333D01*
X65572380Y-57424285D01*
X65572380Y-56471904D02*
X65572380Y-57043333D01*
X65572380Y-56757619D02*
X64572380Y-56757619D01*
X64715238Y-56852857D01*
X64810476Y-56948095D01*
X64858095Y-57043333D01*
X75322380Y-89329047D02*
X74846190Y-89662380D01*
X75322380Y-89900476D02*
X74322380Y-89900476D01*
X74322380Y-89519523D01*
X74370000Y-89424285D01*
X74417619Y-89376666D01*
X74512857Y-89329047D01*
X74655714Y-89329047D01*
X74750952Y-89376666D01*
X74798571Y-89424285D01*
X74846190Y-89519523D01*
X74846190Y-89900476D01*
X75322380Y-88852857D02*
X75322380Y-88662380D01*
X75274761Y-88567142D01*
X75227142Y-88519523D01*
X75084285Y-88424285D01*
X74893809Y-88376666D01*
X74512857Y-88376666D01*
X74417619Y-88424285D01*
X74370000Y-88471904D01*
X74322380Y-88567142D01*
X74322380Y-88757619D01*
X74370000Y-88852857D01*
X74417619Y-88900476D01*
X74512857Y-88948095D01*
X74750952Y-88948095D01*
X74846190Y-88900476D01*
X74893809Y-88852857D01*
X74941428Y-88757619D01*
X74941428Y-88567142D01*
X74893809Y-88471904D01*
X74846190Y-88424285D01*
X74750952Y-88376666D01*
X75322380Y-87424285D02*
X75322380Y-87995714D01*
X75322380Y-87710000D02*
X74322380Y-87710000D01*
X74465238Y-87805238D01*
X74560476Y-87900476D01*
X74608095Y-87995714D01*
X74750952Y-86852857D02*
X74703333Y-86948095D01*
X74655714Y-86995714D01*
X74560476Y-87043333D01*
X74512857Y-87043333D01*
X74417619Y-86995714D01*
X74370000Y-86948095D01*
X74322380Y-86852857D01*
X74322380Y-86662380D01*
X74370000Y-86567142D01*
X74417619Y-86519523D01*
X74512857Y-86471904D01*
X74560476Y-86471904D01*
X74655714Y-86519523D01*
X74703333Y-86567142D01*
X74750952Y-86662380D01*
X74750952Y-86852857D01*
X74798571Y-86948095D01*
X74846190Y-86995714D01*
X74941428Y-87043333D01*
X75131904Y-87043333D01*
X75227142Y-86995714D01*
X75274761Y-86948095D01*
X75322380Y-86852857D01*
X75322380Y-86662380D01*
X75274761Y-86567142D01*
X75227142Y-86519523D01*
X75131904Y-86471904D01*
X74941428Y-86471904D01*
X74846190Y-86519523D01*
X74798571Y-86567142D01*
X74750952Y-86662380D01*
X71892380Y-59934285D02*
X71892380Y-59362857D01*
X72892380Y-59648571D02*
X71892380Y-59648571D01*
X72892380Y-58981904D02*
X72892380Y-58791428D01*
X72844761Y-58696190D01*
X72797142Y-58648571D01*
X72654285Y-58553333D01*
X72463809Y-58505714D01*
X72082857Y-58505714D01*
X71987619Y-58553333D01*
X71940000Y-58600952D01*
X71892380Y-58696190D01*
X71892380Y-58886666D01*
X71940000Y-58981904D01*
X71987619Y-59029523D01*
X72082857Y-59077142D01*
X72320952Y-59077142D01*
X72416190Y-59029523D01*
X72463809Y-58981904D01*
X72511428Y-58886666D01*
X72511428Y-58696190D01*
X72463809Y-58600952D01*
X72416190Y-58553333D01*
X72320952Y-58505714D01*
X71987619Y-58124761D02*
X71940000Y-58077142D01*
X71892380Y-57981904D01*
X71892380Y-57743809D01*
X71940000Y-57648571D01*
X71987619Y-57600952D01*
X72082857Y-57553333D01*
X72178095Y-57553333D01*
X72320952Y-57600952D01*
X72892380Y-58172380D01*
X72892380Y-57553333D01*
X72892380Y-56600952D02*
X72892380Y-57172380D01*
X72892380Y-56886666D02*
X71892380Y-56886666D01*
X72035238Y-56981904D01*
X72130476Y-57077142D01*
X72178095Y-57172380D01*
X107832380Y-59329047D02*
X107356190Y-59662380D01*
X107832380Y-59900476D02*
X106832380Y-59900476D01*
X106832380Y-59519523D01*
X106880000Y-59424285D01*
X106927619Y-59376666D01*
X107022857Y-59329047D01*
X107165714Y-59329047D01*
X107260952Y-59376666D01*
X107308571Y-59424285D01*
X107356190Y-59519523D01*
X107356190Y-59900476D01*
X107832380Y-58852857D02*
X107832380Y-58662380D01*
X107784761Y-58567142D01*
X107737142Y-58519523D01*
X107594285Y-58424285D01*
X107403809Y-58376666D01*
X107022857Y-58376666D01*
X106927619Y-58424285D01*
X106880000Y-58471904D01*
X106832380Y-58567142D01*
X106832380Y-58757619D01*
X106880000Y-58852857D01*
X106927619Y-58900476D01*
X107022857Y-58948095D01*
X107260952Y-58948095D01*
X107356190Y-58900476D01*
X107403809Y-58852857D01*
X107451428Y-58757619D01*
X107451428Y-58567142D01*
X107403809Y-58471904D01*
X107356190Y-58424285D01*
X107260952Y-58376666D01*
X107165714Y-57519523D02*
X107832380Y-57519523D01*
X106784761Y-57757619D02*
X107499047Y-57995714D01*
X107499047Y-57376666D01*
X106927619Y-57043333D02*
X106880000Y-56995714D01*
X106832380Y-56900476D01*
X106832380Y-56662380D01*
X106880000Y-56567142D01*
X106927619Y-56519523D01*
X107022857Y-56471904D01*
X107118095Y-56471904D01*
X107260952Y-56519523D01*
X107832380Y-57090952D01*
X107832380Y-56471904D01*
X94590952Y-93572380D02*
X94257619Y-93096190D01*
X94019523Y-93572380D02*
X94019523Y-92572380D01*
X94400476Y-92572380D01*
X94495714Y-92620000D01*
X94543333Y-92667619D01*
X94590952Y-92762857D01*
X94590952Y-92905714D01*
X94543333Y-93000952D01*
X94495714Y-93048571D01*
X94400476Y-93096190D01*
X94019523Y-93096190D01*
X95067142Y-93572380D02*
X95257619Y-93572380D01*
X95352857Y-93524761D01*
X95400476Y-93477142D01*
X95495714Y-93334285D01*
X95543333Y-93143809D01*
X95543333Y-92762857D01*
X95495714Y-92667619D01*
X95448095Y-92620000D01*
X95352857Y-92572380D01*
X95162380Y-92572380D01*
X95067142Y-92620000D01*
X95019523Y-92667619D01*
X94971904Y-92762857D01*
X94971904Y-93000952D01*
X95019523Y-93096190D01*
X95067142Y-93143809D01*
X95162380Y-93191428D01*
X95352857Y-93191428D01*
X95448095Y-93143809D01*
X95495714Y-93096190D01*
X95543333Y-93000952D01*
X96495714Y-93572380D02*
X95924285Y-93572380D01*
X96210000Y-93572380D02*
X96210000Y-92572380D01*
X96114761Y-92715238D01*
X96019523Y-92810476D01*
X95924285Y-92858095D01*
X96829047Y-92572380D02*
X97495714Y-92572380D01*
X97067142Y-93572380D01*
X75107142Y-67869047D02*
X75154761Y-67916666D01*
X75202380Y-68059523D01*
X75202380Y-68154761D01*
X75154761Y-68297619D01*
X75059523Y-68392857D01*
X74964285Y-68440476D01*
X74773809Y-68488095D01*
X74630952Y-68488095D01*
X74440476Y-68440476D01*
X74345238Y-68392857D01*
X74250000Y-68297619D01*
X74202380Y-68154761D01*
X74202380Y-68059523D01*
X74250000Y-67916666D01*
X74297619Y-67869047D01*
X75202380Y-67392857D02*
X75202380Y-67202380D01*
X75154761Y-67107142D01*
X75107142Y-67059523D01*
X74964285Y-66964285D01*
X74773809Y-66916666D01*
X74392857Y-66916666D01*
X74297619Y-66964285D01*
X74250000Y-67011904D01*
X74202380Y-67107142D01*
X74202380Y-67297619D01*
X74250000Y-67392857D01*
X74297619Y-67440476D01*
X74392857Y-67488095D01*
X74630952Y-67488095D01*
X74726190Y-67440476D01*
X74773809Y-67392857D01*
X74821428Y-67297619D01*
X74821428Y-67107142D01*
X74773809Y-67011904D01*
X74726190Y-66964285D01*
X74630952Y-66916666D01*
X75202380Y-65964285D02*
X75202380Y-66535714D01*
X75202380Y-66250000D02*
X74202380Y-66250000D01*
X74345238Y-66345238D01*
X74440476Y-66440476D01*
X74488095Y-66535714D01*
X74202380Y-65107142D02*
X74202380Y-65297619D01*
X74250000Y-65392857D01*
X74297619Y-65440476D01*
X74440476Y-65535714D01*
X74630952Y-65583333D01*
X75011904Y-65583333D01*
X75107142Y-65535714D01*
X75154761Y-65488095D01*
X75202380Y-65392857D01*
X75202380Y-65202380D01*
X75154761Y-65107142D01*
X75107142Y-65059523D01*
X75011904Y-65011904D01*
X74773809Y-65011904D01*
X74678571Y-65059523D01*
X74630952Y-65107142D01*
X74583333Y-65202380D01*
X74583333Y-65392857D01*
X74630952Y-65488095D01*
X74678571Y-65535714D01*
X74773809Y-65583333D01*
X79880952Y-93477142D02*
X79833333Y-93524761D01*
X79690476Y-93572380D01*
X79595238Y-93572380D01*
X79452380Y-93524761D01*
X79357142Y-93429523D01*
X79309523Y-93334285D01*
X79261904Y-93143809D01*
X79261904Y-93000952D01*
X79309523Y-92810476D01*
X79357142Y-92715238D01*
X79452380Y-92620000D01*
X79595238Y-92572380D01*
X79690476Y-92572380D01*
X79833333Y-92620000D01*
X79880952Y-92667619D01*
X80357142Y-93572380D02*
X80547619Y-93572380D01*
X80642857Y-93524761D01*
X80690476Y-93477142D01*
X80785714Y-93334285D01*
X80833333Y-93143809D01*
X80833333Y-92762857D01*
X80785714Y-92667619D01*
X80738095Y-92620000D01*
X80642857Y-92572380D01*
X80452380Y-92572380D01*
X80357142Y-92620000D01*
X80309523Y-92667619D01*
X80261904Y-92762857D01*
X80261904Y-93000952D01*
X80309523Y-93096190D01*
X80357142Y-93143809D01*
X80452380Y-93191428D01*
X80642857Y-93191428D01*
X80738095Y-93143809D01*
X80785714Y-93096190D01*
X80833333Y-93000952D01*
X81785714Y-93572380D02*
X81214285Y-93572380D01*
X81500000Y-93572380D02*
X81500000Y-92572380D01*
X81404761Y-92715238D01*
X81309523Y-92810476D01*
X81214285Y-92858095D01*
X82357142Y-93000952D02*
X82261904Y-92953333D01*
X82214285Y-92905714D01*
X82166666Y-92810476D01*
X82166666Y-92762857D01*
X82214285Y-92667619D01*
X82261904Y-92620000D01*
X82357142Y-92572380D01*
X82547619Y-92572380D01*
X82642857Y-92620000D01*
X82690476Y-92667619D01*
X82738095Y-92762857D01*
X82738095Y-92810476D01*
X82690476Y-92905714D01*
X82642857Y-92953333D01*
X82547619Y-93000952D01*
X82357142Y-93000952D01*
X82261904Y-93048571D01*
X82214285Y-93096190D01*
X82166666Y-93191428D01*
X82166666Y-93381904D01*
X82214285Y-93477142D01*
X82261904Y-93524761D01*
X82357142Y-93572380D01*
X82547619Y-93572380D01*
X82642857Y-93524761D01*
X82690476Y-93477142D01*
X82738095Y-93381904D01*
X82738095Y-93191428D01*
X82690476Y-93096190D01*
X82642857Y-93048571D01*
X82547619Y-93000952D01*
X125607142Y-61869047D02*
X125654761Y-61916666D01*
X125702380Y-62059523D01*
X125702380Y-62154761D01*
X125654761Y-62297619D01*
X125559523Y-62392857D01*
X125464285Y-62440476D01*
X125273809Y-62488095D01*
X125130952Y-62488095D01*
X124940476Y-62440476D01*
X124845238Y-62392857D01*
X124750000Y-62297619D01*
X124702380Y-62154761D01*
X124702380Y-62059523D01*
X124750000Y-61916666D01*
X124797619Y-61869047D01*
X125702380Y-61392857D02*
X125702380Y-61202380D01*
X125654761Y-61107142D01*
X125607142Y-61059523D01*
X125464285Y-60964285D01*
X125273809Y-60916666D01*
X124892857Y-60916666D01*
X124797619Y-60964285D01*
X124750000Y-61011904D01*
X124702380Y-61107142D01*
X124702380Y-61297619D01*
X124750000Y-61392857D01*
X124797619Y-61440476D01*
X124892857Y-61488095D01*
X125130952Y-61488095D01*
X125226190Y-61440476D01*
X125273809Y-61392857D01*
X125321428Y-61297619D01*
X125321428Y-61107142D01*
X125273809Y-61011904D01*
X125226190Y-60964285D01*
X125130952Y-60916666D01*
X125035714Y-60059523D02*
X125702380Y-60059523D01*
X124654761Y-60297619D02*
X125369047Y-60535714D01*
X125369047Y-59916666D01*
X125035714Y-59107142D02*
X125702380Y-59107142D01*
X124654761Y-59345238D02*
X125369047Y-59583333D01*
X125369047Y-58964285D01*
X103857142Y-72869047D02*
X103904761Y-72916666D01*
X103952380Y-73059523D01*
X103952380Y-73154761D01*
X103904761Y-73297619D01*
X103809523Y-73392857D01*
X103714285Y-73440476D01*
X103523809Y-73488095D01*
X103380952Y-73488095D01*
X103190476Y-73440476D01*
X103095238Y-73392857D01*
X103000000Y-73297619D01*
X102952380Y-73154761D01*
X102952380Y-73059523D01*
X103000000Y-72916666D01*
X103047619Y-72869047D01*
X103952380Y-72392857D02*
X103952380Y-72202380D01*
X103904761Y-72107142D01*
X103857142Y-72059523D01*
X103714285Y-71964285D01*
X103523809Y-71916666D01*
X103142857Y-71916666D01*
X103047619Y-71964285D01*
X103000000Y-72011904D01*
X102952380Y-72107142D01*
X102952380Y-72297619D01*
X103000000Y-72392857D01*
X103047619Y-72440476D01*
X103142857Y-72488095D01*
X103380952Y-72488095D01*
X103476190Y-72440476D01*
X103523809Y-72392857D01*
X103571428Y-72297619D01*
X103571428Y-72107142D01*
X103523809Y-72011904D01*
X103476190Y-71964285D01*
X103380952Y-71916666D01*
X102952380Y-71297619D02*
X102952380Y-71202380D01*
X103000000Y-71107142D01*
X103047619Y-71059523D01*
X103142857Y-71011904D01*
X103333333Y-70964285D01*
X103571428Y-70964285D01*
X103761904Y-71011904D01*
X103857142Y-71059523D01*
X103904761Y-71107142D01*
X103952380Y-71202380D01*
X103952380Y-71297619D01*
X103904761Y-71392857D01*
X103857142Y-71440476D01*
X103761904Y-71488095D01*
X103571428Y-71535714D01*
X103333333Y-71535714D01*
X103142857Y-71488095D01*
X103047619Y-71440476D01*
X103000000Y-71392857D01*
X102952380Y-71297619D01*
X103047619Y-70583333D02*
X103000000Y-70535714D01*
X102952380Y-70440476D01*
X102952380Y-70202380D01*
X103000000Y-70107142D01*
X103047619Y-70059523D01*
X103142857Y-70011904D01*
X103238095Y-70011904D01*
X103380952Y-70059523D01*
X103952380Y-70630952D01*
X103952380Y-70011904D01*
X60107142Y-76869047D02*
X60154761Y-76916666D01*
X60202380Y-77059523D01*
X60202380Y-77154761D01*
X60154761Y-77297619D01*
X60059523Y-77392857D01*
X59964285Y-77440476D01*
X59773809Y-77488095D01*
X59630952Y-77488095D01*
X59440476Y-77440476D01*
X59345238Y-77392857D01*
X59250000Y-77297619D01*
X59202380Y-77154761D01*
X59202380Y-77059523D01*
X59250000Y-76916666D01*
X59297619Y-76869047D01*
X60202380Y-76392857D02*
X60202380Y-76202380D01*
X60154761Y-76107142D01*
X60107142Y-76059523D01*
X59964285Y-75964285D01*
X59773809Y-75916666D01*
X59392857Y-75916666D01*
X59297619Y-75964285D01*
X59250000Y-76011904D01*
X59202380Y-76107142D01*
X59202380Y-76297619D01*
X59250000Y-76392857D01*
X59297619Y-76440476D01*
X59392857Y-76488095D01*
X59630952Y-76488095D01*
X59726190Y-76440476D01*
X59773809Y-76392857D01*
X59821428Y-76297619D01*
X59821428Y-76107142D01*
X59773809Y-76011904D01*
X59726190Y-75964285D01*
X59630952Y-75916666D01*
X59297619Y-75535714D02*
X59250000Y-75488095D01*
X59202380Y-75392857D01*
X59202380Y-75154761D01*
X59250000Y-75059523D01*
X59297619Y-75011904D01*
X59392857Y-74964285D01*
X59488095Y-74964285D01*
X59630952Y-75011904D01*
X60202380Y-75583333D01*
X60202380Y-74964285D01*
X59202380Y-74630952D02*
X59202380Y-73964285D01*
X60202380Y-74392857D01*
X102405952Y-67572380D02*
X102072619Y-67096190D01*
X101834523Y-67572380D02*
X101834523Y-66572380D01*
X102215476Y-66572380D01*
X102310714Y-66620000D01*
X102358333Y-66667619D01*
X102405952Y-66762857D01*
X102405952Y-66905714D01*
X102358333Y-67000952D01*
X102310714Y-67048571D01*
X102215476Y-67096190D01*
X101834523Y-67096190D01*
X102882142Y-67572380D02*
X103072619Y-67572380D01*
X103167857Y-67524761D01*
X103215476Y-67477142D01*
X103310714Y-67334285D01*
X103358333Y-67143809D01*
X103358333Y-66762857D01*
X103310714Y-66667619D01*
X103263095Y-66620000D01*
X103167857Y-66572380D01*
X102977380Y-66572380D01*
X102882142Y-66620000D01*
X102834523Y-66667619D01*
X102786904Y-66762857D01*
X102786904Y-67000952D01*
X102834523Y-67096190D01*
X102882142Y-67143809D01*
X102977380Y-67191428D01*
X103167857Y-67191428D01*
X103263095Y-67143809D01*
X103310714Y-67096190D01*
X103358333Y-67000952D01*
X103977380Y-66572380D02*
X104072619Y-66572380D01*
X104167857Y-66620000D01*
X104215476Y-66667619D01*
X104263095Y-66762857D01*
X104310714Y-66953333D01*
X104310714Y-67191428D01*
X104263095Y-67381904D01*
X104215476Y-67477142D01*
X104167857Y-67524761D01*
X104072619Y-67572380D01*
X103977380Y-67572380D01*
X103882142Y-67524761D01*
X103834523Y-67477142D01*
X103786904Y-67381904D01*
X103739285Y-67191428D01*
X103739285Y-66953333D01*
X103786904Y-66762857D01*
X103834523Y-66667619D01*
X103882142Y-66620000D01*
X103977380Y-66572380D01*
X104644047Y-66572380D02*
X105263095Y-66572380D01*
X104929761Y-66953333D01*
X105072619Y-66953333D01*
X105167857Y-67000952D01*
X105215476Y-67048571D01*
X105263095Y-67143809D01*
X105263095Y-67381904D01*
X105215476Y-67477142D01*
X105167857Y-67524761D01*
X105072619Y-67572380D01*
X104786904Y-67572380D01*
X104691666Y-67524761D01*
X104644047Y-67477142D01*
X81809523Y-46952380D02*
X81809523Y-45952380D01*
X82190476Y-45952380D01*
X82285714Y-46000000D01*
X82333333Y-46047619D01*
X82380952Y-46142857D01*
X82380952Y-46285714D01*
X82333333Y-46380952D01*
X82285714Y-46428571D01*
X82190476Y-46476190D01*
X81809523Y-46476190D01*
X82857142Y-46952380D02*
X83047619Y-46952380D01*
X83142857Y-46904761D01*
X83190476Y-46857142D01*
X83285714Y-46714285D01*
X83333333Y-46523809D01*
X83333333Y-46142857D01*
X83285714Y-46047619D01*
X83238095Y-46000000D01*
X83142857Y-45952380D01*
X82952380Y-45952380D01*
X82857142Y-46000000D01*
X82809523Y-46047619D01*
X82761904Y-46142857D01*
X82761904Y-46380952D01*
X82809523Y-46476190D01*
X82857142Y-46523809D01*
X82952380Y-46571428D01*
X83142857Y-46571428D01*
X83238095Y-46523809D01*
X83285714Y-46476190D01*
X83333333Y-46380952D01*
X84285714Y-46952380D02*
X83714285Y-46952380D01*
X84000000Y-46952380D02*
X84000000Y-45952380D01*
X83904761Y-46095238D01*
X83809523Y-46190476D01*
X83714285Y-46238095D01*
X85238095Y-46952380D02*
X84666666Y-46952380D01*
X84952380Y-46952380D02*
X84952380Y-45952380D01*
X84857142Y-46095238D01*
X84761904Y-46190476D01*
X84666666Y-46238095D01*
X98857142Y-72869047D02*
X98904761Y-72916666D01*
X98952380Y-73059523D01*
X98952380Y-73154761D01*
X98904761Y-73297619D01*
X98809523Y-73392857D01*
X98714285Y-73440476D01*
X98523809Y-73488095D01*
X98380952Y-73488095D01*
X98190476Y-73440476D01*
X98095238Y-73392857D01*
X98000000Y-73297619D01*
X97952380Y-73154761D01*
X97952380Y-73059523D01*
X98000000Y-72916666D01*
X98047619Y-72869047D01*
X98952380Y-72392857D02*
X98952380Y-72202380D01*
X98904761Y-72107142D01*
X98857142Y-72059523D01*
X98714285Y-71964285D01*
X98523809Y-71916666D01*
X98142857Y-71916666D01*
X98047619Y-71964285D01*
X98000000Y-72011904D01*
X97952380Y-72107142D01*
X97952380Y-72297619D01*
X98000000Y-72392857D01*
X98047619Y-72440476D01*
X98142857Y-72488095D01*
X98380952Y-72488095D01*
X98476190Y-72440476D01*
X98523809Y-72392857D01*
X98571428Y-72297619D01*
X98571428Y-72107142D01*
X98523809Y-72011904D01*
X98476190Y-71964285D01*
X98380952Y-71916666D01*
X97952380Y-71297619D02*
X97952380Y-71202380D01*
X98000000Y-71107142D01*
X98047619Y-71059523D01*
X98142857Y-71011904D01*
X98333333Y-70964285D01*
X98571428Y-70964285D01*
X98761904Y-71011904D01*
X98857142Y-71059523D01*
X98904761Y-71107142D01*
X98952380Y-71202380D01*
X98952380Y-71297619D01*
X98904761Y-71392857D01*
X98857142Y-71440476D01*
X98761904Y-71488095D01*
X98571428Y-71535714D01*
X98333333Y-71535714D01*
X98142857Y-71488095D01*
X98047619Y-71440476D01*
X98000000Y-71392857D01*
X97952380Y-71297619D01*
X97952380Y-70630952D02*
X97952380Y-70011904D01*
X98333333Y-70345238D01*
X98333333Y-70202380D01*
X98380952Y-70107142D01*
X98428571Y-70059523D01*
X98523809Y-70011904D01*
X98761904Y-70011904D01*
X98857142Y-70059523D01*
X98904761Y-70107142D01*
X98952380Y-70202380D01*
X98952380Y-70488095D01*
X98904761Y-70583333D01*
X98857142Y-70630952D01*
X120332380Y-59329047D02*
X119856190Y-59662380D01*
X120332380Y-59900476D02*
X119332380Y-59900476D01*
X119332380Y-59519523D01*
X119380000Y-59424285D01*
X119427619Y-59376666D01*
X119522857Y-59329047D01*
X119665714Y-59329047D01*
X119760952Y-59376666D01*
X119808571Y-59424285D01*
X119856190Y-59519523D01*
X119856190Y-59900476D01*
X120332380Y-58852857D02*
X120332380Y-58662380D01*
X120284761Y-58567142D01*
X120237142Y-58519523D01*
X120094285Y-58424285D01*
X119903809Y-58376666D01*
X119522857Y-58376666D01*
X119427619Y-58424285D01*
X119380000Y-58471904D01*
X119332380Y-58567142D01*
X119332380Y-58757619D01*
X119380000Y-58852857D01*
X119427619Y-58900476D01*
X119522857Y-58948095D01*
X119760952Y-58948095D01*
X119856190Y-58900476D01*
X119903809Y-58852857D01*
X119951428Y-58757619D01*
X119951428Y-58567142D01*
X119903809Y-58471904D01*
X119856190Y-58424285D01*
X119760952Y-58376666D01*
X119665714Y-57519523D02*
X120332380Y-57519523D01*
X119284761Y-57757619D02*
X119999047Y-57995714D01*
X119999047Y-57376666D01*
X120332380Y-56471904D02*
X120332380Y-57043333D01*
X120332380Y-56757619D02*
X119332380Y-56757619D01*
X119475238Y-56852857D01*
X119570476Y-56948095D01*
X119618095Y-57043333D01*
X111185952Y-78072380D02*
X110852619Y-77596190D01*
X110614523Y-78072380D02*
X110614523Y-77072380D01*
X110995476Y-77072380D01*
X111090714Y-77120000D01*
X111138333Y-77167619D01*
X111185952Y-77262857D01*
X111185952Y-77405714D01*
X111138333Y-77500952D01*
X111090714Y-77548571D01*
X110995476Y-77596190D01*
X110614523Y-77596190D01*
X111662142Y-78072380D02*
X111852619Y-78072380D01*
X111947857Y-78024761D01*
X111995476Y-77977142D01*
X112090714Y-77834285D01*
X112138333Y-77643809D01*
X112138333Y-77262857D01*
X112090714Y-77167619D01*
X112043095Y-77120000D01*
X111947857Y-77072380D01*
X111757380Y-77072380D01*
X111662142Y-77120000D01*
X111614523Y-77167619D01*
X111566904Y-77262857D01*
X111566904Y-77500952D01*
X111614523Y-77596190D01*
X111662142Y-77643809D01*
X111757380Y-77691428D01*
X111947857Y-77691428D01*
X112043095Y-77643809D01*
X112090714Y-77596190D01*
X112138333Y-77500952D01*
X112757380Y-77072380D02*
X112852619Y-77072380D01*
X112947857Y-77120000D01*
X112995476Y-77167619D01*
X113043095Y-77262857D01*
X113090714Y-77453333D01*
X113090714Y-77691428D01*
X113043095Y-77881904D01*
X112995476Y-77977142D01*
X112947857Y-78024761D01*
X112852619Y-78072380D01*
X112757380Y-78072380D01*
X112662142Y-78024761D01*
X112614523Y-77977142D01*
X112566904Y-77881904D01*
X112519285Y-77691428D01*
X112519285Y-77453333D01*
X112566904Y-77262857D01*
X112614523Y-77167619D01*
X112662142Y-77120000D01*
X112757380Y-77072380D01*
X113424047Y-77072380D02*
X114090714Y-77072380D01*
X113662142Y-78072380D01*
X65607142Y-69369047D02*
X65654761Y-69416666D01*
X65702380Y-69559523D01*
X65702380Y-69654761D01*
X65654761Y-69797619D01*
X65559523Y-69892857D01*
X65464285Y-69940476D01*
X65273809Y-69988095D01*
X65130952Y-69988095D01*
X64940476Y-69940476D01*
X64845238Y-69892857D01*
X64750000Y-69797619D01*
X64702380Y-69654761D01*
X64702380Y-69559523D01*
X64750000Y-69416666D01*
X64797619Y-69369047D01*
X65702380Y-68892857D02*
X65702380Y-68702380D01*
X65654761Y-68607142D01*
X65607142Y-68559523D01*
X65464285Y-68464285D01*
X65273809Y-68416666D01*
X64892857Y-68416666D01*
X64797619Y-68464285D01*
X64750000Y-68511904D01*
X64702380Y-68607142D01*
X64702380Y-68797619D01*
X64750000Y-68892857D01*
X64797619Y-68940476D01*
X64892857Y-68988095D01*
X65130952Y-68988095D01*
X65226190Y-68940476D01*
X65273809Y-68892857D01*
X65321428Y-68797619D01*
X65321428Y-68607142D01*
X65273809Y-68511904D01*
X65226190Y-68464285D01*
X65130952Y-68416666D01*
X64797619Y-68035714D02*
X64750000Y-67988095D01*
X64702380Y-67892857D01*
X64702380Y-67654761D01*
X64750000Y-67559523D01*
X64797619Y-67511904D01*
X64892857Y-67464285D01*
X64988095Y-67464285D01*
X65130952Y-67511904D01*
X65702380Y-68083333D01*
X65702380Y-67464285D01*
X64702380Y-66607142D02*
X64702380Y-66797619D01*
X64750000Y-66892857D01*
X64797619Y-66940476D01*
X64940476Y-67035714D01*
X65130952Y-67083333D01*
X65511904Y-67083333D01*
X65607142Y-67035714D01*
X65654761Y-66988095D01*
X65702380Y-66892857D01*
X65702380Y-66702380D01*
X65654761Y-66607142D01*
X65607142Y-66559523D01*
X65511904Y-66511904D01*
X65273809Y-66511904D01*
X65178571Y-66559523D01*
X65130952Y-66607142D01*
X65083333Y-66702380D01*
X65083333Y-66892857D01*
X65130952Y-66988095D01*
X65178571Y-67035714D01*
X65273809Y-67083333D01*
X62630952Y-46857142D02*
X62583333Y-46904761D01*
X62440476Y-46952380D01*
X62345238Y-46952380D01*
X62202380Y-46904761D01*
X62107142Y-46809523D01*
X62059523Y-46714285D01*
X62011904Y-46523809D01*
X62011904Y-46380952D01*
X62059523Y-46190476D01*
X62107142Y-46095238D01*
X62202380Y-46000000D01*
X62345238Y-45952380D01*
X62440476Y-45952380D01*
X62583333Y-46000000D01*
X62630952Y-46047619D01*
X63107142Y-46952380D02*
X63297619Y-46952380D01*
X63392857Y-46904761D01*
X63440476Y-46857142D01*
X63535714Y-46714285D01*
X63583333Y-46523809D01*
X63583333Y-46142857D01*
X63535714Y-46047619D01*
X63488095Y-46000000D01*
X63392857Y-45952380D01*
X63202380Y-45952380D01*
X63107142Y-46000000D01*
X63059523Y-46047619D01*
X63011904Y-46142857D01*
X63011904Y-46380952D01*
X63059523Y-46476190D01*
X63107142Y-46523809D01*
X63202380Y-46571428D01*
X63392857Y-46571428D01*
X63488095Y-46523809D01*
X63535714Y-46476190D01*
X63583333Y-46380952D01*
X63964285Y-46047619D02*
X64011904Y-46000000D01*
X64107142Y-45952380D01*
X64345238Y-45952380D01*
X64440476Y-46000000D01*
X64488095Y-46047619D01*
X64535714Y-46142857D01*
X64535714Y-46238095D01*
X64488095Y-46380952D01*
X63916666Y-46952380D01*
X64535714Y-46952380D01*
X64869047Y-45952380D02*
X65488095Y-45952380D01*
X65154761Y-46333333D01*
X65297619Y-46333333D01*
X65392857Y-46380952D01*
X65440476Y-46428571D01*
X65488095Y-46523809D01*
X65488095Y-46761904D01*
X65440476Y-46857142D01*
X65392857Y-46904761D01*
X65297619Y-46952380D01*
X65011904Y-46952380D01*
X64916666Y-46904761D01*
X64869047Y-46857142D01*
X98607142Y-83899047D02*
X98654761Y-83946666D01*
X98702380Y-84089523D01*
X98702380Y-84184761D01*
X98654761Y-84327619D01*
X98559523Y-84422857D01*
X98464285Y-84470476D01*
X98273809Y-84518095D01*
X98130952Y-84518095D01*
X97940476Y-84470476D01*
X97845238Y-84422857D01*
X97750000Y-84327619D01*
X97702380Y-84184761D01*
X97702380Y-84089523D01*
X97750000Y-83946666D01*
X97797619Y-83899047D01*
X98702380Y-83422857D02*
X98702380Y-83232380D01*
X98654761Y-83137142D01*
X98607142Y-83089523D01*
X98464285Y-82994285D01*
X98273809Y-82946666D01*
X97892857Y-82946666D01*
X97797619Y-82994285D01*
X97750000Y-83041904D01*
X97702380Y-83137142D01*
X97702380Y-83327619D01*
X97750000Y-83422857D01*
X97797619Y-83470476D01*
X97892857Y-83518095D01*
X98130952Y-83518095D01*
X98226190Y-83470476D01*
X98273809Y-83422857D01*
X98321428Y-83327619D01*
X98321428Y-83137142D01*
X98273809Y-83041904D01*
X98226190Y-82994285D01*
X98130952Y-82946666D01*
X97702380Y-82327619D02*
X97702380Y-82232380D01*
X97750000Y-82137142D01*
X97797619Y-82089523D01*
X97892857Y-82041904D01*
X98083333Y-81994285D01*
X98321428Y-81994285D01*
X98511904Y-82041904D01*
X98607142Y-82089523D01*
X98654761Y-82137142D01*
X98702380Y-82232380D01*
X98702380Y-82327619D01*
X98654761Y-82422857D01*
X98607142Y-82470476D01*
X98511904Y-82518095D01*
X98321428Y-82565714D01*
X98083333Y-82565714D01*
X97892857Y-82518095D01*
X97797619Y-82470476D01*
X97750000Y-82422857D01*
X97702380Y-82327619D01*
X97702380Y-81137142D02*
X97702380Y-81327619D01*
X97750000Y-81422857D01*
X97797619Y-81470476D01*
X97940476Y-81565714D01*
X98130952Y-81613333D01*
X98511904Y-81613333D01*
X98607142Y-81565714D01*
X98654761Y-81518095D01*
X98702380Y-81422857D01*
X98702380Y-81232380D01*
X98654761Y-81137142D01*
X98607142Y-81089523D01*
X98511904Y-81041904D01*
X98273809Y-81041904D01*
X98178571Y-81089523D01*
X98130952Y-81137142D01*
X98083333Y-81232380D01*
X98083333Y-81422857D01*
X98130952Y-81518095D01*
X98178571Y-81565714D01*
X98273809Y-81613333D01*
X111185952Y-67572380D02*
X110852619Y-67096190D01*
X110614523Y-67572380D02*
X110614523Y-66572380D01*
X110995476Y-66572380D01*
X111090714Y-66620000D01*
X111138333Y-66667619D01*
X111185952Y-66762857D01*
X111185952Y-66905714D01*
X111138333Y-67000952D01*
X111090714Y-67048571D01*
X110995476Y-67096190D01*
X110614523Y-67096190D01*
X111662142Y-67572380D02*
X111852619Y-67572380D01*
X111947857Y-67524761D01*
X111995476Y-67477142D01*
X112090714Y-67334285D01*
X112138333Y-67143809D01*
X112138333Y-66762857D01*
X112090714Y-66667619D01*
X112043095Y-66620000D01*
X111947857Y-66572380D01*
X111757380Y-66572380D01*
X111662142Y-66620000D01*
X111614523Y-66667619D01*
X111566904Y-66762857D01*
X111566904Y-67000952D01*
X111614523Y-67096190D01*
X111662142Y-67143809D01*
X111757380Y-67191428D01*
X111947857Y-67191428D01*
X112043095Y-67143809D01*
X112090714Y-67096190D01*
X112138333Y-67000952D01*
X112757380Y-66572380D02*
X112852619Y-66572380D01*
X112947857Y-66620000D01*
X112995476Y-66667619D01*
X113043095Y-66762857D01*
X113090714Y-66953333D01*
X113090714Y-67191428D01*
X113043095Y-67381904D01*
X112995476Y-67477142D01*
X112947857Y-67524761D01*
X112852619Y-67572380D01*
X112757380Y-67572380D01*
X112662142Y-67524761D01*
X112614523Y-67477142D01*
X112566904Y-67381904D01*
X112519285Y-67191428D01*
X112519285Y-66953333D01*
X112566904Y-66762857D01*
X112614523Y-66667619D01*
X112662142Y-66620000D01*
X112757380Y-66572380D01*
X113947857Y-66905714D02*
X113947857Y-67572380D01*
X113709761Y-66524761D02*
X113471666Y-67239047D01*
X114090714Y-67239047D01*
X60107142Y-91869047D02*
X60154761Y-91916666D01*
X60202380Y-92059523D01*
X60202380Y-92154761D01*
X60154761Y-92297619D01*
X60059523Y-92392857D01*
X59964285Y-92440476D01*
X59773809Y-92488095D01*
X59630952Y-92488095D01*
X59440476Y-92440476D01*
X59345238Y-92392857D01*
X59250000Y-92297619D01*
X59202380Y-92154761D01*
X59202380Y-92059523D01*
X59250000Y-91916666D01*
X59297619Y-91869047D01*
X60202380Y-91392857D02*
X60202380Y-91202380D01*
X60154761Y-91107142D01*
X60107142Y-91059523D01*
X59964285Y-90964285D01*
X59773809Y-90916666D01*
X59392857Y-90916666D01*
X59297619Y-90964285D01*
X59250000Y-91011904D01*
X59202380Y-91107142D01*
X59202380Y-91297619D01*
X59250000Y-91392857D01*
X59297619Y-91440476D01*
X59392857Y-91488095D01*
X59630952Y-91488095D01*
X59726190Y-91440476D01*
X59773809Y-91392857D01*
X59821428Y-91297619D01*
X59821428Y-91107142D01*
X59773809Y-91011904D01*
X59726190Y-90964285D01*
X59630952Y-90916666D01*
X59202380Y-90583333D02*
X59202380Y-89964285D01*
X59583333Y-90297619D01*
X59583333Y-90154761D01*
X59630952Y-90059523D01*
X59678571Y-90011904D01*
X59773809Y-89964285D01*
X60011904Y-89964285D01*
X60107142Y-90011904D01*
X60154761Y-90059523D01*
X60202380Y-90154761D01*
X60202380Y-90440476D01*
X60154761Y-90535714D01*
X60107142Y-90583333D01*
X60202380Y-89011904D02*
X60202380Y-89583333D01*
X60202380Y-89297619D02*
X59202380Y-89297619D01*
X59345238Y-89392857D01*
X59440476Y-89488095D01*
X59488095Y-89583333D01*
X112012380Y-59914285D02*
X112012380Y-59342857D01*
X113012380Y-59628571D02*
X112012380Y-59628571D01*
X113012380Y-58961904D02*
X113012380Y-58771428D01*
X112964761Y-58676190D01*
X112917142Y-58628571D01*
X112774285Y-58533333D01*
X112583809Y-58485714D01*
X112202857Y-58485714D01*
X112107619Y-58533333D01*
X112060000Y-58580952D01*
X112012380Y-58676190D01*
X112012380Y-58866666D01*
X112060000Y-58961904D01*
X112107619Y-59009523D01*
X112202857Y-59057142D01*
X112440952Y-59057142D01*
X112536190Y-59009523D01*
X112583809Y-58961904D01*
X112631428Y-58866666D01*
X112631428Y-58676190D01*
X112583809Y-58580952D01*
X112536190Y-58533333D01*
X112440952Y-58485714D01*
X112345714Y-57628571D02*
X113012380Y-57628571D01*
X111964761Y-57866666D02*
X112679047Y-58104761D01*
X112679047Y-57485714D01*
X113012380Y-56580952D02*
X113012380Y-57152380D01*
X113012380Y-56866666D02*
X112012380Y-56866666D01*
X112155238Y-56961904D01*
X112250476Y-57057142D01*
X112298095Y-57152380D01*
X118590952Y-93572380D02*
X118257619Y-93096190D01*
X118019523Y-93572380D02*
X118019523Y-92572380D01*
X118400476Y-92572380D01*
X118495714Y-92620000D01*
X118543333Y-92667619D01*
X118590952Y-92762857D01*
X118590952Y-92905714D01*
X118543333Y-93000952D01*
X118495714Y-93048571D01*
X118400476Y-93096190D01*
X118019523Y-93096190D01*
X119067142Y-93572380D02*
X119257619Y-93572380D01*
X119352857Y-93524761D01*
X119400476Y-93477142D01*
X119495714Y-93334285D01*
X119543333Y-93143809D01*
X119543333Y-92762857D01*
X119495714Y-92667619D01*
X119448095Y-92620000D01*
X119352857Y-92572380D01*
X119162380Y-92572380D01*
X119067142Y-92620000D01*
X119019523Y-92667619D01*
X118971904Y-92762857D01*
X118971904Y-93000952D01*
X119019523Y-93096190D01*
X119067142Y-93143809D01*
X119162380Y-93191428D01*
X119352857Y-93191428D01*
X119448095Y-93143809D01*
X119495714Y-93096190D01*
X119543333Y-93000952D01*
X120448095Y-92572380D02*
X119971904Y-92572380D01*
X119924285Y-93048571D01*
X119971904Y-93000952D01*
X120067142Y-92953333D01*
X120305238Y-92953333D01*
X120400476Y-93000952D01*
X120448095Y-93048571D01*
X120495714Y-93143809D01*
X120495714Y-93381904D01*
X120448095Y-93477142D01*
X120400476Y-93524761D01*
X120305238Y-93572380D01*
X120067142Y-93572380D01*
X119971904Y-93524761D01*
X119924285Y-93477142D01*
X121448095Y-93572380D02*
X120876666Y-93572380D01*
X121162380Y-93572380D02*
X121162380Y-92572380D01*
X121067142Y-92715238D01*
X120971904Y-92810476D01*
X120876666Y-92858095D01*
X96857142Y-59369047D02*
X96904761Y-59416666D01*
X96952380Y-59559523D01*
X96952380Y-59654761D01*
X96904761Y-59797619D01*
X96809523Y-59892857D01*
X96714285Y-59940476D01*
X96523809Y-59988095D01*
X96380952Y-59988095D01*
X96190476Y-59940476D01*
X96095238Y-59892857D01*
X96000000Y-59797619D01*
X95952380Y-59654761D01*
X95952380Y-59559523D01*
X96000000Y-59416666D01*
X96047619Y-59369047D01*
X96952380Y-58892857D02*
X96952380Y-58702380D01*
X96904761Y-58607142D01*
X96857142Y-58559523D01*
X96714285Y-58464285D01*
X96523809Y-58416666D01*
X96142857Y-58416666D01*
X96047619Y-58464285D01*
X96000000Y-58511904D01*
X95952380Y-58607142D01*
X95952380Y-58797619D01*
X96000000Y-58892857D01*
X96047619Y-58940476D01*
X96142857Y-58988095D01*
X96380952Y-58988095D01*
X96476190Y-58940476D01*
X96523809Y-58892857D01*
X96571428Y-58797619D01*
X96571428Y-58607142D01*
X96523809Y-58511904D01*
X96476190Y-58464285D01*
X96380952Y-58416666D01*
X95952380Y-57797619D02*
X95952380Y-57702380D01*
X96000000Y-57607142D01*
X96047619Y-57559523D01*
X96142857Y-57511904D01*
X96333333Y-57464285D01*
X96571428Y-57464285D01*
X96761904Y-57511904D01*
X96857142Y-57559523D01*
X96904761Y-57607142D01*
X96952380Y-57702380D01*
X96952380Y-57797619D01*
X96904761Y-57892857D01*
X96857142Y-57940476D01*
X96761904Y-57988095D01*
X96571428Y-58035714D01*
X96333333Y-58035714D01*
X96142857Y-57988095D01*
X96047619Y-57940476D01*
X96000000Y-57892857D01*
X95952380Y-57797619D01*
X96952380Y-56511904D02*
X96952380Y-57083333D01*
X96952380Y-56797619D02*
X95952380Y-56797619D01*
X96095238Y-56892857D01*
X96190476Y-56988095D01*
X96238095Y-57083333D01*
X86822380Y-80049047D02*
X86346190Y-80382380D01*
X86822380Y-80620476D02*
X85822380Y-80620476D01*
X85822380Y-80239523D01*
X85870000Y-80144285D01*
X85917619Y-80096666D01*
X86012857Y-80049047D01*
X86155714Y-80049047D01*
X86250952Y-80096666D01*
X86298571Y-80144285D01*
X86346190Y-80239523D01*
X86346190Y-80620476D01*
X86822380Y-79572857D02*
X86822380Y-79382380D01*
X86774761Y-79287142D01*
X86727142Y-79239523D01*
X86584285Y-79144285D01*
X86393809Y-79096666D01*
X86012857Y-79096666D01*
X85917619Y-79144285D01*
X85870000Y-79191904D01*
X85822380Y-79287142D01*
X85822380Y-79477619D01*
X85870000Y-79572857D01*
X85917619Y-79620476D01*
X86012857Y-79668095D01*
X86250952Y-79668095D01*
X86346190Y-79620476D01*
X86393809Y-79572857D01*
X86441428Y-79477619D01*
X86441428Y-79287142D01*
X86393809Y-79191904D01*
X86346190Y-79144285D01*
X86250952Y-79096666D01*
X86822380Y-78144285D02*
X86822380Y-78715714D01*
X86822380Y-78430000D02*
X85822380Y-78430000D01*
X85965238Y-78525238D01*
X86060476Y-78620476D01*
X86108095Y-78715714D01*
X85917619Y-77763333D02*
X85870000Y-77715714D01*
X85822380Y-77620476D01*
X85822380Y-77382380D01*
X85870000Y-77287142D01*
X85917619Y-77239523D01*
X86012857Y-77191904D01*
X86108095Y-77191904D01*
X86250952Y-77239523D01*
X86822380Y-77810952D01*
X86822380Y-77191904D01*
X116202380Y-72714285D02*
X116202380Y-72142857D01*
X117202380Y-72428571D02*
X116202380Y-72428571D01*
X117202380Y-71761904D02*
X117202380Y-71571428D01*
X117154761Y-71476190D01*
X117107142Y-71428571D01*
X116964285Y-71333333D01*
X116773809Y-71285714D01*
X116392857Y-71285714D01*
X116297619Y-71333333D01*
X116250000Y-71380952D01*
X116202380Y-71476190D01*
X116202380Y-71666666D01*
X116250000Y-71761904D01*
X116297619Y-71809523D01*
X116392857Y-71857142D01*
X116630952Y-71857142D01*
X116726190Y-71809523D01*
X116773809Y-71761904D01*
X116821428Y-71666666D01*
X116821428Y-71476190D01*
X116773809Y-71380952D01*
X116726190Y-71333333D01*
X116630952Y-71285714D01*
X116202380Y-70666666D02*
X116202380Y-70571428D01*
X116250000Y-70476190D01*
X116297619Y-70428571D01*
X116392857Y-70380952D01*
X116583333Y-70333333D01*
X116821428Y-70333333D01*
X117011904Y-70380952D01*
X117107142Y-70428571D01*
X117154761Y-70476190D01*
X117202380Y-70571428D01*
X117202380Y-70666666D01*
X117154761Y-70761904D01*
X117107142Y-70809523D01*
X117011904Y-70857142D01*
X116821428Y-70904761D01*
X116583333Y-70904761D01*
X116392857Y-70857142D01*
X116297619Y-70809523D01*
X116250000Y-70761904D01*
X116202380Y-70666666D01*
X116535714Y-69476190D02*
X117202380Y-69476190D01*
X116154761Y-69714285D02*
X116869047Y-69952380D01*
X116869047Y-69333333D01*
X102082380Y-59329047D02*
X101606190Y-59662380D01*
X102082380Y-59900476D02*
X101082380Y-59900476D01*
X101082380Y-59519523D01*
X101130000Y-59424285D01*
X101177619Y-59376666D01*
X101272857Y-59329047D01*
X101415714Y-59329047D01*
X101510952Y-59376666D01*
X101558571Y-59424285D01*
X101606190Y-59519523D01*
X101606190Y-59900476D01*
X102082380Y-58852857D02*
X102082380Y-58662380D01*
X102034761Y-58567142D01*
X101987142Y-58519523D01*
X101844285Y-58424285D01*
X101653809Y-58376666D01*
X101272857Y-58376666D01*
X101177619Y-58424285D01*
X101130000Y-58471904D01*
X101082380Y-58567142D01*
X101082380Y-58757619D01*
X101130000Y-58852857D01*
X101177619Y-58900476D01*
X101272857Y-58948095D01*
X101510952Y-58948095D01*
X101606190Y-58900476D01*
X101653809Y-58852857D01*
X101701428Y-58757619D01*
X101701428Y-58567142D01*
X101653809Y-58471904D01*
X101606190Y-58424285D01*
X101510952Y-58376666D01*
X101082380Y-57757619D02*
X101082380Y-57662380D01*
X101130000Y-57567142D01*
X101177619Y-57519523D01*
X101272857Y-57471904D01*
X101463333Y-57424285D01*
X101701428Y-57424285D01*
X101891904Y-57471904D01*
X101987142Y-57519523D01*
X102034761Y-57567142D01*
X102082380Y-57662380D01*
X102082380Y-57757619D01*
X102034761Y-57852857D01*
X101987142Y-57900476D01*
X101891904Y-57948095D01*
X101701428Y-57995714D01*
X101463333Y-57995714D01*
X101272857Y-57948095D01*
X101177619Y-57900476D01*
X101130000Y-57852857D01*
X101082380Y-57757619D01*
X102082380Y-56471904D02*
X102082380Y-57043333D01*
X102082380Y-56757619D02*
X101082380Y-56757619D01*
X101225238Y-56852857D01*
X101320476Y-56948095D01*
X101368095Y-57043333D01*
X71590952Y-48332380D02*
X71257619Y-47856190D01*
X71019523Y-48332380D02*
X71019523Y-47332380D01*
X71400476Y-47332380D01*
X71495714Y-47380000D01*
X71543333Y-47427619D01*
X71590952Y-47522857D01*
X71590952Y-47665714D01*
X71543333Y-47760952D01*
X71495714Y-47808571D01*
X71400476Y-47856190D01*
X71019523Y-47856190D01*
X72067142Y-48332380D02*
X72257619Y-48332380D01*
X72352857Y-48284761D01*
X72400476Y-48237142D01*
X72495714Y-48094285D01*
X72543333Y-47903809D01*
X72543333Y-47522857D01*
X72495714Y-47427619D01*
X72448095Y-47380000D01*
X72352857Y-47332380D01*
X72162380Y-47332380D01*
X72067142Y-47380000D01*
X72019523Y-47427619D01*
X71971904Y-47522857D01*
X71971904Y-47760952D01*
X72019523Y-47856190D01*
X72067142Y-47903809D01*
X72162380Y-47951428D01*
X72352857Y-47951428D01*
X72448095Y-47903809D01*
X72495714Y-47856190D01*
X72543333Y-47760952D01*
X72924285Y-47427619D02*
X72971904Y-47380000D01*
X73067142Y-47332380D01*
X73305238Y-47332380D01*
X73400476Y-47380000D01*
X73448095Y-47427619D01*
X73495714Y-47522857D01*
X73495714Y-47618095D01*
X73448095Y-47760952D01*
X72876666Y-48332380D01*
X73495714Y-48332380D01*
X73829047Y-47332380D02*
X74448095Y-47332380D01*
X74114761Y-47713333D01*
X74257619Y-47713333D01*
X74352857Y-47760952D01*
X74400476Y-47808571D01*
X74448095Y-47903809D01*
X74448095Y-48141904D01*
X74400476Y-48237142D01*
X74352857Y-48284761D01*
X74257619Y-48332380D01*
X73971904Y-48332380D01*
X73876666Y-48284761D01*
X73829047Y-48237142D01*
X120107142Y-69369047D02*
X120154761Y-69416666D01*
X120202380Y-69559523D01*
X120202380Y-69654761D01*
X120154761Y-69797619D01*
X120059523Y-69892857D01*
X119964285Y-69940476D01*
X119773809Y-69988095D01*
X119630952Y-69988095D01*
X119440476Y-69940476D01*
X119345238Y-69892857D01*
X119250000Y-69797619D01*
X119202380Y-69654761D01*
X119202380Y-69559523D01*
X119250000Y-69416666D01*
X119297619Y-69369047D01*
X120202380Y-68892857D02*
X120202380Y-68702380D01*
X120154761Y-68607142D01*
X120107142Y-68559523D01*
X119964285Y-68464285D01*
X119773809Y-68416666D01*
X119392857Y-68416666D01*
X119297619Y-68464285D01*
X119250000Y-68511904D01*
X119202380Y-68607142D01*
X119202380Y-68797619D01*
X119250000Y-68892857D01*
X119297619Y-68940476D01*
X119392857Y-68988095D01*
X119630952Y-68988095D01*
X119726190Y-68940476D01*
X119773809Y-68892857D01*
X119821428Y-68797619D01*
X119821428Y-68607142D01*
X119773809Y-68511904D01*
X119726190Y-68464285D01*
X119630952Y-68416666D01*
X119535714Y-67559523D02*
X120202380Y-67559523D01*
X119154761Y-67797619D02*
X119869047Y-68035714D01*
X119869047Y-67416666D01*
X119202380Y-66607142D02*
X119202380Y-66797619D01*
X119250000Y-66892857D01*
X119297619Y-66940476D01*
X119440476Y-67035714D01*
X119630952Y-67083333D01*
X120011904Y-67083333D01*
X120107142Y-67035714D01*
X120154761Y-66988095D01*
X120202380Y-66892857D01*
X120202380Y-66702380D01*
X120154761Y-66607142D01*
X120107142Y-66559523D01*
X120011904Y-66511904D01*
X119773809Y-66511904D01*
X119678571Y-66559523D01*
X119630952Y-66607142D01*
X119583333Y-66702380D01*
X119583333Y-66892857D01*
X119630952Y-66988095D01*
X119678571Y-67035714D01*
X119773809Y-67083333D01*
X81357142Y-77369047D02*
X81404761Y-77416666D01*
X81452380Y-77559523D01*
X81452380Y-77654761D01*
X81404761Y-77797619D01*
X81309523Y-77892857D01*
X81214285Y-77940476D01*
X81023809Y-77988095D01*
X80880952Y-77988095D01*
X80690476Y-77940476D01*
X80595238Y-77892857D01*
X80500000Y-77797619D01*
X80452380Y-77654761D01*
X80452380Y-77559523D01*
X80500000Y-77416666D01*
X80547619Y-77369047D01*
X81452380Y-76892857D02*
X81452380Y-76702380D01*
X81404761Y-76607142D01*
X81357142Y-76559523D01*
X81214285Y-76464285D01*
X81023809Y-76416666D01*
X80642857Y-76416666D01*
X80547619Y-76464285D01*
X80500000Y-76511904D01*
X80452380Y-76607142D01*
X80452380Y-76797619D01*
X80500000Y-76892857D01*
X80547619Y-76940476D01*
X80642857Y-76988095D01*
X80880952Y-76988095D01*
X80976190Y-76940476D01*
X81023809Y-76892857D01*
X81071428Y-76797619D01*
X81071428Y-76607142D01*
X81023809Y-76511904D01*
X80976190Y-76464285D01*
X80880952Y-76416666D01*
X81452380Y-75464285D02*
X81452380Y-76035714D01*
X81452380Y-75750000D02*
X80452380Y-75750000D01*
X80595238Y-75845238D01*
X80690476Y-75940476D01*
X80738095Y-76035714D01*
X80547619Y-75083333D02*
X80500000Y-75035714D01*
X80452380Y-74940476D01*
X80452380Y-74702380D01*
X80500000Y-74607142D01*
X80547619Y-74559523D01*
X80642857Y-74511904D01*
X80738095Y-74511904D01*
X80880952Y-74559523D01*
X81452380Y-75130952D01*
X81452380Y-74511904D01*
X60107142Y-61869047D02*
X60154761Y-61916666D01*
X60202380Y-62059523D01*
X60202380Y-62154761D01*
X60154761Y-62297619D01*
X60059523Y-62392857D01*
X59964285Y-62440476D01*
X59773809Y-62488095D01*
X59630952Y-62488095D01*
X59440476Y-62440476D01*
X59345238Y-62392857D01*
X59250000Y-62297619D01*
X59202380Y-62154761D01*
X59202380Y-62059523D01*
X59250000Y-61916666D01*
X59297619Y-61869047D01*
X60202380Y-61392857D02*
X60202380Y-61202380D01*
X60154761Y-61107142D01*
X60107142Y-61059523D01*
X59964285Y-60964285D01*
X59773809Y-60916666D01*
X59392857Y-60916666D01*
X59297619Y-60964285D01*
X59250000Y-61011904D01*
X59202380Y-61107142D01*
X59202380Y-61297619D01*
X59250000Y-61392857D01*
X59297619Y-61440476D01*
X59392857Y-61488095D01*
X59630952Y-61488095D01*
X59726190Y-61440476D01*
X59773809Y-61392857D01*
X59821428Y-61297619D01*
X59821428Y-61107142D01*
X59773809Y-61011904D01*
X59726190Y-60964285D01*
X59630952Y-60916666D01*
X59297619Y-60535714D02*
X59250000Y-60488095D01*
X59202380Y-60392857D01*
X59202380Y-60154761D01*
X59250000Y-60059523D01*
X59297619Y-60011904D01*
X59392857Y-59964285D01*
X59488095Y-59964285D01*
X59630952Y-60011904D01*
X60202380Y-60583333D01*
X60202380Y-59964285D01*
X59535714Y-59107142D02*
X60202380Y-59107142D01*
X59154761Y-59345238D02*
X59869047Y-59583333D01*
X59869047Y-58964285D01*
D12*
X90880000Y-54530000D02*
X94120000Y-54530000D01*
X94120000Y-61970000D02*
X94120000Y-54530000D01*
X90880000Y-61970000D02*
X90880000Y-54530000D01*
X90880000Y-61970000D02*
X94120000Y-61970000D01*
X128750000Y-82795000D02*
X128750000Y-81385000D01*
X131120000Y-85165000D02*
G75*
G03*
X131120000Y-85165000I-2370000J0D01*
G01*
X128750000Y-67795000D02*
X128750000Y-66385000D01*
X131120000Y-70165000D02*
G75*
G03*
X131120000Y-70165000I-2370000J0D01*
G01*
X131120000Y-55165000D02*
G75*
G03*
X131120000Y-55165000I-2370000J0D01*
G01*
X128750000Y-52795000D02*
X128750000Y-51385000D01*
X50750000Y-83705000D02*
X50750000Y-85115000D01*
X53120000Y-81335000D02*
G75*
G03*
X53120000Y-81335000I-2370000J0D01*
G01*
X50750000Y-68705000D02*
X50750000Y-70115000D01*
X53120000Y-66335000D02*
G75*
G03*
X53120000Y-66335000I-2370000J0D01*
G01*
X50750000Y-53705000D02*
X50750000Y-55115000D01*
X53120000Y-51335000D02*
G75*
G03*
X53120000Y-51335000I-2370000J0D01*
G01*
X134250000Y-83705000D02*
X134250000Y-85115000D01*
X136620000Y-81335000D02*
G75*
G03*
X136620000Y-81335000I-2370000J0D01*
G01*
X56250000Y-82795000D02*
X56250000Y-81385000D01*
X58620000Y-85165000D02*
G75*
G03*
X58620000Y-85165000I-2370000J0D01*
G01*
X134250000Y-68705000D02*
X134250000Y-70115000D01*
X136620000Y-66335000D02*
G75*
G03*
X136620000Y-66335000I-2370000J0D01*
G01*
X56250000Y-67795000D02*
X56250000Y-66385000D01*
X58620000Y-70165000D02*
G75*
G03*
X58620000Y-70165000I-2370000J0D01*
G01*
X134250000Y-53705000D02*
X134250000Y-55115000D01*
X136620000Y-51335000D02*
G75*
G03*
X136620000Y-51335000I-2370000J0D01*
G01*
X56250000Y-52795000D02*
X56250000Y-51385000D01*
X58620000Y-55165000D02*
G75*
G03*
X58620000Y-55165000I-2370000J0D01*
G01*
D11*
X56500000Y-104750000D02*
X134000000Y-104750000D01*
X56500000Y-104750000D02*
X56500000Y-96750000D01*
X134000000Y-104750000D02*
X134000000Y-96750000D01*
X134000000Y-96750000D02*
X56500000Y-96750000D01*
D12*
X84000000Y-73750000D02*
X84000000Y-73680000D01*
X85370000Y-75120000D02*
G75*
G03*
X85370000Y-75120000I-1370000J0D01*
G01*
X108438629Y-80280000D02*
X105785000Y-80280000D01*
X111091371Y-80280000D02*
G75*
G03*
X111091371Y-80280000I-1326371J0D01*
G01*
X83970000Y-70470000D02*
X83970000Y-63030000D01*
X76530000Y-70470000D02*
X83970000Y-70470000D01*
X76530000Y-70470000D02*
X76530000Y-63030000D01*
X76530000Y-63030000D02*
X83970000Y-63030000D01*
X64120000Y-90750000D02*
X66730000Y-90750000D01*
X64120000Y-90750000D02*
G75*
G03*
X64120000Y-90750000I-1370000J0D01*
G01*
X86000000Y-59380000D02*
X86000000Y-56770000D01*
X87370000Y-60750000D02*
G75*
G03*
X87370000Y-60750000I-1370000J0D01*
G01*
X70380000Y-71130000D02*
X73620000Y-71130000D01*
X70380000Y-81370000D02*
X70380000Y-71130000D01*
X73620000Y-81370000D02*
X73620000Y-71130000D01*
X70380000Y-81370000D02*
X73620000Y-81370000D01*
X75250000Y-59380000D02*
X75250000Y-56770000D01*
X76620000Y-60750000D02*
G75*
G03*
X76620000Y-60750000I-1370000J0D01*
G01*
X113460000Y-50250000D02*
X110850000Y-50250000D01*
X116200000Y-50250000D02*
G75*
G03*
X116200000Y-50250000I-1370000J0D01*
G01*
X112923629Y-90750000D02*
X110270000Y-90750000D01*
X115576371Y-90750000D02*
G75*
G03*
X115576371Y-90750000I-1326371J0D01*
G01*
X104923629Y-90750000D02*
X102270000Y-90750000D01*
X107576371Y-90750000D02*
G75*
G03*
X107576371Y-90750000I-1326371J0D01*
G01*
X122011000Y-51290000D02*
X122011000Y-52718000D01*
X123211000Y-51290000D02*
X123211000Y-51949000D01*
X123571000Y-49072000D02*
X123571000Y-51428000D01*
X121610000Y-47694000D02*
X121610000Y-49210000D01*
X123491000Y-48931000D02*
X123491000Y-51569000D01*
X122291000Y-47885000D02*
X122291000Y-49210000D01*
X121290000Y-51290000D02*
X121290000Y-52830000D01*
X122011000Y-47782000D02*
X122011000Y-49210000D01*
X121570000Y-47689000D02*
X121570000Y-49210000D01*
X122651000Y-51290000D02*
X122651000Y-52425000D01*
X122931000Y-48279000D02*
X122931000Y-49210000D01*
X121930000Y-47759000D02*
X121930000Y-49210000D01*
X122411000Y-47940000D02*
X122411000Y-49210000D01*
X122851000Y-48215000D02*
X122851000Y-49210000D01*
X122731000Y-48128000D02*
X122731000Y-49210000D01*
X121450000Y-51290000D02*
X121450000Y-52823000D01*
X118695225Y-48525000D02*
X118695225Y-49025000D01*
X123371000Y-48750000D02*
X123371000Y-51750000D01*
X121850000Y-47739000D02*
X121850000Y-49210000D01*
X123531000Y-48999000D02*
X123531000Y-51501000D01*
X121370000Y-51290000D02*
X121370000Y-52828000D01*
X123691000Y-49335000D02*
X123691000Y-51165000D01*
X121730000Y-51290000D02*
X121730000Y-52786000D01*
X121890000Y-47749000D02*
X121890000Y-49210000D01*
X123811000Y-49732000D02*
X123811000Y-50768000D01*
X121971000Y-47770000D02*
X121971000Y-49210000D01*
X122931000Y-51290000D02*
X122931000Y-52221000D01*
X122171000Y-47836000D02*
X122171000Y-49210000D01*
X122771000Y-48155000D02*
X122771000Y-49210000D01*
X122491000Y-47982000D02*
X122491000Y-49210000D01*
X123091000Y-51290000D02*
X123091000Y-52076000D01*
X121290000Y-47670000D02*
X121290000Y-49210000D01*
X121530000Y-47685000D02*
X121530000Y-49210000D01*
X121410000Y-51290000D02*
X121410000Y-52826000D01*
X122651000Y-48075000D02*
X122651000Y-49210000D01*
X122371000Y-47921000D02*
X122371000Y-49210000D01*
X123131000Y-51290000D02*
X123131000Y-52035000D01*
X122611000Y-51290000D02*
X122611000Y-52450000D01*
X123251000Y-51290000D02*
X123251000Y-51903000D01*
X123051000Y-51290000D02*
X123051000Y-52114000D01*
X123451000Y-48867000D02*
X123451000Y-51633000D01*
X123851000Y-49966000D02*
X123851000Y-50534000D01*
X123731000Y-49445000D02*
X123731000Y-51055000D01*
X122371000Y-51290000D02*
X122371000Y-52579000D01*
X121650000Y-47700000D02*
X121650000Y-49210000D01*
X122051000Y-51290000D02*
X122051000Y-52705000D01*
X121250000Y-51290000D02*
X121250000Y-52830000D01*
X122451000Y-47960000D02*
X122451000Y-49210000D01*
X123411000Y-48807000D02*
X123411000Y-51693000D01*
X123651000Y-49239000D02*
X123651000Y-51261000D01*
X123011000Y-48349000D02*
X123011000Y-49210000D01*
X121490000Y-47681000D02*
X121490000Y-49210000D01*
X121770000Y-51290000D02*
X121770000Y-52778000D01*
X122291000Y-51290000D02*
X122291000Y-52615000D01*
X123171000Y-48507000D02*
X123171000Y-49210000D01*
X122971000Y-48313000D02*
X122971000Y-49210000D01*
X123771000Y-49573000D02*
X123771000Y-50927000D01*
X121650000Y-51290000D02*
X121650000Y-52800000D01*
X123171000Y-51290000D02*
X123171000Y-51993000D01*
X121690000Y-51290000D02*
X121690000Y-52793000D01*
X122571000Y-51290000D02*
X122571000Y-52474000D01*
X123091000Y-48424000D02*
X123091000Y-49210000D01*
X122531000Y-48003000D02*
X122531000Y-49210000D01*
X122771000Y-51290000D02*
X122771000Y-52345000D01*
X121410000Y-47674000D02*
X121410000Y-49210000D01*
X121250000Y-47670000D02*
X121250000Y-49210000D01*
X121971000Y-51290000D02*
X121971000Y-52730000D01*
X123051000Y-48386000D02*
X123051000Y-49210000D01*
X121810000Y-47730000D02*
X121810000Y-49210000D01*
X122451000Y-51290000D02*
X122451000Y-52540000D01*
X121810000Y-51290000D02*
X121810000Y-52770000D01*
X121690000Y-47707000D02*
X121690000Y-49210000D01*
X121450000Y-47677000D02*
X121450000Y-49210000D01*
X122211000Y-51290000D02*
X122211000Y-52648000D01*
X121930000Y-51290000D02*
X121930000Y-52741000D01*
X122411000Y-51290000D02*
X122411000Y-52560000D01*
X122691000Y-48101000D02*
X122691000Y-49210000D01*
X121850000Y-51290000D02*
X121850000Y-52761000D01*
X122091000Y-47808000D02*
X122091000Y-49210000D01*
X121370000Y-47672000D02*
X121370000Y-49210000D01*
X122811000Y-51290000D02*
X122811000Y-52315000D01*
X121330000Y-47671000D02*
X121330000Y-49210000D01*
X123211000Y-48551000D02*
X123211000Y-49210000D01*
X122131000Y-51290000D02*
X122131000Y-52678000D01*
X122811000Y-48185000D02*
X122811000Y-49210000D01*
X122971000Y-51290000D02*
X122971000Y-52187000D01*
X122891000Y-48246000D02*
X122891000Y-49210000D01*
X121530000Y-51290000D02*
X121530000Y-52815000D01*
X122251000Y-51290000D02*
X122251000Y-52632000D01*
X122331000Y-47902000D02*
X122331000Y-49210000D01*
X122891000Y-51290000D02*
X122891000Y-52254000D01*
X122531000Y-51290000D02*
X122531000Y-52497000D01*
X123331000Y-48696000D02*
X123331000Y-51804000D01*
X118445225Y-48775000D02*
X118945225Y-48775000D01*
X122691000Y-51290000D02*
X122691000Y-52399000D01*
X123251000Y-48597000D02*
X123251000Y-49210000D01*
X121330000Y-51290000D02*
X121330000Y-52829000D01*
X121570000Y-51290000D02*
X121570000Y-52811000D01*
X122491000Y-51290000D02*
X122491000Y-52518000D01*
X123611000Y-49152000D02*
X123611000Y-51348000D01*
X122731000Y-51290000D02*
X122731000Y-52372000D01*
X122571000Y-48026000D02*
X122571000Y-49210000D01*
X122851000Y-51290000D02*
X122851000Y-52285000D01*
X122171000Y-51290000D02*
X122171000Y-52664000D01*
X122131000Y-47822000D02*
X122131000Y-49210000D01*
X122211000Y-47852000D02*
X122211000Y-49210000D01*
X123291000Y-48645000D02*
X123291000Y-51855000D01*
X121610000Y-51290000D02*
X121610000Y-52806000D01*
X122251000Y-47868000D02*
X122251000Y-49210000D01*
X121730000Y-47714000D02*
X121730000Y-49210000D01*
X122051000Y-47795000D02*
X122051000Y-49210000D01*
X121890000Y-51290000D02*
X121890000Y-52751000D01*
X123011000Y-51290000D02*
X123011000Y-52151000D01*
X122331000Y-51290000D02*
X122331000Y-52598000D01*
X121490000Y-51290000D02*
X121490000Y-52819000D01*
X123131000Y-48465000D02*
X123131000Y-49210000D01*
X122091000Y-51290000D02*
X122091000Y-52692000D01*
X122611000Y-48050000D02*
X122611000Y-49210000D01*
X121770000Y-47722000D02*
X121770000Y-49210000D01*
X123870000Y-50250000D02*
G75*
G03*
X123870000Y-50250000I-2620000J0D01*
G01*
X64370000Y-78130000D02*
X61130000Y-78130000D01*
X64370000Y-88370000D02*
X61130000Y-88370000D01*
X64370000Y-78130000D02*
X64370000Y-88370000D01*
X61130000Y-78130000D02*
X61130000Y-88370000D01*
X81000000Y-59380000D02*
X81000000Y-56770000D01*
X82370000Y-60750000D02*
G75*
G03*
X82370000Y-60750000I-1370000J0D01*
G01*
X112150000Y-80950000D02*
X112150000Y-84550000D01*
X116350000Y-81610000D02*
G75*
G03*
X115103842Y-80382801I-2350000J-1140000D01*
G01*
X112150000Y-84550000D02*
G75*
G03*
X112877205Y-85074184I1850000J1800000D01*
G01*
X112877205Y-80425816D02*
G75*
G03*
X112150000Y-80950000I1122795J-2324184D01*
G01*
X115098371Y-85105457D02*
G75*
G03*
X116350000Y-83860000I-1098371J2355457D01*
G01*
X136620000Y-74130000D02*
X136620000Y-77370000D01*
X126380000Y-74130000D02*
X126380000Y-77370000D01*
X126380000Y-74130000D02*
X136620000Y-74130000D01*
X126380000Y-77370000D02*
X136620000Y-77370000D01*
X108395000Y-85250000D02*
X105785000Y-85250000D01*
X111135000Y-85250000D02*
G75*
G03*
X111135000Y-85250000I-1370000J0D01*
G01*
X126380000Y-89130000D02*
X126380000Y-92370000D01*
X126380000Y-89130000D02*
X136620000Y-89130000D01*
X136620000Y-89130000D02*
X136620000Y-92370000D01*
X126380000Y-92370000D02*
X136620000Y-92370000D01*
X90235000Y-66170000D02*
X90235000Y-86610000D01*
X91485000Y-66170000D02*
X90235000Y-66170000D01*
X94735000Y-86610000D02*
X94735000Y-66170000D01*
X94735000Y-66170000D02*
X93485000Y-66170000D01*
X90235000Y-86610000D02*
X94735000Y-86610000D01*
X91485000Y-66170000D02*
G75*
G03*
X93485000Y-66170000I1000000J0D01*
G01*
X120630000Y-78130000D02*
X123870000Y-78130000D01*
X120630000Y-88370000D02*
X120630000Y-78130000D01*
X120630000Y-88370000D02*
X123870000Y-88370000D01*
X123870000Y-88370000D02*
X123870000Y-78130000D01*
X106771000Y-53920000D02*
X96230000Y-53920000D01*
X103370000Y-50381000D02*
X103370000Y-53920000D01*
X102574000Y-48879000D02*
X100425000Y-48879000D01*
X106771000Y-48879000D02*
X106771000Y-53920000D01*
X96230000Y-48879000D02*
X96230000Y-53920000D01*
X102574000Y-48879000D02*
X100425000Y-48879000D01*
X103370000Y-53920000D02*
X99630000Y-53920000D01*
X97575000Y-48879000D02*
X96230000Y-48879000D01*
X106771000Y-48879000D02*
X105426000Y-48879000D01*
X99630000Y-50381000D02*
X99630000Y-53920000D01*
X62750000Y-59380000D02*
X62750000Y-56770000D01*
X64120000Y-60750000D02*
G75*
G03*
X64120000Y-60750000I-1370000J0D01*
G01*
X72500000Y-89380000D02*
X72500000Y-86770000D01*
X73870000Y-90750000D02*
G75*
G03*
X73870000Y-90750000I-1370000J0D01*
G01*
X66400000Y-56410000D02*
X66400000Y-60010000D01*
X67127205Y-55885816D02*
G75*
G03*
X66400000Y-56410000I1122795J-2324184D01*
G01*
X70600000Y-57070000D02*
G75*
G03*
X69353842Y-55842801I-2350000J-1140000D01*
G01*
X69348371Y-60565457D02*
G75*
G03*
X70600000Y-59320000I-1098371J2355457D01*
G01*
X66400000Y-60010000D02*
G75*
G03*
X67127205Y-60534184I1850000J1800000D01*
G01*
X109750000Y-59380000D02*
X109750000Y-56770000D01*
X111120000Y-60750000D02*
G75*
G03*
X111120000Y-60750000I-1370000J0D01*
G01*
X96880000Y-90750000D02*
X94270000Y-90750000D01*
X99620000Y-90750000D02*
G75*
G03*
X99620000Y-90750000I-1370000J0D01*
G01*
X66280000Y-70470000D02*
X73720000Y-70470000D01*
X66280000Y-70470000D02*
X66280000Y-63030000D01*
X66280000Y-63030000D02*
X73720000Y-63030000D01*
X73720000Y-70470000D02*
X73720000Y-63030000D01*
X84877000Y-88701000D02*
X82040000Y-88701000D01*
X79960000Y-88861000D02*
X77179000Y-88861000D01*
X83945000Y-90261000D02*
X78055000Y-90261000D01*
X83715000Y-83410302D02*
X82915000Y-83410302D01*
X85048000Y-87940000D02*
X76952000Y-87940000D01*
X79960000Y-88261000D02*
X77006000Y-88261000D01*
X84863000Y-88741000D02*
X82040000Y-88741000D01*
X85042000Y-87980000D02*
X76958000Y-87980000D01*
X84666000Y-89221000D02*
X82040000Y-89221000D01*
X84647000Y-89261000D02*
X82040000Y-89261000D01*
X79960000Y-88821000D02*
X77165000Y-88821000D01*
X84606000Y-89341000D02*
X82040000Y-89341000D01*
X83907000Y-90301000D02*
X78093000Y-90301000D01*
X84686000Y-89181000D02*
X82040000Y-89181000D01*
X84774000Y-88981000D02*
X82040000Y-88981000D01*
X79960000Y-89461000D02*
X77460000Y-89461000D01*
X79960000Y-89141000D02*
X77296000Y-89141000D01*
X84936000Y-88501000D02*
X82040000Y-88501000D01*
X79960000Y-89261000D02*
X77353000Y-89261000D01*
X79960000Y-89821000D02*
X77691000Y-89821000D01*
X79960000Y-88741000D02*
X77137000Y-88741000D01*
X83784000Y-90421000D02*
X78216000Y-90421000D01*
X79960000Y-89661000D02*
X77582000Y-89661000D01*
X84805000Y-88901000D02*
X82040000Y-88901000D01*
X84704000Y-89141000D02*
X82040000Y-89141000D01*
X84493000Y-89541000D02*
X82040000Y-89541000D01*
X84821000Y-88861000D02*
X82040000Y-88861000D01*
X79960000Y-89621000D02*
X77556000Y-89621000D01*
X83034000Y-90981000D02*
X78966000Y-90981000D01*
X79960000Y-89981000D02*
X77811000Y-89981000D01*
X85052000Y-87900000D02*
X76948000Y-87900000D01*
X79960000Y-89101000D02*
X77278000Y-89101000D01*
X84976000Y-88341000D02*
X82040000Y-88341000D01*
X85030000Y-88060000D02*
X76970000Y-88060000D01*
X83983000Y-90221000D02*
X78017000Y-90221000D01*
X84365000Y-89741000D02*
X82040000Y-89741000D01*
X84835000Y-88821000D02*
X82040000Y-88821000D01*
X79960000Y-88341000D02*
X77024000Y-88341000D01*
X84850000Y-88781000D02*
X82040000Y-88781000D01*
X84889000Y-88661000D02*
X82040000Y-88661000D01*
X82346000Y-91301000D02*
X79654000Y-91301000D01*
X82890000Y-91061000D02*
X79110000Y-91061000D01*
X84019000Y-90181000D02*
X82040000Y-90181000D01*
X79960000Y-88621000D02*
X77098000Y-88621000D01*
X83454000Y-90701000D02*
X78546000Y-90701000D01*
X81533000Y-91501000D02*
X80467000Y-91501000D01*
X83697000Y-90501000D02*
X78303000Y-90501000D01*
X82731000Y-91141000D02*
X79269000Y-91141000D01*
X85080000Y-87500000D02*
X76920000Y-87500000D01*
X79960000Y-88781000D02*
X77150000Y-88781000D01*
X83228000Y-90861000D02*
X78772000Y-90861000D01*
X84220000Y-89941000D02*
X82040000Y-89941000D01*
X85057000Y-87860000D02*
X76943000Y-87860000D01*
X82229000Y-91341000D02*
X79771000Y-91341000D01*
X85071000Y-87700000D02*
X76929000Y-87700000D01*
X79960000Y-88981000D02*
X77226000Y-88981000D01*
X84392000Y-89701000D02*
X82040000Y-89701000D01*
X83166000Y-90901000D02*
X78834000Y-90901000D01*
X83826000Y-90381000D02*
X78174000Y-90381000D01*
X79960000Y-90141000D02*
X77945000Y-90141000D01*
X79960000Y-89221000D02*
X77334000Y-89221000D01*
X79960000Y-90101000D02*
X77910000Y-90101000D01*
X85065000Y-87780000D02*
X76935000Y-87780000D01*
X85068000Y-87740000D02*
X76932000Y-87740000D01*
X84967000Y-88381000D02*
X82040000Y-88381000D01*
X79960000Y-89501000D02*
X77483000Y-89501000D01*
X82552000Y-91221000D02*
X79448000Y-91221000D01*
X79960000Y-89181000D02*
X77314000Y-89181000D01*
X85024000Y-88100000D02*
X76976000Y-88100000D01*
X83345000Y-90781000D02*
X78655000Y-90781000D01*
X79960000Y-88381000D02*
X77033000Y-88381000D01*
X84156000Y-90021000D02*
X82040000Y-90021000D01*
X85079000Y-87540000D02*
X76921000Y-87540000D01*
X84090000Y-90101000D02*
X82040000Y-90101000D01*
X84985000Y-88301000D02*
X82040000Y-88301000D01*
X79960000Y-88901000D02*
X77195000Y-88901000D01*
X84994000Y-88261000D02*
X82040000Y-88261000D01*
X85074000Y-87660000D02*
X76926000Y-87660000D01*
X81948000Y-91421000D02*
X80052000Y-91421000D01*
X84250000Y-89901000D02*
X82040000Y-89901000D01*
X83102000Y-90941000D02*
X78898000Y-90941000D01*
X83556000Y-90621000D02*
X78444000Y-90621000D01*
X79960000Y-88421000D02*
X77043000Y-88421000D01*
X79960000Y-90061000D02*
X77876000Y-90061000D01*
X85077000Y-87580000D02*
X76923000Y-87580000D01*
X79960000Y-88941000D02*
X77210000Y-88941000D01*
X82098000Y-91381000D02*
X79902000Y-91381000D01*
X79960000Y-88181000D02*
X76990000Y-88181000D01*
X85080000Y-87420000D02*
X76920000Y-87420000D01*
X79960000Y-89381000D02*
X77416000Y-89381000D01*
X79960000Y-88701000D02*
X77123000Y-88701000D01*
X84722000Y-89101000D02*
X82040000Y-89101000D01*
X84957000Y-88421000D02*
X82040000Y-88421000D01*
X82453000Y-91261000D02*
X79547000Y-91261000D01*
X82964000Y-91021000D02*
X79036000Y-91021000D01*
X79960000Y-89741000D02*
X77635000Y-89741000D01*
X84584000Y-89381000D02*
X82040000Y-89381000D01*
X82813000Y-91101000D02*
X79187000Y-91101000D01*
X85017000Y-88141000D02*
X82040000Y-88141000D01*
X79960000Y-88301000D02*
X77015000Y-88301000D01*
X79960000Y-88141000D02*
X76983000Y-88141000D01*
X83287000Y-90821000D02*
X78713000Y-90821000D01*
X84309000Y-89821000D02*
X82040000Y-89821000D01*
X84627000Y-89301000D02*
X82040000Y-89301000D01*
X82645000Y-91181000D02*
X79355000Y-91181000D01*
X84280000Y-89861000D02*
X82040000Y-89861000D01*
X79960000Y-88661000D02*
X77111000Y-88661000D01*
X79960000Y-89581000D02*
X77531000Y-89581000D01*
X83505000Y-90661000D02*
X78495000Y-90661000D01*
X83741000Y-90461000D02*
X78259000Y-90461000D01*
X79960000Y-89941000D02*
X77780000Y-89941000D01*
X79960000Y-89541000D02*
X77507000Y-89541000D01*
X84055000Y-90141000D02*
X82040000Y-90141000D01*
X84925000Y-88541000D02*
X82040000Y-88541000D01*
X85037000Y-88020000D02*
X76963000Y-88020000D01*
X79960000Y-89021000D02*
X77243000Y-89021000D01*
X85061000Y-87820000D02*
X76939000Y-87820000D01*
X84562000Y-89421000D02*
X82040000Y-89421000D01*
X83651000Y-90541000D02*
X78349000Y-90541000D01*
X84338000Y-89781000D02*
X82040000Y-89781000D01*
X84418000Y-89661000D02*
X82040000Y-89661000D01*
X84189000Y-89981000D02*
X82040000Y-89981000D01*
X85010000Y-88181000D02*
X82040000Y-88181000D01*
X79960000Y-89781000D02*
X77662000Y-89781000D01*
X84444000Y-89621000D02*
X82040000Y-89621000D01*
X83400000Y-90741000D02*
X78600000Y-90741000D01*
X79960000Y-89701000D02*
X77608000Y-89701000D01*
X84540000Y-89461000D02*
X82040000Y-89461000D01*
X79960000Y-89421000D02*
X77438000Y-89421000D01*
X79960000Y-89341000D02*
X77394000Y-89341000D01*
X79960000Y-90181000D02*
X77981000Y-90181000D01*
X84947000Y-88461000D02*
X82040000Y-88461000D01*
X84469000Y-89581000D02*
X82040000Y-89581000D01*
X84517000Y-89501000D02*
X82040000Y-89501000D01*
X79960000Y-89301000D02*
X77373000Y-89301000D01*
X79960000Y-88541000D02*
X77075000Y-88541000D01*
X79960000Y-88581000D02*
X77086000Y-88581000D01*
X81768000Y-91461000D02*
X80232000Y-91461000D01*
X83604000Y-90581000D02*
X78396000Y-90581000D01*
X84902000Y-88621000D02*
X82040000Y-88621000D01*
X79960000Y-89901000D02*
X77750000Y-89901000D01*
X79960000Y-88501000D02*
X77064000Y-88501000D01*
X84757000Y-89021000D02*
X82040000Y-89021000D01*
X79960000Y-89061000D02*
X77260000Y-89061000D01*
X85002000Y-88221000D02*
X82040000Y-88221000D01*
X85076000Y-87620000D02*
X76924000Y-87620000D01*
X84914000Y-88581000D02*
X82040000Y-88581000D01*
X79960000Y-89861000D02*
X77720000Y-89861000D01*
X79960000Y-88461000D02*
X77053000Y-88461000D01*
X79960000Y-88221000D02*
X76998000Y-88221000D01*
X84124000Y-90061000D02*
X82040000Y-90061000D01*
X84740000Y-89061000D02*
X82040000Y-89061000D01*
X79960000Y-90021000D02*
X77844000Y-90021000D01*
X83315000Y-83010302D02*
X83315000Y-83810302D01*
X83867000Y-90341000D02*
X78133000Y-90341000D01*
X84790000Y-88941000D02*
X82040000Y-88941000D01*
X85080000Y-87460000D02*
X76920000Y-87460000D01*
X85120000Y-87420000D02*
G75*
G03*
X85120000Y-87420000I-4120000J0D01*
G01*
X136620000Y-59130000D02*
X136620000Y-62370000D01*
X126380000Y-62370000D02*
X136620000Y-62370000D01*
X126380000Y-59130000D02*
X126380000Y-62370000D01*
X126380000Y-59130000D02*
X136620000Y-59130000D01*
X107685000Y-68030000D02*
X104445000Y-68030000D01*
X107685000Y-75470000D02*
X104445000Y-75470000D01*
X104445000Y-68030000D02*
X104445000Y-75470000D01*
X107685000Y-68030000D02*
X107685000Y-75470000D01*
X58620000Y-74130000D02*
X58620000Y-77370000D01*
X48380000Y-74130000D02*
X48380000Y-77370000D01*
X48380000Y-74130000D02*
X58620000Y-74130000D01*
X48380000Y-77370000D02*
X58620000Y-77370000D01*
X104695000Y-64750000D02*
X102085000Y-64750000D01*
X107435000Y-64750000D02*
G75*
G03*
X107435000Y-64750000I-1370000J0D01*
G01*
X79575000Y-48879000D02*
X78230000Y-48879000D01*
X81630000Y-50381000D02*
X81630000Y-53920000D01*
X88771000Y-53920000D02*
X78230000Y-53920000D01*
X85370000Y-53920000D02*
X81630000Y-53920000D01*
X85370000Y-50381000D02*
X85370000Y-53920000D01*
X88771000Y-48879000D02*
X88771000Y-53920000D01*
X78230000Y-48879000D02*
X78230000Y-53920000D01*
X88771000Y-48879000D02*
X87426000Y-48879000D01*
X84574000Y-48879000D02*
X82425000Y-48879000D01*
X84574000Y-48879000D02*
X82425000Y-48879000D01*
X99380000Y-75470000D02*
X102620000Y-75470000D01*
X99380000Y-68030000D02*
X102620000Y-68030000D01*
X99380000Y-75470000D02*
X99380000Y-68030000D01*
X102620000Y-75470000D02*
X102620000Y-68030000D01*
X122250000Y-59380000D02*
X122250000Y-56770000D01*
X123620000Y-60750000D02*
G75*
G03*
X123620000Y-60750000I-1370000J0D01*
G01*
X113475000Y-75250000D02*
X110865000Y-75250000D01*
X116215000Y-75250000D02*
G75*
G03*
X116215000Y-75250000I-1370000J0D01*
G01*
X64370000Y-63130000D02*
X61130000Y-63130000D01*
X64370000Y-63130000D02*
X64370000Y-73370000D01*
X61130000Y-63130000D02*
X61130000Y-73370000D01*
X64370000Y-73370000D02*
X61130000Y-73370000D01*
X61509000Y-51569000D02*
X61509000Y-48931000D01*
X62629000Y-49210000D02*
X62629000Y-47921000D01*
X61669000Y-51804000D02*
X61669000Y-48696000D01*
X62949000Y-49210000D02*
X62949000Y-47795000D01*
X61749000Y-49210000D02*
X61749000Y-48597000D01*
X61829000Y-51993000D02*
X61829000Y-51290000D01*
X63070000Y-49210000D02*
X63070000Y-47759000D01*
X61429000Y-51428000D02*
X61429000Y-49072000D01*
X63550000Y-52823000D02*
X63550000Y-51290000D01*
X63190000Y-52770000D02*
X63190000Y-51290000D01*
X63710000Y-49210000D02*
X63710000Y-47670000D01*
X62909000Y-52692000D02*
X62909000Y-51290000D01*
X61389000Y-51348000D02*
X61389000Y-49152000D01*
X62549000Y-49210000D02*
X62549000Y-47960000D01*
X62429000Y-52474000D02*
X62429000Y-51290000D01*
X61909000Y-49210000D02*
X61909000Y-48424000D01*
X62909000Y-49210000D02*
X62909000Y-47808000D01*
X62109000Y-52254000D02*
X62109000Y-51290000D01*
X62389000Y-49210000D02*
X62389000Y-48050000D01*
X62509000Y-52518000D02*
X62509000Y-51290000D01*
X62189000Y-52315000D02*
X62189000Y-51290000D01*
X62789000Y-52648000D02*
X62789000Y-51290000D01*
X63470000Y-49210000D02*
X63470000Y-47685000D01*
X62029000Y-52187000D02*
X62029000Y-51290000D01*
X62789000Y-49210000D02*
X62789000Y-47852000D01*
X62749000Y-49210000D02*
X62749000Y-47868000D01*
X63230000Y-52778000D02*
X63230000Y-51290000D01*
X61909000Y-52076000D02*
X61909000Y-51290000D01*
X62869000Y-49210000D02*
X62869000Y-47822000D01*
X61629000Y-51750000D02*
X61629000Y-48750000D01*
X63150000Y-52761000D02*
X63150000Y-51290000D01*
X61789000Y-51949000D02*
X61789000Y-51290000D01*
X62589000Y-49210000D02*
X62589000Y-47940000D01*
X62269000Y-49210000D02*
X62269000Y-48128000D01*
X66554775Y-51725000D02*
X66054775Y-51725000D01*
X62589000Y-52560000D02*
X62589000Y-51290000D01*
X62829000Y-49210000D02*
X62829000Y-47836000D01*
X61829000Y-49210000D02*
X61829000Y-48507000D01*
X62869000Y-52678000D02*
X62869000Y-51290000D01*
X62309000Y-49210000D02*
X62309000Y-48101000D01*
X63350000Y-49210000D02*
X63350000Y-47700000D01*
X63390000Y-49210000D02*
X63390000Y-47694000D01*
X61989000Y-52151000D02*
X61989000Y-51290000D01*
X63310000Y-52793000D02*
X63310000Y-51290000D01*
X63270000Y-49210000D02*
X63270000Y-47714000D01*
X61989000Y-49210000D02*
X61989000Y-48349000D01*
X62349000Y-49210000D02*
X62349000Y-48075000D01*
X63070000Y-52741000D02*
X63070000Y-51290000D01*
X62709000Y-49210000D02*
X62709000Y-47885000D01*
X62749000Y-52632000D02*
X62749000Y-51290000D01*
X63630000Y-49210000D02*
X63630000Y-47672000D01*
X62629000Y-52579000D02*
X62629000Y-51290000D01*
X62389000Y-52450000D02*
X62389000Y-51290000D01*
X63230000Y-49210000D02*
X63230000Y-47722000D01*
X63310000Y-49210000D02*
X63310000Y-47707000D01*
X62989000Y-52718000D02*
X62989000Y-51290000D01*
X61309000Y-51165000D02*
X61309000Y-49335000D01*
X63390000Y-52806000D02*
X63390000Y-51290000D01*
X61869000Y-49210000D02*
X61869000Y-48465000D01*
X63350000Y-52800000D02*
X63350000Y-51290000D01*
X63190000Y-49210000D02*
X63190000Y-47730000D01*
X63270000Y-52786000D02*
X63270000Y-51290000D01*
X63430000Y-49210000D02*
X63430000Y-47689000D01*
X61709000Y-51855000D02*
X61709000Y-48645000D01*
X62669000Y-52598000D02*
X62669000Y-51290000D01*
X61549000Y-51633000D02*
X61549000Y-48867000D01*
X63110000Y-52751000D02*
X63110000Y-51290000D01*
X62989000Y-49210000D02*
X62989000Y-47782000D01*
X61589000Y-51693000D02*
X61589000Y-48807000D01*
X62189000Y-49210000D02*
X62189000Y-48185000D01*
X61949000Y-49210000D02*
X61949000Y-48386000D01*
X61269000Y-51055000D02*
X61269000Y-49445000D01*
X62149000Y-52285000D02*
X62149000Y-51290000D01*
X62269000Y-52372000D02*
X62269000Y-51290000D01*
X62829000Y-52664000D02*
X62829000Y-51290000D01*
X61949000Y-52114000D02*
X61949000Y-51290000D01*
X61349000Y-51261000D02*
X61349000Y-49239000D01*
X63670000Y-49210000D02*
X63670000Y-47671000D01*
X61149000Y-50534000D02*
X61149000Y-49966000D01*
X62549000Y-52540000D02*
X62549000Y-51290000D01*
X63750000Y-52830000D02*
X63750000Y-51290000D01*
X63670000Y-52829000D02*
X63670000Y-51290000D01*
X62069000Y-49210000D02*
X62069000Y-48279000D01*
X62949000Y-52705000D02*
X62949000Y-51290000D01*
X62069000Y-52221000D02*
X62069000Y-51290000D01*
X62429000Y-49210000D02*
X62429000Y-48026000D01*
X63029000Y-49210000D02*
X63029000Y-47770000D01*
X61189000Y-50768000D02*
X61189000Y-49732000D01*
X61229000Y-50927000D02*
X61229000Y-49573000D01*
X62349000Y-52425000D02*
X62349000Y-51290000D01*
X63029000Y-52730000D02*
X63029000Y-51290000D01*
X62149000Y-49210000D02*
X62149000Y-48215000D01*
X62309000Y-52399000D02*
X62309000Y-51290000D01*
X63590000Y-49210000D02*
X63590000Y-47674000D01*
X63630000Y-52828000D02*
X63630000Y-51290000D01*
X61749000Y-51903000D02*
X61749000Y-51290000D01*
X63750000Y-49210000D02*
X63750000Y-47670000D01*
X63150000Y-49210000D02*
X63150000Y-47739000D01*
X63590000Y-52826000D02*
X63590000Y-51290000D01*
X62709000Y-52615000D02*
X62709000Y-51290000D01*
X63430000Y-52811000D02*
X63430000Y-51290000D01*
X63470000Y-52815000D02*
X63470000Y-51290000D01*
X61789000Y-49210000D02*
X61789000Y-48551000D01*
X63550000Y-49210000D02*
X63550000Y-47677000D01*
X63510000Y-52819000D02*
X63510000Y-51290000D01*
X62669000Y-49210000D02*
X62669000Y-47902000D01*
X66304775Y-51975000D02*
X66304775Y-51475000D01*
X62229000Y-49210000D02*
X62229000Y-48155000D01*
X63510000Y-49210000D02*
X63510000Y-47681000D01*
X62109000Y-49210000D02*
X62109000Y-48246000D01*
X62509000Y-49210000D02*
X62509000Y-47982000D01*
X62229000Y-52345000D02*
X62229000Y-51290000D01*
X61469000Y-51501000D02*
X61469000Y-48999000D01*
X62469000Y-49210000D02*
X62469000Y-48003000D01*
X62029000Y-49210000D02*
X62029000Y-48313000D01*
X63110000Y-49210000D02*
X63110000Y-47749000D01*
X62469000Y-52497000D02*
X62469000Y-51290000D01*
X61869000Y-52035000D02*
X61869000Y-51290000D01*
X63710000Y-52830000D02*
X63710000Y-51290000D01*
X66370000Y-50250000D02*
G75*
G03*
X66370000Y-50250000I-2620000J0D01*
G01*
X99380000Y-86500000D02*
X102620000Y-86500000D01*
X99380000Y-79060000D02*
X102620000Y-79060000D01*
X102620000Y-86500000D02*
X102620000Y-79060000D01*
X99380000Y-86500000D02*
X99380000Y-79060000D01*
X113475000Y-64750000D02*
X110865000Y-64750000D01*
X116215000Y-64750000D02*
G75*
G03*
X116215000Y-64750000I-1370000J0D01*
G01*
X48380000Y-89130000D02*
X48380000Y-92370000D01*
X48380000Y-89130000D02*
X58620000Y-89130000D01*
X58620000Y-89130000D02*
X58620000Y-92370000D01*
X48380000Y-92370000D02*
X58620000Y-92370000D01*
X118600000Y-60010000D02*
X118600000Y-56410000D01*
X117872795Y-60534184D02*
G75*
G03*
X118600000Y-60010000I-1122795J2324184D01*
G01*
X115651629Y-55854543D02*
G75*
G03*
X114400000Y-57100000I1098371J-2355457D01*
G01*
X118600000Y-56410000D02*
G75*
G03*
X117872795Y-55885816I-1850000J-1800000D01*
G01*
X114400000Y-59350000D02*
G75*
G03*
X115646158Y-60577199I2350000J1140000D01*
G01*
X120880000Y-90750000D02*
X118270000Y-90750000D01*
X123620000Y-90750000D02*
G75*
G03*
X123620000Y-90750000I-1370000J0D01*
G01*
X100620000Y-61970000D02*
X97380000Y-61970000D01*
X100620000Y-54530000D02*
X97380000Y-54530000D01*
X97380000Y-54530000D02*
X97380000Y-61970000D01*
X100620000Y-54530000D02*
X100620000Y-61970000D01*
X84000000Y-78830000D02*
X84000000Y-78760000D01*
X85370000Y-80200000D02*
G75*
G03*
X85370000Y-80200000I-1370000J0D01*
G01*
X110505000Y-73370000D02*
X114105000Y-73370000D01*
X109980816Y-72642795D02*
G75*
G03*
X110505000Y-73370000I2324184J1122795D01*
G01*
X114660457Y-70421629D02*
G75*
G03*
X113415000Y-69170000I-2355457J-1098371D01*
G01*
X114105000Y-73370000D02*
G75*
G03*
X114629184Y-72642795I-1800000J1850000D01*
G01*
X111165000Y-69170000D02*
G75*
G03*
X109937801Y-70416158I1140000J-2350000D01*
G01*
X104000000Y-59380000D02*
X104000000Y-56770000D01*
X105370000Y-60750000D02*
G75*
G03*
X105370000Y-60750000I-1370000J0D01*
G01*
X71540000Y-50250000D02*
X74150000Y-50250000D01*
X71540000Y-50250000D02*
G75*
G03*
X71540000Y-50250000I-1370000J0D01*
G01*
X120630000Y-73370000D02*
X120630000Y-63130000D01*
X120630000Y-63130000D02*
X123870000Y-63130000D01*
X120630000Y-73370000D02*
X123870000Y-73370000D01*
X123870000Y-73370000D02*
X123870000Y-63130000D01*
X76630000Y-71130000D02*
X76630000Y-81370000D01*
X79870000Y-71130000D02*
X79870000Y-81370000D01*
X79870000Y-71130000D02*
X76630000Y-71130000D01*
X79870000Y-81370000D02*
X76630000Y-81370000D01*
X58620000Y-59130000D02*
X58620000Y-62370000D01*
X48380000Y-59130000D02*
X48380000Y-62370000D01*
X48380000Y-62370000D02*
X58620000Y-62370000D01*
X48380000Y-59130000D02*
X58620000Y-59130000D01*
%LPC*%
D13*
X92500000Y-60750000D03*
X92500000Y-55750000D03*
D14*
X128750000Y-85165000D03*
D15*
X128750000Y-80085000D03*
D14*
X128750000Y-70165000D03*
D15*
X128750000Y-65085000D03*
X128750000Y-50085000D03*
D14*
X128750000Y-55165000D03*
X50750000Y-81335000D03*
D15*
X50750000Y-86415000D03*
D14*
X50750000Y-66335000D03*
D15*
X50750000Y-71415000D03*
D14*
X50750000Y-51335000D03*
D15*
X50750000Y-56415000D03*
D14*
X134250000Y-81335000D03*
D15*
X134250000Y-86415000D03*
D14*
X56250000Y-85165000D03*
D15*
X56250000Y-80085000D03*
D14*
X134250000Y-66335000D03*
D15*
X134250000Y-71415000D03*
D14*
X56250000Y-70165000D03*
D15*
X56250000Y-65085000D03*
D14*
X134250000Y-51335000D03*
D15*
X134250000Y-56415000D03*
D14*
X56250000Y-55165000D03*
D15*
X56250000Y-50085000D03*
D13*
X84000000Y-75120000D03*
D16*
X84000000Y-72580000D03*
D13*
X109765000Y-80280000D03*
D16*
X104685000Y-80280000D03*
D13*
X80250000Y-69250000D03*
X80250000Y-64250000D03*
X62750000Y-90750000D03*
D16*
X67830000Y-90750000D03*
D13*
X86000000Y-60750000D03*
D16*
X86000000Y-55670000D03*
D14*
X72000000Y-80000000D03*
X72000000Y-72500000D03*
D13*
X75250000Y-60750000D03*
D16*
X75250000Y-55670000D03*
D13*
X114830000Y-50250000D03*
D16*
X109750000Y-50250000D03*
D13*
X114250000Y-90750000D03*
D16*
X109170000Y-90750000D03*
D13*
X106250000Y-90750000D03*
D16*
X101170000Y-90750000D03*
D17*
X120250000Y-50250000D03*
D13*
X122250000Y-50250000D03*
D14*
X62750000Y-79500000D03*
X62750000Y-87000000D03*
D13*
X81000000Y-60750000D03*
D16*
X81000000Y-55670000D03*
D18*
X114000000Y-80210000D03*
X116540000Y-82750000D03*
X114000000Y-85290000D03*
D14*
X127750000Y-75750000D03*
X135250000Y-75750000D03*
D13*
X109765000Y-85250000D03*
D16*
X104685000Y-85250000D03*
D14*
X127750000Y-90750000D03*
X135250000Y-90750000D03*
D19*
X88675000Y-67500000D03*
D20*
X88675000Y-70040000D03*
X88675000Y-72580000D03*
X88675000Y-75120000D03*
X88675000Y-77660000D03*
X88675000Y-80200000D03*
X88675000Y-82740000D03*
X88675000Y-85280000D03*
X96295000Y-85280000D03*
X96295000Y-82740000D03*
X96295000Y-80200000D03*
X96295000Y-77660000D03*
X96295000Y-75120000D03*
X96295000Y-72580000D03*
X96295000Y-70040000D03*
X96295000Y-67500000D03*
D14*
X122250000Y-87000000D03*
X122250000Y-79500000D03*
D21*
X104000000Y-49000000D03*
X101500000Y-51500000D03*
X99000000Y-49000000D03*
D13*
X62750000Y-60750000D03*
D16*
X62750000Y-55670000D03*
D13*
X72500000Y-90750000D03*
D16*
X72500000Y-85670000D03*
D18*
X68250000Y-55670000D03*
X70790000Y-58210000D03*
X68250000Y-60750000D03*
D13*
X109750000Y-60750000D03*
D16*
X109750000Y-55670000D03*
D13*
X98250000Y-90750000D03*
D16*
X93170000Y-90750000D03*
D13*
X70000000Y-69250000D03*
X70000000Y-64250000D03*
D17*
X81000000Y-85670000D03*
D13*
X81000000Y-89170000D03*
D14*
X127750000Y-60750000D03*
X135250000Y-60750000D03*
D13*
X106065000Y-69250000D03*
X106065000Y-74250000D03*
D14*
X49750000Y-75750000D03*
X57250000Y-75750000D03*
D13*
X106065000Y-64750000D03*
D16*
X100985000Y-64750000D03*
D21*
X86000000Y-49000000D03*
X83500000Y-51500000D03*
X81000000Y-49000000D03*
D13*
X101000000Y-74250000D03*
X101000000Y-69250000D03*
X122250000Y-60750000D03*
D16*
X122250000Y-55670000D03*
D13*
X114845000Y-75250000D03*
D16*
X109765000Y-75250000D03*
D14*
X62750000Y-64500000D03*
X62750000Y-72000000D03*
D17*
X64750000Y-50250000D03*
D13*
X62750000Y-50250000D03*
X101000000Y-85280000D03*
X101000000Y-80280000D03*
X114845000Y-64750000D03*
D16*
X109765000Y-64750000D03*
D14*
X49750000Y-90750000D03*
X57250000Y-90750000D03*
D18*
X116750000Y-60750000D03*
X114210000Y-58210000D03*
X116750000Y-55670000D03*
D13*
X122250000Y-90750000D03*
D16*
X117170000Y-90750000D03*
D13*
X99000000Y-55750000D03*
X99000000Y-60750000D03*
X84000000Y-80200000D03*
D16*
X84000000Y-77660000D03*
D18*
X109765000Y-71520000D03*
X112305000Y-68980000D03*
X114845000Y-71520000D03*
D13*
X104000000Y-60750000D03*
D16*
X104000000Y-55670000D03*
D13*
X70170000Y-50250000D03*
D16*
X75250000Y-50250000D03*
D14*
X122250000Y-72000000D03*
X122250000Y-64500000D03*
X78250000Y-72500000D03*
X78250000Y-80000000D03*
X49750000Y-60750000D03*
X57250000Y-60750000D03*
M02*
