M48
; DRILL file {KiCad (5.1.7)-1} date 09/30/22 21:34:31
; FORMAT={-:-/ absolute / metric / decimal}
; #@! TF.CreationDate,2022-09-30T21:34:31+02:00
; #@! TF.GenerationSoftware,Kicad,Pcbnew,(5.1.7)-1
; #@! TF.FileFunction,Plated,1,2,PTH
FMAT,2
METRIC
T1C0.500
T2C0.800
T3C1.000
T4C1.150
T5C1.200
T6C1.300
T7C1.500
T8C3.700
%
G90
G05
T1
X61.0Y-48.82
X67.5Y-36.25
T2
X146.5Y-59.75
X146.5Y-69.91
X151.5Y-59.75
X151.5Y-69.91
X71.5Y-58.75
X76.5Y-58.75
X121.34Y-48.82
X131.5Y-48.82
X73.5Y-35.32
X83.66Y-35.32
X121.34Y-53.32
X131.5Y-53.32
X112.25Y-48.82
X117.25Y-48.82
X148.34Y-48.82
X153.34Y-48.82
X73.5Y-39.82
X83.66Y-39.82
X82.0Y-58.75
X87.0Y-58.75
X43.84Y-39.82
X54.0Y-39.82
X87.75Y-53.32
X97.91Y-53.32
X121.34Y-44.32
X131.5Y-44.32
X136.5Y-59.75
X136.5Y-69.91
X151.0Y-39.82
X161.16Y-39.82
X64.41Y-53.32
X69.41Y-53.32
X73.5Y-48.82
X83.66Y-48.82
X131.5Y-59.75
X131.5Y-69.91
X61.0Y-58.75
X66.0Y-58.75
X87.75Y-48.82
X92.75Y-48.82
X73.5Y-44.32
X83.66Y-44.32
X136.34Y-48.82
X141.34Y-48.82
X107.09Y-53.32
X117.25Y-53.32
X43.84Y-35.32
X54.0Y-35.32
X73.5Y-53.32
X83.66Y-53.32
X121.34Y-35.32
X131.5Y-35.32
X141.5Y-59.75
X141.5Y-69.91
X151.0Y-35.32
X161.16Y-35.32
X51.66Y-48.82
X56.66Y-48.82
X121.34Y-39.82
X131.5Y-39.82
T3
X88.86Y-39.82
X91.4Y-37.28
X91.4Y-42.36
X148.3Y-54.5
X150.84Y-54.5
X153.38Y-54.5
X113.6Y-37.28
X113.6Y-42.36
X116.14Y-39.82
X51.62Y-54.5
X54.16Y-54.5
X56.7Y-54.5
X136.3Y-54.5
X138.84Y-54.5
X141.38Y-54.5
T4
X82.5Y-67.5
X71.5Y-67.5
X60.5Y-67.5
X88.0Y-67.5
X77.0Y-67.5
X66.0Y-67.5
X55.0Y-67.5
T5
X145.0Y-28.5
X145.0Y-43.74
X36.0Y-45.0
X36.0Y-52.5
X99.0Y-28.5
X99.0Y-48.82
X169.0Y-45.0
X169.0Y-52.5
X60.0Y-28.5
X60.0Y-43.74
X137.5Y-28.5
X137.5Y-43.74
X92.5Y-58.75
X107.74Y-58.75
X106.0Y-28.5
X106.0Y-48.82
X67.5Y-28.5
X67.5Y-43.74
T6
X119.5Y-69.83
X122.0Y-59.83
X124.5Y-69.83
T7
X39.5Y-27.5
X44.95Y-27.5
X50.4Y-27.5
X117.05Y-27.5
X122.5Y-27.5
X127.95Y-27.5
X77.05Y-27.5
X82.5Y-27.5
X87.95Y-27.5
X154.5Y-27.5
X159.95Y-27.5
X165.4Y-27.5
T8
X30.0Y-35.0
X175.0Y-35.0
T0
M30
