G04 #@! TF.GenerationSoftware,KiCad,Pcbnew,(5.1.7)-1*
G04 #@! TF.CreationDate,2022-09-30T21:34:24+02:00*
G04 #@! TF.ProjectId,Endstufe,456e6473-7475-4666-952e-6b696361645f,rev?*
G04 #@! TF.SameCoordinates,Original*
G04 #@! TF.FileFunction,Legend,Top*
G04 #@! TF.FilePolarity,Positive*
%FSLAX46Y46*%
G04 Gerber Fmt 4.6, Leading zero omitted, Abs format (unit mm)*
G04 Created by KiCad (PCBNEW (5.1.7)-1) date 2022-09-30 21:34:24*
%MOMM*%
%LPD*%
G01*
G04 APERTURE LIST*
%ADD10C,0.150000*%
%ADD11C,0.120000*%
%ADD12C,2.400000*%
%ADD13O,2.400000X2.400000*%
%ADD14C,2.500000*%
%ADD15R,2.400000X2.400000*%
%ADD16C,1.800000*%
%ADD17O,1.800000X1.800000*%
%ADD18C,1.600000*%
%ADD19O,1.600000X1.600000*%
%ADD20C,2.340000*%
%ADD21O,2.500000X4.500000*%
%ADD22C,7.400000*%
G04 APERTURE END LIST*
D10*
X59738095Y-64000000D02*
X59642857Y-63952380D01*
X59500000Y-63952380D01*
X59357142Y-64000000D01*
X59261904Y-64095238D01*
X59214285Y-64190476D01*
X59166666Y-64380952D01*
X59166666Y-64523809D01*
X59214285Y-64714285D01*
X59261904Y-64809523D01*
X59357142Y-64904761D01*
X59500000Y-64952380D01*
X59595238Y-64952380D01*
X59738095Y-64904761D01*
X59785714Y-64857142D01*
X59785714Y-64523809D01*
X59595238Y-64523809D01*
X60214285Y-64952380D02*
X60214285Y-63952380D01*
X60785714Y-64952380D01*
X60785714Y-63952380D01*
X61261904Y-64952380D02*
X61261904Y-63952380D01*
X61500000Y-63952380D01*
X61642857Y-64000000D01*
X61738095Y-64095238D01*
X61785714Y-64190476D01*
X61833333Y-64380952D01*
X61833333Y-64523809D01*
X61785714Y-64714285D01*
X61738095Y-64809523D01*
X61642857Y-64904761D01*
X61500000Y-64952380D01*
X61261904Y-64952380D01*
X64238095Y-64571428D02*
X65000000Y-64571428D01*
X65904761Y-64285714D02*
X65904761Y-64952380D01*
X65666666Y-63904761D02*
X65428571Y-64619047D01*
X66047619Y-64619047D01*
X66380952Y-64047619D02*
X66428571Y-64000000D01*
X66523809Y-63952380D01*
X66761904Y-63952380D01*
X66857142Y-64000000D01*
X66904761Y-64047619D01*
X66952380Y-64142857D01*
X66952380Y-64238095D01*
X66904761Y-64380952D01*
X66333333Y-64952380D01*
X66952380Y-64952380D01*
X67238095Y-63952380D02*
X67571428Y-64952380D01*
X67904761Y-63952380D01*
X69738095Y-64571428D02*
X70500000Y-64571428D01*
X70119047Y-64952380D02*
X70119047Y-64190476D01*
X71404761Y-64285714D02*
X71404761Y-64952380D01*
X71166666Y-63904761D02*
X70928571Y-64619047D01*
X71547619Y-64619047D01*
X71880952Y-64047619D02*
X71928571Y-64000000D01*
X72023809Y-63952380D01*
X72261904Y-63952380D01*
X72357142Y-64000000D01*
X72404761Y-64047619D01*
X72452380Y-64142857D01*
X72452380Y-64238095D01*
X72404761Y-64380952D01*
X71833333Y-64952380D01*
X72452380Y-64952380D01*
X72738095Y-63952380D02*
X73071428Y-64952380D01*
X73404761Y-63952380D01*
X76000000Y-63952380D02*
X76190476Y-63952380D01*
X76285714Y-64000000D01*
X76380952Y-64095238D01*
X76428571Y-64285714D01*
X76428571Y-64619047D01*
X76380952Y-64809523D01*
X76285714Y-64904761D01*
X76190476Y-64952380D01*
X76000000Y-64952380D01*
X75904761Y-64904761D01*
X75809523Y-64809523D01*
X75761904Y-64619047D01*
X75761904Y-64285714D01*
X75809523Y-64095238D01*
X75904761Y-64000000D01*
X76000000Y-63952380D01*
X76857142Y-63952380D02*
X76857142Y-64761904D01*
X76904761Y-64857142D01*
X76952380Y-64904761D01*
X77047619Y-64952380D01*
X77238095Y-64952380D01*
X77333333Y-64904761D01*
X77380952Y-64857142D01*
X77428571Y-64761904D01*
X77428571Y-63952380D01*
X77761904Y-63952380D02*
X78333333Y-63952380D01*
X78047619Y-64952380D02*
X78047619Y-63952380D01*
X76761904Y-70285714D02*
X76761904Y-71095238D01*
X76714285Y-71190476D01*
X76666666Y-71238095D01*
X76571428Y-71285714D01*
X76428571Y-71285714D01*
X76333333Y-71238095D01*
X76761904Y-70904761D02*
X76666666Y-70952380D01*
X76476190Y-70952380D01*
X76380952Y-70904761D01*
X76333333Y-70857142D01*
X76285714Y-70761904D01*
X76285714Y-70476190D01*
X76333333Y-70380952D01*
X76380952Y-70333333D01*
X76476190Y-70285714D01*
X76666666Y-70285714D01*
X76761904Y-70333333D01*
X77238095Y-70285714D02*
X77238095Y-70952380D01*
X77238095Y-70380952D02*
X77285714Y-70333333D01*
X77380952Y-70285714D01*
X77523809Y-70285714D01*
X77619047Y-70333333D01*
X77666666Y-70428571D01*
X77666666Y-70952380D01*
X71285714Y-70285714D02*
X71285714Y-71095238D01*
X71238095Y-71190476D01*
X71190476Y-71238095D01*
X71095238Y-71285714D01*
X70952380Y-71285714D01*
X70857142Y-71238095D01*
X71285714Y-70904761D02*
X71190476Y-70952380D01*
X71000000Y-70952380D01*
X70904761Y-70904761D01*
X70857142Y-70857142D01*
X70809523Y-70761904D01*
X70809523Y-70476190D01*
X70857142Y-70380952D01*
X70904761Y-70333333D01*
X71000000Y-70285714D01*
X71190476Y-70285714D01*
X71285714Y-70333333D01*
X72142857Y-70904761D02*
X72047619Y-70952380D01*
X71857142Y-70952380D01*
X71761904Y-70904761D01*
X71714285Y-70809523D01*
X71714285Y-70428571D01*
X71761904Y-70333333D01*
X71857142Y-70285714D01*
X72047619Y-70285714D01*
X72142857Y-70333333D01*
X72190476Y-70428571D01*
X72190476Y-70523809D01*
X71714285Y-70619047D01*
X65523809Y-70952380D02*
X65523809Y-69952380D01*
X65523809Y-70333333D02*
X65619047Y-70285714D01*
X65809523Y-70285714D01*
X65904761Y-70333333D01*
X65952380Y-70380952D01*
X66000000Y-70476190D01*
X66000000Y-70761904D01*
X65952380Y-70857142D01*
X65904761Y-70904761D01*
X65809523Y-70952380D01*
X65619047Y-70952380D01*
X65523809Y-70904761D01*
X66571428Y-70952380D02*
X66476190Y-70904761D01*
X66428571Y-70809523D01*
X66428571Y-69952380D01*
X59714285Y-70285714D02*
X59904761Y-70952380D01*
X60095238Y-70476190D01*
X60285714Y-70952380D01*
X60476190Y-70285714D01*
X60809523Y-70904761D02*
X60904761Y-70952380D01*
X61095238Y-70952380D01*
X61190476Y-70904761D01*
X61238095Y-70809523D01*
X61238095Y-70761904D01*
X61190476Y-70666666D01*
X61095238Y-70619047D01*
X60952380Y-70619047D01*
X60857142Y-70571428D01*
X60809523Y-70476190D01*
X60809523Y-70428571D01*
X60857142Y-70333333D01*
X60952380Y-70285714D01*
X61095238Y-70285714D01*
X61190476Y-70333333D01*
X86333333Y-70285714D02*
X86523809Y-70952380D01*
X86714285Y-70476190D01*
X86904761Y-70952380D01*
X87095238Y-70285714D01*
X87428571Y-70904761D02*
X87523809Y-70952380D01*
X87714285Y-70952380D01*
X87809523Y-70904761D01*
X87857142Y-70809523D01*
X87857142Y-70761904D01*
X87809523Y-70666666D01*
X87714285Y-70619047D01*
X87571428Y-70619047D01*
X87476190Y-70571428D01*
X87428571Y-70476190D01*
X87428571Y-70428571D01*
X87476190Y-70333333D01*
X87571428Y-70285714D01*
X87714285Y-70285714D01*
X87809523Y-70333333D01*
X88714285Y-70285714D02*
X88714285Y-71095238D01*
X88666666Y-71190476D01*
X88619047Y-71238095D01*
X88523809Y-71285714D01*
X88380952Y-71285714D01*
X88285714Y-71238095D01*
X88714285Y-70904761D02*
X88619047Y-70952380D01*
X88428571Y-70952380D01*
X88333333Y-70904761D01*
X88285714Y-70857142D01*
X88238095Y-70761904D01*
X88238095Y-70476190D01*
X88285714Y-70380952D01*
X88333333Y-70333333D01*
X88428571Y-70285714D01*
X88619047Y-70285714D01*
X88714285Y-70333333D01*
X89571428Y-70904761D02*
X89476190Y-70952380D01*
X89285714Y-70952380D01*
X89190476Y-70904761D01*
X89142857Y-70809523D01*
X89142857Y-70428571D01*
X89190476Y-70333333D01*
X89285714Y-70285714D01*
X89476190Y-70285714D01*
X89571428Y-70333333D01*
X89619047Y-70428571D01*
X89619047Y-70523809D01*
X89142857Y-70619047D01*
X80809523Y-70285714D02*
X81000000Y-70952380D01*
X81190476Y-70476190D01*
X81380952Y-70952380D01*
X81571428Y-70285714D01*
X81904761Y-70904761D02*
X82000000Y-70952380D01*
X82190476Y-70952380D01*
X82285714Y-70904761D01*
X82333333Y-70809523D01*
X82333333Y-70761904D01*
X82285714Y-70666666D01*
X82190476Y-70619047D01*
X82047619Y-70619047D01*
X81952380Y-70571428D01*
X81904761Y-70476190D01*
X81904761Y-70428571D01*
X81952380Y-70333333D01*
X82047619Y-70285714D01*
X82190476Y-70285714D01*
X82285714Y-70333333D01*
X83190476Y-70285714D02*
X83190476Y-71095238D01*
X83142857Y-71190476D01*
X83095238Y-71238095D01*
X83000000Y-71285714D01*
X82857142Y-71285714D01*
X82761904Y-71238095D01*
X83190476Y-70904761D02*
X83095238Y-70952380D01*
X82904761Y-70952380D01*
X82809523Y-70904761D01*
X82761904Y-70857142D01*
X82714285Y-70761904D01*
X82714285Y-70476190D01*
X82761904Y-70380952D01*
X82809523Y-70333333D01*
X82904761Y-70285714D01*
X83095238Y-70285714D01*
X83190476Y-70333333D01*
X83666666Y-70285714D02*
X83666666Y-70952380D01*
X83666666Y-70380952D02*
X83714285Y-70333333D01*
X83809523Y-70285714D01*
X83952380Y-70285714D01*
X84047619Y-70333333D01*
X84095238Y-70428571D01*
X84095238Y-70952380D01*
X54904761Y-70285714D02*
X54904761Y-71095238D01*
X54857142Y-71190476D01*
X54809523Y-71238095D01*
X54714285Y-71285714D01*
X54571428Y-71285714D01*
X54476190Y-71238095D01*
X54904761Y-70904761D02*
X54809523Y-70952380D01*
X54619047Y-70952380D01*
X54523809Y-70904761D01*
X54476190Y-70857142D01*
X54428571Y-70761904D01*
X54428571Y-70476190D01*
X54476190Y-70380952D01*
X54523809Y-70333333D01*
X54619047Y-70285714D01*
X54809523Y-70285714D01*
X54904761Y-70333333D01*
X55380952Y-70952380D02*
X55380952Y-70285714D01*
X55380952Y-70476190D02*
X55428571Y-70380952D01*
X55476190Y-70333333D01*
X55571428Y-70285714D01*
X55666666Y-70285714D01*
X108000000Y-48820000D02*
G75*
G03*
X108000000Y-48820000I-2000000J0D01*
G01*
X108000000Y-28500000D02*
G75*
G03*
X108000000Y-28500000I-2000000J0D01*
G01*
D11*
X95110000Y-56890000D02*
X95110000Y-60610000D01*
X95110000Y-60610000D02*
X105130000Y-60610000D01*
X105130000Y-60610000D02*
X105130000Y-56890000D01*
X105130000Y-56890000D02*
X95110000Y-56890000D01*
X93880000Y-58750000D02*
X95110000Y-58750000D01*
X106360000Y-58750000D02*
X105130000Y-58750000D01*
X177090000Y-48750000D02*
G75*
G03*
X177090000Y-48750000I-8090000J0D01*
G01*
X177051000Y-48750000D02*
X160949000Y-48750000D01*
X177050000Y-48790000D02*
X160950000Y-48790000D01*
X177050000Y-48830000D02*
X160950000Y-48830000D01*
X177050000Y-48870000D02*
X160950000Y-48870000D01*
X177049000Y-48910000D02*
X160951000Y-48910000D01*
X177048000Y-48950000D02*
X160952000Y-48950000D01*
X177047000Y-48990000D02*
X160953000Y-48990000D01*
X177046000Y-49030000D02*
X160954000Y-49030000D01*
X177044000Y-49070000D02*
X160956000Y-49070000D01*
X177042000Y-49110000D02*
X160958000Y-49110000D01*
X177041000Y-49150000D02*
X160959000Y-49150000D01*
X177039000Y-49190000D02*
X160961000Y-49190000D01*
X177036000Y-49230000D02*
X160964000Y-49230000D01*
X177034000Y-49270000D02*
X160966000Y-49270000D01*
X177031000Y-49310000D02*
X160969000Y-49310000D01*
X177028000Y-49350000D02*
X160972000Y-49350000D01*
X177025000Y-49390000D02*
X160975000Y-49390000D01*
X177022000Y-49430000D02*
X160978000Y-49430000D01*
X177018000Y-49471000D02*
X160982000Y-49471000D01*
X177015000Y-49511000D02*
X160985000Y-49511000D01*
X177011000Y-49551000D02*
X160989000Y-49551000D01*
X177007000Y-49591000D02*
X160993000Y-49591000D01*
X177002000Y-49631000D02*
X160998000Y-49631000D01*
X176998000Y-49671000D02*
X161002000Y-49671000D01*
X176993000Y-49711000D02*
X161007000Y-49711000D01*
X176988000Y-49751000D02*
X161012000Y-49751000D01*
X176983000Y-49791000D02*
X161017000Y-49791000D01*
X176978000Y-49831000D02*
X161022000Y-49831000D01*
X176973000Y-49871000D02*
X161027000Y-49871000D01*
X176967000Y-49911000D02*
X161033000Y-49911000D01*
X176961000Y-49951000D02*
X161039000Y-49951000D01*
X176955000Y-49991000D02*
X161045000Y-49991000D01*
X176949000Y-50031000D02*
X161051000Y-50031000D01*
X176942000Y-50071000D02*
X161058000Y-50071000D01*
X176935000Y-50111000D02*
X161065000Y-50111000D01*
X176928000Y-50151000D02*
X161072000Y-50151000D01*
X176921000Y-50191000D02*
X161079000Y-50191000D01*
X176914000Y-50231000D02*
X161086000Y-50231000D01*
X176906000Y-50271000D02*
X161094000Y-50271000D01*
X176899000Y-50311000D02*
X161101000Y-50311000D01*
X176891000Y-50351000D02*
X161109000Y-50351000D01*
X176883000Y-50391000D02*
X161117000Y-50391000D01*
X176874000Y-50431000D02*
X161126000Y-50431000D01*
X176866000Y-50471000D02*
X161134000Y-50471000D01*
X176857000Y-50511000D02*
X161143000Y-50511000D01*
X176848000Y-50551000D02*
X161152000Y-50551000D01*
X176838000Y-50591000D02*
X161162000Y-50591000D01*
X176829000Y-50631000D02*
X161171000Y-50631000D01*
X176819000Y-50671000D02*
X161181000Y-50671000D01*
X176809000Y-50711000D02*
X161191000Y-50711000D01*
X176799000Y-50751000D02*
X161201000Y-50751000D01*
X176789000Y-50791000D02*
X161211000Y-50791000D01*
X176779000Y-50831000D02*
X161221000Y-50831000D01*
X176768000Y-50871000D02*
X161232000Y-50871000D01*
X176757000Y-50911000D02*
X161243000Y-50911000D01*
X176746000Y-50951000D02*
X161254000Y-50951000D01*
X176734000Y-50991000D02*
X161266000Y-50991000D01*
X176723000Y-51031000D02*
X161277000Y-51031000D01*
X176711000Y-51071000D02*
X161289000Y-51071000D01*
X176699000Y-51111000D02*
X161301000Y-51111000D01*
X176686000Y-51151000D02*
X170380000Y-51151000D01*
X167620000Y-51151000D02*
X161314000Y-51151000D01*
X176674000Y-51191000D02*
X170380000Y-51191000D01*
X167620000Y-51191000D02*
X161326000Y-51191000D01*
X176661000Y-51231000D02*
X170380000Y-51231000D01*
X167620000Y-51231000D02*
X161339000Y-51231000D01*
X176648000Y-51271000D02*
X170380000Y-51271000D01*
X167620000Y-51271000D02*
X161352000Y-51271000D01*
X176635000Y-51311000D02*
X170380000Y-51311000D01*
X167620000Y-51311000D02*
X161365000Y-51311000D01*
X176621000Y-51351000D02*
X170380000Y-51351000D01*
X167620000Y-51351000D02*
X161379000Y-51351000D01*
X176608000Y-51391000D02*
X170380000Y-51391000D01*
X167620000Y-51391000D02*
X161392000Y-51391000D01*
X176594000Y-51431000D02*
X170380000Y-51431000D01*
X167620000Y-51431000D02*
X161406000Y-51431000D01*
X176580000Y-51471000D02*
X170380000Y-51471000D01*
X167620000Y-51471000D02*
X161420000Y-51471000D01*
X176565000Y-51511000D02*
X170380000Y-51511000D01*
X167620000Y-51511000D02*
X161435000Y-51511000D01*
X176550000Y-51551000D02*
X170380000Y-51551000D01*
X167620000Y-51551000D02*
X161450000Y-51551000D01*
X176536000Y-51591000D02*
X170380000Y-51591000D01*
X167620000Y-51591000D02*
X161464000Y-51591000D01*
X176521000Y-51631000D02*
X170380000Y-51631000D01*
X167620000Y-51631000D02*
X161479000Y-51631000D01*
X176505000Y-51671000D02*
X170380000Y-51671000D01*
X167620000Y-51671000D02*
X161495000Y-51671000D01*
X176490000Y-51711000D02*
X170380000Y-51711000D01*
X167620000Y-51711000D02*
X161510000Y-51711000D01*
X176474000Y-51751000D02*
X170380000Y-51751000D01*
X167620000Y-51751000D02*
X161526000Y-51751000D01*
X176458000Y-51791000D02*
X170380000Y-51791000D01*
X167620000Y-51791000D02*
X161542000Y-51791000D01*
X176441000Y-51831000D02*
X170380000Y-51831000D01*
X167620000Y-51831000D02*
X161559000Y-51831000D01*
X176425000Y-51871000D02*
X170380000Y-51871000D01*
X167620000Y-51871000D02*
X161575000Y-51871000D01*
X176408000Y-51911000D02*
X170380000Y-51911000D01*
X167620000Y-51911000D02*
X161592000Y-51911000D01*
X176391000Y-51951000D02*
X170380000Y-51951000D01*
X167620000Y-51951000D02*
X161609000Y-51951000D01*
X176373000Y-51991000D02*
X170380000Y-51991000D01*
X167620000Y-51991000D02*
X161627000Y-51991000D01*
X176356000Y-52031000D02*
X170380000Y-52031000D01*
X167620000Y-52031000D02*
X161644000Y-52031000D01*
X176338000Y-52071000D02*
X170380000Y-52071000D01*
X167620000Y-52071000D02*
X161662000Y-52071000D01*
X176320000Y-52111000D02*
X170380000Y-52111000D01*
X167620000Y-52111000D02*
X161680000Y-52111000D01*
X176301000Y-52151000D02*
X170380000Y-52151000D01*
X167620000Y-52151000D02*
X161699000Y-52151000D01*
X176283000Y-52191000D02*
X170380000Y-52191000D01*
X167620000Y-52191000D02*
X161717000Y-52191000D01*
X176264000Y-52231000D02*
X170380000Y-52231000D01*
X167620000Y-52231000D02*
X161736000Y-52231000D01*
X176245000Y-52271000D02*
X170380000Y-52271000D01*
X167620000Y-52271000D02*
X161755000Y-52271000D01*
X176225000Y-52311000D02*
X170380000Y-52311000D01*
X167620000Y-52311000D02*
X161775000Y-52311000D01*
X176205000Y-52351000D02*
X170380000Y-52351000D01*
X167620000Y-52351000D02*
X161795000Y-52351000D01*
X176185000Y-52391000D02*
X170380000Y-52391000D01*
X167620000Y-52391000D02*
X161815000Y-52391000D01*
X176165000Y-52431000D02*
X170380000Y-52431000D01*
X167620000Y-52431000D02*
X161835000Y-52431000D01*
X176144000Y-52471000D02*
X170380000Y-52471000D01*
X167620000Y-52471000D02*
X161856000Y-52471000D01*
X176124000Y-52511000D02*
X170380000Y-52511000D01*
X167620000Y-52511000D02*
X161876000Y-52511000D01*
X176102000Y-52551000D02*
X170380000Y-52551000D01*
X167620000Y-52551000D02*
X161898000Y-52551000D01*
X176081000Y-52591000D02*
X170380000Y-52591000D01*
X167620000Y-52591000D02*
X161919000Y-52591000D01*
X176059000Y-52631000D02*
X170380000Y-52631000D01*
X167620000Y-52631000D02*
X161941000Y-52631000D01*
X176037000Y-52671000D02*
X170380000Y-52671000D01*
X167620000Y-52671000D02*
X161963000Y-52671000D01*
X176015000Y-52711000D02*
X170380000Y-52711000D01*
X167620000Y-52711000D02*
X161985000Y-52711000D01*
X175992000Y-52751000D02*
X170380000Y-52751000D01*
X167620000Y-52751000D02*
X162008000Y-52751000D01*
X175970000Y-52791000D02*
X170380000Y-52791000D01*
X167620000Y-52791000D02*
X162030000Y-52791000D01*
X175946000Y-52831000D02*
X170380000Y-52831000D01*
X167620000Y-52831000D02*
X162054000Y-52831000D01*
X175923000Y-52871000D02*
X170380000Y-52871000D01*
X167620000Y-52871000D02*
X162077000Y-52871000D01*
X175899000Y-52911000D02*
X170380000Y-52911000D01*
X167620000Y-52911000D02*
X162101000Y-52911000D01*
X175875000Y-52951000D02*
X170380000Y-52951000D01*
X167620000Y-52951000D02*
X162125000Y-52951000D01*
X175850000Y-52991000D02*
X170380000Y-52991000D01*
X167620000Y-52991000D02*
X162150000Y-52991000D01*
X175826000Y-53031000D02*
X170380000Y-53031000D01*
X167620000Y-53031000D02*
X162174000Y-53031000D01*
X175801000Y-53071000D02*
X170380000Y-53071000D01*
X167620000Y-53071000D02*
X162199000Y-53071000D01*
X175775000Y-53111000D02*
X170380000Y-53111000D01*
X167620000Y-53111000D02*
X162225000Y-53111000D01*
X175749000Y-53151000D02*
X170380000Y-53151000D01*
X167620000Y-53151000D02*
X162251000Y-53151000D01*
X175723000Y-53191000D02*
X170380000Y-53191000D01*
X167620000Y-53191000D02*
X162277000Y-53191000D01*
X175697000Y-53231000D02*
X170380000Y-53231000D01*
X167620000Y-53231000D02*
X162303000Y-53231000D01*
X175670000Y-53271000D02*
X170380000Y-53271000D01*
X167620000Y-53271000D02*
X162330000Y-53271000D01*
X175643000Y-53311000D02*
X170380000Y-53311000D01*
X167620000Y-53311000D02*
X162357000Y-53311000D01*
X175615000Y-53351000D02*
X170380000Y-53351000D01*
X167620000Y-53351000D02*
X162385000Y-53351000D01*
X175588000Y-53391000D02*
X170380000Y-53391000D01*
X167620000Y-53391000D02*
X162412000Y-53391000D01*
X175559000Y-53431000D02*
X170380000Y-53431000D01*
X167620000Y-53431000D02*
X162441000Y-53431000D01*
X175531000Y-53471000D02*
X170380000Y-53471000D01*
X167620000Y-53471000D02*
X162469000Y-53471000D01*
X175502000Y-53511000D02*
X170380000Y-53511000D01*
X167620000Y-53511000D02*
X162498000Y-53511000D01*
X175473000Y-53551000D02*
X170380000Y-53551000D01*
X167620000Y-53551000D02*
X162527000Y-53551000D01*
X175443000Y-53591000D02*
X170380000Y-53591000D01*
X167620000Y-53591000D02*
X162557000Y-53591000D01*
X175413000Y-53631000D02*
X170380000Y-53631000D01*
X167620000Y-53631000D02*
X162587000Y-53631000D01*
X175382000Y-53671000D02*
X170380000Y-53671000D01*
X167620000Y-53671000D02*
X162618000Y-53671000D01*
X175352000Y-53711000D02*
X170380000Y-53711000D01*
X167620000Y-53711000D02*
X162648000Y-53711000D01*
X175320000Y-53751000D02*
X170380000Y-53751000D01*
X167620000Y-53751000D02*
X162680000Y-53751000D01*
X175289000Y-53791000D02*
X170380000Y-53791000D01*
X167620000Y-53791000D02*
X162711000Y-53791000D01*
X175257000Y-53831000D02*
X170380000Y-53831000D01*
X167620000Y-53831000D02*
X162743000Y-53831000D01*
X175224000Y-53871000D02*
X170380000Y-53871000D01*
X167620000Y-53871000D02*
X162776000Y-53871000D01*
X175191000Y-53911000D02*
X162809000Y-53911000D01*
X175158000Y-53951000D02*
X162842000Y-53951000D01*
X175124000Y-53991000D02*
X162876000Y-53991000D01*
X175090000Y-54031000D02*
X162910000Y-54031000D01*
X175055000Y-54071000D02*
X162945000Y-54071000D01*
X175020000Y-54111000D02*
X162980000Y-54111000D01*
X174984000Y-54151000D02*
X163016000Y-54151000D01*
X174948000Y-54191000D02*
X163052000Y-54191000D01*
X174912000Y-54231000D02*
X163088000Y-54231000D01*
X174875000Y-54271000D02*
X163125000Y-54271000D01*
X174837000Y-54311000D02*
X163163000Y-54311000D01*
X174799000Y-54351000D02*
X163201000Y-54351000D01*
X174760000Y-54391000D02*
X163240000Y-54391000D01*
X174721000Y-54431000D02*
X163279000Y-54431000D01*
X174681000Y-54471000D02*
X163319000Y-54471000D01*
X174641000Y-54511000D02*
X163359000Y-54511000D01*
X174600000Y-54551000D02*
X163400000Y-54551000D01*
X174559000Y-54591000D02*
X163441000Y-54591000D01*
X174517000Y-54631000D02*
X163483000Y-54631000D01*
X174474000Y-54671000D02*
X163526000Y-54671000D01*
X174431000Y-54711000D02*
X163569000Y-54711000D01*
X174387000Y-54751000D02*
X163613000Y-54751000D01*
X174343000Y-54791000D02*
X163657000Y-54791000D01*
X174297000Y-54831000D02*
X163703000Y-54831000D01*
X174251000Y-54871000D02*
X163749000Y-54871000D01*
X174205000Y-54911000D02*
X163795000Y-54911000D01*
X174157000Y-54951000D02*
X163843000Y-54951000D01*
X174109000Y-54991000D02*
X163891000Y-54991000D01*
X174060000Y-55031000D02*
X163940000Y-55031000D01*
X174011000Y-55071000D02*
X163989000Y-55071000D01*
X173960000Y-55111000D02*
X164040000Y-55111000D01*
X173909000Y-55151000D02*
X164091000Y-55151000D01*
X173857000Y-55191000D02*
X164143000Y-55191000D01*
X173804000Y-55231000D02*
X164196000Y-55231000D01*
X173750000Y-55271000D02*
X164250000Y-55271000D01*
X173695000Y-55311000D02*
X164305000Y-55311000D01*
X173639000Y-55351000D02*
X164361000Y-55351000D01*
X173582000Y-55391000D02*
X164418000Y-55391000D01*
X173524000Y-55431000D02*
X164476000Y-55431000D01*
X173465000Y-55471000D02*
X164535000Y-55471000D01*
X173405000Y-55511000D02*
X164595000Y-55511000D01*
X173343000Y-55551000D02*
X164657000Y-55551000D01*
X173281000Y-55591000D02*
X164719000Y-55591000D01*
X173217000Y-55631000D02*
X164783000Y-55631000D01*
X173151000Y-55671000D02*
X164849000Y-55671000D01*
X173084000Y-55711000D02*
X164916000Y-55711000D01*
X173016000Y-55751000D02*
X164984000Y-55751000D01*
X172946000Y-55791000D02*
X165054000Y-55791000D01*
X172875000Y-55831000D02*
X165125000Y-55831000D01*
X172802000Y-55871000D02*
X165198000Y-55871000D01*
X172726000Y-55911000D02*
X165274000Y-55911000D01*
X172649000Y-55951000D02*
X165351000Y-55951000D01*
X172570000Y-55991000D02*
X165430000Y-55991000D01*
X172489000Y-56031000D02*
X165511000Y-56031000D01*
X172405000Y-56071000D02*
X165595000Y-56071000D01*
X172319000Y-56111000D02*
X165681000Y-56111000D01*
X172230000Y-56151000D02*
X165770000Y-56151000D01*
X172138000Y-56191000D02*
X165862000Y-56191000D01*
X172042000Y-56231000D02*
X165958000Y-56231000D01*
X171943000Y-56271000D02*
X166057000Y-56271000D01*
X171841000Y-56311000D02*
X166159000Y-56311000D01*
X171733000Y-56351000D02*
X166267000Y-56351000D01*
X171621000Y-56391000D02*
X166379000Y-56391000D01*
X171503000Y-56431000D02*
X166497000Y-56431000D01*
X171379000Y-56471000D02*
X166621000Y-56471000D01*
X171248000Y-56511000D02*
X166752000Y-56511000D01*
X171107000Y-56551000D02*
X166893000Y-56551000D01*
X170956000Y-56591000D02*
X167044000Y-56591000D01*
X170792000Y-56631000D02*
X167208000Y-56631000D01*
X170610000Y-56671000D02*
X167390000Y-56671000D01*
X170405000Y-56711000D02*
X167595000Y-56711000D01*
X170164000Y-56751000D02*
X167836000Y-56751000D01*
X169859000Y-56791000D02*
X168141000Y-56791000D01*
X169363000Y-56831000D02*
X168637000Y-56831000D01*
X169000000Y-41800000D02*
X169000000Y-43600000D01*
X169900000Y-42700000D02*
X168100000Y-42700000D01*
X69810000Y-30110000D02*
X65190000Y-30110000D01*
X65190000Y-30110000D02*
X65190000Y-42130000D01*
X65190000Y-42130000D02*
X69810000Y-42130000D01*
X69810000Y-42130000D02*
X69810000Y-30110000D01*
X67500000Y-29880000D02*
X67500000Y-30110000D01*
X67500000Y-42360000D02*
X67500000Y-42130000D01*
X62310000Y-30110000D02*
X57690000Y-30110000D01*
X57690000Y-30110000D02*
X57690000Y-42130000D01*
X57690000Y-42130000D02*
X62310000Y-42130000D01*
X62310000Y-42130000D02*
X62310000Y-30110000D01*
X60000000Y-29880000D02*
X60000000Y-30110000D01*
X60000000Y-42360000D02*
X60000000Y-42130000D01*
X142690000Y-42130000D02*
X147310000Y-42130000D01*
X147310000Y-42130000D02*
X147310000Y-30110000D01*
X147310000Y-30110000D02*
X142690000Y-30110000D01*
X142690000Y-30110000D02*
X142690000Y-42130000D01*
X145000000Y-42360000D02*
X145000000Y-42130000D01*
X145000000Y-29880000D02*
X145000000Y-30110000D01*
X135190000Y-42130000D02*
X139810000Y-42130000D01*
X139810000Y-42130000D02*
X139810000Y-30110000D01*
X139810000Y-30110000D02*
X135190000Y-30110000D01*
X135190000Y-30110000D02*
X135190000Y-42130000D01*
X137500000Y-42360000D02*
X137500000Y-42130000D01*
X137500000Y-29880000D02*
X137500000Y-30110000D01*
X44090000Y-48750000D02*
G75*
G03*
X44090000Y-48750000I-8090000J0D01*
G01*
X27949000Y-48750000D02*
X44051000Y-48750000D01*
X27950000Y-48710000D02*
X44050000Y-48710000D01*
X27950000Y-48670000D02*
X44050000Y-48670000D01*
X27950000Y-48630000D02*
X44050000Y-48630000D01*
X27951000Y-48590000D02*
X44049000Y-48590000D01*
X27952000Y-48550000D02*
X44048000Y-48550000D01*
X27953000Y-48510000D02*
X44047000Y-48510000D01*
X27954000Y-48470000D02*
X44046000Y-48470000D01*
X27956000Y-48430000D02*
X44044000Y-48430000D01*
X27958000Y-48390000D02*
X44042000Y-48390000D01*
X27959000Y-48350000D02*
X44041000Y-48350000D01*
X27961000Y-48310000D02*
X44039000Y-48310000D01*
X27964000Y-48270000D02*
X44036000Y-48270000D01*
X27966000Y-48230000D02*
X44034000Y-48230000D01*
X27969000Y-48190000D02*
X44031000Y-48190000D01*
X27972000Y-48150000D02*
X44028000Y-48150000D01*
X27975000Y-48110000D02*
X44025000Y-48110000D01*
X27978000Y-48070000D02*
X44022000Y-48070000D01*
X27982000Y-48029000D02*
X44018000Y-48029000D01*
X27985000Y-47989000D02*
X44015000Y-47989000D01*
X27989000Y-47949000D02*
X44011000Y-47949000D01*
X27993000Y-47909000D02*
X44007000Y-47909000D01*
X27998000Y-47869000D02*
X44002000Y-47869000D01*
X28002000Y-47829000D02*
X43998000Y-47829000D01*
X28007000Y-47789000D02*
X43993000Y-47789000D01*
X28012000Y-47749000D02*
X43988000Y-47749000D01*
X28017000Y-47709000D02*
X43983000Y-47709000D01*
X28022000Y-47669000D02*
X43978000Y-47669000D01*
X28027000Y-47629000D02*
X43973000Y-47629000D01*
X28033000Y-47589000D02*
X43967000Y-47589000D01*
X28039000Y-47549000D02*
X43961000Y-47549000D01*
X28045000Y-47509000D02*
X43955000Y-47509000D01*
X28051000Y-47469000D02*
X43949000Y-47469000D01*
X28058000Y-47429000D02*
X43942000Y-47429000D01*
X28065000Y-47389000D02*
X43935000Y-47389000D01*
X28072000Y-47349000D02*
X43928000Y-47349000D01*
X28079000Y-47309000D02*
X43921000Y-47309000D01*
X28086000Y-47269000D02*
X43914000Y-47269000D01*
X28094000Y-47229000D02*
X43906000Y-47229000D01*
X28101000Y-47189000D02*
X43899000Y-47189000D01*
X28109000Y-47149000D02*
X43891000Y-47149000D01*
X28117000Y-47109000D02*
X43883000Y-47109000D01*
X28126000Y-47069000D02*
X43874000Y-47069000D01*
X28134000Y-47029000D02*
X43866000Y-47029000D01*
X28143000Y-46989000D02*
X43857000Y-46989000D01*
X28152000Y-46949000D02*
X43848000Y-46949000D01*
X28162000Y-46909000D02*
X43838000Y-46909000D01*
X28171000Y-46869000D02*
X43829000Y-46869000D01*
X28181000Y-46829000D02*
X43819000Y-46829000D01*
X28191000Y-46789000D02*
X43809000Y-46789000D01*
X28201000Y-46749000D02*
X43799000Y-46749000D01*
X28211000Y-46709000D02*
X43789000Y-46709000D01*
X28221000Y-46669000D02*
X43779000Y-46669000D01*
X28232000Y-46629000D02*
X43768000Y-46629000D01*
X28243000Y-46589000D02*
X43757000Y-46589000D01*
X28254000Y-46549000D02*
X43746000Y-46549000D01*
X28266000Y-46509000D02*
X43734000Y-46509000D01*
X28277000Y-46469000D02*
X43723000Y-46469000D01*
X28289000Y-46429000D02*
X43711000Y-46429000D01*
X28301000Y-46389000D02*
X43699000Y-46389000D01*
X28314000Y-46349000D02*
X34620000Y-46349000D01*
X37380000Y-46349000D02*
X43686000Y-46349000D01*
X28326000Y-46309000D02*
X34620000Y-46309000D01*
X37380000Y-46309000D02*
X43674000Y-46309000D01*
X28339000Y-46269000D02*
X34620000Y-46269000D01*
X37380000Y-46269000D02*
X43661000Y-46269000D01*
X28352000Y-46229000D02*
X34620000Y-46229000D01*
X37380000Y-46229000D02*
X43648000Y-46229000D01*
X28365000Y-46189000D02*
X34620000Y-46189000D01*
X37380000Y-46189000D02*
X43635000Y-46189000D01*
X28379000Y-46149000D02*
X34620000Y-46149000D01*
X37380000Y-46149000D02*
X43621000Y-46149000D01*
X28392000Y-46109000D02*
X34620000Y-46109000D01*
X37380000Y-46109000D02*
X43608000Y-46109000D01*
X28406000Y-46069000D02*
X34620000Y-46069000D01*
X37380000Y-46069000D02*
X43594000Y-46069000D01*
X28420000Y-46029000D02*
X34620000Y-46029000D01*
X37380000Y-46029000D02*
X43580000Y-46029000D01*
X28435000Y-45989000D02*
X34620000Y-45989000D01*
X37380000Y-45989000D02*
X43565000Y-45989000D01*
X28450000Y-45949000D02*
X34620000Y-45949000D01*
X37380000Y-45949000D02*
X43550000Y-45949000D01*
X28464000Y-45909000D02*
X34620000Y-45909000D01*
X37380000Y-45909000D02*
X43536000Y-45909000D01*
X28479000Y-45869000D02*
X34620000Y-45869000D01*
X37380000Y-45869000D02*
X43521000Y-45869000D01*
X28495000Y-45829000D02*
X34620000Y-45829000D01*
X37380000Y-45829000D02*
X43505000Y-45829000D01*
X28510000Y-45789000D02*
X34620000Y-45789000D01*
X37380000Y-45789000D02*
X43490000Y-45789000D01*
X28526000Y-45749000D02*
X34620000Y-45749000D01*
X37380000Y-45749000D02*
X43474000Y-45749000D01*
X28542000Y-45709000D02*
X34620000Y-45709000D01*
X37380000Y-45709000D02*
X43458000Y-45709000D01*
X28559000Y-45669000D02*
X34620000Y-45669000D01*
X37380000Y-45669000D02*
X43441000Y-45669000D01*
X28575000Y-45629000D02*
X34620000Y-45629000D01*
X37380000Y-45629000D02*
X43425000Y-45629000D01*
X28592000Y-45589000D02*
X34620000Y-45589000D01*
X37380000Y-45589000D02*
X43408000Y-45589000D01*
X28609000Y-45549000D02*
X34620000Y-45549000D01*
X37380000Y-45549000D02*
X43391000Y-45549000D01*
X28627000Y-45509000D02*
X34620000Y-45509000D01*
X37380000Y-45509000D02*
X43373000Y-45509000D01*
X28644000Y-45469000D02*
X34620000Y-45469000D01*
X37380000Y-45469000D02*
X43356000Y-45469000D01*
X28662000Y-45429000D02*
X34620000Y-45429000D01*
X37380000Y-45429000D02*
X43338000Y-45429000D01*
X28680000Y-45389000D02*
X34620000Y-45389000D01*
X37380000Y-45389000D02*
X43320000Y-45389000D01*
X28699000Y-45349000D02*
X34620000Y-45349000D01*
X37380000Y-45349000D02*
X43301000Y-45349000D01*
X28717000Y-45309000D02*
X34620000Y-45309000D01*
X37380000Y-45309000D02*
X43283000Y-45309000D01*
X28736000Y-45269000D02*
X34620000Y-45269000D01*
X37380000Y-45269000D02*
X43264000Y-45269000D01*
X28755000Y-45229000D02*
X34620000Y-45229000D01*
X37380000Y-45229000D02*
X43245000Y-45229000D01*
X28775000Y-45189000D02*
X34620000Y-45189000D01*
X37380000Y-45189000D02*
X43225000Y-45189000D01*
X28795000Y-45149000D02*
X34620000Y-45149000D01*
X37380000Y-45149000D02*
X43205000Y-45149000D01*
X28815000Y-45109000D02*
X34620000Y-45109000D01*
X37380000Y-45109000D02*
X43185000Y-45109000D01*
X28835000Y-45069000D02*
X34620000Y-45069000D01*
X37380000Y-45069000D02*
X43165000Y-45069000D01*
X28856000Y-45029000D02*
X34620000Y-45029000D01*
X37380000Y-45029000D02*
X43144000Y-45029000D01*
X28876000Y-44989000D02*
X34620000Y-44989000D01*
X37380000Y-44989000D02*
X43124000Y-44989000D01*
X28898000Y-44949000D02*
X34620000Y-44949000D01*
X37380000Y-44949000D02*
X43102000Y-44949000D01*
X28919000Y-44909000D02*
X34620000Y-44909000D01*
X37380000Y-44909000D02*
X43081000Y-44909000D01*
X28941000Y-44869000D02*
X34620000Y-44869000D01*
X37380000Y-44869000D02*
X43059000Y-44869000D01*
X28963000Y-44829000D02*
X34620000Y-44829000D01*
X37380000Y-44829000D02*
X43037000Y-44829000D01*
X28985000Y-44789000D02*
X34620000Y-44789000D01*
X37380000Y-44789000D02*
X43015000Y-44789000D01*
X29008000Y-44749000D02*
X34620000Y-44749000D01*
X37380000Y-44749000D02*
X42992000Y-44749000D01*
X29030000Y-44709000D02*
X34620000Y-44709000D01*
X37380000Y-44709000D02*
X42970000Y-44709000D01*
X29054000Y-44669000D02*
X34620000Y-44669000D01*
X37380000Y-44669000D02*
X42946000Y-44669000D01*
X29077000Y-44629000D02*
X34620000Y-44629000D01*
X37380000Y-44629000D02*
X42923000Y-44629000D01*
X29101000Y-44589000D02*
X34620000Y-44589000D01*
X37380000Y-44589000D02*
X42899000Y-44589000D01*
X29125000Y-44549000D02*
X34620000Y-44549000D01*
X37380000Y-44549000D02*
X42875000Y-44549000D01*
X29150000Y-44509000D02*
X34620000Y-44509000D01*
X37380000Y-44509000D02*
X42850000Y-44509000D01*
X29174000Y-44469000D02*
X34620000Y-44469000D01*
X37380000Y-44469000D02*
X42826000Y-44469000D01*
X29199000Y-44429000D02*
X34620000Y-44429000D01*
X37380000Y-44429000D02*
X42801000Y-44429000D01*
X29225000Y-44389000D02*
X34620000Y-44389000D01*
X37380000Y-44389000D02*
X42775000Y-44389000D01*
X29251000Y-44349000D02*
X34620000Y-44349000D01*
X37380000Y-44349000D02*
X42749000Y-44349000D01*
X29277000Y-44309000D02*
X34620000Y-44309000D01*
X37380000Y-44309000D02*
X42723000Y-44309000D01*
X29303000Y-44269000D02*
X34620000Y-44269000D01*
X37380000Y-44269000D02*
X42697000Y-44269000D01*
X29330000Y-44229000D02*
X34620000Y-44229000D01*
X37380000Y-44229000D02*
X42670000Y-44229000D01*
X29357000Y-44189000D02*
X34620000Y-44189000D01*
X37380000Y-44189000D02*
X42643000Y-44189000D01*
X29385000Y-44149000D02*
X34620000Y-44149000D01*
X37380000Y-44149000D02*
X42615000Y-44149000D01*
X29412000Y-44109000D02*
X34620000Y-44109000D01*
X37380000Y-44109000D02*
X42588000Y-44109000D01*
X29441000Y-44069000D02*
X34620000Y-44069000D01*
X37380000Y-44069000D02*
X42559000Y-44069000D01*
X29469000Y-44029000D02*
X34620000Y-44029000D01*
X37380000Y-44029000D02*
X42531000Y-44029000D01*
X29498000Y-43989000D02*
X34620000Y-43989000D01*
X37380000Y-43989000D02*
X42502000Y-43989000D01*
X29527000Y-43949000D02*
X34620000Y-43949000D01*
X37380000Y-43949000D02*
X42473000Y-43949000D01*
X29557000Y-43909000D02*
X34620000Y-43909000D01*
X37380000Y-43909000D02*
X42443000Y-43909000D01*
X29587000Y-43869000D02*
X34620000Y-43869000D01*
X37380000Y-43869000D02*
X42413000Y-43869000D01*
X29618000Y-43829000D02*
X34620000Y-43829000D01*
X37380000Y-43829000D02*
X42382000Y-43829000D01*
X29648000Y-43789000D02*
X34620000Y-43789000D01*
X37380000Y-43789000D02*
X42352000Y-43789000D01*
X29680000Y-43749000D02*
X34620000Y-43749000D01*
X37380000Y-43749000D02*
X42320000Y-43749000D01*
X29711000Y-43709000D02*
X34620000Y-43709000D01*
X37380000Y-43709000D02*
X42289000Y-43709000D01*
X29743000Y-43669000D02*
X34620000Y-43669000D01*
X37380000Y-43669000D02*
X42257000Y-43669000D01*
X29776000Y-43629000D02*
X34620000Y-43629000D01*
X37380000Y-43629000D02*
X42224000Y-43629000D01*
X29809000Y-43589000D02*
X42191000Y-43589000D01*
X29842000Y-43549000D02*
X42158000Y-43549000D01*
X29876000Y-43509000D02*
X42124000Y-43509000D01*
X29910000Y-43469000D02*
X42090000Y-43469000D01*
X29945000Y-43429000D02*
X42055000Y-43429000D01*
X29980000Y-43389000D02*
X42020000Y-43389000D01*
X30016000Y-43349000D02*
X41984000Y-43349000D01*
X30052000Y-43309000D02*
X41948000Y-43309000D01*
X30088000Y-43269000D02*
X41912000Y-43269000D01*
X30125000Y-43229000D02*
X41875000Y-43229000D01*
X30163000Y-43189000D02*
X41837000Y-43189000D01*
X30201000Y-43149000D02*
X41799000Y-43149000D01*
X30240000Y-43109000D02*
X41760000Y-43109000D01*
X30279000Y-43069000D02*
X41721000Y-43069000D01*
X30319000Y-43029000D02*
X41681000Y-43029000D01*
X30359000Y-42989000D02*
X41641000Y-42989000D01*
X30400000Y-42949000D02*
X41600000Y-42949000D01*
X30441000Y-42909000D02*
X41559000Y-42909000D01*
X30483000Y-42869000D02*
X41517000Y-42869000D01*
X30526000Y-42829000D02*
X41474000Y-42829000D01*
X30569000Y-42789000D02*
X41431000Y-42789000D01*
X30613000Y-42749000D02*
X41387000Y-42749000D01*
X30657000Y-42709000D02*
X41343000Y-42709000D01*
X30703000Y-42669000D02*
X41297000Y-42669000D01*
X30749000Y-42629000D02*
X41251000Y-42629000D01*
X30795000Y-42589000D02*
X41205000Y-42589000D01*
X30843000Y-42549000D02*
X41157000Y-42549000D01*
X30891000Y-42509000D02*
X41109000Y-42509000D01*
X30940000Y-42469000D02*
X41060000Y-42469000D01*
X30989000Y-42429000D02*
X41011000Y-42429000D01*
X31040000Y-42389000D02*
X40960000Y-42389000D01*
X31091000Y-42349000D02*
X40909000Y-42349000D01*
X31143000Y-42309000D02*
X40857000Y-42309000D01*
X31196000Y-42269000D02*
X40804000Y-42269000D01*
X31250000Y-42229000D02*
X40750000Y-42229000D01*
X31305000Y-42189000D02*
X40695000Y-42189000D01*
X31361000Y-42149000D02*
X40639000Y-42149000D01*
X31418000Y-42109000D02*
X40582000Y-42109000D01*
X31476000Y-42069000D02*
X40524000Y-42069000D01*
X31535000Y-42029000D02*
X40465000Y-42029000D01*
X31595000Y-41989000D02*
X40405000Y-41989000D01*
X31657000Y-41949000D02*
X40343000Y-41949000D01*
X31719000Y-41909000D02*
X40281000Y-41909000D01*
X31783000Y-41869000D02*
X40217000Y-41869000D01*
X31849000Y-41829000D02*
X40151000Y-41829000D01*
X31916000Y-41789000D02*
X40084000Y-41789000D01*
X31984000Y-41749000D02*
X40016000Y-41749000D01*
X32054000Y-41709000D02*
X39946000Y-41709000D01*
X32125000Y-41669000D02*
X39875000Y-41669000D01*
X32198000Y-41629000D02*
X39802000Y-41629000D01*
X32274000Y-41589000D02*
X39726000Y-41589000D01*
X32351000Y-41549000D02*
X39649000Y-41549000D01*
X32430000Y-41509000D02*
X39570000Y-41509000D01*
X32511000Y-41469000D02*
X39489000Y-41469000D01*
X32595000Y-41429000D02*
X39405000Y-41429000D01*
X32681000Y-41389000D02*
X39319000Y-41389000D01*
X32770000Y-41349000D02*
X39230000Y-41349000D01*
X32862000Y-41309000D02*
X39138000Y-41309000D01*
X32958000Y-41269000D02*
X39042000Y-41269000D01*
X33057000Y-41229000D02*
X38943000Y-41229000D01*
X33159000Y-41189000D02*
X38841000Y-41189000D01*
X33267000Y-41149000D02*
X38733000Y-41149000D01*
X33379000Y-41109000D02*
X38621000Y-41109000D01*
X33497000Y-41069000D02*
X38503000Y-41069000D01*
X33621000Y-41029000D02*
X38379000Y-41029000D01*
X33752000Y-40989000D02*
X38248000Y-40989000D01*
X33893000Y-40949000D02*
X38107000Y-40949000D01*
X34044000Y-40909000D02*
X37956000Y-40909000D01*
X34208000Y-40869000D02*
X37792000Y-40869000D01*
X34390000Y-40829000D02*
X37610000Y-40829000D01*
X34595000Y-40789000D02*
X37405000Y-40789000D01*
X34836000Y-40749000D02*
X37164000Y-40749000D01*
X35141000Y-40709000D02*
X36859000Y-40709000D01*
X35637000Y-40669000D02*
X36363000Y-40669000D01*
X36000000Y-55700000D02*
X36000000Y-53900000D01*
X35100000Y-54800000D02*
X36900000Y-54800000D01*
X146720000Y-52380000D02*
X154960000Y-52380000D01*
X146720000Y-55870000D02*
X154960000Y-55870000D01*
X146720000Y-52380000D02*
X146720000Y-55870000D01*
X154960000Y-52380000D02*
X154960000Y-55870000D01*
X149240000Y-52380000D02*
X149240000Y-53450000D01*
X149240000Y-55550000D02*
X149240000Y-55870000D01*
X152441000Y-52380000D02*
X152441000Y-53960000D01*
X152441000Y-55040000D02*
X152441000Y-55870000D01*
X140441000Y-55040000D02*
X140441000Y-55870000D01*
X140441000Y-52380000D02*
X140441000Y-53960000D01*
X137240000Y-55550000D02*
X137240000Y-55870000D01*
X137240000Y-52380000D02*
X137240000Y-53450000D01*
X142960000Y-52380000D02*
X142960000Y-55870000D01*
X134720000Y-52380000D02*
X134720000Y-55870000D01*
X134720000Y-55870000D02*
X142960000Y-55870000D01*
X134720000Y-52380000D02*
X142960000Y-52380000D01*
X153400000Y-50130000D02*
X148280000Y-50130000D01*
X153400000Y-47510000D02*
X148280000Y-47510000D01*
X153400000Y-50130000D02*
X153400000Y-49816000D01*
X153400000Y-47824000D02*
X153400000Y-47510000D01*
X148280000Y-50130000D02*
X148280000Y-49816000D01*
X148280000Y-47824000D02*
X148280000Y-47510000D01*
X81790000Y-54630000D02*
X81790000Y-52010000D01*
X81790000Y-52010000D02*
X75370000Y-52010000D01*
X75370000Y-52010000D02*
X75370000Y-54630000D01*
X75370000Y-54630000D02*
X81790000Y-54630000D01*
X82680000Y-53320000D02*
X81790000Y-53320000D01*
X74480000Y-53320000D02*
X75370000Y-53320000D01*
X90770000Y-52260000D02*
X90770000Y-54380000D01*
X90770000Y-54380000D02*
X94890000Y-54380000D01*
X94890000Y-54380000D02*
X94890000Y-52260000D01*
X94890000Y-52260000D02*
X90770000Y-52260000D01*
X88730000Y-53320000D02*
X90770000Y-53320000D01*
X96930000Y-53320000D02*
X94890000Y-53320000D01*
X91430000Y-52260000D02*
X91430000Y-54380000D01*
X51600000Y-47510000D02*
X56720000Y-47510000D01*
X51600000Y-50130000D02*
X56720000Y-50130000D01*
X51600000Y-47510000D02*
X51600000Y-47824000D01*
X51600000Y-49816000D02*
X51600000Y-50130000D01*
X56720000Y-47510000D02*
X56720000Y-47824000D01*
X56720000Y-49816000D02*
X56720000Y-50130000D01*
X69470000Y-54630000D02*
X64350000Y-54630000D01*
X69470000Y-52010000D02*
X64350000Y-52010000D01*
X69470000Y-54630000D02*
X69470000Y-54316000D01*
X69470000Y-52324000D02*
X69470000Y-52010000D01*
X64350000Y-54630000D02*
X64350000Y-54316000D01*
X64350000Y-52324000D02*
X64350000Y-52010000D01*
X77660000Y-57190000D02*
X77660000Y-60310000D01*
X70340000Y-57190000D02*
X70340000Y-60310000D01*
X70340000Y-60310000D02*
X77660000Y-60310000D01*
X70340000Y-57190000D02*
X77660000Y-57190000D01*
X59840000Y-60310000D02*
X59840000Y-57190000D01*
X67160000Y-60310000D02*
X67160000Y-57190000D01*
X67160000Y-57190000D02*
X59840000Y-57190000D01*
X67160000Y-60310000D02*
X59840000Y-60310000D01*
X122320000Y-53320000D02*
X123210000Y-53320000D01*
X130520000Y-53320000D02*
X129630000Y-53320000D01*
X123210000Y-54630000D02*
X129630000Y-54630000D01*
X123210000Y-52010000D02*
X123210000Y-54630000D01*
X129630000Y-52010000D02*
X123210000Y-52010000D01*
X129630000Y-54630000D02*
X129630000Y-52010000D01*
X113570000Y-54380000D02*
X113570000Y-52260000D01*
X108070000Y-53320000D02*
X110110000Y-53320000D01*
X116270000Y-53320000D02*
X114230000Y-53320000D01*
X110110000Y-54380000D02*
X114230000Y-54380000D01*
X110110000Y-52260000D02*
X110110000Y-54380000D01*
X114230000Y-52260000D02*
X110110000Y-52260000D01*
X114230000Y-54380000D02*
X114230000Y-52260000D01*
X88160000Y-60060000D02*
X80840000Y-60060000D01*
X88160000Y-57440000D02*
X80840000Y-57440000D01*
X88160000Y-60060000D02*
X88160000Y-57440000D01*
X80840000Y-60060000D02*
X80840000Y-57440000D01*
X141500000Y-68930000D02*
X141500000Y-68040000D01*
X141500000Y-60730000D02*
X141500000Y-61620000D01*
X142810000Y-68040000D02*
X142810000Y-61620000D01*
X140190000Y-68040000D02*
X142810000Y-68040000D01*
X140190000Y-61620000D02*
X140190000Y-68040000D01*
X142810000Y-61620000D02*
X140190000Y-61620000D01*
X136500000Y-68930000D02*
X136500000Y-68040000D01*
X136500000Y-60730000D02*
X136500000Y-61620000D01*
X137810000Y-68040000D02*
X137810000Y-61620000D01*
X135190000Y-68040000D02*
X137810000Y-68040000D01*
X135190000Y-61620000D02*
X135190000Y-68040000D01*
X137810000Y-61620000D02*
X135190000Y-61620000D01*
X146500000Y-68930000D02*
X146500000Y-68040000D01*
X146500000Y-60730000D02*
X146500000Y-61620000D01*
X147810000Y-68040000D02*
X147810000Y-61620000D01*
X145190000Y-68040000D02*
X147810000Y-68040000D01*
X145190000Y-61620000D02*
X145190000Y-68040000D01*
X147810000Y-61620000D02*
X145190000Y-61620000D01*
X131500000Y-68930000D02*
X131500000Y-68040000D01*
X131500000Y-60730000D02*
X131500000Y-61620000D01*
X132810000Y-68040000D02*
X132810000Y-61620000D01*
X130190000Y-68040000D02*
X132810000Y-68040000D01*
X130190000Y-61620000D02*
X130190000Y-68040000D01*
X132810000Y-61620000D02*
X130190000Y-61620000D01*
X123350000Y-64830000D02*
G75*
G03*
X123350000Y-64830000I-1500000J0D01*
G01*
X123286071Y-59821827D02*
G75*
G02*
X127060000Y-64830000I-1436071J-5008173D01*
G01*
X118500053Y-68820617D02*
G75*
G02*
X120679000Y-59753000I3349947J3990617D01*
G01*
X123198867Y-69863072D02*
G75*
G02*
X120856000Y-69945000I-1348867J5033072D01*
G01*
X127059257Y-64739343D02*
G75*
G02*
X125336000Y-68702000I-5209257J-90657D01*
G01*
X135180000Y-50130000D02*
X135180000Y-47510000D01*
X142500000Y-50130000D02*
X142500000Y-47510000D01*
X142500000Y-47510000D02*
X135180000Y-47510000D01*
X142500000Y-50130000D02*
X135180000Y-50130000D01*
X93200000Y-41520000D02*
X93200000Y-38120000D01*
X89250087Y-41270143D02*
G75*
G03*
X90050000Y-42070000I2049913J1250143D01*
G01*
X89250087Y-38369857D02*
G75*
G02*
X90050000Y-37570000I2049913J-1250143D01*
G01*
X92774368Y-41958623D02*
G75*
G03*
X93200000Y-41620000I-1274368J2038623D01*
G01*
X92774368Y-37681377D02*
G75*
G02*
X93200000Y-38020000I-1274368J-2038623D01*
G01*
X111800000Y-38120000D02*
X111800000Y-41520000D01*
X115749913Y-38369857D02*
G75*
G03*
X114950000Y-37570000I-2049913J-1250143D01*
G01*
X115749913Y-41270143D02*
G75*
G02*
X114950000Y-42070000I-2049913J1250143D01*
G01*
X112225632Y-37681377D02*
G75*
G03*
X111800000Y-38020000I1274368J-2038623D01*
G01*
X112225632Y-41958623D02*
G75*
G02*
X111800000Y-41620000I1274368J2038623D01*
G01*
X81790000Y-36630000D02*
X81790000Y-34010000D01*
X81790000Y-34010000D02*
X75370000Y-34010000D01*
X75370000Y-34010000D02*
X75370000Y-36630000D01*
X75370000Y-36630000D02*
X81790000Y-36630000D01*
X82680000Y-35320000D02*
X81790000Y-35320000D01*
X74480000Y-35320000D02*
X75370000Y-35320000D01*
X81790000Y-45630000D02*
X81790000Y-43010000D01*
X81790000Y-43010000D02*
X75370000Y-43010000D01*
X75370000Y-43010000D02*
X75370000Y-45630000D01*
X75370000Y-45630000D02*
X81790000Y-45630000D01*
X82680000Y-44320000D02*
X81790000Y-44320000D01*
X74480000Y-44320000D02*
X75370000Y-44320000D01*
X75370000Y-38510000D02*
X75370000Y-41130000D01*
X75370000Y-41130000D02*
X81790000Y-41130000D01*
X81790000Y-41130000D02*
X81790000Y-38510000D01*
X81790000Y-38510000D02*
X75370000Y-38510000D01*
X74480000Y-39820000D02*
X75370000Y-39820000D01*
X82680000Y-39820000D02*
X81790000Y-39820000D01*
X123210000Y-34010000D02*
X123210000Y-36630000D01*
X123210000Y-36630000D02*
X129630000Y-36630000D01*
X129630000Y-36630000D02*
X129630000Y-34010000D01*
X129630000Y-34010000D02*
X123210000Y-34010000D01*
X122320000Y-35320000D02*
X123210000Y-35320000D01*
X130520000Y-35320000D02*
X129630000Y-35320000D01*
X123210000Y-43010000D02*
X123210000Y-45630000D01*
X123210000Y-45630000D02*
X129630000Y-45630000D01*
X129630000Y-45630000D02*
X129630000Y-43010000D01*
X129630000Y-43010000D02*
X123210000Y-43010000D01*
X122320000Y-44320000D02*
X123210000Y-44320000D01*
X130520000Y-44320000D02*
X129630000Y-44320000D01*
X129630000Y-41130000D02*
X129630000Y-38510000D01*
X129630000Y-38510000D02*
X123210000Y-38510000D01*
X123210000Y-38510000D02*
X123210000Y-41130000D01*
X123210000Y-41130000D02*
X129630000Y-41130000D01*
X130520000Y-39820000D02*
X129630000Y-39820000D01*
X122320000Y-39820000D02*
X123210000Y-39820000D01*
X80640000Y-49880000D02*
X80640000Y-47760000D01*
X80640000Y-47760000D02*
X76520000Y-47760000D01*
X76520000Y-47760000D02*
X76520000Y-49880000D01*
X76520000Y-49880000D02*
X80640000Y-49880000D01*
X82680000Y-48820000D02*
X80640000Y-48820000D01*
X74480000Y-48820000D02*
X76520000Y-48820000D01*
X79980000Y-49880000D02*
X79980000Y-47760000D01*
X128480000Y-49880000D02*
X128480000Y-47760000D01*
X128480000Y-47760000D02*
X124360000Y-47760000D01*
X124360000Y-47760000D02*
X124360000Y-49880000D01*
X124360000Y-49880000D02*
X128480000Y-49880000D01*
X130520000Y-48820000D02*
X128480000Y-48820000D01*
X122320000Y-48820000D02*
X124360000Y-48820000D01*
X127820000Y-49880000D02*
X127820000Y-47760000D01*
X87690000Y-47510000D02*
X92810000Y-47510000D01*
X87690000Y-50130000D02*
X92810000Y-50130000D01*
X87690000Y-47510000D02*
X87690000Y-47824000D01*
X87690000Y-49816000D02*
X87690000Y-50130000D01*
X92810000Y-47510000D02*
X92810000Y-47824000D01*
X92810000Y-49816000D02*
X92810000Y-50130000D01*
X117310000Y-50130000D02*
X112190000Y-50130000D01*
X117310000Y-47510000D02*
X112190000Y-47510000D01*
X117310000Y-50130000D02*
X117310000Y-49816000D01*
X117310000Y-47824000D02*
X117310000Y-47510000D01*
X112190000Y-50130000D02*
X112190000Y-49816000D01*
X112190000Y-47824000D02*
X112190000Y-47510000D01*
X52130000Y-36630000D02*
X52130000Y-34010000D01*
X52130000Y-34010000D02*
X45710000Y-34010000D01*
X45710000Y-34010000D02*
X45710000Y-36630000D01*
X45710000Y-36630000D02*
X52130000Y-36630000D01*
X53020000Y-35320000D02*
X52130000Y-35320000D01*
X44820000Y-35320000D02*
X45710000Y-35320000D01*
X45710000Y-38510000D02*
X45710000Y-41130000D01*
X45710000Y-41130000D02*
X52130000Y-41130000D01*
X52130000Y-41130000D02*
X52130000Y-38510000D01*
X52130000Y-38510000D02*
X45710000Y-38510000D01*
X44820000Y-39820000D02*
X45710000Y-39820000D01*
X53020000Y-39820000D02*
X52130000Y-39820000D01*
X152870000Y-34010000D02*
X152870000Y-36630000D01*
X152870000Y-36630000D02*
X159290000Y-36630000D01*
X159290000Y-36630000D02*
X159290000Y-34010000D01*
X159290000Y-34010000D02*
X152870000Y-34010000D01*
X151980000Y-35320000D02*
X152870000Y-35320000D01*
X160180000Y-35320000D02*
X159290000Y-35320000D01*
X152870000Y-38510000D02*
X152870000Y-41130000D01*
X152870000Y-41130000D02*
X159290000Y-41130000D01*
X159290000Y-41130000D02*
X159290000Y-38510000D01*
X159290000Y-38510000D02*
X152870000Y-38510000D01*
X151980000Y-39820000D02*
X152870000Y-39820000D01*
X160180000Y-39820000D02*
X159290000Y-39820000D01*
X152810000Y-61620000D02*
X150190000Y-61620000D01*
X150190000Y-61620000D02*
X150190000Y-68040000D01*
X150190000Y-68040000D02*
X152810000Y-68040000D01*
X152810000Y-68040000D02*
X152810000Y-61620000D01*
X151500000Y-60730000D02*
X151500000Y-61620000D01*
X151500000Y-68930000D02*
X151500000Y-68040000D01*
X50040000Y-52380000D02*
X58280000Y-52380000D01*
X50040000Y-55870000D02*
X58280000Y-55870000D01*
X50040000Y-52380000D02*
X50040000Y-55870000D01*
X58280000Y-52380000D02*
X58280000Y-55870000D01*
X52560000Y-52380000D02*
X52560000Y-53450000D01*
X52560000Y-55550000D02*
X52560000Y-55870000D01*
X55761000Y-52380000D02*
X55761000Y-53960000D01*
X55761000Y-55040000D02*
X55761000Y-55870000D01*
X96690000Y-44670000D02*
X101310000Y-44670000D01*
X101310000Y-44670000D02*
X101310000Y-32650000D01*
X101310000Y-32650000D02*
X96690000Y-32650000D01*
X96690000Y-32650000D02*
X96690000Y-44670000D01*
X99000000Y-47440000D02*
X99000000Y-44670000D01*
X99000000Y-29880000D02*
X99000000Y-32650000D01*
X108310000Y-32650000D02*
X103690000Y-32650000D01*
X103690000Y-32650000D02*
X103690000Y-44670000D01*
X103690000Y-44670000D02*
X108310000Y-44670000D01*
X108310000Y-44670000D02*
X108310000Y-32650000D01*
X106000000Y-29880000D02*
X106000000Y-32650000D01*
X106000000Y-47440000D02*
X106000000Y-44670000D01*
X84305000Y-25049000D02*
X84305000Y-30320000D01*
X80696000Y-25049000D02*
X80696000Y-30320000D01*
X90570000Y-25049000D02*
X90570000Y-30320000D01*
X74430000Y-25049000D02*
X74430000Y-30320000D01*
X74430000Y-30320000D02*
X90570000Y-30320000D01*
X74430000Y-25049000D02*
X90570000Y-25049000D01*
X46755000Y-25049000D02*
X46755000Y-30320000D01*
X43146000Y-25049000D02*
X43146000Y-30320000D01*
X53020000Y-25049000D02*
X53020000Y-30320000D01*
X36880000Y-25049000D02*
X36880000Y-30320000D01*
X36880000Y-30320000D02*
X53020000Y-30320000D01*
X36880000Y-25049000D02*
X53020000Y-25049000D01*
X161755000Y-25049000D02*
X161755000Y-30320000D01*
X158146000Y-25049000D02*
X158146000Y-30320000D01*
X168020000Y-25049000D02*
X168020000Y-30320000D01*
X151880000Y-25049000D02*
X151880000Y-30320000D01*
X151880000Y-30320000D02*
X168020000Y-30320000D01*
X151880000Y-25049000D02*
X168020000Y-25049000D01*
X124305000Y-25049000D02*
X124305000Y-30320000D01*
X120696000Y-25049000D02*
X120696000Y-30320000D01*
X130570000Y-25049000D02*
X130570000Y-30320000D01*
X114430000Y-25049000D02*
X114430000Y-30320000D01*
X114430000Y-30320000D02*
X130570000Y-30320000D01*
X114430000Y-25049000D02*
X130570000Y-25049000D01*
D10*
X98524761Y-62062380D02*
X98191428Y-61586190D01*
X97953333Y-62062380D02*
X97953333Y-61062380D01*
X98334285Y-61062380D01*
X98429523Y-61110000D01*
X98477142Y-61157619D01*
X98524761Y-61252857D01*
X98524761Y-61395714D01*
X98477142Y-61490952D01*
X98429523Y-61538571D01*
X98334285Y-61586190D01*
X97953333Y-61586190D01*
X99477142Y-62062380D02*
X98905714Y-62062380D01*
X99191428Y-62062380D02*
X99191428Y-61062380D01*
X99096190Y-61205238D01*
X99000952Y-61300476D01*
X98905714Y-61348095D01*
X100429523Y-62062380D02*
X99858095Y-62062380D01*
X100143809Y-62062380D02*
X100143809Y-61062380D01*
X100048571Y-61205238D01*
X99953333Y-61300476D01*
X99858095Y-61348095D01*
X101286666Y-61062380D02*
X101096190Y-61062380D01*
X101000952Y-61110000D01*
X100953333Y-61157619D01*
X100858095Y-61300476D01*
X100810476Y-61490952D01*
X100810476Y-61871904D01*
X100858095Y-61967142D01*
X100905714Y-62014761D01*
X101000952Y-62062380D01*
X101191428Y-62062380D01*
X101286666Y-62014761D01*
X101334285Y-61967142D01*
X101381904Y-61871904D01*
X101381904Y-61633809D01*
X101334285Y-61538571D01*
X101286666Y-61490952D01*
X101191428Y-61443333D01*
X101000952Y-61443333D01*
X100905714Y-61490952D01*
X100858095Y-61538571D01*
X100810476Y-61633809D01*
X101762857Y-61157619D02*
X101810476Y-61110000D01*
X101905714Y-61062380D01*
X102143809Y-61062380D01*
X102239047Y-61110000D01*
X102286666Y-61157619D01*
X102334285Y-61252857D01*
X102334285Y-61348095D01*
X102286666Y-61490952D01*
X101715238Y-62062380D01*
X102334285Y-62062380D01*
X178667142Y-50345238D02*
X178714761Y-50392857D01*
X178762380Y-50535714D01*
X178762380Y-50630952D01*
X178714761Y-50773809D01*
X178619523Y-50869047D01*
X178524285Y-50916666D01*
X178333809Y-50964285D01*
X178190952Y-50964285D01*
X178000476Y-50916666D01*
X177905238Y-50869047D01*
X177810000Y-50773809D01*
X177762380Y-50630952D01*
X177762380Y-50535714D01*
X177810000Y-50392857D01*
X177857619Y-50345238D01*
X178762380Y-49392857D02*
X178762380Y-49964285D01*
X178762380Y-49678571D02*
X177762380Y-49678571D01*
X177905238Y-49773809D01*
X178000476Y-49869047D01*
X178048095Y-49964285D01*
X178762380Y-48440476D02*
X178762380Y-49011904D01*
X178762380Y-48726190D02*
X177762380Y-48726190D01*
X177905238Y-48821428D01*
X178000476Y-48916666D01*
X178048095Y-49011904D01*
X178095714Y-47583333D02*
X178762380Y-47583333D01*
X177714761Y-47821428D02*
X178429047Y-48059523D01*
X178429047Y-47440476D01*
X178762380Y-46535714D02*
X178762380Y-47107142D01*
X178762380Y-46821428D02*
X177762380Y-46821428D01*
X177905238Y-46916666D01*
X178000476Y-47011904D01*
X178048095Y-47107142D01*
X71262380Y-37715238D02*
X70786190Y-38048571D01*
X71262380Y-38286666D02*
X70262380Y-38286666D01*
X70262380Y-37905714D01*
X70310000Y-37810476D01*
X70357619Y-37762857D01*
X70452857Y-37715238D01*
X70595714Y-37715238D01*
X70690952Y-37762857D01*
X70738571Y-37810476D01*
X70786190Y-37905714D01*
X70786190Y-38286666D01*
X71262380Y-36762857D02*
X71262380Y-37334285D01*
X71262380Y-37048571D02*
X70262380Y-37048571D01*
X70405238Y-37143809D01*
X70500476Y-37239047D01*
X70548095Y-37334285D01*
X71262380Y-35810476D02*
X71262380Y-36381904D01*
X71262380Y-36096190D02*
X70262380Y-36096190D01*
X70405238Y-36191428D01*
X70500476Y-36286666D01*
X70548095Y-36381904D01*
X70262380Y-35477142D02*
X70262380Y-34810476D01*
X71262380Y-35239047D01*
X70595714Y-34000952D02*
X71262380Y-34000952D01*
X70214761Y-34239047D02*
X70929047Y-34477142D01*
X70929047Y-33858095D01*
X63762380Y-37715238D02*
X63286190Y-38048571D01*
X63762380Y-38286666D02*
X62762380Y-38286666D01*
X62762380Y-37905714D01*
X62810000Y-37810476D01*
X62857619Y-37762857D01*
X62952857Y-37715238D01*
X63095714Y-37715238D01*
X63190952Y-37762857D01*
X63238571Y-37810476D01*
X63286190Y-37905714D01*
X63286190Y-38286666D01*
X63762380Y-36762857D02*
X63762380Y-37334285D01*
X63762380Y-37048571D02*
X62762380Y-37048571D01*
X62905238Y-37143809D01*
X63000476Y-37239047D01*
X63048095Y-37334285D01*
X63762380Y-35810476D02*
X63762380Y-36381904D01*
X63762380Y-36096190D02*
X62762380Y-36096190D01*
X62905238Y-36191428D01*
X63000476Y-36286666D01*
X63048095Y-36381904D01*
X62762380Y-35477142D02*
X62762380Y-34810476D01*
X63762380Y-35239047D01*
X62762380Y-34524761D02*
X62762380Y-33905714D01*
X63143333Y-34239047D01*
X63143333Y-34096190D01*
X63190952Y-34000952D01*
X63238571Y-33953333D01*
X63333809Y-33905714D01*
X63571904Y-33905714D01*
X63667142Y-33953333D01*
X63714761Y-34000952D01*
X63762380Y-34096190D01*
X63762380Y-34381904D01*
X63714761Y-34477142D01*
X63667142Y-34524761D01*
X142142380Y-37715238D02*
X141666190Y-38048571D01*
X142142380Y-38286666D02*
X141142380Y-38286666D01*
X141142380Y-37905714D01*
X141190000Y-37810476D01*
X141237619Y-37762857D01*
X141332857Y-37715238D01*
X141475714Y-37715238D01*
X141570952Y-37762857D01*
X141618571Y-37810476D01*
X141666190Y-37905714D01*
X141666190Y-38286666D01*
X142142380Y-36762857D02*
X142142380Y-37334285D01*
X142142380Y-37048571D02*
X141142380Y-37048571D01*
X141285238Y-37143809D01*
X141380476Y-37239047D01*
X141428095Y-37334285D01*
X142142380Y-35810476D02*
X142142380Y-36381904D01*
X142142380Y-36096190D02*
X141142380Y-36096190D01*
X141285238Y-36191428D01*
X141380476Y-36286666D01*
X141428095Y-36381904D01*
X141142380Y-34905714D02*
X141142380Y-35381904D01*
X141618571Y-35429523D01*
X141570952Y-35381904D01*
X141523333Y-35286666D01*
X141523333Y-35048571D01*
X141570952Y-34953333D01*
X141618571Y-34905714D01*
X141713809Y-34858095D01*
X141951904Y-34858095D01*
X142047142Y-34905714D01*
X142094761Y-34953333D01*
X142142380Y-35048571D01*
X142142380Y-35286666D01*
X142094761Y-35381904D01*
X142047142Y-35429523D01*
X141237619Y-34477142D02*
X141190000Y-34429523D01*
X141142380Y-34334285D01*
X141142380Y-34096190D01*
X141190000Y-34000952D01*
X141237619Y-33953333D01*
X141332857Y-33905714D01*
X141428095Y-33905714D01*
X141570952Y-33953333D01*
X142142380Y-34524761D01*
X142142380Y-33905714D01*
X134642380Y-37715238D02*
X134166190Y-38048571D01*
X134642380Y-38286666D02*
X133642380Y-38286666D01*
X133642380Y-37905714D01*
X133690000Y-37810476D01*
X133737619Y-37762857D01*
X133832857Y-37715238D01*
X133975714Y-37715238D01*
X134070952Y-37762857D01*
X134118571Y-37810476D01*
X134166190Y-37905714D01*
X134166190Y-38286666D01*
X134642380Y-36762857D02*
X134642380Y-37334285D01*
X134642380Y-37048571D02*
X133642380Y-37048571D01*
X133785238Y-37143809D01*
X133880476Y-37239047D01*
X133928095Y-37334285D01*
X134642380Y-35810476D02*
X134642380Y-36381904D01*
X134642380Y-36096190D02*
X133642380Y-36096190D01*
X133785238Y-36191428D01*
X133880476Y-36286666D01*
X133928095Y-36381904D01*
X133642380Y-34905714D02*
X133642380Y-35381904D01*
X134118571Y-35429523D01*
X134070952Y-35381904D01*
X134023333Y-35286666D01*
X134023333Y-35048571D01*
X134070952Y-34953333D01*
X134118571Y-34905714D01*
X134213809Y-34858095D01*
X134451904Y-34858095D01*
X134547142Y-34905714D01*
X134594761Y-34953333D01*
X134642380Y-35048571D01*
X134642380Y-35286666D01*
X134594761Y-35381904D01*
X134547142Y-35429523D01*
X134642380Y-33905714D02*
X134642380Y-34477142D01*
X134642380Y-34191428D02*
X133642380Y-34191428D01*
X133785238Y-34286666D01*
X133880476Y-34381904D01*
X133928095Y-34477142D01*
X27047142Y-50345238D02*
X27094761Y-50392857D01*
X27142380Y-50535714D01*
X27142380Y-50630952D01*
X27094761Y-50773809D01*
X26999523Y-50869047D01*
X26904285Y-50916666D01*
X26713809Y-50964285D01*
X26570952Y-50964285D01*
X26380476Y-50916666D01*
X26285238Y-50869047D01*
X26190000Y-50773809D01*
X26142380Y-50630952D01*
X26142380Y-50535714D01*
X26190000Y-50392857D01*
X26237619Y-50345238D01*
X27142380Y-49392857D02*
X27142380Y-49964285D01*
X27142380Y-49678571D02*
X26142380Y-49678571D01*
X26285238Y-49773809D01*
X26380476Y-49869047D01*
X26428095Y-49964285D01*
X27142380Y-48440476D02*
X27142380Y-49011904D01*
X27142380Y-48726190D02*
X26142380Y-48726190D01*
X26285238Y-48821428D01*
X26380476Y-48916666D01*
X26428095Y-49011904D01*
X26142380Y-48107142D02*
X26142380Y-47440476D01*
X27142380Y-47869047D01*
X26237619Y-47107142D02*
X26190000Y-47059523D01*
X26142380Y-46964285D01*
X26142380Y-46726190D01*
X26190000Y-46630952D01*
X26237619Y-46583333D01*
X26332857Y-46535714D01*
X26428095Y-46535714D01*
X26570952Y-46583333D01*
X27142380Y-47154761D01*
X27142380Y-46535714D01*
X148649523Y-50832380D02*
X149220952Y-50832380D01*
X148935238Y-51832380D02*
X148935238Y-50832380D01*
X150078095Y-51832380D02*
X149506666Y-51832380D01*
X149792380Y-51832380D02*
X149792380Y-50832380D01*
X149697142Y-50975238D01*
X149601904Y-51070476D01*
X149506666Y-51118095D01*
X151030476Y-51832380D02*
X150459047Y-51832380D01*
X150744761Y-51832380D02*
X150744761Y-50832380D01*
X150649523Y-50975238D01*
X150554285Y-51070476D01*
X150459047Y-51118095D01*
X151887619Y-51165714D02*
X151887619Y-51832380D01*
X151649523Y-50784761D02*
X151411428Y-51499047D01*
X152030476Y-51499047D01*
X152840000Y-50832380D02*
X152649523Y-50832380D01*
X152554285Y-50880000D01*
X152506666Y-50927619D01*
X152411428Y-51070476D01*
X152363809Y-51260952D01*
X152363809Y-51641904D01*
X152411428Y-51737142D01*
X152459047Y-51784761D01*
X152554285Y-51832380D01*
X152744761Y-51832380D01*
X152840000Y-51784761D01*
X152887619Y-51737142D01*
X152935238Y-51641904D01*
X152935238Y-51403809D01*
X152887619Y-51308571D01*
X152840000Y-51260952D01*
X152744761Y-51213333D01*
X152554285Y-51213333D01*
X152459047Y-51260952D01*
X152411428Y-51308571D01*
X152363809Y-51403809D01*
X136649523Y-50832380D02*
X137220952Y-50832380D01*
X136935238Y-51832380D02*
X136935238Y-50832380D01*
X138078095Y-51832380D02*
X137506666Y-51832380D01*
X137792380Y-51832380D02*
X137792380Y-50832380D01*
X137697142Y-50975238D01*
X137601904Y-51070476D01*
X137506666Y-51118095D01*
X139030476Y-51832380D02*
X138459047Y-51832380D01*
X138744761Y-51832380D02*
X138744761Y-50832380D01*
X138649523Y-50975238D01*
X138554285Y-51070476D01*
X138459047Y-51118095D01*
X139887619Y-51165714D02*
X139887619Y-51832380D01*
X139649523Y-50784761D02*
X139411428Y-51499047D01*
X140030476Y-51499047D01*
X140840000Y-51165714D02*
X140840000Y-51832380D01*
X140601904Y-50784761D02*
X140363809Y-51499047D01*
X140982857Y-51499047D01*
X149244761Y-46617142D02*
X149197142Y-46664761D01*
X149054285Y-46712380D01*
X148959047Y-46712380D01*
X148816190Y-46664761D01*
X148720952Y-46569523D01*
X148673333Y-46474285D01*
X148625714Y-46283809D01*
X148625714Y-46140952D01*
X148673333Y-45950476D01*
X148720952Y-45855238D01*
X148816190Y-45760000D01*
X148959047Y-45712380D01*
X149054285Y-45712380D01*
X149197142Y-45760000D01*
X149244761Y-45807619D01*
X150197142Y-46712380D02*
X149625714Y-46712380D01*
X149911428Y-46712380D02*
X149911428Y-45712380D01*
X149816190Y-45855238D01*
X149720952Y-45950476D01*
X149625714Y-45998095D01*
X151149523Y-46712380D02*
X150578095Y-46712380D01*
X150863809Y-46712380D02*
X150863809Y-45712380D01*
X150768571Y-45855238D01*
X150673333Y-45950476D01*
X150578095Y-45998095D01*
X152006666Y-46045714D02*
X152006666Y-46712380D01*
X151768571Y-45664761D02*
X151530476Y-46379047D01*
X152149523Y-46379047D01*
X152959047Y-45712380D02*
X152768571Y-45712380D01*
X152673333Y-45760000D01*
X152625714Y-45807619D01*
X152530476Y-45950476D01*
X152482857Y-46140952D01*
X152482857Y-46521904D01*
X152530476Y-46617142D01*
X152578095Y-46664761D01*
X152673333Y-46712380D01*
X152863809Y-46712380D01*
X152959047Y-46664761D01*
X153006666Y-46617142D01*
X153054285Y-46521904D01*
X153054285Y-46283809D01*
X153006666Y-46188571D01*
X152959047Y-46140952D01*
X152863809Y-46093333D01*
X152673333Y-46093333D01*
X152578095Y-46140952D01*
X152530476Y-46188571D01*
X152482857Y-46283809D01*
X76984761Y-56082380D02*
X76651428Y-55606190D01*
X76413333Y-56082380D02*
X76413333Y-55082380D01*
X76794285Y-55082380D01*
X76889523Y-55130000D01*
X76937142Y-55177619D01*
X76984761Y-55272857D01*
X76984761Y-55415714D01*
X76937142Y-55510952D01*
X76889523Y-55558571D01*
X76794285Y-55606190D01*
X76413333Y-55606190D01*
X77937142Y-56082380D02*
X77365714Y-56082380D01*
X77651428Y-56082380D02*
X77651428Y-55082380D01*
X77556190Y-55225238D01*
X77460952Y-55320476D01*
X77365714Y-55368095D01*
X78889523Y-56082380D02*
X78318095Y-56082380D01*
X78603809Y-56082380D02*
X78603809Y-55082380D01*
X78508571Y-55225238D01*
X78413333Y-55320476D01*
X78318095Y-55368095D01*
X79746666Y-55082380D02*
X79556190Y-55082380D01*
X79460952Y-55130000D01*
X79413333Y-55177619D01*
X79318095Y-55320476D01*
X79270476Y-55510952D01*
X79270476Y-55891904D01*
X79318095Y-55987142D01*
X79365714Y-56034761D01*
X79460952Y-56082380D01*
X79651428Y-56082380D01*
X79746666Y-56034761D01*
X79794285Y-55987142D01*
X79841904Y-55891904D01*
X79841904Y-55653809D01*
X79794285Y-55558571D01*
X79746666Y-55510952D01*
X79651428Y-55463333D01*
X79460952Y-55463333D01*
X79365714Y-55510952D01*
X79318095Y-55558571D01*
X79270476Y-55653809D01*
X80175238Y-55082380D02*
X80794285Y-55082380D01*
X80460952Y-55463333D01*
X80603809Y-55463333D01*
X80699047Y-55510952D01*
X80746666Y-55558571D01*
X80794285Y-55653809D01*
X80794285Y-55891904D01*
X80746666Y-55987142D01*
X80699047Y-56034761D01*
X80603809Y-56082380D01*
X80318095Y-56082380D01*
X80222857Y-56034761D01*
X80175238Y-55987142D01*
X90663333Y-55832380D02*
X90663333Y-54832380D01*
X90901428Y-54832380D01*
X91044285Y-54880000D01*
X91139523Y-54975238D01*
X91187142Y-55070476D01*
X91234761Y-55260952D01*
X91234761Y-55403809D01*
X91187142Y-55594285D01*
X91139523Y-55689523D01*
X91044285Y-55784761D01*
X90901428Y-55832380D01*
X90663333Y-55832380D01*
X92187142Y-55832380D02*
X91615714Y-55832380D01*
X91901428Y-55832380D02*
X91901428Y-54832380D01*
X91806190Y-54975238D01*
X91710952Y-55070476D01*
X91615714Y-55118095D01*
X93139523Y-55832380D02*
X92568095Y-55832380D01*
X92853809Y-55832380D02*
X92853809Y-54832380D01*
X92758571Y-54975238D01*
X92663333Y-55070476D01*
X92568095Y-55118095D01*
X93996666Y-54832380D02*
X93806190Y-54832380D01*
X93710952Y-54880000D01*
X93663333Y-54927619D01*
X93568095Y-55070476D01*
X93520476Y-55260952D01*
X93520476Y-55641904D01*
X93568095Y-55737142D01*
X93615714Y-55784761D01*
X93710952Y-55832380D01*
X93901428Y-55832380D01*
X93996666Y-55784761D01*
X94044285Y-55737142D01*
X94091904Y-55641904D01*
X94091904Y-55403809D01*
X94044285Y-55308571D01*
X93996666Y-55260952D01*
X93901428Y-55213333D01*
X93710952Y-55213333D01*
X93615714Y-55260952D01*
X93568095Y-55308571D01*
X93520476Y-55403809D01*
X94425238Y-54832380D02*
X95044285Y-54832380D01*
X94710952Y-55213333D01*
X94853809Y-55213333D01*
X94949047Y-55260952D01*
X94996666Y-55308571D01*
X95044285Y-55403809D01*
X95044285Y-55641904D01*
X94996666Y-55737142D01*
X94949047Y-55784761D01*
X94853809Y-55832380D01*
X94568095Y-55832380D01*
X94472857Y-55784761D01*
X94425238Y-55737142D01*
X52564761Y-46617142D02*
X52517142Y-46664761D01*
X52374285Y-46712380D01*
X52279047Y-46712380D01*
X52136190Y-46664761D01*
X52040952Y-46569523D01*
X51993333Y-46474285D01*
X51945714Y-46283809D01*
X51945714Y-46140952D01*
X51993333Y-45950476D01*
X52040952Y-45855238D01*
X52136190Y-45760000D01*
X52279047Y-45712380D01*
X52374285Y-45712380D01*
X52517142Y-45760000D01*
X52564761Y-45807619D01*
X53517142Y-46712380D02*
X52945714Y-46712380D01*
X53231428Y-46712380D02*
X53231428Y-45712380D01*
X53136190Y-45855238D01*
X53040952Y-45950476D01*
X52945714Y-45998095D01*
X54469523Y-46712380D02*
X53898095Y-46712380D01*
X54183809Y-46712380D02*
X54183809Y-45712380D01*
X54088571Y-45855238D01*
X53993333Y-45950476D01*
X53898095Y-45998095D01*
X54802857Y-45712380D02*
X55469523Y-45712380D01*
X55040952Y-46712380D01*
X56040952Y-45712380D02*
X56136190Y-45712380D01*
X56231428Y-45760000D01*
X56279047Y-45807619D01*
X56326666Y-45902857D01*
X56374285Y-46093333D01*
X56374285Y-46331428D01*
X56326666Y-46521904D01*
X56279047Y-46617142D01*
X56231428Y-46664761D01*
X56136190Y-46712380D01*
X56040952Y-46712380D01*
X55945714Y-46664761D01*
X55898095Y-46617142D01*
X55850476Y-46521904D01*
X55802857Y-46331428D01*
X55802857Y-46093333D01*
X55850476Y-45902857D01*
X55898095Y-45807619D01*
X55945714Y-45760000D01*
X56040952Y-45712380D01*
X65314761Y-56237142D02*
X65267142Y-56284761D01*
X65124285Y-56332380D01*
X65029047Y-56332380D01*
X64886190Y-56284761D01*
X64790952Y-56189523D01*
X64743333Y-56094285D01*
X64695714Y-55903809D01*
X64695714Y-55760952D01*
X64743333Y-55570476D01*
X64790952Y-55475238D01*
X64886190Y-55380000D01*
X65029047Y-55332380D01*
X65124285Y-55332380D01*
X65267142Y-55380000D01*
X65314761Y-55427619D01*
X66267142Y-56332380D02*
X65695714Y-56332380D01*
X65981428Y-56332380D02*
X65981428Y-55332380D01*
X65886190Y-55475238D01*
X65790952Y-55570476D01*
X65695714Y-55618095D01*
X67219523Y-56332380D02*
X66648095Y-56332380D01*
X66933809Y-56332380D02*
X66933809Y-55332380D01*
X66838571Y-55475238D01*
X66743333Y-55570476D01*
X66648095Y-55618095D01*
X68076666Y-55332380D02*
X67886190Y-55332380D01*
X67790952Y-55380000D01*
X67743333Y-55427619D01*
X67648095Y-55570476D01*
X67600476Y-55760952D01*
X67600476Y-56141904D01*
X67648095Y-56237142D01*
X67695714Y-56284761D01*
X67790952Y-56332380D01*
X67981428Y-56332380D01*
X68076666Y-56284761D01*
X68124285Y-56237142D01*
X68171904Y-56141904D01*
X68171904Y-55903809D01*
X68124285Y-55808571D01*
X68076666Y-55760952D01*
X67981428Y-55713333D01*
X67790952Y-55713333D01*
X67695714Y-55760952D01*
X67648095Y-55808571D01*
X67600476Y-55903809D01*
X69076666Y-55332380D02*
X68600476Y-55332380D01*
X68552857Y-55808571D01*
X68600476Y-55760952D01*
X68695714Y-55713333D01*
X68933809Y-55713333D01*
X69029047Y-55760952D01*
X69076666Y-55808571D01*
X69124285Y-55903809D01*
X69124285Y-56141904D01*
X69076666Y-56237142D01*
X69029047Y-56284761D01*
X68933809Y-56332380D01*
X68695714Y-56332380D01*
X68600476Y-56284761D01*
X68552857Y-56237142D01*
X72404761Y-61917142D02*
X72357142Y-61964761D01*
X72214285Y-62012380D01*
X72119047Y-62012380D01*
X71976190Y-61964761D01*
X71880952Y-61869523D01*
X71833333Y-61774285D01*
X71785714Y-61583809D01*
X71785714Y-61440952D01*
X71833333Y-61250476D01*
X71880952Y-61155238D01*
X71976190Y-61060000D01*
X72119047Y-61012380D01*
X72214285Y-61012380D01*
X72357142Y-61060000D01*
X72404761Y-61107619D01*
X73357142Y-62012380D02*
X72785714Y-62012380D01*
X73071428Y-62012380D02*
X73071428Y-61012380D01*
X72976190Y-61155238D01*
X72880952Y-61250476D01*
X72785714Y-61298095D01*
X74309523Y-62012380D02*
X73738095Y-62012380D01*
X74023809Y-62012380D02*
X74023809Y-61012380D01*
X73928571Y-61155238D01*
X73833333Y-61250476D01*
X73738095Y-61298095D01*
X75166666Y-61345714D02*
X75166666Y-62012380D01*
X74928571Y-60964761D02*
X74690476Y-61679047D01*
X75309523Y-61679047D01*
X75642857Y-61107619D02*
X75690476Y-61060000D01*
X75785714Y-61012380D01*
X76023809Y-61012380D01*
X76119047Y-61060000D01*
X76166666Y-61107619D01*
X76214285Y-61202857D01*
X76214285Y-61298095D01*
X76166666Y-61440952D01*
X75595238Y-62012380D01*
X76214285Y-62012380D01*
X61904761Y-61917142D02*
X61857142Y-61964761D01*
X61714285Y-62012380D01*
X61619047Y-62012380D01*
X61476190Y-61964761D01*
X61380952Y-61869523D01*
X61333333Y-61774285D01*
X61285714Y-61583809D01*
X61285714Y-61440952D01*
X61333333Y-61250476D01*
X61380952Y-61155238D01*
X61476190Y-61060000D01*
X61619047Y-61012380D01*
X61714285Y-61012380D01*
X61857142Y-61060000D01*
X61904761Y-61107619D01*
X62857142Y-62012380D02*
X62285714Y-62012380D01*
X62571428Y-62012380D02*
X62571428Y-61012380D01*
X62476190Y-61155238D01*
X62380952Y-61250476D01*
X62285714Y-61298095D01*
X63809523Y-62012380D02*
X63238095Y-62012380D01*
X63523809Y-62012380D02*
X63523809Y-61012380D01*
X63428571Y-61155238D01*
X63333333Y-61250476D01*
X63238095Y-61298095D01*
X64142857Y-61012380D02*
X64809523Y-61012380D01*
X64380952Y-62012380D01*
X65714285Y-62012380D02*
X65142857Y-62012380D01*
X65428571Y-62012380D02*
X65428571Y-61012380D01*
X65333333Y-61155238D01*
X65238095Y-61250476D01*
X65142857Y-61298095D01*
X124824761Y-56082380D02*
X124491428Y-55606190D01*
X124253333Y-56082380D02*
X124253333Y-55082380D01*
X124634285Y-55082380D01*
X124729523Y-55130000D01*
X124777142Y-55177619D01*
X124824761Y-55272857D01*
X124824761Y-55415714D01*
X124777142Y-55510952D01*
X124729523Y-55558571D01*
X124634285Y-55606190D01*
X124253333Y-55606190D01*
X125777142Y-56082380D02*
X125205714Y-56082380D01*
X125491428Y-56082380D02*
X125491428Y-55082380D01*
X125396190Y-55225238D01*
X125300952Y-55320476D01*
X125205714Y-55368095D01*
X126729523Y-56082380D02*
X126158095Y-56082380D01*
X126443809Y-56082380D02*
X126443809Y-55082380D01*
X126348571Y-55225238D01*
X126253333Y-55320476D01*
X126158095Y-55368095D01*
X127634285Y-55082380D02*
X127158095Y-55082380D01*
X127110476Y-55558571D01*
X127158095Y-55510952D01*
X127253333Y-55463333D01*
X127491428Y-55463333D01*
X127586666Y-55510952D01*
X127634285Y-55558571D01*
X127681904Y-55653809D01*
X127681904Y-55891904D01*
X127634285Y-55987142D01*
X127586666Y-56034761D01*
X127491428Y-56082380D01*
X127253333Y-56082380D01*
X127158095Y-56034761D01*
X127110476Y-55987142D01*
X128539047Y-55415714D02*
X128539047Y-56082380D01*
X128300952Y-55034761D02*
X128062857Y-55749047D01*
X128681904Y-55749047D01*
X110003333Y-55832380D02*
X110003333Y-54832380D01*
X110241428Y-54832380D01*
X110384285Y-54880000D01*
X110479523Y-54975238D01*
X110527142Y-55070476D01*
X110574761Y-55260952D01*
X110574761Y-55403809D01*
X110527142Y-55594285D01*
X110479523Y-55689523D01*
X110384285Y-55784761D01*
X110241428Y-55832380D01*
X110003333Y-55832380D01*
X111527142Y-55832380D02*
X110955714Y-55832380D01*
X111241428Y-55832380D02*
X111241428Y-54832380D01*
X111146190Y-54975238D01*
X111050952Y-55070476D01*
X110955714Y-55118095D01*
X112479523Y-55832380D02*
X111908095Y-55832380D01*
X112193809Y-55832380D02*
X112193809Y-54832380D01*
X112098571Y-54975238D01*
X112003333Y-55070476D01*
X111908095Y-55118095D01*
X113384285Y-54832380D02*
X112908095Y-54832380D01*
X112860476Y-55308571D01*
X112908095Y-55260952D01*
X113003333Y-55213333D01*
X113241428Y-55213333D01*
X113336666Y-55260952D01*
X113384285Y-55308571D01*
X113431904Y-55403809D01*
X113431904Y-55641904D01*
X113384285Y-55737142D01*
X113336666Y-55784761D01*
X113241428Y-55832380D01*
X113003333Y-55832380D01*
X112908095Y-55784761D01*
X112860476Y-55737142D01*
X114289047Y-54832380D02*
X114098571Y-54832380D01*
X114003333Y-54880000D01*
X113955714Y-54927619D01*
X113860476Y-55070476D01*
X113812857Y-55260952D01*
X113812857Y-55641904D01*
X113860476Y-55737142D01*
X113908095Y-55784761D01*
X114003333Y-55832380D01*
X114193809Y-55832380D01*
X114289047Y-55784761D01*
X114336666Y-55737142D01*
X114384285Y-55641904D01*
X114384285Y-55403809D01*
X114336666Y-55308571D01*
X114289047Y-55260952D01*
X114193809Y-55213333D01*
X114003333Y-55213333D01*
X113908095Y-55260952D01*
X113860476Y-55308571D01*
X113812857Y-55403809D01*
X82904761Y-61917142D02*
X82857142Y-61964761D01*
X82714285Y-62012380D01*
X82619047Y-62012380D01*
X82476190Y-61964761D01*
X82380952Y-61869523D01*
X82333333Y-61774285D01*
X82285714Y-61583809D01*
X82285714Y-61440952D01*
X82333333Y-61250476D01*
X82380952Y-61155238D01*
X82476190Y-61060000D01*
X82619047Y-61012380D01*
X82714285Y-61012380D01*
X82857142Y-61060000D01*
X82904761Y-61107619D01*
X83857142Y-62012380D02*
X83285714Y-62012380D01*
X83571428Y-62012380D02*
X83571428Y-61012380D01*
X83476190Y-61155238D01*
X83380952Y-61250476D01*
X83285714Y-61298095D01*
X84809523Y-62012380D02*
X84238095Y-62012380D01*
X84523809Y-62012380D02*
X84523809Y-61012380D01*
X84428571Y-61155238D01*
X84333333Y-61250476D01*
X84238095Y-61298095D01*
X85666666Y-61012380D02*
X85476190Y-61012380D01*
X85380952Y-61060000D01*
X85333333Y-61107619D01*
X85238095Y-61250476D01*
X85190476Y-61440952D01*
X85190476Y-61821904D01*
X85238095Y-61917142D01*
X85285714Y-61964761D01*
X85380952Y-62012380D01*
X85571428Y-62012380D01*
X85666666Y-61964761D01*
X85714285Y-61917142D01*
X85761904Y-61821904D01*
X85761904Y-61583809D01*
X85714285Y-61488571D01*
X85666666Y-61440952D01*
X85571428Y-61393333D01*
X85380952Y-61393333D01*
X85285714Y-61440952D01*
X85238095Y-61488571D01*
X85190476Y-61583809D01*
X86142857Y-61107619D02*
X86190476Y-61060000D01*
X86285714Y-61012380D01*
X86523809Y-61012380D01*
X86619047Y-61060000D01*
X86666666Y-61107619D01*
X86714285Y-61202857D01*
X86714285Y-61298095D01*
X86666666Y-61440952D01*
X86095238Y-62012380D01*
X86714285Y-62012380D01*
X144262380Y-66425238D02*
X143786190Y-66758571D01*
X144262380Y-66996666D02*
X143262380Y-66996666D01*
X143262380Y-66615714D01*
X143310000Y-66520476D01*
X143357619Y-66472857D01*
X143452857Y-66425238D01*
X143595714Y-66425238D01*
X143690952Y-66472857D01*
X143738571Y-66520476D01*
X143786190Y-66615714D01*
X143786190Y-66996666D01*
X144262380Y-65472857D02*
X144262380Y-66044285D01*
X144262380Y-65758571D02*
X143262380Y-65758571D01*
X143405238Y-65853809D01*
X143500476Y-65949047D01*
X143548095Y-66044285D01*
X144262380Y-64520476D02*
X144262380Y-65091904D01*
X144262380Y-64806190D02*
X143262380Y-64806190D01*
X143405238Y-64901428D01*
X143500476Y-64996666D01*
X143548095Y-65091904D01*
X143595714Y-63663333D02*
X144262380Y-63663333D01*
X143214761Y-63901428D02*
X143929047Y-64139523D01*
X143929047Y-63520476D01*
X143595714Y-62710952D02*
X144262380Y-62710952D01*
X143214761Y-62949047D02*
X143929047Y-63187142D01*
X143929047Y-62568095D01*
X139262380Y-66425238D02*
X138786190Y-66758571D01*
X139262380Y-66996666D02*
X138262380Y-66996666D01*
X138262380Y-66615714D01*
X138310000Y-66520476D01*
X138357619Y-66472857D01*
X138452857Y-66425238D01*
X138595714Y-66425238D01*
X138690952Y-66472857D01*
X138738571Y-66520476D01*
X138786190Y-66615714D01*
X138786190Y-66996666D01*
X139262380Y-65472857D02*
X139262380Y-66044285D01*
X139262380Y-65758571D02*
X138262380Y-65758571D01*
X138405238Y-65853809D01*
X138500476Y-65949047D01*
X138548095Y-66044285D01*
X139262380Y-64520476D02*
X139262380Y-65091904D01*
X139262380Y-64806190D02*
X138262380Y-64806190D01*
X138405238Y-64901428D01*
X138500476Y-64996666D01*
X138548095Y-65091904D01*
X138595714Y-63663333D02*
X139262380Y-63663333D01*
X138214761Y-63901428D02*
X138929047Y-64139523D01*
X138929047Y-63520476D01*
X138262380Y-63234761D02*
X138262380Y-62615714D01*
X138643333Y-62949047D01*
X138643333Y-62806190D01*
X138690952Y-62710952D01*
X138738571Y-62663333D01*
X138833809Y-62615714D01*
X139071904Y-62615714D01*
X139167142Y-62663333D01*
X139214761Y-62710952D01*
X139262380Y-62806190D01*
X139262380Y-63091904D01*
X139214761Y-63187142D01*
X139167142Y-63234761D01*
X149262380Y-66425238D02*
X148786190Y-66758571D01*
X149262380Y-66996666D02*
X148262380Y-66996666D01*
X148262380Y-66615714D01*
X148310000Y-66520476D01*
X148357619Y-66472857D01*
X148452857Y-66425238D01*
X148595714Y-66425238D01*
X148690952Y-66472857D01*
X148738571Y-66520476D01*
X148786190Y-66615714D01*
X148786190Y-66996666D01*
X149262380Y-65472857D02*
X149262380Y-66044285D01*
X149262380Y-65758571D02*
X148262380Y-65758571D01*
X148405238Y-65853809D01*
X148500476Y-65949047D01*
X148548095Y-66044285D01*
X149262380Y-64520476D02*
X149262380Y-65091904D01*
X149262380Y-64806190D02*
X148262380Y-64806190D01*
X148405238Y-64901428D01*
X148500476Y-64996666D01*
X148548095Y-65091904D01*
X148595714Y-63663333D02*
X149262380Y-63663333D01*
X148214761Y-63901428D02*
X148929047Y-64139523D01*
X148929047Y-63520476D01*
X148357619Y-63187142D02*
X148310000Y-63139523D01*
X148262380Y-63044285D01*
X148262380Y-62806190D01*
X148310000Y-62710952D01*
X148357619Y-62663333D01*
X148452857Y-62615714D01*
X148548095Y-62615714D01*
X148690952Y-62663333D01*
X149262380Y-63234761D01*
X149262380Y-62615714D01*
X134262380Y-66425238D02*
X133786190Y-66758571D01*
X134262380Y-66996666D02*
X133262380Y-66996666D01*
X133262380Y-66615714D01*
X133310000Y-66520476D01*
X133357619Y-66472857D01*
X133452857Y-66425238D01*
X133595714Y-66425238D01*
X133690952Y-66472857D01*
X133738571Y-66520476D01*
X133786190Y-66615714D01*
X133786190Y-66996666D01*
X134262380Y-65472857D02*
X134262380Y-66044285D01*
X134262380Y-65758571D02*
X133262380Y-65758571D01*
X133405238Y-65853809D01*
X133500476Y-65949047D01*
X133548095Y-66044285D01*
X134262380Y-64520476D02*
X134262380Y-65091904D01*
X134262380Y-64806190D02*
X133262380Y-64806190D01*
X133405238Y-64901428D01*
X133500476Y-64996666D01*
X133548095Y-65091904D01*
X133595714Y-63663333D02*
X134262380Y-63663333D01*
X133214761Y-63901428D02*
X133929047Y-64139523D01*
X133929047Y-63520476D01*
X133262380Y-62663333D02*
X133262380Y-63139523D01*
X133738571Y-63187142D01*
X133690952Y-63139523D01*
X133643333Y-63044285D01*
X133643333Y-62806190D01*
X133690952Y-62710952D01*
X133738571Y-62663333D01*
X133833809Y-62615714D01*
X134071904Y-62615714D01*
X134167142Y-62663333D01*
X134214761Y-62710952D01*
X134262380Y-62806190D01*
X134262380Y-63044285D01*
X134214761Y-63139523D01*
X134167142Y-63187142D01*
X128702380Y-66996666D02*
X127702380Y-66996666D01*
X127702380Y-66615714D01*
X127750000Y-66520476D01*
X127797619Y-66472857D01*
X127892857Y-66425238D01*
X128035714Y-66425238D01*
X128130952Y-66472857D01*
X128178571Y-66520476D01*
X128226190Y-66615714D01*
X128226190Y-66996666D01*
X128702380Y-65472857D02*
X128702380Y-66044285D01*
X128702380Y-65758571D02*
X127702380Y-65758571D01*
X127845238Y-65853809D01*
X127940476Y-65949047D01*
X127988095Y-66044285D01*
X128702380Y-64520476D02*
X128702380Y-65091904D01*
X128702380Y-64806190D02*
X127702380Y-64806190D01*
X127845238Y-64901428D01*
X127940476Y-64996666D01*
X127988095Y-65091904D01*
X128035714Y-63663333D02*
X128702380Y-63663333D01*
X127654761Y-63901428D02*
X128369047Y-64139523D01*
X128369047Y-63520476D01*
X127702380Y-63234761D02*
X127702380Y-62615714D01*
X128083333Y-62949047D01*
X128083333Y-62806190D01*
X128130952Y-62710952D01*
X128178571Y-62663333D01*
X128273809Y-62615714D01*
X128511904Y-62615714D01*
X128607142Y-62663333D01*
X128654761Y-62710952D01*
X128702380Y-62806190D01*
X128702380Y-63091904D01*
X128654761Y-63187142D01*
X128607142Y-63234761D01*
X137244761Y-46617142D02*
X137197142Y-46664761D01*
X137054285Y-46712380D01*
X136959047Y-46712380D01*
X136816190Y-46664761D01*
X136720952Y-46569523D01*
X136673333Y-46474285D01*
X136625714Y-46283809D01*
X136625714Y-46140952D01*
X136673333Y-45950476D01*
X136720952Y-45855238D01*
X136816190Y-45760000D01*
X136959047Y-45712380D01*
X137054285Y-45712380D01*
X137197142Y-45760000D01*
X137244761Y-45807619D01*
X138197142Y-46712380D02*
X137625714Y-46712380D01*
X137911428Y-46712380D02*
X137911428Y-45712380D01*
X137816190Y-45855238D01*
X137720952Y-45950476D01*
X137625714Y-45998095D01*
X139149523Y-46712380D02*
X138578095Y-46712380D01*
X138863809Y-46712380D02*
X138863809Y-45712380D01*
X138768571Y-45855238D01*
X138673333Y-45950476D01*
X138578095Y-45998095D01*
X140006666Y-46045714D02*
X140006666Y-46712380D01*
X139768571Y-45664761D02*
X139530476Y-46379047D01*
X140149523Y-46379047D01*
X140959047Y-46045714D02*
X140959047Y-46712380D01*
X140720952Y-45664761D02*
X140482857Y-46379047D01*
X141101904Y-46379047D01*
X88059523Y-34202380D02*
X88630952Y-34202380D01*
X88345238Y-35202380D02*
X88345238Y-34202380D01*
X89488095Y-35202380D02*
X88916666Y-35202380D01*
X89202380Y-35202380D02*
X89202380Y-34202380D01*
X89107142Y-34345238D01*
X89011904Y-34440476D01*
X88916666Y-34488095D01*
X90440476Y-35202380D02*
X89869047Y-35202380D01*
X90154761Y-35202380D02*
X90154761Y-34202380D01*
X90059523Y-34345238D01*
X89964285Y-34440476D01*
X89869047Y-34488095D01*
X91297619Y-34202380D02*
X91107142Y-34202380D01*
X91011904Y-34250000D01*
X90964285Y-34297619D01*
X90869047Y-34440476D01*
X90821428Y-34630952D01*
X90821428Y-35011904D01*
X90869047Y-35107142D01*
X90916666Y-35154761D01*
X91011904Y-35202380D01*
X91202380Y-35202380D01*
X91297619Y-35154761D01*
X91345238Y-35107142D01*
X91392857Y-35011904D01*
X91392857Y-34773809D01*
X91345238Y-34678571D01*
X91297619Y-34630952D01*
X91202380Y-34583333D01*
X91011904Y-34583333D01*
X90916666Y-34630952D01*
X90869047Y-34678571D01*
X90821428Y-34773809D01*
X91726190Y-34202380D02*
X92345238Y-34202380D01*
X92011904Y-34583333D01*
X92154761Y-34583333D01*
X92250000Y-34630952D01*
X92297619Y-34678571D01*
X92345238Y-34773809D01*
X92345238Y-35011904D01*
X92297619Y-35107142D01*
X92250000Y-35154761D01*
X92154761Y-35202380D01*
X91869047Y-35202380D01*
X91773809Y-35154761D01*
X91726190Y-35107142D01*
X112559523Y-34202380D02*
X113130952Y-34202380D01*
X112845238Y-35202380D02*
X112845238Y-34202380D01*
X113988095Y-35202380D02*
X113416666Y-35202380D01*
X113702380Y-35202380D02*
X113702380Y-34202380D01*
X113607142Y-34345238D01*
X113511904Y-34440476D01*
X113416666Y-34488095D01*
X114940476Y-35202380D02*
X114369047Y-35202380D01*
X114654761Y-35202380D02*
X114654761Y-34202380D01*
X114559523Y-34345238D01*
X114464285Y-34440476D01*
X114369047Y-34488095D01*
X115845238Y-34202380D02*
X115369047Y-34202380D01*
X115321428Y-34678571D01*
X115369047Y-34630952D01*
X115464285Y-34583333D01*
X115702380Y-34583333D01*
X115797619Y-34630952D01*
X115845238Y-34678571D01*
X115892857Y-34773809D01*
X115892857Y-35011904D01*
X115845238Y-35107142D01*
X115797619Y-35154761D01*
X115702380Y-35202380D01*
X115464285Y-35202380D01*
X115369047Y-35154761D01*
X115321428Y-35107142D01*
X116750000Y-34202380D02*
X116559523Y-34202380D01*
X116464285Y-34250000D01*
X116416666Y-34297619D01*
X116321428Y-34440476D01*
X116273809Y-34630952D01*
X116273809Y-35011904D01*
X116321428Y-35107142D01*
X116369047Y-35154761D01*
X116464285Y-35202380D01*
X116654761Y-35202380D01*
X116750000Y-35154761D01*
X116797619Y-35107142D01*
X116845238Y-35011904D01*
X116845238Y-34773809D01*
X116797619Y-34678571D01*
X116750000Y-34630952D01*
X116654761Y-34583333D01*
X116464285Y-34583333D01*
X116369047Y-34630952D01*
X116321428Y-34678571D01*
X116273809Y-34773809D01*
X76984761Y-38082380D02*
X76651428Y-37606190D01*
X76413333Y-38082380D02*
X76413333Y-37082380D01*
X76794285Y-37082380D01*
X76889523Y-37130000D01*
X76937142Y-37177619D01*
X76984761Y-37272857D01*
X76984761Y-37415714D01*
X76937142Y-37510952D01*
X76889523Y-37558571D01*
X76794285Y-37606190D01*
X76413333Y-37606190D01*
X77937142Y-38082380D02*
X77365714Y-38082380D01*
X77651428Y-38082380D02*
X77651428Y-37082380D01*
X77556190Y-37225238D01*
X77460952Y-37320476D01*
X77365714Y-37368095D01*
X78889523Y-38082380D02*
X78318095Y-38082380D01*
X78603809Y-38082380D02*
X78603809Y-37082380D01*
X78508571Y-37225238D01*
X78413333Y-37320476D01*
X78318095Y-37368095D01*
X79746666Y-37082380D02*
X79556190Y-37082380D01*
X79460952Y-37130000D01*
X79413333Y-37177619D01*
X79318095Y-37320476D01*
X79270476Y-37510952D01*
X79270476Y-37891904D01*
X79318095Y-37987142D01*
X79365714Y-38034761D01*
X79460952Y-38082380D01*
X79651428Y-38082380D01*
X79746666Y-38034761D01*
X79794285Y-37987142D01*
X79841904Y-37891904D01*
X79841904Y-37653809D01*
X79794285Y-37558571D01*
X79746666Y-37510952D01*
X79651428Y-37463333D01*
X79460952Y-37463333D01*
X79365714Y-37510952D01*
X79318095Y-37558571D01*
X79270476Y-37653809D01*
X80175238Y-37082380D02*
X80841904Y-37082380D01*
X80413333Y-38082380D01*
X76984761Y-47082380D02*
X76651428Y-46606190D01*
X76413333Y-47082380D02*
X76413333Y-46082380D01*
X76794285Y-46082380D01*
X76889523Y-46130000D01*
X76937142Y-46177619D01*
X76984761Y-46272857D01*
X76984761Y-46415714D01*
X76937142Y-46510952D01*
X76889523Y-46558571D01*
X76794285Y-46606190D01*
X76413333Y-46606190D01*
X77937142Y-47082380D02*
X77365714Y-47082380D01*
X77651428Y-47082380D02*
X77651428Y-46082380D01*
X77556190Y-46225238D01*
X77460952Y-46320476D01*
X77365714Y-46368095D01*
X78889523Y-47082380D02*
X78318095Y-47082380D01*
X78603809Y-47082380D02*
X78603809Y-46082380D01*
X78508571Y-46225238D01*
X78413333Y-46320476D01*
X78318095Y-46368095D01*
X79746666Y-46082380D02*
X79556190Y-46082380D01*
X79460952Y-46130000D01*
X79413333Y-46177619D01*
X79318095Y-46320476D01*
X79270476Y-46510952D01*
X79270476Y-46891904D01*
X79318095Y-46987142D01*
X79365714Y-47034761D01*
X79460952Y-47082380D01*
X79651428Y-47082380D01*
X79746666Y-47034761D01*
X79794285Y-46987142D01*
X79841904Y-46891904D01*
X79841904Y-46653809D01*
X79794285Y-46558571D01*
X79746666Y-46510952D01*
X79651428Y-46463333D01*
X79460952Y-46463333D01*
X79365714Y-46510952D01*
X79318095Y-46558571D01*
X79270476Y-46653809D01*
X80699047Y-46082380D02*
X80508571Y-46082380D01*
X80413333Y-46130000D01*
X80365714Y-46177619D01*
X80270476Y-46320476D01*
X80222857Y-46510952D01*
X80222857Y-46891904D01*
X80270476Y-46987142D01*
X80318095Y-47034761D01*
X80413333Y-47082380D01*
X80603809Y-47082380D01*
X80699047Y-47034761D01*
X80746666Y-46987142D01*
X80794285Y-46891904D01*
X80794285Y-46653809D01*
X80746666Y-46558571D01*
X80699047Y-46510952D01*
X80603809Y-46463333D01*
X80413333Y-46463333D01*
X80318095Y-46510952D01*
X80270476Y-46558571D01*
X80222857Y-46653809D01*
X76984761Y-42582380D02*
X76651428Y-42106190D01*
X76413333Y-42582380D02*
X76413333Y-41582380D01*
X76794285Y-41582380D01*
X76889523Y-41630000D01*
X76937142Y-41677619D01*
X76984761Y-41772857D01*
X76984761Y-41915714D01*
X76937142Y-42010952D01*
X76889523Y-42058571D01*
X76794285Y-42106190D01*
X76413333Y-42106190D01*
X77937142Y-42582380D02*
X77365714Y-42582380D01*
X77651428Y-42582380D02*
X77651428Y-41582380D01*
X77556190Y-41725238D01*
X77460952Y-41820476D01*
X77365714Y-41868095D01*
X78889523Y-42582380D02*
X78318095Y-42582380D01*
X78603809Y-42582380D02*
X78603809Y-41582380D01*
X78508571Y-41725238D01*
X78413333Y-41820476D01*
X78318095Y-41868095D01*
X79746666Y-41582380D02*
X79556190Y-41582380D01*
X79460952Y-41630000D01*
X79413333Y-41677619D01*
X79318095Y-41820476D01*
X79270476Y-42010952D01*
X79270476Y-42391904D01*
X79318095Y-42487142D01*
X79365714Y-42534761D01*
X79460952Y-42582380D01*
X79651428Y-42582380D01*
X79746666Y-42534761D01*
X79794285Y-42487142D01*
X79841904Y-42391904D01*
X79841904Y-42153809D01*
X79794285Y-42058571D01*
X79746666Y-42010952D01*
X79651428Y-41963333D01*
X79460952Y-41963333D01*
X79365714Y-42010952D01*
X79318095Y-42058571D01*
X79270476Y-42153809D01*
X80699047Y-41915714D02*
X80699047Y-42582380D01*
X80460952Y-41534761D02*
X80222857Y-42249047D01*
X80841904Y-42249047D01*
X124824761Y-38082380D02*
X124491428Y-37606190D01*
X124253333Y-38082380D02*
X124253333Y-37082380D01*
X124634285Y-37082380D01*
X124729523Y-37130000D01*
X124777142Y-37177619D01*
X124824761Y-37272857D01*
X124824761Y-37415714D01*
X124777142Y-37510952D01*
X124729523Y-37558571D01*
X124634285Y-37606190D01*
X124253333Y-37606190D01*
X125777142Y-38082380D02*
X125205714Y-38082380D01*
X125491428Y-38082380D02*
X125491428Y-37082380D01*
X125396190Y-37225238D01*
X125300952Y-37320476D01*
X125205714Y-37368095D01*
X126729523Y-38082380D02*
X126158095Y-38082380D01*
X126443809Y-38082380D02*
X126443809Y-37082380D01*
X126348571Y-37225238D01*
X126253333Y-37320476D01*
X126158095Y-37368095D01*
X127634285Y-37082380D02*
X127158095Y-37082380D01*
X127110476Y-37558571D01*
X127158095Y-37510952D01*
X127253333Y-37463333D01*
X127491428Y-37463333D01*
X127586666Y-37510952D01*
X127634285Y-37558571D01*
X127681904Y-37653809D01*
X127681904Y-37891904D01*
X127634285Y-37987142D01*
X127586666Y-38034761D01*
X127491428Y-38082380D01*
X127253333Y-38082380D01*
X127158095Y-38034761D01*
X127110476Y-37987142D01*
X128253333Y-37510952D02*
X128158095Y-37463333D01*
X128110476Y-37415714D01*
X128062857Y-37320476D01*
X128062857Y-37272857D01*
X128110476Y-37177619D01*
X128158095Y-37130000D01*
X128253333Y-37082380D01*
X128443809Y-37082380D01*
X128539047Y-37130000D01*
X128586666Y-37177619D01*
X128634285Y-37272857D01*
X128634285Y-37320476D01*
X128586666Y-37415714D01*
X128539047Y-37463333D01*
X128443809Y-37510952D01*
X128253333Y-37510952D01*
X128158095Y-37558571D01*
X128110476Y-37606190D01*
X128062857Y-37701428D01*
X128062857Y-37891904D01*
X128110476Y-37987142D01*
X128158095Y-38034761D01*
X128253333Y-38082380D01*
X128443809Y-38082380D01*
X128539047Y-38034761D01*
X128586666Y-37987142D01*
X128634285Y-37891904D01*
X128634285Y-37701428D01*
X128586666Y-37606190D01*
X128539047Y-37558571D01*
X128443809Y-37510952D01*
X124824761Y-47082380D02*
X124491428Y-46606190D01*
X124253333Y-47082380D02*
X124253333Y-46082380D01*
X124634285Y-46082380D01*
X124729523Y-46130000D01*
X124777142Y-46177619D01*
X124824761Y-46272857D01*
X124824761Y-46415714D01*
X124777142Y-46510952D01*
X124729523Y-46558571D01*
X124634285Y-46606190D01*
X124253333Y-46606190D01*
X125777142Y-47082380D02*
X125205714Y-47082380D01*
X125491428Y-47082380D02*
X125491428Y-46082380D01*
X125396190Y-46225238D01*
X125300952Y-46320476D01*
X125205714Y-46368095D01*
X126729523Y-47082380D02*
X126158095Y-47082380D01*
X126443809Y-47082380D02*
X126443809Y-46082380D01*
X126348571Y-46225238D01*
X126253333Y-46320476D01*
X126158095Y-46368095D01*
X127634285Y-46082380D02*
X127158095Y-46082380D01*
X127110476Y-46558571D01*
X127158095Y-46510952D01*
X127253333Y-46463333D01*
X127491428Y-46463333D01*
X127586666Y-46510952D01*
X127634285Y-46558571D01*
X127681904Y-46653809D01*
X127681904Y-46891904D01*
X127634285Y-46987142D01*
X127586666Y-47034761D01*
X127491428Y-47082380D01*
X127253333Y-47082380D01*
X127158095Y-47034761D01*
X127110476Y-46987142D01*
X128015238Y-46082380D02*
X128681904Y-46082380D01*
X128253333Y-47082380D01*
X124824761Y-42582380D02*
X124491428Y-42106190D01*
X124253333Y-42582380D02*
X124253333Y-41582380D01*
X124634285Y-41582380D01*
X124729523Y-41630000D01*
X124777142Y-41677619D01*
X124824761Y-41772857D01*
X124824761Y-41915714D01*
X124777142Y-42010952D01*
X124729523Y-42058571D01*
X124634285Y-42106190D01*
X124253333Y-42106190D01*
X125777142Y-42582380D02*
X125205714Y-42582380D01*
X125491428Y-42582380D02*
X125491428Y-41582380D01*
X125396190Y-41725238D01*
X125300952Y-41820476D01*
X125205714Y-41868095D01*
X126729523Y-42582380D02*
X126158095Y-42582380D01*
X126443809Y-42582380D02*
X126443809Y-41582380D01*
X126348571Y-41725238D01*
X126253333Y-41820476D01*
X126158095Y-41868095D01*
X127634285Y-41582380D02*
X127158095Y-41582380D01*
X127110476Y-42058571D01*
X127158095Y-42010952D01*
X127253333Y-41963333D01*
X127491428Y-41963333D01*
X127586666Y-42010952D01*
X127634285Y-42058571D01*
X127681904Y-42153809D01*
X127681904Y-42391904D01*
X127634285Y-42487142D01*
X127586666Y-42534761D01*
X127491428Y-42582380D01*
X127253333Y-42582380D01*
X127158095Y-42534761D01*
X127110476Y-42487142D01*
X128539047Y-41582380D02*
X128348571Y-41582380D01*
X128253333Y-41630000D01*
X128205714Y-41677619D01*
X128110476Y-41820476D01*
X128062857Y-42010952D01*
X128062857Y-42391904D01*
X128110476Y-42487142D01*
X128158095Y-42534761D01*
X128253333Y-42582380D01*
X128443809Y-42582380D01*
X128539047Y-42534761D01*
X128586666Y-42487142D01*
X128634285Y-42391904D01*
X128634285Y-42153809D01*
X128586666Y-42058571D01*
X128539047Y-42010952D01*
X128443809Y-41963333D01*
X128253333Y-41963333D01*
X128158095Y-42010952D01*
X128110476Y-42058571D01*
X128062857Y-42153809D01*
X76413333Y-51332380D02*
X76413333Y-50332380D01*
X76651428Y-50332380D01*
X76794285Y-50380000D01*
X76889523Y-50475238D01*
X76937142Y-50570476D01*
X76984761Y-50760952D01*
X76984761Y-50903809D01*
X76937142Y-51094285D01*
X76889523Y-51189523D01*
X76794285Y-51284761D01*
X76651428Y-51332380D01*
X76413333Y-51332380D01*
X77937142Y-51332380D02*
X77365714Y-51332380D01*
X77651428Y-51332380D02*
X77651428Y-50332380D01*
X77556190Y-50475238D01*
X77460952Y-50570476D01*
X77365714Y-50618095D01*
X78889523Y-51332380D02*
X78318095Y-51332380D01*
X78603809Y-51332380D02*
X78603809Y-50332380D01*
X78508571Y-50475238D01*
X78413333Y-50570476D01*
X78318095Y-50618095D01*
X79746666Y-50332380D02*
X79556190Y-50332380D01*
X79460952Y-50380000D01*
X79413333Y-50427619D01*
X79318095Y-50570476D01*
X79270476Y-50760952D01*
X79270476Y-51141904D01*
X79318095Y-51237142D01*
X79365714Y-51284761D01*
X79460952Y-51332380D01*
X79651428Y-51332380D01*
X79746666Y-51284761D01*
X79794285Y-51237142D01*
X79841904Y-51141904D01*
X79841904Y-50903809D01*
X79794285Y-50808571D01*
X79746666Y-50760952D01*
X79651428Y-50713333D01*
X79460952Y-50713333D01*
X79365714Y-50760952D01*
X79318095Y-50808571D01*
X79270476Y-50903809D01*
X80699047Y-50332380D02*
X80508571Y-50332380D01*
X80413333Y-50380000D01*
X80365714Y-50427619D01*
X80270476Y-50570476D01*
X80222857Y-50760952D01*
X80222857Y-51141904D01*
X80270476Y-51237142D01*
X80318095Y-51284761D01*
X80413333Y-51332380D01*
X80603809Y-51332380D01*
X80699047Y-51284761D01*
X80746666Y-51237142D01*
X80794285Y-51141904D01*
X80794285Y-50903809D01*
X80746666Y-50808571D01*
X80699047Y-50760952D01*
X80603809Y-50713333D01*
X80413333Y-50713333D01*
X80318095Y-50760952D01*
X80270476Y-50808571D01*
X80222857Y-50903809D01*
X124253333Y-51332380D02*
X124253333Y-50332380D01*
X124491428Y-50332380D01*
X124634285Y-50380000D01*
X124729523Y-50475238D01*
X124777142Y-50570476D01*
X124824761Y-50760952D01*
X124824761Y-50903809D01*
X124777142Y-51094285D01*
X124729523Y-51189523D01*
X124634285Y-51284761D01*
X124491428Y-51332380D01*
X124253333Y-51332380D01*
X125777142Y-51332380D02*
X125205714Y-51332380D01*
X125491428Y-51332380D02*
X125491428Y-50332380D01*
X125396190Y-50475238D01*
X125300952Y-50570476D01*
X125205714Y-50618095D01*
X126729523Y-51332380D02*
X126158095Y-51332380D01*
X126443809Y-51332380D02*
X126443809Y-50332380D01*
X126348571Y-50475238D01*
X126253333Y-50570476D01*
X126158095Y-50618095D01*
X127634285Y-50332380D02*
X127158095Y-50332380D01*
X127110476Y-50808571D01*
X127158095Y-50760952D01*
X127253333Y-50713333D01*
X127491428Y-50713333D01*
X127586666Y-50760952D01*
X127634285Y-50808571D01*
X127681904Y-50903809D01*
X127681904Y-51141904D01*
X127634285Y-51237142D01*
X127586666Y-51284761D01*
X127491428Y-51332380D01*
X127253333Y-51332380D01*
X127158095Y-51284761D01*
X127110476Y-51237142D01*
X128015238Y-50332380D02*
X128681904Y-50332380D01*
X128253333Y-51332380D01*
X88654761Y-46617142D02*
X88607142Y-46664761D01*
X88464285Y-46712380D01*
X88369047Y-46712380D01*
X88226190Y-46664761D01*
X88130952Y-46569523D01*
X88083333Y-46474285D01*
X88035714Y-46283809D01*
X88035714Y-46140952D01*
X88083333Y-45950476D01*
X88130952Y-45855238D01*
X88226190Y-45760000D01*
X88369047Y-45712380D01*
X88464285Y-45712380D01*
X88607142Y-45760000D01*
X88654761Y-45807619D01*
X89607142Y-46712380D02*
X89035714Y-46712380D01*
X89321428Y-46712380D02*
X89321428Y-45712380D01*
X89226190Y-45855238D01*
X89130952Y-45950476D01*
X89035714Y-45998095D01*
X90559523Y-46712380D02*
X89988095Y-46712380D01*
X90273809Y-46712380D02*
X90273809Y-45712380D01*
X90178571Y-45855238D01*
X90083333Y-45950476D01*
X89988095Y-45998095D01*
X91416666Y-45712380D02*
X91226190Y-45712380D01*
X91130952Y-45760000D01*
X91083333Y-45807619D01*
X90988095Y-45950476D01*
X90940476Y-46140952D01*
X90940476Y-46521904D01*
X90988095Y-46617142D01*
X91035714Y-46664761D01*
X91130952Y-46712380D01*
X91321428Y-46712380D01*
X91416666Y-46664761D01*
X91464285Y-46617142D01*
X91511904Y-46521904D01*
X91511904Y-46283809D01*
X91464285Y-46188571D01*
X91416666Y-46140952D01*
X91321428Y-46093333D01*
X91130952Y-46093333D01*
X91035714Y-46140952D01*
X90988095Y-46188571D01*
X90940476Y-46283809D01*
X91845238Y-45712380D02*
X92464285Y-45712380D01*
X92130952Y-46093333D01*
X92273809Y-46093333D01*
X92369047Y-46140952D01*
X92416666Y-46188571D01*
X92464285Y-46283809D01*
X92464285Y-46521904D01*
X92416666Y-46617142D01*
X92369047Y-46664761D01*
X92273809Y-46712380D01*
X91988095Y-46712380D01*
X91892857Y-46664761D01*
X91845238Y-46617142D01*
X113154761Y-46617142D02*
X113107142Y-46664761D01*
X112964285Y-46712380D01*
X112869047Y-46712380D01*
X112726190Y-46664761D01*
X112630952Y-46569523D01*
X112583333Y-46474285D01*
X112535714Y-46283809D01*
X112535714Y-46140952D01*
X112583333Y-45950476D01*
X112630952Y-45855238D01*
X112726190Y-45760000D01*
X112869047Y-45712380D01*
X112964285Y-45712380D01*
X113107142Y-45760000D01*
X113154761Y-45807619D01*
X114107142Y-46712380D02*
X113535714Y-46712380D01*
X113821428Y-46712380D02*
X113821428Y-45712380D01*
X113726190Y-45855238D01*
X113630952Y-45950476D01*
X113535714Y-45998095D01*
X115059523Y-46712380D02*
X114488095Y-46712380D01*
X114773809Y-46712380D02*
X114773809Y-45712380D01*
X114678571Y-45855238D01*
X114583333Y-45950476D01*
X114488095Y-45998095D01*
X115964285Y-45712380D02*
X115488095Y-45712380D01*
X115440476Y-46188571D01*
X115488095Y-46140952D01*
X115583333Y-46093333D01*
X115821428Y-46093333D01*
X115916666Y-46140952D01*
X115964285Y-46188571D01*
X116011904Y-46283809D01*
X116011904Y-46521904D01*
X115964285Y-46617142D01*
X115916666Y-46664761D01*
X115821428Y-46712380D01*
X115583333Y-46712380D01*
X115488095Y-46664761D01*
X115440476Y-46617142D01*
X116869047Y-45712380D02*
X116678571Y-45712380D01*
X116583333Y-45760000D01*
X116535714Y-45807619D01*
X116440476Y-45950476D01*
X116392857Y-46140952D01*
X116392857Y-46521904D01*
X116440476Y-46617142D01*
X116488095Y-46664761D01*
X116583333Y-46712380D01*
X116773809Y-46712380D01*
X116869047Y-46664761D01*
X116916666Y-46617142D01*
X116964285Y-46521904D01*
X116964285Y-46283809D01*
X116916666Y-46188571D01*
X116869047Y-46140952D01*
X116773809Y-46093333D01*
X116583333Y-46093333D01*
X116488095Y-46140952D01*
X116440476Y-46188571D01*
X116392857Y-46283809D01*
X47324761Y-38082380D02*
X46991428Y-37606190D01*
X46753333Y-38082380D02*
X46753333Y-37082380D01*
X47134285Y-37082380D01*
X47229523Y-37130000D01*
X47277142Y-37177619D01*
X47324761Y-37272857D01*
X47324761Y-37415714D01*
X47277142Y-37510952D01*
X47229523Y-37558571D01*
X47134285Y-37606190D01*
X46753333Y-37606190D01*
X48277142Y-38082380D02*
X47705714Y-38082380D01*
X47991428Y-38082380D02*
X47991428Y-37082380D01*
X47896190Y-37225238D01*
X47800952Y-37320476D01*
X47705714Y-37368095D01*
X49229523Y-38082380D02*
X48658095Y-38082380D01*
X48943809Y-38082380D02*
X48943809Y-37082380D01*
X48848571Y-37225238D01*
X48753333Y-37320476D01*
X48658095Y-37368095D01*
X49562857Y-37082380D02*
X50229523Y-37082380D01*
X49800952Y-38082380D01*
X50562857Y-37177619D02*
X50610476Y-37130000D01*
X50705714Y-37082380D01*
X50943809Y-37082380D01*
X51039047Y-37130000D01*
X51086666Y-37177619D01*
X51134285Y-37272857D01*
X51134285Y-37368095D01*
X51086666Y-37510952D01*
X50515238Y-38082380D01*
X51134285Y-38082380D01*
X47324761Y-42582380D02*
X46991428Y-42106190D01*
X46753333Y-42582380D02*
X46753333Y-41582380D01*
X47134285Y-41582380D01*
X47229523Y-41630000D01*
X47277142Y-41677619D01*
X47324761Y-41772857D01*
X47324761Y-41915714D01*
X47277142Y-42010952D01*
X47229523Y-42058571D01*
X47134285Y-42106190D01*
X46753333Y-42106190D01*
X48277142Y-42582380D02*
X47705714Y-42582380D01*
X47991428Y-42582380D02*
X47991428Y-41582380D01*
X47896190Y-41725238D01*
X47800952Y-41820476D01*
X47705714Y-41868095D01*
X49229523Y-42582380D02*
X48658095Y-42582380D01*
X48943809Y-42582380D02*
X48943809Y-41582380D01*
X48848571Y-41725238D01*
X48753333Y-41820476D01*
X48658095Y-41868095D01*
X49562857Y-41582380D02*
X50229523Y-41582380D01*
X49800952Y-42582380D01*
X51134285Y-42582380D02*
X50562857Y-42582380D01*
X50848571Y-42582380D02*
X50848571Y-41582380D01*
X50753333Y-41725238D01*
X50658095Y-41820476D01*
X50562857Y-41868095D01*
X154484761Y-38082380D02*
X154151428Y-37606190D01*
X153913333Y-38082380D02*
X153913333Y-37082380D01*
X154294285Y-37082380D01*
X154389523Y-37130000D01*
X154437142Y-37177619D01*
X154484761Y-37272857D01*
X154484761Y-37415714D01*
X154437142Y-37510952D01*
X154389523Y-37558571D01*
X154294285Y-37606190D01*
X153913333Y-37606190D01*
X155437142Y-38082380D02*
X154865714Y-38082380D01*
X155151428Y-38082380D02*
X155151428Y-37082380D01*
X155056190Y-37225238D01*
X154960952Y-37320476D01*
X154865714Y-37368095D01*
X156389523Y-38082380D02*
X155818095Y-38082380D01*
X156103809Y-38082380D02*
X156103809Y-37082380D01*
X156008571Y-37225238D01*
X155913333Y-37320476D01*
X155818095Y-37368095D01*
X157246666Y-37415714D02*
X157246666Y-38082380D01*
X157008571Y-37034761D02*
X156770476Y-37749047D01*
X157389523Y-37749047D01*
X157913333Y-37510952D02*
X157818095Y-37463333D01*
X157770476Y-37415714D01*
X157722857Y-37320476D01*
X157722857Y-37272857D01*
X157770476Y-37177619D01*
X157818095Y-37130000D01*
X157913333Y-37082380D01*
X158103809Y-37082380D01*
X158199047Y-37130000D01*
X158246666Y-37177619D01*
X158294285Y-37272857D01*
X158294285Y-37320476D01*
X158246666Y-37415714D01*
X158199047Y-37463333D01*
X158103809Y-37510952D01*
X157913333Y-37510952D01*
X157818095Y-37558571D01*
X157770476Y-37606190D01*
X157722857Y-37701428D01*
X157722857Y-37891904D01*
X157770476Y-37987142D01*
X157818095Y-38034761D01*
X157913333Y-38082380D01*
X158103809Y-38082380D01*
X158199047Y-38034761D01*
X158246666Y-37987142D01*
X158294285Y-37891904D01*
X158294285Y-37701428D01*
X158246666Y-37606190D01*
X158199047Y-37558571D01*
X158103809Y-37510952D01*
X154484761Y-42582380D02*
X154151428Y-42106190D01*
X153913333Y-42582380D02*
X153913333Y-41582380D01*
X154294285Y-41582380D01*
X154389523Y-41630000D01*
X154437142Y-41677619D01*
X154484761Y-41772857D01*
X154484761Y-41915714D01*
X154437142Y-42010952D01*
X154389523Y-42058571D01*
X154294285Y-42106190D01*
X153913333Y-42106190D01*
X155437142Y-42582380D02*
X154865714Y-42582380D01*
X155151428Y-42582380D02*
X155151428Y-41582380D01*
X155056190Y-41725238D01*
X154960952Y-41820476D01*
X154865714Y-41868095D01*
X156389523Y-42582380D02*
X155818095Y-42582380D01*
X156103809Y-42582380D02*
X156103809Y-41582380D01*
X156008571Y-41725238D01*
X155913333Y-41820476D01*
X155818095Y-41868095D01*
X157246666Y-41915714D02*
X157246666Y-42582380D01*
X157008571Y-41534761D02*
X156770476Y-42249047D01*
X157389523Y-42249047D01*
X157675238Y-41582380D02*
X158341904Y-41582380D01*
X157913333Y-42582380D01*
X154262380Y-66425238D02*
X153786190Y-66758571D01*
X154262380Y-66996666D02*
X153262380Y-66996666D01*
X153262380Y-66615714D01*
X153310000Y-66520476D01*
X153357619Y-66472857D01*
X153452857Y-66425238D01*
X153595714Y-66425238D01*
X153690952Y-66472857D01*
X153738571Y-66520476D01*
X153786190Y-66615714D01*
X153786190Y-66996666D01*
X154262380Y-65472857D02*
X154262380Y-66044285D01*
X154262380Y-65758571D02*
X153262380Y-65758571D01*
X153405238Y-65853809D01*
X153500476Y-65949047D01*
X153548095Y-66044285D01*
X154262380Y-64520476D02*
X154262380Y-65091904D01*
X154262380Y-64806190D02*
X153262380Y-64806190D01*
X153405238Y-64901428D01*
X153500476Y-64996666D01*
X153548095Y-65091904D01*
X153595714Y-63663333D02*
X154262380Y-63663333D01*
X153214761Y-63901428D02*
X153929047Y-64139523D01*
X153929047Y-63520476D01*
X153262380Y-62710952D02*
X153262380Y-62901428D01*
X153310000Y-62996666D01*
X153357619Y-63044285D01*
X153500476Y-63139523D01*
X153690952Y-63187142D01*
X154071904Y-63187142D01*
X154167142Y-63139523D01*
X154214761Y-63091904D01*
X154262380Y-62996666D01*
X154262380Y-62806190D01*
X154214761Y-62710952D01*
X154167142Y-62663333D01*
X154071904Y-62615714D01*
X153833809Y-62615714D01*
X153738571Y-62663333D01*
X153690952Y-62710952D01*
X153643333Y-62806190D01*
X153643333Y-62996666D01*
X153690952Y-63091904D01*
X153738571Y-63139523D01*
X153833809Y-63187142D01*
X51969523Y-50832380D02*
X52540952Y-50832380D01*
X52255238Y-51832380D02*
X52255238Y-50832380D01*
X53398095Y-51832380D02*
X52826666Y-51832380D01*
X53112380Y-51832380D02*
X53112380Y-50832380D01*
X53017142Y-50975238D01*
X52921904Y-51070476D01*
X52826666Y-51118095D01*
X54350476Y-51832380D02*
X53779047Y-51832380D01*
X54064761Y-51832380D02*
X54064761Y-50832380D01*
X53969523Y-50975238D01*
X53874285Y-51070476D01*
X53779047Y-51118095D01*
X54683809Y-50832380D02*
X55350476Y-50832380D01*
X54921904Y-51832380D01*
X56255238Y-51832380D02*
X55683809Y-51832380D01*
X55969523Y-51832380D02*
X55969523Y-50832380D01*
X55874285Y-50975238D01*
X55779047Y-51070476D01*
X55683809Y-51118095D01*
X96142380Y-40255238D02*
X95666190Y-40588571D01*
X96142380Y-40826666D02*
X95142380Y-40826666D01*
X95142380Y-40445714D01*
X95190000Y-40350476D01*
X95237619Y-40302857D01*
X95332857Y-40255238D01*
X95475714Y-40255238D01*
X95570952Y-40302857D01*
X95618571Y-40350476D01*
X95666190Y-40445714D01*
X95666190Y-40826666D01*
X96142380Y-39302857D02*
X96142380Y-39874285D01*
X96142380Y-39588571D02*
X95142380Y-39588571D01*
X95285238Y-39683809D01*
X95380476Y-39779047D01*
X95428095Y-39874285D01*
X96142380Y-38350476D02*
X96142380Y-38921904D01*
X96142380Y-38636190D02*
X95142380Y-38636190D01*
X95285238Y-38731428D01*
X95380476Y-38826666D01*
X95428095Y-38921904D01*
X95142380Y-37493333D02*
X95142380Y-37683809D01*
X95190000Y-37779047D01*
X95237619Y-37826666D01*
X95380476Y-37921904D01*
X95570952Y-37969523D01*
X95951904Y-37969523D01*
X96047142Y-37921904D01*
X96094761Y-37874285D01*
X96142380Y-37779047D01*
X96142380Y-37588571D01*
X96094761Y-37493333D01*
X96047142Y-37445714D01*
X95951904Y-37398095D01*
X95713809Y-37398095D01*
X95618571Y-37445714D01*
X95570952Y-37493333D01*
X95523333Y-37588571D01*
X95523333Y-37779047D01*
X95570952Y-37874285D01*
X95618571Y-37921904D01*
X95713809Y-37969523D01*
X95570952Y-36826666D02*
X95523333Y-36921904D01*
X95475714Y-36969523D01*
X95380476Y-37017142D01*
X95332857Y-37017142D01*
X95237619Y-36969523D01*
X95190000Y-36921904D01*
X95142380Y-36826666D01*
X95142380Y-36636190D01*
X95190000Y-36540952D01*
X95237619Y-36493333D01*
X95332857Y-36445714D01*
X95380476Y-36445714D01*
X95475714Y-36493333D01*
X95523333Y-36540952D01*
X95570952Y-36636190D01*
X95570952Y-36826666D01*
X95618571Y-36921904D01*
X95666190Y-36969523D01*
X95761428Y-37017142D01*
X95951904Y-37017142D01*
X96047142Y-36969523D01*
X96094761Y-36921904D01*
X96142380Y-36826666D01*
X96142380Y-36636190D01*
X96094761Y-36540952D01*
X96047142Y-36493333D01*
X95951904Y-36445714D01*
X95761428Y-36445714D01*
X95666190Y-36493333D01*
X95618571Y-36540952D01*
X95570952Y-36636190D01*
X109762380Y-40255238D02*
X109286190Y-40588571D01*
X109762380Y-40826666D02*
X108762380Y-40826666D01*
X108762380Y-40445714D01*
X108810000Y-40350476D01*
X108857619Y-40302857D01*
X108952857Y-40255238D01*
X109095714Y-40255238D01*
X109190952Y-40302857D01*
X109238571Y-40350476D01*
X109286190Y-40445714D01*
X109286190Y-40826666D01*
X109762380Y-39302857D02*
X109762380Y-39874285D01*
X109762380Y-39588571D02*
X108762380Y-39588571D01*
X108905238Y-39683809D01*
X109000476Y-39779047D01*
X109048095Y-39874285D01*
X109762380Y-38350476D02*
X109762380Y-38921904D01*
X109762380Y-38636190D02*
X108762380Y-38636190D01*
X108905238Y-38731428D01*
X109000476Y-38826666D01*
X109048095Y-38921904D01*
X108762380Y-37493333D02*
X108762380Y-37683809D01*
X108810000Y-37779047D01*
X108857619Y-37826666D01*
X109000476Y-37921904D01*
X109190952Y-37969523D01*
X109571904Y-37969523D01*
X109667142Y-37921904D01*
X109714761Y-37874285D01*
X109762380Y-37779047D01*
X109762380Y-37588571D01*
X109714761Y-37493333D01*
X109667142Y-37445714D01*
X109571904Y-37398095D01*
X109333809Y-37398095D01*
X109238571Y-37445714D01*
X109190952Y-37493333D01*
X109143333Y-37588571D01*
X109143333Y-37779047D01*
X109190952Y-37874285D01*
X109238571Y-37921904D01*
X109333809Y-37969523D01*
X109762380Y-36445714D02*
X109762380Y-37017142D01*
X109762380Y-36731428D02*
X108762380Y-36731428D01*
X108905238Y-36826666D01*
X109000476Y-36921904D01*
X109048095Y-37017142D01*
X80309523Y-31002380D02*
X80880952Y-31002380D01*
X80595238Y-32002380D02*
X80595238Y-31002380D01*
X81738095Y-32002380D02*
X81166666Y-32002380D01*
X81452380Y-32002380D02*
X81452380Y-31002380D01*
X81357142Y-31145238D01*
X81261904Y-31240476D01*
X81166666Y-31288095D01*
X82690476Y-32002380D02*
X82119047Y-32002380D01*
X82404761Y-32002380D02*
X82404761Y-31002380D01*
X82309523Y-31145238D01*
X82214285Y-31240476D01*
X82119047Y-31288095D01*
X83023809Y-31002380D02*
X83690476Y-31002380D01*
X83261904Y-32002380D01*
X84500000Y-31335714D02*
X84500000Y-32002380D01*
X84261904Y-30954761D02*
X84023809Y-31669047D01*
X84642857Y-31669047D01*
X42759523Y-31002380D02*
X43330952Y-31002380D01*
X43045238Y-32002380D02*
X43045238Y-31002380D01*
X44188095Y-32002380D02*
X43616666Y-32002380D01*
X43902380Y-32002380D02*
X43902380Y-31002380D01*
X43807142Y-31145238D01*
X43711904Y-31240476D01*
X43616666Y-31288095D01*
X45140476Y-32002380D02*
X44569047Y-32002380D01*
X44854761Y-32002380D02*
X44854761Y-31002380D01*
X44759523Y-31145238D01*
X44664285Y-31240476D01*
X44569047Y-31288095D01*
X45473809Y-31002380D02*
X46140476Y-31002380D01*
X45711904Y-32002380D01*
X46426190Y-31002380D02*
X47045238Y-31002380D01*
X46711904Y-31383333D01*
X46854761Y-31383333D01*
X46950000Y-31430952D01*
X46997619Y-31478571D01*
X47045238Y-31573809D01*
X47045238Y-31811904D01*
X46997619Y-31907142D01*
X46950000Y-31954761D01*
X46854761Y-32002380D01*
X46569047Y-32002380D01*
X46473809Y-31954761D01*
X46426190Y-31907142D01*
X157759523Y-31002380D02*
X158330952Y-31002380D01*
X158045238Y-32002380D02*
X158045238Y-31002380D01*
X159188095Y-32002380D02*
X158616666Y-32002380D01*
X158902380Y-32002380D02*
X158902380Y-31002380D01*
X158807142Y-31145238D01*
X158711904Y-31240476D01*
X158616666Y-31288095D01*
X160140476Y-32002380D02*
X159569047Y-32002380D01*
X159854761Y-32002380D02*
X159854761Y-31002380D01*
X159759523Y-31145238D01*
X159664285Y-31240476D01*
X159569047Y-31288095D01*
X161045238Y-31002380D02*
X160569047Y-31002380D01*
X160521428Y-31478571D01*
X160569047Y-31430952D01*
X160664285Y-31383333D01*
X160902380Y-31383333D01*
X160997619Y-31430952D01*
X161045238Y-31478571D01*
X161092857Y-31573809D01*
X161092857Y-31811904D01*
X161045238Y-31907142D01*
X160997619Y-31954761D01*
X160902380Y-32002380D01*
X160664285Y-32002380D01*
X160569047Y-31954761D01*
X160521428Y-31907142D01*
X161473809Y-31097619D02*
X161521428Y-31050000D01*
X161616666Y-31002380D01*
X161854761Y-31002380D01*
X161950000Y-31050000D01*
X161997619Y-31097619D01*
X162045238Y-31192857D01*
X162045238Y-31288095D01*
X161997619Y-31430952D01*
X161426190Y-32002380D01*
X162045238Y-32002380D01*
X120309523Y-31002380D02*
X120880952Y-31002380D01*
X120595238Y-32002380D02*
X120595238Y-31002380D01*
X121738095Y-32002380D02*
X121166666Y-32002380D01*
X121452380Y-32002380D02*
X121452380Y-31002380D01*
X121357142Y-31145238D01*
X121261904Y-31240476D01*
X121166666Y-31288095D01*
X122690476Y-32002380D02*
X122119047Y-32002380D01*
X122404761Y-32002380D02*
X122404761Y-31002380D01*
X122309523Y-31145238D01*
X122214285Y-31240476D01*
X122119047Y-31288095D01*
X123595238Y-31002380D02*
X123119047Y-31002380D01*
X123071428Y-31478571D01*
X123119047Y-31430952D01*
X123214285Y-31383333D01*
X123452380Y-31383333D01*
X123547619Y-31430952D01*
X123595238Y-31478571D01*
X123642857Y-31573809D01*
X123642857Y-31811904D01*
X123595238Y-31907142D01*
X123547619Y-31954761D01*
X123452380Y-32002380D01*
X123214285Y-32002380D01*
X123119047Y-31954761D01*
X123071428Y-31907142D01*
X124595238Y-32002380D02*
X124023809Y-32002380D01*
X124309523Y-32002380D02*
X124309523Y-31002380D01*
X124214285Y-31145238D01*
X124119047Y-31240476D01*
X124023809Y-31288095D01*
%LPC*%
D12*
X92500000Y-58750000D03*
D13*
X107740000Y-58750000D03*
D14*
X88000000Y-67500000D03*
X82500000Y-67500000D03*
X77000000Y-67500000D03*
X71500000Y-67500000D03*
X66000000Y-67500000D03*
X60500000Y-67500000D03*
X55000000Y-67500000D03*
D15*
X169000000Y-45000000D03*
D12*
X169000000Y-52500000D03*
X67500000Y-28500000D03*
D13*
X67500000Y-43740000D03*
D12*
X60000000Y-28500000D03*
D13*
X60000000Y-43740000D03*
D12*
X145000000Y-43740000D03*
D13*
X145000000Y-28500000D03*
D12*
X137500000Y-43740000D03*
D13*
X137500000Y-28500000D03*
D15*
X36000000Y-52500000D03*
D12*
X36000000Y-45000000D03*
D16*
X148300000Y-54500000D03*
D17*
X150840000Y-54500000D03*
X153380000Y-54500000D03*
D16*
X136300000Y-54500000D03*
D17*
X138840000Y-54500000D03*
X141380000Y-54500000D03*
D18*
X153340000Y-48820000D03*
X148340000Y-48820000D03*
X83660000Y-53320000D03*
D19*
X73500000Y-53320000D03*
D18*
X87750000Y-53320000D03*
D19*
X97910000Y-53320000D03*
D18*
X51660000Y-48820000D03*
X56660000Y-48820000D03*
X69410000Y-53320000D03*
X64410000Y-53320000D03*
X71500000Y-58750000D03*
X76500000Y-58750000D03*
X66000000Y-58750000D03*
X61000000Y-58750000D03*
X131500000Y-53320000D03*
D19*
X121340000Y-53320000D03*
D18*
X117250000Y-53320000D03*
D19*
X107090000Y-53320000D03*
D18*
X82000000Y-58750000D03*
X87000000Y-58750000D03*
X141500000Y-59750000D03*
D19*
X141500000Y-69910000D03*
D18*
X136500000Y-59750000D03*
D19*
X136500000Y-69910000D03*
D18*
X146500000Y-59750000D03*
D19*
X146500000Y-69910000D03*
D18*
X131500000Y-59750000D03*
D19*
X131500000Y-69910000D03*
D20*
X119500000Y-69830000D03*
X122000000Y-59830000D03*
X124500000Y-69830000D03*
D18*
X141340000Y-48820000D03*
X136340000Y-48820000D03*
D16*
X88860000Y-39820000D03*
X91400000Y-42360000D03*
X91400000Y-37280000D03*
X116140000Y-39820000D03*
X113600000Y-37280000D03*
X113600000Y-42360000D03*
D18*
X83660000Y-35320000D03*
D19*
X73500000Y-35320000D03*
D18*
X83660000Y-44320000D03*
D19*
X73500000Y-44320000D03*
D18*
X73500000Y-39820000D03*
D19*
X83660000Y-39820000D03*
D18*
X121340000Y-35320000D03*
D19*
X131500000Y-35320000D03*
D18*
X121340000Y-44320000D03*
D19*
X131500000Y-44320000D03*
D18*
X131500000Y-39820000D03*
D19*
X121340000Y-39820000D03*
D18*
X83660000Y-48820000D03*
D19*
X73500000Y-48820000D03*
D18*
X131500000Y-48820000D03*
D19*
X121340000Y-48820000D03*
D18*
X87750000Y-48820000D03*
X92750000Y-48820000D03*
X117250000Y-48820000D03*
X112250000Y-48820000D03*
X54000000Y-35320000D03*
D19*
X43840000Y-35320000D03*
D18*
X43840000Y-39820000D03*
D19*
X54000000Y-39820000D03*
D18*
X151000000Y-35320000D03*
D19*
X161160000Y-35320000D03*
D18*
X151000000Y-39820000D03*
D19*
X161160000Y-39820000D03*
D18*
X151500000Y-59750000D03*
D19*
X151500000Y-69910000D03*
D17*
X51620000Y-54500000D03*
X54160000Y-54500000D03*
X56700000Y-54500000D03*
D12*
X99000000Y-48820000D03*
D13*
X99000000Y-28500000D03*
D12*
X106000000Y-28500000D03*
D13*
X106000000Y-48820000D03*
D21*
X77050000Y-27500000D03*
X82500000Y-27500000D03*
X87950000Y-27500000D03*
X39500000Y-27500000D03*
X44950000Y-27500000D03*
X50400000Y-27500000D03*
X154500000Y-27500000D03*
X159950000Y-27500000D03*
X165400000Y-27500000D03*
X117050000Y-27500000D03*
X122500000Y-27500000D03*
X127950000Y-27500000D03*
D22*
X175000000Y-35000000D03*
X30000000Y-35000000D03*
M02*
