G04 #@! TF.GenerationSoftware,KiCad,Pcbnew,(5.1.7)-1*
G04 #@! TF.CreationDate,2022-10-22T23:27:14+02:00*
G04 #@! TF.ProjectId,Skala,536b616c-612e-46b6-9963-61645f706362,rev?*
G04 #@! TF.SameCoordinates,Original*
G04 #@! TF.FileFunction,Legend,Bot*
G04 #@! TF.FilePolarity,Positive*
%FSLAX46Y46*%
G04 Gerber Fmt 4.6, Leading zero omitted, Abs format (unit mm)*
G04 Created by KiCad (PCBNEW (5.1.7)-1) date 2022-10-22 23:27:14*
%MOMM*%
%LPD*%
G01*
G04 APERTURE LIST*
G04 #@! TA.AperFunction,Profile*
%ADD10C,0.150000*%
G04 #@! TD*
%ADD11C,0.254000*%
%ADD12C,0.100000*%
G04 APERTURE END LIST*
D10*
X125000000Y-29000000D02*
X115000000Y-29000000D01*
X125000000Y-30000000D02*
X125000000Y-29000000D01*
X115000000Y-30000000D02*
X115000000Y-29000000D01*
X125000000Y-30000000D02*
X210500000Y-30000000D01*
X209000000Y-57000000D02*
G75*
G03*
X209000000Y-57000000I-2500000J0D01*
G01*
X36500000Y-57000000D02*
G75*
G03*
X36500000Y-57000000I-2500000J0D01*
G01*
X40000000Y-53500000D02*
X40000000Y-60500000D01*
X200000000Y-60500000D02*
X40000000Y-60500000D01*
X200000000Y-53500000D02*
X200000000Y-60500000D01*
X40000000Y-53500000D02*
X200000000Y-53500000D01*
X29500000Y-86000000D02*
X29500000Y-30000000D01*
X210500000Y-86000000D02*
X29500000Y-86000000D01*
X210500000Y-30000000D02*
X210500000Y-86000000D01*
X29500000Y-30000000D02*
X115000000Y-30000000D01*
%LPC*%
D11*
X125000000Y-30000000D02*
X210373000Y-30000000D01*
X210373000Y-85873000D01*
X29627000Y-85873000D01*
X29627000Y-57000000D01*
X31500000Y-57000000D01*
X31519713Y-57313333D01*
X31578542Y-57621725D01*
X31675559Y-57920311D01*
X31809233Y-58204384D01*
X31977458Y-58469463D01*
X32177578Y-58711368D01*
X32406440Y-58926283D01*
X32660433Y-59110820D01*
X32935552Y-59262068D01*
X33227458Y-59377641D01*
X33531547Y-59455718D01*
X33843024Y-59495067D01*
X34156976Y-59495067D01*
X34468453Y-59455718D01*
X34772542Y-59377641D01*
X35064448Y-59262068D01*
X35339567Y-59110820D01*
X35593560Y-58926283D01*
X35822422Y-58711368D01*
X36022542Y-58469463D01*
X36190767Y-58204384D01*
X36324441Y-57920311D01*
X36421458Y-57621725D01*
X36480287Y-57313333D01*
X36500000Y-57000000D01*
X36480287Y-56686667D01*
X36421458Y-56378275D01*
X36324441Y-56079689D01*
X36190767Y-55795616D01*
X36022542Y-55530537D01*
X35822422Y-55288632D01*
X35593560Y-55073717D01*
X35339567Y-54889180D01*
X35064448Y-54737932D01*
X34772542Y-54622359D01*
X34468453Y-54544282D01*
X34156976Y-54504933D01*
X33843024Y-54504933D01*
X33531547Y-54544282D01*
X33227458Y-54622359D01*
X32935552Y-54737932D01*
X32660433Y-54889180D01*
X32406440Y-55073717D01*
X32177578Y-55288632D01*
X31977458Y-55530537D01*
X31809233Y-55795616D01*
X31675559Y-56079689D01*
X31578542Y-56378275D01*
X31519713Y-56686667D01*
X31500000Y-57000000D01*
X29627000Y-57000000D01*
X29627000Y-53500000D01*
X40000000Y-53500000D01*
X40000000Y-60500000D01*
X200000000Y-60500000D01*
X200000000Y-57000000D01*
X204000000Y-57000000D01*
X204019713Y-57313333D01*
X204078542Y-57621725D01*
X204175559Y-57920311D01*
X204309233Y-58204384D01*
X204477458Y-58469463D01*
X204677578Y-58711368D01*
X204906440Y-58926283D01*
X205160433Y-59110820D01*
X205435552Y-59262068D01*
X205727458Y-59377641D01*
X206031547Y-59455718D01*
X206343024Y-59495067D01*
X206656976Y-59495067D01*
X206968453Y-59455718D01*
X207272542Y-59377641D01*
X207564448Y-59262068D01*
X207839567Y-59110820D01*
X208093560Y-58926283D01*
X208322422Y-58711368D01*
X208522542Y-58469463D01*
X208690767Y-58204384D01*
X208824441Y-57920311D01*
X208921458Y-57621725D01*
X208980287Y-57313333D01*
X209000000Y-57000000D01*
X208980287Y-56686667D01*
X208921458Y-56378275D01*
X208824441Y-56079689D01*
X208690767Y-55795616D01*
X208522542Y-55530537D01*
X208322422Y-55288632D01*
X208093560Y-55073717D01*
X207839567Y-54889180D01*
X207564448Y-54737932D01*
X207272542Y-54622359D01*
X206968453Y-54544282D01*
X206656976Y-54504933D01*
X206343024Y-54504933D01*
X206031547Y-54544282D01*
X205727458Y-54622359D01*
X205435552Y-54737932D01*
X205160433Y-54889180D01*
X204906440Y-55073717D01*
X204677578Y-55288632D01*
X204477458Y-55530537D01*
X204309233Y-55795616D01*
X204175559Y-56079689D01*
X204078542Y-56378275D01*
X204019713Y-56686667D01*
X204000000Y-57000000D01*
X200000000Y-57000000D01*
X200000000Y-53500000D01*
X40000000Y-53500000D01*
X29627000Y-53500000D01*
X29627000Y-30000000D01*
X115000000Y-30000000D01*
X115000000Y-29127000D01*
X125000000Y-29127000D01*
X125000000Y-30000000D01*
D12*
G36*
X125000000Y-30000000D02*
G01*
X210373000Y-30000000D01*
X210373000Y-85873000D01*
X29627000Y-85873000D01*
X29627000Y-57000000D01*
X31500000Y-57000000D01*
X31519713Y-57313333D01*
X31578542Y-57621725D01*
X31675559Y-57920311D01*
X31809233Y-58204384D01*
X31977458Y-58469463D01*
X32177578Y-58711368D01*
X32406440Y-58926283D01*
X32660433Y-59110820D01*
X32935552Y-59262068D01*
X33227458Y-59377641D01*
X33531547Y-59455718D01*
X33843024Y-59495067D01*
X34156976Y-59495067D01*
X34468453Y-59455718D01*
X34772542Y-59377641D01*
X35064448Y-59262068D01*
X35339567Y-59110820D01*
X35593560Y-58926283D01*
X35822422Y-58711368D01*
X36022542Y-58469463D01*
X36190767Y-58204384D01*
X36324441Y-57920311D01*
X36421458Y-57621725D01*
X36480287Y-57313333D01*
X36500000Y-57000000D01*
X36480287Y-56686667D01*
X36421458Y-56378275D01*
X36324441Y-56079689D01*
X36190767Y-55795616D01*
X36022542Y-55530537D01*
X35822422Y-55288632D01*
X35593560Y-55073717D01*
X35339567Y-54889180D01*
X35064448Y-54737932D01*
X34772542Y-54622359D01*
X34468453Y-54544282D01*
X34156976Y-54504933D01*
X33843024Y-54504933D01*
X33531547Y-54544282D01*
X33227458Y-54622359D01*
X32935552Y-54737932D01*
X32660433Y-54889180D01*
X32406440Y-55073717D01*
X32177578Y-55288632D01*
X31977458Y-55530537D01*
X31809233Y-55795616D01*
X31675559Y-56079689D01*
X31578542Y-56378275D01*
X31519713Y-56686667D01*
X31500000Y-57000000D01*
X29627000Y-57000000D01*
X29627000Y-53500000D01*
X40000000Y-53500000D01*
X40000000Y-60500000D01*
X200000000Y-60500000D01*
X200000000Y-57000000D01*
X204000000Y-57000000D01*
X204019713Y-57313333D01*
X204078542Y-57621725D01*
X204175559Y-57920311D01*
X204309233Y-58204384D01*
X204477458Y-58469463D01*
X204677578Y-58711368D01*
X204906440Y-58926283D01*
X205160433Y-59110820D01*
X205435552Y-59262068D01*
X205727458Y-59377641D01*
X206031547Y-59455718D01*
X206343024Y-59495067D01*
X206656976Y-59495067D01*
X206968453Y-59455718D01*
X207272542Y-59377641D01*
X207564448Y-59262068D01*
X207839567Y-59110820D01*
X208093560Y-58926283D01*
X208322422Y-58711368D01*
X208522542Y-58469463D01*
X208690767Y-58204384D01*
X208824441Y-57920311D01*
X208921458Y-57621725D01*
X208980287Y-57313333D01*
X209000000Y-57000000D01*
X208980287Y-56686667D01*
X208921458Y-56378275D01*
X208824441Y-56079689D01*
X208690767Y-55795616D01*
X208522542Y-55530537D01*
X208322422Y-55288632D01*
X208093560Y-55073717D01*
X207839567Y-54889180D01*
X207564448Y-54737932D01*
X207272542Y-54622359D01*
X206968453Y-54544282D01*
X206656976Y-54504933D01*
X206343024Y-54504933D01*
X206031547Y-54544282D01*
X205727458Y-54622359D01*
X205435552Y-54737932D01*
X205160433Y-54889180D01*
X204906440Y-55073717D01*
X204677578Y-55288632D01*
X204477458Y-55530537D01*
X204309233Y-55795616D01*
X204175559Y-56079689D01*
X204078542Y-56378275D01*
X204019713Y-56686667D01*
X204000000Y-57000000D01*
X200000000Y-57000000D01*
X200000000Y-53500000D01*
X40000000Y-53500000D01*
X29627000Y-53500000D01*
X29627000Y-30000000D01*
X115000000Y-30000000D01*
X115000000Y-29127000D01*
X125000000Y-29127000D01*
X125000000Y-30000000D01*
G37*
M02*
