G04 #@! TF.GenerationSoftware,KiCad,Pcbnew,(5.1.7)-1*
G04 #@! TF.CreationDate,2022-06-07T11:20:06+02:00*
G04 #@! TF.ProjectId,Anzeige-Modul,416e7a65-6967-4652-9d4d-6f64756c2e6b,rev?*
G04 #@! TF.SameCoordinates,Original*
G04 #@! TF.FileFunction,Profile,NP*
%FSLAX46Y46*%
G04 Gerber Fmt 4.6, Leading zero omitted, Abs format (unit mm)*
G04 Created by KiCad (PCBNEW (5.1.7)-1) date 2022-06-07 11:20:06*
%MOMM*%
%LPD*%
G01*
G04 APERTURE LIST*
G04 #@! TA.AperFunction,Profile*
%ADD10C,0.050000*%
G04 #@! TD*
G04 #@! TA.AperFunction,Profile*
%ADD11C,0.100000*%
G04 #@! TD*
G04 APERTURE END LIST*
D10*
X19000000Y-57000000D02*
X19000000Y-88000000D01*
X14000000Y-56000000D02*
X19000000Y-57000000D01*
X19000000Y-88000000D02*
X14000000Y-89000000D01*
X14000000Y-114000000D02*
X14000000Y-89000000D01*
X51250000Y-53000000D02*
X51250000Y-54000000D01*
X52750000Y-53000000D02*
X52750000Y-54000000D01*
X53790000Y-53000000D02*
X53790000Y-54000000D01*
X55290000Y-53000000D02*
X55290000Y-54000000D01*
X56330000Y-53000000D02*
X56330000Y-54000000D01*
X57830000Y-53000000D02*
X57830000Y-54000000D01*
X58870000Y-53000000D02*
X58870000Y-54000000D01*
X60370000Y-53000000D02*
X60370000Y-54000000D01*
X61410000Y-53000000D02*
X61410000Y-54000000D01*
X62910000Y-53000000D02*
X62910000Y-54000000D01*
X63950000Y-53000000D02*
X63950000Y-54000000D01*
X65450000Y-53000000D02*
X65450000Y-54000000D01*
X66490000Y-53000000D02*
X66490000Y-54000000D01*
X67990000Y-53000000D02*
X67990000Y-54000000D01*
X69030000Y-53000000D02*
X69030000Y-54000000D01*
X70530000Y-53000000D02*
X70530000Y-54000000D01*
X71570000Y-53000000D02*
X71570000Y-54000000D01*
X73070000Y-53000000D02*
X73070000Y-54000000D01*
X74110000Y-53000000D02*
X74110000Y-54000000D01*
X75610000Y-53000000D02*
X75610000Y-54000000D01*
X76650000Y-53000000D02*
X76650000Y-54000000D01*
X78150000Y-53000000D02*
X78150000Y-54000000D01*
X79190000Y-53000000D02*
X79190000Y-54000000D01*
X80690000Y-53000000D02*
X80690000Y-54000000D01*
X51250000Y-53000000D02*
G75*
G02*
X52750000Y-53000000I750000J0D01*
G01*
X53790000Y-53000000D02*
G75*
G02*
X55290000Y-53000000I750000J0D01*
G01*
X56330000Y-53000000D02*
G75*
G02*
X57830000Y-53000000I750000J0D01*
G01*
X58870000Y-53000000D02*
G75*
G02*
X60370000Y-53000000I750000J0D01*
G01*
X61410000Y-53000000D02*
G75*
G02*
X62910000Y-53000000I750000J0D01*
G01*
X63950000Y-53000000D02*
G75*
G02*
X65450000Y-53000000I750000J0D01*
G01*
X66490000Y-53000000D02*
G75*
G02*
X67990000Y-53000000I750000J0D01*
G01*
X69030000Y-53000000D02*
G75*
G02*
X70530000Y-53000000I750000J0D01*
G01*
X71570000Y-53000000D02*
G75*
G02*
X73070000Y-53000000I750000J0D01*
G01*
X74110000Y-53000000D02*
G75*
G02*
X75610000Y-53000000I750000J0D01*
G01*
X76650000Y-53000000D02*
G75*
G02*
X78150000Y-53000000I750000J0D01*
G01*
X79190000Y-53000000D02*
G75*
G02*
X80690000Y-53000000I750000J0D01*
G01*
X52750000Y-54000000D02*
G75*
G02*
X51250000Y-54000000I-750000J0D01*
G01*
X55290000Y-54000000D02*
G75*
G02*
X53790000Y-54000000I-750000J0D01*
G01*
X57830000Y-54000000D02*
G75*
G02*
X56330000Y-54000000I-750000J0D01*
G01*
X60370000Y-54000000D02*
G75*
G02*
X58870000Y-54000000I-750000J0D01*
G01*
X62910000Y-54000000D02*
G75*
G02*
X61410000Y-54000000I-750000J0D01*
G01*
X65450000Y-54000000D02*
G75*
G02*
X63950000Y-54000000I-750000J0D01*
G01*
X67990000Y-54000000D02*
G75*
G02*
X66490000Y-54000000I-750000J0D01*
G01*
X70530000Y-54000000D02*
G75*
G02*
X69030000Y-54000000I-750000J0D01*
G01*
X73070000Y-54000000D02*
G75*
G02*
X71570000Y-54000000I-750000J0D01*
G01*
X75610000Y-54000000D02*
G75*
G02*
X74110000Y-54000000I-750000J0D01*
G01*
X78150000Y-54000000D02*
G75*
G02*
X76650000Y-54000000I-750000J0D01*
G01*
X80690000Y-54000000D02*
G75*
G02*
X79190000Y-54000000I-750000J0D01*
G01*
X81730000Y-53000000D02*
G75*
G02*
X83230000Y-53000000I750000J0D01*
G01*
X81730000Y-54000000D02*
X81730000Y-53000000D01*
X83230000Y-54000000D02*
X83230000Y-53000000D01*
X83230000Y-54000000D02*
G75*
G02*
X81730000Y-54000000I-750000J0D01*
G01*
D11*
X88000000Y-42000000D02*
X88000000Y-47000000D01*
X85000000Y-42000000D02*
X88000000Y-42000000D01*
X85000000Y-47000000D02*
X85000000Y-42000000D01*
X88000000Y-47000000D02*
X85000000Y-47000000D01*
X88000000Y-20000000D02*
X88000000Y-25000000D01*
X85000000Y-20000000D02*
X88000000Y-20000000D01*
X85000000Y-25000000D02*
X85000000Y-20000000D01*
X88000000Y-25000000D02*
X85000000Y-25000000D01*
X22000000Y-42000000D02*
X22000000Y-47000000D01*
X19000000Y-42000000D02*
X22000000Y-42000000D01*
X19000000Y-47000000D02*
X19000000Y-42000000D01*
X22000000Y-47000000D02*
X19000000Y-47000000D01*
X22000000Y-20000000D02*
X22000000Y-25000000D01*
X19000000Y-20000000D02*
X22000000Y-20000000D01*
X19000000Y-25000000D02*
X19000000Y-20000000D01*
X22000000Y-25000000D02*
X19000000Y-25000000D01*
D10*
X63000000Y-14000000D02*
G75*
G02*
X54000000Y-14000000I-4500000J0D01*
G01*
X138000000Y-116000000D02*
X139000000Y-114000000D01*
X128000000Y-116000000D02*
X138000000Y-116000000D01*
X127000000Y-114000000D02*
X128000000Y-116000000D01*
X94000000Y-116000000D02*
X95000000Y-114000000D01*
X84000000Y-116000000D02*
X94000000Y-116000000D01*
X83000000Y-114000000D02*
X84000000Y-116000000D01*
X40000000Y-116000000D02*
X50000000Y-116000000D01*
X51000000Y-114000000D02*
X50000000Y-116000000D01*
X39000000Y-114000000D02*
X40000000Y-116000000D01*
X95000000Y-14000000D02*
X63000000Y-14000000D01*
X14000000Y-14000000D02*
X54000000Y-14000000D01*
X14000000Y-14000000D02*
X14000000Y-56000000D01*
X142000000Y-94000000D02*
X95000000Y-55000000D01*
X151000000Y-94000000D02*
X142000000Y-94000000D01*
X139000000Y-114000000D02*
X151000000Y-114000000D01*
X95000000Y-114000000D02*
X127000000Y-114000000D01*
X51000000Y-114000000D02*
X83000000Y-114000000D01*
X14000000Y-114000000D02*
X39000000Y-114000000D01*
X151000000Y-114000000D02*
X151000000Y-94000000D01*
X95000000Y-14000000D02*
X95000000Y-55000000D01*
M02*
