M48
; DRILL file {KiCad (5.1.7)-1} date 06/07/22 11:20:09
; FORMAT={-:-/ absolute / metric / decimal}
; #@! TF.CreationDate,2022-06-07T11:20:09+02:00
; #@! TF.GenerationSoftware,Kicad,Pcbnew,(5.1.7)-1
; #@! TF.FileFunction,Plated,1,2,PTH
FMAT,2
METRIC
T1C0.400
T2C0.900
T3C1.000
T4C1.200
T5C1.500
%
G90
G05
T1
X34.5Y-87.0
X39.95Y-68.0
X39.95Y-79.0
X43.22Y-80.2
X62.95Y-68.0
X62.95Y-79.0
X85.95Y-68.0
X85.95Y-79.0
X92.5Y-85.0
X96.5Y-68.0
X100.0Y-72.35
X100.0Y-73.2
X100.0Y-74.05
X100.0Y-74.9
X100.0Y-75.75
X100.0Y-76.6
X103.5Y-68.0
X104.0Y-76.0
X106.0Y-94.0
X106.8Y-76.2
X109.613Y-84.5
X112.0Y-87.5
X112.4Y-73.5
X112.6Y-84.6
X112.8Y-91.2
T2
X59.0Y-61.5
X61.54Y-61.5
X36.0Y-72.5
X38.54Y-72.5
X82.0Y-72.5
X84.54Y-72.5
X36.0Y-61.5
X38.54Y-61.5
X82.0Y-61.5
X84.54Y-61.5
X59.0Y-72.5
X61.54Y-72.5
T3
X91.585Y-89.96
X91.585Y-92.5
X94.125Y-89.96
X94.125Y-92.5
X96.665Y-89.96
X96.665Y-92.5
X24.0Y-57.26
X24.0Y-61.07
X24.0Y-64.88
X24.0Y-68.69
X24.0Y-72.5
X24.0Y-76.31
X24.0Y-80.12
X24.0Y-83.93
X24.0Y-87.74
T4
X45.9Y-43.0
X48.44Y-43.0
X50.98Y-43.0
X53.52Y-43.0
X56.06Y-43.0
X58.6Y-43.0
X61.14Y-43.0
X63.68Y-43.0
X66.22Y-43.0
X68.76Y-43.0
X71.3Y-43.0
X73.84Y-43.0
X76.38Y-43.0
X78.92Y-43.0
X81.46Y-43.0
X84.0Y-43.0
X52.0Y-49.0
X54.54Y-49.0
X57.08Y-49.0
X59.62Y-49.0
X62.16Y-49.0
X64.7Y-49.0
X67.24Y-49.0
X69.78Y-49.0
X72.32Y-49.0
X74.86Y-49.0
X77.4Y-49.0
X79.94Y-49.0
X82.48Y-49.0
T5
X50.7Y-103.0
X53.3Y-105.6
X54.5Y-101.5
X57.0Y-104.2
X103.45Y-103.0
X106.05Y-105.6
X107.25Y-101.5
X109.75Y-104.2
X120.95Y-103.0
X123.55Y-105.6
X124.75Y-101.5
X127.25Y-104.2
X33.2Y-103.0
X35.8Y-105.6
X37.0Y-101.5
X39.5Y-104.2
X68.2Y-103.0
X70.8Y-105.6
X72.0Y-101.5
X74.5Y-104.2
X138.45Y-103.0
X141.05Y-105.6
X142.25Y-101.5
X144.75Y-104.2
T0
M30
