G04 #@! TF.GenerationSoftware,KiCad,Pcbnew,(5.1.7)-1*
G04 #@! TF.CreationDate,2022-07-12T08:18:53+02:00*
G04 #@! TF.ProjectId,Flip-Flop-Modul,466c6970-2d46-46c6-9f70-2d4d6f64756c,rev?*
G04 #@! TF.SameCoordinates,Original*
G04 #@! TF.FileFunction,Legend,Top*
G04 #@! TF.FilePolarity,Positive*
%FSLAX46Y46*%
G04 Gerber Fmt 4.6, Leading zero omitted, Abs format (unit mm)*
G04 Created by KiCad (PCBNEW (5.1.7)-1) date 2022-07-12 08:18:53*
%MOMM*%
%LPD*%
G01*
G04 APERTURE LIST*
%ADD10C,0.150000*%
%ADD11C,0.225000*%
%ADD12C,0.250000*%
%ADD13C,0.120000*%
%ADD14C,1.600000*%
%ADD15O,1.600000X1.600000*%
%ADD16R,1.300000X0.700000*%
%ADD17R,1.000000X1.250000*%
%ADD18R,1.250000X1.000000*%
%ADD19C,0.100000*%
%ADD20R,1.000000X1.500000*%
%ADD21R,1.000000X1.800000*%
%ADD22R,2.200000X1.840000*%
%ADD23R,1.700000X1.700000*%
%ADD24O,1.700000X1.700000*%
%ADD25O,1.500000X2.000000*%
%ADD26O,2.000000X1.500000*%
%ADD27R,1.200000X0.600000*%
%ADD28R,0.600000X1.200000*%
G04 APERTURE END LIST*
D10*
X37309523Y-84952380D02*
X36738095Y-84952380D01*
X37023809Y-84952380D02*
X37023809Y-83952380D01*
X36928571Y-84095238D01*
X36833333Y-84190476D01*
X36738095Y-84238095D01*
X38261904Y-84952380D02*
X37690476Y-84952380D01*
X37976190Y-84952380D02*
X37976190Y-83952380D01*
X37880952Y-84095238D01*
X37785714Y-84190476D01*
X37690476Y-84238095D01*
X47309523Y-84952380D02*
X47500000Y-84952380D01*
X47595238Y-84904761D01*
X47642857Y-84857142D01*
X47738095Y-84714285D01*
X47785714Y-84523809D01*
X47785714Y-84142857D01*
X47738095Y-84047619D01*
X47690476Y-84000000D01*
X47595238Y-83952380D01*
X47404761Y-83952380D01*
X47309523Y-84000000D01*
X47261904Y-84047619D01*
X47214285Y-84142857D01*
X47214285Y-84380952D01*
X47261904Y-84476190D01*
X47309523Y-84523809D01*
X47404761Y-84571428D01*
X47595238Y-84571428D01*
X47690476Y-84523809D01*
X47738095Y-84476190D01*
X47785714Y-84380952D01*
X67738095Y-83952380D02*
X67261904Y-83952380D01*
X67214285Y-84428571D01*
X67261904Y-84380952D01*
X67357142Y-84333333D01*
X67595238Y-84333333D01*
X67690476Y-84380952D01*
X67738095Y-84428571D01*
X67785714Y-84523809D01*
X67785714Y-84761904D01*
X67738095Y-84857142D01*
X67690476Y-84904761D01*
X67595238Y-84952380D01*
X67357142Y-84952380D01*
X67261904Y-84904761D01*
X67214285Y-84857142D01*
X77166666Y-83952380D02*
X77785714Y-83952380D01*
X77452380Y-84333333D01*
X77595238Y-84333333D01*
X77690476Y-84380952D01*
X77738095Y-84428571D01*
X77785714Y-84523809D01*
X77785714Y-84761904D01*
X77738095Y-84857142D01*
X77690476Y-84904761D01*
X77595238Y-84952380D01*
X77309523Y-84952380D01*
X77214285Y-84904761D01*
X77166666Y-84857142D01*
D11*
X71044285Y-39142857D02*
X70544285Y-39142857D01*
X70544285Y-39928571D02*
X70544285Y-38428571D01*
X71258571Y-38428571D01*
X72044285Y-39928571D02*
X71901428Y-39857142D01*
X71830000Y-39714285D01*
X71830000Y-38428571D01*
X72615714Y-39928571D02*
X72615714Y-38928571D01*
X72615714Y-38428571D02*
X72544285Y-38500000D01*
X72615714Y-38571428D01*
X72687142Y-38500000D01*
X72615714Y-38428571D01*
X72615714Y-38571428D01*
X73330000Y-38928571D02*
X73330000Y-40428571D01*
X73330000Y-39000000D02*
X73472857Y-38928571D01*
X73758571Y-38928571D01*
X73901428Y-39000000D01*
X73972857Y-39071428D01*
X74044285Y-39214285D01*
X74044285Y-39642857D01*
X73972857Y-39785714D01*
X73901428Y-39857142D01*
X73758571Y-39928571D01*
X73472857Y-39928571D01*
X73330000Y-39857142D01*
X74687142Y-39357142D02*
X75830000Y-39357142D01*
X77044285Y-39142857D02*
X76544285Y-39142857D01*
X76544285Y-39928571D02*
X76544285Y-38428571D01*
X77258571Y-38428571D01*
X78044285Y-39928571D02*
X77901428Y-39857142D01*
X77830000Y-39714285D01*
X77830000Y-38428571D01*
X78830000Y-39928571D02*
X78687142Y-39857142D01*
X78615714Y-39785714D01*
X78544285Y-39642857D01*
X78544285Y-39214285D01*
X78615714Y-39071428D01*
X78687142Y-39000000D01*
X78830000Y-38928571D01*
X79044285Y-38928571D01*
X79187142Y-39000000D01*
X79258571Y-39071428D01*
X79330000Y-39214285D01*
X79330000Y-39642857D01*
X79258571Y-39785714D01*
X79187142Y-39857142D01*
X79044285Y-39928571D01*
X78830000Y-39928571D01*
X79972857Y-38928571D02*
X79972857Y-40428571D01*
X79972857Y-39000000D02*
X80115714Y-38928571D01*
X80401428Y-38928571D01*
X80544285Y-39000000D01*
X80615714Y-39071428D01*
X80687142Y-39214285D01*
X80687142Y-39642857D01*
X80615714Y-39785714D01*
X80544285Y-39857142D01*
X80401428Y-39928571D01*
X80115714Y-39928571D01*
X79972857Y-39857142D01*
D12*
X43250000Y-40607142D02*
X43297619Y-40654761D01*
X43250000Y-40702380D01*
X43202380Y-40654761D01*
X43250000Y-40607142D01*
X43250000Y-40702380D01*
D10*
X45023809Y-40452380D02*
X45023809Y-39452380D01*
X46071428Y-40357142D02*
X46023809Y-40404761D01*
X45880952Y-40452380D01*
X45785714Y-40452380D01*
X45642857Y-40404761D01*
X45547619Y-40309523D01*
X45500000Y-40214285D01*
X45452380Y-40023809D01*
X45452380Y-39880952D01*
X45500000Y-39690476D01*
X45547619Y-39595238D01*
X45642857Y-39500000D01*
X45785714Y-39452380D01*
X45880952Y-39452380D01*
X46023809Y-39500000D01*
X46071428Y-39547619D01*
X46452380Y-40404761D02*
X46595238Y-40452380D01*
X46833333Y-40452380D01*
X46928571Y-40404761D01*
X46976190Y-40357142D01*
X47023809Y-40261904D01*
X47023809Y-40166666D01*
X46976190Y-40071428D01*
X46928571Y-40023809D01*
X46833333Y-39976190D01*
X46642857Y-39928571D01*
X46547619Y-39880952D01*
X46500000Y-39833333D01*
X46452380Y-39738095D01*
X46452380Y-39642857D01*
X46500000Y-39547619D01*
X46547619Y-39500000D01*
X46642857Y-39452380D01*
X46880952Y-39452380D01*
X47023809Y-39500000D01*
X47452380Y-40452380D02*
X47452380Y-39452380D01*
X47833333Y-39452380D01*
X47928571Y-39500000D01*
X47976190Y-39547619D01*
X48023809Y-39642857D01*
X48023809Y-39785714D01*
X47976190Y-39880952D01*
X47928571Y-39928571D01*
X47833333Y-39976190D01*
X47452380Y-39976190D01*
D13*
X81820000Y-57500000D02*
X82710000Y-57500000D01*
X90020000Y-57500000D02*
X89130000Y-57500000D01*
X82710000Y-58810000D02*
X89130000Y-58810000D01*
X82710000Y-56190000D02*
X82710000Y-58810000D01*
X89130000Y-56190000D02*
X82710000Y-56190000D01*
X89130000Y-58810000D02*
X89130000Y-56190000D01*
X81820000Y-52500000D02*
X82710000Y-52500000D01*
X90020000Y-52500000D02*
X89130000Y-52500000D01*
X82710000Y-53810000D02*
X89130000Y-53810000D01*
X82710000Y-51190000D02*
X82710000Y-53810000D01*
X89130000Y-51190000D02*
X82710000Y-51190000D01*
X89130000Y-53810000D02*
X89130000Y-51190000D01*
X38180000Y-57500000D02*
X37290000Y-57500000D01*
X29980000Y-57500000D02*
X30870000Y-57500000D01*
X37290000Y-56190000D02*
X30870000Y-56190000D01*
X37290000Y-58810000D02*
X37290000Y-56190000D01*
X30870000Y-58810000D02*
X37290000Y-58810000D01*
X30870000Y-56190000D02*
X30870000Y-58810000D01*
X62460000Y-65070000D02*
X62460000Y-65960000D01*
X62460000Y-73270000D02*
X62460000Y-72380000D01*
X61150000Y-65960000D02*
X61150000Y-72380000D01*
X63770000Y-65960000D02*
X61150000Y-65960000D01*
X63770000Y-72380000D02*
X63770000Y-65960000D01*
X61150000Y-72380000D02*
X63770000Y-72380000D01*
X82460000Y-65070000D02*
X82460000Y-65960000D01*
X82460000Y-73270000D02*
X82460000Y-72380000D01*
X81150000Y-65960000D02*
X81150000Y-72380000D01*
X83770000Y-65960000D02*
X81150000Y-65960000D01*
X83770000Y-72380000D02*
X83770000Y-65960000D01*
X81150000Y-72380000D02*
X83770000Y-72380000D01*
X42460000Y-65070000D02*
X42460000Y-65960000D01*
X42460000Y-73270000D02*
X42460000Y-72380000D01*
X41150000Y-65960000D02*
X41150000Y-72380000D01*
X43770000Y-65960000D02*
X41150000Y-65960000D01*
X43770000Y-72380000D02*
X43770000Y-65960000D01*
X41150000Y-72380000D02*
X43770000Y-72380000D01*
X30870000Y-51190000D02*
X30870000Y-53810000D01*
X30870000Y-53810000D02*
X37290000Y-53810000D01*
X37290000Y-53810000D02*
X37290000Y-51190000D01*
X37290000Y-51190000D02*
X30870000Y-51190000D01*
X29980000Y-52500000D02*
X30870000Y-52500000D01*
X38180000Y-52500000D02*
X37290000Y-52500000D01*
X45650000Y-51380000D02*
X45650000Y-53620000D01*
X45890000Y-51380000D02*
X45890000Y-53620000D01*
X45770000Y-51380000D02*
X45770000Y-53620000D01*
X51210000Y-52500000D02*
X49290000Y-52500000D01*
X43130000Y-52500000D02*
X45050000Y-52500000D01*
X49290000Y-51380000D02*
X45050000Y-51380000D01*
X49290000Y-53620000D02*
X49290000Y-51380000D01*
X45050000Y-53620000D02*
X49290000Y-53620000D01*
X45050000Y-51380000D02*
X45050000Y-53620000D01*
X45650000Y-56380000D02*
X45650000Y-58620000D01*
X45890000Y-56380000D02*
X45890000Y-58620000D01*
X45770000Y-56380000D02*
X45770000Y-58620000D01*
X51210000Y-57500000D02*
X49290000Y-57500000D01*
X43130000Y-57500000D02*
X45050000Y-57500000D01*
X49290000Y-56380000D02*
X45050000Y-56380000D01*
X49290000Y-58620000D02*
X49290000Y-56380000D01*
X45050000Y-58620000D02*
X49290000Y-58620000D01*
X45050000Y-56380000D02*
X45050000Y-58620000D01*
X74350000Y-53620000D02*
X74350000Y-51380000D01*
X74110000Y-53620000D02*
X74110000Y-51380000D01*
X74230000Y-53620000D02*
X74230000Y-51380000D01*
X68790000Y-52500000D02*
X70710000Y-52500000D01*
X76870000Y-52500000D02*
X74950000Y-52500000D01*
X70710000Y-53620000D02*
X74950000Y-53620000D01*
X70710000Y-51380000D02*
X70710000Y-53620000D01*
X74950000Y-51380000D02*
X70710000Y-51380000D01*
X74950000Y-53620000D02*
X74950000Y-51380000D01*
X74350000Y-58620000D02*
X74350000Y-56380000D01*
X74110000Y-58620000D02*
X74110000Y-56380000D01*
X74230000Y-58620000D02*
X74230000Y-56380000D01*
X68790000Y-57500000D02*
X70710000Y-57500000D01*
X76870000Y-57500000D02*
X74950000Y-57500000D01*
X70710000Y-58620000D02*
X74950000Y-58620000D01*
X70710000Y-56380000D02*
X70710000Y-58620000D01*
X74950000Y-56380000D02*
X70710000Y-56380000D01*
X74950000Y-58620000D02*
X74950000Y-56380000D01*
X43080000Y-45990000D02*
X43080000Y-47190000D01*
X41320000Y-47190000D02*
X41320000Y-45990000D01*
X53000000Y-47650000D02*
X52000000Y-47650000D01*
X52000000Y-49350000D02*
X53000000Y-49350000D01*
X68450000Y-48000000D02*
X68450000Y-47000000D01*
X66750000Y-47000000D02*
X66750000Y-48000000D01*
X71065000Y-45220000D02*
X72265000Y-45220000D01*
X71065000Y-49220000D02*
X71065000Y-45220000D01*
X75865000Y-45220000D02*
X75865000Y-47920000D01*
X74665000Y-45220000D02*
X75865000Y-45220000D01*
X70600000Y-48000000D02*
X70600000Y-47000000D01*
X68900000Y-47000000D02*
X68900000Y-48000000D01*
X78100000Y-48000000D02*
X78100000Y-47000000D01*
X76400000Y-47000000D02*
X76400000Y-48000000D01*
X43670000Y-41130000D02*
X45000000Y-41130000D01*
X43670000Y-42460000D02*
X43670000Y-41130000D01*
X46270000Y-41130000D02*
X48870000Y-41130000D01*
X46270000Y-43730000D02*
X46270000Y-41130000D01*
X43670000Y-43730000D02*
X46270000Y-43730000D01*
X48870000Y-41130000D02*
X48870000Y-48870000D01*
X43670000Y-43730000D02*
X43670000Y-48870000D01*
X43670000Y-48870000D02*
X48870000Y-48870000D01*
X81820000Y-42500000D02*
X82710000Y-42500000D01*
X90020000Y-42500000D02*
X89130000Y-42500000D01*
X82710000Y-43810000D02*
X89130000Y-43810000D01*
X82710000Y-41190000D02*
X82710000Y-43810000D01*
X89130000Y-41190000D02*
X82710000Y-41190000D01*
X89130000Y-43810000D02*
X89130000Y-41190000D01*
X81820000Y-47500000D02*
X82710000Y-47500000D01*
X90020000Y-47500000D02*
X89130000Y-47500000D01*
X82710000Y-48810000D02*
X89130000Y-48810000D01*
X82710000Y-46190000D02*
X82710000Y-48810000D01*
X89130000Y-46190000D02*
X82710000Y-46190000D01*
X89130000Y-48810000D02*
X89130000Y-46190000D01*
X38180000Y-47500000D02*
X37290000Y-47500000D01*
X29980000Y-47500000D02*
X30870000Y-47500000D01*
X37290000Y-46190000D02*
X30870000Y-46190000D01*
X37290000Y-48810000D02*
X37290000Y-46190000D01*
X30870000Y-48810000D02*
X37290000Y-48810000D01*
X30870000Y-46190000D02*
X30870000Y-48810000D01*
X38180000Y-42500000D02*
X37290000Y-42500000D01*
X29980000Y-42500000D02*
X30870000Y-42500000D01*
X37290000Y-41190000D02*
X30870000Y-41190000D01*
X37290000Y-43810000D02*
X37290000Y-41190000D01*
X30870000Y-43810000D02*
X37290000Y-43810000D01*
X30870000Y-41190000D02*
X30870000Y-43810000D01*
X79680000Y-35500000D02*
X78790000Y-35500000D01*
X71480000Y-35500000D02*
X72370000Y-35500000D01*
X78790000Y-34190000D02*
X72370000Y-34190000D01*
X78790000Y-36810000D02*
X78790000Y-34190000D01*
X72370000Y-36810000D02*
X78790000Y-36810000D01*
X72370000Y-34190000D02*
X72370000Y-36810000D01*
X79680000Y-28500000D02*
X78790000Y-28500000D01*
X71480000Y-28500000D02*
X72370000Y-28500000D01*
X78790000Y-27190000D02*
X72370000Y-27190000D01*
X78790000Y-29810000D02*
X78790000Y-27190000D01*
X72370000Y-29810000D02*
X78790000Y-29810000D01*
X72370000Y-27190000D02*
X72370000Y-29810000D01*
X40320000Y-28500000D02*
X41210000Y-28500000D01*
X48520000Y-28500000D02*
X47630000Y-28500000D01*
X41210000Y-29810000D02*
X47630000Y-29810000D01*
X41210000Y-27190000D02*
X41210000Y-29810000D01*
X47630000Y-27190000D02*
X41210000Y-27190000D01*
X47630000Y-29810000D02*
X47630000Y-27190000D01*
X40320000Y-35500000D02*
X41210000Y-35500000D01*
X48520000Y-35500000D02*
X47630000Y-35500000D01*
X41210000Y-36810000D02*
X47630000Y-36810000D01*
X41210000Y-34190000D02*
X41210000Y-36810000D01*
X47630000Y-34190000D02*
X41210000Y-34190000D01*
X47630000Y-36810000D02*
X47630000Y-34190000D01*
X86800000Y-75900000D02*
X83200000Y-75900000D01*
X87324184Y-76627205D02*
G75*
G03*
X86800000Y-75900000I-2324184J-1122795D01*
G01*
X87356400Y-78848807D02*
G75*
G02*
X85000000Y-80350000I-2356400J1098807D01*
G01*
X82643600Y-78848807D02*
G75*
G03*
X85000000Y-80350000I2356400J1098807D01*
G01*
X82675816Y-76627205D02*
G75*
G02*
X83200000Y-75900000I2324184J-1122795D01*
G01*
X76800000Y-75900000D02*
X73200000Y-75900000D01*
X77324184Y-76627205D02*
G75*
G03*
X76800000Y-75900000I-2324184J-1122795D01*
G01*
X77356400Y-78848807D02*
G75*
G02*
X75000000Y-80350000I-2356400J1098807D01*
G01*
X72643600Y-78848807D02*
G75*
G03*
X75000000Y-80350000I2356400J1098807D01*
G01*
X72675816Y-76627205D02*
G75*
G02*
X73200000Y-75900000I2324184J-1122795D01*
G01*
X87540000Y-62820000D02*
X87540000Y-63710000D01*
X87540000Y-71020000D02*
X87540000Y-70130000D01*
X86230000Y-63710000D02*
X86230000Y-70130000D01*
X88850000Y-63710000D02*
X86230000Y-63710000D01*
X88850000Y-70130000D02*
X88850000Y-63710000D01*
X86230000Y-70130000D02*
X88850000Y-70130000D01*
X77540000Y-62820000D02*
X77540000Y-63710000D01*
X77540000Y-71020000D02*
X77540000Y-70130000D01*
X76230000Y-63710000D02*
X76230000Y-70130000D01*
X78850000Y-63710000D02*
X76230000Y-63710000D01*
X78850000Y-70130000D02*
X78850000Y-63710000D01*
X76230000Y-70130000D02*
X78850000Y-70130000D01*
X72460000Y-65070000D02*
X72460000Y-65960000D01*
X72460000Y-73270000D02*
X72460000Y-72380000D01*
X71150000Y-65960000D02*
X71150000Y-72380000D01*
X73770000Y-65960000D02*
X71150000Y-65960000D01*
X73770000Y-72380000D02*
X73770000Y-65960000D01*
X71150000Y-72380000D02*
X73770000Y-72380000D01*
X66800000Y-75900000D02*
X63200000Y-75900000D01*
X67324184Y-76627205D02*
G75*
G03*
X66800000Y-75900000I-2324184J-1122795D01*
G01*
X67356400Y-78848807D02*
G75*
G02*
X65000000Y-80350000I-2356400J1098807D01*
G01*
X62643600Y-78848807D02*
G75*
G03*
X65000000Y-80350000I2356400J1098807D01*
G01*
X62675816Y-76627205D02*
G75*
G02*
X63200000Y-75900000I2324184J-1122795D01*
G01*
X67540000Y-62820000D02*
X67540000Y-63710000D01*
X67540000Y-71020000D02*
X67540000Y-70130000D01*
X66230000Y-63710000D02*
X66230000Y-70130000D01*
X68850000Y-63710000D02*
X66230000Y-63710000D01*
X68850000Y-70130000D02*
X68850000Y-63710000D01*
X66230000Y-70130000D02*
X68850000Y-70130000D01*
X46800000Y-75900000D02*
X43200000Y-75900000D01*
X47324184Y-76627205D02*
G75*
G03*
X46800000Y-75900000I-2324184J-1122795D01*
G01*
X47356400Y-78848807D02*
G75*
G02*
X45000000Y-80350000I-2356400J1098807D01*
G01*
X42643600Y-78848807D02*
G75*
G03*
X45000000Y-80350000I2356400J1098807D01*
G01*
X42675816Y-76627205D02*
G75*
G02*
X43200000Y-75900000I2324184J-1122795D01*
G01*
X36800000Y-75900000D02*
X33200000Y-75900000D01*
X37324184Y-76627205D02*
G75*
G03*
X36800000Y-75900000I-2324184J-1122795D01*
G01*
X37356400Y-78848807D02*
G75*
G02*
X35000000Y-80350000I-2356400J1098807D01*
G01*
X32643600Y-78848807D02*
G75*
G03*
X35000000Y-80350000I2356400J1098807D01*
G01*
X32675816Y-76627205D02*
G75*
G02*
X33200000Y-75900000I2324184J-1122795D01*
G01*
X47540000Y-62820000D02*
X47540000Y-63710000D01*
X47540000Y-71020000D02*
X47540000Y-70130000D01*
X46230000Y-63710000D02*
X46230000Y-70130000D01*
X48850000Y-63710000D02*
X46230000Y-63710000D01*
X48850000Y-70130000D02*
X48850000Y-63710000D01*
X46230000Y-70130000D02*
X48850000Y-70130000D01*
X37540000Y-62820000D02*
X37540000Y-63710000D01*
X37540000Y-71020000D02*
X37540000Y-70130000D01*
X36230000Y-63710000D02*
X36230000Y-70130000D01*
X38850000Y-63710000D02*
X36230000Y-63710000D01*
X38850000Y-70130000D02*
X38850000Y-63710000D01*
X36230000Y-70130000D02*
X38850000Y-70130000D01*
X32460000Y-65070000D02*
X32460000Y-65960000D01*
X32460000Y-73270000D02*
X32460000Y-72380000D01*
X31150000Y-65960000D02*
X31150000Y-72380000D01*
X33770000Y-65960000D02*
X31150000Y-65960000D01*
X33770000Y-72380000D02*
X33770000Y-65960000D01*
X31150000Y-72380000D02*
X33770000Y-72380000D01*
X56800000Y-75900000D02*
X53200000Y-75900000D01*
X57324184Y-76627205D02*
G75*
G03*
X56800000Y-75900000I-2324184J-1122795D01*
G01*
X57356400Y-78848807D02*
G75*
G02*
X55000000Y-80350000I-2356400J1098807D01*
G01*
X52643600Y-78848807D02*
G75*
G03*
X55000000Y-80350000I2356400J1098807D01*
G01*
X52675816Y-76627205D02*
G75*
G02*
X53200000Y-75900000I2324184J-1122795D01*
G01*
X57540000Y-62820000D02*
X57540000Y-63710000D01*
X57540000Y-71020000D02*
X57540000Y-70130000D01*
X56230000Y-63710000D02*
X56230000Y-70130000D01*
X58850000Y-63710000D02*
X56230000Y-63710000D01*
X58850000Y-70130000D02*
X58850000Y-63710000D01*
X56230000Y-70130000D02*
X58850000Y-70130000D01*
X52460000Y-65070000D02*
X52460000Y-65960000D01*
X52460000Y-73270000D02*
X52460000Y-72380000D01*
X51150000Y-65960000D02*
X51150000Y-72380000D01*
X53770000Y-65960000D02*
X51150000Y-65960000D01*
X53770000Y-72380000D02*
X53770000Y-65960000D01*
X51150000Y-72380000D02*
X53770000Y-72380000D01*
X84700000Y-39600000D02*
X88300000Y-39600000D01*
X84175816Y-38872795D02*
G75*
G03*
X84700000Y-39600000I2324184J1122795D01*
G01*
X84143600Y-36651193D02*
G75*
G02*
X86500000Y-35150000I2356400J-1098807D01*
G01*
X88856400Y-36651193D02*
G75*
G03*
X86500000Y-35150000I-2356400J-1098807D01*
G01*
X88824184Y-38872795D02*
G75*
G02*
X88300000Y-39600000I-2324184J1122795D01*
G01*
X84700000Y-32550000D02*
X88300000Y-32550000D01*
X84175816Y-31822795D02*
G75*
G03*
X84700000Y-32550000I2324184J1122795D01*
G01*
X84143600Y-29601193D02*
G75*
G02*
X86500000Y-28100000I2356400J-1098807D01*
G01*
X88856400Y-29601193D02*
G75*
G03*
X86500000Y-28100000I-2356400J-1098807D01*
G01*
X88824184Y-31822795D02*
G75*
G02*
X88300000Y-32550000I-2324184J1122795D01*
G01*
X35300000Y-27050000D02*
X31700000Y-27050000D01*
X35824184Y-27777205D02*
G75*
G03*
X35300000Y-27050000I-2324184J-1122795D01*
G01*
X35856400Y-29998807D02*
G75*
G02*
X33500000Y-31500000I-2356400J1098807D01*
G01*
X31143600Y-29998807D02*
G75*
G03*
X33500000Y-31500000I2356400J1098807D01*
G01*
X31175816Y-27777205D02*
G75*
G02*
X31700000Y-27050000I2324184J-1122795D01*
G01*
D10*
X25500000Y-95000000D02*
X25500000Y-87000000D01*
X93000000Y-87000000D02*
X25500000Y-87000000D01*
X93000000Y-95000000D02*
X93000000Y-87000000D01*
X25500000Y-95000000D02*
X93000000Y-95000000D01*
X51500000Y-40000000D02*
X68500000Y-40000000D01*
X68500000Y-40000000D02*
X68500000Y-25000000D01*
X68500000Y-25000000D02*
X51500000Y-25000000D01*
X51500000Y-25000000D02*
X51500000Y-40000000D01*
X63625000Y-54125000D02*
X63625000Y-53900000D01*
X56375000Y-54125000D02*
X56375000Y-53825000D01*
X56375000Y-46875000D02*
X56375000Y-47175000D01*
X63625000Y-46875000D02*
X63625000Y-47175000D01*
X63625000Y-54125000D02*
X63325000Y-54125000D01*
X63625000Y-46875000D02*
X63325000Y-46875000D01*
X56375000Y-46875000D02*
X56675000Y-46875000D01*
X56375000Y-54125000D02*
X56675000Y-54125000D01*
X63625000Y-53900000D02*
X64850000Y-53900000D01*
D13*
X35300000Y-34050000D02*
X31700000Y-34050000D01*
X35824184Y-34777205D02*
G75*
G03*
X35300000Y-34050000I-2324184J-1122795D01*
G01*
X35856400Y-36998807D02*
G75*
G02*
X33500000Y-38500000I-2356400J1098807D01*
G01*
X31143600Y-36998807D02*
G75*
G03*
X33500000Y-38500000I2356400J1098807D01*
G01*
X31175816Y-34777205D02*
G75*
G02*
X31700000Y-34050000I2324184J-1122795D01*
G01*
D10*
X85277142Y-60262380D02*
X84943809Y-59786190D01*
X84705714Y-60262380D02*
X84705714Y-59262380D01*
X85086666Y-59262380D01*
X85181904Y-59310000D01*
X85229523Y-59357619D01*
X85277142Y-59452857D01*
X85277142Y-59595714D01*
X85229523Y-59690952D01*
X85181904Y-59738571D01*
X85086666Y-59786190D01*
X84705714Y-59786190D01*
X86229523Y-60262380D02*
X85658095Y-60262380D01*
X85943809Y-60262380D02*
X85943809Y-59262380D01*
X85848571Y-59405238D01*
X85753333Y-59500476D01*
X85658095Y-59548095D01*
X87086666Y-59595714D02*
X87086666Y-60262380D01*
X86848571Y-59214761D02*
X86610476Y-59929047D01*
X87229523Y-59929047D01*
X85277142Y-55262380D02*
X84943809Y-54786190D01*
X84705714Y-55262380D02*
X84705714Y-54262380D01*
X85086666Y-54262380D01*
X85181904Y-54310000D01*
X85229523Y-54357619D01*
X85277142Y-54452857D01*
X85277142Y-54595714D01*
X85229523Y-54690952D01*
X85181904Y-54738571D01*
X85086666Y-54786190D01*
X84705714Y-54786190D01*
X86229523Y-55262380D02*
X85658095Y-55262380D01*
X85943809Y-55262380D02*
X85943809Y-54262380D01*
X85848571Y-54405238D01*
X85753333Y-54500476D01*
X85658095Y-54548095D01*
X86562857Y-54262380D02*
X87181904Y-54262380D01*
X86848571Y-54643333D01*
X86991428Y-54643333D01*
X87086666Y-54690952D01*
X87134285Y-54738571D01*
X87181904Y-54833809D01*
X87181904Y-55071904D01*
X87134285Y-55167142D01*
X87086666Y-55214761D01*
X86991428Y-55262380D01*
X86705714Y-55262380D01*
X86610476Y-55214761D01*
X86562857Y-55167142D01*
X33437142Y-60262380D02*
X33103809Y-59786190D01*
X32865714Y-60262380D02*
X32865714Y-59262380D01*
X33246666Y-59262380D01*
X33341904Y-59310000D01*
X33389523Y-59357619D01*
X33437142Y-59452857D01*
X33437142Y-59595714D01*
X33389523Y-59690952D01*
X33341904Y-59738571D01*
X33246666Y-59786190D01*
X32865714Y-59786190D01*
X34389523Y-60262380D02*
X33818095Y-60262380D01*
X34103809Y-60262380D02*
X34103809Y-59262380D01*
X34008571Y-59405238D01*
X33913333Y-59500476D01*
X33818095Y-59548095D01*
X34770476Y-59357619D02*
X34818095Y-59310000D01*
X34913333Y-59262380D01*
X35151428Y-59262380D01*
X35246666Y-59310000D01*
X35294285Y-59357619D01*
X35341904Y-59452857D01*
X35341904Y-59548095D01*
X35294285Y-59690952D01*
X34722857Y-60262380D01*
X35341904Y-60262380D01*
X60602380Y-69812857D02*
X60126190Y-70146190D01*
X60602380Y-70384285D02*
X59602380Y-70384285D01*
X59602380Y-70003333D01*
X59650000Y-69908095D01*
X59697619Y-69860476D01*
X59792857Y-69812857D01*
X59935714Y-69812857D01*
X60030952Y-69860476D01*
X60078571Y-69908095D01*
X60126190Y-70003333D01*
X60126190Y-70384285D01*
X59602380Y-68955714D02*
X59602380Y-69146190D01*
X59650000Y-69241428D01*
X59697619Y-69289047D01*
X59840476Y-69384285D01*
X60030952Y-69431904D01*
X60411904Y-69431904D01*
X60507142Y-69384285D01*
X60554761Y-69336666D01*
X60602380Y-69241428D01*
X60602380Y-69050952D01*
X60554761Y-68955714D01*
X60507142Y-68908095D01*
X60411904Y-68860476D01*
X60173809Y-68860476D01*
X60078571Y-68908095D01*
X60030952Y-68955714D01*
X59983333Y-69050952D01*
X59983333Y-69241428D01*
X60030952Y-69336666D01*
X60078571Y-69384285D01*
X60173809Y-69431904D01*
X60602380Y-67908095D02*
X60602380Y-68479523D01*
X60602380Y-68193809D02*
X59602380Y-68193809D01*
X59745238Y-68289047D01*
X59840476Y-68384285D01*
X59888095Y-68479523D01*
X80602380Y-69812857D02*
X80126190Y-70146190D01*
X80602380Y-70384285D02*
X79602380Y-70384285D01*
X79602380Y-70003333D01*
X79650000Y-69908095D01*
X79697619Y-69860476D01*
X79792857Y-69812857D01*
X79935714Y-69812857D01*
X80030952Y-69860476D01*
X80078571Y-69908095D01*
X80126190Y-70003333D01*
X80126190Y-70384285D01*
X79602380Y-68908095D02*
X79602380Y-69384285D01*
X80078571Y-69431904D01*
X80030952Y-69384285D01*
X79983333Y-69289047D01*
X79983333Y-69050952D01*
X80030952Y-68955714D01*
X80078571Y-68908095D01*
X80173809Y-68860476D01*
X80411904Y-68860476D01*
X80507142Y-68908095D01*
X80554761Y-68955714D01*
X80602380Y-69050952D01*
X80602380Y-69289047D01*
X80554761Y-69384285D01*
X80507142Y-69431904D01*
X80602380Y-67908095D02*
X80602380Y-68479523D01*
X80602380Y-68193809D02*
X79602380Y-68193809D01*
X79745238Y-68289047D01*
X79840476Y-68384285D01*
X79888095Y-68479523D01*
X40602380Y-69812857D02*
X40126190Y-70146190D01*
X40602380Y-70384285D02*
X39602380Y-70384285D01*
X39602380Y-70003333D01*
X39650000Y-69908095D01*
X39697619Y-69860476D01*
X39792857Y-69812857D01*
X39935714Y-69812857D01*
X40030952Y-69860476D01*
X40078571Y-69908095D01*
X40126190Y-70003333D01*
X40126190Y-70384285D01*
X39935714Y-68955714D02*
X40602380Y-68955714D01*
X39554761Y-69193809D02*
X40269047Y-69431904D01*
X40269047Y-68812857D01*
X40602380Y-67908095D02*
X40602380Y-68479523D01*
X40602380Y-68193809D02*
X39602380Y-68193809D01*
X39745238Y-68289047D01*
X39840476Y-68384285D01*
X39888095Y-68479523D01*
X33437142Y-55262380D02*
X33103809Y-54786190D01*
X32865714Y-55262380D02*
X32865714Y-54262380D01*
X33246666Y-54262380D01*
X33341904Y-54310000D01*
X33389523Y-54357619D01*
X33437142Y-54452857D01*
X33437142Y-54595714D01*
X33389523Y-54690952D01*
X33341904Y-54738571D01*
X33246666Y-54786190D01*
X32865714Y-54786190D01*
X34389523Y-55262380D02*
X33818095Y-55262380D01*
X34103809Y-55262380D02*
X34103809Y-54262380D01*
X34008571Y-54405238D01*
X33913333Y-54500476D01*
X33818095Y-54548095D01*
X35341904Y-55262380D02*
X34770476Y-55262380D01*
X35056190Y-55262380D02*
X35056190Y-54262380D01*
X34960952Y-54405238D01*
X34865714Y-54500476D01*
X34770476Y-54548095D01*
X45955714Y-55072380D02*
X45955714Y-54072380D01*
X46193809Y-54072380D01*
X46336666Y-54120000D01*
X46431904Y-54215238D01*
X46479523Y-54310476D01*
X46527142Y-54500952D01*
X46527142Y-54643809D01*
X46479523Y-54834285D01*
X46431904Y-54929523D01*
X46336666Y-55024761D01*
X46193809Y-55072380D01*
X45955714Y-55072380D01*
X47479523Y-55072380D02*
X46908095Y-55072380D01*
X47193809Y-55072380D02*
X47193809Y-54072380D01*
X47098571Y-54215238D01*
X47003333Y-54310476D01*
X46908095Y-54358095D01*
X48431904Y-55072380D02*
X47860476Y-55072380D01*
X48146190Y-55072380D02*
X48146190Y-54072380D01*
X48050952Y-54215238D01*
X47955714Y-54310476D01*
X47860476Y-54358095D01*
X45955714Y-60072380D02*
X45955714Y-59072380D01*
X46193809Y-59072380D01*
X46336666Y-59120000D01*
X46431904Y-59215238D01*
X46479523Y-59310476D01*
X46527142Y-59500952D01*
X46527142Y-59643809D01*
X46479523Y-59834285D01*
X46431904Y-59929523D01*
X46336666Y-60024761D01*
X46193809Y-60072380D01*
X45955714Y-60072380D01*
X47479523Y-60072380D02*
X46908095Y-60072380D01*
X47193809Y-60072380D02*
X47193809Y-59072380D01*
X47098571Y-59215238D01*
X47003333Y-59310476D01*
X46908095Y-59358095D01*
X47860476Y-59167619D02*
X47908095Y-59120000D01*
X48003333Y-59072380D01*
X48241428Y-59072380D01*
X48336666Y-59120000D01*
X48384285Y-59167619D01*
X48431904Y-59262857D01*
X48431904Y-59358095D01*
X48384285Y-59500952D01*
X47812857Y-60072380D01*
X48431904Y-60072380D01*
X71615714Y-55072380D02*
X71615714Y-54072380D01*
X71853809Y-54072380D01*
X71996666Y-54120000D01*
X72091904Y-54215238D01*
X72139523Y-54310476D01*
X72187142Y-54500952D01*
X72187142Y-54643809D01*
X72139523Y-54834285D01*
X72091904Y-54929523D01*
X71996666Y-55024761D01*
X71853809Y-55072380D01*
X71615714Y-55072380D01*
X73139523Y-55072380D02*
X72568095Y-55072380D01*
X72853809Y-55072380D02*
X72853809Y-54072380D01*
X72758571Y-54215238D01*
X72663333Y-54310476D01*
X72568095Y-54358095D01*
X73472857Y-54072380D02*
X74091904Y-54072380D01*
X73758571Y-54453333D01*
X73901428Y-54453333D01*
X73996666Y-54500952D01*
X74044285Y-54548571D01*
X74091904Y-54643809D01*
X74091904Y-54881904D01*
X74044285Y-54977142D01*
X73996666Y-55024761D01*
X73901428Y-55072380D01*
X73615714Y-55072380D01*
X73520476Y-55024761D01*
X73472857Y-54977142D01*
X71615714Y-60072380D02*
X71615714Y-59072380D01*
X71853809Y-59072380D01*
X71996666Y-59120000D01*
X72091904Y-59215238D01*
X72139523Y-59310476D01*
X72187142Y-59500952D01*
X72187142Y-59643809D01*
X72139523Y-59834285D01*
X72091904Y-59929523D01*
X71996666Y-60024761D01*
X71853809Y-60072380D01*
X71615714Y-60072380D01*
X73139523Y-60072380D02*
X72568095Y-60072380D01*
X72853809Y-60072380D02*
X72853809Y-59072380D01*
X72758571Y-59215238D01*
X72663333Y-59310476D01*
X72568095Y-59358095D01*
X73996666Y-59405714D02*
X73996666Y-60072380D01*
X73758571Y-59024761D02*
X73520476Y-59739047D01*
X74139523Y-59739047D01*
X42652380Y-44166666D02*
X42176190Y-44500000D01*
X42652380Y-44738095D02*
X41652380Y-44738095D01*
X41652380Y-44357142D01*
X41700000Y-44261904D01*
X41747619Y-44214285D01*
X41842857Y-44166666D01*
X41985714Y-44166666D01*
X42080952Y-44214285D01*
X42128571Y-44261904D01*
X42176190Y-44357142D01*
X42176190Y-44738095D01*
X42652380Y-43214285D02*
X42652380Y-43785714D01*
X42652380Y-43500000D02*
X41652380Y-43500000D01*
X41795238Y-43595238D01*
X41890476Y-43690476D01*
X41938095Y-43785714D01*
X52333333Y-47357142D02*
X52285714Y-47404761D01*
X52142857Y-47452380D01*
X52047619Y-47452380D01*
X51904761Y-47404761D01*
X51809523Y-47309523D01*
X51761904Y-47214285D01*
X51714285Y-47023809D01*
X51714285Y-46880952D01*
X51761904Y-46690476D01*
X51809523Y-46595238D01*
X51904761Y-46500000D01*
X52047619Y-46452380D01*
X52142857Y-46452380D01*
X52285714Y-46500000D01*
X52333333Y-46547619D01*
X53190476Y-46785714D02*
X53190476Y-47452380D01*
X52952380Y-46404761D02*
X52714285Y-47119047D01*
X53333333Y-47119047D01*
X67957142Y-44666666D02*
X68004761Y-44714285D01*
X68052380Y-44857142D01*
X68052380Y-44952380D01*
X68004761Y-45095238D01*
X67909523Y-45190476D01*
X67814285Y-45238095D01*
X67623809Y-45285714D01*
X67480952Y-45285714D01*
X67290476Y-45238095D01*
X67195238Y-45190476D01*
X67100000Y-45095238D01*
X67052380Y-44952380D01*
X67052380Y-44857142D01*
X67100000Y-44714285D01*
X67147619Y-44666666D01*
X67052380Y-44333333D02*
X67052380Y-43714285D01*
X67433333Y-44047619D01*
X67433333Y-43904761D01*
X67480952Y-43809523D01*
X67528571Y-43761904D01*
X67623809Y-43714285D01*
X67861904Y-43714285D01*
X67957142Y-43761904D01*
X68004761Y-43809523D01*
X68052380Y-43904761D01*
X68052380Y-44190476D01*
X68004761Y-44285714D01*
X67957142Y-44333333D01*
X72738095Y-42452380D02*
X72738095Y-43261904D01*
X72785714Y-43357142D01*
X72833333Y-43404761D01*
X72928571Y-43452380D01*
X73119047Y-43452380D01*
X73214285Y-43404761D01*
X73261904Y-43357142D01*
X73309523Y-43261904D01*
X73309523Y-42452380D01*
X73738095Y-42547619D02*
X73785714Y-42500000D01*
X73880952Y-42452380D01*
X74119047Y-42452380D01*
X74214285Y-42500000D01*
X74261904Y-42547619D01*
X74309523Y-42642857D01*
X74309523Y-42738095D01*
X74261904Y-42880952D01*
X73690476Y-43452380D01*
X74309523Y-43452380D01*
X70107142Y-44666666D02*
X70154761Y-44714285D01*
X70202380Y-44857142D01*
X70202380Y-44952380D01*
X70154761Y-45095238D01*
X70059523Y-45190476D01*
X69964285Y-45238095D01*
X69773809Y-45285714D01*
X69630952Y-45285714D01*
X69440476Y-45238095D01*
X69345238Y-45190476D01*
X69250000Y-45095238D01*
X69202380Y-44952380D01*
X69202380Y-44857142D01*
X69250000Y-44714285D01*
X69297619Y-44666666D01*
X69297619Y-44285714D02*
X69250000Y-44238095D01*
X69202380Y-44142857D01*
X69202380Y-43904761D01*
X69250000Y-43809523D01*
X69297619Y-43761904D01*
X69392857Y-43714285D01*
X69488095Y-43714285D01*
X69630952Y-43761904D01*
X70202380Y-44333333D01*
X70202380Y-43714285D01*
X77607142Y-44666666D02*
X77654761Y-44714285D01*
X77702380Y-44857142D01*
X77702380Y-44952380D01*
X77654761Y-45095238D01*
X77559523Y-45190476D01*
X77464285Y-45238095D01*
X77273809Y-45285714D01*
X77130952Y-45285714D01*
X76940476Y-45238095D01*
X76845238Y-45190476D01*
X76750000Y-45095238D01*
X76702380Y-44952380D01*
X76702380Y-44857142D01*
X76750000Y-44714285D01*
X76797619Y-44666666D01*
X77702380Y-43714285D02*
X77702380Y-44285714D01*
X77702380Y-44000000D02*
X76702380Y-44000000D01*
X76845238Y-44095238D01*
X76940476Y-44190476D01*
X76988095Y-44285714D01*
X85277142Y-45262380D02*
X84943809Y-44786190D01*
X84705714Y-45262380D02*
X84705714Y-44262380D01*
X85086666Y-44262380D01*
X85181904Y-44310000D01*
X85229523Y-44357619D01*
X85277142Y-44452857D01*
X85277142Y-44595714D01*
X85229523Y-44690952D01*
X85181904Y-44738571D01*
X85086666Y-44786190D01*
X84705714Y-44786190D01*
X85658095Y-44357619D02*
X85705714Y-44310000D01*
X85800952Y-44262380D01*
X86039047Y-44262380D01*
X86134285Y-44310000D01*
X86181904Y-44357619D01*
X86229523Y-44452857D01*
X86229523Y-44548095D01*
X86181904Y-44690952D01*
X85610476Y-45262380D01*
X86229523Y-45262380D01*
X87086666Y-44595714D02*
X87086666Y-45262380D01*
X86848571Y-44214761D02*
X86610476Y-44929047D01*
X87229523Y-44929047D01*
X85277142Y-50262380D02*
X84943809Y-49786190D01*
X84705714Y-50262380D02*
X84705714Y-49262380D01*
X85086666Y-49262380D01*
X85181904Y-49310000D01*
X85229523Y-49357619D01*
X85277142Y-49452857D01*
X85277142Y-49595714D01*
X85229523Y-49690952D01*
X85181904Y-49738571D01*
X85086666Y-49786190D01*
X84705714Y-49786190D01*
X85658095Y-49357619D02*
X85705714Y-49310000D01*
X85800952Y-49262380D01*
X86039047Y-49262380D01*
X86134285Y-49310000D01*
X86181904Y-49357619D01*
X86229523Y-49452857D01*
X86229523Y-49548095D01*
X86181904Y-49690952D01*
X85610476Y-50262380D01*
X86229523Y-50262380D01*
X86562857Y-49262380D02*
X87181904Y-49262380D01*
X86848571Y-49643333D01*
X86991428Y-49643333D01*
X87086666Y-49690952D01*
X87134285Y-49738571D01*
X87181904Y-49833809D01*
X87181904Y-50071904D01*
X87134285Y-50167142D01*
X87086666Y-50214761D01*
X86991428Y-50262380D01*
X86705714Y-50262380D01*
X86610476Y-50214761D01*
X86562857Y-50167142D01*
X33437142Y-50262380D02*
X33103809Y-49786190D01*
X32865714Y-50262380D02*
X32865714Y-49262380D01*
X33246666Y-49262380D01*
X33341904Y-49310000D01*
X33389523Y-49357619D01*
X33437142Y-49452857D01*
X33437142Y-49595714D01*
X33389523Y-49690952D01*
X33341904Y-49738571D01*
X33246666Y-49786190D01*
X32865714Y-49786190D01*
X33818095Y-49357619D02*
X33865714Y-49310000D01*
X33960952Y-49262380D01*
X34199047Y-49262380D01*
X34294285Y-49310000D01*
X34341904Y-49357619D01*
X34389523Y-49452857D01*
X34389523Y-49548095D01*
X34341904Y-49690952D01*
X33770476Y-50262380D01*
X34389523Y-50262380D01*
X34770476Y-49357619D02*
X34818095Y-49310000D01*
X34913333Y-49262380D01*
X35151428Y-49262380D01*
X35246666Y-49310000D01*
X35294285Y-49357619D01*
X35341904Y-49452857D01*
X35341904Y-49548095D01*
X35294285Y-49690952D01*
X34722857Y-50262380D01*
X35341904Y-50262380D01*
X33437142Y-45262380D02*
X33103809Y-44786190D01*
X32865714Y-45262380D02*
X32865714Y-44262380D01*
X33246666Y-44262380D01*
X33341904Y-44310000D01*
X33389523Y-44357619D01*
X33437142Y-44452857D01*
X33437142Y-44595714D01*
X33389523Y-44690952D01*
X33341904Y-44738571D01*
X33246666Y-44786190D01*
X32865714Y-44786190D01*
X33818095Y-44357619D02*
X33865714Y-44310000D01*
X33960952Y-44262380D01*
X34199047Y-44262380D01*
X34294285Y-44310000D01*
X34341904Y-44357619D01*
X34389523Y-44452857D01*
X34389523Y-44548095D01*
X34341904Y-44690952D01*
X33770476Y-45262380D01*
X34389523Y-45262380D01*
X35341904Y-45262380D02*
X34770476Y-45262380D01*
X35056190Y-45262380D02*
X35056190Y-44262380D01*
X34960952Y-44405238D01*
X34865714Y-44500476D01*
X34770476Y-44548095D01*
X73984761Y-33642380D02*
X73651428Y-33166190D01*
X73413333Y-33642380D02*
X73413333Y-32642380D01*
X73794285Y-32642380D01*
X73889523Y-32690000D01*
X73937142Y-32737619D01*
X73984761Y-32832857D01*
X73984761Y-32975714D01*
X73937142Y-33070952D01*
X73889523Y-33118571D01*
X73794285Y-33166190D01*
X73413333Y-33166190D01*
X74937142Y-33642380D02*
X74365714Y-33642380D01*
X74651428Y-33642380D02*
X74651428Y-32642380D01*
X74556190Y-32785238D01*
X74460952Y-32880476D01*
X74365714Y-32928095D01*
X75556190Y-32642380D02*
X75651428Y-32642380D01*
X75746666Y-32690000D01*
X75794285Y-32737619D01*
X75841904Y-32832857D01*
X75889523Y-33023333D01*
X75889523Y-33261428D01*
X75841904Y-33451904D01*
X75794285Y-33547142D01*
X75746666Y-33594761D01*
X75651428Y-33642380D01*
X75556190Y-33642380D01*
X75460952Y-33594761D01*
X75413333Y-33547142D01*
X75365714Y-33451904D01*
X75318095Y-33261428D01*
X75318095Y-33023333D01*
X75365714Y-32832857D01*
X75413333Y-32737619D01*
X75460952Y-32690000D01*
X75556190Y-32642380D01*
X76841904Y-33642380D02*
X76270476Y-33642380D01*
X76556190Y-33642380D02*
X76556190Y-32642380D01*
X76460952Y-32785238D01*
X76365714Y-32880476D01*
X76270476Y-32928095D01*
X77794285Y-33642380D02*
X77222857Y-33642380D01*
X77508571Y-33642380D02*
X77508571Y-32642380D01*
X77413333Y-32785238D01*
X77318095Y-32880476D01*
X77222857Y-32928095D01*
X73984761Y-26642380D02*
X73651428Y-26166190D01*
X73413333Y-26642380D02*
X73413333Y-25642380D01*
X73794285Y-25642380D01*
X73889523Y-25690000D01*
X73937142Y-25737619D01*
X73984761Y-25832857D01*
X73984761Y-25975714D01*
X73937142Y-26070952D01*
X73889523Y-26118571D01*
X73794285Y-26166190D01*
X73413333Y-26166190D01*
X74937142Y-26642380D02*
X74365714Y-26642380D01*
X74651428Y-26642380D02*
X74651428Y-25642380D01*
X74556190Y-25785238D01*
X74460952Y-25880476D01*
X74365714Y-25928095D01*
X75556190Y-25642380D02*
X75651428Y-25642380D01*
X75746666Y-25690000D01*
X75794285Y-25737619D01*
X75841904Y-25832857D01*
X75889523Y-26023333D01*
X75889523Y-26261428D01*
X75841904Y-26451904D01*
X75794285Y-26547142D01*
X75746666Y-26594761D01*
X75651428Y-26642380D01*
X75556190Y-26642380D01*
X75460952Y-26594761D01*
X75413333Y-26547142D01*
X75365714Y-26451904D01*
X75318095Y-26261428D01*
X75318095Y-26023333D01*
X75365714Y-25832857D01*
X75413333Y-25737619D01*
X75460952Y-25690000D01*
X75556190Y-25642380D01*
X76508571Y-25642380D02*
X76603809Y-25642380D01*
X76699047Y-25690000D01*
X76746666Y-25737619D01*
X76794285Y-25832857D01*
X76841904Y-26023333D01*
X76841904Y-26261428D01*
X76794285Y-26451904D01*
X76746666Y-26547142D01*
X76699047Y-26594761D01*
X76603809Y-26642380D01*
X76508571Y-26642380D01*
X76413333Y-26594761D01*
X76365714Y-26547142D01*
X76318095Y-26451904D01*
X76270476Y-26261428D01*
X76270476Y-26023333D01*
X76318095Y-25832857D01*
X76365714Y-25737619D01*
X76413333Y-25690000D01*
X76508571Y-25642380D01*
X77699047Y-25642380D02*
X77508571Y-25642380D01*
X77413333Y-25690000D01*
X77365714Y-25737619D01*
X77270476Y-25880476D01*
X77222857Y-26070952D01*
X77222857Y-26451904D01*
X77270476Y-26547142D01*
X77318095Y-26594761D01*
X77413333Y-26642380D01*
X77603809Y-26642380D01*
X77699047Y-26594761D01*
X77746666Y-26547142D01*
X77794285Y-26451904D01*
X77794285Y-26213809D01*
X77746666Y-26118571D01*
X77699047Y-26070952D01*
X77603809Y-26023333D01*
X77413333Y-26023333D01*
X77318095Y-26070952D01*
X77270476Y-26118571D01*
X77222857Y-26213809D01*
X42824761Y-26642380D02*
X42491428Y-26166190D01*
X42253333Y-26642380D02*
X42253333Y-25642380D01*
X42634285Y-25642380D01*
X42729523Y-25690000D01*
X42777142Y-25737619D01*
X42824761Y-25832857D01*
X42824761Y-25975714D01*
X42777142Y-26070952D01*
X42729523Y-26118571D01*
X42634285Y-26166190D01*
X42253333Y-26166190D01*
X43777142Y-26642380D02*
X43205714Y-26642380D01*
X43491428Y-26642380D02*
X43491428Y-25642380D01*
X43396190Y-25785238D01*
X43300952Y-25880476D01*
X43205714Y-25928095D01*
X44396190Y-25642380D02*
X44491428Y-25642380D01*
X44586666Y-25690000D01*
X44634285Y-25737619D01*
X44681904Y-25832857D01*
X44729523Y-26023333D01*
X44729523Y-26261428D01*
X44681904Y-26451904D01*
X44634285Y-26547142D01*
X44586666Y-26594761D01*
X44491428Y-26642380D01*
X44396190Y-26642380D01*
X44300952Y-26594761D01*
X44253333Y-26547142D01*
X44205714Y-26451904D01*
X44158095Y-26261428D01*
X44158095Y-26023333D01*
X44205714Y-25832857D01*
X44253333Y-25737619D01*
X44300952Y-25690000D01*
X44396190Y-25642380D01*
X45348571Y-25642380D02*
X45443809Y-25642380D01*
X45539047Y-25690000D01*
X45586666Y-25737619D01*
X45634285Y-25832857D01*
X45681904Y-26023333D01*
X45681904Y-26261428D01*
X45634285Y-26451904D01*
X45586666Y-26547142D01*
X45539047Y-26594761D01*
X45443809Y-26642380D01*
X45348571Y-26642380D01*
X45253333Y-26594761D01*
X45205714Y-26547142D01*
X45158095Y-26451904D01*
X45110476Y-26261428D01*
X45110476Y-26023333D01*
X45158095Y-25832857D01*
X45205714Y-25737619D01*
X45253333Y-25690000D01*
X45348571Y-25642380D01*
X46015238Y-25642380D02*
X46634285Y-25642380D01*
X46300952Y-26023333D01*
X46443809Y-26023333D01*
X46539047Y-26070952D01*
X46586666Y-26118571D01*
X46634285Y-26213809D01*
X46634285Y-26451904D01*
X46586666Y-26547142D01*
X46539047Y-26594761D01*
X46443809Y-26642380D01*
X46158095Y-26642380D01*
X46062857Y-26594761D01*
X46015238Y-26547142D01*
X42824761Y-33642380D02*
X42491428Y-33166190D01*
X42253333Y-33642380D02*
X42253333Y-32642380D01*
X42634285Y-32642380D01*
X42729523Y-32690000D01*
X42777142Y-32737619D01*
X42824761Y-32832857D01*
X42824761Y-32975714D01*
X42777142Y-33070952D01*
X42729523Y-33118571D01*
X42634285Y-33166190D01*
X42253333Y-33166190D01*
X43777142Y-33642380D02*
X43205714Y-33642380D01*
X43491428Y-33642380D02*
X43491428Y-32642380D01*
X43396190Y-32785238D01*
X43300952Y-32880476D01*
X43205714Y-32928095D01*
X44396190Y-32642380D02*
X44491428Y-32642380D01*
X44586666Y-32690000D01*
X44634285Y-32737619D01*
X44681904Y-32832857D01*
X44729523Y-33023333D01*
X44729523Y-33261428D01*
X44681904Y-33451904D01*
X44634285Y-33547142D01*
X44586666Y-33594761D01*
X44491428Y-33642380D01*
X44396190Y-33642380D01*
X44300952Y-33594761D01*
X44253333Y-33547142D01*
X44205714Y-33451904D01*
X44158095Y-33261428D01*
X44158095Y-33023333D01*
X44205714Y-32832857D01*
X44253333Y-32737619D01*
X44300952Y-32690000D01*
X44396190Y-32642380D01*
X45348571Y-32642380D02*
X45443809Y-32642380D01*
X45539047Y-32690000D01*
X45586666Y-32737619D01*
X45634285Y-32832857D01*
X45681904Y-33023333D01*
X45681904Y-33261428D01*
X45634285Y-33451904D01*
X45586666Y-33547142D01*
X45539047Y-33594761D01*
X45443809Y-33642380D01*
X45348571Y-33642380D01*
X45253333Y-33594761D01*
X45205714Y-33547142D01*
X45158095Y-33451904D01*
X45110476Y-33261428D01*
X45110476Y-33023333D01*
X45158095Y-32832857D01*
X45205714Y-32737619D01*
X45253333Y-32690000D01*
X45348571Y-32642380D01*
X46634285Y-33642380D02*
X46062857Y-33642380D01*
X46348571Y-33642380D02*
X46348571Y-32642380D01*
X46253333Y-32785238D01*
X46158095Y-32880476D01*
X46062857Y-32928095D01*
X83761904Y-81772380D02*
X84333333Y-81772380D01*
X84047619Y-82772380D02*
X84047619Y-81772380D01*
X85142857Y-81772380D02*
X84666666Y-81772380D01*
X84619047Y-82248571D01*
X84666666Y-82200952D01*
X84761904Y-82153333D01*
X85000000Y-82153333D01*
X85095238Y-82200952D01*
X85142857Y-82248571D01*
X85190476Y-82343809D01*
X85190476Y-82581904D01*
X85142857Y-82677142D01*
X85095238Y-82724761D01*
X85000000Y-82772380D01*
X84761904Y-82772380D01*
X84666666Y-82724761D01*
X84619047Y-82677142D01*
X86142857Y-82772380D02*
X85571428Y-82772380D01*
X85857142Y-82772380D02*
X85857142Y-81772380D01*
X85761904Y-81915238D01*
X85666666Y-82010476D01*
X85571428Y-82058095D01*
X73761904Y-81772380D02*
X74333333Y-81772380D01*
X74047619Y-82772380D02*
X74047619Y-81772380D01*
X75142857Y-81772380D02*
X74666666Y-81772380D01*
X74619047Y-82248571D01*
X74666666Y-82200952D01*
X74761904Y-82153333D01*
X75000000Y-82153333D01*
X75095238Y-82200952D01*
X75142857Y-82248571D01*
X75190476Y-82343809D01*
X75190476Y-82581904D01*
X75142857Y-82677142D01*
X75095238Y-82724761D01*
X75000000Y-82772380D01*
X74761904Y-82772380D01*
X74666666Y-82724761D01*
X74619047Y-82677142D01*
X75571428Y-81867619D02*
X75619047Y-81820000D01*
X75714285Y-81772380D01*
X75952380Y-81772380D01*
X76047619Y-81820000D01*
X76095238Y-81867619D01*
X76142857Y-81962857D01*
X76142857Y-82058095D01*
X76095238Y-82200952D01*
X75523809Y-82772380D01*
X76142857Y-82772380D01*
X85682380Y-67562857D02*
X85206190Y-67896190D01*
X85682380Y-68134285D02*
X84682380Y-68134285D01*
X84682380Y-67753333D01*
X84730000Y-67658095D01*
X84777619Y-67610476D01*
X84872857Y-67562857D01*
X85015714Y-67562857D01*
X85110952Y-67610476D01*
X85158571Y-67658095D01*
X85206190Y-67753333D01*
X85206190Y-68134285D01*
X84682380Y-66658095D02*
X84682380Y-67134285D01*
X85158571Y-67181904D01*
X85110952Y-67134285D01*
X85063333Y-67039047D01*
X85063333Y-66800952D01*
X85110952Y-66705714D01*
X85158571Y-66658095D01*
X85253809Y-66610476D01*
X85491904Y-66610476D01*
X85587142Y-66658095D01*
X85634761Y-66705714D01*
X85682380Y-66800952D01*
X85682380Y-67039047D01*
X85634761Y-67134285D01*
X85587142Y-67181904D01*
X84777619Y-66229523D02*
X84730000Y-66181904D01*
X84682380Y-66086666D01*
X84682380Y-65848571D01*
X84730000Y-65753333D01*
X84777619Y-65705714D01*
X84872857Y-65658095D01*
X84968095Y-65658095D01*
X85110952Y-65705714D01*
X85682380Y-66277142D01*
X85682380Y-65658095D01*
X75682380Y-67562857D02*
X75206190Y-67896190D01*
X75682380Y-68134285D02*
X74682380Y-68134285D01*
X74682380Y-67753333D01*
X74730000Y-67658095D01*
X74777619Y-67610476D01*
X74872857Y-67562857D01*
X75015714Y-67562857D01*
X75110952Y-67610476D01*
X75158571Y-67658095D01*
X75206190Y-67753333D01*
X75206190Y-68134285D01*
X74682380Y-66658095D02*
X74682380Y-67134285D01*
X75158571Y-67181904D01*
X75110952Y-67134285D01*
X75063333Y-67039047D01*
X75063333Y-66800952D01*
X75110952Y-66705714D01*
X75158571Y-66658095D01*
X75253809Y-66610476D01*
X75491904Y-66610476D01*
X75587142Y-66658095D01*
X75634761Y-66705714D01*
X75682380Y-66800952D01*
X75682380Y-67039047D01*
X75634761Y-67134285D01*
X75587142Y-67181904D01*
X75015714Y-65753333D02*
X75682380Y-65753333D01*
X74634761Y-65991428D02*
X75349047Y-66229523D01*
X75349047Y-65610476D01*
X70602380Y-69812857D02*
X70126190Y-70146190D01*
X70602380Y-70384285D02*
X69602380Y-70384285D01*
X69602380Y-70003333D01*
X69650000Y-69908095D01*
X69697619Y-69860476D01*
X69792857Y-69812857D01*
X69935714Y-69812857D01*
X70030952Y-69860476D01*
X70078571Y-69908095D01*
X70126190Y-70003333D01*
X70126190Y-70384285D01*
X69602380Y-68908095D02*
X69602380Y-69384285D01*
X70078571Y-69431904D01*
X70030952Y-69384285D01*
X69983333Y-69289047D01*
X69983333Y-69050952D01*
X70030952Y-68955714D01*
X70078571Y-68908095D01*
X70173809Y-68860476D01*
X70411904Y-68860476D01*
X70507142Y-68908095D01*
X70554761Y-68955714D01*
X70602380Y-69050952D01*
X70602380Y-69289047D01*
X70554761Y-69384285D01*
X70507142Y-69431904D01*
X69602380Y-68527142D02*
X69602380Y-67908095D01*
X69983333Y-68241428D01*
X69983333Y-68098571D01*
X70030952Y-68003333D01*
X70078571Y-67955714D01*
X70173809Y-67908095D01*
X70411904Y-67908095D01*
X70507142Y-67955714D01*
X70554761Y-68003333D01*
X70602380Y-68098571D01*
X70602380Y-68384285D01*
X70554761Y-68479523D01*
X70507142Y-68527142D01*
X63761904Y-81772380D02*
X64333333Y-81772380D01*
X64047619Y-82772380D02*
X64047619Y-81772380D01*
X65095238Y-81772380D02*
X64904761Y-81772380D01*
X64809523Y-81820000D01*
X64761904Y-81867619D01*
X64666666Y-82010476D01*
X64619047Y-82200952D01*
X64619047Y-82581904D01*
X64666666Y-82677142D01*
X64714285Y-82724761D01*
X64809523Y-82772380D01*
X65000000Y-82772380D01*
X65095238Y-82724761D01*
X65142857Y-82677142D01*
X65190476Y-82581904D01*
X65190476Y-82343809D01*
X65142857Y-82248571D01*
X65095238Y-82200952D01*
X65000000Y-82153333D01*
X64809523Y-82153333D01*
X64714285Y-82200952D01*
X64666666Y-82248571D01*
X64619047Y-82343809D01*
X66142857Y-82772380D02*
X65571428Y-82772380D01*
X65857142Y-82772380D02*
X65857142Y-81772380D01*
X65761904Y-81915238D01*
X65666666Y-82010476D01*
X65571428Y-82058095D01*
X65682380Y-67562857D02*
X65206190Y-67896190D01*
X65682380Y-68134285D02*
X64682380Y-68134285D01*
X64682380Y-67753333D01*
X64730000Y-67658095D01*
X64777619Y-67610476D01*
X64872857Y-67562857D01*
X65015714Y-67562857D01*
X65110952Y-67610476D01*
X65158571Y-67658095D01*
X65206190Y-67753333D01*
X65206190Y-68134285D01*
X64682380Y-66705714D02*
X64682380Y-66896190D01*
X64730000Y-66991428D01*
X64777619Y-67039047D01*
X64920476Y-67134285D01*
X65110952Y-67181904D01*
X65491904Y-67181904D01*
X65587142Y-67134285D01*
X65634761Y-67086666D01*
X65682380Y-66991428D01*
X65682380Y-66800952D01*
X65634761Y-66705714D01*
X65587142Y-66658095D01*
X65491904Y-66610476D01*
X65253809Y-66610476D01*
X65158571Y-66658095D01*
X65110952Y-66705714D01*
X65063333Y-66800952D01*
X65063333Y-66991428D01*
X65110952Y-67086666D01*
X65158571Y-67134285D01*
X65253809Y-67181904D01*
X64777619Y-66229523D02*
X64730000Y-66181904D01*
X64682380Y-66086666D01*
X64682380Y-65848571D01*
X64730000Y-65753333D01*
X64777619Y-65705714D01*
X64872857Y-65658095D01*
X64968095Y-65658095D01*
X65110952Y-65705714D01*
X65682380Y-66277142D01*
X65682380Y-65658095D01*
X43761904Y-81772380D02*
X44333333Y-81772380D01*
X44047619Y-82772380D02*
X44047619Y-81772380D01*
X45095238Y-82105714D02*
X45095238Y-82772380D01*
X44857142Y-81724761D02*
X44619047Y-82439047D01*
X45238095Y-82439047D01*
X46142857Y-82772380D02*
X45571428Y-82772380D01*
X45857142Y-82772380D02*
X45857142Y-81772380D01*
X45761904Y-81915238D01*
X45666666Y-82010476D01*
X45571428Y-82058095D01*
X33761904Y-81772380D02*
X34333333Y-81772380D01*
X34047619Y-82772380D02*
X34047619Y-81772380D01*
X35095238Y-82105714D02*
X35095238Y-82772380D01*
X34857142Y-81724761D02*
X34619047Y-82439047D01*
X35238095Y-82439047D01*
X35571428Y-81867619D02*
X35619047Y-81820000D01*
X35714285Y-81772380D01*
X35952380Y-81772380D01*
X36047619Y-81820000D01*
X36095238Y-81867619D01*
X36142857Y-81962857D01*
X36142857Y-82058095D01*
X36095238Y-82200952D01*
X35523809Y-82772380D01*
X36142857Y-82772380D01*
X45682380Y-67562857D02*
X45206190Y-67896190D01*
X45682380Y-68134285D02*
X44682380Y-68134285D01*
X44682380Y-67753333D01*
X44730000Y-67658095D01*
X44777619Y-67610476D01*
X44872857Y-67562857D01*
X45015714Y-67562857D01*
X45110952Y-67610476D01*
X45158571Y-67658095D01*
X45206190Y-67753333D01*
X45206190Y-68134285D01*
X45015714Y-66705714D02*
X45682380Y-66705714D01*
X44634761Y-66943809D02*
X45349047Y-67181904D01*
X45349047Y-66562857D01*
X44777619Y-66229523D02*
X44730000Y-66181904D01*
X44682380Y-66086666D01*
X44682380Y-65848571D01*
X44730000Y-65753333D01*
X44777619Y-65705714D01*
X44872857Y-65658095D01*
X44968095Y-65658095D01*
X45110952Y-65705714D01*
X45682380Y-66277142D01*
X45682380Y-65658095D01*
X35682380Y-67562857D02*
X35206190Y-67896190D01*
X35682380Y-68134285D02*
X34682380Y-68134285D01*
X34682380Y-67753333D01*
X34730000Y-67658095D01*
X34777619Y-67610476D01*
X34872857Y-67562857D01*
X35015714Y-67562857D01*
X35110952Y-67610476D01*
X35158571Y-67658095D01*
X35206190Y-67753333D01*
X35206190Y-68134285D01*
X35015714Y-66705714D02*
X35682380Y-66705714D01*
X34634761Y-66943809D02*
X35349047Y-67181904D01*
X35349047Y-66562857D01*
X35015714Y-65753333D02*
X35682380Y-65753333D01*
X34634761Y-65991428D02*
X35349047Y-66229523D01*
X35349047Y-65610476D01*
X30602380Y-69812857D02*
X30126190Y-70146190D01*
X30602380Y-70384285D02*
X29602380Y-70384285D01*
X29602380Y-70003333D01*
X29650000Y-69908095D01*
X29697619Y-69860476D01*
X29792857Y-69812857D01*
X29935714Y-69812857D01*
X30030952Y-69860476D01*
X30078571Y-69908095D01*
X30126190Y-70003333D01*
X30126190Y-70384285D01*
X29935714Y-68955714D02*
X30602380Y-68955714D01*
X29554761Y-69193809D02*
X30269047Y-69431904D01*
X30269047Y-68812857D01*
X29602380Y-68527142D02*
X29602380Y-67908095D01*
X29983333Y-68241428D01*
X29983333Y-68098571D01*
X30030952Y-68003333D01*
X30078571Y-67955714D01*
X30173809Y-67908095D01*
X30411904Y-67908095D01*
X30507142Y-67955714D01*
X30554761Y-68003333D01*
X30602380Y-68098571D01*
X30602380Y-68384285D01*
X30554761Y-68479523D01*
X30507142Y-68527142D01*
X53761904Y-81772380D02*
X54333333Y-81772380D01*
X54047619Y-82772380D02*
X54047619Y-81772380D01*
X54571428Y-81772380D02*
X55190476Y-81772380D01*
X54857142Y-82153333D01*
X55000000Y-82153333D01*
X55095238Y-82200952D01*
X55142857Y-82248571D01*
X55190476Y-82343809D01*
X55190476Y-82581904D01*
X55142857Y-82677142D01*
X55095238Y-82724761D01*
X55000000Y-82772380D01*
X54714285Y-82772380D01*
X54619047Y-82724761D01*
X54571428Y-82677142D01*
X55571428Y-81867619D02*
X55619047Y-81820000D01*
X55714285Y-81772380D01*
X55952380Y-81772380D01*
X56047619Y-81820000D01*
X56095238Y-81867619D01*
X56142857Y-81962857D01*
X56142857Y-82058095D01*
X56095238Y-82200952D01*
X55523809Y-82772380D01*
X56142857Y-82772380D01*
X55682380Y-67562857D02*
X55206190Y-67896190D01*
X55682380Y-68134285D02*
X54682380Y-68134285D01*
X54682380Y-67753333D01*
X54730000Y-67658095D01*
X54777619Y-67610476D01*
X54872857Y-67562857D01*
X55015714Y-67562857D01*
X55110952Y-67610476D01*
X55158571Y-67658095D01*
X55206190Y-67753333D01*
X55206190Y-68134285D01*
X54682380Y-67229523D02*
X54682380Y-66610476D01*
X55063333Y-66943809D01*
X55063333Y-66800952D01*
X55110952Y-66705714D01*
X55158571Y-66658095D01*
X55253809Y-66610476D01*
X55491904Y-66610476D01*
X55587142Y-66658095D01*
X55634761Y-66705714D01*
X55682380Y-66800952D01*
X55682380Y-67086666D01*
X55634761Y-67181904D01*
X55587142Y-67229523D01*
X55015714Y-65753333D02*
X55682380Y-65753333D01*
X54634761Y-65991428D02*
X55349047Y-66229523D01*
X55349047Y-65610476D01*
X50602380Y-69812857D02*
X50126190Y-70146190D01*
X50602380Y-70384285D02*
X49602380Y-70384285D01*
X49602380Y-70003333D01*
X49650000Y-69908095D01*
X49697619Y-69860476D01*
X49792857Y-69812857D01*
X49935714Y-69812857D01*
X50030952Y-69860476D01*
X50078571Y-69908095D01*
X50126190Y-70003333D01*
X50126190Y-70384285D01*
X49602380Y-69479523D02*
X49602380Y-68860476D01*
X49983333Y-69193809D01*
X49983333Y-69050952D01*
X50030952Y-68955714D01*
X50078571Y-68908095D01*
X50173809Y-68860476D01*
X50411904Y-68860476D01*
X50507142Y-68908095D01*
X50554761Y-68955714D01*
X50602380Y-69050952D01*
X50602380Y-69336666D01*
X50554761Y-69431904D01*
X50507142Y-69479523D01*
X49602380Y-68527142D02*
X49602380Y-67908095D01*
X49983333Y-68241428D01*
X49983333Y-68098571D01*
X50030952Y-68003333D01*
X50078571Y-67955714D01*
X50173809Y-67908095D01*
X50411904Y-67908095D01*
X50507142Y-67955714D01*
X50554761Y-68003333D01*
X50602380Y-68098571D01*
X50602380Y-68384285D01*
X50554761Y-68479523D01*
X50507142Y-68527142D01*
X90662380Y-38940476D02*
X90662380Y-38369047D01*
X91662380Y-38654761D02*
X90662380Y-38654761D01*
X91662380Y-37511904D02*
X91662380Y-38083333D01*
X91662380Y-37797619D02*
X90662380Y-37797619D01*
X90805238Y-37892857D01*
X90900476Y-37988095D01*
X90948095Y-38083333D01*
X90662380Y-36892857D02*
X90662380Y-36797619D01*
X90710000Y-36702380D01*
X90757619Y-36654761D01*
X90852857Y-36607142D01*
X91043333Y-36559523D01*
X91281428Y-36559523D01*
X91471904Y-36607142D01*
X91567142Y-36654761D01*
X91614761Y-36702380D01*
X91662380Y-36797619D01*
X91662380Y-36892857D01*
X91614761Y-36988095D01*
X91567142Y-37035714D01*
X91471904Y-37083333D01*
X91281428Y-37130952D01*
X91043333Y-37130952D01*
X90852857Y-37083333D01*
X90757619Y-37035714D01*
X90710000Y-36988095D01*
X90662380Y-36892857D01*
X91662380Y-35607142D02*
X91662380Y-36178571D01*
X91662380Y-35892857D02*
X90662380Y-35892857D01*
X90805238Y-35988095D01*
X90900476Y-36083333D01*
X90948095Y-36178571D01*
X91662380Y-34654761D02*
X91662380Y-35226190D01*
X91662380Y-34940476D02*
X90662380Y-34940476D01*
X90805238Y-35035714D01*
X90900476Y-35130952D01*
X90948095Y-35226190D01*
X90662380Y-32140476D02*
X90662380Y-31569047D01*
X91662380Y-31854761D02*
X90662380Y-31854761D01*
X91662380Y-30711904D02*
X91662380Y-31283333D01*
X91662380Y-30997619D02*
X90662380Y-30997619D01*
X90805238Y-31092857D01*
X90900476Y-31188095D01*
X90948095Y-31283333D01*
X90662380Y-30092857D02*
X90662380Y-29997619D01*
X90710000Y-29902380D01*
X90757619Y-29854761D01*
X90852857Y-29807142D01*
X91043333Y-29759523D01*
X91281428Y-29759523D01*
X91471904Y-29807142D01*
X91567142Y-29854761D01*
X91614761Y-29902380D01*
X91662380Y-29997619D01*
X91662380Y-30092857D01*
X91614761Y-30188095D01*
X91567142Y-30235714D01*
X91471904Y-30283333D01*
X91281428Y-30330952D01*
X91043333Y-30330952D01*
X90852857Y-30283333D01*
X90757619Y-30235714D01*
X90710000Y-30188095D01*
X90662380Y-30092857D01*
X90662380Y-29140476D02*
X90662380Y-29045238D01*
X90710000Y-28950000D01*
X90757619Y-28902380D01*
X90852857Y-28854761D01*
X91043333Y-28807142D01*
X91281428Y-28807142D01*
X91471904Y-28854761D01*
X91567142Y-28902380D01*
X91614761Y-28950000D01*
X91662380Y-29045238D01*
X91662380Y-29140476D01*
X91614761Y-29235714D01*
X91567142Y-29283333D01*
X91471904Y-29330952D01*
X91281428Y-29378571D01*
X91043333Y-29378571D01*
X90852857Y-29330952D01*
X90757619Y-29283333D01*
X90710000Y-29235714D01*
X90662380Y-29140476D01*
X90662380Y-27950000D02*
X90662380Y-28140476D01*
X90710000Y-28235714D01*
X90757619Y-28283333D01*
X90900476Y-28378571D01*
X91090952Y-28426190D01*
X91471904Y-28426190D01*
X91567142Y-28378571D01*
X91614761Y-28330952D01*
X91662380Y-28235714D01*
X91662380Y-28045238D01*
X91614761Y-27950000D01*
X91567142Y-27902380D01*
X91471904Y-27854761D01*
X91233809Y-27854761D01*
X91138571Y-27902380D01*
X91090952Y-27950000D01*
X91043333Y-28045238D01*
X91043333Y-28235714D01*
X91090952Y-28330952D01*
X91138571Y-28378571D01*
X91233809Y-28426190D01*
X28242380Y-32090476D02*
X28242380Y-31519047D01*
X29242380Y-31804761D02*
X28242380Y-31804761D01*
X29242380Y-30661904D02*
X29242380Y-31233333D01*
X29242380Y-30947619D02*
X28242380Y-30947619D01*
X28385238Y-31042857D01*
X28480476Y-31138095D01*
X28528095Y-31233333D01*
X28242380Y-30042857D02*
X28242380Y-29947619D01*
X28290000Y-29852380D01*
X28337619Y-29804761D01*
X28432857Y-29757142D01*
X28623333Y-29709523D01*
X28861428Y-29709523D01*
X29051904Y-29757142D01*
X29147142Y-29804761D01*
X29194761Y-29852380D01*
X29242380Y-29947619D01*
X29242380Y-30042857D01*
X29194761Y-30138095D01*
X29147142Y-30185714D01*
X29051904Y-30233333D01*
X28861428Y-30280952D01*
X28623333Y-30280952D01*
X28432857Y-30233333D01*
X28337619Y-30185714D01*
X28290000Y-30138095D01*
X28242380Y-30042857D01*
X28242380Y-29090476D02*
X28242380Y-28995238D01*
X28290000Y-28900000D01*
X28337619Y-28852380D01*
X28432857Y-28804761D01*
X28623333Y-28757142D01*
X28861428Y-28757142D01*
X29051904Y-28804761D01*
X29147142Y-28852380D01*
X29194761Y-28900000D01*
X29242380Y-28995238D01*
X29242380Y-29090476D01*
X29194761Y-29185714D01*
X29147142Y-29233333D01*
X29051904Y-29280952D01*
X28861428Y-29328571D01*
X28623333Y-29328571D01*
X28432857Y-29280952D01*
X28337619Y-29233333D01*
X28290000Y-29185714D01*
X28242380Y-29090476D01*
X28242380Y-28423809D02*
X28242380Y-27804761D01*
X28623333Y-28138095D01*
X28623333Y-27995238D01*
X28670952Y-27900000D01*
X28718571Y-27852380D01*
X28813809Y-27804761D01*
X29051904Y-27804761D01*
X29147142Y-27852380D01*
X29194761Y-27900000D01*
X29242380Y-27995238D01*
X29242380Y-28280952D01*
X29194761Y-28376190D01*
X29147142Y-28423809D01*
X57166666Y-83952380D02*
X57833333Y-83952380D01*
X57404761Y-84952380D01*
X27309523Y-84952380D02*
X26738095Y-84952380D01*
X27023809Y-84952380D02*
X27023809Y-83952380D01*
X26928571Y-84095238D01*
X26833333Y-84190476D01*
X26738095Y-84238095D01*
X27642857Y-83952380D02*
X28261904Y-83952380D01*
X27928571Y-84333333D01*
X28071428Y-84333333D01*
X28166666Y-84380952D01*
X28214285Y-84428571D01*
X28261904Y-84523809D01*
X28261904Y-84761904D01*
X28214285Y-84857142D01*
X28166666Y-84904761D01*
X28071428Y-84952380D01*
X27785714Y-84952380D01*
X27690476Y-84904761D01*
X27642857Y-84857142D01*
X87785714Y-84952380D02*
X87214285Y-84952380D01*
X87500000Y-84952380D02*
X87500000Y-83952380D01*
X87404761Y-84095238D01*
X87309523Y-84190476D01*
X87214285Y-84238095D01*
X55238095Y-42452380D02*
X54761904Y-42452380D01*
X54714285Y-42928571D01*
X54761904Y-42880952D01*
X54857142Y-42833333D01*
X55095238Y-42833333D01*
X55190476Y-42880952D01*
X55238095Y-42928571D01*
X55285714Y-43023809D01*
X55285714Y-43261904D01*
X55238095Y-43357142D01*
X55190476Y-43404761D01*
X55095238Y-43452380D01*
X54857142Y-43452380D01*
X54761904Y-43404761D01*
X54714285Y-43357142D01*
X65285714Y-43452380D02*
X64714285Y-43452380D01*
X65000000Y-43452380D02*
X65000000Y-42452380D01*
X64904761Y-42595238D01*
X64809523Y-42690476D01*
X64714285Y-42738095D01*
X59238095Y-43702380D02*
X59238095Y-44511904D01*
X59285714Y-44607142D01*
X59333333Y-44654761D01*
X59428571Y-44702380D01*
X59619047Y-44702380D01*
X59714285Y-44654761D01*
X59761904Y-44607142D01*
X59809523Y-44511904D01*
X59809523Y-43702380D01*
X60809523Y-44702380D02*
X60238095Y-44702380D01*
X60523809Y-44702380D02*
X60523809Y-43702380D01*
X60428571Y-43845238D01*
X60333333Y-43940476D01*
X60238095Y-43988095D01*
X28242380Y-39090476D02*
X28242380Y-38519047D01*
X29242380Y-38804761D02*
X28242380Y-38804761D01*
X29242380Y-37661904D02*
X29242380Y-38233333D01*
X29242380Y-37947619D02*
X28242380Y-37947619D01*
X28385238Y-38042857D01*
X28480476Y-38138095D01*
X28528095Y-38233333D01*
X28242380Y-37042857D02*
X28242380Y-36947619D01*
X28290000Y-36852380D01*
X28337619Y-36804761D01*
X28432857Y-36757142D01*
X28623333Y-36709523D01*
X28861428Y-36709523D01*
X29051904Y-36757142D01*
X29147142Y-36804761D01*
X29194761Y-36852380D01*
X29242380Y-36947619D01*
X29242380Y-37042857D01*
X29194761Y-37138095D01*
X29147142Y-37185714D01*
X29051904Y-37233333D01*
X28861428Y-37280952D01*
X28623333Y-37280952D01*
X28432857Y-37233333D01*
X28337619Y-37185714D01*
X28290000Y-37138095D01*
X28242380Y-37042857D01*
X28242380Y-36090476D02*
X28242380Y-35995238D01*
X28290000Y-35900000D01*
X28337619Y-35852380D01*
X28432857Y-35804761D01*
X28623333Y-35757142D01*
X28861428Y-35757142D01*
X29051904Y-35804761D01*
X29147142Y-35852380D01*
X29194761Y-35900000D01*
X29242380Y-35995238D01*
X29242380Y-36090476D01*
X29194761Y-36185714D01*
X29147142Y-36233333D01*
X29051904Y-36280952D01*
X28861428Y-36328571D01*
X28623333Y-36328571D01*
X28432857Y-36280952D01*
X28337619Y-36233333D01*
X28290000Y-36185714D01*
X28242380Y-36090476D01*
X29242380Y-34804761D02*
X29242380Y-35376190D01*
X29242380Y-35090476D02*
X28242380Y-35090476D01*
X28385238Y-35185714D01*
X28480476Y-35280952D01*
X28528095Y-35376190D01*
%LPC*%
D14*
X91000000Y-57500000D03*
D15*
X80840000Y-57500000D03*
D14*
X91000000Y-52500000D03*
D15*
X80840000Y-52500000D03*
D14*
X29000000Y-57500000D03*
D15*
X39160000Y-57500000D03*
D14*
X62460000Y-74250000D03*
D15*
X62460000Y-64090000D03*
D14*
X82460000Y-74250000D03*
D15*
X82460000Y-64090000D03*
D14*
X42460000Y-74250000D03*
D15*
X42460000Y-64090000D03*
D14*
X29000000Y-52500000D03*
D15*
X39160000Y-52500000D03*
X52250000Y-52500000D03*
X42090000Y-52500000D03*
X52250000Y-57500000D03*
X42090000Y-57500000D03*
X67750000Y-52500000D03*
X77910000Y-52500000D03*
X67750000Y-57500000D03*
X77910000Y-57500000D03*
D16*
X42200000Y-45640000D03*
X42200000Y-47540000D03*
D17*
X53500000Y-48500000D03*
X51500000Y-48500000D03*
D18*
X67600000Y-48500000D03*
X67600000Y-46500000D03*
D19*
G36*
X72365000Y-44758000D02*
G01*
X72965000Y-43908000D01*
X73965000Y-43908000D01*
X74565000Y-44758000D01*
X72365000Y-44758000D01*
G37*
D20*
X71965000Y-48480000D03*
D21*
X73465000Y-48333500D03*
D20*
X74965000Y-48480000D03*
D22*
X73465000Y-45666500D03*
D19*
G36*
X74565000Y-46576200D02*
G01*
X73865000Y-47576200D01*
X73065000Y-47576200D01*
X72365000Y-46576200D01*
X74565000Y-46576200D01*
G37*
D18*
X69750000Y-48500000D03*
X69750000Y-46500000D03*
X77250000Y-48500000D03*
X77250000Y-46500000D03*
D23*
X45000000Y-42460000D03*
D24*
X47540000Y-42460000D03*
X45000000Y-45000000D03*
X47540000Y-45000000D03*
X45000000Y-47540000D03*
X47540000Y-47540000D03*
D14*
X91000000Y-42500000D03*
D15*
X80840000Y-42500000D03*
D14*
X91000000Y-47500000D03*
D15*
X80840000Y-47500000D03*
D14*
X29000000Y-47500000D03*
D15*
X39160000Y-47500000D03*
D14*
X29000000Y-42500000D03*
D15*
X39160000Y-42500000D03*
D14*
X70500000Y-35500000D03*
D15*
X80660000Y-35500000D03*
D14*
X70500000Y-28500000D03*
D15*
X80660000Y-28500000D03*
D14*
X49500000Y-28500000D03*
D15*
X39340000Y-28500000D03*
D14*
X49500000Y-35500000D03*
D15*
X39340000Y-35500000D03*
D25*
X85000000Y-80290000D03*
D26*
X87540000Y-77750000D03*
X82460000Y-77750000D03*
D25*
X75000000Y-80290000D03*
D26*
X77540000Y-77750000D03*
X72460000Y-77750000D03*
D14*
X87540000Y-72000000D03*
D15*
X87540000Y-61840000D03*
D14*
X77540000Y-72000000D03*
D15*
X77540000Y-61840000D03*
D14*
X72460000Y-74250000D03*
D15*
X72460000Y-64090000D03*
D25*
X65000000Y-80290000D03*
D26*
X67540000Y-77750000D03*
X62460000Y-77750000D03*
D14*
X67540000Y-72000000D03*
D15*
X67540000Y-61840000D03*
D25*
X45000000Y-80290000D03*
D26*
X47540000Y-77750000D03*
X42460000Y-77750000D03*
D25*
X35000000Y-80290000D03*
D26*
X37540000Y-77750000D03*
X32460000Y-77750000D03*
D14*
X47540000Y-72000000D03*
D15*
X47540000Y-61840000D03*
D14*
X37540000Y-72000000D03*
D15*
X37540000Y-61840000D03*
D14*
X32460000Y-74250000D03*
D15*
X32460000Y-64090000D03*
D25*
X55000000Y-80290000D03*
D26*
X57540000Y-77750000D03*
X52460000Y-77750000D03*
D14*
X57540000Y-72000000D03*
D15*
X57540000Y-61840000D03*
D14*
X52460000Y-74250000D03*
D15*
X52460000Y-64090000D03*
D25*
X86500000Y-35210000D03*
D26*
X83960000Y-37750000D03*
X89040000Y-37750000D03*
D25*
X86500000Y-28160000D03*
D26*
X83960000Y-30700000D03*
X89040000Y-30700000D03*
D25*
X33500000Y-31440000D03*
D26*
X36040000Y-28900000D03*
X30960000Y-28900000D03*
D27*
X64250000Y-53300000D03*
X64250000Y-52500000D03*
X64250000Y-51700000D03*
X64250000Y-50900000D03*
X64250000Y-50100000D03*
X64250000Y-49300000D03*
X64250000Y-48500000D03*
X64250000Y-47700000D03*
D28*
X62800000Y-46250000D03*
X62000000Y-46250000D03*
X61200000Y-46250000D03*
X60400000Y-46250000D03*
X59600000Y-46250000D03*
X58800000Y-46250000D03*
X58000000Y-46250000D03*
X57200000Y-46250000D03*
D27*
X55750000Y-47700000D03*
X55750000Y-48500000D03*
X55750000Y-49300000D03*
X55750000Y-50100000D03*
X55750000Y-50900000D03*
X55750000Y-51700000D03*
X55750000Y-52500000D03*
X55750000Y-53300000D03*
D28*
X57200000Y-54750000D03*
X58000000Y-54750000D03*
X58800000Y-54750000D03*
X59600000Y-54750000D03*
X60400000Y-54750000D03*
X61200000Y-54750000D03*
X62000000Y-54750000D03*
X62800000Y-54750000D03*
D25*
X33500000Y-38440000D03*
D26*
X36040000Y-35900000D03*
X30960000Y-35900000D03*
M02*
