M48
; DRILL file {KiCad (5.1.7)-1} date 07/12/22 08:18:56
; FORMAT={-:-/ absolute / metric / decimal}
; #@! TF.CreationDate,2022-07-12T08:18:56+02:00
; #@! TF.GenerationSoftware,Kicad,Pcbnew,(5.1.7)-1
; #@! TF.FileFunction,Plated,1,2,PTH
FMAT,2
METRIC
T1C0.400
T2C0.800
T3C1.000
T4C1.250
T5C1.750
%
G90
G05
T1
X50.0Y-90.75
X57.5Y-48.5
X58.2Y-51.7
X60.3Y-49.6
X60.4Y-53.0
X73.465Y-44.535
X73.465Y-45.535
X73.465Y-46.535
X77.25Y-50.25
X83.75Y-90.75
T2
X77.54Y-61.84
X77.54Y-72.0
X42.09Y-52.5
X52.25Y-52.5
X70.5Y-35.5
X80.66Y-35.5
X80.84Y-57.5
X91.0Y-57.5
X32.46Y-64.09
X32.46Y-74.25
X67.75Y-52.5
X77.91Y-52.5
X39.34Y-28.5
X49.5Y-28.5
X29.0Y-57.5
X39.16Y-57.5
X57.54Y-61.84
X57.54Y-72.0
X67.54Y-61.84
X67.54Y-72.0
X82.46Y-77.75
X85.0Y-80.29
X87.54Y-77.75
X82.46Y-64.09
X82.46Y-74.25
X80.84Y-47.5
X91.0Y-47.5
X83.96Y-37.75
X86.5Y-35.21
X89.04Y-37.75
X32.46Y-77.75
X35.0Y-80.29
X37.54Y-77.75
X87.54Y-61.84
X87.54Y-72.0
X29.0Y-52.5
X39.16Y-52.5
X29.0Y-42.5
X39.16Y-42.5
X30.96Y-28.9
X33.5Y-31.44
X36.04Y-28.9
X37.54Y-61.84
X37.54Y-72.0
X72.46Y-64.09
X72.46Y-74.25
X42.09Y-57.5
X52.25Y-57.5
X70.5Y-28.5
X80.66Y-28.5
X80.84Y-52.5
X91.0Y-52.5
X52.46Y-77.75
X55.0Y-80.29
X57.54Y-77.75
X62.46Y-77.75
X65.0Y-80.29
X67.54Y-77.75
X67.75Y-57.5
X77.91Y-57.5
X39.34Y-35.5
X49.5Y-35.5
X30.96Y-35.9
X33.5Y-38.44
X36.04Y-35.9
X62.46Y-64.09
X62.46Y-74.25
X80.84Y-42.5
X91.0Y-42.5
X52.46Y-64.09
X52.46Y-74.25
X42.46Y-77.75
X45.0Y-80.29
X47.54Y-77.75
X72.46Y-77.75
X75.0Y-80.29
X77.54Y-77.75
X42.46Y-64.09
X42.46Y-74.25
X29.0Y-47.5
X39.16Y-47.5
X83.96Y-30.7
X86.5Y-28.16
X89.04Y-30.7
X47.54Y-61.84
X47.54Y-72.0
T3
X45.0Y-42.46
X45.0Y-45.0
X45.0Y-47.54
X47.54Y-42.46
X47.54Y-45.0
X47.54Y-47.54
T4
X55.0Y-39.0
X57.5Y-39.0
X60.0Y-39.0
X62.5Y-39.0
X65.0Y-39.0
T5
X27.5Y-87.0
X32.5Y-87.0
X37.5Y-87.0
X42.5Y-87.0
X47.5Y-87.0
X52.5Y-87.0
X57.5Y-87.0
X62.5Y-87.0
X67.5Y-87.0
X72.5Y-87.0
X77.5Y-87.0
X82.5Y-87.0
X87.5Y-87.0
T0
M30
