G04 #@! TF.GenerationSoftware,KiCad,Pcbnew,(5.1.7)-1*
G04 #@! TF.CreationDate,2022-07-12T08:18:53+02:00*
G04 #@! TF.ProjectId,Flip-Flop-Modul,466c6970-2d46-46c6-9f70-2d4d6f64756c,rev?*
G04 #@! TF.SameCoordinates,Original*
G04 #@! TF.FileFunction,Copper,L1,Top*
G04 #@! TF.FilePolarity,Positive*
%FSLAX46Y46*%
G04 Gerber Fmt 4.6, Leading zero omitted, Abs format (unit mm)*
G04 Created by KiCad (PCBNEW (5.1.7)-1) date 2022-07-12 08:18:53*
%MOMM*%
%LPD*%
G01*
G04 APERTURE LIST*
G04 #@! TA.AperFunction,ComponentPad*
%ADD10C,1.600000*%
G04 #@! TD*
G04 #@! TA.AperFunction,ComponentPad*
%ADD11O,1.600000X1.600000*%
G04 #@! TD*
G04 #@! TA.AperFunction,SMDPad,CuDef*
%ADD12R,1.300000X0.700000*%
G04 #@! TD*
G04 #@! TA.AperFunction,SMDPad,CuDef*
%ADD13R,1.000000X1.250000*%
G04 #@! TD*
G04 #@! TA.AperFunction,SMDPad,CuDef*
%ADD14R,1.250000X1.000000*%
G04 #@! TD*
G04 #@! TA.AperFunction,SMDPad,CuDef*
%ADD15C,0.100000*%
G04 #@! TD*
G04 #@! TA.AperFunction,SMDPad,CuDef*
%ADD16R,1.000000X1.500000*%
G04 #@! TD*
G04 #@! TA.AperFunction,SMDPad,CuDef*
%ADD17R,1.000000X1.800000*%
G04 #@! TD*
G04 #@! TA.AperFunction,SMDPad,CuDef*
%ADD18R,2.200000X1.840000*%
G04 #@! TD*
G04 #@! TA.AperFunction,ComponentPad*
%ADD19R,1.700000X1.700000*%
G04 #@! TD*
G04 #@! TA.AperFunction,ComponentPad*
%ADD20O,1.700000X1.700000*%
G04 #@! TD*
G04 #@! TA.AperFunction,ComponentPad*
%ADD21O,1.500000X2.000000*%
G04 #@! TD*
G04 #@! TA.AperFunction,ComponentPad*
%ADD22O,2.000000X1.500000*%
G04 #@! TD*
G04 #@! TA.AperFunction,SMDPad,CuDef*
%ADD23R,1.200000X0.600000*%
G04 #@! TD*
G04 #@! TA.AperFunction,SMDPad,CuDef*
%ADD24R,0.600000X1.200000*%
G04 #@! TD*
G04 #@! TA.AperFunction,ViaPad*
%ADD25C,0.800000*%
G04 #@! TD*
G04 #@! TA.AperFunction,Conductor*
%ADD26C,0.500000*%
G04 #@! TD*
G04 #@! TA.AperFunction,Conductor*
%ADD27C,1.000000*%
G04 #@! TD*
G04 #@! TA.AperFunction,Conductor*
%ADD28C,0.250000*%
G04 #@! TD*
G04 APERTURE END LIST*
D10*
X91000000Y-57500000D03*
D11*
X80840000Y-57500000D03*
D10*
X91000000Y-52500000D03*
D11*
X80840000Y-52500000D03*
D10*
X29000000Y-57500000D03*
D11*
X39160000Y-57500000D03*
D10*
X62460000Y-74250000D03*
D11*
X62460000Y-64090000D03*
D10*
X82460000Y-74250000D03*
D11*
X82460000Y-64090000D03*
D10*
X42460000Y-74250000D03*
D11*
X42460000Y-64090000D03*
D10*
X29000000Y-52500000D03*
D11*
X39160000Y-52500000D03*
X52250000Y-52500000D03*
X42090000Y-52500000D03*
X52250000Y-57500000D03*
X42090000Y-57500000D03*
X67750000Y-52500000D03*
X77910000Y-52500000D03*
X67750000Y-57500000D03*
X77910000Y-57500000D03*
D12*
X42200000Y-45640000D03*
X42200000Y-47540000D03*
D13*
X53500000Y-48500000D03*
X51500000Y-48500000D03*
D14*
X67600000Y-48500000D03*
X67600000Y-46500000D03*
G04 #@! TA.AperFunction,SMDPad,CuDef*
D15*
G36*
X72365000Y-44758000D02*
G01*
X72965000Y-43908000D01*
X73965000Y-43908000D01*
X74565000Y-44758000D01*
X72365000Y-44758000D01*
G37*
G04 #@! TD.AperFunction*
D16*
X71965000Y-48480000D03*
D17*
X73465000Y-48333500D03*
D16*
X74965000Y-48480000D03*
D18*
X73465000Y-45666500D03*
G04 #@! TA.AperFunction,SMDPad,CuDef*
D15*
G36*
X74565000Y-46576200D02*
G01*
X73865000Y-47576200D01*
X73065000Y-47576200D01*
X72365000Y-46576200D01*
X74565000Y-46576200D01*
G37*
G04 #@! TD.AperFunction*
D14*
X69750000Y-48500000D03*
X69750000Y-46500000D03*
X77250000Y-48500000D03*
X77250000Y-46500000D03*
D19*
X45000000Y-42460000D03*
D20*
X47540000Y-42460000D03*
X45000000Y-45000000D03*
X47540000Y-45000000D03*
X45000000Y-47540000D03*
X47540000Y-47540000D03*
D10*
X91000000Y-42500000D03*
D11*
X80840000Y-42500000D03*
D10*
X91000000Y-47500000D03*
D11*
X80840000Y-47500000D03*
D10*
X29000000Y-47500000D03*
D11*
X39160000Y-47500000D03*
D10*
X29000000Y-42500000D03*
D11*
X39160000Y-42500000D03*
D10*
X70500000Y-35500000D03*
D11*
X80660000Y-35500000D03*
D10*
X70500000Y-28500000D03*
D11*
X80660000Y-28500000D03*
D10*
X49500000Y-28500000D03*
D11*
X39340000Y-28500000D03*
D10*
X49500000Y-35500000D03*
D11*
X39340000Y-35500000D03*
D21*
X85000000Y-80290000D03*
D22*
X87540000Y-77750000D03*
X82460000Y-77750000D03*
D21*
X75000000Y-80290000D03*
D22*
X77540000Y-77750000D03*
X72460000Y-77750000D03*
D10*
X87540000Y-72000000D03*
D11*
X87540000Y-61840000D03*
D10*
X77540000Y-72000000D03*
D11*
X77540000Y-61840000D03*
D10*
X72460000Y-74250000D03*
D11*
X72460000Y-64090000D03*
D21*
X65000000Y-80290000D03*
D22*
X67540000Y-77750000D03*
X62460000Y-77750000D03*
D10*
X67540000Y-72000000D03*
D11*
X67540000Y-61840000D03*
D21*
X45000000Y-80290000D03*
D22*
X47540000Y-77750000D03*
X42460000Y-77750000D03*
D21*
X35000000Y-80290000D03*
D22*
X37540000Y-77750000D03*
X32460000Y-77750000D03*
D10*
X47540000Y-72000000D03*
D11*
X47540000Y-61840000D03*
D10*
X37540000Y-72000000D03*
D11*
X37540000Y-61840000D03*
D10*
X32460000Y-74250000D03*
D11*
X32460000Y-64090000D03*
D21*
X55000000Y-80290000D03*
D22*
X57540000Y-77750000D03*
X52460000Y-77750000D03*
D10*
X57540000Y-72000000D03*
D11*
X57540000Y-61840000D03*
D10*
X52460000Y-74250000D03*
D11*
X52460000Y-64090000D03*
D21*
X86500000Y-35210000D03*
D22*
X83960000Y-37750000D03*
X89040000Y-37750000D03*
D21*
X86500000Y-28160000D03*
D22*
X83960000Y-30700000D03*
X89040000Y-30700000D03*
D21*
X33500000Y-31440000D03*
D22*
X36040000Y-28900000D03*
X30960000Y-28900000D03*
D23*
X64250000Y-53300000D03*
X64250000Y-52500000D03*
X64250000Y-51700000D03*
X64250000Y-50900000D03*
X64250000Y-50100000D03*
X64250000Y-49300000D03*
X64250000Y-48500000D03*
X64250000Y-47700000D03*
D24*
X62800000Y-46250000D03*
X62000000Y-46250000D03*
X61200000Y-46250000D03*
X60400000Y-46250000D03*
X59600000Y-46250000D03*
X58800000Y-46250000D03*
X58000000Y-46250000D03*
X57200000Y-46250000D03*
D23*
X55750000Y-47700000D03*
X55750000Y-48500000D03*
X55750000Y-49300000D03*
X55750000Y-50100000D03*
X55750000Y-50900000D03*
X55750000Y-51700000D03*
X55750000Y-52500000D03*
X55750000Y-53300000D03*
D24*
X57200000Y-54750000D03*
X58000000Y-54750000D03*
X58800000Y-54750000D03*
X59600000Y-54750000D03*
X60400000Y-54750000D03*
X61200000Y-54750000D03*
X62000000Y-54750000D03*
X62800000Y-54750000D03*
D21*
X33500000Y-38440000D03*
D22*
X36040000Y-35900000D03*
X30960000Y-35900000D03*
D25*
X73465000Y-44535000D03*
X73465000Y-45535000D03*
X73465000Y-46535000D03*
X58200000Y-51700000D03*
X60300000Y-49600000D03*
X57500000Y-48500000D03*
X77250000Y-50250000D03*
X50000000Y-90750000D03*
X83750000Y-90750000D03*
X60400000Y-53000000D03*
D26*
X64100000Y-50100000D02*
X64050001Y-50149999D01*
X64250000Y-50100000D02*
X64100000Y-50100000D01*
D27*
X74298500Y-46500000D02*
X73465000Y-45666500D01*
X77250000Y-46500000D02*
X74298500Y-46500000D01*
X73465000Y-44333000D02*
X73465000Y-44535000D01*
X72631500Y-46500000D02*
X73465000Y-45666500D01*
X69750000Y-46500000D02*
X72631500Y-46500000D01*
X73465000Y-47035000D02*
X73465000Y-48333500D01*
X73465000Y-46035000D02*
X73465000Y-46535000D01*
X73465000Y-45035000D02*
X73465000Y-45535000D01*
D26*
X64250000Y-51700000D02*
X58200000Y-51700000D01*
X57400000Y-50900000D02*
X55750000Y-50900000D01*
X58200000Y-51700000D02*
X58200000Y-51700000D01*
D27*
X73465000Y-44535000D02*
X73465000Y-45035000D01*
X73465000Y-45535000D02*
X73465000Y-46035000D01*
X73465000Y-46535000D02*
X73465000Y-47035000D01*
D26*
X69750000Y-46500000D02*
X67600000Y-46500000D01*
X64449999Y-50050001D02*
X65349999Y-50050001D01*
X64400000Y-50100000D02*
X64449999Y-50050001D01*
X64250000Y-50100000D02*
X64400000Y-50100000D01*
X65349999Y-50050001D02*
X65900000Y-49500000D01*
X65900000Y-49500000D02*
X65900000Y-47000000D01*
X66400000Y-46500000D02*
X67600000Y-46500000D01*
X65900000Y-47000000D02*
X66400000Y-46500000D01*
X58200000Y-51700000D02*
X57400000Y-50900000D01*
X60800000Y-50100000D02*
X60300000Y-49600000D01*
X64250000Y-50100000D02*
X60800000Y-50100000D01*
X55550001Y-50850001D02*
X52600001Y-50850001D01*
X55600000Y-50900000D02*
X55550001Y-50850001D01*
X55750000Y-50900000D02*
X55600000Y-50900000D01*
X51500000Y-49750000D02*
X51500000Y-48500000D01*
X52600001Y-50850001D02*
X51500000Y-49750000D01*
X51500000Y-48500000D02*
X50250000Y-48500000D01*
X49290000Y-47540000D02*
X47540000Y-47540000D01*
X50250000Y-48500000D02*
X49290000Y-47540000D01*
X69770000Y-48480000D02*
X69750000Y-48500000D01*
X71965000Y-48480000D02*
X69770000Y-48480000D01*
X64400000Y-50900000D02*
X64449999Y-50850001D01*
X64250000Y-50900000D02*
X64400000Y-50900000D01*
X69750000Y-48500000D02*
X67600000Y-48500000D01*
X64100000Y-49300000D02*
X64250000Y-49300000D01*
X62300000Y-49300000D02*
X64100000Y-49300000D01*
X64250000Y-50900000D02*
X62300000Y-50900000D01*
X61500000Y-48500000D02*
X62300000Y-49300000D01*
X59900000Y-50900000D02*
X57500000Y-48500000D01*
X64250000Y-50900000D02*
X59900000Y-50900000D01*
X57500000Y-48500000D02*
X61500000Y-48500000D01*
X55750000Y-48500000D02*
X57500000Y-48500000D01*
X64250000Y-50900000D02*
X64600000Y-50900000D01*
D28*
X47540000Y-42460000D02*
X46200000Y-43800000D01*
X46200000Y-43800000D02*
X42800000Y-43800000D01*
X42200000Y-44400000D02*
X42200000Y-45640000D01*
X42800000Y-43800000D02*
X42200000Y-44400000D01*
D26*
X55750000Y-48500000D02*
X53500000Y-48500000D01*
X64649999Y-50850001D02*
X66399999Y-50850001D01*
X64600000Y-50900000D02*
X64649999Y-50850001D01*
X67600000Y-49650000D02*
X67600000Y-48500000D01*
X66399999Y-50850001D02*
X67600000Y-49650000D01*
X74985000Y-48500000D02*
X74965000Y-48480000D01*
X77250000Y-48500000D02*
X74985000Y-48500000D01*
D27*
X77250000Y-48500000D02*
X77250000Y-50250000D01*
D26*
X50000000Y-90750000D02*
X83750000Y-90750000D01*
D28*
X45000000Y-41500000D02*
X45000000Y-42460000D01*
X46000000Y-40500000D02*
X45000000Y-41500000D01*
X49250000Y-40500000D02*
X46000000Y-40500000D01*
X56525000Y-44225000D02*
X52975000Y-44225000D01*
X57200000Y-44900000D02*
X56525000Y-44225000D01*
X52975000Y-44225000D02*
X49250000Y-40500000D01*
X57200000Y-46250000D02*
X57200000Y-44900000D01*
X54300000Y-46250000D02*
X55750000Y-47700000D01*
X46250000Y-46250000D02*
X54300000Y-46250000D01*
X45000000Y-45000000D02*
X46250000Y-46250000D01*
X52750000Y-45000000D02*
X54500000Y-45000000D01*
X47540000Y-45000000D02*
X52750000Y-45000000D01*
X52750000Y-45000000D02*
X53800000Y-45000000D01*
X54500000Y-45000000D02*
X57000000Y-47500000D01*
X57000000Y-47500000D02*
X57750000Y-47500000D01*
X58000000Y-47250000D02*
X58000000Y-46250000D01*
X57750000Y-47500000D02*
X58000000Y-47250000D01*
X60400000Y-54750000D02*
X60400000Y-53000000D01*
X45000000Y-47540000D02*
X42200000Y-47540000D01*
X59600000Y-44000000D02*
X59600000Y-46250000D01*
X58100000Y-42500000D02*
X59600000Y-44000000D01*
X54500000Y-42500000D02*
X58100000Y-42500000D01*
X50300000Y-38300000D02*
X54500000Y-42500000D01*
X43360000Y-38300000D02*
X50300000Y-38300000D01*
X39160000Y-42500000D02*
X43360000Y-38300000D01*
X39160000Y-47500000D02*
X40300000Y-46360000D01*
X58800000Y-44500000D02*
X58800000Y-46250000D01*
X54250000Y-43250000D02*
X57550000Y-43250000D01*
X50000000Y-39000000D02*
X54250000Y-43250000D01*
X43500000Y-39000000D02*
X50000000Y-39000000D01*
X41000000Y-41500000D02*
X43500000Y-39000000D01*
X57550000Y-43250000D02*
X58800000Y-44500000D01*
X41000000Y-45660000D02*
X41000000Y-41500000D01*
X39160000Y-47500000D02*
X41000000Y-45660000D01*
X80840000Y-47500000D02*
X76590000Y-43250000D01*
X61200000Y-46250000D02*
X61200000Y-44500000D01*
X62450000Y-43250000D02*
X61200000Y-44500000D01*
X63250000Y-43250000D02*
X62450000Y-43250000D01*
X76590000Y-43250000D02*
X63250000Y-43250000D01*
X63250000Y-43250000D02*
X62500000Y-43250000D01*
X60400000Y-46250000D02*
X60400000Y-44000000D01*
X61900000Y-42500000D02*
X60400000Y-44000000D01*
X62250000Y-42500000D02*
X61900000Y-42500000D01*
X80840000Y-42500000D02*
X62250000Y-42500000D01*
X62250000Y-42500000D02*
X62000000Y-42500000D01*
X58000000Y-54750000D02*
X58000000Y-57500000D01*
X58000000Y-57500000D02*
X53250000Y-62250000D01*
X53250000Y-62250000D02*
X51000000Y-62250000D01*
X49160000Y-64090000D02*
X42460000Y-64090000D01*
X51000000Y-62250000D02*
X49160000Y-64090000D01*
X62460000Y-64090000D02*
X62460000Y-59960000D01*
X61200000Y-58700000D02*
X61200000Y-58550000D01*
X62460000Y-59960000D02*
X61200000Y-58700000D01*
X61200000Y-54750000D02*
X61200000Y-58550000D01*
X62800000Y-58550000D02*
X62800000Y-54750000D01*
X62800000Y-58800000D02*
X62800000Y-58550000D01*
X64000000Y-60000000D02*
X62800000Y-58800000D01*
X78370000Y-60000000D02*
X64000000Y-60000000D01*
X82460000Y-64090000D02*
X78370000Y-60000000D01*
X52500000Y-54500000D02*
X54500000Y-52500000D01*
X44090000Y-54500000D02*
X52500000Y-54500000D01*
X54500000Y-52500000D02*
X55750000Y-52500000D01*
X42090000Y-52500000D02*
X44090000Y-54500000D01*
X54550000Y-53300000D02*
X55750000Y-53300000D01*
X52350000Y-55500000D02*
X54550000Y-53300000D01*
X44090000Y-55500000D02*
X52350000Y-55500000D01*
X42090000Y-57500000D02*
X44090000Y-55500000D01*
X67500000Y-54500000D02*
X75910000Y-54500000D01*
X75910000Y-54500000D02*
X77910000Y-52500000D01*
X65500000Y-52500000D02*
X67500000Y-54500000D01*
X64250000Y-52500000D02*
X65500000Y-52500000D01*
X75910000Y-55500000D02*
X77910000Y-57500000D01*
X67500000Y-55500000D02*
X75910000Y-55500000D01*
X65300000Y-53300000D02*
X67500000Y-55500000D01*
X64250000Y-53300000D02*
X65300000Y-53300000D01*
X58800000Y-57750000D02*
X52460000Y-64090000D01*
X58800000Y-54750000D02*
X58800000Y-57750000D01*
X36550000Y-60000000D02*
X32460000Y-64090000D01*
X54500000Y-60000000D02*
X36550000Y-60000000D01*
X57200000Y-57300000D02*
X54500000Y-60000000D01*
X57200000Y-54750000D02*
X57200000Y-57300000D01*
X67340000Y-64090000D02*
X72460000Y-64090000D01*
X62000000Y-58750000D02*
X67340000Y-64090000D01*
X62000000Y-54750000D02*
X62000000Y-58750000D01*
M02*
