G04 #@! TF.GenerationSoftware,KiCad,Pcbnew,(5.1.7)-1*
G04 #@! TF.CreationDate,2022-07-12T08:18:53+02:00*
G04 #@! TF.ProjectId,Flip-Flop-Modul,466c6970-2d46-46c6-9f70-2d4d6f64756c,rev?*
G04 #@! TF.SameCoordinates,Original*
G04 #@! TF.FileFunction,Paste,Top*
G04 #@! TF.FilePolarity,Positive*
%FSLAX46Y46*%
G04 Gerber Fmt 4.6, Leading zero omitted, Abs format (unit mm)*
G04 Created by KiCad (PCBNEW (5.1.7)-1) date 2022-07-12 08:18:53*
%MOMM*%
%LPD*%
G01*
G04 APERTURE LIST*
%ADD10R,1.300000X0.700000*%
%ADD11R,1.000000X1.250000*%
%ADD12R,1.250000X1.000000*%
%ADD13C,0.100000*%
%ADD14R,1.000000X1.500000*%
%ADD15R,1.000000X1.800000*%
%ADD16R,2.200000X1.840000*%
%ADD17R,1.200000X0.600000*%
%ADD18R,0.600000X1.200000*%
G04 APERTURE END LIST*
D10*
X42200000Y-45640000D03*
X42200000Y-47540000D03*
D11*
X53500000Y-48500000D03*
X51500000Y-48500000D03*
D12*
X67600000Y-48500000D03*
X67600000Y-46500000D03*
D13*
G36*
X72365000Y-44758000D02*
G01*
X72965000Y-43908000D01*
X73965000Y-43908000D01*
X74565000Y-44758000D01*
X72365000Y-44758000D01*
G37*
D14*
X71965000Y-48480000D03*
D15*
X73465000Y-48333500D03*
D14*
X74965000Y-48480000D03*
D16*
X73465000Y-45666500D03*
D13*
G36*
X74565000Y-46576200D02*
G01*
X73865000Y-47576200D01*
X73065000Y-47576200D01*
X72365000Y-46576200D01*
X74565000Y-46576200D01*
G37*
D12*
X69750000Y-48500000D03*
X69750000Y-46500000D03*
X77250000Y-48500000D03*
X77250000Y-46500000D03*
D17*
X64250000Y-53300000D03*
X64250000Y-52500000D03*
X64250000Y-51700000D03*
X64250000Y-50900000D03*
X64250000Y-50100000D03*
X64250000Y-49300000D03*
X64250000Y-48500000D03*
X64250000Y-47700000D03*
D18*
X62800000Y-46250000D03*
X62000000Y-46250000D03*
X61200000Y-46250000D03*
X60400000Y-46250000D03*
X59600000Y-46250000D03*
X58800000Y-46250000D03*
X58000000Y-46250000D03*
X57200000Y-46250000D03*
D17*
X55750000Y-47700000D03*
X55750000Y-48500000D03*
X55750000Y-49300000D03*
X55750000Y-50100000D03*
X55750000Y-50900000D03*
X55750000Y-51700000D03*
X55750000Y-52500000D03*
X55750000Y-53300000D03*
D18*
X57200000Y-54750000D03*
X58000000Y-54750000D03*
X58800000Y-54750000D03*
X59600000Y-54750000D03*
X60400000Y-54750000D03*
X61200000Y-54750000D03*
X62000000Y-54750000D03*
X62800000Y-54750000D03*
M02*
