G04 #@! TF.GenerationSoftware,KiCad,Pcbnew,(5.1.7)-1*
G04 #@! TF.CreationDate,2022-07-12T08:18:53+02:00*
G04 #@! TF.ProjectId,Flip-Flop-Modul,466c6970-2d46-46c6-9f70-2d4d6f64756c,rev?*
G04 #@! TF.SameCoordinates,Original*
G04 #@! TF.FileFunction,Soldermask,Top*
G04 #@! TF.FilePolarity,Negative*
%FSLAX46Y46*%
G04 Gerber Fmt 4.6, Leading zero omitted, Abs format (unit mm)*
G04 Created by KiCad (PCBNEW (5.1.7)-1) date 2022-07-12 08:18:53*
%MOMM*%
%LPD*%
G01*
G04 APERTURE LIST*
%ADD10C,1.600000*%
%ADD11O,1.600000X1.600000*%
%ADD12R,1.300000X0.700000*%
%ADD13R,1.000000X1.250000*%
%ADD14R,1.250000X1.000000*%
%ADD15C,0.100000*%
%ADD16R,1.000000X1.500000*%
%ADD17R,1.000000X1.800000*%
%ADD18R,2.200000X1.840000*%
%ADD19R,1.700000X1.700000*%
%ADD20O,1.700000X1.700000*%
%ADD21O,1.500000X2.000000*%
%ADD22O,2.000000X1.500000*%
%ADD23R,1.200000X0.600000*%
%ADD24R,0.600000X1.200000*%
G04 APERTURE END LIST*
D10*
X91000000Y-57500000D03*
D11*
X80840000Y-57500000D03*
D10*
X91000000Y-52500000D03*
D11*
X80840000Y-52500000D03*
D10*
X29000000Y-57500000D03*
D11*
X39160000Y-57500000D03*
D10*
X62460000Y-74250000D03*
D11*
X62460000Y-64090000D03*
D10*
X82460000Y-74250000D03*
D11*
X82460000Y-64090000D03*
D10*
X42460000Y-74250000D03*
D11*
X42460000Y-64090000D03*
D10*
X29000000Y-52500000D03*
D11*
X39160000Y-52500000D03*
X52250000Y-52500000D03*
X42090000Y-52500000D03*
X52250000Y-57500000D03*
X42090000Y-57500000D03*
X67750000Y-52500000D03*
X77910000Y-52500000D03*
X67750000Y-57500000D03*
X77910000Y-57500000D03*
D12*
X42200000Y-45640000D03*
X42200000Y-47540000D03*
D13*
X53500000Y-48500000D03*
X51500000Y-48500000D03*
D14*
X67600000Y-48500000D03*
X67600000Y-46500000D03*
D15*
G36*
X72365000Y-44758000D02*
G01*
X72965000Y-43908000D01*
X73965000Y-43908000D01*
X74565000Y-44758000D01*
X72365000Y-44758000D01*
G37*
D16*
X71965000Y-48480000D03*
D17*
X73465000Y-48333500D03*
D16*
X74965000Y-48480000D03*
D18*
X73465000Y-45666500D03*
D15*
G36*
X74565000Y-46576200D02*
G01*
X73865000Y-47576200D01*
X73065000Y-47576200D01*
X72365000Y-46576200D01*
X74565000Y-46576200D01*
G37*
D14*
X69750000Y-48500000D03*
X69750000Y-46500000D03*
X77250000Y-48500000D03*
X77250000Y-46500000D03*
D19*
X45000000Y-42460000D03*
D20*
X47540000Y-42460000D03*
X45000000Y-45000000D03*
X47540000Y-45000000D03*
X45000000Y-47540000D03*
X47540000Y-47540000D03*
D10*
X91000000Y-42500000D03*
D11*
X80840000Y-42500000D03*
D10*
X91000000Y-47500000D03*
D11*
X80840000Y-47500000D03*
D10*
X29000000Y-47500000D03*
D11*
X39160000Y-47500000D03*
D10*
X29000000Y-42500000D03*
D11*
X39160000Y-42500000D03*
D10*
X70500000Y-35500000D03*
D11*
X80660000Y-35500000D03*
D10*
X70500000Y-28500000D03*
D11*
X80660000Y-28500000D03*
D10*
X49500000Y-28500000D03*
D11*
X39340000Y-28500000D03*
D10*
X49500000Y-35500000D03*
D11*
X39340000Y-35500000D03*
D21*
X85000000Y-80290000D03*
D22*
X87540000Y-77750000D03*
X82460000Y-77750000D03*
D21*
X75000000Y-80290000D03*
D22*
X77540000Y-77750000D03*
X72460000Y-77750000D03*
D10*
X87540000Y-72000000D03*
D11*
X87540000Y-61840000D03*
D10*
X77540000Y-72000000D03*
D11*
X77540000Y-61840000D03*
D10*
X72460000Y-74250000D03*
D11*
X72460000Y-64090000D03*
D21*
X65000000Y-80290000D03*
D22*
X67540000Y-77750000D03*
X62460000Y-77750000D03*
D10*
X67540000Y-72000000D03*
D11*
X67540000Y-61840000D03*
D21*
X45000000Y-80290000D03*
D22*
X47540000Y-77750000D03*
X42460000Y-77750000D03*
D21*
X35000000Y-80290000D03*
D22*
X37540000Y-77750000D03*
X32460000Y-77750000D03*
D10*
X47540000Y-72000000D03*
D11*
X47540000Y-61840000D03*
D10*
X37540000Y-72000000D03*
D11*
X37540000Y-61840000D03*
D10*
X32460000Y-74250000D03*
D11*
X32460000Y-64090000D03*
D21*
X55000000Y-80290000D03*
D22*
X57540000Y-77750000D03*
X52460000Y-77750000D03*
D10*
X57540000Y-72000000D03*
D11*
X57540000Y-61840000D03*
D10*
X52460000Y-74250000D03*
D11*
X52460000Y-64090000D03*
D21*
X86500000Y-35210000D03*
D22*
X83960000Y-37750000D03*
X89040000Y-37750000D03*
D21*
X86500000Y-28160000D03*
D22*
X83960000Y-30700000D03*
X89040000Y-30700000D03*
D21*
X33500000Y-31440000D03*
D22*
X36040000Y-28900000D03*
X30960000Y-28900000D03*
D23*
X64250000Y-53300000D03*
X64250000Y-52500000D03*
X64250000Y-51700000D03*
X64250000Y-50900000D03*
X64250000Y-50100000D03*
X64250000Y-49300000D03*
X64250000Y-48500000D03*
X64250000Y-47700000D03*
D24*
X62800000Y-46250000D03*
X62000000Y-46250000D03*
X61200000Y-46250000D03*
X60400000Y-46250000D03*
X59600000Y-46250000D03*
X58800000Y-46250000D03*
X58000000Y-46250000D03*
X57200000Y-46250000D03*
D23*
X55750000Y-47700000D03*
X55750000Y-48500000D03*
X55750000Y-49300000D03*
X55750000Y-50100000D03*
X55750000Y-50900000D03*
X55750000Y-51700000D03*
X55750000Y-52500000D03*
X55750000Y-53300000D03*
D24*
X57200000Y-54750000D03*
X58000000Y-54750000D03*
X58800000Y-54750000D03*
X59600000Y-54750000D03*
X60400000Y-54750000D03*
X61200000Y-54750000D03*
X62000000Y-54750000D03*
X62800000Y-54750000D03*
D21*
X33500000Y-38440000D03*
D22*
X36040000Y-35900000D03*
X30960000Y-35900000D03*
M02*
