G04 #@! TF.GenerationSoftware,KiCad,Pcbnew,(5.1.7)-1*
G04 #@! TF.CreationDate,2022-07-12T08:18:53+02:00*
G04 #@! TF.ProjectId,Flip-Flop-Modul,466c6970-2d46-46c6-9f70-2d4d6f64756c,rev?*
G04 #@! TF.SameCoordinates,Original*
G04 #@! TF.FileFunction,Legend,Bot*
G04 #@! TF.FilePolarity,Positive*
%FSLAX46Y46*%
G04 Gerber Fmt 4.6, Leading zero omitted, Abs format (unit mm)*
G04 Created by KiCad (PCBNEW (5.1.7)-1) date 2022-07-12 08:18:53*
%MOMM*%
%LPD*%
G01*
G04 APERTURE LIST*
%ADD10C,1.600000*%
%ADD11O,1.600000X1.600000*%
%ADD12R,1.700000X1.700000*%
%ADD13O,1.700000X1.700000*%
%ADD14O,1.500000X2.000000*%
%ADD15O,2.000000X1.500000*%
%ADD16C,3.500000*%
G04 APERTURE END LIST*
%LPC*%
D10*
X91000000Y-57500000D03*
D11*
X80840000Y-57500000D03*
D10*
X91000000Y-52500000D03*
D11*
X80840000Y-52500000D03*
D10*
X29000000Y-57500000D03*
D11*
X39160000Y-57500000D03*
D10*
X62460000Y-74250000D03*
D11*
X62460000Y-64090000D03*
D10*
X82460000Y-74250000D03*
D11*
X82460000Y-64090000D03*
D10*
X42460000Y-74250000D03*
D11*
X42460000Y-64090000D03*
D10*
X29000000Y-52500000D03*
D11*
X39160000Y-52500000D03*
X52250000Y-52500000D03*
X42090000Y-52500000D03*
X52250000Y-57500000D03*
X42090000Y-57500000D03*
X67750000Y-52500000D03*
X77910000Y-52500000D03*
X67750000Y-57500000D03*
X77910000Y-57500000D03*
D12*
X45000000Y-42460000D03*
D13*
X47540000Y-42460000D03*
X45000000Y-45000000D03*
X47540000Y-45000000D03*
X45000000Y-47540000D03*
X47540000Y-47540000D03*
D10*
X91000000Y-42500000D03*
D11*
X80840000Y-42500000D03*
D10*
X91000000Y-47500000D03*
D11*
X80840000Y-47500000D03*
D10*
X29000000Y-47500000D03*
D11*
X39160000Y-47500000D03*
D10*
X29000000Y-42500000D03*
D11*
X39160000Y-42500000D03*
D10*
X70500000Y-35500000D03*
D11*
X80660000Y-35500000D03*
D10*
X70500000Y-28500000D03*
D11*
X80660000Y-28500000D03*
D10*
X49500000Y-28500000D03*
D11*
X39340000Y-28500000D03*
D10*
X49500000Y-35500000D03*
D11*
X39340000Y-35500000D03*
D14*
X85000000Y-80290000D03*
D15*
X87540000Y-77750000D03*
X82460000Y-77750000D03*
D14*
X75000000Y-80290000D03*
D15*
X77540000Y-77750000D03*
X72460000Y-77750000D03*
D10*
X87540000Y-72000000D03*
D11*
X87540000Y-61840000D03*
D10*
X77540000Y-72000000D03*
D11*
X77540000Y-61840000D03*
D10*
X72460000Y-74250000D03*
D11*
X72460000Y-64090000D03*
D14*
X65000000Y-80290000D03*
D15*
X67540000Y-77750000D03*
X62460000Y-77750000D03*
D10*
X67540000Y-72000000D03*
D11*
X67540000Y-61840000D03*
D14*
X45000000Y-80290000D03*
D15*
X47540000Y-77750000D03*
X42460000Y-77750000D03*
D14*
X35000000Y-80290000D03*
D15*
X37540000Y-77750000D03*
X32460000Y-77750000D03*
D10*
X47540000Y-72000000D03*
D11*
X47540000Y-61840000D03*
D10*
X37540000Y-72000000D03*
D11*
X37540000Y-61840000D03*
D10*
X32460000Y-74250000D03*
D11*
X32460000Y-64090000D03*
D14*
X55000000Y-80290000D03*
D15*
X57540000Y-77750000D03*
X52460000Y-77750000D03*
D10*
X57540000Y-72000000D03*
D11*
X57540000Y-61840000D03*
D10*
X52460000Y-74250000D03*
D11*
X52460000Y-64090000D03*
D14*
X86500000Y-35210000D03*
D15*
X83960000Y-37750000D03*
X89040000Y-37750000D03*
D14*
X86500000Y-28160000D03*
D15*
X83960000Y-30700000D03*
X89040000Y-30700000D03*
D14*
X33500000Y-31440000D03*
D15*
X36040000Y-28900000D03*
X30960000Y-28900000D03*
D16*
X27500000Y-87000000D03*
X32500000Y-87000000D03*
X37500000Y-87000000D03*
X42500000Y-87000000D03*
X47500000Y-87000000D03*
X52500000Y-87000000D03*
X57500000Y-87000000D03*
X62500000Y-87000000D03*
X67500000Y-87000000D03*
X72500000Y-87000000D03*
X77500000Y-87000000D03*
X82500000Y-87000000D03*
X87500000Y-87000000D03*
G36*
G01*
X64125000Y-40812500D02*
X64125000Y-37187500D01*
G75*
G02*
X64562500Y-36750000I437500J0D01*
G01*
X65437500Y-36750000D01*
G75*
G02*
X65875000Y-37187500I0J-437500D01*
G01*
X65875000Y-40812500D01*
G75*
G02*
X65437500Y-41250000I-437500J0D01*
G01*
X64562500Y-41250000D01*
G75*
G02*
X64125000Y-40812500I0J437500D01*
G01*
G37*
G36*
G01*
X61625000Y-40812500D02*
X61625000Y-37187500D01*
G75*
G02*
X62062500Y-36750000I437500J0D01*
G01*
X62937500Y-36750000D01*
G75*
G02*
X63375000Y-37187500I0J-437500D01*
G01*
X63375000Y-40812500D01*
G75*
G02*
X62937500Y-41250000I-437500J0D01*
G01*
X62062500Y-41250000D01*
G75*
G02*
X61625000Y-40812500I0J437500D01*
G01*
G37*
G36*
G01*
X59125000Y-40812500D02*
X59125000Y-37187500D01*
G75*
G02*
X59562500Y-36750000I437500J0D01*
G01*
X60437500Y-36750000D01*
G75*
G02*
X60875000Y-37187500I0J-437500D01*
G01*
X60875000Y-40812500D01*
G75*
G02*
X60437500Y-41250000I-437500J0D01*
G01*
X59562500Y-41250000D01*
G75*
G02*
X59125000Y-40812500I0J437500D01*
G01*
G37*
G36*
G01*
X56625000Y-40812500D02*
X56625000Y-37187500D01*
G75*
G02*
X57062500Y-36750000I437500J0D01*
G01*
X57937500Y-36750000D01*
G75*
G02*
X58375000Y-37187500I0J-437500D01*
G01*
X58375000Y-40812500D01*
G75*
G02*
X57937500Y-41250000I-437500J0D01*
G01*
X57062500Y-41250000D01*
G75*
G02*
X56625000Y-40812500I0J437500D01*
G01*
G37*
G36*
G01*
X54125000Y-40812500D02*
X54125000Y-37187500D01*
G75*
G02*
X54562500Y-36750000I437500J0D01*
G01*
X55437500Y-36750000D01*
G75*
G02*
X55875000Y-37187500I0J-437500D01*
G01*
X55875000Y-40812500D01*
G75*
G02*
X55437500Y-41250000I-437500J0D01*
G01*
X54562500Y-41250000D01*
G75*
G02*
X54125000Y-40812500I0J437500D01*
G01*
G37*
D14*
X33500000Y-38440000D03*
D15*
X36040000Y-35900000D03*
X30960000Y-35900000D03*
M02*
