G04 #@! TF.GenerationSoftware,KiCad,Pcbnew,(5.1.7)-1*
G04 #@! TF.CreationDate,2022-09-30T21:09:14+02:00*
G04 #@! TF.ProjectId,Zaehler-Modul,5a616568-6c65-4722-9d4d-6f64756c2e6b,rev?*
G04 #@! TF.SameCoordinates,Original*
G04 #@! TF.FileFunction,Paste,Top*
G04 #@! TF.FilePolarity,Positive*
%FSLAX46Y46*%
G04 Gerber Fmt 4.6, Leading zero omitted, Abs format (unit mm)*
G04 Created by KiCad (PCBNEW (5.1.7)-1) date 2022-09-30 21:09:14*
%MOMM*%
%LPD*%
G01*
G04 APERTURE LIST*
%ADD10R,1.700000X0.900000*%
%ADD11R,0.900000X0.500000*%
%ADD12R,1.000000X1.250000*%
%ADD13R,2.200000X1.200000*%
%ADD14R,3.050000X2.750000*%
%ADD15R,1.300000X0.700000*%
%ADD16R,1.000000X1.600000*%
%ADD17R,2.000000X0.600000*%
%ADD18R,1.200000X1.400000*%
%ADD19R,0.250000X1.300000*%
%ADD20R,1.300000X0.250000*%
%ADD21R,0.700000X1.300000*%
%ADD22R,0.900000X0.800000*%
%ADD23R,0.800000X0.900000*%
%ADD24R,1.250000X1.000000*%
G04 APERTURE END LIST*
D10*
X84750000Y-105050000D03*
X84750000Y-107950000D03*
X84750000Y-100050000D03*
X84750000Y-102950000D03*
D11*
X133750000Y-121750000D03*
X133750000Y-123250000D03*
D12*
X140250000Y-97750000D03*
X142250000Y-97750000D03*
D13*
X94800000Y-108720000D03*
X94800000Y-113280000D03*
D14*
X102775000Y-112525000D03*
X99425000Y-109475000D03*
X102775000Y-109475000D03*
X99425000Y-112525000D03*
D13*
X94800000Y-88720000D03*
X94800000Y-93280000D03*
D14*
X102775000Y-92525000D03*
X99425000Y-89475000D03*
X102775000Y-89475000D03*
X99425000Y-92525000D03*
D15*
X91500000Y-89950000D03*
X91500000Y-88050000D03*
X91500000Y-93950000D03*
X91500000Y-92050000D03*
X91500000Y-109950000D03*
X91500000Y-108050000D03*
X91500000Y-113950000D03*
X91500000Y-112050000D03*
D16*
X103750000Y-96000000D03*
X100750000Y-96000000D03*
X103750000Y-116000000D03*
X100750000Y-116000000D03*
X94250000Y-96000000D03*
X97250000Y-96000000D03*
X94250000Y-116000000D03*
X97250000Y-116000000D03*
D17*
X143300000Y-121840000D03*
X143300000Y-123110000D03*
X143300000Y-124380000D03*
X143300000Y-125650000D03*
X143300000Y-126920000D03*
X143300000Y-128190000D03*
X143300000Y-129460000D03*
X143300000Y-130730000D03*
X143300000Y-132000000D03*
X152700000Y-132000000D03*
X152700000Y-130730000D03*
X152700000Y-129460000D03*
X152700000Y-128190000D03*
X152700000Y-126920000D03*
X152700000Y-125650000D03*
X152700000Y-124380000D03*
X152700000Y-123110000D03*
X152700000Y-121840000D03*
X143300000Y-107500000D03*
X143300000Y-108770000D03*
X143300000Y-110040000D03*
X143300000Y-111310000D03*
X143300000Y-112580000D03*
X143300000Y-113850000D03*
X143300000Y-115120000D03*
X143300000Y-116390000D03*
X143300000Y-117660000D03*
X152700000Y-117660000D03*
X152700000Y-116390000D03*
X152700000Y-115120000D03*
X152700000Y-113850000D03*
X152700000Y-112580000D03*
X152700000Y-111310000D03*
X152700000Y-110040000D03*
X152700000Y-108770000D03*
X152700000Y-107500000D03*
D18*
X130150000Y-121400000D03*
X130150000Y-123600000D03*
X131850000Y-123600000D03*
X131850000Y-121400000D03*
D19*
X124500000Y-115350000D03*
X125000000Y-115350000D03*
X125500000Y-115350000D03*
X126000000Y-115350000D03*
X126500000Y-115350000D03*
X127000000Y-115350000D03*
X127500000Y-115350000D03*
X128000000Y-115350000D03*
X128500000Y-115350000D03*
X129000000Y-115350000D03*
X129500000Y-115350000D03*
X130000000Y-115350000D03*
D20*
X131600000Y-113750000D03*
X131600000Y-113250000D03*
X131600000Y-112750000D03*
X131600000Y-112250000D03*
X131600000Y-111750000D03*
X131600000Y-111250000D03*
X131600000Y-110750000D03*
X131600000Y-110250000D03*
X131600000Y-109750000D03*
X131600000Y-109250000D03*
X131600000Y-108750000D03*
X131600000Y-108250000D03*
D19*
X130000000Y-106650000D03*
X129500000Y-106650000D03*
X129000000Y-106650000D03*
X128500000Y-106650000D03*
X128000000Y-106650000D03*
X127500000Y-106650000D03*
X127000000Y-106650000D03*
X126500000Y-106650000D03*
X126000000Y-106650000D03*
X125500000Y-106650000D03*
X125000000Y-106650000D03*
X124500000Y-106650000D03*
D20*
X122900000Y-108250000D03*
X122900000Y-108750000D03*
X122900000Y-109250000D03*
X122900000Y-109750000D03*
X122900000Y-110250000D03*
X122900000Y-110750000D03*
X122900000Y-111250000D03*
X122900000Y-111750000D03*
X122900000Y-112250000D03*
X122900000Y-112750000D03*
X122900000Y-113250000D03*
X122900000Y-113750000D03*
D21*
X142200000Y-94250000D03*
X140300000Y-94250000D03*
X133050000Y-94250000D03*
X134950000Y-94250000D03*
X146450000Y-97750000D03*
X144550000Y-97750000D03*
X95700000Y-133000000D03*
X93800000Y-133000000D03*
D22*
X144500000Y-94250000D03*
X146500000Y-93300000D03*
X146500000Y-95200000D03*
D23*
X131000000Y-91750000D03*
X130050000Y-89750000D03*
X131950000Y-89750000D03*
D12*
X126000000Y-117500000D03*
X124000000Y-117500000D03*
X124000000Y-119500000D03*
X126000000Y-119500000D03*
X131000000Y-94250000D03*
X129000000Y-94250000D03*
D24*
X149670000Y-93250000D03*
X149670000Y-95250000D03*
X134750000Y-84500000D03*
X134750000Y-86500000D03*
D12*
X132000000Y-125750000D03*
X130000000Y-125750000D03*
D24*
X152210000Y-95250000D03*
X152210000Y-93250000D03*
X128000000Y-121500000D03*
X128000000Y-123500000D03*
X157290000Y-95250000D03*
X157290000Y-93250000D03*
X154750000Y-84500000D03*
X154750000Y-86500000D03*
D15*
X134750000Y-89800000D03*
X134750000Y-91700000D03*
X99750000Y-135550000D03*
X99750000Y-137450000D03*
D23*
X94750000Y-137500000D03*
X93800000Y-135500000D03*
X95700000Y-135500000D03*
D21*
X110700000Y-133000000D03*
X108800000Y-133000000D03*
D15*
X114750000Y-135550000D03*
X114750000Y-137450000D03*
D23*
X110700000Y-135500000D03*
X108800000Y-135500000D03*
X109750000Y-137500000D03*
D15*
X119750000Y-137450000D03*
X119750000Y-135550000D03*
D21*
X120700000Y-129000000D03*
X118800000Y-129000000D03*
D23*
X120700000Y-131250000D03*
X118800000Y-131250000D03*
X119750000Y-133250000D03*
M02*
