G04 #@! TF.GenerationSoftware,KiCad,Pcbnew,(5.1.7)-1*
G04 #@! TF.CreationDate,2022-09-30T21:09:14+02:00*
G04 #@! TF.ProjectId,Zaehler-Modul,5a616568-6c65-4722-9d4d-6f64756c2e6b,rev?*
G04 #@! TF.SameCoordinates,Original*
G04 #@! TF.FileFunction,Soldermask,Bot*
G04 #@! TF.FilePolarity,Negative*
%FSLAX46Y46*%
G04 Gerber Fmt 4.6, Leading zero omitted, Abs format (unit mm)*
G04 Created by KiCad (PCBNEW (5.1.7)-1) date 2022-09-30 21:09:14*
%MOMM*%
%LPD*%
G01*
G04 APERTURE LIST*
%ADD10C,1.600000*%
%ADD11O,1.600000X1.600000*%
%ADD12C,2.000000*%
%ADD13C,2.500000*%
%ADD14C,5.600000*%
%ADD15R,1.600000X1.600000*%
%ADD16C,1.440000*%
%ADD17R,1.700000X1.700000*%
%ADD18O,1.700000X1.700000*%
G04 APERTURE END LIST*
D10*
X165750000Y-132000000D03*
D11*
X160670000Y-132000000D03*
D10*
X165750000Y-128500000D03*
D11*
X160670000Y-128500000D03*
D10*
X165750000Y-125000000D03*
D11*
X160670000Y-125000000D03*
D10*
X165750000Y-121500000D03*
D11*
X160670000Y-121500000D03*
D10*
X165750000Y-118000000D03*
D11*
X160670000Y-118000000D03*
D10*
X165750000Y-114500000D03*
D11*
X160670000Y-114500000D03*
D10*
X165750000Y-111000000D03*
D11*
X160670000Y-111000000D03*
D10*
X165750000Y-107500000D03*
D11*
X160670000Y-107500000D03*
D12*
X169750000Y-132000000D03*
X169750000Y-128500000D03*
X169750000Y-125000000D03*
X169750000Y-121500000D03*
X169750000Y-118000000D03*
X169750000Y-114500000D03*
X169750000Y-111000000D03*
X169750000Y-107500000D03*
X169750000Y-104000000D03*
X169750000Y-100500000D03*
X169750000Y-97000000D03*
X169750000Y-93500000D03*
X169750000Y-90000000D03*
D13*
X109750000Y-141000000D03*
X94750000Y-141000000D03*
D14*
X169750000Y-81000000D03*
X169750000Y-141000000D03*
X84750000Y-141000000D03*
X84750000Y-81000000D03*
D13*
X84750000Y-91000000D03*
X84750000Y-96000000D03*
X139750000Y-81000000D03*
X134750000Y-81000000D03*
X154750000Y-81000000D03*
X159750000Y-81000000D03*
D11*
X157290000Y-90000000D03*
X154750000Y-90000000D03*
X152210000Y-90000000D03*
X149670000Y-90000000D03*
X147130000Y-90000000D03*
D15*
X144590000Y-90000000D03*
D16*
X113250000Y-83250000D03*
X115790000Y-83250000D03*
X118330000Y-83250000D03*
D17*
X112000000Y-96000000D03*
D18*
X114540000Y-96000000D03*
X112000000Y-98540000D03*
X114540000Y-98540000D03*
X112000000Y-101080000D03*
X114540000Y-101080000D03*
X112000000Y-103620000D03*
X114540000Y-103620000D03*
X112000000Y-106160000D03*
X114540000Y-106160000D03*
D13*
X99750000Y-141000000D03*
X114750000Y-141000000D03*
X119750000Y-141000000D03*
M02*
