G04 #@! TF.GenerationSoftware,KiCad,Pcbnew,(5.1.7)-1*
G04 #@! TF.CreationDate,2022-09-30T21:09:14+02:00*
G04 #@! TF.ProjectId,Zaehler-Modul,5a616568-6c65-4722-9d4d-6f64756c2e6b,rev?*
G04 #@! TF.SameCoordinates,Original*
G04 #@! TF.FileFunction,Legend,Top*
G04 #@! TF.FilePolarity,Positive*
%FSLAX46Y46*%
G04 Gerber Fmt 4.6, Leading zero omitted, Abs format (unit mm)*
G04 Created by KiCad (PCBNEW (5.1.7)-1) date 2022-09-30 21:09:14*
%MOMM*%
%LPD*%
G01*
G04 APERTURE LIST*
%ADD10C,0.150000*%
%ADD11C,0.120000*%
%ADD12C,1.600000*%
%ADD13O,1.600000X1.600000*%
%ADD14R,1.700000X0.900000*%
%ADD15R,0.900000X0.500000*%
%ADD16R,1.000000X1.250000*%
%ADD17R,2.200000X1.200000*%
%ADD18R,6.400000X5.800000*%
%ADD19R,1.300000X0.700000*%
%ADD20R,1.000000X1.600000*%
%ADD21C,2.000000*%
%ADD22R,2.000000X0.600000*%
%ADD23C,2.500000*%
%ADD24C,5.600000*%
%ADD25R,1.200000X1.400000*%
%ADD26R,0.250000X1.300000*%
%ADD27R,1.300000X0.250000*%
%ADD28R,1.600000X1.600000*%
%ADD29C,1.440000*%
%ADD30R,0.700000X1.300000*%
%ADD31R,0.900000X0.800000*%
%ADD32R,0.800000X0.900000*%
%ADD33R,1.700000X1.700000*%
%ADD34O,1.700000X1.700000*%
%ADD35R,1.250000X1.000000*%
G04 APERTURE END LIST*
D10*
X105202380Y-111190476D02*
X105202380Y-111666666D01*
X105678571Y-111714285D01*
X105630952Y-111666666D01*
X105583333Y-111571428D01*
X105583333Y-111333333D01*
X105630952Y-111238095D01*
X105678571Y-111190476D01*
X105773809Y-111142857D01*
X106011904Y-111142857D01*
X106107142Y-111190476D01*
X106154761Y-111238095D01*
X106202380Y-111333333D01*
X106202380Y-111571428D01*
X106154761Y-111666666D01*
X106107142Y-111714285D01*
X105202380Y-110857142D02*
X106202380Y-110523809D01*
X105202380Y-110190476D01*
X105202380Y-92476190D02*
X105202380Y-91857142D01*
X105583333Y-92190476D01*
X105583333Y-92047619D01*
X105630952Y-91952380D01*
X105678571Y-91904761D01*
X105773809Y-91857142D01*
X106011904Y-91857142D01*
X106107142Y-91904761D01*
X106154761Y-91952380D01*
X106202380Y-92047619D01*
X106202380Y-92333333D01*
X106154761Y-92428571D01*
X106107142Y-92476190D01*
X106107142Y-91428571D02*
X106154761Y-91380952D01*
X106202380Y-91428571D01*
X106154761Y-91476190D01*
X106107142Y-91428571D01*
X106202380Y-91428571D01*
X105202380Y-91047619D02*
X105202380Y-90428571D01*
X105583333Y-90761904D01*
X105583333Y-90619047D01*
X105630952Y-90523809D01*
X105678571Y-90476190D01*
X105773809Y-90428571D01*
X106011904Y-90428571D01*
X106107142Y-90476190D01*
X106154761Y-90523809D01*
X106202380Y-90619047D01*
X106202380Y-90904761D01*
X106154761Y-91000000D01*
X106107142Y-91047619D01*
X105202380Y-90142857D02*
X106202380Y-89809523D01*
X105202380Y-89476190D01*
X82297619Y-92404761D02*
X81297619Y-92738095D01*
X82297619Y-93071428D01*
X81297619Y-93404761D02*
X82297619Y-93404761D01*
X81297619Y-93880952D02*
X82297619Y-93880952D01*
X81297619Y-94452380D01*
X82297619Y-94452380D01*
X172892857Y-124928571D02*
X172559523Y-124928571D01*
X172559523Y-125452380D02*
X172559523Y-124452380D01*
X173035714Y-124452380D01*
X173011904Y-128000000D02*
X172916666Y-127952380D01*
X172773809Y-127952380D01*
X172630952Y-128000000D01*
X172535714Y-128095238D01*
X172488095Y-128190476D01*
X172440476Y-128380952D01*
X172440476Y-128523809D01*
X172488095Y-128714285D01*
X172535714Y-128809523D01*
X172630952Y-128904761D01*
X172773809Y-128952380D01*
X172869047Y-128952380D01*
X173011904Y-128904761D01*
X173059523Y-128857142D01*
X173059523Y-128523809D01*
X172869047Y-128523809D01*
X171988095Y-132452380D02*
X171988095Y-131452380D01*
X172226190Y-131452380D01*
X172369047Y-131500000D01*
X172464285Y-131595238D01*
X172511904Y-131690476D01*
X172559523Y-131880952D01*
X172559523Y-132023809D01*
X172511904Y-132214285D01*
X172464285Y-132309523D01*
X172369047Y-132404761D01*
X172226190Y-132452380D01*
X171988095Y-132452380D01*
X172988095Y-132452380D02*
X172988095Y-131452380D01*
X173369047Y-131452380D01*
X173464285Y-131500000D01*
X173511904Y-131547619D01*
X173559523Y-131642857D01*
X173559523Y-131785714D01*
X173511904Y-131880952D01*
X173464285Y-131928571D01*
X173369047Y-131976190D01*
X172988095Y-131976190D01*
X172821428Y-110928571D02*
X172964285Y-110976190D01*
X173011904Y-111023809D01*
X173059523Y-111119047D01*
X173059523Y-111261904D01*
X173011904Y-111357142D01*
X172964285Y-111404761D01*
X172869047Y-111452380D01*
X172488095Y-111452380D01*
X172488095Y-110452380D01*
X172821428Y-110452380D01*
X172916666Y-110500000D01*
X172964285Y-110547619D01*
X173011904Y-110642857D01*
X173011904Y-110738095D01*
X172964285Y-110833333D01*
X172916666Y-110880952D01*
X172821428Y-110928571D01*
X172488095Y-110928571D01*
X172511904Y-107666666D02*
X172988095Y-107666666D01*
X172416666Y-107952380D02*
X172750000Y-106952380D01*
X173083333Y-107952380D01*
X173059523Y-114857142D02*
X173011904Y-114904761D01*
X172869047Y-114952380D01*
X172773809Y-114952380D01*
X172630952Y-114904761D01*
X172535714Y-114809523D01*
X172488095Y-114714285D01*
X172440476Y-114523809D01*
X172440476Y-114380952D01*
X172488095Y-114190476D01*
X172535714Y-114095238D01*
X172630952Y-114000000D01*
X172773809Y-113952380D01*
X172869047Y-113952380D01*
X173011904Y-114000000D01*
X173059523Y-114047619D01*
X172488095Y-118452380D02*
X172488095Y-117452380D01*
X172726190Y-117452380D01*
X172869047Y-117500000D01*
X172964285Y-117595238D01*
X173011904Y-117690476D01*
X173059523Y-117880952D01*
X173059523Y-118023809D01*
X173011904Y-118214285D01*
X172964285Y-118309523D01*
X172869047Y-118404761D01*
X172726190Y-118452380D01*
X172488095Y-118452380D01*
X172535714Y-121428571D02*
X172869047Y-121428571D01*
X173011904Y-121952380D02*
X172535714Y-121952380D01*
X172535714Y-120952380D01*
X173011904Y-120952380D01*
X172011904Y-104452380D02*
X172011904Y-103452380D01*
X172250000Y-103452380D01*
X172392857Y-103500000D01*
X172488095Y-103595238D01*
X172535714Y-103690476D01*
X172583333Y-103880952D01*
X172583333Y-104023809D01*
X172535714Y-104214285D01*
X172488095Y-104309523D01*
X172392857Y-104404761D01*
X172250000Y-104452380D01*
X172011904Y-104452380D01*
X173488095Y-103452380D02*
X173011904Y-103452380D01*
X172964285Y-103928571D01*
X173011904Y-103880952D01*
X173107142Y-103833333D01*
X173345238Y-103833333D01*
X173440476Y-103880952D01*
X173488095Y-103928571D01*
X173535714Y-104023809D01*
X173535714Y-104261904D01*
X173488095Y-104357142D01*
X173440476Y-104404761D01*
X173345238Y-104452380D01*
X173107142Y-104452380D01*
X173011904Y-104404761D01*
X172964285Y-104357142D01*
X172011904Y-100952380D02*
X172011904Y-99952380D01*
X172250000Y-99952380D01*
X172392857Y-100000000D01*
X172488095Y-100095238D01*
X172535714Y-100190476D01*
X172583333Y-100380952D01*
X172583333Y-100523809D01*
X172535714Y-100714285D01*
X172488095Y-100809523D01*
X172392857Y-100904761D01*
X172250000Y-100952380D01*
X172011904Y-100952380D01*
X173440476Y-100285714D02*
X173440476Y-100952380D01*
X173202380Y-99904761D02*
X172964285Y-100619047D01*
X173583333Y-100619047D01*
X172011904Y-97452380D02*
X172011904Y-96452380D01*
X172250000Y-96452380D01*
X172392857Y-96500000D01*
X172488095Y-96595238D01*
X172535714Y-96690476D01*
X172583333Y-96880952D01*
X172583333Y-97023809D01*
X172535714Y-97214285D01*
X172488095Y-97309523D01*
X172392857Y-97404761D01*
X172250000Y-97452380D01*
X172011904Y-97452380D01*
X172916666Y-96452380D02*
X173535714Y-96452380D01*
X173202380Y-96833333D01*
X173345238Y-96833333D01*
X173440476Y-96880952D01*
X173488095Y-96928571D01*
X173535714Y-97023809D01*
X173535714Y-97261904D01*
X173488095Y-97357142D01*
X173440476Y-97404761D01*
X173345238Y-97452380D01*
X173059523Y-97452380D01*
X172964285Y-97404761D01*
X172916666Y-97357142D01*
X172011904Y-93952380D02*
X172011904Y-92952380D01*
X172250000Y-92952380D01*
X172392857Y-93000000D01*
X172488095Y-93095238D01*
X172535714Y-93190476D01*
X172583333Y-93380952D01*
X172583333Y-93523809D01*
X172535714Y-93714285D01*
X172488095Y-93809523D01*
X172392857Y-93904761D01*
X172250000Y-93952380D01*
X172011904Y-93952380D01*
X172964285Y-93047619D02*
X173011904Y-93000000D01*
X173107142Y-92952380D01*
X173345238Y-92952380D01*
X173440476Y-93000000D01*
X173488095Y-93047619D01*
X173535714Y-93142857D01*
X173535714Y-93238095D01*
X173488095Y-93380952D01*
X172916666Y-93952380D01*
X173535714Y-93952380D01*
X172011904Y-90452380D02*
X172011904Y-89452380D01*
X172250000Y-89452380D01*
X172392857Y-89500000D01*
X172488095Y-89595238D01*
X172535714Y-89690476D01*
X172583333Y-89880952D01*
X172583333Y-90023809D01*
X172535714Y-90214285D01*
X172488095Y-90309523D01*
X172392857Y-90404761D01*
X172250000Y-90452380D01*
X172011904Y-90452380D01*
X173535714Y-90452380D02*
X172964285Y-90452380D01*
X173250000Y-90452380D02*
X173250000Y-89452380D01*
X173154761Y-89595238D01*
X173059523Y-89690476D01*
X172964285Y-89738095D01*
X106807261Y-95452380D02*
X107426309Y-95452380D01*
X107092976Y-95833333D01*
X107235833Y-95833333D01*
X107331071Y-95880952D01*
X107378690Y-95928571D01*
X107426309Y-96023809D01*
X107426309Y-96261904D01*
X107378690Y-96357142D01*
X107331071Y-96404761D01*
X107235833Y-96452380D01*
X106950119Y-96452380D01*
X106854880Y-96404761D01*
X106807261Y-96357142D01*
X107854880Y-96357142D02*
X107902500Y-96404761D01*
X107854880Y-96452380D01*
X107807261Y-96404761D01*
X107854880Y-96357142D01*
X107854880Y-96452380D01*
X108235833Y-95452380D02*
X108854880Y-95452380D01*
X108521547Y-95833333D01*
X108664404Y-95833333D01*
X108759642Y-95880952D01*
X108807261Y-95928571D01*
X108854880Y-96023809D01*
X108854880Y-96261904D01*
X108807261Y-96357142D01*
X108759642Y-96404761D01*
X108664404Y-96452380D01*
X108378690Y-96452380D01*
X108283452Y-96404761D01*
X108235833Y-96357142D01*
X109140595Y-95452380D02*
X109473928Y-96452380D01*
X109807261Y-95452380D01*
X107616785Y-98040000D02*
X107521547Y-97992380D01*
X107378690Y-97992380D01*
X107235833Y-98040000D01*
X107140595Y-98135238D01*
X107092976Y-98230476D01*
X107045357Y-98420952D01*
X107045357Y-98563809D01*
X107092976Y-98754285D01*
X107140595Y-98849523D01*
X107235833Y-98944761D01*
X107378690Y-98992380D01*
X107473928Y-98992380D01*
X107616785Y-98944761D01*
X107664404Y-98897142D01*
X107664404Y-98563809D01*
X107473928Y-98563809D01*
X108092976Y-98992380D02*
X108092976Y-97992380D01*
X108664404Y-98992380D01*
X108664404Y-97992380D01*
X109140595Y-98992380D02*
X109140595Y-97992380D01*
X109378690Y-97992380D01*
X109521547Y-98040000D01*
X109616785Y-98135238D01*
X109664404Y-98230476D01*
X109712023Y-98420952D01*
X109712023Y-98563809D01*
X109664404Y-98754285D01*
X109616785Y-98849523D01*
X109521547Y-98944761D01*
X109378690Y-98992380D01*
X109140595Y-98992380D01*
X107616785Y-100580000D02*
X107521547Y-100532380D01*
X107378690Y-100532380D01*
X107235833Y-100580000D01*
X107140595Y-100675238D01*
X107092976Y-100770476D01*
X107045357Y-100960952D01*
X107045357Y-101103809D01*
X107092976Y-101294285D01*
X107140595Y-101389523D01*
X107235833Y-101484761D01*
X107378690Y-101532380D01*
X107473928Y-101532380D01*
X107616785Y-101484761D01*
X107664404Y-101437142D01*
X107664404Y-101103809D01*
X107473928Y-101103809D01*
X108092976Y-101532380D02*
X108092976Y-100532380D01*
X108664404Y-101532380D01*
X108664404Y-100532380D01*
X109140595Y-101532380D02*
X109140595Y-100532380D01*
X109378690Y-100532380D01*
X109521547Y-100580000D01*
X109616785Y-100675238D01*
X109664404Y-100770476D01*
X109712023Y-100960952D01*
X109712023Y-101103809D01*
X109664404Y-101294285D01*
X109616785Y-101389523D01*
X109521547Y-101484761D01*
X109378690Y-101532380D01*
X109140595Y-101532380D01*
X107616785Y-105660000D02*
X107521547Y-105612380D01*
X107378690Y-105612380D01*
X107235833Y-105660000D01*
X107140595Y-105755238D01*
X107092976Y-105850476D01*
X107045357Y-106040952D01*
X107045357Y-106183809D01*
X107092976Y-106374285D01*
X107140595Y-106469523D01*
X107235833Y-106564761D01*
X107378690Y-106612380D01*
X107473928Y-106612380D01*
X107616785Y-106564761D01*
X107664404Y-106517142D01*
X107664404Y-106183809D01*
X107473928Y-106183809D01*
X108092976Y-106612380D02*
X108092976Y-105612380D01*
X108664404Y-106612380D01*
X108664404Y-105612380D01*
X109140595Y-106612380D02*
X109140595Y-105612380D01*
X109378690Y-105612380D01*
X109521547Y-105660000D01*
X109616785Y-105755238D01*
X109664404Y-105850476D01*
X109712023Y-106040952D01*
X109712023Y-106183809D01*
X109664404Y-106374285D01*
X109616785Y-106469523D01*
X109521547Y-106564761D01*
X109378690Y-106612380D01*
X109140595Y-106612380D01*
X116875595Y-106612380D02*
X116875595Y-105612380D01*
X117447023Y-106612380D01*
X117447023Y-105612380D01*
X118494642Y-106612380D02*
X118161309Y-106136190D01*
X117923214Y-106612380D02*
X117923214Y-105612380D01*
X118304166Y-105612380D01*
X118399404Y-105660000D01*
X118447023Y-105707619D01*
X118494642Y-105802857D01*
X118494642Y-105945714D01*
X118447023Y-106040952D01*
X118399404Y-106088571D01*
X118304166Y-106136190D01*
X117923214Y-106136190D01*
X118875595Y-106564761D02*
X119018452Y-106612380D01*
X119256547Y-106612380D01*
X119351785Y-106564761D01*
X119399404Y-106517142D01*
X119447023Y-106421904D01*
X119447023Y-106326666D01*
X119399404Y-106231428D01*
X119351785Y-106183809D01*
X119256547Y-106136190D01*
X119066071Y-106088571D01*
X118970833Y-106040952D01*
X118923214Y-105993333D01*
X118875595Y-105898095D01*
X118875595Y-105802857D01*
X118923214Y-105707619D01*
X118970833Y-105660000D01*
X119066071Y-105612380D01*
X119304166Y-105612380D01*
X119447023Y-105660000D01*
X119732738Y-105612380D02*
X120304166Y-105612380D01*
X120018452Y-106612380D02*
X120018452Y-105612380D01*
X116827976Y-98944761D02*
X116970833Y-98992380D01*
X117208928Y-98992380D01*
X117304166Y-98944761D01*
X117351785Y-98897142D01*
X117399404Y-98801904D01*
X117399404Y-98706666D01*
X117351785Y-98611428D01*
X117304166Y-98563809D01*
X117208928Y-98516190D01*
X117018452Y-98468571D01*
X116923214Y-98420952D01*
X116875595Y-98373333D01*
X116827976Y-98278095D01*
X116827976Y-98182857D01*
X116875595Y-98087619D01*
X116923214Y-98040000D01*
X117018452Y-97992380D01*
X117256547Y-97992380D01*
X117399404Y-98040000D01*
X117732738Y-97992380D02*
X117970833Y-98992380D01*
X118161309Y-98278095D01*
X118351785Y-98992380D01*
X118589880Y-97992380D01*
X119542261Y-98897142D02*
X119494642Y-98944761D01*
X119351785Y-98992380D01*
X119256547Y-98992380D01*
X119113690Y-98944761D01*
X119018452Y-98849523D01*
X118970833Y-98754285D01*
X118923214Y-98563809D01*
X118923214Y-98420952D01*
X118970833Y-98230476D01*
X119018452Y-98135238D01*
X119113690Y-98040000D01*
X119256547Y-97992380D01*
X119351785Y-97992380D01*
X119494642Y-98040000D01*
X119542261Y-98087619D01*
X120447023Y-98992380D02*
X119970833Y-98992380D01*
X119970833Y-97992380D01*
X120780357Y-98992380D02*
X120780357Y-97992380D01*
X121351785Y-98992380D02*
X120923214Y-98420952D01*
X121351785Y-97992380D02*
X120780357Y-98563809D01*
X116827976Y-96404761D02*
X116970833Y-96452380D01*
X117208928Y-96452380D01*
X117304166Y-96404761D01*
X117351785Y-96357142D01*
X117399404Y-96261904D01*
X117399404Y-96166666D01*
X117351785Y-96071428D01*
X117304166Y-96023809D01*
X117208928Y-95976190D01*
X117018452Y-95928571D01*
X116923214Y-95880952D01*
X116875595Y-95833333D01*
X116827976Y-95738095D01*
X116827976Y-95642857D01*
X116875595Y-95547619D01*
X116923214Y-95500000D01*
X117018452Y-95452380D01*
X117256547Y-95452380D01*
X117399404Y-95500000D01*
X117732738Y-95452380D02*
X117970833Y-96452380D01*
X118161309Y-95738095D01*
X118351785Y-96452380D01*
X118589880Y-95452380D01*
X118970833Y-96452380D02*
X118970833Y-95452380D01*
X119208928Y-95452380D01*
X119351785Y-95500000D01*
X119447023Y-95595238D01*
X119494642Y-95690476D01*
X119542261Y-95880952D01*
X119542261Y-96023809D01*
X119494642Y-96214285D01*
X119447023Y-96309523D01*
X119351785Y-96404761D01*
X119208928Y-96452380D01*
X118970833Y-96452380D01*
X119970833Y-96452380D02*
X119970833Y-95452380D01*
X120637500Y-95452380D02*
X120827976Y-95452380D01*
X120923214Y-95500000D01*
X121018452Y-95595238D01*
X121066071Y-95785714D01*
X121066071Y-96119047D01*
X121018452Y-96309523D01*
X120923214Y-96404761D01*
X120827976Y-96452380D01*
X120637500Y-96452380D01*
X120542261Y-96404761D01*
X120447023Y-96309523D01*
X120399404Y-96119047D01*
X120399404Y-95785714D01*
X120447023Y-95595238D01*
X120542261Y-95500000D01*
X120637500Y-95452380D01*
X110583333Y-143928571D02*
X110250000Y-143928571D01*
X110250000Y-144452380D02*
X110250000Y-143452380D01*
X110726190Y-143452380D01*
X111107142Y-144452380D02*
X111107142Y-143452380D01*
X111440476Y-144166666D01*
X111773809Y-143452380D01*
X111773809Y-144452380D01*
X113583333Y-144357142D02*
X113535714Y-144404761D01*
X113392857Y-144452380D01*
X113297619Y-144452380D01*
X113154761Y-144404761D01*
X113059523Y-144309523D01*
X113011904Y-144214285D01*
X112964285Y-144023809D01*
X112964285Y-143880952D01*
X113011904Y-143690476D01*
X113059523Y-143595238D01*
X113154761Y-143500000D01*
X113297619Y-143452380D01*
X113392857Y-143452380D01*
X113535714Y-143500000D01*
X113583333Y-143547619D01*
X114011904Y-144452380D02*
X114011904Y-143452380D01*
X114011904Y-143928571D02*
X114583333Y-143928571D01*
X114583333Y-144452380D02*
X114583333Y-143452380D01*
X115011904Y-144166666D02*
X115488095Y-144166666D01*
X114916666Y-144452380D02*
X115250000Y-143452380D01*
X115583333Y-144452380D01*
X115916666Y-144452380D02*
X115916666Y-143452380D01*
X116488095Y-144452380D01*
X116488095Y-143452380D01*
X116964285Y-144452380D02*
X116964285Y-143452380D01*
X117535714Y-144452380D01*
X117535714Y-143452380D01*
X118011904Y-143928571D02*
X118345238Y-143928571D01*
X118488095Y-144452380D02*
X118011904Y-144452380D01*
X118011904Y-143452380D01*
X118488095Y-143452380D01*
X119392857Y-144452380D02*
X118916666Y-144452380D01*
X118916666Y-143452380D01*
X94154761Y-144166666D02*
X94630952Y-144166666D01*
X94059523Y-144452380D02*
X94392857Y-143452380D01*
X94726190Y-144452380D01*
X95059523Y-144452380D02*
X95059523Y-143452380D01*
X95392857Y-144166666D01*
X95726190Y-143452380D01*
X95726190Y-144452380D01*
X97678571Y-143404761D02*
X96821428Y-144690476D01*
X99107142Y-143928571D02*
X98773809Y-143928571D01*
X98773809Y-144452380D02*
X98773809Y-143452380D01*
X99250000Y-143452380D01*
X99630952Y-144452380D02*
X99630952Y-143452380D01*
X99964285Y-144166666D01*
X100297619Y-143452380D01*
X100297619Y-144452380D01*
X110409047Y-79571428D02*
X111170952Y-79571428D01*
X113170952Y-79285714D02*
X112409047Y-79571428D01*
X113170952Y-79857142D01*
X113647142Y-79571428D02*
X114409047Y-79571428D01*
X117170952Y-79571428D02*
X117932857Y-79571428D01*
X118409047Y-79285714D02*
X119170952Y-79571428D01*
X118409047Y-79857142D01*
X120409047Y-79571428D02*
X121170952Y-79571428D01*
X120790000Y-79952380D02*
X120790000Y-79190476D01*
X152107142Y-77928571D02*
X151773809Y-77928571D01*
X151773809Y-78452380D02*
X151773809Y-77452380D01*
X152250000Y-77452380D01*
X152630952Y-78452380D02*
X152630952Y-77452380D01*
X152964285Y-78166666D01*
X153297619Y-77452380D01*
X153297619Y-78452380D01*
X154869047Y-77928571D02*
X154535714Y-77928571D01*
X154535714Y-78452380D02*
X154535714Y-77452380D01*
X155011904Y-77452380D01*
X155964285Y-78452380D02*
X155630952Y-77976190D01*
X155392857Y-78452380D02*
X155392857Y-77452380D01*
X155773809Y-77452380D01*
X155869047Y-77500000D01*
X155916666Y-77547619D01*
X155964285Y-77642857D01*
X155964285Y-77785714D01*
X155916666Y-77880952D01*
X155869047Y-77928571D01*
X155773809Y-77976190D01*
X155392857Y-77976190D01*
X156392857Y-77928571D02*
X156726190Y-77928571D01*
X156869047Y-78452380D02*
X156392857Y-78452380D01*
X156392857Y-77452380D01*
X156869047Y-77452380D01*
X157964285Y-78547619D02*
X157869047Y-78500000D01*
X157773809Y-78404761D01*
X157630952Y-78261904D01*
X157535714Y-78214285D01*
X157440476Y-78214285D01*
X157488095Y-78452380D02*
X157392857Y-78404761D01*
X157297619Y-78309523D01*
X157250000Y-78119047D01*
X157250000Y-77785714D01*
X157297619Y-77595238D01*
X157392857Y-77500000D01*
X157488095Y-77452380D01*
X157678571Y-77452380D01*
X157773809Y-77500000D01*
X157869047Y-77595238D01*
X157916666Y-77785714D01*
X157916666Y-78119047D01*
X157869047Y-78309523D01*
X157773809Y-78404761D01*
X157678571Y-78452380D01*
X157488095Y-78452380D01*
X158345238Y-77452380D02*
X158345238Y-78261904D01*
X158392857Y-78357142D01*
X158440476Y-78404761D01*
X158535714Y-78452380D01*
X158726190Y-78452380D01*
X158821428Y-78404761D01*
X158869047Y-78357142D01*
X158916666Y-78261904D01*
X158916666Y-77452380D01*
X159392857Y-77928571D02*
X159726190Y-77928571D01*
X159869047Y-78452380D02*
X159392857Y-78452380D01*
X159392857Y-77452380D01*
X159869047Y-77452380D01*
X160297619Y-78452380D02*
X160297619Y-77452380D01*
X160869047Y-78452380D01*
X160869047Y-77452380D01*
X161916666Y-78357142D02*
X161869047Y-78404761D01*
X161726190Y-78452380D01*
X161630952Y-78452380D01*
X161488095Y-78404761D01*
X161392857Y-78309523D01*
X161345238Y-78214285D01*
X161297619Y-78023809D01*
X161297619Y-77880952D01*
X161345238Y-77690476D01*
X161392857Y-77595238D01*
X161488095Y-77500000D01*
X161630952Y-77452380D01*
X161726190Y-77452380D01*
X161869047Y-77500000D01*
X161916666Y-77547619D01*
X162535714Y-77976190D02*
X162535714Y-78452380D01*
X162202380Y-77452380D02*
X162535714Y-77976190D01*
X162869047Y-77452380D01*
X131726190Y-78166666D02*
X132202380Y-78166666D01*
X131630952Y-78452380D02*
X131964285Y-77452380D01*
X132297619Y-78452380D01*
X132630952Y-78452380D02*
X132630952Y-77452380D01*
X132964285Y-78166666D01*
X133297619Y-77452380D01*
X133297619Y-78452380D01*
X134869047Y-77928571D02*
X134535714Y-77928571D01*
X134535714Y-78452380D02*
X134535714Y-77452380D01*
X135011904Y-77452380D01*
X135964285Y-78452380D02*
X135630952Y-77976190D01*
X135392857Y-78452380D02*
X135392857Y-77452380D01*
X135773809Y-77452380D01*
X135869047Y-77500000D01*
X135916666Y-77547619D01*
X135964285Y-77642857D01*
X135964285Y-77785714D01*
X135916666Y-77880952D01*
X135869047Y-77928571D01*
X135773809Y-77976190D01*
X135392857Y-77976190D01*
X136392857Y-77928571D02*
X136726190Y-77928571D01*
X136869047Y-78452380D02*
X136392857Y-78452380D01*
X136392857Y-77452380D01*
X136869047Y-77452380D01*
X137964285Y-78547619D02*
X137869047Y-78500000D01*
X137773809Y-78404761D01*
X137630952Y-78261904D01*
X137535714Y-78214285D01*
X137440476Y-78214285D01*
X137488095Y-78452380D02*
X137392857Y-78404761D01*
X137297619Y-78309523D01*
X137250000Y-78119047D01*
X137250000Y-77785714D01*
X137297619Y-77595238D01*
X137392857Y-77500000D01*
X137488095Y-77452380D01*
X137678571Y-77452380D01*
X137773809Y-77500000D01*
X137869047Y-77595238D01*
X137916666Y-77785714D01*
X137916666Y-78119047D01*
X137869047Y-78309523D01*
X137773809Y-78404761D01*
X137678571Y-78452380D01*
X137488095Y-78452380D01*
X138345238Y-77452380D02*
X138345238Y-78261904D01*
X138392857Y-78357142D01*
X138440476Y-78404761D01*
X138535714Y-78452380D01*
X138726190Y-78452380D01*
X138821428Y-78404761D01*
X138869047Y-78357142D01*
X138916666Y-78261904D01*
X138916666Y-77452380D01*
X139392857Y-77928571D02*
X139726190Y-77928571D01*
X139869047Y-78452380D02*
X139392857Y-78452380D01*
X139392857Y-77452380D01*
X139869047Y-77452380D01*
X140297619Y-78452380D02*
X140297619Y-77452380D01*
X140869047Y-78452380D01*
X140869047Y-77452380D01*
X141916666Y-78357142D02*
X141869047Y-78404761D01*
X141726190Y-78452380D01*
X141630952Y-78452380D01*
X141488095Y-78404761D01*
X141392857Y-78309523D01*
X141345238Y-78214285D01*
X141297619Y-78023809D01*
X141297619Y-77880952D01*
X141345238Y-77690476D01*
X141392857Y-77595238D01*
X141488095Y-77500000D01*
X141630952Y-77452380D01*
X141726190Y-77452380D01*
X141869047Y-77500000D01*
X141916666Y-77547619D01*
X142535714Y-77976190D02*
X142535714Y-78452380D01*
X142202380Y-77452380D02*
X142535714Y-77976190D01*
X142869047Y-77452380D01*
X107028095Y-77928571D02*
X106694761Y-77928571D01*
X106694761Y-78452380D02*
X106694761Y-77452380D01*
X107170952Y-77452380D01*
X108123333Y-78452380D02*
X107790000Y-77976190D01*
X107551904Y-78452380D02*
X107551904Y-77452380D01*
X107932857Y-77452380D01*
X108028095Y-77500000D01*
X108075714Y-77547619D01*
X108123333Y-77642857D01*
X108123333Y-77785714D01*
X108075714Y-77880952D01*
X108028095Y-77928571D01*
X107932857Y-77976190D01*
X107551904Y-77976190D01*
X108551904Y-77928571D02*
X108885238Y-77928571D01*
X109028095Y-78452380D02*
X108551904Y-78452380D01*
X108551904Y-77452380D01*
X109028095Y-77452380D01*
X110123333Y-78547619D02*
X110028095Y-78500000D01*
X109932857Y-78404761D01*
X109790000Y-78261904D01*
X109694761Y-78214285D01*
X109599523Y-78214285D01*
X109647142Y-78452380D02*
X109551904Y-78404761D01*
X109456666Y-78309523D01*
X109409047Y-78119047D01*
X109409047Y-77785714D01*
X109456666Y-77595238D01*
X109551904Y-77500000D01*
X109647142Y-77452380D01*
X109837619Y-77452380D01*
X109932857Y-77500000D01*
X110028095Y-77595238D01*
X110075714Y-77785714D01*
X110075714Y-78119047D01*
X110028095Y-78309523D01*
X109932857Y-78404761D01*
X109837619Y-78452380D01*
X109647142Y-78452380D01*
X110504285Y-77452380D02*
X110504285Y-78261904D01*
X110551904Y-78357142D01*
X110599523Y-78404761D01*
X110694761Y-78452380D01*
X110885238Y-78452380D01*
X110980476Y-78404761D01*
X111028095Y-78357142D01*
X111075714Y-78261904D01*
X111075714Y-77452380D01*
X111551904Y-77928571D02*
X111885238Y-77928571D01*
X112028095Y-78452380D02*
X111551904Y-78452380D01*
X111551904Y-77452380D01*
X112028095Y-77452380D01*
X112456666Y-78452380D02*
X112456666Y-77452380D01*
X113028095Y-78452380D01*
X113028095Y-77452380D01*
X114075714Y-78357142D02*
X114028095Y-78404761D01*
X113885238Y-78452380D01*
X113790000Y-78452380D01*
X113647142Y-78404761D01*
X113551904Y-78309523D01*
X113504285Y-78214285D01*
X113456666Y-78023809D01*
X113456666Y-77880952D01*
X113504285Y-77690476D01*
X113551904Y-77595238D01*
X113647142Y-77500000D01*
X113790000Y-77452380D01*
X113885238Y-77452380D01*
X114028095Y-77500000D01*
X114075714Y-77547619D01*
X114694761Y-77976190D02*
X114694761Y-78452380D01*
X114361428Y-77452380D02*
X114694761Y-77976190D01*
X115028095Y-77452380D01*
X116075714Y-78166666D02*
X116551904Y-78166666D01*
X115980476Y-78452380D02*
X116313809Y-77452380D01*
X116647142Y-78452380D01*
X116980476Y-78452380D02*
X116980476Y-77452380D01*
X117218571Y-77452380D01*
X117361428Y-77500000D01*
X117456666Y-77595238D01*
X117504285Y-77690476D01*
X117551904Y-77880952D01*
X117551904Y-78023809D01*
X117504285Y-78214285D01*
X117456666Y-78309523D01*
X117361428Y-78404761D01*
X117218571Y-78452380D01*
X116980476Y-78452380D01*
X118266190Y-77452380D02*
X118266190Y-78166666D01*
X118218571Y-78309523D01*
X118123333Y-78404761D01*
X117980476Y-78452380D01*
X117885238Y-78452380D01*
X118742380Y-77452380D02*
X118742380Y-78261904D01*
X118790000Y-78357142D01*
X118837619Y-78404761D01*
X118932857Y-78452380D01*
X119123333Y-78452380D01*
X119218571Y-78404761D01*
X119266190Y-78357142D01*
X119313809Y-78261904D01*
X119313809Y-77452380D01*
X119742380Y-78404761D02*
X119885238Y-78452380D01*
X120123333Y-78452380D01*
X120218571Y-78404761D01*
X120266190Y-78357142D01*
X120313809Y-78261904D01*
X120313809Y-78166666D01*
X120266190Y-78071428D01*
X120218571Y-78023809D01*
X120123333Y-77976190D01*
X119932857Y-77928571D01*
X119837619Y-77880952D01*
X119790000Y-77833333D01*
X119742380Y-77738095D01*
X119742380Y-77642857D01*
X119790000Y-77547619D01*
X119837619Y-77500000D01*
X119932857Y-77452380D01*
X120170952Y-77452380D01*
X120313809Y-77500000D01*
X120599523Y-77452380D02*
X121170952Y-77452380D01*
X120885238Y-78452380D02*
X120885238Y-77452380D01*
X121504285Y-78452380D02*
X121504285Y-77452380D01*
X121837619Y-78166666D01*
X122170952Y-77452380D01*
X122170952Y-78452380D01*
X122647142Y-77928571D02*
X122980476Y-77928571D01*
X123123333Y-78452380D02*
X122647142Y-78452380D01*
X122647142Y-77452380D01*
X123123333Y-77452380D01*
X123551904Y-78452380D02*
X123551904Y-77452380D01*
X124123333Y-78452380D01*
X124123333Y-77452380D01*
X124456666Y-77452380D02*
X125028095Y-77452380D01*
X124742380Y-78452380D02*
X124742380Y-77452380D01*
D11*
X164440000Y-132000000D02*
X161770000Y-132000000D01*
X167060000Y-132000000D02*
G75*
G03*
X167060000Y-132000000I-1310000J0D01*
G01*
X164440000Y-128500000D02*
X161770000Y-128500000D01*
X167060000Y-128500000D02*
G75*
G03*
X167060000Y-128500000I-1310000J0D01*
G01*
X164440000Y-125000000D02*
X161770000Y-125000000D01*
X167060000Y-125000000D02*
G75*
G03*
X167060000Y-125000000I-1310000J0D01*
G01*
X164440000Y-121500000D02*
X161770000Y-121500000D01*
X167060000Y-121500000D02*
G75*
G03*
X167060000Y-121500000I-1310000J0D01*
G01*
X164440000Y-118000000D02*
X161770000Y-118000000D01*
X167060000Y-118000000D02*
G75*
G03*
X167060000Y-118000000I-1310000J0D01*
G01*
X164440000Y-114500000D02*
X161770000Y-114500000D01*
X167060000Y-114500000D02*
G75*
G03*
X167060000Y-114500000I-1310000J0D01*
G01*
X164440000Y-111000000D02*
X161770000Y-111000000D01*
X167060000Y-111000000D02*
G75*
G03*
X167060000Y-111000000I-1310000J0D01*
G01*
X164440000Y-107500000D02*
X161770000Y-107500000D01*
X167060000Y-107500000D02*
G75*
G03*
X167060000Y-107500000I-1310000J0D01*
G01*
X85820000Y-105500000D02*
X85820000Y-107500000D01*
X83680000Y-107500000D02*
X83680000Y-105500000D01*
X85820000Y-100500000D02*
X85820000Y-102500000D01*
X83680000Y-102500000D02*
X83680000Y-100500000D01*
X134430000Y-122000000D02*
X134430000Y-123000000D01*
X133070000Y-123000000D02*
X133070000Y-122000000D01*
X140750000Y-98600000D02*
X141750000Y-98600000D01*
X141750000Y-96900000D02*
X140750000Y-96900000D01*
X96530000Y-114180000D02*
X95430000Y-114180000D01*
X96530000Y-114450000D02*
X96530000Y-114180000D01*
X98030000Y-114450000D02*
X96530000Y-114450000D01*
X96530000Y-107820000D02*
X93700000Y-107820000D01*
X96530000Y-107550000D02*
X96530000Y-107820000D01*
X98030000Y-107550000D02*
X96530000Y-107550000D01*
X96530000Y-94180000D02*
X95430000Y-94180000D01*
X96530000Y-94450000D02*
X96530000Y-94180000D01*
X98030000Y-94450000D02*
X96530000Y-94450000D01*
X96530000Y-87820000D02*
X93700000Y-87820000D01*
X96530000Y-87550000D02*
X96530000Y-87820000D01*
X98030000Y-87550000D02*
X96530000Y-87550000D01*
X90620000Y-89600000D02*
X90620000Y-88400000D01*
X92380000Y-88400000D02*
X92380000Y-89600000D01*
X90620000Y-93600000D02*
X90620000Y-92400000D01*
X92380000Y-92400000D02*
X92380000Y-93600000D01*
X90620000Y-109600000D02*
X90620000Y-108400000D01*
X92380000Y-108400000D02*
X92380000Y-109600000D01*
X90620000Y-113600000D02*
X90620000Y-112400000D01*
X92380000Y-112400000D02*
X92380000Y-113600000D01*
X103250000Y-94980000D02*
X101250000Y-94980000D01*
X101250000Y-97020000D02*
X103250000Y-97020000D01*
X103250000Y-114980000D02*
X101250000Y-114980000D01*
X101250000Y-117020000D02*
X103250000Y-117020000D01*
X94750000Y-97020000D02*
X96750000Y-97020000D01*
X96750000Y-94980000D02*
X94750000Y-94980000D01*
X94750000Y-117020000D02*
X96750000Y-117020000D01*
X96750000Y-114980000D02*
X94750000Y-114980000D01*
D10*
X144125000Y-121220000D02*
X142300000Y-121220000D01*
X144125000Y-132870000D02*
X151875000Y-132870000D01*
X144125000Y-120970000D02*
X151875000Y-120970000D01*
X144125000Y-132870000D02*
X144125000Y-132525000D01*
X151875000Y-132870000D02*
X151875000Y-132525000D01*
X151875000Y-120970000D02*
X151875000Y-121315000D01*
X144125000Y-120970000D02*
X144125000Y-121220000D01*
X144125000Y-106880000D02*
X142300000Y-106880000D01*
X144125000Y-118530000D02*
X151875000Y-118530000D01*
X144125000Y-106630000D02*
X151875000Y-106630000D01*
X144125000Y-118530000D02*
X144125000Y-118185000D01*
X151875000Y-118530000D02*
X151875000Y-118185000D01*
X151875000Y-106630000D02*
X151875000Y-106975000D01*
X144125000Y-106630000D02*
X144125000Y-106880000D01*
D11*
X129350000Y-120500000D02*
X129350000Y-124500000D01*
X132650000Y-120500000D02*
X129350000Y-120500000D01*
D10*
X124075000Y-114625000D02*
X124075000Y-116000000D01*
X123625000Y-107375000D02*
X123625000Y-107900000D01*
X130875000Y-107375000D02*
X130875000Y-107900000D01*
X130875000Y-114625000D02*
X130875000Y-114100000D01*
X123625000Y-114625000D02*
X123625000Y-114100000D01*
X130875000Y-114625000D02*
X130350000Y-114625000D01*
X130875000Y-107375000D02*
X130350000Y-107375000D01*
X123625000Y-107375000D02*
X124150000Y-107375000D01*
X123625000Y-114625000D02*
X124075000Y-114625000D01*
D11*
X143150000Y-88600000D02*
X143150000Y-91400000D01*
X143150000Y-91400000D02*
X158730000Y-91400000D01*
X158730000Y-91400000D02*
X158730000Y-88600000D01*
X158730000Y-88600000D02*
X143150000Y-88600000D01*
X145860000Y-88600000D02*
X145860000Y-91400000D01*
X111559000Y-82975000D02*
X113171000Y-81365000D01*
X111419000Y-82834000D02*
X113030000Y-81224000D01*
X110965000Y-85720000D02*
X110965000Y-80769000D01*
X120615000Y-85720000D02*
X120615000Y-80769000D01*
X120615000Y-80769000D02*
X110965000Y-80769000D01*
X120615000Y-85720000D02*
X110965000Y-85720000D01*
X112335309Y-83254296D02*
G75*
G02*
X112295000Y-80945000I-40309J1154296D01*
G01*
X112274879Y-80945948D02*
G75*
G02*
X113424000Y-82340000I20121J-1154052D01*
G01*
X141850000Y-95130000D02*
X140650000Y-95130000D01*
X140650000Y-93370000D02*
X141850000Y-93370000D01*
X133400000Y-93370000D02*
X134600000Y-93370000D01*
X134600000Y-95130000D02*
X133400000Y-95130000D01*
X146100000Y-98630000D02*
X144900000Y-98630000D01*
X144900000Y-96870000D02*
X146100000Y-96870000D01*
X95350000Y-133880000D02*
X94150000Y-133880000D01*
X94150000Y-132120000D02*
X95350000Y-132120000D01*
X144740000Y-92670000D02*
X144740000Y-93600000D01*
X144740000Y-95830000D02*
X144740000Y-94900000D01*
X144740000Y-95830000D02*
X146900000Y-95830000D01*
X144740000Y-92670000D02*
X146200000Y-92670000D01*
X129420000Y-91510000D02*
X130350000Y-91510000D01*
X132580000Y-91510000D02*
X131650000Y-91510000D01*
X132580000Y-91510000D02*
X132580000Y-89350000D01*
X129420000Y-91510000D02*
X129420000Y-90050000D01*
X110670000Y-94670000D02*
X112000000Y-94670000D01*
X110670000Y-96000000D02*
X110670000Y-94670000D01*
X113270000Y-94670000D02*
X115870000Y-94670000D01*
X113270000Y-97270000D02*
X113270000Y-94670000D01*
X110670000Y-97270000D02*
X113270000Y-97270000D01*
X115870000Y-94670000D02*
X115870000Y-107490000D01*
X110670000Y-97270000D02*
X110670000Y-107490000D01*
X110670000Y-107490000D02*
X115870000Y-107490000D01*
X125500000Y-116650000D02*
X124500000Y-116650000D01*
X124500000Y-118350000D02*
X125500000Y-118350000D01*
X124500000Y-120350000D02*
X125500000Y-120350000D01*
X125500000Y-118650000D02*
X124500000Y-118650000D01*
X130500000Y-93400000D02*
X129500000Y-93400000D01*
X129500000Y-95100000D02*
X130500000Y-95100000D01*
X148820000Y-93750000D02*
X148820000Y-94750000D01*
X150520000Y-94750000D02*
X150520000Y-93750000D01*
X133900000Y-85000000D02*
X133900000Y-86000000D01*
X135600000Y-86000000D02*
X135600000Y-85000000D01*
X131500000Y-124900000D02*
X130500000Y-124900000D01*
X130500000Y-126600000D02*
X131500000Y-126600000D01*
X153060000Y-94750000D02*
X153060000Y-93750000D01*
X151360000Y-93750000D02*
X151360000Y-94750000D01*
X127150000Y-122000000D02*
X127150000Y-123000000D01*
X128850000Y-123000000D02*
X128850000Y-122000000D01*
X158140000Y-94750000D02*
X158140000Y-93750000D01*
X156440000Y-93750000D02*
X156440000Y-94750000D01*
X153900000Y-85000000D02*
X153900000Y-86000000D01*
X155600000Y-86000000D02*
X155600000Y-85000000D01*
X133870000Y-91350000D02*
X133870000Y-90150000D01*
X135630000Y-90150000D02*
X135630000Y-91350000D01*
X98870000Y-137100000D02*
X98870000Y-135900000D01*
X100630000Y-135900000D02*
X100630000Y-137100000D01*
X93170000Y-137260000D02*
X93170000Y-135800000D01*
X96330000Y-137260000D02*
X96330000Y-135100000D01*
X96330000Y-137260000D02*
X95400000Y-137260000D01*
X93170000Y-137260000D02*
X94100000Y-137260000D01*
X109150000Y-132120000D02*
X110350000Y-132120000D01*
X110350000Y-133880000D02*
X109150000Y-133880000D01*
X113870000Y-137100000D02*
X113870000Y-135900000D01*
X115630000Y-135900000D02*
X115630000Y-137100000D01*
X108170000Y-137260000D02*
X109100000Y-137260000D01*
X111330000Y-137260000D02*
X110400000Y-137260000D01*
X111330000Y-137260000D02*
X111330000Y-135100000D01*
X108170000Y-137260000D02*
X108170000Y-135800000D01*
X120630000Y-135900000D02*
X120630000Y-137100000D01*
X118870000Y-137100000D02*
X118870000Y-135900000D01*
X119150000Y-128120000D02*
X120350000Y-128120000D01*
X120350000Y-129880000D02*
X119150000Y-129880000D01*
X118170000Y-133010000D02*
X119100000Y-133010000D01*
X121330000Y-133010000D02*
X120400000Y-133010000D01*
X121330000Y-133010000D02*
X121330000Y-130850000D01*
X118170000Y-133010000D02*
X118170000Y-131550000D01*
D10*
X157057261Y-132452380D02*
X156723928Y-131976190D01*
X156485833Y-132452380D02*
X156485833Y-131452380D01*
X156866785Y-131452380D01*
X156962023Y-131500000D01*
X157009642Y-131547619D01*
X157057261Y-131642857D01*
X157057261Y-131785714D01*
X157009642Y-131880952D01*
X156962023Y-131928571D01*
X156866785Y-131976190D01*
X156485833Y-131976190D01*
X157390595Y-131452380D02*
X158009642Y-131452380D01*
X157676309Y-131833333D01*
X157819166Y-131833333D01*
X157914404Y-131880952D01*
X157962023Y-131928571D01*
X158009642Y-132023809D01*
X158009642Y-132261904D01*
X157962023Y-132357142D01*
X157914404Y-132404761D01*
X157819166Y-132452380D01*
X157533452Y-132452380D01*
X157438214Y-132404761D01*
X157390595Y-132357142D01*
X158342976Y-131452380D02*
X159009642Y-131452380D01*
X158581071Y-132452380D01*
X157057261Y-128952380D02*
X156723928Y-128476190D01*
X156485833Y-128952380D02*
X156485833Y-127952380D01*
X156866785Y-127952380D01*
X156962023Y-128000000D01*
X157009642Y-128047619D01*
X157057261Y-128142857D01*
X157057261Y-128285714D01*
X157009642Y-128380952D01*
X156962023Y-128428571D01*
X156866785Y-128476190D01*
X156485833Y-128476190D01*
X157390595Y-127952380D02*
X158009642Y-127952380D01*
X157676309Y-128333333D01*
X157819166Y-128333333D01*
X157914404Y-128380952D01*
X157962023Y-128428571D01*
X158009642Y-128523809D01*
X158009642Y-128761904D01*
X157962023Y-128857142D01*
X157914404Y-128904761D01*
X157819166Y-128952380D01*
X157533452Y-128952380D01*
X157438214Y-128904761D01*
X157390595Y-128857142D01*
X158866785Y-127952380D02*
X158676309Y-127952380D01*
X158581071Y-128000000D01*
X158533452Y-128047619D01*
X158438214Y-128190476D01*
X158390595Y-128380952D01*
X158390595Y-128761904D01*
X158438214Y-128857142D01*
X158485833Y-128904761D01*
X158581071Y-128952380D01*
X158771547Y-128952380D01*
X158866785Y-128904761D01*
X158914404Y-128857142D01*
X158962023Y-128761904D01*
X158962023Y-128523809D01*
X158914404Y-128428571D01*
X158866785Y-128380952D01*
X158771547Y-128333333D01*
X158581071Y-128333333D01*
X158485833Y-128380952D01*
X158438214Y-128428571D01*
X158390595Y-128523809D01*
X157057261Y-125452380D02*
X156723928Y-124976190D01*
X156485833Y-125452380D02*
X156485833Y-124452380D01*
X156866785Y-124452380D01*
X156962023Y-124500000D01*
X157009642Y-124547619D01*
X157057261Y-124642857D01*
X157057261Y-124785714D01*
X157009642Y-124880952D01*
X156962023Y-124928571D01*
X156866785Y-124976190D01*
X156485833Y-124976190D01*
X157390595Y-124452380D02*
X158009642Y-124452380D01*
X157676309Y-124833333D01*
X157819166Y-124833333D01*
X157914404Y-124880952D01*
X157962023Y-124928571D01*
X158009642Y-125023809D01*
X158009642Y-125261904D01*
X157962023Y-125357142D01*
X157914404Y-125404761D01*
X157819166Y-125452380D01*
X157533452Y-125452380D01*
X157438214Y-125404761D01*
X157390595Y-125357142D01*
X158914404Y-124452380D02*
X158438214Y-124452380D01*
X158390595Y-124928571D01*
X158438214Y-124880952D01*
X158533452Y-124833333D01*
X158771547Y-124833333D01*
X158866785Y-124880952D01*
X158914404Y-124928571D01*
X158962023Y-125023809D01*
X158962023Y-125261904D01*
X158914404Y-125357142D01*
X158866785Y-125404761D01*
X158771547Y-125452380D01*
X158533452Y-125452380D01*
X158438214Y-125404761D01*
X158390595Y-125357142D01*
X157057261Y-121952380D02*
X156723928Y-121476190D01*
X156485833Y-121952380D02*
X156485833Y-120952380D01*
X156866785Y-120952380D01*
X156962023Y-121000000D01*
X157009642Y-121047619D01*
X157057261Y-121142857D01*
X157057261Y-121285714D01*
X157009642Y-121380952D01*
X156962023Y-121428571D01*
X156866785Y-121476190D01*
X156485833Y-121476190D01*
X157390595Y-120952380D02*
X158009642Y-120952380D01*
X157676309Y-121333333D01*
X157819166Y-121333333D01*
X157914404Y-121380952D01*
X157962023Y-121428571D01*
X158009642Y-121523809D01*
X158009642Y-121761904D01*
X157962023Y-121857142D01*
X157914404Y-121904761D01*
X157819166Y-121952380D01*
X157533452Y-121952380D01*
X157438214Y-121904761D01*
X157390595Y-121857142D01*
X158866785Y-121285714D02*
X158866785Y-121952380D01*
X158628690Y-120904761D02*
X158390595Y-121619047D01*
X159009642Y-121619047D01*
X157057261Y-118452380D02*
X156723928Y-117976190D01*
X156485833Y-118452380D02*
X156485833Y-117452380D01*
X156866785Y-117452380D01*
X156962023Y-117500000D01*
X157009642Y-117547619D01*
X157057261Y-117642857D01*
X157057261Y-117785714D01*
X157009642Y-117880952D01*
X156962023Y-117928571D01*
X156866785Y-117976190D01*
X156485833Y-117976190D01*
X157390595Y-117452380D02*
X158009642Y-117452380D01*
X157676309Y-117833333D01*
X157819166Y-117833333D01*
X157914404Y-117880952D01*
X157962023Y-117928571D01*
X158009642Y-118023809D01*
X158009642Y-118261904D01*
X157962023Y-118357142D01*
X157914404Y-118404761D01*
X157819166Y-118452380D01*
X157533452Y-118452380D01*
X157438214Y-118404761D01*
X157390595Y-118357142D01*
X158342976Y-117452380D02*
X158962023Y-117452380D01*
X158628690Y-117833333D01*
X158771547Y-117833333D01*
X158866785Y-117880952D01*
X158914404Y-117928571D01*
X158962023Y-118023809D01*
X158962023Y-118261904D01*
X158914404Y-118357142D01*
X158866785Y-118404761D01*
X158771547Y-118452380D01*
X158485833Y-118452380D01*
X158390595Y-118404761D01*
X158342976Y-118357142D01*
X157057261Y-114702380D02*
X156723928Y-114226190D01*
X156485833Y-114702380D02*
X156485833Y-113702380D01*
X156866785Y-113702380D01*
X156962023Y-113750000D01*
X157009642Y-113797619D01*
X157057261Y-113892857D01*
X157057261Y-114035714D01*
X157009642Y-114130952D01*
X156962023Y-114178571D01*
X156866785Y-114226190D01*
X156485833Y-114226190D01*
X157390595Y-113702380D02*
X158009642Y-113702380D01*
X157676309Y-114083333D01*
X157819166Y-114083333D01*
X157914404Y-114130952D01*
X157962023Y-114178571D01*
X158009642Y-114273809D01*
X158009642Y-114511904D01*
X157962023Y-114607142D01*
X157914404Y-114654761D01*
X157819166Y-114702380D01*
X157533452Y-114702380D01*
X157438214Y-114654761D01*
X157390595Y-114607142D01*
X158390595Y-113797619D02*
X158438214Y-113750000D01*
X158533452Y-113702380D01*
X158771547Y-113702380D01*
X158866785Y-113750000D01*
X158914404Y-113797619D01*
X158962023Y-113892857D01*
X158962023Y-113988095D01*
X158914404Y-114130952D01*
X158342976Y-114702380D01*
X158962023Y-114702380D01*
X157057261Y-111452380D02*
X156723928Y-110976190D01*
X156485833Y-111452380D02*
X156485833Y-110452380D01*
X156866785Y-110452380D01*
X156962023Y-110500000D01*
X157009642Y-110547619D01*
X157057261Y-110642857D01*
X157057261Y-110785714D01*
X157009642Y-110880952D01*
X156962023Y-110928571D01*
X156866785Y-110976190D01*
X156485833Y-110976190D01*
X157390595Y-110452380D02*
X158009642Y-110452380D01*
X157676309Y-110833333D01*
X157819166Y-110833333D01*
X157914404Y-110880952D01*
X157962023Y-110928571D01*
X158009642Y-111023809D01*
X158009642Y-111261904D01*
X157962023Y-111357142D01*
X157914404Y-111404761D01*
X157819166Y-111452380D01*
X157533452Y-111452380D01*
X157438214Y-111404761D01*
X157390595Y-111357142D01*
X158962023Y-111452380D02*
X158390595Y-111452380D01*
X158676309Y-111452380D02*
X158676309Y-110452380D01*
X158581071Y-110595238D01*
X158485833Y-110690476D01*
X158390595Y-110738095D01*
X157057261Y-107952380D02*
X156723928Y-107476190D01*
X156485833Y-107952380D02*
X156485833Y-106952380D01*
X156866785Y-106952380D01*
X156962023Y-107000000D01*
X157009642Y-107047619D01*
X157057261Y-107142857D01*
X157057261Y-107285714D01*
X157009642Y-107380952D01*
X156962023Y-107428571D01*
X156866785Y-107476190D01*
X156485833Y-107476190D01*
X157390595Y-106952380D02*
X158009642Y-106952380D01*
X157676309Y-107333333D01*
X157819166Y-107333333D01*
X157914404Y-107380952D01*
X157962023Y-107428571D01*
X158009642Y-107523809D01*
X158009642Y-107761904D01*
X157962023Y-107857142D01*
X157914404Y-107904761D01*
X157819166Y-107952380D01*
X157533452Y-107952380D01*
X157438214Y-107904761D01*
X157390595Y-107857142D01*
X158628690Y-106952380D02*
X158723928Y-106952380D01*
X158819166Y-107000000D01*
X158866785Y-107047619D01*
X158914404Y-107142857D01*
X158962023Y-107333333D01*
X158962023Y-107571428D01*
X158914404Y-107761904D01*
X158866785Y-107857142D01*
X158819166Y-107904761D01*
X158723928Y-107952380D01*
X158628690Y-107952380D01*
X158533452Y-107904761D01*
X158485833Y-107857142D01*
X158438214Y-107761904D01*
X158390595Y-107571428D01*
X158390595Y-107333333D01*
X158438214Y-107142857D01*
X158485833Y-107047619D01*
X158533452Y-107000000D01*
X158628690Y-106952380D01*
X83352380Y-106666666D02*
X82876190Y-107000000D01*
X83352380Y-107238095D02*
X82352380Y-107238095D01*
X82352380Y-106857142D01*
X82400000Y-106761904D01*
X82447619Y-106714285D01*
X82542857Y-106666666D01*
X82685714Y-106666666D01*
X82780952Y-106714285D01*
X82828571Y-106761904D01*
X82876190Y-106857142D01*
X82876190Y-107238095D01*
X82447619Y-106285714D02*
X82400000Y-106238095D01*
X82352380Y-106142857D01*
X82352380Y-105904761D01*
X82400000Y-105809523D01*
X82447619Y-105761904D01*
X82542857Y-105714285D01*
X82638095Y-105714285D01*
X82780952Y-105761904D01*
X83352380Y-106333333D01*
X83352380Y-105714285D01*
X83352380Y-101666666D02*
X82876190Y-102000000D01*
X83352380Y-102238095D02*
X82352380Y-102238095D01*
X82352380Y-101857142D01*
X82400000Y-101761904D01*
X82447619Y-101714285D01*
X82542857Y-101666666D01*
X82685714Y-101666666D01*
X82780952Y-101714285D01*
X82828571Y-101761904D01*
X82876190Y-101857142D01*
X82876190Y-102238095D01*
X83352380Y-100714285D02*
X83352380Y-101285714D01*
X83352380Y-101000000D02*
X82352380Y-101000000D01*
X82495238Y-101095238D01*
X82590476Y-101190476D01*
X82638095Y-101285714D01*
X135702380Y-123142857D02*
X135226190Y-123476190D01*
X135702380Y-123714285D02*
X134702380Y-123714285D01*
X134702380Y-123333333D01*
X134750000Y-123238095D01*
X134797619Y-123190476D01*
X134892857Y-123142857D01*
X135035714Y-123142857D01*
X135130952Y-123190476D01*
X135178571Y-123238095D01*
X135226190Y-123333333D01*
X135226190Y-123714285D01*
X135130952Y-122571428D02*
X135083333Y-122666666D01*
X135035714Y-122714285D01*
X134940476Y-122761904D01*
X134892857Y-122761904D01*
X134797619Y-122714285D01*
X134750000Y-122666666D01*
X134702380Y-122571428D01*
X134702380Y-122380952D01*
X134750000Y-122285714D01*
X134797619Y-122238095D01*
X134892857Y-122190476D01*
X134940476Y-122190476D01*
X135035714Y-122238095D01*
X135083333Y-122285714D01*
X135130952Y-122380952D01*
X135130952Y-122571428D01*
X135178571Y-122666666D01*
X135226190Y-122714285D01*
X135321428Y-122761904D01*
X135511904Y-122761904D01*
X135607142Y-122714285D01*
X135654761Y-122666666D01*
X135702380Y-122571428D01*
X135702380Y-122380952D01*
X135654761Y-122285714D01*
X135607142Y-122238095D01*
X135511904Y-122190476D01*
X135321428Y-122190476D01*
X135226190Y-122238095D01*
X135178571Y-122285714D01*
X135130952Y-122380952D01*
X134702380Y-121571428D02*
X134702380Y-121476190D01*
X134750000Y-121380952D01*
X134797619Y-121333333D01*
X134892857Y-121285714D01*
X135083333Y-121238095D01*
X135321428Y-121238095D01*
X135511904Y-121285714D01*
X135607142Y-121333333D01*
X135654761Y-121380952D01*
X135702380Y-121476190D01*
X135702380Y-121571428D01*
X135654761Y-121666666D01*
X135607142Y-121714285D01*
X135511904Y-121761904D01*
X135321428Y-121809523D01*
X135083333Y-121809523D01*
X134892857Y-121761904D01*
X134797619Y-121714285D01*
X134750000Y-121666666D01*
X134702380Y-121571428D01*
X140607142Y-99757142D02*
X140559523Y-99804761D01*
X140416666Y-99852380D01*
X140321428Y-99852380D01*
X140178571Y-99804761D01*
X140083333Y-99709523D01*
X140035714Y-99614285D01*
X139988095Y-99423809D01*
X139988095Y-99280952D01*
X140035714Y-99090476D01*
X140083333Y-98995238D01*
X140178571Y-98900000D01*
X140321428Y-98852380D01*
X140416666Y-98852380D01*
X140559523Y-98900000D01*
X140607142Y-98947619D01*
X141511904Y-98852380D02*
X141035714Y-98852380D01*
X140988095Y-99328571D01*
X141035714Y-99280952D01*
X141130952Y-99233333D01*
X141369047Y-99233333D01*
X141464285Y-99280952D01*
X141511904Y-99328571D01*
X141559523Y-99423809D01*
X141559523Y-99661904D01*
X141511904Y-99757142D01*
X141464285Y-99804761D01*
X141369047Y-99852380D01*
X141130952Y-99852380D01*
X141035714Y-99804761D01*
X140988095Y-99757142D01*
X142416666Y-99185714D02*
X142416666Y-99852380D01*
X142178571Y-98804761D02*
X141940476Y-99519047D01*
X142559523Y-99519047D01*
X90302380Y-89642857D02*
X89826190Y-89976190D01*
X90302380Y-90214285D02*
X89302380Y-90214285D01*
X89302380Y-89833333D01*
X89350000Y-89738095D01*
X89397619Y-89690476D01*
X89492857Y-89642857D01*
X89635714Y-89642857D01*
X89730952Y-89690476D01*
X89778571Y-89738095D01*
X89826190Y-89833333D01*
X89826190Y-90214285D01*
X89397619Y-89261904D02*
X89350000Y-89214285D01*
X89302380Y-89119047D01*
X89302380Y-88880952D01*
X89350000Y-88785714D01*
X89397619Y-88738095D01*
X89492857Y-88690476D01*
X89588095Y-88690476D01*
X89730952Y-88738095D01*
X90302380Y-89309523D01*
X90302380Y-88690476D01*
X90302380Y-87738095D02*
X90302380Y-88309523D01*
X90302380Y-88023809D02*
X89302380Y-88023809D01*
X89445238Y-88119047D01*
X89540476Y-88214285D01*
X89588095Y-88309523D01*
X90302380Y-93642857D02*
X89826190Y-93976190D01*
X90302380Y-94214285D02*
X89302380Y-94214285D01*
X89302380Y-93833333D01*
X89350000Y-93738095D01*
X89397619Y-93690476D01*
X89492857Y-93642857D01*
X89635714Y-93642857D01*
X89730952Y-93690476D01*
X89778571Y-93738095D01*
X89826190Y-93833333D01*
X89826190Y-94214285D01*
X89397619Y-93261904D02*
X89350000Y-93214285D01*
X89302380Y-93119047D01*
X89302380Y-92880952D01*
X89350000Y-92785714D01*
X89397619Y-92738095D01*
X89492857Y-92690476D01*
X89588095Y-92690476D01*
X89730952Y-92738095D01*
X90302380Y-93309523D01*
X90302380Y-92690476D01*
X89302380Y-92071428D02*
X89302380Y-91976190D01*
X89350000Y-91880952D01*
X89397619Y-91833333D01*
X89492857Y-91785714D01*
X89683333Y-91738095D01*
X89921428Y-91738095D01*
X90111904Y-91785714D01*
X90207142Y-91833333D01*
X90254761Y-91880952D01*
X90302380Y-91976190D01*
X90302380Y-92071428D01*
X90254761Y-92166666D01*
X90207142Y-92214285D01*
X90111904Y-92261904D01*
X89921428Y-92309523D01*
X89683333Y-92309523D01*
X89492857Y-92261904D01*
X89397619Y-92214285D01*
X89350000Y-92166666D01*
X89302380Y-92071428D01*
X90302380Y-109642857D02*
X89826190Y-109976190D01*
X90302380Y-110214285D02*
X89302380Y-110214285D01*
X89302380Y-109833333D01*
X89350000Y-109738095D01*
X89397619Y-109690476D01*
X89492857Y-109642857D01*
X89635714Y-109642857D01*
X89730952Y-109690476D01*
X89778571Y-109738095D01*
X89826190Y-109833333D01*
X89826190Y-110214285D01*
X90302380Y-108690476D02*
X90302380Y-109261904D01*
X90302380Y-108976190D02*
X89302380Y-108976190D01*
X89445238Y-109071428D01*
X89540476Y-109166666D01*
X89588095Y-109261904D01*
X90302380Y-107738095D02*
X90302380Y-108309523D01*
X90302380Y-108023809D02*
X89302380Y-108023809D01*
X89445238Y-108119047D01*
X89540476Y-108214285D01*
X89588095Y-108309523D01*
X90302380Y-113642857D02*
X89826190Y-113976190D01*
X90302380Y-114214285D02*
X89302380Y-114214285D01*
X89302380Y-113833333D01*
X89350000Y-113738095D01*
X89397619Y-113690476D01*
X89492857Y-113642857D01*
X89635714Y-113642857D01*
X89730952Y-113690476D01*
X89778571Y-113738095D01*
X89826190Y-113833333D01*
X89826190Y-114214285D01*
X90302380Y-112690476D02*
X90302380Y-113261904D01*
X90302380Y-112976190D02*
X89302380Y-112976190D01*
X89445238Y-113071428D01*
X89540476Y-113166666D01*
X89588095Y-113261904D01*
X89302380Y-112071428D02*
X89302380Y-111976190D01*
X89350000Y-111880952D01*
X89397619Y-111833333D01*
X89492857Y-111785714D01*
X89683333Y-111738095D01*
X89921428Y-111738095D01*
X90111904Y-111785714D01*
X90207142Y-111833333D01*
X90254761Y-111880952D01*
X90302380Y-111976190D01*
X90302380Y-112071428D01*
X90254761Y-112166666D01*
X90207142Y-112214285D01*
X90111904Y-112261904D01*
X89921428Y-112309523D01*
X89683333Y-112309523D01*
X89492857Y-112261904D01*
X89397619Y-112214285D01*
X89350000Y-112166666D01*
X89302380Y-112071428D01*
X101607142Y-98107142D02*
X101559523Y-98154761D01*
X101416666Y-98202380D01*
X101321428Y-98202380D01*
X101178571Y-98154761D01*
X101083333Y-98059523D01*
X101035714Y-97964285D01*
X100988095Y-97773809D01*
X100988095Y-97630952D01*
X101035714Y-97440476D01*
X101083333Y-97345238D01*
X101178571Y-97250000D01*
X101321428Y-97202380D01*
X101416666Y-97202380D01*
X101559523Y-97250000D01*
X101607142Y-97297619D01*
X101988095Y-97297619D02*
X102035714Y-97250000D01*
X102130952Y-97202380D01*
X102369047Y-97202380D01*
X102464285Y-97250000D01*
X102511904Y-97297619D01*
X102559523Y-97392857D01*
X102559523Y-97488095D01*
X102511904Y-97630952D01*
X101940476Y-98202380D01*
X102559523Y-98202380D01*
X103511904Y-98202380D02*
X102940476Y-98202380D01*
X103226190Y-98202380D02*
X103226190Y-97202380D01*
X103130952Y-97345238D01*
X103035714Y-97440476D01*
X102940476Y-97488095D01*
X101607142Y-118107142D02*
X101559523Y-118154761D01*
X101416666Y-118202380D01*
X101321428Y-118202380D01*
X101178571Y-118154761D01*
X101083333Y-118059523D01*
X101035714Y-117964285D01*
X100988095Y-117773809D01*
X100988095Y-117630952D01*
X101035714Y-117440476D01*
X101083333Y-117345238D01*
X101178571Y-117250000D01*
X101321428Y-117202380D01*
X101416666Y-117202380D01*
X101559523Y-117250000D01*
X101607142Y-117297619D01*
X102559523Y-118202380D02*
X101988095Y-118202380D01*
X102273809Y-118202380D02*
X102273809Y-117202380D01*
X102178571Y-117345238D01*
X102083333Y-117440476D01*
X101988095Y-117488095D01*
X103511904Y-118202380D02*
X102940476Y-118202380D01*
X103226190Y-118202380D02*
X103226190Y-117202380D01*
X103130952Y-117345238D01*
X103035714Y-117440476D01*
X102940476Y-117488095D01*
X95107142Y-98107142D02*
X95059523Y-98154761D01*
X94916666Y-98202380D01*
X94821428Y-98202380D01*
X94678571Y-98154761D01*
X94583333Y-98059523D01*
X94535714Y-97964285D01*
X94488095Y-97773809D01*
X94488095Y-97630952D01*
X94535714Y-97440476D01*
X94583333Y-97345238D01*
X94678571Y-97250000D01*
X94821428Y-97202380D01*
X94916666Y-97202380D01*
X95059523Y-97250000D01*
X95107142Y-97297619D01*
X95488095Y-97297619D02*
X95535714Y-97250000D01*
X95630952Y-97202380D01*
X95869047Y-97202380D01*
X95964285Y-97250000D01*
X96011904Y-97297619D01*
X96059523Y-97392857D01*
X96059523Y-97488095D01*
X96011904Y-97630952D01*
X95440476Y-98202380D01*
X96059523Y-98202380D01*
X96678571Y-97202380D02*
X96773809Y-97202380D01*
X96869047Y-97250000D01*
X96916666Y-97297619D01*
X96964285Y-97392857D01*
X97011904Y-97583333D01*
X97011904Y-97821428D01*
X96964285Y-98011904D01*
X96916666Y-98107142D01*
X96869047Y-98154761D01*
X96773809Y-98202380D01*
X96678571Y-98202380D01*
X96583333Y-98154761D01*
X96535714Y-98107142D01*
X96488095Y-98011904D01*
X96440476Y-97821428D01*
X96440476Y-97583333D01*
X96488095Y-97392857D01*
X96535714Y-97297619D01*
X96583333Y-97250000D01*
X96678571Y-97202380D01*
X95107142Y-118107142D02*
X95059523Y-118154761D01*
X94916666Y-118202380D01*
X94821428Y-118202380D01*
X94678571Y-118154761D01*
X94583333Y-118059523D01*
X94535714Y-117964285D01*
X94488095Y-117773809D01*
X94488095Y-117630952D01*
X94535714Y-117440476D01*
X94583333Y-117345238D01*
X94678571Y-117250000D01*
X94821428Y-117202380D01*
X94916666Y-117202380D01*
X95059523Y-117250000D01*
X95107142Y-117297619D01*
X96059523Y-118202380D02*
X95488095Y-118202380D01*
X95773809Y-118202380D02*
X95773809Y-117202380D01*
X95678571Y-117345238D01*
X95583333Y-117440476D01*
X95488095Y-117488095D01*
X96678571Y-117202380D02*
X96773809Y-117202380D01*
X96869047Y-117250000D01*
X96916666Y-117297619D01*
X96964285Y-117392857D01*
X97011904Y-117583333D01*
X97011904Y-117821428D01*
X96964285Y-118011904D01*
X96916666Y-118107142D01*
X96869047Y-118154761D01*
X96773809Y-118202380D01*
X96678571Y-118202380D01*
X96583333Y-118154761D01*
X96535714Y-118107142D01*
X96488095Y-118011904D01*
X96440476Y-117821428D01*
X96440476Y-117583333D01*
X96488095Y-117392857D01*
X96535714Y-117297619D01*
X96583333Y-117250000D01*
X96678571Y-117202380D01*
X146761904Y-119497380D02*
X146761904Y-120306904D01*
X146809523Y-120402142D01*
X146857142Y-120449761D01*
X146952380Y-120497380D01*
X147142857Y-120497380D01*
X147238095Y-120449761D01*
X147285714Y-120402142D01*
X147333333Y-120306904D01*
X147333333Y-119497380D01*
X147714285Y-119497380D02*
X148333333Y-119497380D01*
X148000000Y-119878333D01*
X148142857Y-119878333D01*
X148238095Y-119925952D01*
X148285714Y-119973571D01*
X148333333Y-120068809D01*
X148333333Y-120306904D01*
X148285714Y-120402142D01*
X148238095Y-120449761D01*
X148142857Y-120497380D01*
X147857142Y-120497380D01*
X147761904Y-120449761D01*
X147714285Y-120402142D01*
X149285714Y-120497380D02*
X148714285Y-120497380D01*
X149000000Y-120497380D02*
X149000000Y-119497380D01*
X148904761Y-119640238D01*
X148809523Y-119735476D01*
X148714285Y-119783095D01*
X146761904Y-105157380D02*
X146761904Y-105966904D01*
X146809523Y-106062142D01*
X146857142Y-106109761D01*
X146952380Y-106157380D01*
X147142857Y-106157380D01*
X147238095Y-106109761D01*
X147285714Y-106062142D01*
X147333333Y-105966904D01*
X147333333Y-105157380D01*
X147714285Y-105157380D02*
X148333333Y-105157380D01*
X148000000Y-105538333D01*
X148142857Y-105538333D01*
X148238095Y-105585952D01*
X148285714Y-105633571D01*
X148333333Y-105728809D01*
X148333333Y-105966904D01*
X148285714Y-106062142D01*
X148238095Y-106109761D01*
X148142857Y-106157380D01*
X147857142Y-106157380D01*
X147761904Y-106109761D01*
X147714285Y-106062142D01*
X148952380Y-105157380D02*
X149047619Y-105157380D01*
X149142857Y-105205000D01*
X149190476Y-105252619D01*
X149238095Y-105347857D01*
X149285714Y-105538333D01*
X149285714Y-105776428D01*
X149238095Y-105966904D01*
X149190476Y-106062142D01*
X149142857Y-106109761D01*
X149047619Y-106157380D01*
X148952380Y-106157380D01*
X148857142Y-106109761D01*
X148809523Y-106062142D01*
X148761904Y-105966904D01*
X148714285Y-105776428D01*
X148714285Y-105538333D01*
X148761904Y-105347857D01*
X148809523Y-105252619D01*
X148857142Y-105205000D01*
X148952380Y-105157380D01*
X130047619Y-119726190D02*
X130047619Y-120202380D01*
X129714285Y-119202380D02*
X130047619Y-119726190D01*
X130380952Y-119202380D01*
X130857142Y-119630952D02*
X130761904Y-119583333D01*
X130714285Y-119535714D01*
X130666666Y-119440476D01*
X130666666Y-119392857D01*
X130714285Y-119297619D01*
X130761904Y-119250000D01*
X130857142Y-119202380D01*
X131047619Y-119202380D01*
X131142857Y-119250000D01*
X131190476Y-119297619D01*
X131238095Y-119392857D01*
X131238095Y-119440476D01*
X131190476Y-119535714D01*
X131142857Y-119583333D01*
X131047619Y-119630952D01*
X130857142Y-119630952D01*
X130761904Y-119678571D01*
X130714285Y-119726190D01*
X130666666Y-119821428D01*
X130666666Y-120011904D01*
X130714285Y-120107142D01*
X130761904Y-120154761D01*
X130857142Y-120202380D01*
X131047619Y-120202380D01*
X131142857Y-120154761D01*
X131190476Y-120107142D01*
X131238095Y-120011904D01*
X131238095Y-119821428D01*
X131190476Y-119726190D01*
X131142857Y-119678571D01*
X131047619Y-119630952D01*
X131857142Y-119202380D02*
X131952380Y-119202380D01*
X132047619Y-119250000D01*
X132095238Y-119297619D01*
X132142857Y-119392857D01*
X132190476Y-119583333D01*
X132190476Y-119821428D01*
X132142857Y-120011904D01*
X132095238Y-120107142D01*
X132047619Y-120154761D01*
X131952380Y-120202380D01*
X131857142Y-120202380D01*
X131761904Y-120154761D01*
X131714285Y-120107142D01*
X131666666Y-120011904D01*
X131619047Y-119821428D01*
X131619047Y-119583333D01*
X131666666Y-119392857D01*
X131714285Y-119297619D01*
X131761904Y-119250000D01*
X131857142Y-119202380D01*
X126011904Y-104452380D02*
X126011904Y-105261904D01*
X126059523Y-105357142D01*
X126107142Y-105404761D01*
X126202380Y-105452380D01*
X126392857Y-105452380D01*
X126488095Y-105404761D01*
X126535714Y-105357142D01*
X126583333Y-105261904D01*
X126583333Y-104452380D01*
X127202380Y-104880952D02*
X127107142Y-104833333D01*
X127059523Y-104785714D01*
X127011904Y-104690476D01*
X127011904Y-104642857D01*
X127059523Y-104547619D01*
X127107142Y-104500000D01*
X127202380Y-104452380D01*
X127392857Y-104452380D01*
X127488095Y-104500000D01*
X127535714Y-104547619D01*
X127583333Y-104642857D01*
X127583333Y-104690476D01*
X127535714Y-104785714D01*
X127488095Y-104833333D01*
X127392857Y-104880952D01*
X127202380Y-104880952D01*
X127107142Y-104928571D01*
X127059523Y-104976190D01*
X127011904Y-105071428D01*
X127011904Y-105261904D01*
X127059523Y-105357142D01*
X127107142Y-105404761D01*
X127202380Y-105452380D01*
X127392857Y-105452380D01*
X127488095Y-105404761D01*
X127535714Y-105357142D01*
X127583333Y-105261904D01*
X127583333Y-105071428D01*
X127535714Y-104976190D01*
X127488095Y-104928571D01*
X127392857Y-104880952D01*
X128202380Y-104452380D02*
X128297619Y-104452380D01*
X128392857Y-104500000D01*
X128440476Y-104547619D01*
X128488095Y-104642857D01*
X128535714Y-104833333D01*
X128535714Y-105071428D01*
X128488095Y-105261904D01*
X128440476Y-105357142D01*
X128392857Y-105404761D01*
X128297619Y-105452380D01*
X128202380Y-105452380D01*
X128107142Y-105404761D01*
X128059523Y-105357142D01*
X128011904Y-105261904D01*
X127964285Y-105071428D01*
X127964285Y-104833333D01*
X128011904Y-104642857D01*
X128059523Y-104547619D01*
X128107142Y-104500000D01*
X128202380Y-104452380D01*
X149601904Y-86952380D02*
X149601904Y-87761904D01*
X149649523Y-87857142D01*
X149697142Y-87904761D01*
X149792380Y-87952380D01*
X149982857Y-87952380D01*
X150078095Y-87904761D01*
X150125714Y-87857142D01*
X150173333Y-87761904D01*
X150173333Y-86952380D01*
X151125714Y-86952380D02*
X150649523Y-86952380D01*
X150601904Y-87428571D01*
X150649523Y-87380952D01*
X150744761Y-87333333D01*
X150982857Y-87333333D01*
X151078095Y-87380952D01*
X151125714Y-87428571D01*
X151173333Y-87523809D01*
X151173333Y-87761904D01*
X151125714Y-87857142D01*
X151078095Y-87904761D01*
X150982857Y-87952380D01*
X150744761Y-87952380D01*
X150649523Y-87904761D01*
X150601904Y-87857142D01*
X151792380Y-86952380D02*
X151887619Y-86952380D01*
X151982857Y-87000000D01*
X152030476Y-87047619D01*
X152078095Y-87142857D01*
X152125714Y-87333333D01*
X152125714Y-87571428D01*
X152078095Y-87761904D01*
X152030476Y-87857142D01*
X151982857Y-87904761D01*
X151887619Y-87952380D01*
X151792380Y-87952380D01*
X151697142Y-87904761D01*
X151649523Y-87857142D01*
X151601904Y-87761904D01*
X151554285Y-87571428D01*
X151554285Y-87333333D01*
X151601904Y-87142857D01*
X151649523Y-87047619D01*
X151697142Y-87000000D01*
X151792380Y-86952380D01*
X140607142Y-96352380D02*
X140273809Y-95876190D01*
X140035714Y-96352380D02*
X140035714Y-95352380D01*
X140416666Y-95352380D01*
X140511904Y-95400000D01*
X140559523Y-95447619D01*
X140607142Y-95542857D01*
X140607142Y-95685714D01*
X140559523Y-95780952D01*
X140511904Y-95828571D01*
X140416666Y-95876190D01*
X140035714Y-95876190D01*
X141511904Y-95352380D02*
X141035714Y-95352380D01*
X140988095Y-95828571D01*
X141035714Y-95780952D01*
X141130952Y-95733333D01*
X141369047Y-95733333D01*
X141464285Y-95780952D01*
X141511904Y-95828571D01*
X141559523Y-95923809D01*
X141559523Y-96161904D01*
X141511904Y-96257142D01*
X141464285Y-96304761D01*
X141369047Y-96352380D01*
X141130952Y-96352380D01*
X141035714Y-96304761D01*
X140988095Y-96257142D01*
X142511904Y-96352380D02*
X141940476Y-96352380D01*
X142226190Y-96352380D02*
X142226190Y-95352380D01*
X142130952Y-95495238D01*
X142035714Y-95590476D01*
X141940476Y-95638095D01*
X133357142Y-96352380D02*
X133023809Y-95876190D01*
X132785714Y-96352380D02*
X132785714Y-95352380D01*
X133166666Y-95352380D01*
X133261904Y-95400000D01*
X133309523Y-95447619D01*
X133357142Y-95542857D01*
X133357142Y-95685714D01*
X133309523Y-95780952D01*
X133261904Y-95828571D01*
X133166666Y-95876190D01*
X132785714Y-95876190D01*
X134214285Y-95685714D02*
X134214285Y-96352380D01*
X133976190Y-95304761D02*
X133738095Y-96019047D01*
X134357142Y-96019047D01*
X135261904Y-96352380D02*
X134690476Y-96352380D01*
X134976190Y-96352380D02*
X134976190Y-95352380D01*
X134880952Y-95495238D01*
X134785714Y-95590476D01*
X134690476Y-95638095D01*
X144857142Y-99852380D02*
X144523809Y-99376190D01*
X144285714Y-99852380D02*
X144285714Y-98852380D01*
X144666666Y-98852380D01*
X144761904Y-98900000D01*
X144809523Y-98947619D01*
X144857142Y-99042857D01*
X144857142Y-99185714D01*
X144809523Y-99280952D01*
X144761904Y-99328571D01*
X144666666Y-99376190D01*
X144285714Y-99376190D01*
X145761904Y-98852380D02*
X145285714Y-98852380D01*
X145238095Y-99328571D01*
X145285714Y-99280952D01*
X145380952Y-99233333D01*
X145619047Y-99233333D01*
X145714285Y-99280952D01*
X145761904Y-99328571D01*
X145809523Y-99423809D01*
X145809523Y-99661904D01*
X145761904Y-99757142D01*
X145714285Y-99804761D01*
X145619047Y-99852380D01*
X145380952Y-99852380D01*
X145285714Y-99804761D01*
X145238095Y-99757142D01*
X146428571Y-98852380D02*
X146523809Y-98852380D01*
X146619047Y-98900000D01*
X146666666Y-98947619D01*
X146714285Y-99042857D01*
X146761904Y-99233333D01*
X146761904Y-99471428D01*
X146714285Y-99661904D01*
X146666666Y-99757142D01*
X146619047Y-99804761D01*
X146523809Y-99852380D01*
X146428571Y-99852380D01*
X146333333Y-99804761D01*
X146285714Y-99757142D01*
X146238095Y-99661904D01*
X146190476Y-99471428D01*
X146190476Y-99233333D01*
X146238095Y-99042857D01*
X146285714Y-98947619D01*
X146333333Y-98900000D01*
X146428571Y-98852380D01*
X94107142Y-131802380D02*
X93773809Y-131326190D01*
X93535714Y-131802380D02*
X93535714Y-130802380D01*
X93916666Y-130802380D01*
X94011904Y-130850000D01*
X94059523Y-130897619D01*
X94107142Y-130992857D01*
X94107142Y-131135714D01*
X94059523Y-131230952D01*
X94011904Y-131278571D01*
X93916666Y-131326190D01*
X93535714Y-131326190D01*
X94440476Y-130802380D02*
X95107142Y-130802380D01*
X94678571Y-131802380D01*
X96011904Y-131802380D02*
X95440476Y-131802380D01*
X95726190Y-131802380D02*
X95726190Y-130802380D01*
X95630952Y-130945238D01*
X95535714Y-131040476D01*
X95440476Y-131088095D01*
X148547619Y-94821428D02*
X148500000Y-94916666D01*
X148404761Y-95011904D01*
X148261904Y-95154761D01*
X148214285Y-95250000D01*
X148214285Y-95345238D01*
X148452380Y-95297619D02*
X148404761Y-95392857D01*
X148309523Y-95488095D01*
X148119047Y-95535714D01*
X147785714Y-95535714D01*
X147595238Y-95488095D01*
X147500000Y-95392857D01*
X147452380Y-95297619D01*
X147452380Y-95107142D01*
X147500000Y-95011904D01*
X147595238Y-94916666D01*
X147785714Y-94869047D01*
X148119047Y-94869047D01*
X148309523Y-94916666D01*
X148404761Y-95011904D01*
X148452380Y-95107142D01*
X148452380Y-95297619D01*
X147452380Y-93964285D02*
X147452380Y-94440476D01*
X147928571Y-94488095D01*
X147880952Y-94440476D01*
X147833333Y-94345238D01*
X147833333Y-94107142D01*
X147880952Y-94011904D01*
X147928571Y-93964285D01*
X148023809Y-93916666D01*
X148261904Y-93916666D01*
X148357142Y-93964285D01*
X148404761Y-94011904D01*
X148452380Y-94107142D01*
X148452380Y-94345238D01*
X148404761Y-94440476D01*
X148357142Y-94488095D01*
X147452380Y-93297619D02*
X147452380Y-93202380D01*
X147500000Y-93107142D01*
X147547619Y-93059523D01*
X147642857Y-93011904D01*
X147833333Y-92964285D01*
X148071428Y-92964285D01*
X148261904Y-93011904D01*
X148357142Y-93059523D01*
X148404761Y-93107142D01*
X148452380Y-93202380D01*
X148452380Y-93297619D01*
X148404761Y-93392857D01*
X148357142Y-93440476D01*
X148261904Y-93488095D01*
X148071428Y-93535714D01*
X147833333Y-93535714D01*
X147642857Y-93488095D01*
X147547619Y-93440476D01*
X147500000Y-93392857D01*
X147452380Y-93297619D01*
X129047619Y-91321428D02*
X129000000Y-91416666D01*
X128904761Y-91511904D01*
X128761904Y-91654761D01*
X128714285Y-91750000D01*
X128714285Y-91845238D01*
X128952380Y-91797619D02*
X128904761Y-91892857D01*
X128809523Y-91988095D01*
X128619047Y-92035714D01*
X128285714Y-92035714D01*
X128095238Y-91988095D01*
X128000000Y-91892857D01*
X127952380Y-91797619D01*
X127952380Y-91607142D01*
X128000000Y-91511904D01*
X128095238Y-91416666D01*
X128285714Y-91369047D01*
X128619047Y-91369047D01*
X128809523Y-91416666D01*
X128904761Y-91511904D01*
X128952380Y-91607142D01*
X128952380Y-91797619D01*
X128285714Y-90511904D02*
X128952380Y-90511904D01*
X127904761Y-90750000D02*
X128619047Y-90988095D01*
X128619047Y-90369047D01*
X127952380Y-89797619D02*
X127952380Y-89702380D01*
X128000000Y-89607142D01*
X128047619Y-89559523D01*
X128142857Y-89511904D01*
X128333333Y-89464285D01*
X128571428Y-89464285D01*
X128761904Y-89511904D01*
X128857142Y-89559523D01*
X128904761Y-89607142D01*
X128952380Y-89702380D01*
X128952380Y-89797619D01*
X128904761Y-89892857D01*
X128857142Y-89940476D01*
X128761904Y-89988095D01*
X128571428Y-90035714D01*
X128333333Y-90035714D01*
X128142857Y-89988095D01*
X128047619Y-89940476D01*
X128000000Y-89892857D01*
X127952380Y-89797619D01*
X120857142Y-117857142D02*
X120809523Y-117904761D01*
X120666666Y-117952380D01*
X120571428Y-117952380D01*
X120428571Y-117904761D01*
X120333333Y-117809523D01*
X120285714Y-117714285D01*
X120238095Y-117523809D01*
X120238095Y-117380952D01*
X120285714Y-117190476D01*
X120333333Y-117095238D01*
X120428571Y-117000000D01*
X120571428Y-116952380D01*
X120666666Y-116952380D01*
X120809523Y-117000000D01*
X120857142Y-117047619D01*
X121428571Y-117380952D02*
X121333333Y-117333333D01*
X121285714Y-117285714D01*
X121238095Y-117190476D01*
X121238095Y-117142857D01*
X121285714Y-117047619D01*
X121333333Y-117000000D01*
X121428571Y-116952380D01*
X121619047Y-116952380D01*
X121714285Y-117000000D01*
X121761904Y-117047619D01*
X121809523Y-117142857D01*
X121809523Y-117190476D01*
X121761904Y-117285714D01*
X121714285Y-117333333D01*
X121619047Y-117380952D01*
X121428571Y-117380952D01*
X121333333Y-117428571D01*
X121285714Y-117476190D01*
X121238095Y-117571428D01*
X121238095Y-117761904D01*
X121285714Y-117857142D01*
X121333333Y-117904761D01*
X121428571Y-117952380D01*
X121619047Y-117952380D01*
X121714285Y-117904761D01*
X121761904Y-117857142D01*
X121809523Y-117761904D01*
X121809523Y-117571428D01*
X121761904Y-117476190D01*
X121714285Y-117428571D01*
X121619047Y-117380952D01*
X122761904Y-117952380D02*
X122190476Y-117952380D01*
X122476190Y-117952380D02*
X122476190Y-116952380D01*
X122380952Y-117095238D01*
X122285714Y-117190476D01*
X122190476Y-117238095D01*
X120857142Y-119857142D02*
X120809523Y-119904761D01*
X120666666Y-119952380D01*
X120571428Y-119952380D01*
X120428571Y-119904761D01*
X120333333Y-119809523D01*
X120285714Y-119714285D01*
X120238095Y-119523809D01*
X120238095Y-119380952D01*
X120285714Y-119190476D01*
X120333333Y-119095238D01*
X120428571Y-119000000D01*
X120571428Y-118952380D01*
X120666666Y-118952380D01*
X120809523Y-119000000D01*
X120857142Y-119047619D01*
X121428571Y-119380952D02*
X121333333Y-119333333D01*
X121285714Y-119285714D01*
X121238095Y-119190476D01*
X121238095Y-119142857D01*
X121285714Y-119047619D01*
X121333333Y-119000000D01*
X121428571Y-118952380D01*
X121619047Y-118952380D01*
X121714285Y-119000000D01*
X121761904Y-119047619D01*
X121809523Y-119142857D01*
X121809523Y-119190476D01*
X121761904Y-119285714D01*
X121714285Y-119333333D01*
X121619047Y-119380952D01*
X121428571Y-119380952D01*
X121333333Y-119428571D01*
X121285714Y-119476190D01*
X121238095Y-119571428D01*
X121238095Y-119761904D01*
X121285714Y-119857142D01*
X121333333Y-119904761D01*
X121428571Y-119952380D01*
X121619047Y-119952380D01*
X121714285Y-119904761D01*
X121761904Y-119857142D01*
X121809523Y-119761904D01*
X121809523Y-119571428D01*
X121761904Y-119476190D01*
X121714285Y-119428571D01*
X121619047Y-119380952D01*
X122428571Y-118952380D02*
X122523809Y-118952380D01*
X122619047Y-119000000D01*
X122666666Y-119047619D01*
X122714285Y-119142857D01*
X122761904Y-119333333D01*
X122761904Y-119571428D01*
X122714285Y-119761904D01*
X122666666Y-119857142D01*
X122619047Y-119904761D01*
X122523809Y-119952380D01*
X122428571Y-119952380D01*
X122333333Y-119904761D01*
X122285714Y-119857142D01*
X122238095Y-119761904D01*
X122190476Y-119571428D01*
X122190476Y-119333333D01*
X122238095Y-119142857D01*
X122285714Y-119047619D01*
X122333333Y-119000000D01*
X122428571Y-118952380D01*
X129357142Y-96257142D02*
X129309523Y-96304761D01*
X129166666Y-96352380D01*
X129071428Y-96352380D01*
X128928571Y-96304761D01*
X128833333Y-96209523D01*
X128785714Y-96114285D01*
X128738095Y-95923809D01*
X128738095Y-95780952D01*
X128785714Y-95590476D01*
X128833333Y-95495238D01*
X128928571Y-95400000D01*
X129071428Y-95352380D01*
X129166666Y-95352380D01*
X129309523Y-95400000D01*
X129357142Y-95447619D01*
X130214285Y-95685714D02*
X130214285Y-96352380D01*
X129976190Y-95304761D02*
X129738095Y-96019047D01*
X130357142Y-96019047D01*
X131261904Y-96352380D02*
X130690476Y-96352380D01*
X130976190Y-96352380D02*
X130976190Y-95352380D01*
X130880952Y-95495238D01*
X130785714Y-95590476D01*
X130690476Y-95638095D01*
X150027142Y-97892857D02*
X150074761Y-97940476D01*
X150122380Y-98083333D01*
X150122380Y-98178571D01*
X150074761Y-98321428D01*
X149979523Y-98416666D01*
X149884285Y-98464285D01*
X149693809Y-98511904D01*
X149550952Y-98511904D01*
X149360476Y-98464285D01*
X149265238Y-98416666D01*
X149170000Y-98321428D01*
X149122380Y-98178571D01*
X149122380Y-98083333D01*
X149170000Y-97940476D01*
X149217619Y-97892857D01*
X149122380Y-96988095D02*
X149122380Y-97464285D01*
X149598571Y-97511904D01*
X149550952Y-97464285D01*
X149503333Y-97369047D01*
X149503333Y-97130952D01*
X149550952Y-97035714D01*
X149598571Y-96988095D01*
X149693809Y-96940476D01*
X149931904Y-96940476D01*
X150027142Y-96988095D01*
X150074761Y-97035714D01*
X150122380Y-97130952D01*
X150122380Y-97369047D01*
X150074761Y-97464285D01*
X150027142Y-97511904D01*
X149122380Y-96607142D02*
X149122380Y-95988095D01*
X149503333Y-96321428D01*
X149503333Y-96178571D01*
X149550952Y-96083333D01*
X149598571Y-96035714D01*
X149693809Y-95988095D01*
X149931904Y-95988095D01*
X150027142Y-96035714D01*
X150074761Y-96083333D01*
X150122380Y-96178571D01*
X150122380Y-96464285D01*
X150074761Y-96559523D01*
X150027142Y-96607142D01*
X136857142Y-86142857D02*
X136904761Y-86190476D01*
X136952380Y-86333333D01*
X136952380Y-86428571D01*
X136904761Y-86571428D01*
X136809523Y-86666666D01*
X136714285Y-86714285D01*
X136523809Y-86761904D01*
X136380952Y-86761904D01*
X136190476Y-86714285D01*
X136095238Y-86666666D01*
X136000000Y-86571428D01*
X135952380Y-86428571D01*
X135952380Y-86333333D01*
X136000000Y-86190476D01*
X136047619Y-86142857D01*
X136285714Y-85285714D02*
X136952380Y-85285714D01*
X135904761Y-85523809D02*
X136619047Y-85761904D01*
X136619047Y-85142857D01*
X135952380Y-84571428D02*
X135952380Y-84476190D01*
X136000000Y-84380952D01*
X136047619Y-84333333D01*
X136142857Y-84285714D01*
X136333333Y-84238095D01*
X136571428Y-84238095D01*
X136761904Y-84285714D01*
X136857142Y-84333333D01*
X136904761Y-84380952D01*
X136952380Y-84476190D01*
X136952380Y-84571428D01*
X136904761Y-84666666D01*
X136857142Y-84714285D01*
X136761904Y-84761904D01*
X136571428Y-84809523D01*
X136333333Y-84809523D01*
X136142857Y-84761904D01*
X136047619Y-84714285D01*
X136000000Y-84666666D01*
X135952380Y-84571428D01*
X130357142Y-127857142D02*
X130309523Y-127904761D01*
X130166666Y-127952380D01*
X130071428Y-127952380D01*
X129928571Y-127904761D01*
X129833333Y-127809523D01*
X129785714Y-127714285D01*
X129738095Y-127523809D01*
X129738095Y-127380952D01*
X129785714Y-127190476D01*
X129833333Y-127095238D01*
X129928571Y-127000000D01*
X130071428Y-126952380D01*
X130166666Y-126952380D01*
X130309523Y-127000000D01*
X130357142Y-127047619D01*
X130928571Y-127380952D02*
X130833333Y-127333333D01*
X130785714Y-127285714D01*
X130738095Y-127190476D01*
X130738095Y-127142857D01*
X130785714Y-127047619D01*
X130833333Y-127000000D01*
X130928571Y-126952380D01*
X131119047Y-126952380D01*
X131214285Y-127000000D01*
X131261904Y-127047619D01*
X131309523Y-127142857D01*
X131309523Y-127190476D01*
X131261904Y-127285714D01*
X131214285Y-127333333D01*
X131119047Y-127380952D01*
X130928571Y-127380952D01*
X130833333Y-127428571D01*
X130785714Y-127476190D01*
X130738095Y-127571428D01*
X130738095Y-127761904D01*
X130785714Y-127857142D01*
X130833333Y-127904761D01*
X130928571Y-127952380D01*
X131119047Y-127952380D01*
X131214285Y-127904761D01*
X131261904Y-127857142D01*
X131309523Y-127761904D01*
X131309523Y-127571428D01*
X131261904Y-127476190D01*
X131214285Y-127428571D01*
X131119047Y-127380952D01*
X131642857Y-126952380D02*
X132261904Y-126952380D01*
X131928571Y-127333333D01*
X132071428Y-127333333D01*
X132166666Y-127380952D01*
X132214285Y-127428571D01*
X132261904Y-127523809D01*
X132261904Y-127761904D01*
X132214285Y-127857142D01*
X132166666Y-127904761D01*
X132071428Y-127952380D01*
X131785714Y-127952380D01*
X131690476Y-127904761D01*
X131642857Y-127857142D01*
X152567142Y-97892857D02*
X152614761Y-97940476D01*
X152662380Y-98083333D01*
X152662380Y-98178571D01*
X152614761Y-98321428D01*
X152519523Y-98416666D01*
X152424285Y-98464285D01*
X152233809Y-98511904D01*
X152090952Y-98511904D01*
X151900476Y-98464285D01*
X151805238Y-98416666D01*
X151710000Y-98321428D01*
X151662380Y-98178571D01*
X151662380Y-98083333D01*
X151710000Y-97940476D01*
X151757619Y-97892857D01*
X151662380Y-96988095D02*
X151662380Y-97464285D01*
X152138571Y-97511904D01*
X152090952Y-97464285D01*
X152043333Y-97369047D01*
X152043333Y-97130952D01*
X152090952Y-97035714D01*
X152138571Y-96988095D01*
X152233809Y-96940476D01*
X152471904Y-96940476D01*
X152567142Y-96988095D01*
X152614761Y-97035714D01*
X152662380Y-97130952D01*
X152662380Y-97369047D01*
X152614761Y-97464285D01*
X152567142Y-97511904D01*
X151757619Y-96559523D02*
X151710000Y-96511904D01*
X151662380Y-96416666D01*
X151662380Y-96178571D01*
X151710000Y-96083333D01*
X151757619Y-96035714D01*
X151852857Y-95988095D01*
X151948095Y-95988095D01*
X152090952Y-96035714D01*
X152662380Y-96607142D01*
X152662380Y-95988095D01*
X126857142Y-123142857D02*
X126904761Y-123190476D01*
X126952380Y-123333333D01*
X126952380Y-123428571D01*
X126904761Y-123571428D01*
X126809523Y-123666666D01*
X126714285Y-123714285D01*
X126523809Y-123761904D01*
X126380952Y-123761904D01*
X126190476Y-123714285D01*
X126095238Y-123666666D01*
X126000000Y-123571428D01*
X125952380Y-123428571D01*
X125952380Y-123333333D01*
X126000000Y-123190476D01*
X126047619Y-123142857D01*
X126380952Y-122571428D02*
X126333333Y-122666666D01*
X126285714Y-122714285D01*
X126190476Y-122761904D01*
X126142857Y-122761904D01*
X126047619Y-122714285D01*
X126000000Y-122666666D01*
X125952380Y-122571428D01*
X125952380Y-122380952D01*
X126000000Y-122285714D01*
X126047619Y-122238095D01*
X126142857Y-122190476D01*
X126190476Y-122190476D01*
X126285714Y-122238095D01*
X126333333Y-122285714D01*
X126380952Y-122380952D01*
X126380952Y-122571428D01*
X126428571Y-122666666D01*
X126476190Y-122714285D01*
X126571428Y-122761904D01*
X126761904Y-122761904D01*
X126857142Y-122714285D01*
X126904761Y-122666666D01*
X126952380Y-122571428D01*
X126952380Y-122380952D01*
X126904761Y-122285714D01*
X126857142Y-122238095D01*
X126761904Y-122190476D01*
X126571428Y-122190476D01*
X126476190Y-122238095D01*
X126428571Y-122285714D01*
X126380952Y-122380952D01*
X126047619Y-121809523D02*
X126000000Y-121761904D01*
X125952380Y-121666666D01*
X125952380Y-121428571D01*
X126000000Y-121333333D01*
X126047619Y-121285714D01*
X126142857Y-121238095D01*
X126238095Y-121238095D01*
X126380952Y-121285714D01*
X126952380Y-121857142D01*
X126952380Y-121238095D01*
X157647142Y-97892857D02*
X157694761Y-97940476D01*
X157742380Y-98083333D01*
X157742380Y-98178571D01*
X157694761Y-98321428D01*
X157599523Y-98416666D01*
X157504285Y-98464285D01*
X157313809Y-98511904D01*
X157170952Y-98511904D01*
X156980476Y-98464285D01*
X156885238Y-98416666D01*
X156790000Y-98321428D01*
X156742380Y-98178571D01*
X156742380Y-98083333D01*
X156790000Y-97940476D01*
X156837619Y-97892857D01*
X156742380Y-96988095D02*
X156742380Y-97464285D01*
X157218571Y-97511904D01*
X157170952Y-97464285D01*
X157123333Y-97369047D01*
X157123333Y-97130952D01*
X157170952Y-97035714D01*
X157218571Y-96988095D01*
X157313809Y-96940476D01*
X157551904Y-96940476D01*
X157647142Y-96988095D01*
X157694761Y-97035714D01*
X157742380Y-97130952D01*
X157742380Y-97369047D01*
X157694761Y-97464285D01*
X157647142Y-97511904D01*
X157742380Y-95988095D02*
X157742380Y-96559523D01*
X157742380Y-96273809D02*
X156742380Y-96273809D01*
X156885238Y-96369047D01*
X156980476Y-96464285D01*
X157028095Y-96559523D01*
X156857142Y-86142857D02*
X156904761Y-86190476D01*
X156952380Y-86333333D01*
X156952380Y-86428571D01*
X156904761Y-86571428D01*
X156809523Y-86666666D01*
X156714285Y-86714285D01*
X156523809Y-86761904D01*
X156380952Y-86761904D01*
X156190476Y-86714285D01*
X156095238Y-86666666D01*
X156000000Y-86571428D01*
X155952380Y-86428571D01*
X155952380Y-86333333D01*
X156000000Y-86190476D01*
X156047619Y-86142857D01*
X155952380Y-85238095D02*
X155952380Y-85714285D01*
X156428571Y-85761904D01*
X156380952Y-85714285D01*
X156333333Y-85619047D01*
X156333333Y-85380952D01*
X156380952Y-85285714D01*
X156428571Y-85238095D01*
X156523809Y-85190476D01*
X156761904Y-85190476D01*
X156857142Y-85238095D01*
X156904761Y-85285714D01*
X156952380Y-85380952D01*
X156952380Y-85619047D01*
X156904761Y-85714285D01*
X156857142Y-85761904D01*
X155952380Y-84571428D02*
X155952380Y-84476190D01*
X156000000Y-84380952D01*
X156047619Y-84333333D01*
X156142857Y-84285714D01*
X156333333Y-84238095D01*
X156571428Y-84238095D01*
X156761904Y-84285714D01*
X156857142Y-84333333D01*
X156904761Y-84380952D01*
X156952380Y-84476190D01*
X156952380Y-84571428D01*
X156904761Y-84666666D01*
X156857142Y-84714285D01*
X156761904Y-84761904D01*
X156571428Y-84809523D01*
X156333333Y-84809523D01*
X156142857Y-84761904D01*
X156047619Y-84714285D01*
X156000000Y-84666666D01*
X155952380Y-84571428D01*
X136852380Y-91392857D02*
X136376190Y-91726190D01*
X136852380Y-91964285D02*
X135852380Y-91964285D01*
X135852380Y-91583333D01*
X135900000Y-91488095D01*
X135947619Y-91440476D01*
X136042857Y-91392857D01*
X136185714Y-91392857D01*
X136280952Y-91440476D01*
X136328571Y-91488095D01*
X136376190Y-91583333D01*
X136376190Y-91964285D01*
X136185714Y-90535714D02*
X136852380Y-90535714D01*
X135804761Y-90773809D02*
X136519047Y-91011904D01*
X136519047Y-90392857D01*
X135852380Y-89821428D02*
X135852380Y-89726190D01*
X135900000Y-89630952D01*
X135947619Y-89583333D01*
X136042857Y-89535714D01*
X136233333Y-89488095D01*
X136471428Y-89488095D01*
X136661904Y-89535714D01*
X136757142Y-89583333D01*
X136804761Y-89630952D01*
X136852380Y-89726190D01*
X136852380Y-89821428D01*
X136804761Y-89916666D01*
X136757142Y-89964285D01*
X136661904Y-90011904D01*
X136471428Y-90059523D01*
X136233333Y-90059523D01*
X136042857Y-90011904D01*
X135947619Y-89964285D01*
X135900000Y-89916666D01*
X135852380Y-89821428D01*
X101852380Y-137142857D02*
X101376190Y-137476190D01*
X101852380Y-137714285D02*
X100852380Y-137714285D01*
X100852380Y-137333333D01*
X100900000Y-137238095D01*
X100947619Y-137190476D01*
X101042857Y-137142857D01*
X101185714Y-137142857D01*
X101280952Y-137190476D01*
X101328571Y-137238095D01*
X101376190Y-137333333D01*
X101376190Y-137714285D01*
X100852380Y-136809523D02*
X100852380Y-136142857D01*
X101852380Y-136571428D01*
X100852380Y-135571428D02*
X100852380Y-135476190D01*
X100900000Y-135380952D01*
X100947619Y-135333333D01*
X101042857Y-135285714D01*
X101233333Y-135238095D01*
X101471428Y-135238095D01*
X101661904Y-135285714D01*
X101757142Y-135333333D01*
X101804761Y-135380952D01*
X101852380Y-135476190D01*
X101852380Y-135571428D01*
X101804761Y-135666666D01*
X101757142Y-135714285D01*
X101661904Y-135761904D01*
X101471428Y-135809523D01*
X101233333Y-135809523D01*
X101042857Y-135761904D01*
X100947619Y-135714285D01*
X100900000Y-135666666D01*
X100852380Y-135571428D01*
X97797619Y-137071428D02*
X97750000Y-137166666D01*
X97654761Y-137261904D01*
X97511904Y-137404761D01*
X97464285Y-137500000D01*
X97464285Y-137595238D01*
X97702380Y-137547619D02*
X97654761Y-137642857D01*
X97559523Y-137738095D01*
X97369047Y-137785714D01*
X97035714Y-137785714D01*
X96845238Y-137738095D01*
X96750000Y-137642857D01*
X96702380Y-137547619D01*
X96702380Y-137357142D01*
X96750000Y-137261904D01*
X96845238Y-137166666D01*
X97035714Y-137119047D01*
X97369047Y-137119047D01*
X97559523Y-137166666D01*
X97654761Y-137261904D01*
X97702380Y-137357142D01*
X97702380Y-137547619D01*
X96702380Y-136785714D02*
X96702380Y-136119047D01*
X97702380Y-136547619D01*
X96702380Y-135547619D02*
X96702380Y-135452380D01*
X96750000Y-135357142D01*
X96797619Y-135309523D01*
X96892857Y-135261904D01*
X97083333Y-135214285D01*
X97321428Y-135214285D01*
X97511904Y-135261904D01*
X97607142Y-135309523D01*
X97654761Y-135357142D01*
X97702380Y-135452380D01*
X97702380Y-135547619D01*
X97654761Y-135642857D01*
X97607142Y-135690476D01*
X97511904Y-135738095D01*
X97321428Y-135785714D01*
X97083333Y-135785714D01*
X96892857Y-135738095D01*
X96797619Y-135690476D01*
X96750000Y-135642857D01*
X96702380Y-135547619D01*
X109107142Y-131802380D02*
X108773809Y-131326190D01*
X108535714Y-131802380D02*
X108535714Y-130802380D01*
X108916666Y-130802380D01*
X109011904Y-130850000D01*
X109059523Y-130897619D01*
X109107142Y-130992857D01*
X109107142Y-131135714D01*
X109059523Y-131230952D01*
X109011904Y-131278571D01*
X108916666Y-131326190D01*
X108535714Y-131326190D01*
X109964285Y-130802380D02*
X109773809Y-130802380D01*
X109678571Y-130850000D01*
X109630952Y-130897619D01*
X109535714Y-131040476D01*
X109488095Y-131230952D01*
X109488095Y-131611904D01*
X109535714Y-131707142D01*
X109583333Y-131754761D01*
X109678571Y-131802380D01*
X109869047Y-131802380D01*
X109964285Y-131754761D01*
X110011904Y-131707142D01*
X110059523Y-131611904D01*
X110059523Y-131373809D01*
X110011904Y-131278571D01*
X109964285Y-131230952D01*
X109869047Y-131183333D01*
X109678571Y-131183333D01*
X109583333Y-131230952D01*
X109535714Y-131278571D01*
X109488095Y-131373809D01*
X111011904Y-131802380D02*
X110440476Y-131802380D01*
X110726190Y-131802380D02*
X110726190Y-130802380D01*
X110630952Y-130945238D01*
X110535714Y-131040476D01*
X110440476Y-131088095D01*
X116852380Y-137142857D02*
X116376190Y-137476190D01*
X116852380Y-137714285D02*
X115852380Y-137714285D01*
X115852380Y-137333333D01*
X115900000Y-137238095D01*
X115947619Y-137190476D01*
X116042857Y-137142857D01*
X116185714Y-137142857D01*
X116280952Y-137190476D01*
X116328571Y-137238095D01*
X116376190Y-137333333D01*
X116376190Y-137714285D01*
X115852380Y-136285714D02*
X115852380Y-136476190D01*
X115900000Y-136571428D01*
X115947619Y-136619047D01*
X116090476Y-136714285D01*
X116280952Y-136761904D01*
X116661904Y-136761904D01*
X116757142Y-136714285D01*
X116804761Y-136666666D01*
X116852380Y-136571428D01*
X116852380Y-136380952D01*
X116804761Y-136285714D01*
X116757142Y-136238095D01*
X116661904Y-136190476D01*
X116423809Y-136190476D01*
X116328571Y-136238095D01*
X116280952Y-136285714D01*
X116233333Y-136380952D01*
X116233333Y-136571428D01*
X116280952Y-136666666D01*
X116328571Y-136714285D01*
X116423809Y-136761904D01*
X115852380Y-135571428D02*
X115852380Y-135476190D01*
X115900000Y-135380952D01*
X115947619Y-135333333D01*
X116042857Y-135285714D01*
X116233333Y-135238095D01*
X116471428Y-135238095D01*
X116661904Y-135285714D01*
X116757142Y-135333333D01*
X116804761Y-135380952D01*
X116852380Y-135476190D01*
X116852380Y-135571428D01*
X116804761Y-135666666D01*
X116757142Y-135714285D01*
X116661904Y-135761904D01*
X116471428Y-135809523D01*
X116233333Y-135809523D01*
X116042857Y-135761904D01*
X115947619Y-135714285D01*
X115900000Y-135666666D01*
X115852380Y-135571428D01*
X112797619Y-137071428D02*
X112750000Y-137166666D01*
X112654761Y-137261904D01*
X112511904Y-137404761D01*
X112464285Y-137500000D01*
X112464285Y-137595238D01*
X112702380Y-137547619D02*
X112654761Y-137642857D01*
X112559523Y-137738095D01*
X112369047Y-137785714D01*
X112035714Y-137785714D01*
X111845238Y-137738095D01*
X111750000Y-137642857D01*
X111702380Y-137547619D01*
X111702380Y-137357142D01*
X111750000Y-137261904D01*
X111845238Y-137166666D01*
X112035714Y-137119047D01*
X112369047Y-137119047D01*
X112559523Y-137166666D01*
X112654761Y-137261904D01*
X112702380Y-137357142D01*
X112702380Y-137547619D01*
X111702380Y-136261904D02*
X111702380Y-136452380D01*
X111750000Y-136547619D01*
X111797619Y-136595238D01*
X111940476Y-136690476D01*
X112130952Y-136738095D01*
X112511904Y-136738095D01*
X112607142Y-136690476D01*
X112654761Y-136642857D01*
X112702380Y-136547619D01*
X112702380Y-136357142D01*
X112654761Y-136261904D01*
X112607142Y-136214285D01*
X112511904Y-136166666D01*
X112273809Y-136166666D01*
X112178571Y-136214285D01*
X112130952Y-136261904D01*
X112083333Y-136357142D01*
X112083333Y-136547619D01*
X112130952Y-136642857D01*
X112178571Y-136690476D01*
X112273809Y-136738095D01*
X111702380Y-135547619D02*
X111702380Y-135452380D01*
X111750000Y-135357142D01*
X111797619Y-135309523D01*
X111892857Y-135261904D01*
X112083333Y-135214285D01*
X112321428Y-135214285D01*
X112511904Y-135261904D01*
X112607142Y-135309523D01*
X112654761Y-135357142D01*
X112702380Y-135452380D01*
X112702380Y-135547619D01*
X112654761Y-135642857D01*
X112607142Y-135690476D01*
X112511904Y-135738095D01*
X112321428Y-135785714D01*
X112083333Y-135785714D01*
X111892857Y-135738095D01*
X111797619Y-135690476D01*
X111750000Y-135642857D01*
X111702380Y-135547619D01*
X121852380Y-137142857D02*
X121376190Y-137476190D01*
X121852380Y-137714285D02*
X120852380Y-137714285D01*
X120852380Y-137333333D01*
X120900000Y-137238095D01*
X120947619Y-137190476D01*
X121042857Y-137142857D01*
X121185714Y-137142857D01*
X121280952Y-137190476D01*
X121328571Y-137238095D01*
X121376190Y-137333333D01*
X121376190Y-137714285D01*
X120852380Y-136285714D02*
X120852380Y-136476190D01*
X120900000Y-136571428D01*
X120947619Y-136619047D01*
X121090476Y-136714285D01*
X121280952Y-136761904D01*
X121661904Y-136761904D01*
X121757142Y-136714285D01*
X121804761Y-136666666D01*
X121852380Y-136571428D01*
X121852380Y-136380952D01*
X121804761Y-136285714D01*
X121757142Y-136238095D01*
X121661904Y-136190476D01*
X121423809Y-136190476D01*
X121328571Y-136238095D01*
X121280952Y-136285714D01*
X121233333Y-136380952D01*
X121233333Y-136571428D01*
X121280952Y-136666666D01*
X121328571Y-136714285D01*
X121423809Y-136761904D01*
X120852380Y-135857142D02*
X120852380Y-135238095D01*
X121233333Y-135571428D01*
X121233333Y-135428571D01*
X121280952Y-135333333D01*
X121328571Y-135285714D01*
X121423809Y-135238095D01*
X121661904Y-135238095D01*
X121757142Y-135285714D01*
X121804761Y-135333333D01*
X121852380Y-135428571D01*
X121852380Y-135714285D01*
X121804761Y-135809523D01*
X121757142Y-135857142D01*
X119107142Y-127802380D02*
X118773809Y-127326190D01*
X118535714Y-127802380D02*
X118535714Y-126802380D01*
X118916666Y-126802380D01*
X119011904Y-126850000D01*
X119059523Y-126897619D01*
X119107142Y-126992857D01*
X119107142Y-127135714D01*
X119059523Y-127230952D01*
X119011904Y-127278571D01*
X118916666Y-127326190D01*
X118535714Y-127326190D01*
X119964285Y-126802380D02*
X119773809Y-126802380D01*
X119678571Y-126850000D01*
X119630952Y-126897619D01*
X119535714Y-127040476D01*
X119488095Y-127230952D01*
X119488095Y-127611904D01*
X119535714Y-127707142D01*
X119583333Y-127754761D01*
X119678571Y-127802380D01*
X119869047Y-127802380D01*
X119964285Y-127754761D01*
X120011904Y-127707142D01*
X120059523Y-127611904D01*
X120059523Y-127373809D01*
X120011904Y-127278571D01*
X119964285Y-127230952D01*
X119869047Y-127183333D01*
X119678571Y-127183333D01*
X119583333Y-127230952D01*
X119535714Y-127278571D01*
X119488095Y-127373809D01*
X120440476Y-126897619D02*
X120488095Y-126850000D01*
X120583333Y-126802380D01*
X120821428Y-126802380D01*
X120916666Y-126850000D01*
X120964285Y-126897619D01*
X121011904Y-126992857D01*
X121011904Y-127088095D01*
X120964285Y-127230952D01*
X120392857Y-127802380D01*
X121011904Y-127802380D01*
X122797619Y-132821428D02*
X122750000Y-132916666D01*
X122654761Y-133011904D01*
X122511904Y-133154761D01*
X122464285Y-133250000D01*
X122464285Y-133345238D01*
X122702380Y-133297619D02*
X122654761Y-133392857D01*
X122559523Y-133488095D01*
X122369047Y-133535714D01*
X122035714Y-133535714D01*
X121845238Y-133488095D01*
X121750000Y-133392857D01*
X121702380Y-133297619D01*
X121702380Y-133107142D01*
X121750000Y-133011904D01*
X121845238Y-132916666D01*
X122035714Y-132869047D01*
X122369047Y-132869047D01*
X122559523Y-132916666D01*
X122654761Y-133011904D01*
X122702380Y-133107142D01*
X122702380Y-133297619D01*
X121702380Y-132011904D02*
X121702380Y-132202380D01*
X121750000Y-132297619D01*
X121797619Y-132345238D01*
X121940476Y-132440476D01*
X122130952Y-132488095D01*
X122511904Y-132488095D01*
X122607142Y-132440476D01*
X122654761Y-132392857D01*
X122702380Y-132297619D01*
X122702380Y-132107142D01*
X122654761Y-132011904D01*
X122607142Y-131964285D01*
X122511904Y-131916666D01*
X122273809Y-131916666D01*
X122178571Y-131964285D01*
X122130952Y-132011904D01*
X122083333Y-132107142D01*
X122083333Y-132297619D01*
X122130952Y-132392857D01*
X122178571Y-132440476D01*
X122273809Y-132488095D01*
X122702380Y-130964285D02*
X122702380Y-131535714D01*
X122702380Y-131250000D02*
X121702380Y-131250000D01*
X121845238Y-131345238D01*
X121940476Y-131440476D01*
X121988095Y-131535714D01*
%LPC*%
D12*
X165750000Y-132000000D03*
D13*
X160670000Y-132000000D03*
D12*
X165750000Y-128500000D03*
D13*
X160670000Y-128500000D03*
D12*
X165750000Y-125000000D03*
D13*
X160670000Y-125000000D03*
D12*
X165750000Y-121500000D03*
D13*
X160670000Y-121500000D03*
D12*
X165750000Y-118000000D03*
D13*
X160670000Y-118000000D03*
D12*
X165750000Y-114500000D03*
D13*
X160670000Y-114500000D03*
D12*
X165750000Y-111000000D03*
D13*
X160670000Y-111000000D03*
D12*
X165750000Y-107500000D03*
D13*
X160670000Y-107500000D03*
D14*
X84750000Y-105050000D03*
X84750000Y-107950000D03*
X84750000Y-100050000D03*
X84750000Y-102950000D03*
D15*
X133750000Y-121750000D03*
X133750000Y-123250000D03*
D16*
X140250000Y-97750000D03*
X142250000Y-97750000D03*
D17*
X94800000Y-108720000D03*
X94800000Y-113280000D03*
D18*
X101100000Y-111000000D03*
D17*
X94800000Y-88720000D03*
X94800000Y-93280000D03*
D18*
X101100000Y-91000000D03*
D19*
X91500000Y-89950000D03*
X91500000Y-88050000D03*
X91500000Y-93950000D03*
X91500000Y-92050000D03*
X91500000Y-109950000D03*
X91500000Y-108050000D03*
X91500000Y-113950000D03*
X91500000Y-112050000D03*
D20*
X103750000Y-96000000D03*
X100750000Y-96000000D03*
X103750000Y-116000000D03*
X100750000Y-116000000D03*
X94250000Y-96000000D03*
X97250000Y-96000000D03*
X94250000Y-116000000D03*
X97250000Y-116000000D03*
D21*
X169750000Y-132000000D03*
X169750000Y-128500000D03*
X169750000Y-125000000D03*
X169750000Y-121500000D03*
X169750000Y-118000000D03*
X169750000Y-114500000D03*
X169750000Y-111000000D03*
X169750000Y-107500000D03*
X169750000Y-104000000D03*
X169750000Y-100500000D03*
X169750000Y-97000000D03*
X169750000Y-93500000D03*
X169750000Y-90000000D03*
D22*
X143300000Y-121840000D03*
X143300000Y-123110000D03*
X143300000Y-124380000D03*
X143300000Y-125650000D03*
X143300000Y-126920000D03*
X143300000Y-128190000D03*
X143300000Y-129460000D03*
X143300000Y-130730000D03*
X143300000Y-132000000D03*
X152700000Y-132000000D03*
X152700000Y-130730000D03*
X152700000Y-129460000D03*
X152700000Y-128190000D03*
X152700000Y-126920000D03*
X152700000Y-125650000D03*
X152700000Y-124380000D03*
X152700000Y-123110000D03*
X152700000Y-121840000D03*
X143300000Y-107500000D03*
X143300000Y-108770000D03*
X143300000Y-110040000D03*
X143300000Y-111310000D03*
X143300000Y-112580000D03*
X143300000Y-113850000D03*
X143300000Y-115120000D03*
X143300000Y-116390000D03*
X143300000Y-117660000D03*
X152700000Y-117660000D03*
X152700000Y-116390000D03*
X152700000Y-115120000D03*
X152700000Y-113850000D03*
X152700000Y-112580000D03*
X152700000Y-111310000D03*
X152700000Y-110040000D03*
X152700000Y-108770000D03*
X152700000Y-107500000D03*
D23*
X109750000Y-141000000D03*
X94750000Y-141000000D03*
D24*
X169750000Y-81000000D03*
X169750000Y-141000000D03*
X84750000Y-141000000D03*
X84750000Y-81000000D03*
D23*
X84750000Y-91000000D03*
X84750000Y-96000000D03*
X139750000Y-81000000D03*
X134750000Y-81000000D03*
X154750000Y-81000000D03*
X159750000Y-81000000D03*
D25*
X130150000Y-121400000D03*
X130150000Y-123600000D03*
X131850000Y-123600000D03*
X131850000Y-121400000D03*
D26*
X124500000Y-115350000D03*
X125000000Y-115350000D03*
X125500000Y-115350000D03*
X126000000Y-115350000D03*
X126500000Y-115350000D03*
X127000000Y-115350000D03*
X127500000Y-115350000D03*
X128000000Y-115350000D03*
X128500000Y-115350000D03*
X129000000Y-115350000D03*
X129500000Y-115350000D03*
X130000000Y-115350000D03*
D27*
X131600000Y-113750000D03*
X131600000Y-113250000D03*
X131600000Y-112750000D03*
X131600000Y-112250000D03*
X131600000Y-111750000D03*
X131600000Y-111250000D03*
X131600000Y-110750000D03*
X131600000Y-110250000D03*
X131600000Y-109750000D03*
X131600000Y-109250000D03*
X131600000Y-108750000D03*
X131600000Y-108250000D03*
D26*
X130000000Y-106650000D03*
X129500000Y-106650000D03*
X129000000Y-106650000D03*
X128500000Y-106650000D03*
X128000000Y-106650000D03*
X127500000Y-106650000D03*
X127000000Y-106650000D03*
X126500000Y-106650000D03*
X126000000Y-106650000D03*
X125500000Y-106650000D03*
X125000000Y-106650000D03*
X124500000Y-106650000D03*
D27*
X122900000Y-108250000D03*
X122900000Y-108750000D03*
X122900000Y-109250000D03*
X122900000Y-109750000D03*
X122900000Y-110250000D03*
X122900000Y-110750000D03*
X122900000Y-111250000D03*
X122900000Y-111750000D03*
X122900000Y-112250000D03*
X122900000Y-112750000D03*
X122900000Y-113250000D03*
X122900000Y-113750000D03*
D13*
X157290000Y-90000000D03*
X154750000Y-90000000D03*
X152210000Y-90000000D03*
X149670000Y-90000000D03*
X147130000Y-90000000D03*
D28*
X144590000Y-90000000D03*
D29*
X113250000Y-83250000D03*
X115790000Y-83250000D03*
X118330000Y-83250000D03*
D30*
X142200000Y-94250000D03*
X140300000Y-94250000D03*
X133050000Y-94250000D03*
X134950000Y-94250000D03*
X146450000Y-97750000D03*
X144550000Y-97750000D03*
X95700000Y-133000000D03*
X93800000Y-133000000D03*
D31*
X144500000Y-94250000D03*
X146500000Y-93300000D03*
X146500000Y-95200000D03*
D32*
X131000000Y-91750000D03*
X130050000Y-89750000D03*
X131950000Y-89750000D03*
D33*
X112000000Y-96000000D03*
D34*
X114540000Y-96000000D03*
X112000000Y-98540000D03*
X114540000Y-98540000D03*
X112000000Y-101080000D03*
X114540000Y-101080000D03*
X112000000Y-103620000D03*
X114540000Y-103620000D03*
X112000000Y-106160000D03*
X114540000Y-106160000D03*
D16*
X126000000Y-117500000D03*
X124000000Y-117500000D03*
X124000000Y-119500000D03*
X126000000Y-119500000D03*
X131000000Y-94250000D03*
X129000000Y-94250000D03*
D35*
X149670000Y-93250000D03*
X149670000Y-95250000D03*
X134750000Y-84500000D03*
X134750000Y-86500000D03*
D16*
X132000000Y-125750000D03*
X130000000Y-125750000D03*
D35*
X152210000Y-95250000D03*
X152210000Y-93250000D03*
X128000000Y-121500000D03*
X128000000Y-123500000D03*
X157290000Y-95250000D03*
X157290000Y-93250000D03*
X154750000Y-84500000D03*
X154750000Y-86500000D03*
D19*
X134750000Y-89800000D03*
X134750000Y-91700000D03*
X99750000Y-135550000D03*
X99750000Y-137450000D03*
D32*
X94750000Y-137500000D03*
X93800000Y-135500000D03*
X95700000Y-135500000D03*
D23*
X99750000Y-141000000D03*
D30*
X110700000Y-133000000D03*
X108800000Y-133000000D03*
D19*
X114750000Y-135550000D03*
X114750000Y-137450000D03*
D32*
X110700000Y-135500000D03*
X108800000Y-135500000D03*
X109750000Y-137500000D03*
D23*
X114750000Y-141000000D03*
D19*
X119750000Y-137450000D03*
X119750000Y-135550000D03*
D30*
X120700000Y-129000000D03*
X118800000Y-129000000D03*
D32*
X120700000Y-131250000D03*
X118800000Y-131250000D03*
X119750000Y-133250000D03*
D23*
X119750000Y-141000000D03*
M02*
