M48
; DRILL file {KiCad (5.1.7)-1} date 09/30/22 21:09:19
; FORMAT={-:-/ absolute / metric / decimal}
; #@! TF.CreationDate,2022-09-30T21:09:19+02:00
; #@! TF.GenerationSoftware,Kicad,Pcbnew,(5.1.7)-1
; #@! TF.FileFunction,Plated,1,2,PTH
FMAT,2
METRIC
T1C0.400
T2C0.500
T3C0.800
T4C1.000
T5C1.350
T6C1.500
T7C1.750
T8C3.500
%
G90
G05
T1
X84.75Y-109.75
X91.5Y-86.0
X91.5Y-106.0
X116.75Y-131.25
X124.0Y-121.5
X125.0Y-92.5
X127.0Y-97.75
X127.0Y-109.75
X127.5Y-111.25
X128.0Y-125.75
X129.5Y-108.75
X130.05Y-87.75
X131.85Y-118.75
X137.625Y-94.2
X145.16Y-117.66
X150.75Y-132.0
X154.75Y-95.25
T2
X99.0Y-96.0
X99.0Y-116.0
X107.25Y-112.75
X107.25Y-116.0
X126.5Y-112.75
X140.75Y-132.0
T3
X113.25Y-83.25
X115.79Y-83.25
X118.33Y-83.25
X160.67Y-118.0
X165.75Y-118.0
X160.67Y-111.0
X165.75Y-111.0
X160.67Y-128.5
X165.75Y-128.5
X144.59Y-90.0
X147.13Y-90.0
X149.67Y-90.0
X152.21Y-90.0
X154.75Y-90.0
X157.29Y-90.0
X160.67Y-121.5
X165.75Y-121.5
X160.67Y-114.5
X165.75Y-114.5
X160.67Y-107.5
X165.75Y-107.5
X160.67Y-132.0
X165.75Y-132.0
X160.67Y-125.0
X165.75Y-125.0
T4
X112.0Y-96.0
X112.0Y-98.54
X112.0Y-101.08
X112.0Y-103.62
X112.0Y-106.16
X114.54Y-96.0
X114.54Y-98.54
X114.54Y-101.08
X114.54Y-103.62
X114.54Y-106.16
X154.75Y-81.0
X169.75Y-90.0
X169.75Y-93.5
X169.75Y-97.0
X169.75Y-100.5
X169.75Y-104.0
X169.75Y-107.5
X169.75Y-111.0
X169.75Y-114.5
X169.75Y-118.0
X169.75Y-121.5
X169.75Y-125.0
X169.75Y-128.5
X169.75Y-132.0
X134.75Y-81.0
T5
X114.75Y-141.0
X94.75Y-141.0
X119.75Y-141.0
X109.75Y-141.0
X99.75Y-141.0
T6
X84.75Y-96.0
X84.75Y-91.0
T7
X159.75Y-81.0
X139.75Y-81.0
T8
X169.75Y-141.0
X84.75Y-81.0
X169.75Y-81.0
X84.75Y-141.0
T0
M30
