G04 #@! TF.GenerationSoftware,KiCad,Pcbnew,(5.1.7)-1*
G04 #@! TF.CreationDate,2022-09-30T21:09:14+02:00*
G04 #@! TF.ProjectId,Zaehler-Modul,5a616568-6c65-4722-9d4d-6f64756c2e6b,rev?*
G04 #@! TF.SameCoordinates,Original*
G04 #@! TF.FileFunction,Legend,Bot*
G04 #@! TF.FilePolarity,Positive*
%FSLAX46Y46*%
G04 Gerber Fmt 4.6, Leading zero omitted, Abs format (unit mm)*
G04 Created by KiCad (PCBNEW (5.1.7)-1) date 2022-09-30 21:09:14*
%MOMM*%
%LPD*%
G01*
G04 APERTURE LIST*
%ADD10C,0.150000*%
%ADD11C,1.600000*%
%ADD12O,1.600000X1.600000*%
%ADD13C,2.000000*%
%ADD14C,2.500000*%
%ADD15C,5.600000*%
%ADD16R,1.600000X1.600000*%
%ADD17C,1.440000*%
%ADD18R,1.700000X1.700000*%
%ADD19O,1.700000X1.700000*%
G04 APERTURE END LIST*
D10*
X81297619Y-96619047D02*
X81297619Y-97190476D01*
X81297619Y-96904761D02*
X82297619Y-96904761D01*
X82154761Y-97000000D01*
X82059523Y-97095238D01*
X82011904Y-97190476D01*
X82202380Y-96238095D02*
X82250000Y-96190476D01*
X82297619Y-96095238D01*
X82297619Y-95857142D01*
X82250000Y-95761904D01*
X82202380Y-95714285D01*
X82107142Y-95666666D01*
X82011904Y-95666666D01*
X81869047Y-95714285D01*
X81297619Y-96285714D01*
X81297619Y-95666666D01*
X82297619Y-95380952D02*
X81297619Y-95047619D01*
X82297619Y-94714285D01*
X82250000Y-91761904D02*
X82297619Y-91857142D01*
X82297619Y-92000000D01*
X82250000Y-92142857D01*
X82154761Y-92238095D01*
X82059523Y-92285714D01*
X81869047Y-92333333D01*
X81726190Y-92333333D01*
X81535714Y-92285714D01*
X81440476Y-92238095D01*
X81345238Y-92142857D01*
X81297619Y-92000000D01*
X81297619Y-91904761D01*
X81345238Y-91761904D01*
X81392857Y-91714285D01*
X81726190Y-91714285D01*
X81726190Y-91904761D01*
X81297619Y-91285714D02*
X82297619Y-91285714D01*
X81297619Y-90714285D01*
X82297619Y-90714285D01*
X81297619Y-90238095D02*
X82297619Y-90238095D01*
X82297619Y-90000000D01*
X82250000Y-89857142D01*
X82154761Y-89761904D01*
X82059523Y-89714285D01*
X81869047Y-89666666D01*
X81726190Y-89666666D01*
X81535714Y-89714285D01*
X81440476Y-89761904D01*
X81345238Y-89857142D01*
X81297619Y-90000000D01*
X81297619Y-90238095D01*
X140511904Y-77500000D02*
X140607142Y-77452380D01*
X140750000Y-77452380D01*
X140892857Y-77500000D01*
X140988095Y-77595238D01*
X141035714Y-77690476D01*
X141083333Y-77880952D01*
X141083333Y-78023809D01*
X141035714Y-78214285D01*
X140988095Y-78309523D01*
X140892857Y-78404761D01*
X140750000Y-78452380D01*
X140654761Y-78452380D01*
X140511904Y-78404761D01*
X140464285Y-78357142D01*
X140464285Y-78023809D01*
X140654761Y-78023809D01*
X140035714Y-78452380D02*
X140035714Y-77452380D01*
X139464285Y-78452380D01*
X139464285Y-77452380D01*
X138988095Y-78452380D02*
X138988095Y-77452380D01*
X138750000Y-77452380D01*
X138607142Y-77500000D01*
X138511904Y-77595238D01*
X138464285Y-77690476D01*
X138416666Y-77880952D01*
X138416666Y-78023809D01*
X138464285Y-78214285D01*
X138511904Y-78309523D01*
X138607142Y-78404761D01*
X138750000Y-78452380D01*
X138988095Y-78452380D01*
X135273809Y-78452380D02*
X135273809Y-77452380D01*
X134797619Y-78452380D02*
X134797619Y-77452380D01*
X134226190Y-78452380D01*
X134226190Y-77452380D01*
X160511904Y-77500000D02*
X160607142Y-77452380D01*
X160750000Y-77452380D01*
X160892857Y-77500000D01*
X160988095Y-77595238D01*
X161035714Y-77690476D01*
X161083333Y-77880952D01*
X161083333Y-78023809D01*
X161035714Y-78214285D01*
X160988095Y-78309523D01*
X160892857Y-78404761D01*
X160750000Y-78452380D01*
X160654761Y-78452380D01*
X160511904Y-78404761D01*
X160464285Y-78357142D01*
X160464285Y-78023809D01*
X160654761Y-78023809D01*
X160035714Y-78452380D02*
X160035714Y-77452380D01*
X159464285Y-78452380D01*
X159464285Y-77452380D01*
X158988095Y-78452380D02*
X158988095Y-77452380D01*
X158750000Y-77452380D01*
X158607142Y-77500000D01*
X158511904Y-77595238D01*
X158464285Y-77690476D01*
X158416666Y-77880952D01*
X158416666Y-78023809D01*
X158464285Y-78214285D01*
X158511904Y-78309523D01*
X158607142Y-78404761D01*
X158750000Y-78452380D01*
X158988095Y-78452380D01*
X155273809Y-78452380D02*
X155273809Y-77452380D01*
X154797619Y-78452380D02*
X154797619Y-77452380D01*
X154226190Y-78452380D01*
X154226190Y-77452380D01*
X100273809Y-144452380D02*
X100273809Y-143452380D01*
X99797619Y-144452380D02*
X99797619Y-143452380D01*
X99226190Y-144452380D01*
X99226190Y-143452380D01*
X95511904Y-143500000D02*
X95607142Y-143452380D01*
X95750000Y-143452380D01*
X95892857Y-143500000D01*
X95988095Y-143595238D01*
X96035714Y-143690476D01*
X96083333Y-143880952D01*
X96083333Y-144023809D01*
X96035714Y-144214285D01*
X95988095Y-144309523D01*
X95892857Y-144404761D01*
X95750000Y-144452380D01*
X95654761Y-144452380D01*
X95511904Y-144404761D01*
X95464285Y-144357142D01*
X95464285Y-144023809D01*
X95654761Y-144023809D01*
X95035714Y-144452380D02*
X95035714Y-143452380D01*
X94464285Y-144452380D01*
X94464285Y-143452380D01*
X93988095Y-144452380D02*
X93988095Y-143452380D01*
X93750000Y-143452380D01*
X93607142Y-143500000D01*
X93511904Y-143595238D01*
X93464285Y-143690476D01*
X93416666Y-143880952D01*
X93416666Y-144023809D01*
X93464285Y-144214285D01*
X93511904Y-144309523D01*
X93607142Y-144404761D01*
X93750000Y-144452380D01*
X93988095Y-144452380D01*
X110511904Y-143500000D02*
X110607142Y-143452380D01*
X110750000Y-143452380D01*
X110892857Y-143500000D01*
X110988095Y-143595238D01*
X111035714Y-143690476D01*
X111083333Y-143880952D01*
X111083333Y-144023809D01*
X111035714Y-144214285D01*
X110988095Y-144309523D01*
X110892857Y-144404761D01*
X110750000Y-144452380D01*
X110654761Y-144452380D01*
X110511904Y-144404761D01*
X110464285Y-144357142D01*
X110464285Y-144023809D01*
X110654761Y-144023809D01*
X110035714Y-144452380D02*
X110035714Y-143452380D01*
X109464285Y-144452380D01*
X109464285Y-143452380D01*
X108988095Y-144452380D02*
X108988095Y-143452380D01*
X108750000Y-143452380D01*
X108607142Y-143500000D01*
X108511904Y-143595238D01*
X108464285Y-143690476D01*
X108416666Y-143880952D01*
X108416666Y-144023809D01*
X108464285Y-144214285D01*
X108511904Y-144309523D01*
X108607142Y-144404761D01*
X108750000Y-144452380D01*
X108988095Y-144452380D01*
X115892857Y-144452380D02*
X115892857Y-143452380D01*
X115321428Y-144452380D02*
X115750000Y-143880952D01*
X115321428Y-143452380D02*
X115892857Y-144023809D01*
X114892857Y-143928571D02*
X114559523Y-143928571D01*
X114416666Y-144452380D02*
X114892857Y-144452380D01*
X114892857Y-143452380D01*
X114416666Y-143452380D01*
X113797619Y-143976190D02*
X113797619Y-144452380D01*
X114130952Y-143452380D02*
X113797619Y-143976190D01*
X113464285Y-143452380D01*
X120392857Y-144452380D02*
X120869047Y-144452380D01*
X120869047Y-143452380D01*
X120059523Y-143928571D02*
X119726190Y-143928571D01*
X119583333Y-144452380D02*
X120059523Y-144452380D01*
X120059523Y-143452380D01*
X119583333Y-143452380D01*
X119154761Y-144452380D02*
X119154761Y-143452380D01*
X118916666Y-143452380D01*
X118773809Y-143500000D01*
X118678571Y-143595238D01*
X118630952Y-143690476D01*
X118583333Y-143880952D01*
X118583333Y-144023809D01*
X118630952Y-144214285D01*
X118678571Y-144309523D01*
X118773809Y-144404761D01*
X118916666Y-144452380D01*
X119154761Y-144452380D01*
%LPC*%
D11*
X165750000Y-132000000D03*
D12*
X160670000Y-132000000D03*
D11*
X165750000Y-128500000D03*
D12*
X160670000Y-128500000D03*
D11*
X165750000Y-125000000D03*
D12*
X160670000Y-125000000D03*
D11*
X165750000Y-121500000D03*
D12*
X160670000Y-121500000D03*
D11*
X165750000Y-118000000D03*
D12*
X160670000Y-118000000D03*
D11*
X165750000Y-114500000D03*
D12*
X160670000Y-114500000D03*
D11*
X165750000Y-111000000D03*
D12*
X160670000Y-111000000D03*
D11*
X165750000Y-107500000D03*
D12*
X160670000Y-107500000D03*
D13*
X169750000Y-132000000D03*
X169750000Y-128500000D03*
X169750000Y-125000000D03*
X169750000Y-121500000D03*
X169750000Y-118000000D03*
X169750000Y-114500000D03*
X169750000Y-111000000D03*
X169750000Y-107500000D03*
X169750000Y-104000000D03*
X169750000Y-100500000D03*
X169750000Y-97000000D03*
X169750000Y-93500000D03*
X169750000Y-90000000D03*
D14*
X109750000Y-141000000D03*
X94750000Y-141000000D03*
D15*
X169750000Y-81000000D03*
X169750000Y-141000000D03*
X84750000Y-141000000D03*
X84750000Y-81000000D03*
D14*
X84750000Y-91000000D03*
X84750000Y-96000000D03*
X139750000Y-81000000D03*
X134750000Y-81000000D03*
X154750000Y-81000000D03*
X159750000Y-81000000D03*
D12*
X157290000Y-90000000D03*
X154750000Y-90000000D03*
X152210000Y-90000000D03*
X149670000Y-90000000D03*
X147130000Y-90000000D03*
D16*
X144590000Y-90000000D03*
D17*
X113250000Y-83250000D03*
X115790000Y-83250000D03*
X118330000Y-83250000D03*
D18*
X112000000Y-96000000D03*
D19*
X114540000Y-96000000D03*
X112000000Y-98540000D03*
X114540000Y-98540000D03*
X112000000Y-101080000D03*
X114540000Y-101080000D03*
X112000000Y-103620000D03*
X114540000Y-103620000D03*
X112000000Y-106160000D03*
X114540000Y-106160000D03*
D14*
X99750000Y-141000000D03*
X114750000Y-141000000D03*
X119750000Y-141000000D03*
M02*
