G04 #@! TF.GenerationSoftware,KiCad,Pcbnew,(5.1.7)-1*
G04 #@! TF.CreationDate,2022-05-13T22:16:47+02:00*
G04 #@! TF.ProjectId,Anzeige-Modul,416e7a65-6967-4652-9d4d-6f64756c2e6b,rev?*
G04 #@! TF.SameCoordinates,Original*
G04 #@! TF.FileFunction,Copper,L1,Top*
G04 #@! TF.FilePolarity,Positive*
%FSLAX46Y46*%
G04 Gerber Fmt 4.6, Leading zero omitted, Abs format (unit mm)*
G04 Created by KiCad (PCBNEW (5.1.7)-1) date 2022-05-13 22:16:47*
%MOMM*%
%LPD*%
G01*
G04 APERTURE LIST*
G04 #@! TA.AperFunction,ComponentPad*
%ADD10C,1.800000*%
G04 #@! TD*
G04 #@! TA.AperFunction,ComponentPad*
%ADD11C,1.750000*%
G04 #@! TD*
G04 #@! TA.AperFunction,ComponentPad*
%ADD12C,2.250000*%
G04 #@! TD*
G04 #@! TA.AperFunction,SMDPad,CuDef*
%ADD13R,1.000000X1.250000*%
G04 #@! TD*
G04 #@! TA.AperFunction,SMDPad,CuDef*
%ADD14R,0.600000X1.500000*%
G04 #@! TD*
G04 #@! TA.AperFunction,ComponentPad*
%ADD15R,1.800000X1.800000*%
G04 #@! TD*
G04 #@! TA.AperFunction,SMDPad,CuDef*
%ADD16R,0.800000X0.900000*%
G04 #@! TD*
G04 #@! TA.AperFunction,SMDPad,CuDef*
%ADD17R,1.250000X1.000000*%
G04 #@! TD*
G04 #@! TA.AperFunction,SMDPad,CuDef*
%ADD18R,0.700000X1.300000*%
G04 #@! TD*
G04 #@! TA.AperFunction,SMDPad,CuDef*
%ADD19R,0.550000X1.600000*%
G04 #@! TD*
G04 #@! TA.AperFunction,SMDPad,CuDef*
%ADD20R,1.600000X0.550000*%
G04 #@! TD*
G04 #@! TA.AperFunction,SMDPad,CuDef*
%ADD21C,0.100000*%
G04 #@! TD*
G04 #@! TA.AperFunction,SMDPad,CuDef*
%ADD22R,2.200000X1.840000*%
G04 #@! TD*
G04 #@! TA.AperFunction,SMDPad,CuDef*
%ADD23R,1.000000X1.500000*%
G04 #@! TD*
G04 #@! TA.AperFunction,SMDPad,CuDef*
%ADD24R,1.000000X1.800000*%
G04 #@! TD*
G04 #@! TA.AperFunction,ComponentPad*
%ADD25R,1.700000X1.700000*%
G04 #@! TD*
G04 #@! TA.AperFunction,ComponentPad*
%ADD26O,1.700000X1.700000*%
G04 #@! TD*
G04 #@! TA.AperFunction,ViaPad*
%ADD27C,0.800000*%
G04 #@! TD*
G04 #@! TA.AperFunction,Conductor*
%ADD28C,0.250000*%
G04 #@! TD*
G04 #@! TA.AperFunction,Conductor*
%ADD29C,0.500000*%
G04 #@! TD*
G04 APERTURE END LIST*
D10*
X82480000Y-49000000D03*
X79940000Y-49000000D03*
X77400000Y-49000000D03*
X74860000Y-49000000D03*
X72320000Y-49000000D03*
X69780000Y-49000000D03*
X67240000Y-49000000D03*
X64700000Y-49000000D03*
X62160000Y-49000000D03*
X59620000Y-49000000D03*
X57080000Y-49000000D03*
X54540000Y-49000000D03*
X52000000Y-49000000D03*
X85020000Y-49000000D03*
D11*
X24000000Y-57260000D03*
X24000000Y-61070000D03*
X24000000Y-64880000D03*
X24000000Y-68690000D03*
X24000000Y-72500000D03*
X24000000Y-76310000D03*
X24000000Y-80120000D03*
X24000000Y-83930000D03*
X24000000Y-87740000D03*
D12*
X83250000Y-38000000D03*
X85500000Y-35500000D03*
X84500000Y-31750000D03*
X73250000Y-38000000D03*
X75500000Y-35500000D03*
X74500000Y-31750000D03*
X63250000Y-38000000D03*
X65500000Y-35500000D03*
X64500000Y-31750000D03*
X53250000Y-38000000D03*
X55500000Y-35500000D03*
X54500000Y-31750000D03*
X43250000Y-38000000D03*
X45500000Y-35500000D03*
X44500000Y-31750000D03*
X33250000Y-38000000D03*
X35500000Y-35500000D03*
X34500000Y-31750000D03*
X23250000Y-38000000D03*
X25500000Y-35500000D03*
X24500000Y-31750000D03*
D13*
X28750000Y-49300000D03*
X30750000Y-49300000D03*
D14*
X33555000Y-54700000D03*
X34825000Y-54700000D03*
X36095000Y-54700000D03*
X37365000Y-54700000D03*
X38635000Y-54700000D03*
X39905000Y-54700000D03*
X41175000Y-54700000D03*
X42445000Y-54700000D03*
X42445000Y-49300000D03*
X41175000Y-49300000D03*
X39905000Y-49300000D03*
X38635000Y-49300000D03*
X37365000Y-49300000D03*
X36095000Y-49300000D03*
X34825000Y-49300000D03*
X33555000Y-49300000D03*
D15*
X85270000Y-23000000D03*
D10*
X82730000Y-23000000D03*
D15*
X75270000Y-23000000D03*
D10*
X72730000Y-23000000D03*
D15*
X65270000Y-23000000D03*
D10*
X62730000Y-23000000D03*
D15*
X55270000Y-23000000D03*
D10*
X52730000Y-23000000D03*
D15*
X45270000Y-23000000D03*
D10*
X42730000Y-23000000D03*
D15*
X35270000Y-23000000D03*
D10*
X32730000Y-23000000D03*
D15*
X25270000Y-23000000D03*
D10*
X22730000Y-23000000D03*
D16*
X38220000Y-87000000D03*
X36320000Y-87000000D03*
X37270000Y-89000000D03*
D12*
X39500000Y-104200000D03*
X35800000Y-105600000D03*
X33200000Y-103000000D03*
X37000000Y-101500000D03*
X57000000Y-104200000D03*
X53300000Y-105600000D03*
X50700000Y-103000000D03*
X54500000Y-101500000D03*
X74500000Y-104200000D03*
X70800000Y-105600000D03*
X68200000Y-103000000D03*
X72000000Y-101500000D03*
X109750000Y-104200000D03*
X106050000Y-105600000D03*
X103450000Y-103000000D03*
X107250000Y-101500000D03*
X144750000Y-104200000D03*
X141050000Y-105600000D03*
X138450000Y-103000000D03*
X142250000Y-101500000D03*
X127250000Y-104200000D03*
X123550000Y-105600000D03*
X120950000Y-103000000D03*
X124750000Y-101500000D03*
D17*
X108000000Y-94000000D03*
X108000000Y-92000000D03*
D13*
X106800000Y-78000000D03*
X108800000Y-78000000D03*
X112400000Y-75500000D03*
X110400000Y-75500000D03*
D17*
X104000000Y-74500000D03*
X104000000Y-72500000D03*
D18*
X101450000Y-92500000D03*
X99550000Y-92500000D03*
D17*
X110000000Y-92000000D03*
X110000000Y-94000000D03*
D19*
X112800000Y-80750000D03*
X112000000Y-80750000D03*
X111200000Y-80750000D03*
X110400000Y-80750000D03*
X109600000Y-80750000D03*
X108800000Y-80750000D03*
X108000000Y-80750000D03*
X107200000Y-80750000D03*
D20*
X105750000Y-82200000D03*
X105750000Y-83000000D03*
X105750000Y-83800000D03*
X105750000Y-84600000D03*
X105750000Y-85400000D03*
X105750000Y-86200000D03*
X105750000Y-87000000D03*
X105750000Y-87800000D03*
D19*
X107200000Y-89250000D03*
X108000000Y-89250000D03*
X108800000Y-89250000D03*
X109600000Y-89250000D03*
X110400000Y-89250000D03*
X111200000Y-89250000D03*
X112000000Y-89250000D03*
X112800000Y-89250000D03*
D20*
X114250000Y-87800000D03*
X114250000Y-87000000D03*
X114250000Y-86200000D03*
X114250000Y-85400000D03*
X114250000Y-84600000D03*
X114250000Y-83800000D03*
X114250000Y-83000000D03*
X114250000Y-82200000D03*
D15*
X36000000Y-61500000D03*
D10*
X38540000Y-61500000D03*
D15*
X59000000Y-61500000D03*
D10*
X61540000Y-61500000D03*
D15*
X82000000Y-61500000D03*
D10*
X84540000Y-61500000D03*
D15*
X36000000Y-72500000D03*
D10*
X38540000Y-72500000D03*
D15*
X59000000Y-72500000D03*
D10*
X61540000Y-72500000D03*
D15*
X82000000Y-72500000D03*
D10*
X84540000Y-72500000D03*
D18*
X41320000Y-61500000D03*
X43220000Y-61500000D03*
X64320000Y-61500000D03*
X66220000Y-61500000D03*
X87320000Y-61500000D03*
X89220000Y-61500000D03*
X41320000Y-72500000D03*
X43220000Y-72500000D03*
X64320000Y-72500000D03*
X66220000Y-72500000D03*
X87320000Y-72500000D03*
X89220000Y-72500000D03*
D16*
X36320000Y-68000000D03*
X38220000Y-68000000D03*
X37270000Y-66000000D03*
X59320000Y-68000000D03*
X61220000Y-68000000D03*
X60270000Y-66000000D03*
X82320000Y-68000000D03*
X84220000Y-68000000D03*
X83270000Y-66000000D03*
X36320000Y-79000000D03*
X38220000Y-79000000D03*
X37270000Y-77000000D03*
X59320000Y-79000000D03*
X61220000Y-79000000D03*
X60270000Y-77000000D03*
X82320000Y-79000000D03*
X84220000Y-79000000D03*
X83270000Y-77000000D03*
D18*
X41320000Y-67000000D03*
X43220000Y-67000000D03*
X64320000Y-67000000D03*
X66220000Y-67000000D03*
X87320000Y-67000000D03*
X89220000Y-67000000D03*
X41320000Y-78000000D03*
X43220000Y-78000000D03*
X64320000Y-78000000D03*
X66220000Y-78000000D03*
X89220000Y-78000000D03*
X87320000Y-78000000D03*
X31320000Y-67000000D03*
X33220000Y-67000000D03*
X54320000Y-67000000D03*
X56220000Y-67000000D03*
X77320000Y-67000000D03*
X79220000Y-67000000D03*
X31320000Y-78000000D03*
X33220000Y-78000000D03*
X54320000Y-78000000D03*
X56220000Y-78000000D03*
X77320000Y-78000000D03*
X79220000Y-78000000D03*
G04 #@! TA.AperFunction,SMDPad,CuDef*
D21*
G36*
X98900000Y-74403800D02*
G01*
X99600000Y-73403800D01*
X100400000Y-73403800D01*
X101100000Y-74403800D01*
X98900000Y-74403800D01*
G37*
G04 #@! TD.AperFunction*
D22*
X100000000Y-75313500D03*
D23*
X98500000Y-72500000D03*
D24*
X100000000Y-72646500D03*
D23*
X101500000Y-72500000D03*
G04 #@! TA.AperFunction,SMDPad,CuDef*
D21*
G36*
X101100000Y-76222000D02*
G01*
X100500000Y-77072000D01*
X99500000Y-77072000D01*
X98900000Y-76222000D01*
X101100000Y-76222000D01*
G37*
G04 #@! TD.AperFunction*
D25*
X91585000Y-92500000D03*
D26*
X91585000Y-89960000D03*
X94125000Y-92500000D03*
X94125000Y-89960000D03*
X96665000Y-92500000D03*
X96665000Y-89960000D03*
D18*
X43220000Y-87000000D03*
X41320000Y-87000000D03*
X31320000Y-89000000D03*
X33220000Y-89000000D03*
D17*
X98500000Y-68000000D03*
X98500000Y-70000000D03*
X101500000Y-68000000D03*
X101500000Y-70000000D03*
D27*
X100000000Y-72350000D03*
X100000000Y-73200000D03*
X100000000Y-74050000D03*
X100000000Y-74900000D03*
X100000000Y-75750000D03*
X100000000Y-76600000D03*
X85950000Y-79000000D03*
X85950000Y-68000000D03*
X39950000Y-68000000D03*
X39950000Y-79000000D03*
X62950000Y-68000000D03*
X62950000Y-79000000D03*
X34500000Y-87000000D03*
X106000000Y-94000000D03*
X110250000Y-87000000D03*
X109612653Y-82500000D03*
X106800000Y-76200000D03*
X112400000Y-73500000D03*
X104000000Y-76000000D03*
X103500000Y-68000000D03*
X96500000Y-68000000D03*
X37365000Y-53000000D03*
X42445000Y-52500000D03*
X38635000Y-52500000D03*
X27000000Y-49300000D03*
X119500000Y-84600000D03*
X103450000Y-99500000D03*
X109000000Y-86000000D03*
X110000000Y-85000000D03*
X111000000Y-84000000D03*
X118500000Y-82200000D03*
X117500000Y-83000000D03*
X116500000Y-83800000D03*
X106000000Y-70250000D03*
X106000000Y-74000000D03*
D28*
X24000000Y-80120000D02*
X27120000Y-80120000D01*
X33220000Y-86220000D02*
X33220000Y-89000000D01*
X27120000Y-80120000D02*
X33220000Y-86220000D01*
X37270000Y-89000000D02*
X33220000Y-89000000D01*
X39950000Y-79000000D02*
X38220000Y-79000000D01*
X39950000Y-68000000D02*
X38220000Y-68000000D01*
X62950000Y-68000000D02*
X61220000Y-68000000D01*
X62950000Y-79000000D02*
X61220000Y-79000000D01*
X85950000Y-79000000D02*
X84220000Y-79000000D01*
X85950000Y-68000000D02*
X84220000Y-68000000D01*
X36320000Y-87000000D02*
X34500000Y-87000000D01*
X110000000Y-94000000D02*
X106000000Y-94000000D01*
X106800000Y-78000000D02*
X106800000Y-76200000D01*
X112400000Y-75500000D02*
X112400000Y-73500000D01*
X104000000Y-74500000D02*
X104000000Y-76000000D01*
X101500000Y-68000000D02*
X103500000Y-68000000D01*
X98500000Y-68000000D02*
X96500000Y-68000000D01*
D29*
X110250000Y-87750000D02*
X110400000Y-87900000D01*
X110250000Y-87000000D02*
X110250000Y-87750000D01*
X110400000Y-89250000D02*
X110400000Y-87900000D01*
X109600000Y-82487347D02*
X109612653Y-82500000D01*
X109600000Y-80750000D02*
X109600000Y-82487347D01*
X111200000Y-81800000D02*
X110500000Y-82500000D01*
X111200000Y-80750000D02*
X111200000Y-81800000D01*
X110500000Y-82500000D02*
X109612653Y-82500000D01*
X37365000Y-54700000D02*
X37365000Y-53000000D01*
X38635000Y-54700000D02*
X38635000Y-52500000D01*
X42445000Y-54700000D02*
X42445000Y-52500000D01*
D28*
X28750000Y-49300000D02*
X27000000Y-49300000D01*
D29*
X43220000Y-61500000D02*
X43220000Y-78000000D01*
X66220000Y-61500000D02*
X66220000Y-78000000D01*
X89220000Y-61500000D02*
X89220000Y-78000000D01*
X66220000Y-61500000D02*
X66220000Y-59000000D01*
X89220000Y-72500000D02*
X98500000Y-72500000D01*
X98500000Y-70000000D02*
X98500000Y-72500000D01*
D28*
X24000000Y-83930000D02*
X28430000Y-83930000D01*
X31320000Y-86820000D02*
X31320000Y-89000000D01*
X28430000Y-83930000D02*
X31320000Y-86820000D01*
D29*
X32730000Y-23000000D02*
X32730000Y-19730000D01*
X42730000Y-23000000D02*
X42730000Y-19730000D01*
X62730000Y-23000000D02*
X62730000Y-19730000D01*
X72730000Y-23000000D02*
X72730000Y-19730000D01*
X52730000Y-23000000D02*
X52730000Y-19730000D01*
X43220000Y-59000000D02*
X43220000Y-61500000D01*
X89220000Y-60220000D02*
X88000000Y-59000000D01*
X89220000Y-61500000D02*
X89220000Y-60220000D01*
X88000000Y-59000000D02*
X43220000Y-59000000D01*
X26230000Y-19500000D02*
X22730000Y-23000000D01*
X79230000Y-19500000D02*
X26230000Y-19500000D01*
X82730000Y-23000000D02*
X79230000Y-19500000D01*
X33250000Y-59000000D02*
X43220000Y-59000000D01*
X29750000Y-55500000D02*
X21250000Y-55500000D01*
X29750000Y-55500000D02*
X33250000Y-59000000D01*
X17000000Y-28730000D02*
X22730000Y-23000000D01*
X17000000Y-51500000D02*
X17000000Y-28730000D01*
X21000000Y-55500000D02*
X17000000Y-51500000D01*
X21000000Y-80930000D02*
X21000000Y-55500000D01*
X24000000Y-83930000D02*
X21000000Y-80930000D01*
X21000000Y-55500000D02*
X29750000Y-55500000D01*
D28*
X30000000Y-67675001D02*
X30000000Y-78861409D01*
X30675001Y-67000000D02*
X30000000Y-67675001D01*
X31320000Y-67000000D02*
X30675001Y-67000000D01*
X34963651Y-83825060D02*
X30000000Y-78861409D01*
X36674940Y-83825060D02*
X34963651Y-83825060D01*
X36674940Y-83825060D02*
X93269292Y-83825060D01*
X95644232Y-86200000D02*
X93269292Y-83825060D01*
X105750000Y-86200000D02*
X95644232Y-86200000D01*
X53000000Y-67675001D02*
X53000000Y-78910001D01*
X53675001Y-67000000D02*
X53000000Y-67675001D01*
X54320000Y-67000000D02*
X53675001Y-67000000D01*
X57015039Y-82925040D02*
X53000000Y-78910001D01*
X58574960Y-82925040D02*
X57015039Y-82925040D01*
X58574960Y-82925040D02*
X93642092Y-82925040D01*
X95317052Y-84600000D02*
X93642092Y-82925040D01*
X105750000Y-84600000D02*
X95317052Y-84600000D01*
X76000000Y-67675001D02*
X76000000Y-79049999D01*
X76675001Y-67000000D02*
X76000000Y-67675001D01*
X77320000Y-67000000D02*
X76675001Y-67000000D01*
X78975021Y-82025020D02*
X76000000Y-79049999D01*
X80525020Y-82025020D02*
X78975021Y-82025020D01*
X80525020Y-82025020D02*
X94014892Y-82025020D01*
X94989872Y-83000000D02*
X94014892Y-82025020D01*
X105750000Y-83000000D02*
X94989872Y-83000000D01*
X31320000Y-78900000D02*
X31320000Y-78000000D01*
X35795050Y-83375050D02*
X31320000Y-78900000D01*
X36624950Y-83375050D02*
X35795050Y-83375050D01*
X93455692Y-83375050D02*
X36624950Y-83375050D01*
X95480642Y-85400000D02*
X93455692Y-83375050D01*
X105750000Y-85400000D02*
X95480642Y-85400000D01*
X54320000Y-78000000D02*
X54320000Y-78948592D01*
X57846438Y-82475030D02*
X54320000Y-78948592D01*
X59024970Y-82475030D02*
X57846438Y-82475030D01*
X59024970Y-82475030D02*
X93828492Y-82475030D01*
X95153462Y-83800000D02*
X93828492Y-82475030D01*
X105750000Y-83800000D02*
X95153462Y-83800000D01*
X77320000Y-78000000D02*
X77320000Y-79088590D01*
X79806420Y-81575010D02*
X77320000Y-79088590D01*
X81424990Y-81575010D02*
X79806420Y-81575010D01*
X81424990Y-81575010D02*
X94201292Y-81575010D01*
X94826282Y-82200000D02*
X94201292Y-81575010D01*
X105750000Y-82200000D02*
X94826282Y-82200000D01*
X96665000Y-92500000D02*
X99550000Y-92500000D01*
X114250000Y-84600000D02*
X119500000Y-84600000D01*
D29*
X101500000Y-70000000D02*
X101500000Y-72500000D01*
X108000000Y-89250000D02*
X108000000Y-92000000D01*
X105500000Y-92000000D02*
X108000000Y-92000000D01*
X101450000Y-92500000D02*
X105000000Y-92500000D01*
X105000000Y-92500000D02*
X105500000Y-92000000D01*
X101450000Y-93550000D02*
X101450000Y-92500000D01*
X100500000Y-94500000D02*
X101450000Y-93550000D01*
X89500000Y-93500000D02*
X90500000Y-94500000D01*
X90500000Y-94500000D02*
X100500000Y-94500000D01*
X89500000Y-90500000D02*
X89500000Y-93500000D01*
X90040000Y-89960000D02*
X89500000Y-90500000D01*
X91585000Y-89960000D02*
X90040000Y-89960000D01*
X108000000Y-89250000D02*
X108000000Y-83500000D01*
X101500000Y-72500000D02*
X104000000Y-72500000D01*
X110400000Y-80600000D02*
X110400000Y-75500000D01*
X110400000Y-80750000D02*
X110400000Y-80600000D01*
X108800000Y-80750000D02*
X108800000Y-78000000D01*
X106500000Y-72500000D02*
X108800000Y-74800000D01*
X108800000Y-74800000D02*
X108800000Y-78000000D01*
X104000000Y-72500000D02*
X106500000Y-72500000D01*
X109000000Y-72500000D02*
X110400000Y-73900000D01*
X110400000Y-73900000D02*
X110400000Y-75500000D01*
X106500000Y-72500000D02*
X109000000Y-72500000D01*
X108800000Y-80750000D02*
X108800000Y-81950000D01*
X108000000Y-82750000D02*
X108000000Y-83500000D01*
X108800000Y-81950000D02*
X108000000Y-82750000D01*
X39905000Y-54700000D02*
X39905000Y-52155000D01*
X39905000Y-52155000D02*
X39250000Y-51500000D01*
X39250000Y-51500000D02*
X34250000Y-51500000D01*
X33555000Y-50805000D02*
X33555000Y-49300000D01*
X34250000Y-51500000D02*
X33555000Y-50805000D01*
X33555000Y-49300000D02*
X30750000Y-49300000D01*
X100750000Y-70000000D02*
X101500000Y-70000000D01*
X100000000Y-69250000D02*
X100750000Y-70000000D01*
X100000000Y-63250000D02*
X100000000Y-69250000D01*
X95000000Y-58250000D02*
X100000000Y-63250000D01*
X33500000Y-58250000D02*
X95000000Y-58250000D01*
X30750000Y-55500000D02*
X33500000Y-58250000D01*
X30750000Y-49300000D02*
X30750000Y-55500000D01*
D28*
X107200000Y-90589998D02*
X107200000Y-89250000D01*
X106789998Y-91000000D02*
X107200000Y-90589998D01*
X98500000Y-91000000D02*
X106789998Y-91000000D01*
X98200000Y-91300000D02*
X98500000Y-91000000D01*
X95325000Y-91300000D02*
X98200000Y-91300000D01*
X94125000Y-92500000D02*
X95325000Y-91300000D01*
X97085000Y-87000000D02*
X94125000Y-89960000D01*
X105750000Y-87000000D02*
X97085000Y-87000000D01*
X94689001Y-91135001D02*
X92949999Y-91135001D01*
X95442999Y-90381003D02*
X94689001Y-91135001D01*
X95442999Y-89442999D02*
X95442999Y-90381003D01*
X92949999Y-91135001D02*
X92760001Y-91324999D01*
X97085998Y-87800000D02*
X95442999Y-89442999D01*
X92760001Y-91324999D02*
X91585000Y-92500000D01*
X105750000Y-87800000D02*
X97085998Y-87800000D01*
X43220000Y-87000000D02*
X45500000Y-87000000D01*
X45500000Y-87000000D02*
X48224930Y-84275070D01*
X112000000Y-89250000D02*
X112000000Y-95000000D01*
X112000000Y-95000000D02*
X111250000Y-95750000D01*
X111250000Y-95750000D02*
X89250000Y-95750000D01*
X89250000Y-95750000D02*
X87000000Y-93500000D01*
X87000000Y-86550140D02*
X84724930Y-84275070D01*
X87000000Y-93500000D02*
X87000000Y-86550140D01*
X48224930Y-84275070D02*
X84724930Y-84275070D01*
D29*
X109600000Y-89250000D02*
X109600000Y-90600000D01*
X110000000Y-91000000D02*
X110000000Y-92000000D01*
X109600000Y-90600000D02*
X110000000Y-91000000D01*
D28*
X36000000Y-64730000D02*
X37270000Y-66000000D01*
X36000000Y-61500000D02*
X36000000Y-64730000D01*
X38270000Y-67000000D02*
X37270000Y-66000000D01*
X41320000Y-67000000D02*
X38270000Y-67000000D01*
D29*
X38540000Y-61500000D02*
X41320000Y-61500000D01*
D28*
X35320000Y-67000000D02*
X36320000Y-68000000D01*
X33220000Y-67000000D02*
X35320000Y-67000000D01*
X58320000Y-67000000D02*
X59320000Y-68000000D01*
X56220000Y-67000000D02*
X58320000Y-67000000D01*
X81320000Y-67000000D02*
X82320000Y-68000000D01*
X79220000Y-67000000D02*
X81320000Y-67000000D01*
X35320000Y-78000000D02*
X36320000Y-79000000D01*
X33220000Y-78000000D02*
X35320000Y-78000000D01*
X58320000Y-78000000D02*
X59320000Y-79000000D01*
X56220000Y-78000000D02*
X58320000Y-78000000D01*
X81320000Y-78000000D02*
X82320000Y-79000000D01*
X79220000Y-78000000D02*
X81320000Y-78000000D01*
X38220000Y-87000000D02*
X41320000Y-87000000D01*
X59000000Y-64730000D02*
X60270000Y-66000000D01*
X59000000Y-61500000D02*
X59000000Y-64730000D01*
X61270000Y-67000000D02*
X60270000Y-66000000D01*
X64320000Y-67000000D02*
X61270000Y-67000000D01*
D29*
X61540000Y-61500000D02*
X64320000Y-61500000D01*
D28*
X82000000Y-64730000D02*
X83270000Y-66000000D01*
X82000000Y-61500000D02*
X82000000Y-64730000D01*
X84270000Y-67000000D02*
X83270000Y-66000000D01*
X87320000Y-67000000D02*
X84270000Y-67000000D01*
D29*
X84540000Y-61500000D02*
X87320000Y-61500000D01*
D28*
X36000000Y-75730000D02*
X37270000Y-77000000D01*
X36000000Y-72500000D02*
X36000000Y-75730000D01*
X38270000Y-78000000D02*
X37270000Y-77000000D01*
X41320000Y-78000000D02*
X38270000Y-78000000D01*
D29*
X38540000Y-72500000D02*
X41320000Y-72500000D01*
D28*
X59000000Y-75730000D02*
X60270000Y-77000000D01*
X59000000Y-72500000D02*
X59000000Y-75730000D01*
X61270000Y-78000000D02*
X60270000Y-77000000D01*
X64320000Y-78000000D02*
X61270000Y-78000000D01*
D29*
X61540000Y-72500000D02*
X64320000Y-72500000D01*
D28*
X82000000Y-75730000D02*
X83270000Y-77000000D01*
X82000000Y-72500000D02*
X82000000Y-75730000D01*
X84270000Y-78000000D02*
X83270000Y-77000000D01*
X87320000Y-78000000D02*
X84270000Y-78000000D01*
D29*
X84540000Y-72500000D02*
X87320000Y-72500000D01*
D28*
X103450000Y-103000000D02*
X103450000Y-99500000D01*
X120500000Y-93450000D02*
X109750000Y-104200000D01*
X120500000Y-88272820D02*
X120500000Y-93450000D01*
X119227180Y-87000000D02*
X120500000Y-88272820D01*
X114250000Y-87000000D02*
X119227180Y-87000000D01*
X114250000Y-87000000D02*
X111250000Y-87000000D01*
X110250000Y-86000000D02*
X109000000Y-86000000D01*
X111250000Y-87000000D02*
X110250000Y-86000000D01*
X37000000Y-104900000D02*
X35800000Y-106100000D01*
X37000000Y-102000000D02*
X37000000Y-104900000D01*
X54500000Y-104900000D02*
X53300000Y-106100000D01*
X54500000Y-102000000D02*
X54500000Y-104900000D01*
X72000000Y-104900000D02*
X70800000Y-106100000D01*
X72000000Y-102000000D02*
X72000000Y-104900000D01*
X112800000Y-93950000D02*
X112800000Y-89250000D01*
X112800000Y-95200000D02*
X112800000Y-93950000D01*
X111500000Y-96500000D02*
X112800000Y-95200000D01*
X77000000Y-96500000D02*
X111500000Y-96500000D01*
X72000000Y-101500000D02*
X77000000Y-96500000D01*
X120950000Y-103000000D02*
X120950000Y-89300000D01*
X114250000Y-86200000D02*
X119063590Y-86200000D01*
X120950000Y-88086410D02*
X120950000Y-89300000D01*
X119063590Y-86200000D02*
X120950000Y-88086410D01*
X111200000Y-86200000D02*
X110000000Y-85000000D01*
X114250000Y-86200000D02*
X111200000Y-86200000D01*
X134200000Y-98750000D02*
X138450000Y-103000000D01*
X124300020Y-98750000D02*
X134200000Y-98750000D01*
X121400010Y-95849990D02*
X124300020Y-98750000D01*
X121400010Y-87900010D02*
X121400010Y-95849990D01*
X118900000Y-85400000D02*
X121400010Y-87900010D01*
X114250000Y-85400000D02*
X118900000Y-85400000D01*
X112400000Y-85400000D02*
X111000000Y-84000000D01*
X114250000Y-85400000D02*
X112400000Y-85400000D01*
X107250000Y-104900000D02*
X106050000Y-106100000D01*
X107250000Y-102000000D02*
X107250000Y-104900000D01*
X124750000Y-104900000D02*
X123550000Y-106100000D01*
X124750000Y-102000000D02*
X124750000Y-104900000D01*
X142250000Y-104900000D02*
X141050000Y-106100000D01*
X142250000Y-102000000D02*
X142250000Y-104900000D01*
X111813590Y-101500000D02*
X107250000Y-101500000D01*
X120049990Y-93263600D02*
X111813590Y-101500000D01*
X120049990Y-88459220D02*
X120049990Y-93263600D01*
X119390770Y-87800000D02*
X120049990Y-88459220D01*
X114250000Y-87800000D02*
X119390770Y-87800000D01*
X114250000Y-82200000D02*
X118500000Y-82200000D01*
X114250000Y-83000000D02*
X117500000Y-83000000D01*
X114250000Y-83800000D02*
X116500000Y-83800000D01*
X67240000Y-49000000D02*
X62789944Y-44549944D01*
X34825000Y-48300000D02*
X34825000Y-49300000D01*
X38575056Y-44549944D02*
X34825000Y-48300000D01*
X62789944Y-44549944D02*
X38575056Y-44549944D01*
X29520050Y-27250050D02*
X25270000Y-23000000D01*
X90000000Y-28500000D02*
X30770000Y-28500000D01*
X91299940Y-29799940D02*
X90000000Y-28500000D01*
X30770000Y-28500000D02*
X29520050Y-27250050D01*
X91299940Y-41881600D02*
X91299940Y-29799940D01*
X88431590Y-44749950D02*
X91299940Y-41881600D01*
X74030050Y-44749950D02*
X88431590Y-44749950D01*
X69780000Y-49000000D02*
X74030050Y-44749950D01*
X39070040Y-26800040D02*
X35270000Y-23000000D01*
X88617990Y-45199960D02*
X91749950Y-42068000D01*
X76120040Y-45199960D02*
X72320000Y-49000000D01*
X88617990Y-45199960D02*
X76120040Y-45199960D01*
X91749950Y-30249950D02*
X91749949Y-29613539D01*
X91749950Y-42068000D02*
X91749950Y-30249950D01*
X91749949Y-29613539D02*
X90186400Y-28049990D01*
X87950010Y-28049990D02*
X40319990Y-28049990D01*
X40319990Y-28049990D02*
X39070040Y-26800040D01*
X90186400Y-28049990D02*
X87950010Y-28049990D01*
X87950010Y-28049990D02*
X87049990Y-28049990D01*
X48620030Y-26350030D02*
X45270000Y-23000000D01*
X49869980Y-27599980D02*
X48620030Y-26350030D01*
X90372800Y-27599980D02*
X49869980Y-27599980D01*
X92199960Y-42254400D02*
X92199960Y-29427140D01*
X88804390Y-45649970D02*
X92199960Y-42254400D01*
X92199960Y-29427140D02*
X90372800Y-27599980D01*
X78210030Y-45649970D02*
X88804390Y-45649970D01*
X74860000Y-49000000D02*
X78210030Y-45649970D01*
X58170020Y-25900020D02*
X55270000Y-23000000D01*
X59419970Y-27149970D02*
X58170020Y-25900020D01*
X90559200Y-27149970D02*
X59419970Y-27149970D01*
X92649969Y-29240739D02*
X90559200Y-27149970D01*
X92649970Y-42440800D02*
X92649969Y-29240739D01*
X88990790Y-46099980D02*
X92649970Y-42440800D01*
X80300020Y-46099980D02*
X88990790Y-46099980D01*
X77400000Y-49000000D02*
X80300020Y-46099980D01*
X68969960Y-26699960D02*
X65270000Y-23000000D01*
X90745600Y-26699960D02*
X68969960Y-26699960D01*
X93099978Y-29599978D02*
X93099978Y-29054338D01*
X93099978Y-29054338D02*
X90745600Y-26699960D01*
X93099980Y-42627200D02*
X93099980Y-29599980D01*
X89177190Y-46549990D02*
X93099980Y-42627200D01*
X93099980Y-29599980D02*
X93099978Y-29599978D01*
X82390010Y-46549990D02*
X89177190Y-46549990D01*
X79940000Y-49000000D02*
X82390010Y-46549990D01*
X78519950Y-26249950D02*
X75270000Y-23000000D01*
X90932000Y-26249950D02*
X78519950Y-26249950D01*
X93549988Y-29049988D02*
X93549987Y-28867937D01*
X93549990Y-29049990D02*
X93549988Y-29049988D01*
X93549987Y-28867937D02*
X90932000Y-26249950D01*
X93549990Y-42813600D02*
X93549990Y-29049990D01*
X84480000Y-47000000D02*
X89363590Y-47000000D01*
X89363590Y-47000000D02*
X93549990Y-42813600D01*
X82480000Y-49000000D02*
X84480000Y-47000000D01*
X64700000Y-49000000D02*
X60699952Y-44999952D01*
X36095000Y-48300000D02*
X36095000Y-49300000D01*
X39395047Y-44999953D02*
X36095000Y-48300000D01*
X60699952Y-44999952D02*
X39395047Y-44999953D01*
X91118400Y-25799940D02*
X88069940Y-25799940D01*
X93999999Y-28681539D02*
X91118400Y-25799940D01*
X88069940Y-25799940D02*
X85270000Y-23000000D01*
X94000000Y-43000000D02*
X93999999Y-28681539D01*
X89549990Y-47450010D02*
X94000000Y-43000000D01*
X86569990Y-47450010D02*
X89549990Y-47450010D01*
X85020000Y-49000000D02*
X86569990Y-47450010D01*
X52000000Y-49000000D02*
X50250000Y-47250000D01*
X50250000Y-47250000D02*
X43500000Y-47250000D01*
X42445000Y-48305000D02*
X42445000Y-49300000D01*
X43500000Y-47250000D02*
X42445000Y-48305000D01*
X52339990Y-46799990D02*
X54540000Y-49000000D01*
X42675010Y-46799990D02*
X52339990Y-46799990D01*
X41175000Y-48300000D02*
X42675010Y-46799990D01*
X41175000Y-49300000D02*
X41175000Y-48300000D01*
X39905000Y-48300000D02*
X41855020Y-46349980D01*
X39905000Y-49300000D02*
X39905000Y-48300000D01*
X54429980Y-46349980D02*
X57080000Y-49000000D01*
X41855020Y-46349980D02*
X54429980Y-46349980D01*
X59620000Y-49000000D02*
X56519970Y-45899970D01*
X38635000Y-48300000D02*
X38635000Y-49300000D01*
X41035029Y-45899971D02*
X38635000Y-48300000D01*
X56519970Y-45899970D02*
X41035029Y-45899971D01*
X62160000Y-49000000D02*
X58609960Y-45449962D01*
X37365000Y-48300000D02*
X37365000Y-49300000D01*
X40215038Y-45449962D02*
X37365000Y-48300000D01*
X58609960Y-45449962D02*
X40215038Y-45449962D01*
X33555000Y-55700000D02*
X35505020Y-57650020D01*
X33555000Y-54700000D02*
X33555000Y-55700000D01*
X35505020Y-57650020D02*
X91400020Y-57650020D01*
X91400020Y-57650020D02*
X95377200Y-57650020D01*
X95377200Y-57650020D02*
X106000000Y-68272820D01*
X106000000Y-68272820D02*
X106000000Y-70250000D01*
X106000000Y-74000000D02*
X106000000Y-75250000D01*
X106000000Y-75250000D02*
X105250000Y-76000000D01*
X105250000Y-76000000D02*
X105250000Y-79750000D01*
X106250000Y-80750000D02*
X107200000Y-80750000D01*
X105250000Y-79750000D02*
X106250000Y-80750000D01*
X115000000Y-75750000D02*
X112000000Y-78750000D01*
X115000000Y-73636410D02*
X115000000Y-75750000D01*
X110063600Y-71700010D02*
X113063600Y-71700010D01*
X95563600Y-57200010D02*
X110063600Y-71700010D01*
X112000000Y-78750000D02*
X112000000Y-80750000D01*
X36325010Y-57200010D02*
X95563600Y-57200010D01*
X34825000Y-55700000D02*
X36325010Y-57200010D01*
X113063600Y-71700010D02*
X115000000Y-73636410D01*
X34825000Y-54700000D02*
X34825000Y-55700000D01*
X110250000Y-71250000D02*
X113250000Y-71250000D01*
X95750000Y-56750000D02*
X110250000Y-71250000D01*
X37000000Y-56750000D02*
X95750000Y-56750000D01*
X36095000Y-55845000D02*
X37000000Y-56750000D01*
X36095000Y-54700000D02*
X36095000Y-55845000D01*
X112800000Y-80750000D02*
X112800000Y-78586410D01*
X112800000Y-78586410D02*
X115450010Y-75936400D01*
X115450009Y-73450009D02*
X113250000Y-71250000D01*
X115450010Y-75936400D02*
X115450009Y-73450009D01*
M02*
