G04 #@! TF.GenerationSoftware,KiCad,Pcbnew,(6.0.10)*
G04 #@! TF.CreationDate,2023-06-11T02:10:43+02:00*
G04 #@! TF.ProjectId,Stereo-Decoder-Modul,53746572-656f-42d4-9465-636f6465722d,rev?*
G04 #@! TF.SameCoordinates,Original*
G04 #@! TF.FileFunction,Copper,L1,Top*
G04 #@! TF.FilePolarity,Positive*
%FSLAX46Y46*%
G04 Gerber Fmt 4.6, Leading zero omitted, Abs format (unit mm)*
G04 Created by KiCad (PCBNEW (6.0.10)) date 2023-06-11 02:10:43*
%MOMM*%
%LPD*%
G01*
G04 APERTURE LIST*
G04 #@! TA.AperFunction,ComponentPad*
%ADD10C,1.600000*%
G04 #@! TD*
G04 #@! TA.AperFunction,ComponentPad*
%ADD11O,1.600000X1.600000*%
G04 #@! TD*
G04 #@! TA.AperFunction,ComponentPad*
%ADD12C,2.000000*%
G04 #@! TD*
G04 #@! TA.AperFunction,ComponentPad*
%ADD13R,1.600000X1.600000*%
G04 #@! TD*
G04 #@! TA.AperFunction,ComponentPad*
%ADD14C,1.500000*%
G04 #@! TD*
G04 #@! TA.AperFunction,ComponentPad*
%ADD15R,2.400000X1.600000*%
G04 #@! TD*
G04 #@! TA.AperFunction,ComponentPad*
%ADD16O,2.400000X1.600000*%
G04 #@! TD*
G04 #@! TA.AperFunction,ComponentPad*
%ADD17C,2.340000*%
G04 #@! TD*
G04 #@! TA.AperFunction,ViaPad*
%ADD18C,0.800000*%
G04 #@! TD*
G04 #@! TA.AperFunction,Conductor*
%ADD19C,0.500000*%
G04 #@! TD*
G04 APERTURE END LIST*
D10*
X99000000Y-60750000D03*
D11*
X99000000Y-55670000D03*
D10*
X84000000Y-75120000D03*
D11*
X84000000Y-72580000D03*
D10*
X109765000Y-80280000D03*
D11*
X104685000Y-80280000D03*
D10*
X80250000Y-69250000D03*
X80250000Y-64250000D03*
X62750000Y-90750000D03*
D11*
X67830000Y-90750000D03*
D10*
X86000000Y-60750000D03*
D11*
X86000000Y-55670000D03*
D12*
X72000000Y-80000000D03*
X72000000Y-72500000D03*
X128000000Y-71750000D03*
D10*
X75250000Y-60750000D03*
D11*
X75250000Y-55670000D03*
D10*
X114830000Y-50250000D03*
D11*
X109750000Y-50250000D03*
D10*
X114250000Y-90750000D03*
D11*
X109170000Y-90750000D03*
D10*
X106250000Y-90750000D03*
D11*
X101170000Y-90750000D03*
D13*
X120250000Y-50250000D03*
D10*
X122250000Y-50250000D03*
D12*
X62750000Y-79500000D03*
X62750000Y-87000000D03*
D10*
X81000000Y-60750000D03*
D11*
X81000000Y-55670000D03*
D14*
X114000000Y-80210000D03*
X116540000Y-82750000D03*
X114000000Y-85290000D03*
D12*
X127750000Y-75750000D03*
X135250000Y-75750000D03*
D10*
X109765000Y-85250000D03*
D11*
X104685000Y-85250000D03*
D12*
X127750000Y-90750000D03*
X135250000Y-90750000D03*
D15*
X88675000Y-67500000D03*
D16*
X88675000Y-70040000D03*
X88675000Y-72580000D03*
X88675000Y-75120000D03*
X88675000Y-77660000D03*
X88675000Y-80200000D03*
X88675000Y-82740000D03*
X88675000Y-85280000D03*
X96295000Y-85280000D03*
X96295000Y-82740000D03*
X96295000Y-80200000D03*
X96295000Y-77660000D03*
X96295000Y-75120000D03*
X96295000Y-72580000D03*
X96295000Y-70040000D03*
X96295000Y-67500000D03*
D12*
X122250000Y-87000000D03*
X122250000Y-79500000D03*
D17*
X104000000Y-49000000D03*
X101500000Y-51500000D03*
X99000000Y-49000000D03*
D10*
X62750000Y-60750000D03*
D11*
X62750000Y-55670000D03*
D10*
X72500000Y-90750000D03*
D11*
X72500000Y-85670000D03*
D12*
X128000000Y-86750000D03*
D14*
X68250000Y-55670000D03*
X70790000Y-58210000D03*
X68250000Y-60750000D03*
D10*
X109750000Y-60750000D03*
D11*
X109750000Y-55670000D03*
D10*
X98250000Y-90750000D03*
D11*
X93170000Y-90750000D03*
D10*
X70000000Y-69250000D03*
X70000000Y-64250000D03*
D13*
X81000000Y-85670000D03*
D10*
X81000000Y-89170000D03*
D12*
X127750000Y-60750000D03*
X135250000Y-60750000D03*
D10*
X106065000Y-69250000D03*
X106065000Y-74250000D03*
D12*
X49750000Y-75750000D03*
X57250000Y-75750000D03*
D10*
X106065000Y-64750000D03*
D11*
X100985000Y-64750000D03*
D17*
X86000000Y-49000000D03*
X83500000Y-51500000D03*
X81000000Y-49000000D03*
D10*
X101000000Y-74250000D03*
X101000000Y-69250000D03*
X122250000Y-60750000D03*
D11*
X122250000Y-55670000D03*
D10*
X114845000Y-75250000D03*
D11*
X109765000Y-75250000D03*
D12*
X62750000Y-64500000D03*
X62750000Y-72000000D03*
D13*
X64750000Y-50250000D03*
D10*
X62750000Y-50250000D03*
X101000000Y-85280000D03*
X101000000Y-80280000D03*
D12*
X92500000Y-60250000D03*
X92500000Y-52750000D03*
D10*
X114845000Y-64750000D03*
D11*
X109765000Y-64750000D03*
D12*
X49750000Y-90750000D03*
X57250000Y-90750000D03*
D14*
X116750000Y-60750000D03*
X114210000Y-58210000D03*
X116750000Y-55670000D03*
D10*
X122250000Y-90750000D03*
D11*
X117170000Y-90750000D03*
D10*
X84000000Y-80200000D03*
D11*
X84000000Y-77660000D03*
D14*
X109765000Y-71520000D03*
X112305000Y-68980000D03*
X114845000Y-71520000D03*
D10*
X104000000Y-60750000D03*
D11*
X104000000Y-55670000D03*
D10*
X70170000Y-50250000D03*
D11*
X75250000Y-50250000D03*
D12*
X122250000Y-72000000D03*
X122250000Y-64500000D03*
X78250000Y-72500000D03*
X78250000Y-80000000D03*
X49750000Y-60750000D03*
X57250000Y-60750000D03*
D18*
X53500000Y-53250000D03*
X126000000Y-57000000D03*
X53500000Y-68250000D03*
X67500000Y-100750000D03*
X53500000Y-83250000D03*
X131500000Y-68250000D03*
X131500000Y-83250000D03*
D19*
X95500000Y-60750000D02*
X93750000Y-62500000D01*
X104000000Y-60750000D02*
X95500000Y-60750000D01*
X94540000Y-70040000D02*
X96295000Y-70040000D01*
X93750000Y-69250000D02*
X94540000Y-70040000D01*
X93750000Y-62500000D02*
X93750000Y-69250000D01*
X96295000Y-85280000D02*
X101000000Y-85280000D01*
X101170000Y-88670000D02*
X101000000Y-88500000D01*
X101000000Y-85280000D02*
X101000000Y-88500000D01*
X101170000Y-90750000D02*
X101170000Y-88670000D01*
X106065000Y-64750000D02*
X106065000Y-69250000D01*
X96295000Y-82740000D02*
X100260000Y-82740000D01*
X101000000Y-82000000D02*
X101000000Y-80280000D01*
X100260000Y-82740000D02*
X101000000Y-82000000D01*
X109750000Y-55670000D02*
X111670000Y-55670000D01*
X111670000Y-55670000D02*
X114210000Y-58210000D01*
X71000000Y-77750000D02*
X73750000Y-77750000D01*
X73750000Y-77750000D02*
X76000000Y-80000000D01*
X78450000Y-80200000D02*
X78250000Y-80000000D01*
X69875000Y-66625000D02*
X68250000Y-68250000D01*
X79000000Y-60750000D02*
X73125000Y-66625000D01*
X68250000Y-75000000D02*
X71000000Y-77750000D01*
X73125000Y-66625000D02*
X69875000Y-66625000D01*
X81000000Y-60750000D02*
X79000000Y-60750000D01*
X88675000Y-80200000D02*
X84000000Y-80200000D01*
X76000000Y-80000000D02*
X78250000Y-80000000D01*
X84000000Y-80200000D02*
X78450000Y-80200000D01*
X68250000Y-68250000D02*
X68250000Y-75000000D01*
X53500000Y-49500000D02*
X53500000Y-53250000D01*
X55750000Y-47250000D02*
X53500000Y-49500000D01*
X62750000Y-50250000D02*
X59750000Y-47250000D01*
X59750000Y-47250000D02*
X55750000Y-47250000D01*
X84000000Y-72580000D02*
X84000000Y-67500000D01*
X88675000Y-72580000D02*
X84000000Y-72580000D01*
X84000000Y-67500000D02*
X86000000Y-65500000D01*
X86000000Y-65500000D02*
X86000000Y-60750000D01*
X73330000Y-60750000D02*
X70790000Y-58210000D01*
X75250000Y-60750000D02*
X73330000Y-60750000D01*
X75250000Y-62000000D02*
X75250000Y-60750000D01*
X70000000Y-64250000D02*
X73000000Y-64250000D01*
X73000000Y-64250000D02*
X75250000Y-62000000D01*
X83670000Y-85670000D02*
X90750000Y-92750000D01*
X90750000Y-92750000D02*
X101500000Y-92750000D01*
X104685000Y-89565000D02*
X104685000Y-85250000D01*
X101500000Y-92750000D02*
X104685000Y-89565000D01*
X72500000Y-85670000D02*
X83670000Y-85670000D01*
X124500000Y-55500000D02*
X124500000Y-54250000D01*
X122250000Y-50250000D02*
X122250000Y-52000000D01*
X122250000Y-52000000D02*
X124500000Y-54250000D01*
X126000000Y-57000000D02*
X124500000Y-55500000D01*
X68250000Y-54000000D02*
X68250000Y-55670000D01*
X70170000Y-52080000D02*
X68250000Y-54000000D01*
X70170000Y-50250000D02*
X64750000Y-50250000D01*
X68250000Y-55670000D02*
X75250000Y-55670000D01*
X70170000Y-50250000D02*
X70170000Y-52080000D01*
X109765000Y-71520000D02*
X109765000Y-80280000D01*
X109765000Y-80280000D02*
X109765000Y-85250000D01*
X97800000Y-80200000D02*
X99750000Y-78250000D01*
X99750000Y-78250000D02*
X104000000Y-78250000D01*
X104685000Y-78935000D02*
X104685000Y-80280000D01*
X104000000Y-78250000D02*
X104685000Y-78935000D01*
X96295000Y-80200000D02*
X97800000Y-80200000D01*
X61000000Y-64500000D02*
X57250000Y-60750000D01*
X53500000Y-64500000D02*
X57250000Y-60750000D01*
X53500000Y-68250000D02*
X53500000Y-64500000D01*
X62750000Y-64500000D02*
X61000000Y-64500000D01*
X114830000Y-50250000D02*
X114830000Y-56080000D01*
X114830000Y-56080000D02*
X116750000Y-58000000D01*
X116750000Y-58000000D02*
X116750000Y-60750000D01*
X116750000Y-60750000D02*
X109750000Y-60750000D01*
X114830000Y-50250000D02*
X120250000Y-50250000D01*
X114000000Y-87750000D02*
X114000000Y-85290000D01*
X109170000Y-90750000D02*
X111000000Y-90750000D01*
X111000000Y-90750000D02*
X114000000Y-87750000D01*
X104000000Y-49000000D02*
X104000000Y-55670000D01*
X75250000Y-46250000D02*
X49500000Y-46250000D01*
X105750000Y-46250000D02*
X109750000Y-50250000D01*
X49500000Y-46250000D02*
X47500000Y-48250000D01*
X51000000Y-100750000D02*
X67500000Y-100750000D01*
X79250000Y-46250000D02*
X105750000Y-46250000D01*
X47500000Y-97250000D02*
X51000000Y-100750000D01*
X75250000Y-50250000D02*
X75250000Y-46250000D01*
X75250000Y-46250000D02*
X79250000Y-46250000D01*
X47500000Y-48250000D02*
X47500000Y-97250000D01*
X114845000Y-64750000D02*
X114845000Y-71520000D01*
X62750000Y-90750000D02*
X57250000Y-90750000D01*
X112305000Y-68980000D02*
X112305000Y-72710000D01*
X114000000Y-78500000D02*
X114000000Y-80210000D01*
X112305000Y-72710000D02*
X114845000Y-75250000D01*
X114845000Y-75250000D02*
X114845000Y-77655000D01*
X114845000Y-77655000D02*
X114000000Y-78500000D01*
X62750000Y-55670000D02*
X65170000Y-55670000D01*
X68250000Y-58750000D02*
X68250000Y-60750000D01*
X65170000Y-55670000D02*
X68250000Y-58750000D01*
X116750000Y-55670000D02*
X122250000Y-55670000D01*
X93170000Y-85170000D02*
X90740000Y-82740000D01*
X93170000Y-90750000D02*
X93170000Y-85170000D01*
X90740000Y-82740000D02*
X88675000Y-82740000D01*
X106065000Y-74250000D02*
X101000000Y-74250000D01*
X101000000Y-74250000D02*
X99250000Y-74250000D01*
X98380000Y-75120000D02*
X96295000Y-75120000D01*
X99250000Y-74250000D02*
X98380000Y-75120000D01*
X99670000Y-72580000D02*
X101000000Y-71250000D01*
X96295000Y-72580000D02*
X99670000Y-72580000D01*
X100985000Y-64750000D02*
X100985000Y-69235000D01*
X101000000Y-71250000D02*
X101000000Y-69250000D01*
X100985000Y-69235000D02*
X101000000Y-69250000D01*
X92500000Y-60250000D02*
X92500000Y-76250000D01*
X93910000Y-77660000D02*
X96295000Y-77660000D01*
X92500000Y-76250000D02*
X93910000Y-77660000D01*
X92500000Y-55250000D02*
X90500000Y-57250000D01*
X92500000Y-52750000D02*
X92500000Y-55250000D01*
X91250000Y-65250000D02*
X91250000Y-69000000D01*
X91250000Y-69000000D02*
X90210000Y-70040000D01*
X86000000Y-49000000D02*
X91000000Y-49000000D01*
X90210000Y-70040000D02*
X88675000Y-70040000D01*
X90500000Y-57250000D02*
X90500000Y-64500000D01*
X92500000Y-50500000D02*
X92500000Y-52750000D01*
X90500000Y-64500000D02*
X91250000Y-65250000D01*
X91000000Y-49000000D02*
X92500000Y-50500000D01*
X88675000Y-77660000D02*
X84000000Y-77660000D01*
X70000000Y-70500000D02*
X72000000Y-72500000D01*
X84000000Y-75120000D02*
X74620000Y-75120000D01*
X74620000Y-75120000D02*
X72000000Y-72500000D01*
X88675000Y-75120000D02*
X84000000Y-75120000D01*
X70000000Y-69250000D02*
X70000000Y-70500000D01*
X57250000Y-75750000D02*
X61000000Y-75750000D01*
X62750000Y-77500000D02*
X61000000Y-75750000D01*
X53500000Y-79500000D02*
X57250000Y-75750000D01*
X62750000Y-79500000D02*
X62750000Y-77500000D01*
X53500000Y-83250000D02*
X53500000Y-79500000D01*
X131500000Y-68250000D02*
X131500000Y-64500000D01*
X127750000Y-75750000D02*
X127750000Y-72000000D01*
X131500000Y-64500000D02*
X135250000Y-60750000D01*
X122250000Y-72000000D02*
X127750000Y-72000000D01*
X127750000Y-72000000D02*
X128625000Y-71125000D01*
X122250000Y-87000000D02*
X127750000Y-87000000D01*
X131500000Y-79500000D02*
X135250000Y-75750000D01*
X131500000Y-83250000D02*
X131500000Y-79500000D01*
X127750000Y-87000000D02*
X128625000Y-86125000D01*
X127750000Y-90750000D02*
X127750000Y-87000000D01*
X86000000Y-55670000D02*
X86000000Y-52500000D01*
X86000000Y-52500000D02*
X85000000Y-51500000D01*
X85000000Y-51500000D02*
X83500000Y-51500000D01*
X86000000Y-55670000D02*
X81000000Y-55670000D01*
M02*
