M48
; DRILL file {KiCad (5.1.7)-1} date 10/04/22 11:17:25
; FORMAT={-:-/ absolute / metric / decimal}
; #@! TF.CreationDate,2022-10-04T11:17:25+02:00
; #@! TF.GenerationSoftware,Kicad,Pcbnew,(5.1.7)-1
; #@! TF.FileFunction,Plated,1,2,PTH
FMAT,2
METRIC
T1C0.800
T2C1.750
%
G90
G05
T1
X44.25Y-41.84
X44.25Y-52.0
X44.21Y-57.46
X46.75Y-60.0
X49.29Y-57.46
X39.25Y-65.0
X39.25Y-75.16
X65.75Y-41.84
X65.75Y-52.0
X60.75Y-75.16
X65.75Y-75.16
X39.25Y-41.84
X39.25Y-52.0
X60.0Y-33.8
X60.0Y-36.3
X85.75Y-65.0
X85.75Y-75.16
X44.25Y-65.0
X44.25Y-75.16
X70.75Y-41.84
X70.75Y-52.0
X80.75Y-65.0
X80.75Y-75.16
X49.25Y-41.84
X49.25Y-52.0
X34.21Y-33.8
X36.75Y-36.34
X39.29Y-33.8
X70.71Y-33.8
X73.25Y-36.34
X75.79Y-33.8
X60.75Y-41.84
X60.75Y-52.0
X44.21Y-33.8
X46.75Y-36.34
X49.29Y-33.8
X34.25Y-65.0
X34.25Y-75.16
X75.75Y-65.0
X75.75Y-75.16
X80.75Y-52.0
X85.75Y-52.0
X34.25Y-41.84
X34.25Y-52.0
X75.75Y-41.84
X75.75Y-52.0
X49.25Y-65.0
X49.25Y-75.16
X34.21Y-57.46
X36.75Y-60.0
X39.29Y-57.46
X70.71Y-57.46
X73.25Y-60.0
X75.79Y-57.46
X70.75Y-65.0
X70.75Y-75.16
T2
X35.75Y-87.0
X40.75Y-87.0
X45.75Y-87.0
X50.75Y-87.0
X55.75Y-87.0
X60.75Y-87.0
X65.75Y-87.0
X70.75Y-87.0
X75.75Y-87.0
X80.75Y-87.0
X85.75Y-87.0
T0
M30
