G04 #@! TF.GenerationSoftware,KiCad,Pcbnew,(5.1.7)-1*
G04 #@! TF.CreationDate,2022-10-04T11:17:23+02:00*
G04 #@! TF.ProjectId,Impuls-Modul,496d7075-6c73-42d4-9d6f-64756c2e6b69,rev?*
G04 #@! TF.SameCoordinates,Original*
G04 #@! TF.FileFunction,Copper,L2,Bot*
G04 #@! TF.FilePolarity,Positive*
%FSLAX46Y46*%
G04 Gerber Fmt 4.6, Leading zero omitted, Abs format (unit mm)*
G04 Created by KiCad (PCBNEW (5.1.7)-1) date 2022-10-04 11:17:23*
%MOMM*%
%LPD*%
G01*
G04 APERTURE LIST*
G04 #@! TA.AperFunction,ComponentPad*
%ADD10O,2.000000X1.500000*%
G04 #@! TD*
G04 #@! TA.AperFunction,ComponentPad*
%ADD11O,1.500000X2.000000*%
G04 #@! TD*
G04 #@! TA.AperFunction,ComponentPad*
%ADD12O,1.600000X1.600000*%
G04 #@! TD*
G04 #@! TA.AperFunction,ComponentPad*
%ADD13C,1.600000*%
G04 #@! TD*
G04 #@! TA.AperFunction,ComponentPad*
%ADD14R,1.600000X1.600000*%
G04 #@! TD*
G04 #@! TA.AperFunction,ComponentPad*
%ADD15C,3.500000*%
G04 #@! TD*
G04 #@! TA.AperFunction,Conductor*
%ADD16C,0.500000*%
G04 #@! TD*
G04 #@! TA.AperFunction,Conductor*
%ADD17C,1.000000*%
G04 #@! TD*
G04 APERTURE END LIST*
D10*
X70710000Y-33800000D03*
X75790000Y-33800000D03*
D11*
X73250000Y-36340000D03*
D10*
X70710000Y-57460000D03*
X75790000Y-57460000D03*
D11*
X73250000Y-60000000D03*
D12*
X70750000Y-52000000D03*
D13*
X70750000Y-41840000D03*
D12*
X75750000Y-41840000D03*
D13*
X75750000Y-52000000D03*
X85750000Y-65000000D03*
D12*
X85750000Y-75160000D03*
D13*
X75750000Y-65000000D03*
D12*
X75750000Y-75160000D03*
X65750000Y-52000000D03*
D13*
X65750000Y-41840000D03*
D12*
X60750000Y-52000000D03*
D13*
X60750000Y-41840000D03*
X70750000Y-65000000D03*
D12*
X70750000Y-75160000D03*
D13*
X80750000Y-65000000D03*
D12*
X80750000Y-75160000D03*
D13*
X85750000Y-52000000D03*
X80750000Y-52000000D03*
X65750000Y-75160000D03*
X60750000Y-75160000D03*
D11*
X46750000Y-36340000D03*
D10*
X49290000Y-33800000D03*
X44210000Y-33800000D03*
D11*
X46750000Y-60000000D03*
D10*
X49290000Y-57460000D03*
X44210000Y-57460000D03*
D11*
X36750000Y-36340000D03*
D10*
X39290000Y-33800000D03*
X34210000Y-33800000D03*
D11*
X36750000Y-60000000D03*
D10*
X39290000Y-57460000D03*
X34210000Y-57460000D03*
D13*
X44250000Y-41840000D03*
D12*
X44250000Y-52000000D03*
D13*
X49250000Y-41840000D03*
D12*
X49250000Y-52000000D03*
D13*
X49250000Y-75160000D03*
D12*
X49250000Y-65000000D03*
D13*
X44250000Y-65000000D03*
D12*
X44250000Y-75160000D03*
D13*
X34250000Y-41840000D03*
D12*
X34250000Y-52000000D03*
D13*
X39250000Y-41840000D03*
D12*
X39250000Y-52000000D03*
D13*
X34250000Y-75160000D03*
D12*
X34250000Y-65000000D03*
D13*
X39250000Y-65000000D03*
D12*
X39250000Y-75160000D03*
D13*
X60000000Y-36300000D03*
D14*
X60000000Y-33800000D03*
D15*
X85750000Y-87000000D03*
X80750000Y-87000000D03*
X75750000Y-87000000D03*
X70750000Y-87000000D03*
X65750000Y-87000000D03*
X60750000Y-87000000D03*
X55750000Y-87000000D03*
X50750000Y-87000000D03*
X45750000Y-87000000D03*
X40750000Y-87000000D03*
X35750000Y-87000000D03*
D16*
X40750000Y-78660000D02*
X44250000Y-75160000D01*
X40750000Y-87000000D02*
X40750000Y-78660000D01*
X41750000Y-39420000D02*
X39290000Y-36960000D01*
X43750000Y-45750000D02*
X41750000Y-43750000D01*
X50250000Y-45750000D02*
X43750000Y-45750000D01*
X41750000Y-43750000D02*
X41750000Y-39420000D01*
X55750000Y-51250000D02*
X50250000Y-45750000D01*
X39290000Y-36960000D02*
X39290000Y-33800000D01*
X55750000Y-87000000D02*
X55750000Y-51250000D01*
X70750000Y-52000000D02*
X75750000Y-52000000D01*
X75750000Y-52000000D02*
X80750000Y-52000000D01*
X80750000Y-65000000D02*
X80750000Y-52000000D01*
X85750000Y-79250000D02*
X88000000Y-77000000D01*
X88000000Y-77000000D02*
X88000000Y-72250000D01*
X85750000Y-87000000D02*
X85750000Y-79250000D01*
X88000000Y-72250000D02*
X80750000Y-65000000D01*
X88000000Y-53750000D02*
X88000000Y-40500000D01*
X85750000Y-56000000D02*
X88000000Y-53750000D01*
X81300000Y-33800000D02*
X75790000Y-33800000D01*
X85750000Y-65000000D02*
X85750000Y-56000000D01*
X88000000Y-40500000D02*
X81300000Y-33800000D01*
X83750000Y-90000000D02*
X88250000Y-90000000D01*
X80750000Y-87000000D02*
X83750000Y-90000000D01*
X89500000Y-68750000D02*
X85750000Y-65000000D01*
X88250000Y-90000000D02*
X89500000Y-88750000D01*
X89500000Y-88750000D02*
X89500000Y-68750000D01*
X60750000Y-75160000D02*
X60750000Y-78500000D01*
X60750000Y-78500000D02*
X65750000Y-83500000D01*
X65750000Y-87000000D02*
X65750000Y-83500000D01*
X35750000Y-78660000D02*
X39250000Y-75160000D01*
X35750000Y-87000000D02*
X35750000Y-78660000D01*
D17*
X60750000Y-41840000D02*
X70750000Y-41840000D01*
X34250000Y-72000000D02*
X34250000Y-75160000D01*
X34210000Y-57460000D02*
X34210000Y-59290000D01*
X34210000Y-59290000D02*
X32250000Y-61250000D01*
X41750000Y-61750000D02*
X41750000Y-71750000D01*
X44210000Y-59290000D02*
X41750000Y-61750000D01*
X44210000Y-57460000D02*
X44210000Y-59290000D01*
X41750000Y-71750000D02*
X41500000Y-72000000D01*
X41500000Y-72000000D02*
X34250000Y-72000000D01*
X32250000Y-70000000D02*
X34250000Y-72000000D01*
X32250000Y-61250000D02*
X32250000Y-70000000D01*
X70750000Y-33840000D02*
X70710000Y-33800000D01*
X70750000Y-41840000D02*
X70750000Y-33840000D01*
X70710000Y-33800000D02*
X60000000Y-33800000D01*
X57050000Y-33800000D02*
X60000000Y-33800000D01*
X52000000Y-28750000D02*
X57050000Y-33800000D01*
X29000000Y-35250000D02*
X35500000Y-28750000D01*
X29000000Y-50750000D02*
X29000000Y-35250000D01*
X34210000Y-55960000D02*
X29000000Y-50750000D01*
X35500000Y-28750000D02*
X52000000Y-28750000D01*
X34210000Y-57460000D02*
X34210000Y-55960000D01*
X46090000Y-72000000D02*
X49250000Y-75160000D01*
X41500000Y-72000000D02*
X46090000Y-72000000D01*
X45750000Y-87000000D02*
X45750000Y-81250000D01*
X49250000Y-77750000D02*
X49250000Y-75160000D01*
X45750000Y-81250000D02*
X49250000Y-77750000D01*
D16*
X65750000Y-75160000D02*
X70750000Y-75160000D01*
X39250000Y-65000000D02*
X34250000Y-65000000D01*
X34250000Y-62500000D02*
X36750000Y-60000000D01*
X34250000Y-65000000D02*
X34250000Y-62500000D01*
X39250000Y-41840000D02*
X34250000Y-41840000D01*
X34250000Y-38840000D02*
X36750000Y-36340000D01*
X34250000Y-41840000D02*
X34250000Y-38840000D01*
X39250000Y-57420000D02*
X39290000Y-57460000D01*
X39250000Y-52000000D02*
X39250000Y-57420000D01*
X49250000Y-65000000D02*
X44250000Y-65000000D01*
X44250000Y-62500000D02*
X46750000Y-60000000D01*
X44250000Y-65000000D02*
X44250000Y-62500000D01*
X49250000Y-41840000D02*
X44250000Y-41840000D01*
X44250000Y-38840000D02*
X46750000Y-36340000D01*
X44250000Y-41840000D02*
X44250000Y-38840000D01*
X49250000Y-57420000D02*
X49290000Y-57460000D01*
X49250000Y-52000000D02*
X49250000Y-57420000D01*
X70750000Y-62500000D02*
X73250000Y-60000000D01*
X70750000Y-65000000D02*
X70750000Y-62500000D01*
X60750000Y-52000000D02*
X60750000Y-53750000D01*
X67000000Y-60000000D02*
X73250000Y-60000000D01*
X60750000Y-53750000D02*
X67000000Y-60000000D01*
X65750000Y-52000000D02*
X65750000Y-54500000D01*
X68710000Y-57460000D02*
X70710000Y-57460000D01*
X65750000Y-54500000D02*
X68710000Y-57460000D01*
X75750000Y-57500000D02*
X75790000Y-57460000D01*
X75750000Y-65000000D02*
X75750000Y-57500000D01*
X70750000Y-87000000D02*
X70750000Y-79500000D01*
X70750000Y-79500000D02*
X73250000Y-77000000D01*
X73250000Y-77000000D02*
X73250000Y-69750000D01*
X75750000Y-67250000D02*
X75750000Y-65000000D01*
X73250000Y-69750000D02*
X75750000Y-67250000D01*
X75750000Y-38840000D02*
X73250000Y-36340000D01*
X75750000Y-41840000D02*
X75750000Y-38840000D01*
X60750000Y-87000000D02*
X60750000Y-82000000D01*
X49290000Y-36960000D02*
X49290000Y-33800000D01*
X52500000Y-40170000D02*
X49290000Y-36960000D01*
X57250000Y-50750000D02*
X52500000Y-46000000D01*
X52500000Y-46000000D02*
X52500000Y-40170000D01*
X57250000Y-78250000D02*
X57250000Y-50750000D01*
X60750000Y-81750000D02*
X57250000Y-78250000D01*
X60750000Y-82000000D02*
X60750000Y-81750000D01*
D17*
X75750000Y-75160000D02*
X75750000Y-87000000D01*
X44250000Y-52000000D02*
X44250000Y-49000000D01*
X34250000Y-49000000D02*
X34250000Y-52000000D01*
X41500000Y-49000000D02*
X34250000Y-49000000D01*
X44250000Y-49000000D02*
X41500000Y-49000000D01*
X78340000Y-75160000D02*
X85750000Y-75160000D01*
X75750000Y-75160000D02*
X78340000Y-75160000D01*
X44210000Y-33800000D02*
X44210000Y-30790000D01*
X44210000Y-30790000D02*
X51040000Y-30790000D01*
X56550000Y-36300000D02*
X60000000Y-36300000D01*
X51040000Y-30790000D02*
X56550000Y-36300000D01*
X31250000Y-46000000D02*
X34250000Y-49000000D01*
X40290000Y-30790000D02*
X37220000Y-30790000D01*
X37220000Y-30790000D02*
X34210000Y-33800000D01*
X44210000Y-30790000D02*
X40290000Y-30790000D01*
X31250000Y-36760000D02*
X34210000Y-33800000D01*
X31250000Y-42750000D02*
X31250000Y-36760000D01*
X31250000Y-42750000D02*
X31250000Y-46000000D01*
X49500000Y-49000000D02*
X44250000Y-49000000D01*
X51750000Y-51250000D02*
X49500000Y-49000000D01*
X51750000Y-80750000D02*
X51750000Y-51250000D01*
X50750000Y-81750000D02*
X51750000Y-80750000D01*
X50750000Y-87000000D02*
X50750000Y-81750000D01*
X50750000Y-87000000D02*
X50750000Y-92000000D01*
X50750000Y-92000000D02*
X75750000Y-92000000D01*
X75750000Y-92000000D02*
X75750000Y-87000000D01*
X60000000Y-36300000D02*
X60000000Y-38750000D01*
X60000000Y-38750000D02*
X58000000Y-40750000D01*
X58000000Y-40750000D02*
X58000000Y-45000000D01*
X58000000Y-45000000D02*
X61750000Y-48750000D01*
X85750000Y-50000000D02*
X85750000Y-52000000D01*
X84500000Y-48750000D02*
X85750000Y-50000000D01*
X69250000Y-54250000D02*
X68250000Y-53250000D01*
X76500000Y-54250000D02*
X69250000Y-54250000D01*
X78250000Y-56000000D02*
X76500000Y-54250000D01*
X78250000Y-75070000D02*
X78250000Y-56000000D01*
X68250000Y-49000000D02*
X68000000Y-48750000D01*
X78340000Y-75160000D02*
X78250000Y-75070000D01*
X68000000Y-48750000D02*
X84500000Y-48750000D01*
X68250000Y-53250000D02*
X68250000Y-49000000D01*
X61750000Y-48750000D02*
X68000000Y-48750000D01*
M02*
