G04 #@! TF.GenerationSoftware,KiCad,Pcbnew,(5.1.7)-1*
G04 #@! TF.CreationDate,2022-11-12T18:17:31+01:00*
G04 #@! TF.ProjectId,Netzteil-Modul,4e65747a-7465-4696-9c2d-4d6f64756c2e,rev?*
G04 #@! TF.SameCoordinates,Original*
G04 #@! TF.FileFunction,Copper,L2,Bot*
G04 #@! TF.FilePolarity,Positive*
%FSLAX46Y46*%
G04 Gerber Fmt 4.6, Leading zero omitted, Abs format (unit mm)*
G04 Created by KiCad (PCBNEW (5.1.7)-1) date 2022-11-12 18:17:31*
%MOMM*%
%LPD*%
G01*
G04 APERTURE LIST*
G04 #@! TA.AperFunction,ComponentPad*
%ADD10O,1.600000X1.600000*%
G04 #@! TD*
G04 #@! TA.AperFunction,ComponentPad*
%ADD11C,7.000000*%
G04 #@! TD*
G04 #@! TA.AperFunction,ComponentPad*
%ADD12C,1.600000*%
G04 #@! TD*
G04 #@! TA.AperFunction,ComponentPad*
%ADD13R,2.400000X2.400000*%
G04 #@! TD*
G04 #@! TA.AperFunction,ComponentPad*
%ADD14C,2.400000*%
G04 #@! TD*
G04 #@! TA.AperFunction,ComponentPad*
%ADD15C,3.500000*%
G04 #@! TD*
G04 #@! TA.AperFunction,ComponentPad*
%ADD16C,3.000000*%
G04 #@! TD*
G04 #@! TA.AperFunction,ComponentPad*
%ADD17C,2.350000*%
G04 #@! TD*
G04 #@! TA.AperFunction,ComponentPad*
%ADD18R,1.600000X1.600000*%
G04 #@! TD*
G04 #@! TA.AperFunction,ComponentPad*
%ADD19C,2.000000*%
G04 #@! TD*
G04 #@! TA.AperFunction,ComponentPad*
%ADD20O,2.400000X2.400000*%
G04 #@! TD*
G04 #@! TA.AperFunction,ComponentPad*
%ADD21O,2.000000X2.500000*%
G04 #@! TD*
G04 #@! TA.AperFunction,ComponentPad*
%ADD22O,2.500000X2.000000*%
G04 #@! TD*
G04 #@! TA.AperFunction,ComponentPad*
%ADD23C,2.340000*%
G04 #@! TD*
G04 #@! TA.AperFunction,ComponentPad*
%ADD24O,1.500000X2.500000*%
G04 #@! TD*
G04 #@! TA.AperFunction,ComponentPad*
%ADD25R,2.000000X2.000000*%
G04 #@! TD*
G04 #@! TA.AperFunction,Conductor*
%ADD26C,1.000000*%
G04 #@! TD*
G04 #@! TA.AperFunction,Conductor*
%ADD27C,2.000000*%
G04 #@! TD*
G04 APERTURE END LIST*
D10*
X212500000Y-122040000D03*
X207420000Y-122040000D03*
X212500000Y-131040000D03*
X207420000Y-131040000D03*
D11*
X164800000Y-73875000D03*
X229800000Y-73875000D03*
X197300000Y-73875000D03*
D12*
X94500000Y-102500000D03*
X94500000Y-107500000D03*
X94500000Y-97500000D03*
X94500000Y-92500000D03*
X60500000Y-107500000D03*
X60500000Y-102500000D03*
X60500000Y-97500000D03*
X60500000Y-92500000D03*
X60500000Y-119300000D03*
X60500000Y-114300000D03*
X60500000Y-129300000D03*
X60500000Y-124300000D03*
X134500000Y-111500000D03*
D10*
X134500000Y-101340000D03*
D12*
X162000000Y-127500000D03*
D10*
X162000000Y-117340000D03*
D13*
X83500000Y-121800000D03*
D14*
X76000000Y-121800000D03*
D15*
X147600000Y-137000000D03*
X152600000Y-137000000D03*
X157600000Y-137000000D03*
X162600000Y-137000000D03*
X167600000Y-137000000D03*
X172600000Y-137000000D03*
X177600000Y-137000000D03*
X67400000Y-137000000D03*
X72400000Y-137000000D03*
X77400000Y-137000000D03*
X82400000Y-137000000D03*
X87400000Y-137000000D03*
X210100000Y-137000000D03*
X215100000Y-137000000D03*
X220100000Y-137000000D03*
X225100000Y-137000000D03*
X230100000Y-137000000D03*
D16*
X106800000Y-85600000D03*
X114420000Y-85600000D03*
X114420000Y-70360000D03*
X114420000Y-65280000D03*
X114420000Y-60200000D03*
X106800000Y-70360000D03*
X106800000Y-65280000D03*
X106800000Y-60200000D03*
D17*
X95000000Y-77600000D03*
X95000000Y-82600000D03*
X95000000Y-67600000D03*
X95000000Y-62600000D03*
X57500000Y-77500000D03*
X57500000Y-82500000D03*
X57500000Y-67500000D03*
X57500000Y-62500000D03*
D18*
X195800000Y-122250000D03*
D12*
X195800000Y-125750000D03*
D18*
X186800000Y-122250000D03*
D12*
X186800000Y-125750000D03*
D18*
X240300000Y-122250000D03*
D12*
X240300000Y-125750000D03*
D18*
X231300000Y-122250000D03*
D12*
X231300000Y-125750000D03*
D18*
X175500000Y-125750000D03*
D12*
X175500000Y-122250000D03*
D18*
X128000000Y-101340000D03*
D12*
X128000000Y-103840000D03*
X145500000Y-108960000D03*
D10*
X145500000Y-103880000D03*
D19*
X151000000Y-120000000D03*
X151000000Y-127500000D03*
X156500000Y-120000000D03*
X156500000Y-127500000D03*
D14*
X128000000Y-127500000D03*
D20*
X128000000Y-112260000D03*
D10*
X145500000Y-127500000D03*
X145500000Y-117340000D03*
D21*
X122520000Y-83060000D03*
D22*
X119980000Y-85600000D03*
X125060000Y-85600000D03*
D12*
X140000000Y-117340000D03*
D10*
X140000000Y-127500000D03*
D12*
X167500000Y-117340000D03*
D10*
X167500000Y-127500000D03*
D12*
X140000000Y-111500000D03*
D10*
X140000000Y-101340000D03*
D12*
X134500000Y-127500000D03*
D10*
X134500000Y-117340000D03*
D12*
X130560000Y-85600000D03*
D10*
X140720000Y-85600000D03*
D12*
X223500000Y-131040000D03*
D10*
X223500000Y-125960000D03*
X223500000Y-116960000D03*
D12*
X223500000Y-122040000D03*
D22*
X216850000Y-128500000D03*
D21*
X219390000Y-131040000D03*
X219390000Y-125960000D03*
D22*
X216840000Y-119500000D03*
D21*
X219380000Y-122040000D03*
X219380000Y-116960000D03*
D12*
X212500000Y-125960000D03*
D10*
X202340000Y-125960000D03*
D12*
X212500000Y-116960000D03*
D10*
X202340000Y-116960000D03*
D23*
X135000000Y-90500000D03*
X140000000Y-95500000D03*
X145000000Y-90500000D03*
D21*
X153460000Y-114040000D03*
D22*
X156000000Y-111500000D03*
X150920000Y-111500000D03*
D24*
X227260000Y-111500000D03*
X229800000Y-111500000D03*
X232340000Y-111500000D03*
X194760000Y-111500000D03*
X197300000Y-111500000D03*
X199840000Y-111500000D03*
X162260000Y-111500000D03*
X164800000Y-111500000D03*
X167340000Y-111500000D03*
D13*
X117500000Y-100000000D03*
D14*
X110000000Y-100000000D03*
D13*
X110000000Y-121800000D03*
D14*
X117500000Y-121800000D03*
D13*
X83500000Y-100000000D03*
D14*
X76000000Y-100000000D03*
D25*
X65500000Y-92500000D03*
D19*
X65500000Y-97500000D03*
X65500000Y-102500000D03*
X65500000Y-107500000D03*
X99500000Y-107500000D03*
X99500000Y-102500000D03*
X99500000Y-97500000D03*
D25*
X99500000Y-92500000D03*
X99500000Y-114300000D03*
D19*
X99500000Y-119300000D03*
X99500000Y-124300000D03*
X99500000Y-129300000D03*
D25*
X65500000Y-114300000D03*
D19*
X65500000Y-119300000D03*
X65500000Y-124300000D03*
X65500000Y-129300000D03*
D17*
X82500000Y-77600000D03*
X82500000Y-82600000D03*
X82500000Y-67600000D03*
X82500000Y-62600000D03*
X70000000Y-77600000D03*
X70000000Y-82600000D03*
X70000000Y-67600000D03*
X70000000Y-62600000D03*
D15*
X237300000Y-55000000D03*
X229800000Y-55000000D03*
X222300000Y-55000000D03*
X102500000Y-55000000D03*
X97500000Y-55000000D03*
X92500000Y-55000000D03*
X87500000Y-55000000D03*
X77500000Y-55000000D03*
X72500000Y-55000000D03*
X67500000Y-55000000D03*
X62500000Y-55000000D03*
D26*
X112000000Y-55000000D02*
X106800000Y-60200000D01*
X222300000Y-55000000D02*
X112000000Y-55000000D01*
X232100000Y-60200000D02*
X234050000Y-58250000D01*
X114420000Y-60200000D02*
X232100000Y-60200000D01*
X237300000Y-55000000D02*
X234050000Y-58250000D01*
X72500000Y-60100000D02*
X70000000Y-62600000D01*
X72500000Y-55000000D02*
X72500000Y-60100000D01*
X70000000Y-62600000D02*
X70000000Y-67600000D01*
X95000000Y-62600000D02*
X95000000Y-67600000D01*
X97500000Y-60100000D02*
X95000000Y-62600000D01*
X97500000Y-55000000D02*
X97500000Y-60100000D01*
X82500000Y-62600000D02*
X82500000Y-67600000D01*
X87500000Y-57600000D02*
X82500000Y-62600000D01*
X87500000Y-55000000D02*
X87500000Y-57600000D01*
X62500000Y-57500000D02*
X57500000Y-62500000D01*
X62500000Y-55000000D02*
X62500000Y-57500000D01*
X57500000Y-62500000D02*
X57500000Y-67500000D01*
D27*
X162600000Y-137000000D02*
X162600000Y-140500000D01*
X162600000Y-140500000D02*
X152600000Y-140500000D01*
X152600000Y-140500000D02*
X152600000Y-137000000D01*
X152600000Y-140500000D02*
X144600000Y-140500000D01*
X145500000Y-127500000D02*
X145500000Y-131300000D01*
X145500000Y-131300000D02*
X142500000Y-134300000D01*
X142500000Y-138400000D02*
X144600000Y-140500000D01*
X142500000Y-134300000D02*
X142500000Y-138400000D01*
X231300000Y-125750000D02*
X231300000Y-130100000D01*
X230100000Y-131300000D02*
X230100000Y-137000000D01*
X231300000Y-130100000D02*
X230100000Y-131300000D01*
X82400000Y-133300000D02*
X82400000Y-137000000D01*
X76000000Y-126900000D02*
X82400000Y-133300000D01*
X76000000Y-121800000D02*
X76000000Y-126900000D01*
D26*
X70000000Y-77600000D02*
X70000000Y-82600000D01*
X99500000Y-119300000D02*
X87500000Y-107300000D01*
X70000000Y-82600000D02*
X70000000Y-87000000D01*
X70000000Y-87000000D02*
X77000000Y-94000000D01*
X83500000Y-94000000D02*
X87500000Y-98000000D01*
X77000000Y-94000000D02*
X83500000Y-94000000D01*
X87500000Y-107300000D02*
X87500000Y-98000000D01*
X81700000Y-111500000D02*
X99500000Y-129300000D01*
X70500000Y-111500000D02*
X81700000Y-111500000D01*
X70500000Y-111500000D02*
X71500000Y-111500000D01*
X77500000Y-65000000D02*
X77500000Y-55000000D01*
X77500000Y-68000000D02*
X77500000Y-65000000D01*
X75500000Y-70000000D02*
X77500000Y-68000000D01*
X66500000Y-70000000D02*
X75500000Y-70000000D01*
X62500000Y-74000000D02*
X66500000Y-70000000D01*
X62500000Y-88000000D02*
X62500000Y-74000000D01*
X55500000Y-105500000D02*
X55500000Y-95000000D01*
X55500000Y-95000000D02*
X62500000Y-88000000D01*
X61500000Y-111500000D02*
X55500000Y-105500000D01*
X70500000Y-111500000D02*
X61500000Y-111500000D01*
X111300000Y-83300000D02*
X116100000Y-78500000D01*
X111300000Y-87700000D02*
X111300000Y-83300000D01*
X114500000Y-111400000D02*
X114500000Y-90900000D01*
X110000000Y-115900000D02*
X114500000Y-111400000D01*
X114500000Y-90900000D02*
X111300000Y-87700000D01*
X110000000Y-121800000D02*
X110000000Y-115900000D01*
X107300000Y-121800000D02*
X104800000Y-124300000D01*
X110000000Y-121800000D02*
X107300000Y-121800000D01*
X99500000Y-124300000D02*
X104800000Y-124300000D01*
X116100000Y-78500000D02*
X125500000Y-78500000D01*
X127500000Y-78500000D02*
X137000000Y-88000000D01*
X125500000Y-78500000D02*
X127500000Y-78500000D01*
X125500000Y-78500000D02*
X131800000Y-78500000D01*
X144500000Y-78500000D02*
X168000000Y-102000000D01*
X139000000Y-78500000D02*
X144500000Y-78500000D01*
X131800000Y-78500000D02*
X139000000Y-78500000D01*
X146000000Y-88000000D02*
X164000000Y-106000000D01*
X141400000Y-88000000D02*
X146000000Y-88000000D01*
X137000000Y-88000000D02*
X141400000Y-88000000D01*
X168000000Y-102000000D02*
X204100000Y-102000000D01*
X204100000Y-102000000D02*
X205100000Y-102000000D01*
X207400000Y-102000000D02*
X214300000Y-102000000D01*
X204100000Y-102000000D02*
X207400000Y-102000000D01*
X183200000Y-106000000D02*
X185800000Y-106000000D01*
X183200000Y-106000000D02*
X184500000Y-106000000D01*
X227260000Y-118210000D02*
X231300000Y-122250000D01*
X227260000Y-111500000D02*
X227260000Y-118210000D01*
X194760000Y-114290000D02*
X186800000Y-122250000D01*
X194760000Y-111500000D02*
X194760000Y-114290000D01*
X180600000Y-106000000D02*
X192200000Y-106000000D01*
X164000000Y-106000000D02*
X180600000Y-106000000D01*
X180600000Y-106000000D02*
X183200000Y-106000000D01*
X194760000Y-108560000D02*
X194760000Y-111500000D01*
X192200000Y-106000000D02*
X194760000Y-108560000D01*
X210400000Y-102000000D02*
X222600000Y-102000000D01*
X207400000Y-102000000D02*
X210400000Y-102000000D01*
X210400000Y-102000000D02*
X214100000Y-102000000D01*
X227260000Y-106660000D02*
X227260000Y-111500000D01*
X222600000Y-102000000D02*
X227260000Y-106660000D01*
X102500000Y-92500000D02*
X110000000Y-100000000D01*
X99500000Y-92500000D02*
X102500000Y-92500000D01*
X99500000Y-92500000D02*
X94500000Y-92500000D01*
X97000000Y-100000000D02*
X94500000Y-102500000D01*
X110000000Y-100000000D02*
X97000000Y-100000000D01*
X99500000Y-72580000D02*
X106800000Y-65280000D01*
X99500000Y-92500000D02*
X99500000Y-72580000D01*
X65500000Y-102500000D02*
X60500000Y-102500000D01*
X80500000Y-100000000D02*
X83500000Y-100000000D01*
X78000000Y-102500000D02*
X80500000Y-100000000D01*
X65500000Y-102500000D02*
X78000000Y-102500000D01*
X111100000Y-68600000D02*
X114420000Y-65280000D01*
X111100000Y-80400000D02*
X111100000Y-68600000D01*
X109500000Y-82000000D02*
X111100000Y-80400000D01*
X109500000Y-89000000D02*
X109500000Y-82000000D01*
X112500000Y-92000000D02*
X109500000Y-89000000D01*
X112500000Y-110500000D02*
X112500000Y-92000000D01*
X97000000Y-121500000D02*
X101500000Y-121500000D01*
X83500000Y-108000000D02*
X97000000Y-121500000D01*
X101500000Y-121500000D02*
X112500000Y-110500000D01*
X83500000Y-100000000D02*
X83500000Y-108000000D01*
X93200000Y-131500000D02*
X83500000Y-121800000D01*
X93200000Y-131500000D02*
X119500000Y-131500000D01*
X134500000Y-127500000D02*
X128000000Y-127500000D01*
X123500000Y-127500000D02*
X119500000Y-131500000D01*
X128000000Y-127500000D02*
X123500000Y-127500000D01*
X65500000Y-124300000D02*
X68200000Y-124300000D01*
X68200000Y-124300000D02*
X74000000Y-118500000D01*
X80200000Y-118500000D02*
X83500000Y-121800000D01*
X74000000Y-118500000D02*
X80200000Y-118500000D01*
X220100000Y-137000000D02*
X220100000Y-134000000D01*
X219390000Y-133290000D02*
X219390000Y-131040000D01*
X220100000Y-134000000D02*
X219390000Y-133290000D01*
X232340000Y-114290000D02*
X240300000Y-122250000D01*
X232340000Y-111500000D02*
X232340000Y-114290000D01*
X240300000Y-122250000D02*
X238550000Y-124000000D01*
X238550000Y-124000000D02*
X228440000Y-124000000D01*
X223500000Y-122040000D02*
X225960000Y-124500000D01*
X225960000Y-128580000D02*
X223500000Y-131040000D01*
X225960000Y-124500000D02*
X225960000Y-128580000D01*
X227940000Y-124500000D02*
X228440000Y-124000000D01*
X225960000Y-124500000D02*
X227940000Y-124500000D01*
X219380000Y-122040000D02*
X223500000Y-122040000D01*
X219390000Y-131040000D02*
X223500000Y-131040000D01*
X157600000Y-137000000D02*
X162900000Y-131700000D01*
X199840000Y-118210000D02*
X195800000Y-122250000D01*
X199840000Y-111500000D02*
X199840000Y-118210000D01*
X186350000Y-131700000D02*
X195800000Y-122250000D01*
X162900000Y-131700000D02*
X186350000Y-131700000D01*
X212500000Y-116960000D02*
X223500000Y-116960000D01*
X212500000Y-125960000D02*
X223500000Y-125960000D01*
X215040000Y-119500000D02*
X212500000Y-122040000D01*
X216840000Y-119500000D02*
X215040000Y-119500000D01*
X210100000Y-124440000D02*
X212500000Y-122040000D01*
X210100000Y-137000000D02*
X210100000Y-124440000D01*
X215040000Y-128500000D02*
X212500000Y-131040000D01*
X216850000Y-128500000D02*
X215040000Y-128500000D01*
X215100000Y-133640000D02*
X212500000Y-131040000D01*
X215100000Y-137000000D02*
X215100000Y-133640000D01*
X125060000Y-85600000D02*
X130560000Y-85600000D01*
X147600000Y-85600000D02*
X166000000Y-104000000D01*
X140720000Y-85600000D02*
X147600000Y-85600000D01*
X166000000Y-104000000D02*
X203400000Y-104000000D01*
X207420000Y-122040000D02*
X207420000Y-131040000D01*
X207420000Y-108020000D02*
X203400000Y-104000000D01*
X207420000Y-122040000D02*
X207420000Y-108020000D01*
X145500000Y-108960000D02*
X145500000Y-117340000D01*
X156000000Y-111500000D02*
X162260000Y-111500000D01*
X156500000Y-120000000D02*
X156500000Y-114000000D01*
X156000000Y-113500000D02*
X156000000Y-111500000D01*
X156500000Y-114000000D02*
X156000000Y-113500000D01*
X140000000Y-101340000D02*
X142840000Y-98500000D01*
X142840000Y-98500000D02*
X151100000Y-98500000D01*
X156000000Y-103400000D02*
X156000000Y-111500000D01*
X151100000Y-98500000D02*
X156000000Y-103400000D01*
X151000000Y-120000000D02*
X153500000Y-122500000D01*
X153500000Y-122500000D02*
X158500000Y-122500000D01*
X162000000Y-119000000D02*
X162000000Y-117340000D01*
X158500000Y-122500000D02*
X162000000Y-119000000D01*
X150920000Y-119920000D02*
X151000000Y-120000000D01*
X150920000Y-111500000D02*
X150920000Y-119920000D01*
X150920000Y-109300000D02*
X145500000Y-103880000D01*
X150920000Y-111500000D02*
X150920000Y-109300000D01*
X67500000Y-57900000D02*
X67500000Y-55000000D01*
X60450000Y-64950000D02*
X67500000Y-57900000D01*
X53500000Y-93000000D02*
X60500000Y-86000000D01*
X60500000Y-86000000D02*
X60500000Y-64950000D01*
X53500000Y-110500000D02*
X53500000Y-93000000D01*
X59900000Y-116900000D02*
X53500000Y-110500000D01*
X63100000Y-116900000D02*
X59900000Y-116900000D01*
X65500000Y-119300000D02*
X63100000Y-116900000D01*
X60500000Y-129300000D02*
X60500000Y-128100000D01*
X60500000Y-128100000D02*
X62800000Y-125800000D01*
X62800000Y-122000000D02*
X65500000Y-119300000D01*
X62800000Y-125800000D02*
X62800000Y-122000000D01*
X57500000Y-77500000D02*
X57500000Y-82500000D01*
X57500000Y-85000000D02*
X51500000Y-91000000D01*
X57500000Y-82500000D02*
X57500000Y-85000000D01*
X60500000Y-119300000D02*
X60500000Y-124300000D01*
X51500000Y-111600000D02*
X51500000Y-127100000D01*
X51500000Y-111600000D02*
X51500000Y-112500000D01*
X51500000Y-127100000D02*
X55700000Y-131300000D01*
X63500000Y-131300000D02*
X65500000Y-129300000D01*
X55700000Y-131300000D02*
X63500000Y-131300000D01*
X51500000Y-115300000D02*
X60500000Y-124300000D01*
X51500000Y-91000000D02*
X51500000Y-108100000D01*
X51500000Y-108100000D02*
X51500000Y-115300000D01*
X51500000Y-108100000D02*
X51500000Y-111600000D01*
X95000000Y-77600000D02*
X95000000Y-82600000D01*
X95000000Y-85400000D02*
X95000000Y-82600000D01*
X99500000Y-97500000D02*
X94500000Y-97500000D01*
X94500000Y-97500000D02*
X91500000Y-94500000D01*
X91500000Y-94500000D02*
X91500000Y-90500000D01*
X95000000Y-87000000D02*
X95000000Y-85400000D01*
X91500000Y-90500000D02*
X95000000Y-87000000D01*
X99500000Y-107500000D02*
X94500000Y-107500000D01*
X89500000Y-78500000D02*
X102500000Y-65500000D01*
X89500000Y-102500000D02*
X89500000Y-78500000D01*
X102500000Y-65500000D02*
X102500000Y-55000000D01*
X94500000Y-107500000D02*
X89500000Y-102500000D01*
X82500000Y-77600000D02*
X82500000Y-82600000D01*
X65500000Y-97500000D02*
X60500000Y-97500000D01*
X78900000Y-74000000D02*
X82500000Y-77600000D01*
X68500000Y-74000000D02*
X78900000Y-74000000D01*
X66500000Y-76000000D02*
X68500000Y-74000000D01*
X70000000Y-90000000D02*
X66500000Y-86500000D01*
X70000000Y-96000000D02*
X70000000Y-90000000D01*
X66500000Y-86500000D02*
X66500000Y-76000000D01*
X68500000Y-97500000D02*
X70000000Y-96000000D01*
X65500000Y-97500000D02*
X68500000Y-97500000D01*
X65500000Y-107500000D02*
X60500000Y-107500000D01*
X60500000Y-107500000D02*
X57500000Y-104500000D01*
X57500000Y-95500000D02*
X60500000Y-92500000D01*
X57500000Y-104500000D02*
X57500000Y-95500000D01*
X64500000Y-88500000D02*
X60500000Y-92500000D01*
X64500000Y-88000000D02*
X64500000Y-86200000D01*
X64500000Y-86200000D02*
X64500000Y-88500000D01*
X92500000Y-61600000D02*
X92500000Y-55000000D01*
X82100000Y-72000000D02*
X92500000Y-61600000D01*
X67500000Y-72000000D02*
X82100000Y-72000000D01*
X64500000Y-75000000D02*
X67500000Y-72000000D01*
X64500000Y-86200000D02*
X64500000Y-75000000D01*
X134500000Y-117000000D02*
X140000000Y-111500000D01*
X134500000Y-117340000D02*
X134500000Y-117000000D01*
X133500000Y-105000000D02*
X140000000Y-111500000D01*
X129840000Y-101340000D02*
X133500000Y-105000000D01*
X128000000Y-101340000D02*
X129840000Y-101340000D01*
X162000000Y-127500000D02*
X167500000Y-127500000D01*
X162000000Y-127500000D02*
X158500000Y-131000000D01*
X153600000Y-131000000D02*
X153050000Y-131550000D01*
X158500000Y-131000000D02*
X153600000Y-131000000D01*
X153050000Y-131550000D02*
X147600000Y-137000000D01*
X169250000Y-125750000D02*
X167500000Y-127500000D01*
X175500000Y-125750000D02*
X169250000Y-125750000D01*
X122520000Y-117020000D02*
X129000000Y-123500000D01*
X122520000Y-83060000D02*
X122520000Y-117020000D01*
X129000000Y-123500000D02*
X133400000Y-123500000D01*
X133400000Y-123500000D02*
X135000000Y-123500000D01*
X135300000Y-123500000D02*
X133400000Y-123500000D01*
X137400000Y-130100000D02*
X137400000Y-125600000D01*
X137400000Y-125600000D02*
X135300000Y-123500000D01*
X130500000Y-137000000D02*
X137400000Y-130100000D01*
X87400000Y-137000000D02*
X130500000Y-137000000D01*
X177600000Y-137000000D02*
X196000000Y-137000000D01*
X202340000Y-130660000D02*
X202340000Y-125960000D01*
X196000000Y-137000000D02*
X202340000Y-130660000D01*
X172600000Y-137000000D02*
X175800000Y-133800000D01*
X175800000Y-133800000D02*
X196400000Y-133800000D01*
X196400000Y-133800000D02*
X199700000Y-130500000D01*
X202340000Y-122760000D02*
X199700000Y-125400000D01*
X202340000Y-116960000D02*
X202340000Y-122760000D01*
X199700000Y-130500000D02*
X199700000Y-125400000D01*
X131000000Y-120500000D02*
X128000000Y-117500000D01*
X144000000Y-124000000D02*
X140500000Y-120500000D01*
X160000000Y-124000000D02*
X144000000Y-124000000D01*
X128000000Y-117500000D02*
X128000000Y-112260000D01*
X164800000Y-119200000D02*
X160000000Y-124000000D01*
X140500000Y-120500000D02*
X131000000Y-120500000D01*
X164800000Y-111500000D02*
X164800000Y-119200000D01*
X134500000Y-101340000D02*
X134500000Y-93500000D01*
X135000000Y-93000000D02*
X135000000Y-90500000D01*
X134500000Y-93500000D02*
X135000000Y-93000000D01*
X153460000Y-109460000D02*
X153460000Y-114040000D01*
X150300000Y-100900000D02*
X153460000Y-104060000D01*
X141800000Y-103500000D02*
X144400000Y-100900000D01*
X153460000Y-104060000D02*
X153460000Y-109460000D01*
X139000000Y-103500000D02*
X141800000Y-103500000D01*
X138000000Y-102500000D02*
X139000000Y-103500000D01*
X138000000Y-97500000D02*
X138000000Y-102500000D01*
X144400000Y-100900000D02*
X150300000Y-100900000D01*
X140000000Y-95500000D02*
X138000000Y-97500000D01*
X140500000Y-90500000D02*
X145000000Y-90500000D01*
X136299990Y-94700010D02*
X140500000Y-90500000D01*
X142500000Y-109500000D02*
X136299990Y-103299990D01*
X142500000Y-114840000D02*
X142500000Y-109500000D01*
X136299990Y-103299990D02*
X136299990Y-94700010D01*
X140000000Y-117340000D02*
X142500000Y-114840000D01*
X167340000Y-117180000D02*
X167500000Y-117340000D01*
X167340000Y-111500000D02*
X167340000Y-117180000D01*
X145500000Y-143000000D02*
X143400000Y-143000000D01*
X161000000Y-125500000D02*
X143000000Y-125500000D01*
X167500000Y-119000000D02*
X161000000Y-125500000D01*
X167500000Y-117340000D02*
X167500000Y-119000000D01*
X140100000Y-139800000D02*
X143300000Y-143000000D01*
X140100000Y-133000000D02*
X140100000Y-139800000D01*
X143300000Y-143000000D02*
X145500000Y-143000000D01*
X143000000Y-130100000D02*
X140100000Y-133000000D01*
X143000000Y-125500000D02*
X143000000Y-130100000D01*
X219100000Y-143000000D02*
X225100000Y-137000000D01*
X165500000Y-143000000D02*
X164300000Y-143000000D01*
X164300000Y-143000000D02*
X145500000Y-143000000D01*
X167600000Y-137000000D02*
X167600000Y-143000000D01*
X167600000Y-143000000D02*
X219100000Y-143000000D01*
X164300000Y-143000000D02*
X167600000Y-143000000D01*
X125860000Y-103840000D02*
X128000000Y-103840000D01*
X124500000Y-105200000D02*
X125860000Y-103840000D01*
X124500000Y-116500000D02*
X124500000Y-105200000D01*
X130000000Y-122000000D02*
X124500000Y-116500000D01*
X139500000Y-122000000D02*
X130000000Y-122000000D01*
X143000000Y-125500000D02*
X139500000Y-122000000D01*
X128000000Y-103840000D02*
X129640000Y-103840000D01*
X134500000Y-108700000D02*
X129640000Y-103840000D01*
X134500000Y-111500000D02*
X134500000Y-108700000D01*
X114420000Y-85600000D02*
X119980000Y-85600000D01*
M02*
