G04 #@! TF.GenerationSoftware,KiCad,Pcbnew,(5.1.7)-1*
G04 #@! TF.CreationDate,2022-11-12T18:17:31+01:00*
G04 #@! TF.ProjectId,Netzteil-Modul,4e65747a-7465-4696-9c2d-4d6f64756c2e,rev?*
G04 #@! TF.SameCoordinates,Original*
G04 #@! TF.FileFunction,Legend,Bot*
G04 #@! TF.FilePolarity,Positive*
%FSLAX46Y46*%
G04 Gerber Fmt 4.6, Leading zero omitted, Abs format (unit mm)*
G04 Created by KiCad (PCBNEW (5.1.7)-1) date 2022-11-12 18:17:31*
%MOMM*%
%LPD*%
G01*
G04 APERTURE LIST*
%ADD10O,1.600000X1.600000*%
%ADD11C,7.000000*%
%ADD12C,1.600000*%
%ADD13R,2.400000X2.400000*%
%ADD14C,2.400000*%
%ADD15C,3.500000*%
%ADD16C,3.000000*%
%ADD17C,2.350000*%
%ADD18R,1.600000X1.600000*%
%ADD19C,2.000000*%
%ADD20O,2.400000X2.400000*%
%ADD21O,2.000000X2.500000*%
%ADD22O,2.500000X2.000000*%
%ADD23C,2.340000*%
%ADD24O,1.500000X2.500000*%
%ADD25R,2.000000X2.000000*%
G04 APERTURE END LIST*
%LPC*%
D10*
X212500000Y-122040000D03*
X207420000Y-122040000D03*
X212500000Y-131040000D03*
X207420000Y-131040000D03*
D11*
X164800000Y-73875000D03*
X229800000Y-73875000D03*
X197300000Y-73875000D03*
D12*
X94500000Y-102500000D03*
X94500000Y-107500000D03*
X94500000Y-97500000D03*
X94500000Y-92500000D03*
X60500000Y-107500000D03*
X60500000Y-102500000D03*
X60500000Y-97500000D03*
X60500000Y-92500000D03*
X60500000Y-119300000D03*
X60500000Y-114300000D03*
X60500000Y-129300000D03*
X60500000Y-124300000D03*
X134500000Y-111500000D03*
D10*
X134500000Y-101340000D03*
D12*
X162000000Y-127500000D03*
D10*
X162000000Y-117340000D03*
D13*
X83500000Y-121800000D03*
D14*
X76000000Y-121800000D03*
D15*
X147600000Y-137000000D03*
X152600000Y-137000000D03*
X157600000Y-137000000D03*
X162600000Y-137000000D03*
X167600000Y-137000000D03*
X172600000Y-137000000D03*
X177600000Y-137000000D03*
X67400000Y-137000000D03*
X72400000Y-137000000D03*
X77400000Y-137000000D03*
X82400000Y-137000000D03*
X87400000Y-137000000D03*
X210100000Y-137000000D03*
X215100000Y-137000000D03*
X220100000Y-137000000D03*
X225100000Y-137000000D03*
X230100000Y-137000000D03*
D16*
X106800000Y-85600000D03*
X114420000Y-85600000D03*
X114420000Y-70360000D03*
X114420000Y-65280000D03*
X114420000Y-60200000D03*
X106800000Y-70360000D03*
X106800000Y-65280000D03*
X106800000Y-60200000D03*
D17*
X95000000Y-77600000D03*
X95000000Y-82600000D03*
X95000000Y-67600000D03*
X95000000Y-62600000D03*
X57500000Y-77500000D03*
X57500000Y-82500000D03*
X57500000Y-67500000D03*
X57500000Y-62500000D03*
D18*
X195800000Y-122250000D03*
D12*
X195800000Y-125750000D03*
D18*
X186800000Y-122250000D03*
D12*
X186800000Y-125750000D03*
D18*
X240300000Y-122250000D03*
D12*
X240300000Y-125750000D03*
D18*
X231300000Y-122250000D03*
D12*
X231300000Y-125750000D03*
D18*
X175500000Y-125750000D03*
D12*
X175500000Y-122250000D03*
D18*
X128000000Y-101340000D03*
D12*
X128000000Y-103840000D03*
X145500000Y-108960000D03*
D10*
X145500000Y-103880000D03*
D19*
X151000000Y-120000000D03*
X151000000Y-127500000D03*
X156500000Y-120000000D03*
X156500000Y-127500000D03*
D14*
X128000000Y-127500000D03*
D20*
X128000000Y-112260000D03*
D10*
X145500000Y-127500000D03*
X145500000Y-117340000D03*
D21*
X122520000Y-83060000D03*
D22*
X119980000Y-85600000D03*
X125060000Y-85600000D03*
D12*
X140000000Y-117340000D03*
D10*
X140000000Y-127500000D03*
D12*
X167500000Y-117340000D03*
D10*
X167500000Y-127500000D03*
D12*
X140000000Y-111500000D03*
D10*
X140000000Y-101340000D03*
D12*
X134500000Y-127500000D03*
D10*
X134500000Y-117340000D03*
D12*
X130560000Y-85600000D03*
D10*
X140720000Y-85600000D03*
D12*
X223500000Y-131040000D03*
D10*
X223500000Y-125960000D03*
X223500000Y-116960000D03*
D12*
X223500000Y-122040000D03*
D22*
X216850000Y-128500000D03*
D21*
X219390000Y-131040000D03*
X219390000Y-125960000D03*
D22*
X216840000Y-119500000D03*
D21*
X219380000Y-122040000D03*
X219380000Y-116960000D03*
D12*
X212500000Y-125960000D03*
D10*
X202340000Y-125960000D03*
D12*
X212500000Y-116960000D03*
D10*
X202340000Y-116960000D03*
D23*
X135000000Y-90500000D03*
X140000000Y-95500000D03*
X145000000Y-90500000D03*
D21*
X153460000Y-114040000D03*
D22*
X156000000Y-111500000D03*
X150920000Y-111500000D03*
D24*
X227260000Y-111500000D03*
X229800000Y-111500000D03*
X232340000Y-111500000D03*
X194760000Y-111500000D03*
X197300000Y-111500000D03*
X199840000Y-111500000D03*
X162260000Y-111500000D03*
X164800000Y-111500000D03*
X167340000Y-111500000D03*
D13*
X117500000Y-100000000D03*
D14*
X110000000Y-100000000D03*
D13*
X110000000Y-121800000D03*
D14*
X117500000Y-121800000D03*
D13*
X83500000Y-100000000D03*
D14*
X76000000Y-100000000D03*
D25*
X65500000Y-92500000D03*
D19*
X65500000Y-97500000D03*
X65500000Y-102500000D03*
X65500000Y-107500000D03*
X99500000Y-107500000D03*
X99500000Y-102500000D03*
X99500000Y-97500000D03*
D25*
X99500000Y-92500000D03*
X99500000Y-114300000D03*
D19*
X99500000Y-119300000D03*
X99500000Y-124300000D03*
X99500000Y-129300000D03*
D25*
X65500000Y-114300000D03*
D19*
X65500000Y-119300000D03*
X65500000Y-124300000D03*
X65500000Y-129300000D03*
D17*
X82500000Y-77600000D03*
X82500000Y-82600000D03*
X82500000Y-67600000D03*
X82500000Y-62600000D03*
X70000000Y-77600000D03*
X70000000Y-82600000D03*
X70000000Y-67600000D03*
X70000000Y-62600000D03*
D15*
X237300000Y-55000000D03*
X229800000Y-55000000D03*
X222300000Y-55000000D03*
X102500000Y-55000000D03*
X97500000Y-55000000D03*
X92500000Y-55000000D03*
X87500000Y-55000000D03*
X77500000Y-55000000D03*
X72500000Y-55000000D03*
X67500000Y-55000000D03*
X62500000Y-55000000D03*
M02*
