M48
; DRILL file {KiCad (5.1.7)-1} date 11/12/22 18:17:32
; FORMAT={-:-/ absolute / metric / decimal}
; #@! TF.CreationDate,2022-11-12T18:17:32+01:00
; #@! TF.GenerationSoftware,Kicad,Pcbnew,(5.1.7)-1
; #@! TF.FileFunction,Plated,1,2,PTH
FMAT,2
METRIC
T1C0.800
T2C1.000
T3C1.200
T4C1.300
T5C1.350
T6C1.400
T7C1.750
T8C3.500
%
G90
G05
T1
X140.0Y-117.34
X140.0Y-127.5
X128.0Y-101.34
X128.0Y-103.84
X195.8Y-122.25
X195.8Y-125.75
X140.0Y-101.34
X140.0Y-111.5
X94.5Y-102.5
X94.5Y-107.5
X240.3Y-122.25
X240.3Y-125.75
X202.34Y-125.96
X212.5Y-125.96
X60.5Y-92.5
X60.5Y-97.5
X130.56Y-85.6
X140.72Y-85.6
X207.42Y-122.04
X212.5Y-122.04
X60.5Y-124.3
X60.5Y-129.3
X223.5Y-116.96
X223.5Y-122.04
X175.5Y-122.25
X175.5Y-125.75
X162.0Y-117.34
X162.0Y-127.5
X167.5Y-117.34
X167.5Y-127.5
X145.5Y-103.88
X145.5Y-108.96
X186.8Y-122.25
X186.8Y-125.75
X60.5Y-102.5
X60.5Y-107.5
X134.5Y-117.34
X134.5Y-127.5
X94.5Y-92.5
X94.5Y-97.5
X231.3Y-122.25
X231.3Y-125.75
X202.34Y-116.96
X212.5Y-116.96
X60.5Y-114.3
X60.5Y-119.3
X223.5Y-125.96
X223.5Y-131.04
X145.5Y-117.34
X145.5Y-127.5
X207.42Y-131.04
X212.5Y-131.04
X134.5Y-101.34
X134.5Y-111.5
T2
X216.85Y-128.5
X219.39Y-125.96
X219.39Y-131.04
X99.5Y-114.3
X99.5Y-119.3
X99.5Y-124.3
X99.5Y-129.3
X194.76Y-111.5
X197.3Y-111.5
X199.84Y-111.5
X151.0Y-120.0
X151.0Y-127.5
X119.98Y-85.6
X122.52Y-83.06
X125.06Y-85.6
X99.5Y-92.5
X99.5Y-97.5
X99.5Y-102.5
X99.5Y-107.5
X227.26Y-111.5
X229.8Y-111.5
X232.34Y-111.5
X216.84Y-119.5
X219.38Y-116.96
X219.38Y-122.04
X65.5Y-114.3
X65.5Y-119.3
X65.5Y-124.3
X65.5Y-129.3
X162.26Y-111.5
X164.8Y-111.5
X167.34Y-111.5
X156.5Y-120.0
X156.5Y-127.5
X65.5Y-92.5
X65.5Y-97.5
X65.5Y-102.5
X65.5Y-107.5
X150.92Y-111.5
X153.46Y-114.04
X156.0Y-111.5
T3
X128.0Y-112.26
X128.0Y-127.5
X76.0Y-100.0
X83.5Y-100.0
X110.0Y-121.8
X117.5Y-121.8
X76.0Y-121.8
X83.5Y-121.8
X110.0Y-100.0
X117.5Y-100.0
T4
X135.0Y-90.5
X140.0Y-95.5
X145.0Y-90.5
T5
X82.5Y-62.6
X82.5Y-67.6
X82.5Y-77.6
X82.5Y-82.6
X57.5Y-62.5
X57.5Y-67.5
X57.5Y-77.5
X57.5Y-82.5
X70.0Y-62.6
X70.0Y-67.6
X70.0Y-77.6
X70.0Y-82.6
X95.0Y-62.6
X95.0Y-67.6
X95.0Y-77.6
X95.0Y-82.6
T6
X87.5Y-55.0
X72.5Y-55.0
X229.8Y-55.0
X62.5Y-55.0
X102.5Y-55.0
X237.3Y-55.0
X106.8Y-60.2
X106.8Y-65.28
X106.8Y-70.36
X106.8Y-85.6
X114.42Y-60.2
X114.42Y-65.28
X114.42Y-70.36
X114.42Y-85.6
X92.5Y-55.0
X77.5Y-55.0
X67.5Y-55.0
X222.3Y-55.0
X97.5Y-55.0
T7
X67.4Y-137.0
X72.4Y-137.0
X77.4Y-137.0
X82.4Y-137.0
X87.4Y-137.0
X147.6Y-137.0
X152.6Y-137.0
X157.6Y-137.0
X162.6Y-137.0
X167.6Y-137.0
X172.6Y-137.0
X177.6Y-137.0
X210.1Y-137.0
X215.1Y-137.0
X220.1Y-137.0
X225.1Y-137.0
X230.1Y-137.0
T8
X229.8Y-73.875
X164.8Y-73.875
X197.3Y-73.875
T0
M30
