G04 #@! TF.GenerationSoftware,KiCad,Pcbnew,(5.1.7)-1*
G04 #@! TF.CreationDate,2022-11-12T18:17:31+01:00*
G04 #@! TF.ProjectId,Netzteil-Modul,4e65747a-7465-4696-9c2d-4d6f64756c2e,rev?*
G04 #@! TF.SameCoordinates,Original*
G04 #@! TF.FileFunction,Copper,L1,Top*
G04 #@! TF.FilePolarity,Positive*
%FSLAX46Y46*%
G04 Gerber Fmt 4.6, Leading zero omitted, Abs format (unit mm)*
G04 Created by KiCad (PCBNEW (5.1.7)-1) date 2022-11-12 18:17:31*
%MOMM*%
%LPD*%
G01*
G04 APERTURE LIST*
G04 #@! TA.AperFunction,ComponentPad*
%ADD10O,1.600000X1.600000*%
G04 #@! TD*
G04 #@! TA.AperFunction,ComponentPad*
%ADD11C,7.000000*%
G04 #@! TD*
G04 #@! TA.AperFunction,ComponentPad*
%ADD12C,1.600000*%
G04 #@! TD*
G04 #@! TA.AperFunction,ComponentPad*
%ADD13R,2.400000X2.400000*%
G04 #@! TD*
G04 #@! TA.AperFunction,ComponentPad*
%ADD14C,2.400000*%
G04 #@! TD*
G04 #@! TA.AperFunction,ComponentPad*
%ADD15C,3.000000*%
G04 #@! TD*
G04 #@! TA.AperFunction,ComponentPad*
%ADD16C,2.350000*%
G04 #@! TD*
G04 #@! TA.AperFunction,ComponentPad*
%ADD17R,1.600000X1.600000*%
G04 #@! TD*
G04 #@! TA.AperFunction,ComponentPad*
%ADD18C,2.000000*%
G04 #@! TD*
G04 #@! TA.AperFunction,ComponentPad*
%ADD19O,2.400000X2.400000*%
G04 #@! TD*
G04 #@! TA.AperFunction,ComponentPad*
%ADD20O,2.000000X2.500000*%
G04 #@! TD*
G04 #@! TA.AperFunction,ComponentPad*
%ADD21O,2.500000X2.000000*%
G04 #@! TD*
G04 #@! TA.AperFunction,ComponentPad*
%ADD22C,2.340000*%
G04 #@! TD*
G04 #@! TA.AperFunction,ComponentPad*
%ADD23O,1.500000X2.500000*%
G04 #@! TD*
G04 #@! TA.AperFunction,ComponentPad*
%ADD24R,2.000000X2.000000*%
G04 #@! TD*
G04 #@! TA.AperFunction,ComponentPad*
%ADD25C,3.500000*%
G04 #@! TD*
G04 #@! TA.AperFunction,Conductor*
%ADD26C,2.000000*%
G04 #@! TD*
G04 #@! TA.AperFunction,Conductor*
%ADD27C,1.000000*%
G04 #@! TD*
G04 #@! TA.AperFunction,Conductor*
%ADD28C,0.254000*%
G04 #@! TD*
G04 #@! TA.AperFunction,Conductor*
%ADD29C,0.100000*%
G04 #@! TD*
G04 APERTURE END LIST*
D10*
X212500000Y-122040000D03*
X207420000Y-122040000D03*
X212500000Y-131040000D03*
X207420000Y-131040000D03*
D11*
X164800000Y-73875000D03*
X229800000Y-73875000D03*
X197300000Y-73875000D03*
D12*
X94500000Y-102500000D03*
X94500000Y-107500000D03*
X94500000Y-97500000D03*
X94500000Y-92500000D03*
X60500000Y-107500000D03*
X60500000Y-102500000D03*
X60500000Y-97500000D03*
X60500000Y-92500000D03*
X60500000Y-119300000D03*
X60500000Y-114300000D03*
X60500000Y-129300000D03*
X60500000Y-124300000D03*
X134500000Y-111500000D03*
D10*
X134500000Y-101340000D03*
D12*
X162000000Y-127500000D03*
D10*
X162000000Y-117340000D03*
D13*
X83500000Y-121800000D03*
D14*
X76000000Y-121800000D03*
D15*
X106800000Y-85600000D03*
X114420000Y-85600000D03*
X114420000Y-70360000D03*
X114420000Y-65280000D03*
X114420000Y-60200000D03*
X106800000Y-70360000D03*
X106800000Y-65280000D03*
X106800000Y-60200000D03*
D16*
X95000000Y-77600000D03*
X95000000Y-82600000D03*
X95000000Y-67600000D03*
X95000000Y-62600000D03*
X57500000Y-77500000D03*
X57500000Y-82500000D03*
X57500000Y-67500000D03*
X57500000Y-62500000D03*
D17*
X195800000Y-122250000D03*
D12*
X195800000Y-125750000D03*
D17*
X186800000Y-122250000D03*
D12*
X186800000Y-125750000D03*
D17*
X240300000Y-122250000D03*
D12*
X240300000Y-125750000D03*
D17*
X231300000Y-122250000D03*
D12*
X231300000Y-125750000D03*
D17*
X175500000Y-125750000D03*
D12*
X175500000Y-122250000D03*
D17*
X128000000Y-101340000D03*
D12*
X128000000Y-103840000D03*
X145500000Y-108960000D03*
D10*
X145500000Y-103880000D03*
D18*
X151000000Y-120000000D03*
X151000000Y-127500000D03*
X156500000Y-120000000D03*
X156500000Y-127500000D03*
D14*
X128000000Y-127500000D03*
D19*
X128000000Y-112260000D03*
D10*
X145500000Y-127500000D03*
X145500000Y-117340000D03*
D20*
X122520000Y-83060000D03*
D21*
X119980000Y-85600000D03*
X125060000Y-85600000D03*
D12*
X140000000Y-117340000D03*
D10*
X140000000Y-127500000D03*
D12*
X167500000Y-117340000D03*
D10*
X167500000Y-127500000D03*
D12*
X140000000Y-111500000D03*
D10*
X140000000Y-101340000D03*
D12*
X134500000Y-127500000D03*
D10*
X134500000Y-117340000D03*
D12*
X130560000Y-85600000D03*
D10*
X140720000Y-85600000D03*
D12*
X223500000Y-131040000D03*
D10*
X223500000Y-125960000D03*
X223500000Y-116960000D03*
D12*
X223500000Y-122040000D03*
D21*
X216850000Y-128500000D03*
D20*
X219390000Y-131040000D03*
X219390000Y-125960000D03*
D21*
X216840000Y-119500000D03*
D20*
X219380000Y-122040000D03*
X219380000Y-116960000D03*
D12*
X212500000Y-125960000D03*
D10*
X202340000Y-125960000D03*
D12*
X212500000Y-116960000D03*
D10*
X202340000Y-116960000D03*
D22*
X135000000Y-90500000D03*
X140000000Y-95500000D03*
X145000000Y-90500000D03*
D20*
X153460000Y-114040000D03*
D21*
X156000000Y-111500000D03*
X150920000Y-111500000D03*
D23*
X227260000Y-111500000D03*
X229800000Y-111500000D03*
X232340000Y-111500000D03*
X194760000Y-111500000D03*
X197300000Y-111500000D03*
X199840000Y-111500000D03*
X162260000Y-111500000D03*
X164800000Y-111500000D03*
X167340000Y-111500000D03*
D13*
X117500000Y-100000000D03*
D14*
X110000000Y-100000000D03*
D13*
X110000000Y-121800000D03*
D14*
X117500000Y-121800000D03*
D13*
X83500000Y-100000000D03*
D14*
X76000000Y-100000000D03*
D24*
X65500000Y-92500000D03*
D18*
X65500000Y-97500000D03*
X65500000Y-102500000D03*
X65500000Y-107500000D03*
X99500000Y-107500000D03*
X99500000Y-102500000D03*
X99500000Y-97500000D03*
D24*
X99500000Y-92500000D03*
X99500000Y-114300000D03*
D18*
X99500000Y-119300000D03*
X99500000Y-124300000D03*
X99500000Y-129300000D03*
D24*
X65500000Y-114300000D03*
D18*
X65500000Y-119300000D03*
X65500000Y-124300000D03*
X65500000Y-129300000D03*
D16*
X82500000Y-77600000D03*
X82500000Y-82600000D03*
X82500000Y-67600000D03*
X82500000Y-62600000D03*
X70000000Y-77600000D03*
X70000000Y-82600000D03*
X70000000Y-67600000D03*
X70000000Y-62600000D03*
D25*
X237300000Y-55000000D03*
X229800000Y-55000000D03*
X222300000Y-55000000D03*
X102500000Y-55000000D03*
X97500000Y-55000000D03*
X92500000Y-55000000D03*
X87500000Y-55000000D03*
X77500000Y-55000000D03*
X72500000Y-55000000D03*
X67500000Y-55000000D03*
X62500000Y-55000000D03*
D26*
X111200000Y-90000000D02*
X106800000Y-85600000D01*
X117500000Y-100000000D02*
X117500000Y-121800000D01*
X117500000Y-100000000D02*
X113100000Y-104400000D01*
X113100000Y-104400000D02*
X105300000Y-104400000D01*
X103400000Y-102500000D02*
X99500000Y-102500000D01*
X105300000Y-104400000D02*
X103400000Y-102500000D01*
X110000000Y-114300000D02*
X117500000Y-121800000D01*
X99500000Y-114300000D02*
X110000000Y-114300000D01*
X68500000Y-92500000D02*
X76000000Y-100000000D01*
X65500000Y-92500000D02*
X68500000Y-92500000D01*
X76300000Y-114300000D02*
X76000000Y-114000000D01*
X76000000Y-114000000D02*
X76000000Y-100000000D01*
X99500000Y-114300000D02*
X76300000Y-114300000D01*
X76000000Y-121800000D02*
X76000000Y-114000000D01*
X117500000Y-96300000D02*
X111200000Y-90000000D01*
X117500000Y-100000000D02*
X117500000Y-96300000D01*
X140000000Y-127500000D02*
X156500000Y-127500000D01*
X134300000Y-121800000D02*
X140000000Y-127500000D01*
X117500000Y-121800000D02*
X134300000Y-121800000D01*
X229800000Y-55000000D02*
X229800000Y-62000000D01*
X235800000Y-125400000D02*
X236150000Y-125750000D01*
X236150000Y-125750000D02*
X231300000Y-125750000D01*
X240300000Y-125750000D02*
X236150000Y-125750000D01*
X190850000Y-125750000D02*
X195800000Y-125750000D01*
X186800000Y-125750000D02*
X190850000Y-125750000D01*
X229800000Y-111500000D02*
X229800000Y-114200000D01*
X229800000Y-114200000D02*
X197300000Y-114200000D01*
X197300000Y-114200000D02*
X197300000Y-111500000D01*
X235800000Y-120200000D02*
X229800000Y-114200000D01*
X235800000Y-122900000D02*
X235800000Y-120200000D01*
X235800000Y-120600000D02*
X235800000Y-122900000D01*
X235800000Y-122900000D02*
X235800000Y-125400000D01*
X191300000Y-120200000D02*
X197300000Y-114200000D01*
X191300000Y-125300000D02*
X191300000Y-120200000D01*
X190850000Y-125750000D02*
X191300000Y-125300000D01*
X186800000Y-125750000D02*
X182150000Y-125750000D01*
X178650000Y-122250000D02*
X175500000Y-122250000D01*
X182150000Y-125750000D02*
X178650000Y-122250000D01*
X161750000Y-122250000D02*
X156500000Y-127500000D01*
X175500000Y-122250000D02*
X161750000Y-122250000D01*
X197300000Y-111500000D02*
X197300000Y-105900000D01*
X229800000Y-111500000D02*
X229800000Y-105200000D01*
X65500000Y-114300000D02*
X99500000Y-114300000D01*
X60500000Y-114300000D02*
X65500000Y-114300000D01*
D27*
X164800000Y-111500000D02*
X164800000Y-106200000D01*
D28*
X212173000Y-108748000D02*
X182427000Y-108748000D01*
X182427000Y-93631917D01*
X194831942Y-93631917D01*
X194831942Y-94118083D01*
X194926788Y-94594906D01*
X195112835Y-95044064D01*
X195382934Y-95448295D01*
X195726705Y-95792066D01*
X196130936Y-96062165D01*
X196580094Y-96248212D01*
X197056917Y-96343058D01*
X197543083Y-96343058D01*
X198019906Y-96248212D01*
X198469064Y-96062165D01*
X198873295Y-95792066D01*
X199217066Y-95448295D01*
X199487165Y-95044064D01*
X199673212Y-94594906D01*
X199768058Y-94118083D01*
X199768058Y-93631917D01*
X199673212Y-93155094D01*
X199487165Y-92705936D01*
X199217066Y-92301705D01*
X198873295Y-91957934D01*
X198469064Y-91687835D01*
X198019906Y-91501788D01*
X197543083Y-91406942D01*
X197056917Y-91406942D01*
X196580094Y-91501788D01*
X196130936Y-91687835D01*
X195726705Y-91957934D01*
X195382934Y-92301705D01*
X195112835Y-92705936D01*
X194926788Y-93155094D01*
X194831942Y-93631917D01*
X182427000Y-93631917D01*
X182427000Y-83631917D01*
X194831942Y-83631917D01*
X194831942Y-84118083D01*
X194926788Y-84594906D01*
X195112835Y-85044064D01*
X195382934Y-85448295D01*
X195726705Y-85792066D01*
X196130936Y-86062165D01*
X196580094Y-86248212D01*
X197056917Y-86343058D01*
X197543083Y-86343058D01*
X198019906Y-86248212D01*
X198469064Y-86062165D01*
X198873295Y-85792066D01*
X199217066Y-85448295D01*
X199487165Y-85044064D01*
X199673212Y-84594906D01*
X199768058Y-84118083D01*
X199768058Y-83631917D01*
X199673212Y-83155094D01*
X199487165Y-82705936D01*
X199217066Y-82301705D01*
X198873295Y-81957934D01*
X198469064Y-81687835D01*
X198019906Y-81501788D01*
X197543083Y-81406942D01*
X197056917Y-81406942D01*
X196580094Y-81501788D01*
X196130936Y-81687835D01*
X195726705Y-81957934D01*
X195382934Y-82301705D01*
X195112835Y-82705936D01*
X194926788Y-83155094D01*
X194831942Y-83631917D01*
X182427000Y-83631917D01*
X182427000Y-76789155D01*
X194565450Y-76789155D01*
X194961634Y-77309550D01*
X195676612Y-77699748D01*
X196453976Y-77942964D01*
X197263853Y-78029851D01*
X198075118Y-77957069D01*
X198856597Y-77727415D01*
X199578256Y-77349715D01*
X199638366Y-77309550D01*
X200034550Y-76789155D01*
X197300000Y-74054605D01*
X194565450Y-76789155D01*
X182427000Y-76789155D01*
X182427000Y-73838853D01*
X193145149Y-73838853D01*
X193217931Y-74650118D01*
X193447585Y-75431597D01*
X193825285Y-76153256D01*
X193865450Y-76213366D01*
X194385845Y-76609550D01*
X197120395Y-73875000D01*
X197479605Y-73875000D01*
X200214155Y-76609550D01*
X200734550Y-76213366D01*
X201124748Y-75498388D01*
X201367964Y-74721024D01*
X201454851Y-73911147D01*
X201382069Y-73099882D01*
X201152415Y-72318403D01*
X200774715Y-71596744D01*
X200734550Y-71536634D01*
X200214155Y-71140450D01*
X197479605Y-73875000D01*
X197120395Y-73875000D01*
X194385845Y-71140450D01*
X193865450Y-71536634D01*
X193475252Y-72251612D01*
X193232036Y-73028976D01*
X193145149Y-73838853D01*
X182427000Y-73838853D01*
X182427000Y-70960845D01*
X194565450Y-70960845D01*
X197300000Y-73695395D01*
X200034550Y-70960845D01*
X199638366Y-70440450D01*
X198923388Y-70050252D01*
X198146024Y-69807036D01*
X197336147Y-69720149D01*
X196524882Y-69792931D01*
X195743403Y-70022585D01*
X195021744Y-70400285D01*
X194961634Y-70440450D01*
X194565450Y-70960845D01*
X182427000Y-70960845D01*
X182427000Y-66631917D01*
X194831942Y-66631917D01*
X194831942Y-67118083D01*
X194926788Y-67594906D01*
X195112835Y-68044064D01*
X195382934Y-68448295D01*
X195726705Y-68792066D01*
X196130936Y-69062165D01*
X196580094Y-69248212D01*
X197056917Y-69343058D01*
X197543083Y-69343058D01*
X198019906Y-69248212D01*
X198469064Y-69062165D01*
X198873295Y-68792066D01*
X199217066Y-68448295D01*
X199487165Y-68044064D01*
X199673212Y-67594906D01*
X199768058Y-67118083D01*
X199768058Y-66631917D01*
X199673212Y-66155094D01*
X199487165Y-65705936D01*
X199217066Y-65301705D01*
X198873295Y-64957934D01*
X198469064Y-64687835D01*
X198019906Y-64501788D01*
X197543083Y-64406942D01*
X197056917Y-64406942D01*
X196580094Y-64501788D01*
X196130936Y-64687835D01*
X195726705Y-64957934D01*
X195382934Y-65301705D01*
X195112835Y-65705936D01*
X194926788Y-66155094D01*
X194831942Y-66631917D01*
X182427000Y-66631917D01*
X182427000Y-59002000D01*
X212173000Y-59002000D01*
X212173000Y-108748000D01*
G04 #@! TA.AperFunction,Conductor*
D29*
G36*
X212173000Y-108748000D02*
G01*
X182427000Y-108748000D01*
X182427000Y-93631917D01*
X194831942Y-93631917D01*
X194831942Y-94118083D01*
X194926788Y-94594906D01*
X195112835Y-95044064D01*
X195382934Y-95448295D01*
X195726705Y-95792066D01*
X196130936Y-96062165D01*
X196580094Y-96248212D01*
X197056917Y-96343058D01*
X197543083Y-96343058D01*
X198019906Y-96248212D01*
X198469064Y-96062165D01*
X198873295Y-95792066D01*
X199217066Y-95448295D01*
X199487165Y-95044064D01*
X199673212Y-94594906D01*
X199768058Y-94118083D01*
X199768058Y-93631917D01*
X199673212Y-93155094D01*
X199487165Y-92705936D01*
X199217066Y-92301705D01*
X198873295Y-91957934D01*
X198469064Y-91687835D01*
X198019906Y-91501788D01*
X197543083Y-91406942D01*
X197056917Y-91406942D01*
X196580094Y-91501788D01*
X196130936Y-91687835D01*
X195726705Y-91957934D01*
X195382934Y-92301705D01*
X195112835Y-92705936D01*
X194926788Y-93155094D01*
X194831942Y-93631917D01*
X182427000Y-93631917D01*
X182427000Y-83631917D01*
X194831942Y-83631917D01*
X194831942Y-84118083D01*
X194926788Y-84594906D01*
X195112835Y-85044064D01*
X195382934Y-85448295D01*
X195726705Y-85792066D01*
X196130936Y-86062165D01*
X196580094Y-86248212D01*
X197056917Y-86343058D01*
X197543083Y-86343058D01*
X198019906Y-86248212D01*
X198469064Y-86062165D01*
X198873295Y-85792066D01*
X199217066Y-85448295D01*
X199487165Y-85044064D01*
X199673212Y-84594906D01*
X199768058Y-84118083D01*
X199768058Y-83631917D01*
X199673212Y-83155094D01*
X199487165Y-82705936D01*
X199217066Y-82301705D01*
X198873295Y-81957934D01*
X198469064Y-81687835D01*
X198019906Y-81501788D01*
X197543083Y-81406942D01*
X197056917Y-81406942D01*
X196580094Y-81501788D01*
X196130936Y-81687835D01*
X195726705Y-81957934D01*
X195382934Y-82301705D01*
X195112835Y-82705936D01*
X194926788Y-83155094D01*
X194831942Y-83631917D01*
X182427000Y-83631917D01*
X182427000Y-76789155D01*
X194565450Y-76789155D01*
X194961634Y-77309550D01*
X195676612Y-77699748D01*
X196453976Y-77942964D01*
X197263853Y-78029851D01*
X198075118Y-77957069D01*
X198856597Y-77727415D01*
X199578256Y-77349715D01*
X199638366Y-77309550D01*
X200034550Y-76789155D01*
X197300000Y-74054605D01*
X194565450Y-76789155D01*
X182427000Y-76789155D01*
X182427000Y-73838853D01*
X193145149Y-73838853D01*
X193217931Y-74650118D01*
X193447585Y-75431597D01*
X193825285Y-76153256D01*
X193865450Y-76213366D01*
X194385845Y-76609550D01*
X197120395Y-73875000D01*
X197479605Y-73875000D01*
X200214155Y-76609550D01*
X200734550Y-76213366D01*
X201124748Y-75498388D01*
X201367964Y-74721024D01*
X201454851Y-73911147D01*
X201382069Y-73099882D01*
X201152415Y-72318403D01*
X200774715Y-71596744D01*
X200734550Y-71536634D01*
X200214155Y-71140450D01*
X197479605Y-73875000D01*
X197120395Y-73875000D01*
X194385845Y-71140450D01*
X193865450Y-71536634D01*
X193475252Y-72251612D01*
X193232036Y-73028976D01*
X193145149Y-73838853D01*
X182427000Y-73838853D01*
X182427000Y-70960845D01*
X194565450Y-70960845D01*
X197300000Y-73695395D01*
X200034550Y-70960845D01*
X199638366Y-70440450D01*
X198923388Y-70050252D01*
X198146024Y-69807036D01*
X197336147Y-69720149D01*
X196524882Y-69792931D01*
X195743403Y-70022585D01*
X195021744Y-70400285D01*
X194961634Y-70440450D01*
X194565450Y-70960845D01*
X182427000Y-70960845D01*
X182427000Y-66631917D01*
X194831942Y-66631917D01*
X194831942Y-67118083D01*
X194926788Y-67594906D01*
X195112835Y-68044064D01*
X195382934Y-68448295D01*
X195726705Y-68792066D01*
X196130936Y-69062165D01*
X196580094Y-69248212D01*
X197056917Y-69343058D01*
X197543083Y-69343058D01*
X198019906Y-69248212D01*
X198469064Y-69062165D01*
X198873295Y-68792066D01*
X199217066Y-68448295D01*
X199487165Y-68044064D01*
X199673212Y-67594906D01*
X199768058Y-67118083D01*
X199768058Y-66631917D01*
X199673212Y-66155094D01*
X199487165Y-65705936D01*
X199217066Y-65301705D01*
X198873295Y-64957934D01*
X198469064Y-64687835D01*
X198019906Y-64501788D01*
X197543083Y-64406942D01*
X197056917Y-64406942D01*
X196580094Y-64501788D01*
X196130936Y-64687835D01*
X195726705Y-64957934D01*
X195382934Y-65301705D01*
X195112835Y-65705936D01*
X194926788Y-66155094D01*
X194831942Y-66631917D01*
X182427000Y-66631917D01*
X182427000Y-59002000D01*
X212173000Y-59002000D01*
X212173000Y-108748000D01*
G37*
G04 #@! TD.AperFunction*
D28*
X244290000Y-108748000D02*
X214927000Y-108748000D01*
X214927000Y-93631917D01*
X227331942Y-93631917D01*
X227331942Y-94118083D01*
X227426788Y-94594906D01*
X227612835Y-95044064D01*
X227882934Y-95448295D01*
X228226705Y-95792066D01*
X228630936Y-96062165D01*
X229080094Y-96248212D01*
X229556917Y-96343058D01*
X230043083Y-96343058D01*
X230519906Y-96248212D01*
X230969064Y-96062165D01*
X231373295Y-95792066D01*
X231717066Y-95448295D01*
X231987165Y-95044064D01*
X232173212Y-94594906D01*
X232268058Y-94118083D01*
X232268058Y-93631917D01*
X232173212Y-93155094D01*
X231987165Y-92705936D01*
X231717066Y-92301705D01*
X231373295Y-91957934D01*
X230969064Y-91687835D01*
X230519906Y-91501788D01*
X230043083Y-91406942D01*
X229556917Y-91406942D01*
X229080094Y-91501788D01*
X228630936Y-91687835D01*
X228226705Y-91957934D01*
X227882934Y-92301705D01*
X227612835Y-92705936D01*
X227426788Y-93155094D01*
X227331942Y-93631917D01*
X214927000Y-93631917D01*
X214927000Y-83631917D01*
X227331942Y-83631917D01*
X227331942Y-84118083D01*
X227426788Y-84594906D01*
X227612835Y-85044064D01*
X227882934Y-85448295D01*
X228226705Y-85792066D01*
X228630936Y-86062165D01*
X229080094Y-86248212D01*
X229556917Y-86343058D01*
X230043083Y-86343058D01*
X230519906Y-86248212D01*
X230969064Y-86062165D01*
X231373295Y-85792066D01*
X231717066Y-85448295D01*
X231987165Y-85044064D01*
X232173212Y-84594906D01*
X232268058Y-84118083D01*
X232268058Y-83631917D01*
X232173212Y-83155094D01*
X231987165Y-82705936D01*
X231717066Y-82301705D01*
X231373295Y-81957934D01*
X230969064Y-81687835D01*
X230519906Y-81501788D01*
X230043083Y-81406942D01*
X229556917Y-81406942D01*
X229080094Y-81501788D01*
X228630936Y-81687835D01*
X228226705Y-81957934D01*
X227882934Y-82301705D01*
X227612835Y-82705936D01*
X227426788Y-83155094D01*
X227331942Y-83631917D01*
X214927000Y-83631917D01*
X214927000Y-76789155D01*
X227065450Y-76789155D01*
X227461634Y-77309550D01*
X228176612Y-77699748D01*
X228953976Y-77942964D01*
X229763853Y-78029851D01*
X230575118Y-77957069D01*
X231356597Y-77727415D01*
X232078256Y-77349715D01*
X232138366Y-77309550D01*
X232534550Y-76789155D01*
X229800000Y-74054605D01*
X227065450Y-76789155D01*
X214927000Y-76789155D01*
X214927000Y-73838853D01*
X225645149Y-73838853D01*
X225717931Y-74650118D01*
X225947585Y-75431597D01*
X226325285Y-76153256D01*
X226365450Y-76213366D01*
X226885845Y-76609550D01*
X229620395Y-73875000D01*
X229979605Y-73875000D01*
X232714155Y-76609550D01*
X233234550Y-76213366D01*
X233624748Y-75498388D01*
X233867964Y-74721024D01*
X233954851Y-73911147D01*
X233882069Y-73099882D01*
X233652415Y-72318403D01*
X233274715Y-71596744D01*
X233234550Y-71536634D01*
X232714155Y-71140450D01*
X229979605Y-73875000D01*
X229620395Y-73875000D01*
X226885845Y-71140450D01*
X226365450Y-71536634D01*
X225975252Y-72251612D01*
X225732036Y-73028976D01*
X225645149Y-73838853D01*
X214927000Y-73838853D01*
X214927000Y-70960845D01*
X227065450Y-70960845D01*
X229800000Y-73695395D01*
X232534550Y-70960845D01*
X232138366Y-70440450D01*
X231423388Y-70050252D01*
X230646024Y-69807036D01*
X229836147Y-69720149D01*
X229024882Y-69792931D01*
X228243403Y-70022585D01*
X227521744Y-70400285D01*
X227461634Y-70440450D01*
X227065450Y-70960845D01*
X214927000Y-70960845D01*
X214927000Y-66631917D01*
X227331942Y-66631917D01*
X227331942Y-67118083D01*
X227426788Y-67594906D01*
X227612835Y-68044064D01*
X227882934Y-68448295D01*
X228226705Y-68792066D01*
X228630936Y-69062165D01*
X229080094Y-69248212D01*
X229556917Y-69343058D01*
X230043083Y-69343058D01*
X230519906Y-69248212D01*
X230969064Y-69062165D01*
X231373295Y-68792066D01*
X231717066Y-68448295D01*
X231987165Y-68044064D01*
X232173212Y-67594906D01*
X232268058Y-67118083D01*
X232268058Y-66631917D01*
X232173212Y-66155094D01*
X231987165Y-65705936D01*
X231717066Y-65301705D01*
X231373295Y-64957934D01*
X230969064Y-64687835D01*
X230519906Y-64501788D01*
X230043083Y-64406942D01*
X229556917Y-64406942D01*
X229080094Y-64501788D01*
X228630936Y-64687835D01*
X228226705Y-64957934D01*
X227882934Y-65301705D01*
X227612835Y-65705936D01*
X227426788Y-66155094D01*
X227331942Y-66631917D01*
X214927000Y-66631917D01*
X214927000Y-59002000D01*
X244290001Y-59002000D01*
X244290000Y-108748000D01*
G04 #@! TA.AperFunction,Conductor*
D29*
G36*
X244290000Y-108748000D02*
G01*
X214927000Y-108748000D01*
X214927000Y-93631917D01*
X227331942Y-93631917D01*
X227331942Y-94118083D01*
X227426788Y-94594906D01*
X227612835Y-95044064D01*
X227882934Y-95448295D01*
X228226705Y-95792066D01*
X228630936Y-96062165D01*
X229080094Y-96248212D01*
X229556917Y-96343058D01*
X230043083Y-96343058D01*
X230519906Y-96248212D01*
X230969064Y-96062165D01*
X231373295Y-95792066D01*
X231717066Y-95448295D01*
X231987165Y-95044064D01*
X232173212Y-94594906D01*
X232268058Y-94118083D01*
X232268058Y-93631917D01*
X232173212Y-93155094D01*
X231987165Y-92705936D01*
X231717066Y-92301705D01*
X231373295Y-91957934D01*
X230969064Y-91687835D01*
X230519906Y-91501788D01*
X230043083Y-91406942D01*
X229556917Y-91406942D01*
X229080094Y-91501788D01*
X228630936Y-91687835D01*
X228226705Y-91957934D01*
X227882934Y-92301705D01*
X227612835Y-92705936D01*
X227426788Y-93155094D01*
X227331942Y-93631917D01*
X214927000Y-93631917D01*
X214927000Y-83631917D01*
X227331942Y-83631917D01*
X227331942Y-84118083D01*
X227426788Y-84594906D01*
X227612835Y-85044064D01*
X227882934Y-85448295D01*
X228226705Y-85792066D01*
X228630936Y-86062165D01*
X229080094Y-86248212D01*
X229556917Y-86343058D01*
X230043083Y-86343058D01*
X230519906Y-86248212D01*
X230969064Y-86062165D01*
X231373295Y-85792066D01*
X231717066Y-85448295D01*
X231987165Y-85044064D01*
X232173212Y-84594906D01*
X232268058Y-84118083D01*
X232268058Y-83631917D01*
X232173212Y-83155094D01*
X231987165Y-82705936D01*
X231717066Y-82301705D01*
X231373295Y-81957934D01*
X230969064Y-81687835D01*
X230519906Y-81501788D01*
X230043083Y-81406942D01*
X229556917Y-81406942D01*
X229080094Y-81501788D01*
X228630936Y-81687835D01*
X228226705Y-81957934D01*
X227882934Y-82301705D01*
X227612835Y-82705936D01*
X227426788Y-83155094D01*
X227331942Y-83631917D01*
X214927000Y-83631917D01*
X214927000Y-76789155D01*
X227065450Y-76789155D01*
X227461634Y-77309550D01*
X228176612Y-77699748D01*
X228953976Y-77942964D01*
X229763853Y-78029851D01*
X230575118Y-77957069D01*
X231356597Y-77727415D01*
X232078256Y-77349715D01*
X232138366Y-77309550D01*
X232534550Y-76789155D01*
X229800000Y-74054605D01*
X227065450Y-76789155D01*
X214927000Y-76789155D01*
X214927000Y-73838853D01*
X225645149Y-73838853D01*
X225717931Y-74650118D01*
X225947585Y-75431597D01*
X226325285Y-76153256D01*
X226365450Y-76213366D01*
X226885845Y-76609550D01*
X229620395Y-73875000D01*
X229979605Y-73875000D01*
X232714155Y-76609550D01*
X233234550Y-76213366D01*
X233624748Y-75498388D01*
X233867964Y-74721024D01*
X233954851Y-73911147D01*
X233882069Y-73099882D01*
X233652415Y-72318403D01*
X233274715Y-71596744D01*
X233234550Y-71536634D01*
X232714155Y-71140450D01*
X229979605Y-73875000D01*
X229620395Y-73875000D01*
X226885845Y-71140450D01*
X226365450Y-71536634D01*
X225975252Y-72251612D01*
X225732036Y-73028976D01*
X225645149Y-73838853D01*
X214927000Y-73838853D01*
X214927000Y-70960845D01*
X227065450Y-70960845D01*
X229800000Y-73695395D01*
X232534550Y-70960845D01*
X232138366Y-70440450D01*
X231423388Y-70050252D01*
X230646024Y-69807036D01*
X229836147Y-69720149D01*
X229024882Y-69792931D01*
X228243403Y-70022585D01*
X227521744Y-70400285D01*
X227461634Y-70440450D01*
X227065450Y-70960845D01*
X214927000Y-70960845D01*
X214927000Y-66631917D01*
X227331942Y-66631917D01*
X227331942Y-67118083D01*
X227426788Y-67594906D01*
X227612835Y-68044064D01*
X227882934Y-68448295D01*
X228226705Y-68792066D01*
X228630936Y-69062165D01*
X229080094Y-69248212D01*
X229556917Y-69343058D01*
X230043083Y-69343058D01*
X230519906Y-69248212D01*
X230969064Y-69062165D01*
X231373295Y-68792066D01*
X231717066Y-68448295D01*
X231987165Y-68044064D01*
X232173212Y-67594906D01*
X232268058Y-67118083D01*
X232268058Y-66631917D01*
X232173212Y-66155094D01*
X231987165Y-65705936D01*
X231717066Y-65301705D01*
X231373295Y-64957934D01*
X230969064Y-64687835D01*
X230519906Y-64501788D01*
X230043083Y-64406942D01*
X229556917Y-64406942D01*
X229080094Y-64501788D01*
X228630936Y-64687835D01*
X228226705Y-64957934D01*
X227882934Y-65301705D01*
X227612835Y-65705936D01*
X227426788Y-66155094D01*
X227331942Y-66631917D01*
X214927000Y-66631917D01*
X214927000Y-59002000D01*
X244290001Y-59002000D01*
X244290000Y-108748000D01*
G37*
G04 #@! TD.AperFunction*
D28*
X179673000Y-108748000D02*
X149927000Y-108748000D01*
X149927000Y-93631917D01*
X162331942Y-93631917D01*
X162331942Y-94118083D01*
X162426788Y-94594906D01*
X162612835Y-95044064D01*
X162882934Y-95448295D01*
X163226705Y-95792066D01*
X163630936Y-96062165D01*
X164080094Y-96248212D01*
X164556917Y-96343058D01*
X165043083Y-96343058D01*
X165519906Y-96248212D01*
X165969064Y-96062165D01*
X166373295Y-95792066D01*
X166717066Y-95448295D01*
X166987165Y-95044064D01*
X167173212Y-94594906D01*
X167268058Y-94118083D01*
X167268058Y-93631917D01*
X167173212Y-93155094D01*
X166987165Y-92705936D01*
X166717066Y-92301705D01*
X166373295Y-91957934D01*
X165969064Y-91687835D01*
X165519906Y-91501788D01*
X165043083Y-91406942D01*
X164556917Y-91406942D01*
X164080094Y-91501788D01*
X163630936Y-91687835D01*
X163226705Y-91957934D01*
X162882934Y-92301705D01*
X162612835Y-92705936D01*
X162426788Y-93155094D01*
X162331942Y-93631917D01*
X149927000Y-93631917D01*
X149927000Y-83631917D01*
X162331942Y-83631917D01*
X162331942Y-84118083D01*
X162426788Y-84594906D01*
X162612835Y-85044064D01*
X162882934Y-85448295D01*
X163226705Y-85792066D01*
X163630936Y-86062165D01*
X164080094Y-86248212D01*
X164556917Y-86343058D01*
X165043083Y-86343058D01*
X165519906Y-86248212D01*
X165969064Y-86062165D01*
X166373295Y-85792066D01*
X166717066Y-85448295D01*
X166987165Y-85044064D01*
X167173212Y-84594906D01*
X167268058Y-84118083D01*
X167268058Y-83631917D01*
X167173212Y-83155094D01*
X166987165Y-82705936D01*
X166717066Y-82301705D01*
X166373295Y-81957934D01*
X165969064Y-81687835D01*
X165519906Y-81501788D01*
X165043083Y-81406942D01*
X164556917Y-81406942D01*
X164080094Y-81501788D01*
X163630936Y-81687835D01*
X163226705Y-81957934D01*
X162882934Y-82301705D01*
X162612835Y-82705936D01*
X162426788Y-83155094D01*
X162331942Y-83631917D01*
X149927000Y-83631917D01*
X149927000Y-76789155D01*
X162065450Y-76789155D01*
X162461634Y-77309550D01*
X163176612Y-77699748D01*
X163953976Y-77942964D01*
X164763853Y-78029851D01*
X165575118Y-77957069D01*
X166356597Y-77727415D01*
X167078256Y-77349715D01*
X167138366Y-77309550D01*
X167534550Y-76789155D01*
X164800000Y-74054605D01*
X162065450Y-76789155D01*
X149927000Y-76789155D01*
X149927000Y-73838853D01*
X160645149Y-73838853D01*
X160717931Y-74650118D01*
X160947585Y-75431597D01*
X161325285Y-76153256D01*
X161365450Y-76213366D01*
X161885845Y-76609550D01*
X164620395Y-73875000D01*
X164979605Y-73875000D01*
X167714155Y-76609550D01*
X168234550Y-76213366D01*
X168624748Y-75498388D01*
X168867964Y-74721024D01*
X168954851Y-73911147D01*
X168882069Y-73099882D01*
X168652415Y-72318403D01*
X168274715Y-71596744D01*
X168234550Y-71536634D01*
X167714155Y-71140450D01*
X164979605Y-73875000D01*
X164620395Y-73875000D01*
X161885845Y-71140450D01*
X161365450Y-71536634D01*
X160975252Y-72251612D01*
X160732036Y-73028976D01*
X160645149Y-73838853D01*
X149927000Y-73838853D01*
X149927000Y-70960845D01*
X162065450Y-70960845D01*
X164800000Y-73695395D01*
X167534550Y-70960845D01*
X167138366Y-70440450D01*
X166423388Y-70050252D01*
X165646024Y-69807036D01*
X164836147Y-69720149D01*
X164024882Y-69792931D01*
X163243403Y-70022585D01*
X162521744Y-70400285D01*
X162461634Y-70440450D01*
X162065450Y-70960845D01*
X149927000Y-70960845D01*
X149927000Y-66631917D01*
X162331942Y-66631917D01*
X162331942Y-67118083D01*
X162426788Y-67594906D01*
X162612835Y-68044064D01*
X162882934Y-68448295D01*
X163226705Y-68792066D01*
X163630936Y-69062165D01*
X164080094Y-69248212D01*
X164556917Y-69343058D01*
X165043083Y-69343058D01*
X165519906Y-69248212D01*
X165969064Y-69062165D01*
X166373295Y-68792066D01*
X166717066Y-68448295D01*
X166987165Y-68044064D01*
X167173212Y-67594906D01*
X167268058Y-67118083D01*
X167268058Y-66631917D01*
X167173212Y-66155094D01*
X166987165Y-65705936D01*
X166717066Y-65301705D01*
X166373295Y-64957934D01*
X165969064Y-64687835D01*
X165519906Y-64501788D01*
X165043083Y-64406942D01*
X164556917Y-64406942D01*
X164080094Y-64501788D01*
X163630936Y-64687835D01*
X163226705Y-64957934D01*
X162882934Y-65301705D01*
X162612835Y-65705936D01*
X162426788Y-66155094D01*
X162331942Y-66631917D01*
X149927000Y-66631917D01*
X149927000Y-59002000D01*
X179673000Y-59002000D01*
X179673000Y-108748000D01*
G04 #@! TA.AperFunction,Conductor*
D29*
G36*
X179673000Y-108748000D02*
G01*
X149927000Y-108748000D01*
X149927000Y-93631917D01*
X162331942Y-93631917D01*
X162331942Y-94118083D01*
X162426788Y-94594906D01*
X162612835Y-95044064D01*
X162882934Y-95448295D01*
X163226705Y-95792066D01*
X163630936Y-96062165D01*
X164080094Y-96248212D01*
X164556917Y-96343058D01*
X165043083Y-96343058D01*
X165519906Y-96248212D01*
X165969064Y-96062165D01*
X166373295Y-95792066D01*
X166717066Y-95448295D01*
X166987165Y-95044064D01*
X167173212Y-94594906D01*
X167268058Y-94118083D01*
X167268058Y-93631917D01*
X167173212Y-93155094D01*
X166987165Y-92705936D01*
X166717066Y-92301705D01*
X166373295Y-91957934D01*
X165969064Y-91687835D01*
X165519906Y-91501788D01*
X165043083Y-91406942D01*
X164556917Y-91406942D01*
X164080094Y-91501788D01*
X163630936Y-91687835D01*
X163226705Y-91957934D01*
X162882934Y-92301705D01*
X162612835Y-92705936D01*
X162426788Y-93155094D01*
X162331942Y-93631917D01*
X149927000Y-93631917D01*
X149927000Y-83631917D01*
X162331942Y-83631917D01*
X162331942Y-84118083D01*
X162426788Y-84594906D01*
X162612835Y-85044064D01*
X162882934Y-85448295D01*
X163226705Y-85792066D01*
X163630936Y-86062165D01*
X164080094Y-86248212D01*
X164556917Y-86343058D01*
X165043083Y-86343058D01*
X165519906Y-86248212D01*
X165969064Y-86062165D01*
X166373295Y-85792066D01*
X166717066Y-85448295D01*
X166987165Y-85044064D01*
X167173212Y-84594906D01*
X167268058Y-84118083D01*
X167268058Y-83631917D01*
X167173212Y-83155094D01*
X166987165Y-82705936D01*
X166717066Y-82301705D01*
X166373295Y-81957934D01*
X165969064Y-81687835D01*
X165519906Y-81501788D01*
X165043083Y-81406942D01*
X164556917Y-81406942D01*
X164080094Y-81501788D01*
X163630936Y-81687835D01*
X163226705Y-81957934D01*
X162882934Y-82301705D01*
X162612835Y-82705936D01*
X162426788Y-83155094D01*
X162331942Y-83631917D01*
X149927000Y-83631917D01*
X149927000Y-76789155D01*
X162065450Y-76789155D01*
X162461634Y-77309550D01*
X163176612Y-77699748D01*
X163953976Y-77942964D01*
X164763853Y-78029851D01*
X165575118Y-77957069D01*
X166356597Y-77727415D01*
X167078256Y-77349715D01*
X167138366Y-77309550D01*
X167534550Y-76789155D01*
X164800000Y-74054605D01*
X162065450Y-76789155D01*
X149927000Y-76789155D01*
X149927000Y-73838853D01*
X160645149Y-73838853D01*
X160717931Y-74650118D01*
X160947585Y-75431597D01*
X161325285Y-76153256D01*
X161365450Y-76213366D01*
X161885845Y-76609550D01*
X164620395Y-73875000D01*
X164979605Y-73875000D01*
X167714155Y-76609550D01*
X168234550Y-76213366D01*
X168624748Y-75498388D01*
X168867964Y-74721024D01*
X168954851Y-73911147D01*
X168882069Y-73099882D01*
X168652415Y-72318403D01*
X168274715Y-71596744D01*
X168234550Y-71536634D01*
X167714155Y-71140450D01*
X164979605Y-73875000D01*
X164620395Y-73875000D01*
X161885845Y-71140450D01*
X161365450Y-71536634D01*
X160975252Y-72251612D01*
X160732036Y-73028976D01*
X160645149Y-73838853D01*
X149927000Y-73838853D01*
X149927000Y-70960845D01*
X162065450Y-70960845D01*
X164800000Y-73695395D01*
X167534550Y-70960845D01*
X167138366Y-70440450D01*
X166423388Y-70050252D01*
X165646024Y-69807036D01*
X164836147Y-69720149D01*
X164024882Y-69792931D01*
X163243403Y-70022585D01*
X162521744Y-70400285D01*
X162461634Y-70440450D01*
X162065450Y-70960845D01*
X149927000Y-70960845D01*
X149927000Y-66631917D01*
X162331942Y-66631917D01*
X162331942Y-67118083D01*
X162426788Y-67594906D01*
X162612835Y-68044064D01*
X162882934Y-68448295D01*
X163226705Y-68792066D01*
X163630936Y-69062165D01*
X164080094Y-69248212D01*
X164556917Y-69343058D01*
X165043083Y-69343058D01*
X165519906Y-69248212D01*
X165969064Y-69062165D01*
X166373295Y-68792066D01*
X166717066Y-68448295D01*
X166987165Y-68044064D01*
X167173212Y-67594906D01*
X167268058Y-67118083D01*
X167268058Y-66631917D01*
X167173212Y-66155094D01*
X166987165Y-65705936D01*
X166717066Y-65301705D01*
X166373295Y-64957934D01*
X165969064Y-64687835D01*
X165519906Y-64501788D01*
X165043083Y-64406942D01*
X164556917Y-64406942D01*
X164080094Y-64501788D01*
X163630936Y-64687835D01*
X163226705Y-64957934D01*
X162882934Y-65301705D01*
X162612835Y-65705936D01*
X162426788Y-66155094D01*
X162331942Y-66631917D01*
X149927000Y-66631917D01*
X149927000Y-59002000D01*
X179673000Y-59002000D01*
X179673000Y-108748000D01*
G37*
G04 #@! TD.AperFunction*
M02*
