G04 #@! TF.GenerationSoftware,KiCad,Pcbnew,(5.1.7)-1*
G04 #@! TF.CreationDate,2022-12-29T18:38:42+01:00*
G04 #@! TF.ProjectId,Abstimmspannungs-Modul,41627374-696d-46d7-9370-616e6e756e67,rev?*
G04 #@! TF.SameCoordinates,Original*
G04 #@! TF.FileFunction,Copper,L2,Bot*
G04 #@! TF.FilePolarity,Positive*
%FSLAX46Y46*%
G04 Gerber Fmt 4.6, Leading zero omitted, Abs format (unit mm)*
G04 Created by KiCad (PCBNEW (5.1.7)-1) date 2022-12-29 18:38:42*
%MOMM*%
%LPD*%
G01*
G04 APERTURE LIST*
G04 #@! TA.AperFunction,ComponentPad*
%ADD10C,1.400000*%
G04 #@! TD*
G04 #@! TA.AperFunction,ComponentPad*
%ADD11C,1.600000*%
G04 #@! TD*
G04 #@! TA.AperFunction,ComponentPad*
%ADD12O,1.600000X1.600000*%
G04 #@! TD*
G04 #@! TA.AperFunction,ComponentPad*
%ADD13R,2.400000X1.600000*%
G04 #@! TD*
G04 #@! TA.AperFunction,ComponentPad*
%ADD14O,2.400000X1.600000*%
G04 #@! TD*
G04 #@! TA.AperFunction,ComponentPad*
%ADD15C,2.340000*%
G04 #@! TD*
G04 #@! TA.AperFunction,ComponentPad*
%ADD16R,1.600000X1.600000*%
G04 #@! TD*
G04 #@! TA.AperFunction,ComponentPad*
%ADD17C,3.500000*%
G04 #@! TD*
G04 #@! TA.AperFunction,ViaPad*
%ADD18C,1.200000*%
G04 #@! TD*
G04 #@! TA.AperFunction,Conductor*
%ADD19C,1.500000*%
G04 #@! TD*
G04 #@! TA.AperFunction,Conductor*
%ADD20C,0.500000*%
G04 #@! TD*
G04 APERTURE END LIST*
D10*
X76000000Y-78250000D03*
X73500000Y-78250000D03*
X67500000Y-78250000D03*
X70000000Y-78250000D03*
D11*
X82500000Y-80250000D03*
D12*
X82500000Y-70090000D03*
D11*
X87500000Y-80250000D03*
D12*
X87500000Y-70090000D03*
D11*
X61000000Y-80250000D03*
D12*
X61000000Y-70090000D03*
D11*
X87500000Y-54840000D03*
D12*
X87500000Y-65000000D03*
D11*
X63500000Y-54840000D03*
X63500000Y-59840000D03*
X80000000Y-54840000D03*
X80000000Y-59840000D03*
D13*
X67940000Y-54840000D03*
D14*
X75560000Y-72620000D03*
X67940000Y-57380000D03*
X75560000Y-70080000D03*
X67940000Y-59920000D03*
X75560000Y-67540000D03*
X67940000Y-62460000D03*
X75560000Y-65000000D03*
X67940000Y-65000000D03*
X75560000Y-62460000D03*
X67940000Y-67540000D03*
X75560000Y-59920000D03*
X67940000Y-70080000D03*
X75560000Y-57380000D03*
X67940000Y-72620000D03*
X75560000Y-54840000D03*
D11*
X41000000Y-80250000D03*
D12*
X41000000Y-70090000D03*
D11*
X51000000Y-80250000D03*
D12*
X51000000Y-70090000D03*
D11*
X46000000Y-65000000D03*
D12*
X46000000Y-54840000D03*
D11*
X41000000Y-54840000D03*
D12*
X41000000Y-65000000D03*
D11*
X56000000Y-80250000D03*
D12*
X56000000Y-70090000D03*
D11*
X51000000Y-65000000D03*
D12*
X51000000Y-54840000D03*
D11*
X46000000Y-80250000D03*
D12*
X46000000Y-70090000D03*
D15*
X58500000Y-43500000D03*
X63500000Y-48500000D03*
X68500000Y-43500000D03*
X41000000Y-43500000D03*
X46000000Y-48500000D03*
X51000000Y-43500000D03*
D16*
X61000000Y-65000000D03*
D11*
X61000000Y-63000000D03*
D17*
X45750000Y-87000000D03*
X50750000Y-87000000D03*
X55750000Y-87000000D03*
X60750000Y-87000000D03*
X65750000Y-87000000D03*
X70750000Y-87000000D03*
X75750000Y-87000000D03*
X80750000Y-87000000D03*
X85750000Y-87000000D03*
D18*
X60750000Y-85000000D03*
D19*
X60750000Y-87000000D02*
X60750000Y-85000000D01*
D20*
X36750000Y-52750000D02*
X41000000Y-48500000D01*
X36750000Y-68750000D02*
X36750000Y-52750000D01*
X51000000Y-83000000D02*
X36750000Y-68750000D01*
X61750000Y-83000000D02*
X51000000Y-83000000D01*
X41000000Y-48500000D02*
X46000000Y-48500000D01*
X65750000Y-87000000D02*
X61750000Y-83000000D01*
X67940000Y-65000000D02*
X61000000Y-65000000D01*
X61000000Y-65000000D02*
X61000000Y-70090000D01*
X67940000Y-65000000D02*
X70750000Y-65000000D01*
X70750000Y-65000000D02*
X73250000Y-62500000D01*
X73250000Y-62500000D02*
X73250000Y-53500000D01*
X73250000Y-53500000D02*
X74500000Y-52250000D01*
X84910000Y-52250000D02*
X87500000Y-54840000D01*
X74500000Y-52250000D02*
X84910000Y-52250000D01*
X63500000Y-54840000D02*
X67940000Y-54840000D01*
X67940000Y-50310000D02*
X67940000Y-54840000D01*
X71500000Y-40750000D02*
X71500000Y-46750000D01*
X71500000Y-46750000D02*
X67940000Y-50310000D01*
X69500000Y-38750000D02*
X71500000Y-40750000D01*
X37000000Y-44010038D02*
X42260038Y-38750000D01*
X35500000Y-52500000D02*
X37000000Y-51000000D01*
X37000000Y-51000000D02*
X37000000Y-44010038D01*
X35500000Y-78500000D02*
X35500000Y-52500000D01*
X42260038Y-38750000D02*
X69500000Y-38750000D01*
X37000000Y-80000000D02*
X35500000Y-78500000D01*
X37000000Y-83000000D02*
X37000000Y-80000000D01*
X41000000Y-87000000D02*
X37000000Y-83000000D01*
X45750000Y-87000000D02*
X41000000Y-87000000D01*
X69580000Y-59920000D02*
X67940000Y-59920000D01*
X70500000Y-51500000D02*
X70500000Y-59000000D01*
X73500000Y-48500000D02*
X70500000Y-51500000D01*
X70500000Y-59000000D02*
X69580000Y-59920000D01*
X88250000Y-48500000D02*
X73500000Y-48500000D01*
X91500000Y-51750000D02*
X88250000Y-48500000D01*
X91500000Y-88750000D02*
X91500000Y-51750000D01*
X52000000Y-93250000D02*
X87000000Y-93250000D01*
X87000000Y-93250000D02*
X91500000Y-88750000D01*
X50750000Y-92000000D02*
X52000000Y-93250000D01*
X50750000Y-87000000D02*
X50750000Y-92000000D01*
X50250000Y-84500000D02*
X46000000Y-80250000D01*
X53250000Y-84500000D02*
X50250000Y-84500000D01*
X55750000Y-87000000D02*
X53250000Y-84500000D01*
X70790000Y-62460000D02*
X67940000Y-62460000D01*
X72000000Y-61250000D02*
X70790000Y-62460000D01*
X72000000Y-52500000D02*
X72000000Y-61250000D01*
X74250000Y-50250000D02*
X72000000Y-52500000D01*
X89750000Y-52750000D02*
X87250000Y-50250000D01*
X89750000Y-88000000D02*
X89750000Y-52750000D01*
X86000000Y-91750000D02*
X89750000Y-88000000D01*
X57000000Y-91750000D02*
X86000000Y-91750000D01*
X87250000Y-50250000D02*
X74250000Y-50250000D01*
X55750000Y-90500000D02*
X57000000Y-91750000D01*
X55750000Y-87000000D02*
X55750000Y-90500000D01*
X65750000Y-82000000D02*
X70750000Y-87000000D01*
X52750000Y-82000000D02*
X65750000Y-82000000D01*
X51000000Y-80250000D02*
X52750000Y-82000000D01*
X69000000Y-80250000D02*
X75750000Y-87000000D01*
X61000000Y-80250000D02*
X69000000Y-80250000D01*
X80750000Y-82000000D02*
X82500000Y-80250000D01*
X80750000Y-87000000D02*
X80750000Y-82000000D01*
X85750000Y-82000000D02*
X87500000Y-80250000D01*
X85750000Y-87000000D02*
X85750000Y-82000000D01*
X46000000Y-54840000D02*
X47910000Y-56750000D01*
X55250000Y-56750000D02*
X63500000Y-48500000D01*
X47910000Y-56750000D02*
X55250000Y-56750000D01*
X46000000Y-70090000D02*
X56000000Y-70090000D01*
X51000000Y-70090000D02*
X51000000Y-65000000D01*
X56000000Y-70090000D02*
X57660000Y-71750000D01*
X57660000Y-71750000D02*
X61750000Y-71750000D01*
X65960000Y-67540000D02*
X67940000Y-67540000D01*
X61750000Y-71750000D02*
X65960000Y-67540000D01*
X68500000Y-43500000D02*
X68500000Y-47250000D01*
X68500000Y-47500000D02*
X68500000Y-47250000D01*
X51000000Y-65000000D02*
X68500000Y-47500000D01*
X46000000Y-65000000D02*
X41000000Y-65000000D01*
X52125000Y-78125000D02*
X54250000Y-80250000D01*
X48375000Y-78125000D02*
X52125000Y-78125000D01*
X43500000Y-73250000D02*
X48375000Y-78125000D01*
X43500000Y-69000000D02*
X43500000Y-73250000D01*
X46000000Y-66500000D02*
X43500000Y-69000000D01*
X54250000Y-80250000D02*
X56000000Y-80250000D01*
X46000000Y-65000000D02*
X46000000Y-66500000D01*
X64245000Y-73745000D02*
X65370000Y-72620000D01*
X64245000Y-77005000D02*
X64245000Y-73745000D01*
X59870000Y-78120000D02*
X63130000Y-78120000D01*
X65370000Y-72620000D02*
X67940000Y-72620000D01*
X63130000Y-78120000D02*
X64245000Y-77005000D01*
X57750000Y-80240000D02*
X59870000Y-78120000D01*
X57750000Y-80250000D02*
X57750000Y-80240000D01*
X56000000Y-80250000D02*
X57750000Y-80250000D01*
X46500000Y-43500000D02*
X41000000Y-43500000D01*
X49000000Y-46000000D02*
X46500000Y-43500000D01*
X49000000Y-49500000D02*
X49000000Y-46000000D01*
X47500000Y-51000000D02*
X49000000Y-49500000D01*
X40000000Y-51000000D02*
X47500000Y-51000000D01*
X37955000Y-53045000D02*
X40000000Y-51000000D01*
X37955000Y-67045000D02*
X37955000Y-53045000D01*
X41000000Y-70090000D02*
X37955000Y-67045000D01*
X51000000Y-43500000D02*
X51000000Y-54840000D01*
X82490000Y-70080000D02*
X82500000Y-70090000D01*
X75560000Y-70080000D02*
X82490000Y-70080000D01*
X70000000Y-78250000D02*
X72750000Y-75500000D01*
X72750000Y-75500000D02*
X72750000Y-70750000D01*
X73420000Y-70080000D02*
X75560000Y-70080000D01*
X72750000Y-70750000D02*
X73420000Y-70080000D01*
X84950000Y-67540000D02*
X87500000Y-70090000D01*
X75560000Y-67540000D02*
X84950000Y-67540000D01*
X67500000Y-78250000D02*
X71000000Y-74750000D01*
X71000000Y-74750000D02*
X71000000Y-69750000D01*
X73210000Y-67540000D02*
X75560000Y-67540000D01*
X71000000Y-69750000D02*
X73210000Y-67540000D01*
X79920000Y-59920000D02*
X80000000Y-59840000D01*
X75560000Y-59920000D02*
X79920000Y-59920000D01*
X82340000Y-59840000D02*
X87500000Y-65000000D01*
X80000000Y-59840000D02*
X82340000Y-59840000D01*
X75560000Y-72620000D02*
X75560000Y-76060000D01*
X76000000Y-76500000D02*
X76000000Y-78250000D01*
X75560000Y-76060000D02*
X76000000Y-76500000D01*
M02*
