G04 #@! TF.GenerationSoftware,KiCad,Pcbnew,(5.1.7)-1*
G04 #@! TF.CreationDate,2022-12-29T18:38:42+01:00*
G04 #@! TF.ProjectId,Abstimmspannungs-Modul,41627374-696d-46d7-9370-616e6e756e67,rev?*
G04 #@! TF.SameCoordinates,Original*
G04 #@! TF.FileFunction,Legend,Top*
G04 #@! TF.FilePolarity,Positive*
%FSLAX46Y46*%
G04 Gerber Fmt 4.6, Leading zero omitted, Abs format (unit mm)*
G04 Created by KiCad (PCBNEW (5.1.7)-1) date 2022-12-29 18:38:42*
%MOMM*%
%LPD*%
G01*
G04 APERTURE LIST*
%ADD10C,0.200000*%
%ADD11C,0.225000*%
%ADD12C,0.150000*%
%ADD13C,0.120000*%
%ADD14C,1.400000*%
%ADD15C,1.600000*%
%ADD16O,1.600000X1.600000*%
%ADD17R,2.400000X1.600000*%
%ADD18O,2.400000X1.600000*%
%ADD19C,2.340000*%
%ADD20R,1.600000X1.600000*%
G04 APERTURE END LIST*
D10*
X46630952Y-91202380D02*
X46630952Y-91916666D01*
X46583333Y-92059523D01*
X46488095Y-92154761D01*
X46345238Y-92202380D01*
X46250000Y-92202380D01*
X47583333Y-92202380D02*
X47107142Y-92202380D01*
X47107142Y-91202380D01*
X48488095Y-92107142D02*
X48440476Y-92154761D01*
X48297619Y-92202380D01*
X48202380Y-92202380D01*
X48059523Y-92154761D01*
X47964285Y-92059523D01*
X47916666Y-91964285D01*
X47869047Y-91773809D01*
X47869047Y-91630952D01*
X47916666Y-91440476D01*
X47964285Y-91345238D01*
X48059523Y-91250000D01*
X48202380Y-91202380D01*
X48297619Y-91202380D01*
X48440476Y-91250000D01*
X48488095Y-91297619D01*
X49202380Y-91202380D02*
X49202380Y-91916666D01*
X49154761Y-92059523D01*
X49059523Y-92154761D01*
X48916666Y-92202380D01*
X48821428Y-92202380D01*
X50154761Y-92202380D02*
X49678571Y-92202380D01*
X49678571Y-91202380D01*
X51059523Y-92107142D02*
X51011904Y-92154761D01*
X50869047Y-92202380D01*
X50773809Y-92202380D01*
X50630952Y-92154761D01*
X50535714Y-92059523D01*
X50488095Y-91964285D01*
X50440476Y-91773809D01*
X50440476Y-91630952D01*
X50488095Y-91440476D01*
X50535714Y-91345238D01*
X50630952Y-91250000D01*
X50773809Y-91202380D01*
X50869047Y-91202380D01*
X51011904Y-91250000D01*
X51059523Y-91297619D01*
X51773809Y-91202380D02*
X51773809Y-91916666D01*
X51726190Y-92059523D01*
X51630952Y-92154761D01*
X51488095Y-92202380D01*
X51392857Y-92202380D01*
X52726190Y-92202380D02*
X52250000Y-92202380D01*
X52250000Y-91202380D01*
X53630952Y-92107142D02*
X53583333Y-92154761D01*
X53440476Y-92202380D01*
X53345238Y-92202380D01*
X53202380Y-92154761D01*
X53107142Y-92059523D01*
X53059523Y-91964285D01*
X53011904Y-91773809D01*
X53011904Y-91630952D01*
X53059523Y-91440476D01*
X53107142Y-91345238D01*
X53202380Y-91250000D01*
X53345238Y-91202380D01*
X53440476Y-91202380D01*
X53583333Y-91250000D01*
X53630952Y-91297619D01*
X54345238Y-91202380D02*
X54345238Y-91916666D01*
X54297619Y-92059523D01*
X54202380Y-92154761D01*
X54059523Y-92202380D01*
X53964285Y-92202380D01*
X55297619Y-92202380D02*
X54821428Y-92202380D01*
X54821428Y-91202380D01*
X56202380Y-92107142D02*
X56154761Y-92154761D01*
X56011904Y-92202380D01*
X55916666Y-92202380D01*
X55773809Y-92154761D01*
X55678571Y-92059523D01*
X55630952Y-91964285D01*
X55583333Y-91773809D01*
X55583333Y-91630952D01*
X55630952Y-91440476D01*
X55678571Y-91345238D01*
X55773809Y-91250000D01*
X55916666Y-91202380D01*
X56011904Y-91202380D01*
X56154761Y-91250000D01*
X56202380Y-91297619D01*
D11*
X38681964Y-39250000D02*
X39396250Y-39250000D01*
X38539107Y-39678571D02*
X39039107Y-38178571D01*
X39539107Y-39678571D01*
X40039107Y-39678571D02*
X40039107Y-38178571D01*
X40039107Y-38750000D02*
X40181964Y-38678571D01*
X40467678Y-38678571D01*
X40610535Y-38750000D01*
X40681964Y-38821428D01*
X40753392Y-38964285D01*
X40753392Y-39392857D01*
X40681964Y-39535714D01*
X40610535Y-39607142D01*
X40467678Y-39678571D01*
X40181964Y-39678571D01*
X40039107Y-39607142D01*
X41324821Y-39607142D02*
X41467678Y-39678571D01*
X41753392Y-39678571D01*
X41896250Y-39607142D01*
X41967678Y-39464285D01*
X41967678Y-39392857D01*
X41896250Y-39250000D01*
X41753392Y-39178571D01*
X41539107Y-39178571D01*
X41396250Y-39107142D01*
X41324821Y-38964285D01*
X41324821Y-38892857D01*
X41396250Y-38750000D01*
X41539107Y-38678571D01*
X41753392Y-38678571D01*
X41896250Y-38750000D01*
X42396250Y-38678571D02*
X42967678Y-38678571D01*
X42610535Y-38178571D02*
X42610535Y-39464285D01*
X42681964Y-39607142D01*
X42824821Y-39678571D01*
X42967678Y-39678571D01*
X43467678Y-39678571D02*
X43467678Y-38678571D01*
X43467678Y-38178571D02*
X43396250Y-38250000D01*
X43467678Y-38321428D01*
X43539107Y-38250000D01*
X43467678Y-38178571D01*
X43467678Y-38321428D01*
X44181964Y-39678571D02*
X44181964Y-38678571D01*
X44181964Y-38821428D02*
X44253392Y-38750000D01*
X44396250Y-38678571D01*
X44610535Y-38678571D01*
X44753392Y-38750000D01*
X44824821Y-38892857D01*
X44824821Y-39678571D01*
X44824821Y-38892857D02*
X44896250Y-38750000D01*
X45039107Y-38678571D01*
X45253392Y-38678571D01*
X45396250Y-38750000D01*
X45467678Y-38892857D01*
X45467678Y-39678571D01*
X46181964Y-39678571D02*
X46181964Y-38678571D01*
X46181964Y-38821428D02*
X46253392Y-38750000D01*
X46396250Y-38678571D01*
X46610535Y-38678571D01*
X46753392Y-38750000D01*
X46824821Y-38892857D01*
X46824821Y-39678571D01*
X46824821Y-38892857D02*
X46896250Y-38750000D01*
X47039107Y-38678571D01*
X47253392Y-38678571D01*
X47396250Y-38750000D01*
X47467678Y-38892857D01*
X47467678Y-39678571D01*
X48110535Y-39607142D02*
X48253392Y-39678571D01*
X48539107Y-39678571D01*
X48681964Y-39607142D01*
X48753392Y-39464285D01*
X48753392Y-39392857D01*
X48681964Y-39250000D01*
X48539107Y-39178571D01*
X48324821Y-39178571D01*
X48181964Y-39107142D01*
X48110535Y-38964285D01*
X48110535Y-38892857D01*
X48181964Y-38750000D01*
X48324821Y-38678571D01*
X48539107Y-38678571D01*
X48681964Y-38750000D01*
X49396250Y-38678571D02*
X49396250Y-40178571D01*
X49396250Y-38750000D02*
X49539107Y-38678571D01*
X49824821Y-38678571D01*
X49967678Y-38750000D01*
X50039107Y-38821428D01*
X50110535Y-38964285D01*
X50110535Y-39392857D01*
X50039107Y-39535714D01*
X49967678Y-39607142D01*
X49824821Y-39678571D01*
X49539107Y-39678571D01*
X49396250Y-39607142D01*
X51396250Y-39678571D02*
X51396250Y-38892857D01*
X51324821Y-38750000D01*
X51181964Y-38678571D01*
X50896250Y-38678571D01*
X50753392Y-38750000D01*
X51396250Y-39607142D02*
X51253392Y-39678571D01*
X50896250Y-39678571D01*
X50753392Y-39607142D01*
X50681964Y-39464285D01*
X50681964Y-39321428D01*
X50753392Y-39178571D01*
X50896250Y-39107142D01*
X51253392Y-39107142D01*
X51396250Y-39035714D01*
X52110535Y-38678571D02*
X52110535Y-39678571D01*
X52110535Y-38821428D02*
X52181964Y-38750000D01*
X52324821Y-38678571D01*
X52539107Y-38678571D01*
X52681964Y-38750000D01*
X52753392Y-38892857D01*
X52753392Y-39678571D01*
X53467678Y-38678571D02*
X53467678Y-39678571D01*
X53467678Y-38821428D02*
X53539107Y-38750000D01*
X53681964Y-38678571D01*
X53896250Y-38678571D01*
X54039107Y-38750000D01*
X54110535Y-38892857D01*
X54110535Y-39678571D01*
X55467678Y-38678571D02*
X55467678Y-39678571D01*
X54824821Y-38678571D02*
X54824821Y-39464285D01*
X54896250Y-39607142D01*
X55039107Y-39678571D01*
X55253392Y-39678571D01*
X55396250Y-39607142D01*
X55467678Y-39535714D01*
X56181964Y-38678571D02*
X56181964Y-39678571D01*
X56181964Y-38821428D02*
X56253392Y-38750000D01*
X56396250Y-38678571D01*
X56610535Y-38678571D01*
X56753392Y-38750000D01*
X56824821Y-38892857D01*
X56824821Y-39678571D01*
X58181964Y-38678571D02*
X58181964Y-39892857D01*
X58110535Y-40035714D01*
X58039107Y-40107142D01*
X57896250Y-40178571D01*
X57681964Y-40178571D01*
X57539107Y-40107142D01*
X58181964Y-39607142D02*
X58039107Y-39678571D01*
X57753392Y-39678571D01*
X57610535Y-39607142D01*
X57539107Y-39535714D01*
X57467678Y-39392857D01*
X57467678Y-38964285D01*
X57539107Y-38821428D01*
X57610535Y-38750000D01*
X57753392Y-38678571D01*
X58039107Y-38678571D01*
X58181964Y-38750000D01*
D12*
X45559523Y-84952380D02*
X45750000Y-84952380D01*
X45845238Y-84904761D01*
X45892857Y-84857142D01*
X45988095Y-84714285D01*
X46035714Y-84523809D01*
X46035714Y-84142857D01*
X45988095Y-84047619D01*
X45940476Y-84000000D01*
X45845238Y-83952380D01*
X45654761Y-83952380D01*
X45559523Y-84000000D01*
X45511904Y-84047619D01*
X45464285Y-84142857D01*
X45464285Y-84380952D01*
X45511904Y-84476190D01*
X45559523Y-84523809D01*
X45654761Y-84571428D01*
X45845238Y-84571428D01*
X45940476Y-84523809D01*
X45988095Y-84476190D01*
X46035714Y-84380952D01*
X65988095Y-83952380D02*
X65511904Y-83952380D01*
X65464285Y-84428571D01*
X65511904Y-84380952D01*
X65607142Y-84333333D01*
X65845238Y-84333333D01*
X65940476Y-84380952D01*
X65988095Y-84428571D01*
X66035714Y-84523809D01*
X66035714Y-84761904D01*
X65988095Y-84857142D01*
X65940476Y-84904761D01*
X65845238Y-84952380D01*
X65607142Y-84952380D01*
X65511904Y-84904761D01*
X65464285Y-84857142D01*
X75416666Y-83952380D02*
X76035714Y-83952380D01*
X75702380Y-84333333D01*
X75845238Y-84333333D01*
X75940476Y-84380952D01*
X75988095Y-84428571D01*
X76035714Y-84523809D01*
X76035714Y-84761904D01*
X75988095Y-84857142D01*
X75940476Y-84904761D01*
X75845238Y-84952380D01*
X75559523Y-84952380D01*
X75464285Y-84904761D01*
X75416666Y-84857142D01*
D13*
X77110000Y-81060000D02*
X72390000Y-81060000D01*
X77110000Y-75440000D02*
X72390000Y-75440000D01*
X77110000Y-81060000D02*
X77110000Y-75440000D01*
X72390000Y-81060000D02*
X72390000Y-75440000D01*
X66390000Y-75440000D02*
X71110000Y-75440000D01*
X66390000Y-81060000D02*
X71110000Y-81060000D01*
X66390000Y-75440000D02*
X66390000Y-81060000D01*
X71110000Y-75440000D02*
X71110000Y-81060000D01*
X82500000Y-71070000D02*
X82500000Y-71960000D01*
X82500000Y-79270000D02*
X82500000Y-78380000D01*
X81190000Y-71960000D02*
X81190000Y-78380000D01*
X83810000Y-71960000D02*
X81190000Y-71960000D01*
X83810000Y-78380000D02*
X83810000Y-71960000D01*
X81190000Y-78380000D02*
X83810000Y-78380000D01*
X87500000Y-71070000D02*
X87500000Y-71960000D01*
X87500000Y-79270000D02*
X87500000Y-78380000D01*
X86190000Y-71960000D02*
X86190000Y-78380000D01*
X88810000Y-71960000D02*
X86190000Y-71960000D01*
X88810000Y-78380000D02*
X88810000Y-71960000D01*
X86190000Y-78380000D02*
X88810000Y-78380000D01*
X61000000Y-71070000D02*
X61000000Y-71960000D01*
X61000000Y-79270000D02*
X61000000Y-78380000D01*
X59690000Y-71960000D02*
X59690000Y-78380000D01*
X62310000Y-71960000D02*
X59690000Y-71960000D01*
X62310000Y-78380000D02*
X62310000Y-71960000D01*
X59690000Y-78380000D02*
X62310000Y-78380000D01*
X87500000Y-64020000D02*
X87500000Y-63130000D01*
X87500000Y-55820000D02*
X87500000Y-56710000D01*
X88810000Y-63130000D02*
X88810000Y-56710000D01*
X86190000Y-63130000D02*
X88810000Y-63130000D01*
X86190000Y-56710000D02*
X86190000Y-63130000D01*
X88810000Y-56710000D02*
X86190000Y-56710000D01*
X62504000Y-59900000D02*
X62190000Y-59900000D01*
X64810000Y-59900000D02*
X64496000Y-59900000D01*
X62504000Y-54780000D02*
X62190000Y-54780000D01*
X64810000Y-54780000D02*
X64496000Y-54780000D01*
X62190000Y-54780000D02*
X62190000Y-59900000D01*
X64810000Y-54780000D02*
X64810000Y-59900000D01*
X79004000Y-59900000D02*
X78690000Y-59900000D01*
X81310000Y-59900000D02*
X80996000Y-59900000D01*
X79004000Y-54780000D02*
X78690000Y-54780000D01*
X81310000Y-54780000D02*
X80996000Y-54780000D01*
X78690000Y-54780000D02*
X78690000Y-59900000D01*
X81310000Y-54780000D02*
X81310000Y-59900000D01*
X74000000Y-53510000D02*
X72750000Y-53510000D01*
X74000000Y-73950000D02*
X74000000Y-53510000D01*
X69500000Y-73950000D02*
X74000000Y-73950000D01*
X69500000Y-53510000D02*
X69500000Y-73950000D01*
X70750000Y-53510000D02*
X69500000Y-53510000D01*
X72750000Y-53510000D02*
G75*
G02*
X70750000Y-53510000I-1000000J0D01*
G01*
X39690000Y-78380000D02*
X42310000Y-78380000D01*
X42310000Y-78380000D02*
X42310000Y-71960000D01*
X42310000Y-71960000D02*
X39690000Y-71960000D01*
X39690000Y-71960000D02*
X39690000Y-78380000D01*
X41000000Y-79270000D02*
X41000000Y-78380000D01*
X41000000Y-71070000D02*
X41000000Y-71960000D01*
X51000000Y-71070000D02*
X51000000Y-71960000D01*
X51000000Y-79270000D02*
X51000000Y-78380000D01*
X49690000Y-71960000D02*
X49690000Y-78380000D01*
X52310000Y-71960000D02*
X49690000Y-71960000D01*
X52310000Y-78380000D02*
X52310000Y-71960000D01*
X49690000Y-78380000D02*
X52310000Y-78380000D01*
X46000000Y-55820000D02*
X46000000Y-56710000D01*
X46000000Y-64020000D02*
X46000000Y-63130000D01*
X44690000Y-56710000D02*
X44690000Y-63130000D01*
X47310000Y-56710000D02*
X44690000Y-56710000D01*
X47310000Y-63130000D02*
X47310000Y-56710000D01*
X44690000Y-63130000D02*
X47310000Y-63130000D01*
X41000000Y-64020000D02*
X41000000Y-63130000D01*
X41000000Y-55820000D02*
X41000000Y-56710000D01*
X42310000Y-63130000D02*
X42310000Y-56710000D01*
X39690000Y-63130000D02*
X42310000Y-63130000D01*
X39690000Y-56710000D02*
X39690000Y-63130000D01*
X42310000Y-56710000D02*
X39690000Y-56710000D01*
X56000000Y-71070000D02*
X56000000Y-71960000D01*
X56000000Y-79270000D02*
X56000000Y-78380000D01*
X54690000Y-71960000D02*
X54690000Y-78380000D01*
X57310000Y-71960000D02*
X54690000Y-71960000D01*
X57310000Y-78380000D02*
X57310000Y-71960000D01*
X54690000Y-78380000D02*
X57310000Y-78380000D01*
X51000000Y-55820000D02*
X51000000Y-56710000D01*
X51000000Y-64020000D02*
X51000000Y-63130000D01*
X49690000Y-56710000D02*
X49690000Y-63130000D01*
X52310000Y-56710000D02*
X49690000Y-56710000D01*
X52310000Y-63130000D02*
X52310000Y-56710000D01*
X49690000Y-63130000D02*
X52310000Y-63130000D01*
X46000000Y-71070000D02*
X46000000Y-71960000D01*
X46000000Y-79270000D02*
X46000000Y-78380000D01*
X44690000Y-71960000D02*
X44690000Y-78380000D01*
X47310000Y-71960000D02*
X44690000Y-71960000D01*
X47310000Y-78380000D02*
X47310000Y-71960000D01*
X44690000Y-78380000D02*
X47310000Y-78380000D01*
X62135000Y-48560000D02*
X60440000Y-48560000D01*
X66560000Y-48560000D02*
X64865000Y-48560000D01*
X66560000Y-43439000D02*
X60440000Y-43439000D01*
X60440000Y-43439000D02*
X60440000Y-48560000D01*
X66560000Y-43439000D02*
X66560000Y-48560000D01*
X67135000Y-43439000D02*
X59865000Y-43439000D01*
X71060000Y-43439000D02*
X69865000Y-43439000D01*
X57135000Y-43439000D02*
X55940000Y-43439000D01*
X62135000Y-48560000D02*
X55940000Y-48560000D01*
X71060000Y-48560000D02*
X64865000Y-48560000D01*
X55940000Y-43439000D02*
X55940000Y-48560000D01*
X71060000Y-43439000D02*
X71060000Y-48560000D01*
X44635000Y-48560000D02*
X42940000Y-48560000D01*
X49060000Y-48560000D02*
X47365000Y-48560000D01*
X49060000Y-43439000D02*
X42940000Y-43439000D01*
X42940000Y-43439000D02*
X42940000Y-48560000D01*
X49060000Y-43439000D02*
X49060000Y-48560000D01*
X49635000Y-43439000D02*
X42365000Y-43439000D01*
X53560000Y-43439000D02*
X52365000Y-43439000D01*
X39635000Y-43439000D02*
X38440000Y-43439000D01*
X44635000Y-48560000D02*
X38440000Y-48560000D01*
X53560000Y-48560000D02*
X47365000Y-48560000D01*
X38440000Y-43439000D02*
X38440000Y-48560000D01*
X53560000Y-43439000D02*
X53560000Y-48560000D01*
X60350000Y-66600000D02*
X61650000Y-66600000D01*
X61000000Y-67200000D02*
X61000000Y-66000000D01*
X60646000Y-61439000D02*
X61354000Y-61439000D01*
X60441000Y-61479000D02*
X61559000Y-61479000D01*
X60293000Y-61519000D02*
X61707000Y-61519000D01*
X60171000Y-61559000D02*
X61829000Y-61559000D01*
X60066000Y-61599000D02*
X61934000Y-61599000D01*
X59972000Y-61639000D02*
X62028000Y-61639000D01*
X59888000Y-61679000D02*
X62112000Y-61679000D01*
X59811000Y-61719000D02*
X62189000Y-61719000D01*
X59739000Y-61759000D02*
X62261000Y-61759000D01*
X59673000Y-61799000D02*
X62327000Y-61799000D01*
X59610000Y-61839000D02*
X62390000Y-61839000D01*
X59552000Y-61879000D02*
X62448000Y-61879000D01*
X59496000Y-61919000D02*
X62504000Y-61919000D01*
X59444000Y-61959000D02*
X62556000Y-61959000D01*
X59394000Y-61999000D02*
X62606000Y-61999000D01*
X61980000Y-62039000D02*
X62654000Y-62039000D01*
X59346000Y-62039000D02*
X60020000Y-62039000D01*
X61980000Y-62079000D02*
X62699000Y-62079000D01*
X59301000Y-62079000D02*
X60020000Y-62079000D01*
X61980000Y-62119000D02*
X62742000Y-62119000D01*
X59258000Y-62119000D02*
X60020000Y-62119000D01*
X61980000Y-62159000D02*
X62783000Y-62159000D01*
X59217000Y-62159000D02*
X60020000Y-62159000D01*
X61980000Y-62199000D02*
X62823000Y-62199000D01*
X59177000Y-62199000D02*
X60020000Y-62199000D01*
X61980000Y-62239000D02*
X62861000Y-62239000D01*
X59139000Y-62239000D02*
X60020000Y-62239000D01*
X61980000Y-62279000D02*
X62897000Y-62279000D01*
X59103000Y-62279000D02*
X60020000Y-62279000D01*
X61980000Y-62319000D02*
X62932000Y-62319000D01*
X59068000Y-62319000D02*
X60020000Y-62319000D01*
X61980000Y-62359000D02*
X62965000Y-62359000D01*
X59035000Y-62359000D02*
X60020000Y-62359000D01*
X61980000Y-62399000D02*
X62997000Y-62399000D01*
X59003000Y-62399000D02*
X60020000Y-62399000D01*
X61980000Y-62439000D02*
X63028000Y-62439000D01*
X58972000Y-62439000D02*
X60020000Y-62439000D01*
X61980000Y-62479000D02*
X63058000Y-62479000D01*
X58942000Y-62479000D02*
X60020000Y-62479000D01*
X61980000Y-62519000D02*
X63086000Y-62519000D01*
X58914000Y-62519000D02*
X60020000Y-62519000D01*
X61980000Y-62559000D02*
X63113000Y-62559000D01*
X58887000Y-62559000D02*
X60020000Y-62559000D01*
X61980000Y-62599000D02*
X63140000Y-62599000D01*
X58860000Y-62599000D02*
X60020000Y-62599000D01*
X61980000Y-62639000D02*
X63165000Y-62639000D01*
X58835000Y-62639000D02*
X60020000Y-62639000D01*
X61980000Y-62679000D02*
X63189000Y-62679000D01*
X58811000Y-62679000D02*
X60020000Y-62679000D01*
X61980000Y-62719000D02*
X63212000Y-62719000D01*
X58788000Y-62719000D02*
X60020000Y-62719000D01*
X61980000Y-62759000D02*
X63234000Y-62759000D01*
X58766000Y-62759000D02*
X60020000Y-62759000D01*
X61980000Y-62799000D02*
X63256000Y-62799000D01*
X58744000Y-62799000D02*
X60020000Y-62799000D01*
X61980000Y-62839000D02*
X63276000Y-62839000D01*
X58724000Y-62839000D02*
X60020000Y-62839000D01*
X61980000Y-62879000D02*
X63296000Y-62879000D01*
X58704000Y-62879000D02*
X60020000Y-62879000D01*
X61980000Y-62919000D02*
X63315000Y-62919000D01*
X58685000Y-62919000D02*
X60020000Y-62919000D01*
X61980000Y-62959000D02*
X63333000Y-62959000D01*
X58667000Y-62959000D02*
X60020000Y-62959000D01*
X61980000Y-62999000D02*
X63350000Y-62999000D01*
X58650000Y-62999000D02*
X60020000Y-62999000D01*
X61980000Y-63039000D02*
X63366000Y-63039000D01*
X58634000Y-63039000D02*
X60020000Y-63039000D01*
X61980000Y-63079000D02*
X63382000Y-63079000D01*
X58618000Y-63079000D02*
X60020000Y-63079000D01*
X61980000Y-63119000D02*
X63396000Y-63119000D01*
X58604000Y-63119000D02*
X60020000Y-63119000D01*
X61980000Y-63159000D02*
X63410000Y-63159000D01*
X58590000Y-63159000D02*
X60020000Y-63159000D01*
X61980000Y-63199000D02*
X63424000Y-63199000D01*
X58576000Y-63199000D02*
X60020000Y-63199000D01*
X61980000Y-63239000D02*
X63436000Y-63239000D01*
X58564000Y-63239000D02*
X60020000Y-63239000D01*
X61980000Y-63279000D02*
X63448000Y-63279000D01*
X58552000Y-63279000D02*
X60020000Y-63279000D01*
X61980000Y-63320000D02*
X63460000Y-63320000D01*
X58540000Y-63320000D02*
X60020000Y-63320000D01*
X61980000Y-63360000D02*
X63470000Y-63360000D01*
X58530000Y-63360000D02*
X60020000Y-63360000D01*
X61980000Y-63400000D02*
X63480000Y-63400000D01*
X58520000Y-63400000D02*
X60020000Y-63400000D01*
X61980000Y-63440000D02*
X63489000Y-63440000D01*
X58511000Y-63440000D02*
X60020000Y-63440000D01*
X61980000Y-63480000D02*
X63498000Y-63480000D01*
X58502000Y-63480000D02*
X60020000Y-63480000D01*
X61980000Y-63520000D02*
X63506000Y-63520000D01*
X58494000Y-63520000D02*
X60020000Y-63520000D01*
X61980000Y-63560000D02*
X63513000Y-63560000D01*
X58487000Y-63560000D02*
X60020000Y-63560000D01*
X61980000Y-63600000D02*
X63519000Y-63600000D01*
X58481000Y-63600000D02*
X60020000Y-63600000D01*
X61980000Y-63640000D02*
X63525000Y-63640000D01*
X58475000Y-63640000D02*
X60020000Y-63640000D01*
X61980000Y-63680000D02*
X63531000Y-63680000D01*
X58469000Y-63680000D02*
X60020000Y-63680000D01*
X61980000Y-63720000D02*
X63535000Y-63720000D01*
X58465000Y-63720000D02*
X60020000Y-63720000D01*
X61980000Y-63760000D02*
X63539000Y-63760000D01*
X58461000Y-63760000D02*
X60020000Y-63760000D01*
X61980000Y-63800000D02*
X63543000Y-63800000D01*
X58457000Y-63800000D02*
X60020000Y-63800000D01*
X61980000Y-63840000D02*
X63546000Y-63840000D01*
X58454000Y-63840000D02*
X60020000Y-63840000D01*
X61980000Y-63880000D02*
X63548000Y-63880000D01*
X58452000Y-63880000D02*
X60020000Y-63880000D01*
X61980000Y-63920000D02*
X63549000Y-63920000D01*
X58451000Y-63920000D02*
X60020000Y-63920000D01*
X61980000Y-63960000D02*
X63550000Y-63960000D01*
X58450000Y-63960000D02*
X60020000Y-63960000D01*
X58450000Y-64000000D02*
X63550000Y-64000000D01*
X59820277Y-61694278D02*
G75*
G03*
X59820000Y-66305580I1179723J-2305722D01*
G01*
X62179723Y-61694278D02*
G75*
G02*
X62180000Y-66305580I-1179723J-2305722D01*
G01*
X62179723Y-61694278D02*
G75*
G03*
X59820000Y-61694420I-1179723J-2305722D01*
G01*
D12*
X43750000Y-95000000D02*
X43750000Y-87000000D01*
X91250000Y-87000000D02*
X43750000Y-87000000D01*
X91250000Y-95000000D02*
X91250000Y-87000000D01*
X43750000Y-95000000D02*
X91250000Y-95000000D01*
X78857142Y-79369047D02*
X78904761Y-79416666D01*
X78952380Y-79559523D01*
X78952380Y-79654761D01*
X78904761Y-79797619D01*
X78809523Y-79892857D01*
X78714285Y-79940476D01*
X78523809Y-79988095D01*
X78380952Y-79988095D01*
X78190476Y-79940476D01*
X78095238Y-79892857D01*
X78000000Y-79797619D01*
X77952380Y-79654761D01*
X77952380Y-79559523D01*
X78000000Y-79416666D01*
X78047619Y-79369047D01*
X77952380Y-78464285D02*
X77952380Y-78940476D01*
X78428571Y-78988095D01*
X78380952Y-78940476D01*
X78333333Y-78845238D01*
X78333333Y-78607142D01*
X78380952Y-78511904D01*
X78428571Y-78464285D01*
X78523809Y-78416666D01*
X78761904Y-78416666D01*
X78857142Y-78464285D01*
X78904761Y-78511904D01*
X78952380Y-78607142D01*
X78952380Y-78845238D01*
X78904761Y-78940476D01*
X78857142Y-78988095D01*
X77952380Y-77797619D02*
X77952380Y-77702380D01*
X78000000Y-77607142D01*
X78047619Y-77559523D01*
X78142857Y-77511904D01*
X78333333Y-77464285D01*
X78571428Y-77464285D01*
X78761904Y-77511904D01*
X78857142Y-77559523D01*
X78904761Y-77607142D01*
X78952380Y-77702380D01*
X78952380Y-77797619D01*
X78904761Y-77892857D01*
X78857142Y-77940476D01*
X78761904Y-77988095D01*
X78571428Y-78035714D01*
X78333333Y-78035714D01*
X78142857Y-77988095D01*
X78047619Y-77940476D01*
X78000000Y-77892857D01*
X77952380Y-77797619D01*
X77952380Y-77130952D02*
X77952380Y-76511904D01*
X78333333Y-76845238D01*
X78333333Y-76702380D01*
X78380952Y-76607142D01*
X78428571Y-76559523D01*
X78523809Y-76511904D01*
X78761904Y-76511904D01*
X78857142Y-76559523D01*
X78904761Y-76607142D01*
X78952380Y-76702380D01*
X78952380Y-76988095D01*
X78904761Y-77083333D01*
X78857142Y-77130952D01*
X65357142Y-79369047D02*
X65404761Y-79416666D01*
X65452380Y-79559523D01*
X65452380Y-79654761D01*
X65404761Y-79797619D01*
X65309523Y-79892857D01*
X65214285Y-79940476D01*
X65023809Y-79988095D01*
X64880952Y-79988095D01*
X64690476Y-79940476D01*
X64595238Y-79892857D01*
X64500000Y-79797619D01*
X64452380Y-79654761D01*
X64452380Y-79559523D01*
X64500000Y-79416666D01*
X64547619Y-79369047D01*
X64452380Y-78464285D02*
X64452380Y-78940476D01*
X64928571Y-78988095D01*
X64880952Y-78940476D01*
X64833333Y-78845238D01*
X64833333Y-78607142D01*
X64880952Y-78511904D01*
X64928571Y-78464285D01*
X65023809Y-78416666D01*
X65261904Y-78416666D01*
X65357142Y-78464285D01*
X65404761Y-78511904D01*
X65452380Y-78607142D01*
X65452380Y-78845238D01*
X65404761Y-78940476D01*
X65357142Y-78988095D01*
X64452380Y-77797619D02*
X64452380Y-77702380D01*
X64500000Y-77607142D01*
X64547619Y-77559523D01*
X64642857Y-77511904D01*
X64833333Y-77464285D01*
X65071428Y-77464285D01*
X65261904Y-77511904D01*
X65357142Y-77559523D01*
X65404761Y-77607142D01*
X65452380Y-77702380D01*
X65452380Y-77797619D01*
X65404761Y-77892857D01*
X65357142Y-77940476D01*
X65261904Y-77988095D01*
X65071428Y-78035714D01*
X64833333Y-78035714D01*
X64642857Y-77988095D01*
X64547619Y-77940476D01*
X64500000Y-77892857D01*
X64452380Y-77797619D01*
X64547619Y-77083333D02*
X64500000Y-77035714D01*
X64452380Y-76940476D01*
X64452380Y-76702380D01*
X64500000Y-76607142D01*
X64547619Y-76559523D01*
X64642857Y-76511904D01*
X64738095Y-76511904D01*
X64880952Y-76559523D01*
X65452380Y-77130952D01*
X65452380Y-76511904D01*
X85262380Y-76289047D02*
X84786190Y-76622380D01*
X85262380Y-76860476D02*
X84262380Y-76860476D01*
X84262380Y-76479523D01*
X84310000Y-76384285D01*
X84357619Y-76336666D01*
X84452857Y-76289047D01*
X84595714Y-76289047D01*
X84690952Y-76336666D01*
X84738571Y-76384285D01*
X84786190Y-76479523D01*
X84786190Y-76860476D01*
X84262380Y-75384285D02*
X84262380Y-75860476D01*
X84738571Y-75908095D01*
X84690952Y-75860476D01*
X84643333Y-75765238D01*
X84643333Y-75527142D01*
X84690952Y-75431904D01*
X84738571Y-75384285D01*
X84833809Y-75336666D01*
X85071904Y-75336666D01*
X85167142Y-75384285D01*
X85214761Y-75431904D01*
X85262380Y-75527142D01*
X85262380Y-75765238D01*
X85214761Y-75860476D01*
X85167142Y-75908095D01*
X84262380Y-74717619D02*
X84262380Y-74622380D01*
X84310000Y-74527142D01*
X84357619Y-74479523D01*
X84452857Y-74431904D01*
X84643333Y-74384285D01*
X84881428Y-74384285D01*
X85071904Y-74431904D01*
X85167142Y-74479523D01*
X85214761Y-74527142D01*
X85262380Y-74622380D01*
X85262380Y-74717619D01*
X85214761Y-74812857D01*
X85167142Y-74860476D01*
X85071904Y-74908095D01*
X84881428Y-74955714D01*
X84643333Y-74955714D01*
X84452857Y-74908095D01*
X84357619Y-74860476D01*
X84310000Y-74812857D01*
X84262380Y-74717619D01*
X84357619Y-74003333D02*
X84310000Y-73955714D01*
X84262380Y-73860476D01*
X84262380Y-73622380D01*
X84310000Y-73527142D01*
X84357619Y-73479523D01*
X84452857Y-73431904D01*
X84548095Y-73431904D01*
X84690952Y-73479523D01*
X85262380Y-74050952D01*
X85262380Y-73431904D01*
X90262380Y-76289047D02*
X89786190Y-76622380D01*
X90262380Y-76860476D02*
X89262380Y-76860476D01*
X89262380Y-76479523D01*
X89310000Y-76384285D01*
X89357619Y-76336666D01*
X89452857Y-76289047D01*
X89595714Y-76289047D01*
X89690952Y-76336666D01*
X89738571Y-76384285D01*
X89786190Y-76479523D01*
X89786190Y-76860476D01*
X89262380Y-75384285D02*
X89262380Y-75860476D01*
X89738571Y-75908095D01*
X89690952Y-75860476D01*
X89643333Y-75765238D01*
X89643333Y-75527142D01*
X89690952Y-75431904D01*
X89738571Y-75384285D01*
X89833809Y-75336666D01*
X90071904Y-75336666D01*
X90167142Y-75384285D01*
X90214761Y-75431904D01*
X90262380Y-75527142D01*
X90262380Y-75765238D01*
X90214761Y-75860476D01*
X90167142Y-75908095D01*
X89262380Y-74717619D02*
X89262380Y-74622380D01*
X89310000Y-74527142D01*
X89357619Y-74479523D01*
X89452857Y-74431904D01*
X89643333Y-74384285D01*
X89881428Y-74384285D01*
X90071904Y-74431904D01*
X90167142Y-74479523D01*
X90214761Y-74527142D01*
X90262380Y-74622380D01*
X90262380Y-74717619D01*
X90214761Y-74812857D01*
X90167142Y-74860476D01*
X90071904Y-74908095D01*
X89881428Y-74955714D01*
X89643333Y-74955714D01*
X89452857Y-74908095D01*
X89357619Y-74860476D01*
X89310000Y-74812857D01*
X89262380Y-74717619D01*
X90262380Y-73431904D02*
X90262380Y-74003333D01*
X90262380Y-73717619D02*
X89262380Y-73717619D01*
X89405238Y-73812857D01*
X89500476Y-73908095D01*
X89548095Y-74003333D01*
X59142380Y-76289047D02*
X58666190Y-76622380D01*
X59142380Y-76860476D02*
X58142380Y-76860476D01*
X58142380Y-76479523D01*
X58190000Y-76384285D01*
X58237619Y-76336666D01*
X58332857Y-76289047D01*
X58475714Y-76289047D01*
X58570952Y-76336666D01*
X58618571Y-76384285D01*
X58666190Y-76479523D01*
X58666190Y-76860476D01*
X58142380Y-75384285D02*
X58142380Y-75860476D01*
X58618571Y-75908095D01*
X58570952Y-75860476D01*
X58523333Y-75765238D01*
X58523333Y-75527142D01*
X58570952Y-75431904D01*
X58618571Y-75384285D01*
X58713809Y-75336666D01*
X58951904Y-75336666D01*
X59047142Y-75384285D01*
X59094761Y-75431904D01*
X59142380Y-75527142D01*
X59142380Y-75765238D01*
X59094761Y-75860476D01*
X59047142Y-75908095D01*
X58142380Y-74717619D02*
X58142380Y-74622380D01*
X58190000Y-74527142D01*
X58237619Y-74479523D01*
X58332857Y-74431904D01*
X58523333Y-74384285D01*
X58761428Y-74384285D01*
X58951904Y-74431904D01*
X59047142Y-74479523D01*
X59094761Y-74527142D01*
X59142380Y-74622380D01*
X59142380Y-74717619D01*
X59094761Y-74812857D01*
X59047142Y-74860476D01*
X58951904Y-74908095D01*
X58761428Y-74955714D01*
X58523333Y-74955714D01*
X58332857Y-74908095D01*
X58237619Y-74860476D01*
X58190000Y-74812857D01*
X58142380Y-74717619D01*
X58475714Y-73527142D02*
X59142380Y-73527142D01*
X58094761Y-73765238D02*
X58809047Y-74003333D01*
X58809047Y-73384285D01*
X90262380Y-61039047D02*
X89786190Y-61372380D01*
X90262380Y-61610476D02*
X89262380Y-61610476D01*
X89262380Y-61229523D01*
X89310000Y-61134285D01*
X89357619Y-61086666D01*
X89452857Y-61039047D01*
X89595714Y-61039047D01*
X89690952Y-61086666D01*
X89738571Y-61134285D01*
X89786190Y-61229523D01*
X89786190Y-61610476D01*
X89262380Y-60134285D02*
X89262380Y-60610476D01*
X89738571Y-60658095D01*
X89690952Y-60610476D01*
X89643333Y-60515238D01*
X89643333Y-60277142D01*
X89690952Y-60181904D01*
X89738571Y-60134285D01*
X89833809Y-60086666D01*
X90071904Y-60086666D01*
X90167142Y-60134285D01*
X90214761Y-60181904D01*
X90262380Y-60277142D01*
X90262380Y-60515238D01*
X90214761Y-60610476D01*
X90167142Y-60658095D01*
X89262380Y-59467619D02*
X89262380Y-59372380D01*
X89310000Y-59277142D01*
X89357619Y-59229523D01*
X89452857Y-59181904D01*
X89643333Y-59134285D01*
X89881428Y-59134285D01*
X90071904Y-59181904D01*
X90167142Y-59229523D01*
X90214761Y-59277142D01*
X90262380Y-59372380D01*
X90262380Y-59467619D01*
X90214761Y-59562857D01*
X90167142Y-59610476D01*
X90071904Y-59658095D01*
X89881428Y-59705714D01*
X89643333Y-59705714D01*
X89452857Y-59658095D01*
X89357619Y-59610476D01*
X89310000Y-59562857D01*
X89262380Y-59467619D01*
X89262380Y-58277142D02*
X89262380Y-58467619D01*
X89310000Y-58562857D01*
X89357619Y-58610476D01*
X89500476Y-58705714D01*
X89690952Y-58753333D01*
X90071904Y-58753333D01*
X90167142Y-58705714D01*
X90214761Y-58658095D01*
X90262380Y-58562857D01*
X90262380Y-58372380D01*
X90214761Y-58277142D01*
X90167142Y-58229523D01*
X90071904Y-58181904D01*
X89833809Y-58181904D01*
X89738571Y-58229523D01*
X89690952Y-58277142D01*
X89643333Y-58372380D01*
X89643333Y-58562857D01*
X89690952Y-58658095D01*
X89738571Y-58705714D01*
X89833809Y-58753333D01*
X61297142Y-58459047D02*
X61344761Y-58506666D01*
X61392380Y-58649523D01*
X61392380Y-58744761D01*
X61344761Y-58887619D01*
X61249523Y-58982857D01*
X61154285Y-59030476D01*
X60963809Y-59078095D01*
X60820952Y-59078095D01*
X60630476Y-59030476D01*
X60535238Y-58982857D01*
X60440000Y-58887619D01*
X60392380Y-58744761D01*
X60392380Y-58649523D01*
X60440000Y-58506666D01*
X60487619Y-58459047D01*
X60392380Y-57554285D02*
X60392380Y-58030476D01*
X60868571Y-58078095D01*
X60820952Y-58030476D01*
X60773333Y-57935238D01*
X60773333Y-57697142D01*
X60820952Y-57601904D01*
X60868571Y-57554285D01*
X60963809Y-57506666D01*
X61201904Y-57506666D01*
X61297142Y-57554285D01*
X61344761Y-57601904D01*
X61392380Y-57697142D01*
X61392380Y-57935238D01*
X61344761Y-58030476D01*
X61297142Y-58078095D01*
X60392380Y-56887619D02*
X60392380Y-56792380D01*
X60440000Y-56697142D01*
X60487619Y-56649523D01*
X60582857Y-56601904D01*
X60773333Y-56554285D01*
X61011428Y-56554285D01*
X61201904Y-56601904D01*
X61297142Y-56649523D01*
X61344761Y-56697142D01*
X61392380Y-56792380D01*
X61392380Y-56887619D01*
X61344761Y-56982857D01*
X61297142Y-57030476D01*
X61201904Y-57078095D01*
X61011428Y-57125714D01*
X60773333Y-57125714D01*
X60582857Y-57078095D01*
X60487619Y-57030476D01*
X60440000Y-56982857D01*
X60392380Y-56887619D01*
X60392380Y-56220952D02*
X60392380Y-55554285D01*
X61392380Y-55982857D01*
X82917142Y-58459047D02*
X82964761Y-58506666D01*
X83012380Y-58649523D01*
X83012380Y-58744761D01*
X82964761Y-58887619D01*
X82869523Y-58982857D01*
X82774285Y-59030476D01*
X82583809Y-59078095D01*
X82440952Y-59078095D01*
X82250476Y-59030476D01*
X82155238Y-58982857D01*
X82060000Y-58887619D01*
X82012380Y-58744761D01*
X82012380Y-58649523D01*
X82060000Y-58506666D01*
X82107619Y-58459047D01*
X82012380Y-57554285D02*
X82012380Y-58030476D01*
X82488571Y-58078095D01*
X82440952Y-58030476D01*
X82393333Y-57935238D01*
X82393333Y-57697142D01*
X82440952Y-57601904D01*
X82488571Y-57554285D01*
X82583809Y-57506666D01*
X82821904Y-57506666D01*
X82917142Y-57554285D01*
X82964761Y-57601904D01*
X83012380Y-57697142D01*
X83012380Y-57935238D01*
X82964761Y-58030476D01*
X82917142Y-58078095D01*
X82012380Y-56887619D02*
X82012380Y-56792380D01*
X82060000Y-56697142D01*
X82107619Y-56649523D01*
X82202857Y-56601904D01*
X82393333Y-56554285D01*
X82631428Y-56554285D01*
X82821904Y-56601904D01*
X82917142Y-56649523D01*
X82964761Y-56697142D01*
X83012380Y-56792380D01*
X83012380Y-56887619D01*
X82964761Y-56982857D01*
X82917142Y-57030476D01*
X82821904Y-57078095D01*
X82631428Y-57125714D01*
X82393333Y-57125714D01*
X82202857Y-57078095D01*
X82107619Y-57030476D01*
X82060000Y-56982857D01*
X82012380Y-56887619D01*
X82012380Y-55697142D02*
X82012380Y-55887619D01*
X82060000Y-55982857D01*
X82107619Y-56030476D01*
X82250476Y-56125714D01*
X82440952Y-56173333D01*
X82821904Y-56173333D01*
X82917142Y-56125714D01*
X82964761Y-56078095D01*
X83012380Y-55982857D01*
X83012380Y-55792380D01*
X82964761Y-55697142D01*
X82917142Y-55649523D01*
X82821904Y-55601904D01*
X82583809Y-55601904D01*
X82488571Y-55649523D01*
X82440952Y-55697142D01*
X82393333Y-55792380D01*
X82393333Y-55982857D01*
X82440952Y-56078095D01*
X82488571Y-56125714D01*
X82583809Y-56173333D01*
X69821428Y-52962380D02*
X69821428Y-51962380D01*
X70869047Y-52867142D02*
X70821428Y-52914761D01*
X70678571Y-52962380D01*
X70583333Y-52962380D01*
X70440476Y-52914761D01*
X70345238Y-52819523D01*
X70297619Y-52724285D01*
X70250000Y-52533809D01*
X70250000Y-52390952D01*
X70297619Y-52200476D01*
X70345238Y-52105238D01*
X70440476Y-52010000D01*
X70583333Y-51962380D01*
X70678571Y-51962380D01*
X70821428Y-52010000D01*
X70869047Y-52057619D01*
X71773809Y-51962380D02*
X71297619Y-51962380D01*
X71250000Y-52438571D01*
X71297619Y-52390952D01*
X71392857Y-52343333D01*
X71630952Y-52343333D01*
X71726190Y-52390952D01*
X71773809Y-52438571D01*
X71821428Y-52533809D01*
X71821428Y-52771904D01*
X71773809Y-52867142D01*
X71726190Y-52914761D01*
X71630952Y-52962380D01*
X71392857Y-52962380D01*
X71297619Y-52914761D01*
X71250000Y-52867142D01*
X72440476Y-51962380D02*
X72535714Y-51962380D01*
X72630952Y-52010000D01*
X72678571Y-52057619D01*
X72726190Y-52152857D01*
X72773809Y-52343333D01*
X72773809Y-52581428D01*
X72726190Y-52771904D01*
X72678571Y-52867142D01*
X72630952Y-52914761D01*
X72535714Y-52962380D01*
X72440476Y-52962380D01*
X72345238Y-52914761D01*
X72297619Y-52867142D01*
X72250000Y-52771904D01*
X72202380Y-52581428D01*
X72202380Y-52343333D01*
X72250000Y-52152857D01*
X72297619Y-52057619D01*
X72345238Y-52010000D01*
X72440476Y-51962380D01*
X73726190Y-52962380D02*
X73154761Y-52962380D01*
X73440476Y-52962380D02*
X73440476Y-51962380D01*
X73345238Y-52105238D01*
X73250000Y-52200476D01*
X73154761Y-52248095D01*
X39142380Y-76289047D02*
X38666190Y-76622380D01*
X39142380Y-76860476D02*
X38142380Y-76860476D01*
X38142380Y-76479523D01*
X38190000Y-76384285D01*
X38237619Y-76336666D01*
X38332857Y-76289047D01*
X38475714Y-76289047D01*
X38570952Y-76336666D01*
X38618571Y-76384285D01*
X38666190Y-76479523D01*
X38666190Y-76860476D01*
X38142380Y-75384285D02*
X38142380Y-75860476D01*
X38618571Y-75908095D01*
X38570952Y-75860476D01*
X38523333Y-75765238D01*
X38523333Y-75527142D01*
X38570952Y-75431904D01*
X38618571Y-75384285D01*
X38713809Y-75336666D01*
X38951904Y-75336666D01*
X39047142Y-75384285D01*
X39094761Y-75431904D01*
X39142380Y-75527142D01*
X39142380Y-75765238D01*
X39094761Y-75860476D01*
X39047142Y-75908095D01*
X38142380Y-74717619D02*
X38142380Y-74622380D01*
X38190000Y-74527142D01*
X38237619Y-74479523D01*
X38332857Y-74431904D01*
X38523333Y-74384285D01*
X38761428Y-74384285D01*
X38951904Y-74431904D01*
X39047142Y-74479523D01*
X39094761Y-74527142D01*
X39142380Y-74622380D01*
X39142380Y-74717619D01*
X39094761Y-74812857D01*
X39047142Y-74860476D01*
X38951904Y-74908095D01*
X38761428Y-74955714D01*
X38523333Y-74955714D01*
X38332857Y-74908095D01*
X38237619Y-74860476D01*
X38190000Y-74812857D01*
X38142380Y-74717619D01*
X38570952Y-73812857D02*
X38523333Y-73908095D01*
X38475714Y-73955714D01*
X38380476Y-74003333D01*
X38332857Y-74003333D01*
X38237619Y-73955714D01*
X38190000Y-73908095D01*
X38142380Y-73812857D01*
X38142380Y-73622380D01*
X38190000Y-73527142D01*
X38237619Y-73479523D01*
X38332857Y-73431904D01*
X38380476Y-73431904D01*
X38475714Y-73479523D01*
X38523333Y-73527142D01*
X38570952Y-73622380D01*
X38570952Y-73812857D01*
X38618571Y-73908095D01*
X38666190Y-73955714D01*
X38761428Y-74003333D01*
X38951904Y-74003333D01*
X39047142Y-73955714D01*
X39094761Y-73908095D01*
X39142380Y-73812857D01*
X39142380Y-73622380D01*
X39094761Y-73527142D01*
X39047142Y-73479523D01*
X38951904Y-73431904D01*
X38761428Y-73431904D01*
X38666190Y-73479523D01*
X38618571Y-73527142D01*
X38570952Y-73622380D01*
X49142380Y-76289047D02*
X48666190Y-76622380D01*
X49142380Y-76860476D02*
X48142380Y-76860476D01*
X48142380Y-76479523D01*
X48190000Y-76384285D01*
X48237619Y-76336666D01*
X48332857Y-76289047D01*
X48475714Y-76289047D01*
X48570952Y-76336666D01*
X48618571Y-76384285D01*
X48666190Y-76479523D01*
X48666190Y-76860476D01*
X48142380Y-75384285D02*
X48142380Y-75860476D01*
X48618571Y-75908095D01*
X48570952Y-75860476D01*
X48523333Y-75765238D01*
X48523333Y-75527142D01*
X48570952Y-75431904D01*
X48618571Y-75384285D01*
X48713809Y-75336666D01*
X48951904Y-75336666D01*
X49047142Y-75384285D01*
X49094761Y-75431904D01*
X49142380Y-75527142D01*
X49142380Y-75765238D01*
X49094761Y-75860476D01*
X49047142Y-75908095D01*
X49142380Y-74384285D02*
X49142380Y-74955714D01*
X49142380Y-74670000D02*
X48142380Y-74670000D01*
X48285238Y-74765238D01*
X48380476Y-74860476D01*
X48428095Y-74955714D01*
X48142380Y-74050952D02*
X48142380Y-73384285D01*
X49142380Y-73812857D01*
X44142380Y-61039047D02*
X43666190Y-61372380D01*
X44142380Y-61610476D02*
X43142380Y-61610476D01*
X43142380Y-61229523D01*
X43190000Y-61134285D01*
X43237619Y-61086666D01*
X43332857Y-61039047D01*
X43475714Y-61039047D01*
X43570952Y-61086666D01*
X43618571Y-61134285D01*
X43666190Y-61229523D01*
X43666190Y-61610476D01*
X43142380Y-60134285D02*
X43142380Y-60610476D01*
X43618571Y-60658095D01*
X43570952Y-60610476D01*
X43523333Y-60515238D01*
X43523333Y-60277142D01*
X43570952Y-60181904D01*
X43618571Y-60134285D01*
X43713809Y-60086666D01*
X43951904Y-60086666D01*
X44047142Y-60134285D01*
X44094761Y-60181904D01*
X44142380Y-60277142D01*
X44142380Y-60515238D01*
X44094761Y-60610476D01*
X44047142Y-60658095D01*
X44142380Y-59134285D02*
X44142380Y-59705714D01*
X44142380Y-59420000D02*
X43142380Y-59420000D01*
X43285238Y-59515238D01*
X43380476Y-59610476D01*
X43428095Y-59705714D01*
X43142380Y-58277142D02*
X43142380Y-58467619D01*
X43190000Y-58562857D01*
X43237619Y-58610476D01*
X43380476Y-58705714D01*
X43570952Y-58753333D01*
X43951904Y-58753333D01*
X44047142Y-58705714D01*
X44094761Y-58658095D01*
X44142380Y-58562857D01*
X44142380Y-58372380D01*
X44094761Y-58277142D01*
X44047142Y-58229523D01*
X43951904Y-58181904D01*
X43713809Y-58181904D01*
X43618571Y-58229523D01*
X43570952Y-58277142D01*
X43523333Y-58372380D01*
X43523333Y-58562857D01*
X43570952Y-58658095D01*
X43618571Y-58705714D01*
X43713809Y-58753333D01*
X39142380Y-61039047D02*
X38666190Y-61372380D01*
X39142380Y-61610476D02*
X38142380Y-61610476D01*
X38142380Y-61229523D01*
X38190000Y-61134285D01*
X38237619Y-61086666D01*
X38332857Y-61039047D01*
X38475714Y-61039047D01*
X38570952Y-61086666D01*
X38618571Y-61134285D01*
X38666190Y-61229523D01*
X38666190Y-61610476D01*
X38142380Y-60134285D02*
X38142380Y-60610476D01*
X38618571Y-60658095D01*
X38570952Y-60610476D01*
X38523333Y-60515238D01*
X38523333Y-60277142D01*
X38570952Y-60181904D01*
X38618571Y-60134285D01*
X38713809Y-60086666D01*
X38951904Y-60086666D01*
X39047142Y-60134285D01*
X39094761Y-60181904D01*
X39142380Y-60277142D01*
X39142380Y-60515238D01*
X39094761Y-60610476D01*
X39047142Y-60658095D01*
X39142380Y-59134285D02*
X39142380Y-59705714D01*
X39142380Y-59420000D02*
X38142380Y-59420000D01*
X38285238Y-59515238D01*
X38380476Y-59610476D01*
X38428095Y-59705714D01*
X38475714Y-58277142D02*
X39142380Y-58277142D01*
X38094761Y-58515238D02*
X38809047Y-58753333D01*
X38809047Y-58134285D01*
X54142380Y-76289047D02*
X53666190Y-76622380D01*
X54142380Y-76860476D02*
X53142380Y-76860476D01*
X53142380Y-76479523D01*
X53190000Y-76384285D01*
X53237619Y-76336666D01*
X53332857Y-76289047D01*
X53475714Y-76289047D01*
X53570952Y-76336666D01*
X53618571Y-76384285D01*
X53666190Y-76479523D01*
X53666190Y-76860476D01*
X53142380Y-75384285D02*
X53142380Y-75860476D01*
X53618571Y-75908095D01*
X53570952Y-75860476D01*
X53523333Y-75765238D01*
X53523333Y-75527142D01*
X53570952Y-75431904D01*
X53618571Y-75384285D01*
X53713809Y-75336666D01*
X53951904Y-75336666D01*
X54047142Y-75384285D01*
X54094761Y-75431904D01*
X54142380Y-75527142D01*
X54142380Y-75765238D01*
X54094761Y-75860476D01*
X54047142Y-75908095D01*
X54142380Y-74384285D02*
X54142380Y-74955714D01*
X54142380Y-74670000D02*
X53142380Y-74670000D01*
X53285238Y-74765238D01*
X53380476Y-74860476D01*
X53428095Y-74955714D01*
X53142380Y-74050952D02*
X53142380Y-73431904D01*
X53523333Y-73765238D01*
X53523333Y-73622380D01*
X53570952Y-73527142D01*
X53618571Y-73479523D01*
X53713809Y-73431904D01*
X53951904Y-73431904D01*
X54047142Y-73479523D01*
X54094761Y-73527142D01*
X54142380Y-73622380D01*
X54142380Y-73908095D01*
X54094761Y-74003333D01*
X54047142Y-74050952D01*
X49142380Y-61039047D02*
X48666190Y-61372380D01*
X49142380Y-61610476D02*
X48142380Y-61610476D01*
X48142380Y-61229523D01*
X48190000Y-61134285D01*
X48237619Y-61086666D01*
X48332857Y-61039047D01*
X48475714Y-61039047D01*
X48570952Y-61086666D01*
X48618571Y-61134285D01*
X48666190Y-61229523D01*
X48666190Y-61610476D01*
X48142380Y-60134285D02*
X48142380Y-60610476D01*
X48618571Y-60658095D01*
X48570952Y-60610476D01*
X48523333Y-60515238D01*
X48523333Y-60277142D01*
X48570952Y-60181904D01*
X48618571Y-60134285D01*
X48713809Y-60086666D01*
X48951904Y-60086666D01*
X49047142Y-60134285D01*
X49094761Y-60181904D01*
X49142380Y-60277142D01*
X49142380Y-60515238D01*
X49094761Y-60610476D01*
X49047142Y-60658095D01*
X49142380Y-59134285D02*
X49142380Y-59705714D01*
X49142380Y-59420000D02*
X48142380Y-59420000D01*
X48285238Y-59515238D01*
X48380476Y-59610476D01*
X48428095Y-59705714D01*
X48237619Y-58753333D02*
X48190000Y-58705714D01*
X48142380Y-58610476D01*
X48142380Y-58372380D01*
X48190000Y-58277142D01*
X48237619Y-58229523D01*
X48332857Y-58181904D01*
X48428095Y-58181904D01*
X48570952Y-58229523D01*
X49142380Y-58800952D01*
X49142380Y-58181904D01*
X44142380Y-76289047D02*
X43666190Y-76622380D01*
X44142380Y-76860476D02*
X43142380Y-76860476D01*
X43142380Y-76479523D01*
X43190000Y-76384285D01*
X43237619Y-76336666D01*
X43332857Y-76289047D01*
X43475714Y-76289047D01*
X43570952Y-76336666D01*
X43618571Y-76384285D01*
X43666190Y-76479523D01*
X43666190Y-76860476D01*
X43142380Y-75384285D02*
X43142380Y-75860476D01*
X43618571Y-75908095D01*
X43570952Y-75860476D01*
X43523333Y-75765238D01*
X43523333Y-75527142D01*
X43570952Y-75431904D01*
X43618571Y-75384285D01*
X43713809Y-75336666D01*
X43951904Y-75336666D01*
X44047142Y-75384285D01*
X44094761Y-75431904D01*
X44142380Y-75527142D01*
X44142380Y-75765238D01*
X44094761Y-75860476D01*
X44047142Y-75908095D01*
X44142380Y-74384285D02*
X44142380Y-74955714D01*
X44142380Y-74670000D02*
X43142380Y-74670000D01*
X43285238Y-74765238D01*
X43380476Y-74860476D01*
X43428095Y-74955714D01*
X44142380Y-73431904D02*
X44142380Y-74003333D01*
X44142380Y-73717619D02*
X43142380Y-73717619D01*
X43285238Y-73812857D01*
X43380476Y-73908095D01*
X43428095Y-74003333D01*
X61809523Y-42452380D02*
X61809523Y-41452380D01*
X62190476Y-41452380D01*
X62285714Y-41500000D01*
X62333333Y-41547619D01*
X62380952Y-41642857D01*
X62380952Y-41785714D01*
X62333333Y-41880952D01*
X62285714Y-41928571D01*
X62190476Y-41976190D01*
X61809523Y-41976190D01*
X63285714Y-41452380D02*
X62809523Y-41452380D01*
X62761904Y-41928571D01*
X62809523Y-41880952D01*
X62904761Y-41833333D01*
X63142857Y-41833333D01*
X63238095Y-41880952D01*
X63285714Y-41928571D01*
X63333333Y-42023809D01*
X63333333Y-42261904D01*
X63285714Y-42357142D01*
X63238095Y-42404761D01*
X63142857Y-42452380D01*
X62904761Y-42452380D01*
X62809523Y-42404761D01*
X62761904Y-42357142D01*
X64285714Y-42452380D02*
X63714285Y-42452380D01*
X64000000Y-42452380D02*
X64000000Y-41452380D01*
X63904761Y-41595238D01*
X63809523Y-41690476D01*
X63714285Y-41738095D01*
X65142857Y-41452380D02*
X64952380Y-41452380D01*
X64857142Y-41500000D01*
X64809523Y-41547619D01*
X64714285Y-41690476D01*
X64666666Y-41880952D01*
X64666666Y-42261904D01*
X64714285Y-42357142D01*
X64761904Y-42404761D01*
X64857142Y-42452380D01*
X65047619Y-42452380D01*
X65142857Y-42404761D01*
X65190476Y-42357142D01*
X65238095Y-42261904D01*
X65238095Y-42023809D01*
X65190476Y-41928571D01*
X65142857Y-41880952D01*
X65047619Y-41833333D01*
X64857142Y-41833333D01*
X64761904Y-41880952D01*
X64714285Y-41928571D01*
X64666666Y-42023809D01*
X44309523Y-42452380D02*
X44309523Y-41452380D01*
X44690476Y-41452380D01*
X44785714Y-41500000D01*
X44833333Y-41547619D01*
X44880952Y-41642857D01*
X44880952Y-41785714D01*
X44833333Y-41880952D01*
X44785714Y-41928571D01*
X44690476Y-41976190D01*
X44309523Y-41976190D01*
X45785714Y-41452380D02*
X45309523Y-41452380D01*
X45261904Y-41928571D01*
X45309523Y-41880952D01*
X45404761Y-41833333D01*
X45642857Y-41833333D01*
X45738095Y-41880952D01*
X45785714Y-41928571D01*
X45833333Y-42023809D01*
X45833333Y-42261904D01*
X45785714Y-42357142D01*
X45738095Y-42404761D01*
X45642857Y-42452380D01*
X45404761Y-42452380D01*
X45309523Y-42404761D01*
X45261904Y-42357142D01*
X46785714Y-42452380D02*
X46214285Y-42452380D01*
X46500000Y-42452380D02*
X46500000Y-41452380D01*
X46404761Y-41595238D01*
X46309523Y-41690476D01*
X46214285Y-41738095D01*
X47166666Y-41547619D02*
X47214285Y-41500000D01*
X47309523Y-41452380D01*
X47547619Y-41452380D01*
X47642857Y-41500000D01*
X47690476Y-41547619D01*
X47738095Y-41642857D01*
X47738095Y-41738095D01*
X47690476Y-41880952D01*
X47119047Y-42452380D01*
X47738095Y-42452380D01*
X57547142Y-65119047D02*
X57594761Y-65166666D01*
X57642380Y-65309523D01*
X57642380Y-65404761D01*
X57594761Y-65547619D01*
X57499523Y-65642857D01*
X57404285Y-65690476D01*
X57213809Y-65738095D01*
X57070952Y-65738095D01*
X56880476Y-65690476D01*
X56785238Y-65642857D01*
X56690000Y-65547619D01*
X56642380Y-65404761D01*
X56642380Y-65309523D01*
X56690000Y-65166666D01*
X56737619Y-65119047D01*
X56642380Y-64214285D02*
X56642380Y-64690476D01*
X57118571Y-64738095D01*
X57070952Y-64690476D01*
X57023333Y-64595238D01*
X57023333Y-64357142D01*
X57070952Y-64261904D01*
X57118571Y-64214285D01*
X57213809Y-64166666D01*
X57451904Y-64166666D01*
X57547142Y-64214285D01*
X57594761Y-64261904D01*
X57642380Y-64357142D01*
X57642380Y-64595238D01*
X57594761Y-64690476D01*
X57547142Y-64738095D01*
X56642380Y-63547619D02*
X56642380Y-63452380D01*
X56690000Y-63357142D01*
X56737619Y-63309523D01*
X56832857Y-63261904D01*
X57023333Y-63214285D01*
X57261428Y-63214285D01*
X57451904Y-63261904D01*
X57547142Y-63309523D01*
X57594761Y-63357142D01*
X57642380Y-63452380D01*
X57642380Y-63547619D01*
X57594761Y-63642857D01*
X57547142Y-63690476D01*
X57451904Y-63738095D01*
X57261428Y-63785714D01*
X57023333Y-63785714D01*
X56832857Y-63738095D01*
X56737619Y-63690476D01*
X56690000Y-63642857D01*
X56642380Y-63547619D01*
X56975714Y-62357142D02*
X57642380Y-62357142D01*
X56594761Y-62595238D02*
X57309047Y-62833333D01*
X57309047Y-62214285D01*
X55416666Y-83952380D02*
X56083333Y-83952380D01*
X55654761Y-84952380D01*
X86035714Y-84952380D02*
X85464285Y-84952380D01*
X85750000Y-84952380D02*
X85750000Y-83952380D01*
X85654761Y-84095238D01*
X85559523Y-84190476D01*
X85464285Y-84238095D01*
%LPC*%
D14*
X76000000Y-78250000D03*
X73500000Y-78250000D03*
X67500000Y-78250000D03*
X70000000Y-78250000D03*
D15*
X82500000Y-80250000D03*
D16*
X82500000Y-70090000D03*
D15*
X87500000Y-80250000D03*
D16*
X87500000Y-70090000D03*
D15*
X61000000Y-80250000D03*
D16*
X61000000Y-70090000D03*
D15*
X87500000Y-54840000D03*
D16*
X87500000Y-65000000D03*
D15*
X63500000Y-54840000D03*
X63500000Y-59840000D03*
X80000000Y-54840000D03*
X80000000Y-59840000D03*
D17*
X67940000Y-54840000D03*
D18*
X75560000Y-72620000D03*
X67940000Y-57380000D03*
X75560000Y-70080000D03*
X67940000Y-59920000D03*
X75560000Y-67540000D03*
X67940000Y-62460000D03*
X75560000Y-65000000D03*
X67940000Y-65000000D03*
X75560000Y-62460000D03*
X67940000Y-67540000D03*
X75560000Y-59920000D03*
X67940000Y-70080000D03*
X75560000Y-57380000D03*
X67940000Y-72620000D03*
X75560000Y-54840000D03*
D15*
X41000000Y-80250000D03*
D16*
X41000000Y-70090000D03*
D15*
X51000000Y-80250000D03*
D16*
X51000000Y-70090000D03*
D15*
X46000000Y-65000000D03*
D16*
X46000000Y-54840000D03*
D15*
X41000000Y-54840000D03*
D16*
X41000000Y-65000000D03*
D15*
X56000000Y-80250000D03*
D16*
X56000000Y-70090000D03*
D15*
X51000000Y-65000000D03*
D16*
X51000000Y-54840000D03*
D15*
X46000000Y-80250000D03*
D16*
X46000000Y-70090000D03*
D19*
X58500000Y-43500000D03*
X63500000Y-48500000D03*
X68500000Y-43500000D03*
X41000000Y-43500000D03*
X46000000Y-48500000D03*
X51000000Y-43500000D03*
D20*
X61000000Y-65000000D03*
D15*
X61000000Y-63000000D03*
M02*
