G04 #@! TF.GenerationSoftware,KiCad,Pcbnew,(5.1.7)-1*
G04 #@! TF.CreationDate,2022-12-29T18:38:42+01:00*
G04 #@! TF.ProjectId,Abstimmspannungs-Modul,41627374-696d-46d7-9370-616e6e756e67,rev?*
G04 #@! TF.SameCoordinates,Original*
G04 #@! TF.FileFunction,Soldermask,Bot*
G04 #@! TF.FilePolarity,Negative*
%FSLAX46Y46*%
G04 Gerber Fmt 4.6, Leading zero omitted, Abs format (unit mm)*
G04 Created by KiCad (PCBNEW (5.1.7)-1) date 2022-12-29 18:38:42*
%MOMM*%
%LPD*%
G01*
G04 APERTURE LIST*
%ADD10C,1.400000*%
%ADD11C,1.600000*%
%ADD12O,1.600000X1.600000*%
%ADD13R,2.400000X1.600000*%
%ADD14O,2.400000X1.600000*%
%ADD15C,2.340000*%
%ADD16R,1.600000X1.600000*%
%ADD17C,3.500000*%
G04 APERTURE END LIST*
D10*
X76000000Y-78250000D03*
X73500000Y-78250000D03*
X67500000Y-78250000D03*
X70000000Y-78250000D03*
D11*
X82500000Y-80250000D03*
D12*
X82500000Y-70090000D03*
D11*
X87500000Y-80250000D03*
D12*
X87500000Y-70090000D03*
D11*
X61000000Y-80250000D03*
D12*
X61000000Y-70090000D03*
D11*
X87500000Y-54840000D03*
D12*
X87500000Y-65000000D03*
D11*
X63500000Y-54840000D03*
X63500000Y-59840000D03*
X80000000Y-54840000D03*
X80000000Y-59840000D03*
D13*
X67940000Y-54840000D03*
D14*
X75560000Y-72620000D03*
X67940000Y-57380000D03*
X75560000Y-70080000D03*
X67940000Y-59920000D03*
X75560000Y-67540000D03*
X67940000Y-62460000D03*
X75560000Y-65000000D03*
X67940000Y-65000000D03*
X75560000Y-62460000D03*
X67940000Y-67540000D03*
X75560000Y-59920000D03*
X67940000Y-70080000D03*
X75560000Y-57380000D03*
X67940000Y-72620000D03*
X75560000Y-54840000D03*
D11*
X41000000Y-80250000D03*
D12*
X41000000Y-70090000D03*
D11*
X51000000Y-80250000D03*
D12*
X51000000Y-70090000D03*
D11*
X46000000Y-65000000D03*
D12*
X46000000Y-54840000D03*
D11*
X41000000Y-54840000D03*
D12*
X41000000Y-65000000D03*
D11*
X56000000Y-80250000D03*
D12*
X56000000Y-70090000D03*
D11*
X51000000Y-65000000D03*
D12*
X51000000Y-54840000D03*
D11*
X46000000Y-80250000D03*
D12*
X46000000Y-70090000D03*
D15*
X58500000Y-43500000D03*
X63500000Y-48500000D03*
X68500000Y-43500000D03*
X41000000Y-43500000D03*
X46000000Y-48500000D03*
X51000000Y-43500000D03*
D16*
X61000000Y-65000000D03*
D11*
X61000000Y-63000000D03*
D17*
X45750000Y-87000000D03*
X50750000Y-87000000D03*
X55750000Y-87000000D03*
X60750000Y-87000000D03*
X65750000Y-87000000D03*
X70750000Y-87000000D03*
X75750000Y-87000000D03*
X80750000Y-87000000D03*
X85750000Y-87000000D03*
M02*
