M48
; DRILL file {KiCad (5.1.7)-1} date 12/29/22 18:38:46
; FORMAT={-:-/ absolute / metric / decimal}
; #@! TF.CreationDate,2022-12-29T18:38:46+01:00
; #@! TF.GenerationSoftware,Kicad,Pcbnew,(5.1.7)-1
; #@! TF.FileFunction,Plated,1,2,PTH
FMAT,2
METRIC
T1C0.600
T2C0.700
T3C0.800
T4C1.300
T5C1.750
%
G90
G05
T1
X60.75Y-85.0
T2
X73.5Y-78.25
X76.0Y-78.25
X67.5Y-78.25
X70.0Y-78.25
T3
X56.0Y-70.09
X56.0Y-80.25
X87.5Y-70.09
X87.5Y-80.25
X46.0Y-70.09
X46.0Y-80.25
X87.5Y-54.84
X87.5Y-65.0
X82.5Y-70.09
X82.5Y-80.25
X41.0Y-70.09
X41.0Y-80.25
X80.0Y-54.84
X80.0Y-59.84
X67.94Y-54.84
X67.94Y-57.38
X67.94Y-59.92
X67.94Y-62.46
X67.94Y-65.0
X67.94Y-67.54
X67.94Y-70.08
X67.94Y-72.62
X75.56Y-54.84
X75.56Y-57.38
X75.56Y-59.92
X75.56Y-62.46
X75.56Y-65.0
X75.56Y-67.54
X75.56Y-70.08
X75.56Y-72.62
X41.0Y-54.84
X41.0Y-65.0
X63.5Y-54.84
X63.5Y-59.84
X46.0Y-54.84
X46.0Y-65.0
X51.0Y-54.84
X51.0Y-65.0
X61.0Y-70.09
X61.0Y-80.25
X51.0Y-70.09
X51.0Y-80.25
X61.0Y-63.0
X61.0Y-65.0
T4
X41.0Y-43.5
X46.0Y-48.5
X51.0Y-43.5
X58.5Y-43.5
X63.5Y-48.5
X68.5Y-43.5
T5
X45.75Y-87.0
X50.75Y-87.0
X55.75Y-87.0
X60.75Y-87.0
X65.75Y-87.0
X70.75Y-87.0
X75.75Y-87.0
X80.75Y-87.0
X85.75Y-87.0
T0
M30
