G04 #@! TF.GenerationSoftware,KiCad,Pcbnew,(5.1.7)-1*
G04 #@! TF.CreationDate,2022-12-29T18:38:42+01:00*
G04 #@! TF.ProjectId,Abstimmspannungs-Modul,41627374-696d-46d7-9370-616e6e756e67,rev?*
G04 #@! TF.SameCoordinates,Original*
G04 #@! TF.FileFunction,Copper,L1,Top*
G04 #@! TF.FilePolarity,Positive*
%FSLAX46Y46*%
G04 Gerber Fmt 4.6, Leading zero omitted, Abs format (unit mm)*
G04 Created by KiCad (PCBNEW (5.1.7)-1) date 2022-12-29 18:38:42*
%MOMM*%
%LPD*%
G01*
G04 APERTURE LIST*
G04 #@! TA.AperFunction,ComponentPad*
%ADD10C,1.400000*%
G04 #@! TD*
G04 #@! TA.AperFunction,ComponentPad*
%ADD11C,1.600000*%
G04 #@! TD*
G04 #@! TA.AperFunction,ComponentPad*
%ADD12O,1.600000X1.600000*%
G04 #@! TD*
G04 #@! TA.AperFunction,ComponentPad*
%ADD13R,2.400000X1.600000*%
G04 #@! TD*
G04 #@! TA.AperFunction,ComponentPad*
%ADD14O,2.400000X1.600000*%
G04 #@! TD*
G04 #@! TA.AperFunction,ComponentPad*
%ADD15C,2.340000*%
G04 #@! TD*
G04 #@! TA.AperFunction,ComponentPad*
%ADD16R,1.600000X1.600000*%
G04 #@! TD*
G04 #@! TA.AperFunction,ViaPad*
%ADD17C,1.200000*%
G04 #@! TD*
G04 #@! TA.AperFunction,Conductor*
%ADD18C,1.500000*%
G04 #@! TD*
G04 APERTURE END LIST*
D10*
X76000000Y-78250000D03*
X73500000Y-78250000D03*
X67500000Y-78250000D03*
X70000000Y-78250000D03*
D11*
X82500000Y-80250000D03*
D12*
X82500000Y-70090000D03*
D11*
X87500000Y-80250000D03*
D12*
X87500000Y-70090000D03*
D11*
X61000000Y-80250000D03*
D12*
X61000000Y-70090000D03*
D11*
X87500000Y-54840000D03*
D12*
X87500000Y-65000000D03*
D11*
X63500000Y-54840000D03*
X63500000Y-59840000D03*
X80000000Y-54840000D03*
X80000000Y-59840000D03*
D13*
X67940000Y-54840000D03*
D14*
X75560000Y-72620000D03*
X67940000Y-57380000D03*
X75560000Y-70080000D03*
X67940000Y-59920000D03*
X75560000Y-67540000D03*
X67940000Y-62460000D03*
X75560000Y-65000000D03*
X67940000Y-65000000D03*
X75560000Y-62460000D03*
X67940000Y-67540000D03*
X75560000Y-59920000D03*
X67940000Y-70080000D03*
X75560000Y-57380000D03*
X67940000Y-72620000D03*
X75560000Y-54840000D03*
D11*
X41000000Y-80250000D03*
D12*
X41000000Y-70090000D03*
D11*
X51000000Y-80250000D03*
D12*
X51000000Y-70090000D03*
D11*
X46000000Y-65000000D03*
D12*
X46000000Y-54840000D03*
D11*
X41000000Y-54840000D03*
D12*
X41000000Y-65000000D03*
D11*
X56000000Y-80250000D03*
D12*
X56000000Y-70090000D03*
D11*
X51000000Y-65000000D03*
D12*
X51000000Y-54840000D03*
D11*
X46000000Y-80250000D03*
D12*
X46000000Y-70090000D03*
D15*
X58500000Y-43500000D03*
X63500000Y-48500000D03*
X68500000Y-43500000D03*
X41000000Y-43500000D03*
X46000000Y-48500000D03*
X51000000Y-43500000D03*
D16*
X61000000Y-65000000D03*
D11*
X61000000Y-63000000D03*
D17*
X60750000Y-85000000D03*
D18*
X61090000Y-59840000D02*
X63500000Y-59840000D01*
X58500000Y-57250000D02*
X61090000Y-59840000D01*
X61000000Y-59930000D02*
X61090000Y-59840000D01*
X61000000Y-63000000D02*
X61000000Y-59930000D01*
X43410000Y-57250000D02*
X41000000Y-54840000D01*
X58500000Y-57250000D02*
X43410000Y-57250000D01*
X80000000Y-54840000D02*
X75560000Y-54840000D01*
X75560000Y-54840000D02*
X72090000Y-54840000D01*
X72090000Y-54840000D02*
X72000000Y-54930000D01*
X72250000Y-65000000D02*
X72000000Y-64750000D01*
X75560000Y-65000000D02*
X72250000Y-65000000D01*
X58500000Y-43500000D02*
X58500000Y-51750000D01*
X58500000Y-51750000D02*
X58500000Y-57250000D01*
X72000000Y-63000000D02*
X72000000Y-74000000D01*
X72000000Y-54930000D02*
X72000000Y-63000000D01*
X72000000Y-63000000D02*
X72000000Y-64750000D01*
X73500000Y-75500000D02*
X73500000Y-78250000D01*
X72000000Y-74000000D02*
X73500000Y-75500000D01*
X41000000Y-74000000D02*
X37500000Y-70500000D01*
X41000000Y-80250000D02*
X41000000Y-74000000D01*
X39160000Y-54840000D02*
X37500000Y-56500000D01*
X41000000Y-54840000D02*
X39160000Y-54840000D01*
X37500000Y-56500000D02*
X37500000Y-70500000D01*
X63500000Y-59840000D02*
X63500000Y-82500000D01*
X63500000Y-82500000D02*
X61000000Y-82500000D01*
X72000000Y-53500000D02*
X70250000Y-51750000D01*
X72000000Y-54930000D02*
X72000000Y-53500000D01*
X58500000Y-51750000D02*
X70250000Y-51750000D01*
X71500000Y-82500000D02*
X63500000Y-82500000D01*
X73500000Y-80500000D02*
X71500000Y-82500000D01*
X73500000Y-78250000D02*
X73500000Y-80500000D01*
X43250000Y-82500000D02*
X44000000Y-82500000D01*
X41000000Y-80250000D02*
X43250000Y-82500000D01*
X61000000Y-82500000D02*
X44000000Y-82500000D01*
X60750000Y-82750000D02*
X61000000Y-82500000D01*
X60750000Y-85000000D02*
X60750000Y-82750000D01*
M02*
