M48
; DRILL file {KiCad (5.1.7)-1} date 08/17/21 00:51:48
; FORMAT={-:-/ absolute / metric / decimal}
; #@! TF.CreationDate,2021-08-17T00:51:48+02:00
; #@! TF.GenerationSoftware,Kicad,Pcbnew,(5.1.7)-1
; #@! TF.FileFunction,Plated,1,2,PTH
FMAT,2
METRIC
T1C0.400
T2C1.500
%
G90
G05
T1
X25.5Y-38.8
X27.8Y-26.2
X29.4Y-31.1
X30.4Y-38.8
X30.5Y-40.8
X32.6Y-33.6
X33.3Y-27.1
X37.1Y-35.1
X37.4Y-39.6
X37.8Y-29.1
X40.9Y-40.4
X41.1Y-42.0
X44.1Y-36.8
X44.8Y-31.1
X45.5Y-25.4
X45.6Y-38.8
X46.1Y-42.0
X47.8Y-33.6
X48.5Y-27.1
X52.3Y-35.1
X53.0Y-29.1
X56.8Y-40.4
X59.3Y-36.8
X60.0Y-31.1
X60.7Y-25.4
X60.8Y-38.8
X63.0Y-33.6
X63.7Y-27.1
X67.5Y-35.1
X68.2Y-29.1
X74.5Y-36.8
X75.2Y-31.1
X75.9Y-25.4
X76.0Y-38.8
X78.2Y-33.6
X78.9Y-27.1
X82.7Y-35.1
X83.4Y-29.1
X89.7Y-36.8
X90.4Y-31.1
X91.1Y-25.4
X91.2Y-38.8
X91.5Y-46.3
X93.4Y-33.6
X94.0Y-46.3
X94.1Y-27.1
T2
X49.5Y-44.5
X52.04Y-44.5
X54.58Y-44.5
X57.12Y-44.5
X59.66Y-44.5
X62.2Y-44.5
X64.74Y-44.5
X67.28Y-44.5
X69.82Y-44.5
X72.36Y-44.5
X74.9Y-44.5
X77.44Y-44.5
X79.98Y-44.5
X82.52Y-44.5
X85.06Y-44.5
X87.6Y-44.5
T0
M30
