%TF.GenerationSoftware,KiCad,Pcbnew,(5.1.7)-1*%
%TF.CreationDate,2021-08-17T00:51:46+02:00*%
%TF.ProjectId,saba_az553,73616261-5f61-47a3-9535-332e6b696361,rev?*%
%TF.SameCoordinates,Original*%
%TF.FileFunction,Copper,L1,Top*%
%TF.FilePolarity,Positive*%
%FSLAX46Y46*%
G04 Gerber Fmt 4.6, Leading zero omitted, Abs format (unit mm)*
G04 Created by KiCad (PCBNEW (5.1.7)-1) date 2021-08-17 00:51:46*
%MOMM*%
%LPD*%
G01*
G04 APERTURE LIST*
%TA.AperFunction,SMDPad,CuDef*%
%ADD10R,1.200000X0.900000*%
%TD*%
%TA.AperFunction,SMDPad,CuDef*%
%ADD11R,0.900000X1.200000*%
%TD*%
%TA.AperFunction,SMDPad,CuDef*%
%ADD12R,0.600000X0.700000*%
%TD*%
%TA.AperFunction,SMDPad,CuDef*%
%ADD13C,0.100000*%
%TD*%
%TA.AperFunction,ComponentPad*%
%ADD14C,1.900000*%
%TD*%
%TA.AperFunction,ComponentPad*%
%ADD15O,1.900000X1.900000*%
%TD*%
%TA.AperFunction,ViaPad*%
%ADD16C,0.800000*%
%TD*%
%TA.AperFunction,Conductor*%
%ADD17C,0.500000*%
%TD*%
G04 APERTURE END LIST*
D10*
%TO.P,R8,1*%
%TO.N,DP*%
X38900000Y-43500000D03*
%TO.P,R8,2*%
%TO.N,Net-(J1-Pad9)*%
X41100000Y-43500000D03*
%TD*%
D11*
%TO.P,R7,1*%
%TO.N,B*%
X23000000Y-42400000D03*
%TO.P,R7,2*%
%TO.N,Net-(J1-Pad7)*%
X23000000Y-44600000D03*
%TD*%
%TO.P,R6,1*%
%TO.N,C*%
X91500000Y-42400000D03*
%TO.P,R6,2*%
%TO.N,Net-(J1-Pad6)*%
X91500000Y-44600000D03*
%TD*%
%TO.P,R5,1*%
%TO.N,A*%
X94000000Y-42400000D03*
%TO.P,R5,2*%
%TO.N,Net-(J1-Pad5)*%
X94000000Y-44600000D03*
%TD*%
D10*
%TO.P,R4,1*%
%TO.N,D*%
X43900000Y-43500000D03*
%TO.P,R4,2*%
%TO.N,Net-(J1-Pad4)*%
X46100000Y-43500000D03*
%TD*%
D11*
%TO.P,R3,1*%
%TO.N,E*%
X25500000Y-42400000D03*
%TO.P,R3,2*%
%TO.N,Net-(J1-Pad3)*%
X25500000Y-44600000D03*
%TD*%
%TO.P,R2,1*%
%TO.N,F*%
X28000000Y-42400000D03*
%TO.P,R2,2*%
%TO.N,Net-(J1-Pad2)*%
X28000000Y-44600000D03*
%TD*%
%TO.P,R1,1*%
%TO.N,G*%
X30500000Y-42400000D03*
%TO.P,R1,2*%
%TO.N,Net-(J1-Pad1)*%
X30500000Y-44600000D03*
%TD*%
D12*
%TO.P,D38,2*%
%TO.N,G*%
X28150000Y-31100000D03*
%TO.P,D38,1*%
%TO.N,D1*%
X27050000Y-31100000D03*
%TD*%
%TO.P,D37,2*%
%TO.N,DP*%
X32950000Y-36800000D03*
%TO.P,D37,1*%
%TO.N,D1*%
X31850000Y-36800000D03*
%TD*%
%TA.AperFunction,SMDPad,CuDef*%
D13*
%TO.P,D36,2*%
%TO.N,Net-(D35-Pad1)*%
G36*
X26863941Y-33311587D02*
G01*
X27557953Y-33402956D01*
X27479637Y-33997823D01*
X26785625Y-33906454D01*
X26863941Y-33311587D01*
G37*
%TD.AperFunction*%
%TA.AperFunction,SMDPad,CuDef*%
%TO.P,D36,1*%
%TO.N,D1*%
G36*
X26720363Y-34402177D02*
G01*
X27414375Y-34493546D01*
X27336059Y-35088413D01*
X26642047Y-34997044D01*
X26720363Y-34402177D01*
G37*
%TD.AperFunction*%
%TD*%
%TA.AperFunction,SMDPad,CuDef*%
%TO.P,D35,2*%
%TO.N,F*%
G36*
X27663941Y-27111587D02*
G01*
X28357953Y-27202956D01*
X28279637Y-27797823D01*
X27585625Y-27706454D01*
X27663941Y-27111587D01*
G37*
%TD.AperFunction*%
%TA.AperFunction,SMDPad,CuDef*%
%TO.P,D35,1*%
%TO.N,Net-(D35-Pad1)*%
G36*
X27520363Y-28202177D02*
G01*
X28214375Y-28293546D01*
X28136059Y-28888413D01*
X27442047Y-28797044D01*
X27520363Y-28202177D01*
G37*
%TD.AperFunction*%
%TD*%
%TA.AperFunction,SMDPad,CuDef*%
%TO.P,D34,2*%
%TO.N,C*%
G36*
X30363941Y-33411587D02*
G01*
X31057953Y-33502956D01*
X30979637Y-34097823D01*
X30285625Y-34006454D01*
X30363941Y-33411587D01*
G37*
%TD.AperFunction*%
%TA.AperFunction,SMDPad,CuDef*%
%TO.P,D34,1*%
%TO.N,D1*%
G36*
X30220363Y-34502177D02*
G01*
X30914375Y-34593546D01*
X30836059Y-35188413D01*
X30142047Y-35097044D01*
X30220363Y-34502177D01*
G37*
%TD.AperFunction*%
%TD*%
D12*
%TO.P,D33,2*%
%TO.N,DP*%
X48150000Y-36800000D03*
%TO.P,D33,1*%
%TO.N,D2*%
X47050000Y-36800000D03*
%TD*%
%TO.P,D32,2*%
%TO.N,D*%
X42650000Y-36800000D03*
%TO.P,D32,1*%
%TO.N,D2*%
X41550000Y-36800000D03*
%TD*%
%TA.AperFunction,SMDPad,CuDef*%
D13*
%TO.P,D31,2*%
%TO.N,E*%
G36*
X38863941Y-33411587D02*
G01*
X39557953Y-33502956D01*
X39479637Y-34097823D01*
X38785625Y-34006454D01*
X38863941Y-33411587D01*
G37*
%TD.AperFunction*%
%TA.AperFunction,SMDPad,CuDef*%
%TO.P,D31,1*%
%TO.N,D2*%
G36*
X38720363Y-34502177D02*
G01*
X39414375Y-34593546D01*
X39336059Y-35188413D01*
X38642047Y-35097044D01*
X38720363Y-34502177D01*
G37*
%TD.AperFunction*%
%TD*%
%TA.AperFunction,SMDPad,CuDef*%
%TO.P,D30,2*%
%TO.N,C*%
G36*
X45563941Y-33411587D02*
G01*
X46257953Y-33502956D01*
X46179637Y-34097823D01*
X45485625Y-34006454D01*
X45563941Y-33411587D01*
G37*
%TD.AperFunction*%
%TA.AperFunction,SMDPad,CuDef*%
%TO.P,D30,1*%
%TO.N,D2*%
G36*
X45420363Y-34502177D02*
G01*
X46114375Y-34593546D01*
X46036059Y-35188413D01*
X45342047Y-35097044D01*
X45420363Y-34502177D01*
G37*
%TD.AperFunction*%
%TD*%
%TA.AperFunction,SMDPad,CuDef*%
%TO.P,D29,2*%
%TO.N,F*%
G36*
X39563941Y-27011587D02*
G01*
X40257953Y-27102956D01*
X40179637Y-27697823D01*
X39485625Y-27606454D01*
X39563941Y-27011587D01*
G37*
%TD.AperFunction*%
%TA.AperFunction,SMDPad,CuDef*%
%TO.P,D29,1*%
%TO.N,D2*%
G36*
X39420363Y-28102177D02*
G01*
X40114375Y-28193546D01*
X40036059Y-28788413D01*
X39342047Y-28697044D01*
X39420363Y-28102177D01*
G37*
%TD.AperFunction*%
%TD*%
D12*
%TO.P,D28,2*%
%TO.N,G*%
X43350000Y-31100000D03*
%TO.P,D28,1*%
%TO.N,D2*%
X42250000Y-31100000D03*
%TD*%
%TA.AperFunction,SMDPad,CuDef*%
D13*
%TO.P,D27,2*%
%TO.N,B*%
G36*
X46263941Y-27011587D02*
G01*
X46957953Y-27102956D01*
X46879637Y-27697823D01*
X46185625Y-27606454D01*
X46263941Y-27011587D01*
G37*
%TD.AperFunction*%
%TA.AperFunction,SMDPad,CuDef*%
%TO.P,D27,1*%
%TO.N,D2*%
G36*
X46120363Y-28102177D02*
G01*
X46814375Y-28193546D01*
X46736059Y-28788413D01*
X46042047Y-28697044D01*
X46120363Y-28102177D01*
G37*
%TD.AperFunction*%
%TD*%
D12*
%TO.P,D26,2*%
%TO.N,DP*%
X63350000Y-36800000D03*
%TO.P,D26,1*%
%TO.N,D3*%
X62250000Y-36800000D03*
%TD*%
%TO.P,D25,2*%
%TO.N,D*%
X57850000Y-36800000D03*
%TO.P,D25,1*%
%TO.N,D3*%
X56750000Y-36800000D03*
%TD*%
%TA.AperFunction,SMDPad,CuDef*%
D13*
%TO.P,D24,2*%
%TO.N,E*%
G36*
X54063941Y-33411587D02*
G01*
X54757953Y-33502956D01*
X54679637Y-34097823D01*
X53985625Y-34006454D01*
X54063941Y-33411587D01*
G37*
%TD.AperFunction*%
%TA.AperFunction,SMDPad,CuDef*%
%TO.P,D24,1*%
%TO.N,D3*%
G36*
X53920363Y-34502177D02*
G01*
X54614375Y-34593546D01*
X54536059Y-35188413D01*
X53842047Y-35097044D01*
X53920363Y-34502177D01*
G37*
%TD.AperFunction*%
%TD*%
%TA.AperFunction,SMDPad,CuDef*%
%TO.P,D23,2*%
%TO.N,C*%
G36*
X60763941Y-33411587D02*
G01*
X61457953Y-33502956D01*
X61379637Y-34097823D01*
X60685625Y-34006454D01*
X60763941Y-33411587D01*
G37*
%TD.AperFunction*%
%TA.AperFunction,SMDPad,CuDef*%
%TO.P,D23,1*%
%TO.N,D3*%
G36*
X60620363Y-34502177D02*
G01*
X61314375Y-34593546D01*
X61236059Y-35188413D01*
X60542047Y-35097044D01*
X60620363Y-34502177D01*
G37*
%TD.AperFunction*%
%TD*%
D12*
%TO.P,D22,2*%
%TO.N,G*%
X58550000Y-31100000D03*
%TO.P,D22,1*%
%TO.N,D3*%
X57450000Y-31100000D03*
%TD*%
%TA.AperFunction,SMDPad,CuDef*%
D13*
%TO.P,D21,2*%
%TO.N,F*%
G36*
X54763941Y-27011587D02*
G01*
X55457953Y-27102956D01*
X55379637Y-27697823D01*
X54685625Y-27606454D01*
X54763941Y-27011587D01*
G37*
%TD.AperFunction*%
%TA.AperFunction,SMDPad,CuDef*%
%TO.P,D21,1*%
%TO.N,D3*%
G36*
X54620363Y-28102177D02*
G01*
X55314375Y-28193546D01*
X55236059Y-28788413D01*
X54542047Y-28697044D01*
X54620363Y-28102177D01*
G37*
%TD.AperFunction*%
%TD*%
D12*
%TO.P,D20,2*%
%TO.N,A*%
X44050000Y-25400000D03*
%TO.P,D20,1*%
%TO.N,D2*%
X42950000Y-25400000D03*
%TD*%
%TO.P,D19,2*%
%TO.N,A*%
X59250000Y-25400000D03*
%TO.P,D19,1*%
%TO.N,D3*%
X58150000Y-25400000D03*
%TD*%
%TA.AperFunction,SMDPad,CuDef*%
D13*
%TO.P,D18,2*%
%TO.N,B*%
G36*
X61463941Y-27011587D02*
G01*
X62157953Y-27102956D01*
X62079637Y-27697823D01*
X61385625Y-27606454D01*
X61463941Y-27011587D01*
G37*
%TD.AperFunction*%
%TA.AperFunction,SMDPad,CuDef*%
%TO.P,D18,1*%
%TO.N,D3*%
G36*
X61320363Y-28102177D02*
G01*
X62014375Y-28193546D01*
X61936059Y-28788413D01*
X61242047Y-28697044D01*
X61320363Y-28102177D01*
G37*
%TD.AperFunction*%
%TD*%
%TA.AperFunction,SMDPad,CuDef*%
%TO.P,D17,2*%
%TO.N,B*%
G36*
X31063941Y-27011587D02*
G01*
X31757953Y-27102956D01*
X31679637Y-27697823D01*
X30985625Y-27606454D01*
X31063941Y-27011587D01*
G37*
%TD.AperFunction*%
%TA.AperFunction,SMDPad,CuDef*%
%TO.P,D17,1*%
%TO.N,D1*%
G36*
X30920363Y-28102177D02*
G01*
X31614375Y-28193546D01*
X31536059Y-28788413D01*
X30842047Y-28697044D01*
X30920363Y-28102177D01*
G37*
%TD.AperFunction*%
%TD*%
D12*
%TO.P,D16,2*%
%TO.N,DP*%
X78550000Y-36800000D03*
%TO.P,D16,1*%
%TO.N,D4*%
X77450000Y-36800000D03*
%TD*%
%TO.P,D15,2*%
%TO.N,D*%
X73050000Y-36800000D03*
%TO.P,D15,1*%
%TO.N,D4*%
X71950000Y-36800000D03*
%TD*%
%TA.AperFunction,SMDPad,CuDef*%
D13*
%TO.P,D14,2*%
%TO.N,C*%
G36*
X75963941Y-33411587D02*
G01*
X76657953Y-33502956D01*
X76579637Y-34097823D01*
X75885625Y-34006454D01*
X75963941Y-33411587D01*
G37*
%TD.AperFunction*%
%TA.AperFunction,SMDPad,CuDef*%
%TO.P,D14,1*%
%TO.N,D4*%
G36*
X75820363Y-34502177D02*
G01*
X76514375Y-34593546D01*
X76436059Y-35188413D01*
X75742047Y-35097044D01*
X75820363Y-34502177D01*
G37*
%TD.AperFunction*%
%TD*%
%TA.AperFunction,SMDPad,CuDef*%
%TO.P,D13,2*%
%TO.N,E*%
G36*
X69263941Y-33411587D02*
G01*
X69957953Y-33502956D01*
X69879637Y-34097823D01*
X69185625Y-34006454D01*
X69263941Y-33411587D01*
G37*
%TD.AperFunction*%
%TA.AperFunction,SMDPad,CuDef*%
%TO.P,D13,1*%
%TO.N,D4*%
G36*
X69120363Y-34502177D02*
G01*
X69814375Y-34593546D01*
X69736059Y-35188413D01*
X69042047Y-35097044D01*
X69120363Y-34502177D01*
G37*
%TD.AperFunction*%
%TD*%
D12*
%TO.P,D12,2*%
%TO.N,G*%
X73750000Y-31100000D03*
%TO.P,D12,1*%
%TO.N,D4*%
X72650000Y-31100000D03*
%TD*%
%TA.AperFunction,SMDPad,CuDef*%
D13*
%TO.P,D11,2*%
%TO.N,B*%
G36*
X76663941Y-27011587D02*
G01*
X77357953Y-27102956D01*
X77279637Y-27697823D01*
X76585625Y-27606454D01*
X76663941Y-27011587D01*
G37*
%TD.AperFunction*%
%TA.AperFunction,SMDPad,CuDef*%
%TO.P,D11,1*%
%TO.N,D4*%
G36*
X76520363Y-28102177D02*
G01*
X77214375Y-28193546D01*
X77136059Y-28788413D01*
X76442047Y-28697044D01*
X76520363Y-28102177D01*
G37*
%TD.AperFunction*%
%TD*%
%TA.AperFunction,SMDPad,CuDef*%
%TO.P,D10,2*%
%TO.N,F*%
G36*
X69963941Y-27011587D02*
G01*
X70657953Y-27102956D01*
X70579637Y-27697823D01*
X69885625Y-27606454D01*
X69963941Y-27011587D01*
G37*
%TD.AperFunction*%
%TA.AperFunction,SMDPad,CuDef*%
%TO.P,D10,1*%
%TO.N,D4*%
G36*
X69820363Y-28102177D02*
G01*
X70514375Y-28193546D01*
X70436059Y-28788413D01*
X69742047Y-28697044D01*
X69820363Y-28102177D01*
G37*
%TD.AperFunction*%
%TD*%
D12*
%TO.P,D9,2*%
%TO.N,A*%
X74450000Y-25400000D03*
%TO.P,D9,1*%
%TO.N,D4*%
X73350000Y-25400000D03*
%TD*%
%TO.P,D8,1*%
%TO.N,D5*%
X87150000Y-36800000D03*
%TO.P,D8,2*%
%TO.N,D*%
X88250000Y-36800000D03*
%TD*%
%TA.AperFunction,SMDPad,CuDef*%
D13*
%TO.P,D7,1*%
%TO.N,D5*%
G36*
X91020363Y-34502177D02*
G01*
X91714375Y-34593546D01*
X91636059Y-35188413D01*
X90942047Y-35097044D01*
X91020363Y-34502177D01*
G37*
%TD.AperFunction*%
%TA.AperFunction,SMDPad,CuDef*%
%TO.P,D7,2*%
%TO.N,C*%
G36*
X91163941Y-33411587D02*
G01*
X91857953Y-33502956D01*
X91779637Y-34097823D01*
X91085625Y-34006454D01*
X91163941Y-33411587D01*
G37*
%TD.AperFunction*%
%TD*%
D12*
%TO.P,D6,2*%
%TO.N,DP*%
X93750000Y-36800000D03*
%TO.P,D6,1*%
%TO.N,D5*%
X92650000Y-36800000D03*
%TD*%
%TA.AperFunction,SMDPad,CuDef*%
D13*
%TO.P,D5,1*%
%TO.N,D5*%
G36*
X91720363Y-28102177D02*
G01*
X92414375Y-28193546D01*
X92336059Y-28788413D01*
X91642047Y-28697044D01*
X91720363Y-28102177D01*
G37*
%TD.AperFunction*%
%TA.AperFunction,SMDPad,CuDef*%
%TO.P,D5,2*%
%TO.N,B*%
G36*
X91863941Y-27011587D02*
G01*
X92557953Y-27102956D01*
X92479637Y-27697823D01*
X91785625Y-27606454D01*
X91863941Y-27011587D01*
G37*
%TD.AperFunction*%
%TD*%
%TA.AperFunction,SMDPad,CuDef*%
%TO.P,D4,1*%
%TO.N,D5*%
G36*
X84320363Y-34502177D02*
G01*
X85014375Y-34593546D01*
X84936059Y-35188413D01*
X84242047Y-35097044D01*
X84320363Y-34502177D01*
G37*
%TD.AperFunction*%
%TA.AperFunction,SMDPad,CuDef*%
%TO.P,D4,2*%
%TO.N,E*%
G36*
X84463941Y-33411587D02*
G01*
X85157953Y-33502956D01*
X85079637Y-34097823D01*
X84385625Y-34006454D01*
X84463941Y-33411587D01*
G37*
%TD.AperFunction*%
%TD*%
D12*
%TO.P,D3,1*%
%TO.N,D5*%
X87850000Y-31100000D03*
%TO.P,D3,2*%
%TO.N,G*%
X88950000Y-31100000D03*
%TD*%
%TA.AperFunction,SMDPad,CuDef*%
D13*
%TO.P,D2,1*%
%TO.N,D5*%
G36*
X85020363Y-28102177D02*
G01*
X85714375Y-28193546D01*
X85636059Y-28788413D01*
X84942047Y-28697044D01*
X85020363Y-28102177D01*
G37*
%TD.AperFunction*%
%TA.AperFunction,SMDPad,CuDef*%
%TO.P,D2,2*%
%TO.N,F*%
G36*
X85163941Y-27011587D02*
G01*
X85857953Y-27102956D01*
X85779637Y-27697823D01*
X85085625Y-27606454D01*
X85163941Y-27011587D01*
G37*
%TD.AperFunction*%
%TD*%
D12*
%TO.P,D1,1*%
%TO.N,D5*%
X88550000Y-25400000D03*
%TO.P,D1,2*%
%TO.N,A*%
X89650000Y-25400000D03*
%TD*%
D14*
%TO.P,J1,1*%
%TO.N,Net-(J1-Pad1)*%
X49500000Y-44500000D03*
D15*
%TO.P,J1,2*%
%TO.N,Net-(J1-Pad2)*%
X52040000Y-44500000D03*
%TO.P,J1,3*%
%TO.N,Net-(J1-Pad3)*%
X54580000Y-44500000D03*
%TO.P,J1,4*%
%TO.N,Net-(J1-Pad4)*%
X57120000Y-44500000D03*
%TO.P,J1,5*%
%TO.N,Net-(J1-Pad5)*%
X59660000Y-44500000D03*
%TO.P,J1,6*%
%TO.N,Net-(J1-Pad6)*%
X62200000Y-44500000D03*
%TO.P,J1,7*%
%TO.N,Net-(J1-Pad7)*%
X64740000Y-44500000D03*
%TO.P,J1,8*%
%TO.N,Net-(J1-Pad8)*%
X67280000Y-44500000D03*
%TO.P,J1,9*%
%TO.N,Net-(J1-Pad9)*%
X69820000Y-44500000D03*
%TO.P,J1,10*%
%TO.N,Net-(J1-Pad10)*%
X72360000Y-44500000D03*
%TO.P,J1,11*%
%TO.N,Net-(J1-Pad11)*%
X74900000Y-44500000D03*
%TO.P,J1,12*%
%TO.N,D1*%
X77440000Y-44500000D03*
%TO.P,J1,13*%
%TO.N,D2*%
X79980000Y-44500000D03*
%TO.P,J1,14*%
%TO.N,D4*%
X82520000Y-44500000D03*
%TO.P,J1,15*%
%TO.N,D5*%
X85060000Y-44500000D03*
%TO.P,J1,16*%
%TO.N,D3*%
X87600000Y-44500000D03*
%TD*%
D16*
%TO.N,A*%
X45500000Y-25400000D03*
X60700000Y-25400000D03*
X75900000Y-25400000D03*
X91100000Y-25400000D03*
%TO.N,F*%
X27800000Y-26200000D03*
X37800000Y-29100000D03*
X53000000Y-29100000D03*
X68200000Y-29100000D03*
X83400000Y-29100000D03*
%TO.N,G*%
X29400000Y-31100000D03*
X44800000Y-31100000D03*
X60000000Y-31100000D03*
X75200000Y-31100000D03*
X90400000Y-31100000D03*
X30500000Y-40800000D03*
%TO.N,E*%
X37100000Y-35100000D03*
X52300000Y-35100000D03*
X67500000Y-35100000D03*
X82700000Y-35100000D03*
X25500000Y-38800000D03*
%TO.N,B*%
X48500000Y-27100000D03*
X33300000Y-27100000D03*
X63700000Y-27100000D03*
X78900000Y-27100000D03*
X94100000Y-27100000D03*
%TO.N,DP*%
X45600000Y-38800000D03*
X60800000Y-38800000D03*
X76000000Y-38800000D03*
X91200000Y-38800000D03*
X30400000Y-38800000D03*
X37400000Y-39600000D03*
%TO.N,C*%
X47800000Y-33600000D03*
X32600000Y-33600000D03*
X63000000Y-33600000D03*
X78200000Y-33600000D03*
X93400000Y-33600000D03*
%TO.N,D*%
X44100000Y-36800000D03*
X59300000Y-36800000D03*
X74500000Y-36800000D03*
X89700000Y-36800000D03*
%TO.N,D1*%
X40900000Y-40400000D03*
%TO.N,D3*%
X56800000Y-40400000D03*
%TO.N,Net-(J1-Pad4)*%
X46100000Y-42000000D03*
%TO.N,Net-(J1-Pad5)*%
X94000000Y-46300000D03*
%TO.N,Net-(J1-Pad6)*%
X91500000Y-46300000D03*
%TO.N,Net-(J1-Pad9)*%
X41100000Y-42000000D03*
%TD*%
D17*
%TO.N,D5*%
X87850000Y-26100000D02*
X87850000Y-31100000D01*
X88550000Y-25400000D02*
X87850000Y-26100000D01*
X87850000Y-30250000D02*
X87850000Y-31100000D01*
X89454705Y-28645295D02*
X87850000Y-30250000D01*
X86245295Y-28645295D02*
X87850000Y-30250000D01*
X87150000Y-31800000D02*
X87150000Y-36800000D01*
X87850000Y-31100000D02*
X87150000Y-31800000D01*
X87150000Y-36439998D02*
X87150000Y-36800000D01*
X92650000Y-36167084D02*
X91328211Y-34845295D01*
X92650000Y-36800000D02*
X92650000Y-36167084D01*
X87150000Y-35950000D02*
X87150000Y-36800000D01*
X88254705Y-34845295D02*
X87150000Y-35950000D01*
X91328211Y-34845295D02*
X88254705Y-34845295D01*
X86045295Y-34845295D02*
X87150000Y-35950000D01*
X84628211Y-34845295D02*
X86045295Y-34845295D01*
X89654705Y-28445295D02*
X89454705Y-28645295D01*
X92028211Y-28445295D02*
X89654705Y-28445295D01*
X86045295Y-28445295D02*
X86245295Y-28645295D01*
X85328211Y-28445295D02*
X86045295Y-28445295D01*
X87150000Y-39450000D02*
X85060000Y-41540000D01*
X87150000Y-36800000D02*
X87150000Y-39450000D01*
X85060000Y-44500000D02*
X85060000Y-41540000D01*
%TO.N,A*%
X44050000Y-25400000D02*
X45500000Y-25400000D01*
X59250000Y-25400000D02*
X60700000Y-25400000D01*
X74450000Y-25400000D02*
X75900000Y-25400000D01*
X89650000Y-25400000D02*
X91100000Y-25400000D01*
X94000000Y-41300000D02*
X94000000Y-42400000D01*
X95500000Y-39800000D02*
X94000000Y-41300000D01*
X95500000Y-26900000D02*
X95500000Y-39800000D01*
X94000000Y-25400000D02*
X95500000Y-26900000D01*
X91100000Y-25400000D02*
X94000000Y-25400000D01*
%TO.N,F*%
X27971789Y-26371789D02*
X27800000Y-26200000D01*
X27971789Y-27454705D02*
X27971789Y-26371789D01*
X84579610Y-27354705D02*
X85471789Y-27354705D01*
X83400000Y-28534315D02*
X84579610Y-27354705D01*
X83400000Y-29100000D02*
X83400000Y-28534315D01*
X69379610Y-27354705D02*
X70271789Y-27354705D01*
X68200000Y-28534315D02*
X69379610Y-27354705D01*
X68200000Y-29100000D02*
X68200000Y-28534315D01*
X54179610Y-27354705D02*
X55071789Y-27354705D01*
X53000000Y-28534315D02*
X54179610Y-27354705D01*
X53000000Y-29100000D02*
X53000000Y-28534315D01*
X38979610Y-27354705D02*
X39871789Y-27354705D01*
X37800000Y-28534315D02*
X38979610Y-27354705D01*
X37800000Y-29100000D02*
X37800000Y-28534315D01*
X25500000Y-26200000D02*
X27800000Y-26200000D01*
X24100000Y-27600000D02*
X25500000Y-26200000D01*
X28000000Y-38400000D02*
X24100000Y-34500000D01*
X28000000Y-42400000D02*
X28000000Y-38400000D01*
X24100000Y-34500000D02*
X24100000Y-27600000D01*
%TO.N,G*%
X43350000Y-31100000D02*
X44800000Y-31100000D01*
X58550000Y-31100000D02*
X60000000Y-31100000D01*
X73750000Y-31100000D02*
X75200000Y-31100000D01*
X88950000Y-31100000D02*
X90400000Y-31100000D01*
X28150000Y-31100000D02*
X29400000Y-31100000D01*
X30500000Y-42400000D02*
X30500000Y-40800000D01*
%TO.N,E*%
X84045295Y-33754705D02*
X82700000Y-35100000D01*
X84771789Y-33754705D02*
X84045295Y-33754705D01*
X68845295Y-33754705D02*
X67500000Y-35100000D01*
X69571789Y-33754705D02*
X68845295Y-33754705D01*
X53645295Y-33754705D02*
X52300000Y-35100000D01*
X54371789Y-33754705D02*
X53645295Y-33754705D01*
X38445295Y-33754705D02*
X37100000Y-35100000D01*
X39171789Y-33754705D02*
X38445295Y-33754705D01*
X25500000Y-42400000D02*
X25500000Y-38800000D01*
%TO.N,B*%
X31626494Y-27100000D02*
X31371789Y-27354705D01*
X33300000Y-27100000D02*
X31626494Y-27100000D01*
X46826494Y-27100000D02*
X46571789Y-27354705D01*
X48500000Y-27100000D02*
X46826494Y-27100000D01*
X62026494Y-27100000D02*
X61771789Y-27354705D01*
X63700000Y-27100000D02*
X62026494Y-27100000D01*
X77226494Y-27100000D02*
X76971789Y-27354705D01*
X78900000Y-27100000D02*
X77226494Y-27100000D01*
X92426494Y-27100000D02*
X92171789Y-27354705D01*
X94100000Y-27100000D02*
X92426494Y-27100000D01*
X23000000Y-42400000D02*
X23000000Y-26500000D01*
X23000000Y-26500000D02*
X25300000Y-24200000D01*
X25300000Y-24200000D02*
X32200000Y-24200000D01*
X33300000Y-25300000D02*
X33300000Y-27100000D01*
X32200000Y-24200000D02*
X33300000Y-25300000D01*
%TO.N,DP*%
X31800000Y-38800000D02*
X30400000Y-38800000D01*
X32950000Y-37650000D02*
X31800000Y-38800000D01*
X32950000Y-36800000D02*
X32950000Y-37650000D01*
X47000000Y-38800000D02*
X45600000Y-38800000D01*
X48150000Y-37650000D02*
X47000000Y-38800000D01*
X48150000Y-36800000D02*
X48150000Y-37650000D01*
X62200000Y-38800000D02*
X60800000Y-38800000D01*
X63350000Y-37650000D02*
X62200000Y-38800000D01*
X63350000Y-36800000D02*
X63350000Y-37650000D01*
X77400000Y-38800000D02*
X76000000Y-38800000D01*
X78550000Y-37650000D02*
X77400000Y-38800000D01*
X78550000Y-36800000D02*
X78550000Y-37650000D01*
X92600000Y-38800000D02*
X91200000Y-38800000D01*
X93750000Y-37650000D02*
X92600000Y-38800000D01*
X93750000Y-36800000D02*
X93750000Y-37650000D01*
X38900000Y-41100000D02*
X37400000Y-39600000D01*
X38900000Y-43500000D02*
X38900000Y-41100000D01*
%TO.N,C*%
X91626494Y-33600000D02*
X91471789Y-33754705D01*
X93400000Y-33600000D02*
X91626494Y-33600000D01*
X76426494Y-33600000D02*
X76271789Y-33754705D01*
X78200000Y-33600000D02*
X76426494Y-33600000D01*
X61226494Y-33600000D02*
X61071789Y-33754705D01*
X63000000Y-33600000D02*
X61226494Y-33600000D01*
X46026494Y-33600000D02*
X45871789Y-33754705D01*
X47800000Y-33600000D02*
X46026494Y-33600000D01*
X30826494Y-33600000D02*
X30671789Y-33754705D01*
X32600000Y-33600000D02*
X30826494Y-33600000D01*
X91500000Y-42400000D02*
X91500000Y-41400000D01*
X91500000Y-41400000D02*
X94800000Y-38100000D01*
X94800000Y-35000000D02*
X93400000Y-33600000D01*
X94800000Y-38100000D02*
X94800000Y-35000000D01*
%TO.N,D*%
X42650000Y-36800000D02*
X44100000Y-36800000D01*
X57850000Y-36800000D02*
X59300000Y-36800000D01*
X73050000Y-36800000D02*
X74500000Y-36800000D01*
X88250000Y-36800000D02*
X89700000Y-36800000D01*
X43900000Y-43500000D02*
X43900000Y-40100000D01*
X44100000Y-39900000D02*
X44100000Y-36800000D01*
X43900000Y-40100000D02*
X44100000Y-39900000D01*
%TO.N,D4*%
X73350000Y-25400000D02*
X72650000Y-26100000D01*
X71145295Y-28645295D02*
X72650000Y-30150000D01*
X72650000Y-30150000D02*
X72650000Y-31100000D01*
X72650000Y-26100000D02*
X72650000Y-30150000D01*
X71950000Y-31800000D02*
X71950000Y-36800000D01*
X72650000Y-31100000D02*
X71950000Y-31800000D01*
X77450000Y-36167084D02*
X76128211Y-34845295D01*
X77450000Y-36800000D02*
X77450000Y-36167084D01*
X71950000Y-36439998D02*
X71950000Y-36800000D01*
X71950000Y-35950000D02*
X71950000Y-36800000D01*
X73054705Y-34845295D02*
X71950000Y-35950000D01*
X76128211Y-34845295D02*
X73054705Y-34845295D01*
X70845295Y-34845295D02*
X71950000Y-35950000D01*
X69428211Y-34845295D02*
X70845295Y-34845295D01*
X70945295Y-28445295D02*
X71145295Y-28645295D01*
X70128211Y-28445295D02*
X70945295Y-28445295D01*
X72650000Y-30250000D02*
X72650000Y-31100000D01*
X74454705Y-28445295D02*
X72650000Y-30250000D01*
X76828211Y-28445295D02*
X74454705Y-28445295D01*
X71950000Y-39350000D02*
X71950000Y-36800000D01*
X73100000Y-40500000D02*
X71950000Y-39350000D01*
X82520000Y-44500000D02*
X78520000Y-40500000D01*
X77900000Y-40500000D02*
X73100000Y-40500000D01*
X78520000Y-40500000D02*
X77900000Y-40500000D01*
%TO.N,D1*%
X31228211Y-28645295D02*
X31228211Y-30971789D01*
X31228211Y-30971789D02*
X29900000Y-32300000D01*
X27050000Y-31950000D02*
X27050000Y-31100000D01*
X27400000Y-32300000D02*
X27050000Y-31950000D01*
X31850000Y-36167084D02*
X30528211Y-34845295D01*
X31850000Y-36800000D02*
X31850000Y-36167084D01*
X27128211Y-34845295D02*
X27028211Y-34745295D01*
X30528211Y-34845295D02*
X27128211Y-34845295D01*
X30175191Y-34845295D02*
X28800000Y-33470104D01*
X30528211Y-34845295D02*
X30175191Y-34845295D01*
X28800000Y-32300000D02*
X27400000Y-32300000D01*
X28800000Y-33470104D02*
X28800000Y-32300000D01*
X29900000Y-32300000D02*
X28800000Y-32300000D01*
X35345295Y-34845295D02*
X30528211Y-34845295D01*
X40900000Y-40400000D02*
X35345295Y-34845295D01*
%TO.N,D3*%
X57450000Y-26100000D02*
X57450000Y-31100000D01*
X58150000Y-25400000D02*
X57450000Y-26100000D01*
X57450000Y-30250000D02*
X57450000Y-31100000D01*
X59054705Y-28645295D02*
X57450000Y-30250000D01*
X55845295Y-28645295D02*
X57450000Y-30250000D01*
X56750000Y-31800000D02*
X56750000Y-36800000D01*
X57450000Y-31100000D02*
X56750000Y-31800000D01*
X56750000Y-36439998D02*
X56750000Y-36800000D01*
X56750000Y-40350000D02*
X56800000Y-40400000D01*
X56750000Y-36800000D02*
X56750000Y-40350000D01*
X62250000Y-36167084D02*
X60928211Y-34845295D01*
X62250000Y-36800000D02*
X62250000Y-36167084D01*
X56750000Y-35950000D02*
X56750000Y-36800000D01*
X57854705Y-34845295D02*
X56750000Y-35950000D01*
X60928211Y-34845295D02*
X57854705Y-34845295D01*
X55645295Y-34845295D02*
X56750000Y-35950000D01*
X54228211Y-34845295D02*
X55645295Y-34845295D01*
X55645295Y-28445295D02*
X55845295Y-28645295D01*
X54928211Y-28445295D02*
X55645295Y-28445295D01*
X59254705Y-28445295D02*
X59054705Y-28645295D01*
X61628211Y-28445295D02*
X59254705Y-28445295D01*
%TO.N,D2*%
X42250000Y-26100000D02*
X42250000Y-31100000D01*
X42950000Y-25400000D02*
X42250000Y-26100000D01*
X42250000Y-30250000D02*
X42250000Y-31100000D01*
X43854705Y-28645295D02*
X42250000Y-30250000D01*
X40645295Y-28645295D02*
X42250000Y-30250000D01*
X41550000Y-31800000D02*
X41550000Y-36800000D01*
X42250000Y-31100000D02*
X41550000Y-31800000D01*
X41550000Y-36439998D02*
X41550000Y-36800000D01*
X47050000Y-36167084D02*
X45728211Y-34845295D01*
X47050000Y-36800000D02*
X47050000Y-36167084D01*
X41550000Y-35950000D02*
X41550000Y-36800000D01*
X42654705Y-34845295D02*
X41550000Y-35950000D01*
X45728211Y-34845295D02*
X42654705Y-34845295D01*
X40445295Y-34845295D02*
X41550000Y-35950000D01*
X39028211Y-34845295D02*
X40445295Y-34845295D01*
X44054705Y-28445295D02*
X43854705Y-28645295D01*
X46428211Y-28445295D02*
X44054705Y-28445295D01*
X40445295Y-28445295D02*
X40645295Y-28645295D01*
X39728211Y-28445295D02*
X40445295Y-28445295D01*
X55200000Y-42000000D02*
X48045295Y-34845295D01*
X77480000Y-42000000D02*
X55200000Y-42000000D01*
X48045295Y-34845295D02*
X45728211Y-34845295D01*
X79980000Y-44500000D02*
X77480000Y-42000000D01*
%TO.N,Net-(D35-Pad1)*%
X27171789Y-33654705D02*
X26354705Y-33654705D01*
X26354705Y-33654705D02*
X25600000Y-32900000D01*
X25600000Y-32900000D02*
X25600000Y-29500000D01*
X26554705Y-28545295D02*
X27828211Y-28545295D01*
X25600000Y-29500000D02*
X26554705Y-28545295D01*
%TO.N,Net-(J1-Pad1)*%
X30500000Y-44800000D02*
X31124960Y-45424960D01*
X30500000Y-44600000D02*
X30500000Y-44800000D01*
X31124960Y-45424960D02*
X48575040Y-45424960D01*
X48575040Y-45424960D02*
X49500000Y-44500000D01*
%TO.N,Net-(J1-Pad2)*%
X50415030Y-46124970D02*
X52040000Y-44500000D01*
X28424970Y-46124970D02*
X50415030Y-46124970D01*
X28000000Y-45700000D02*
X28424970Y-46124970D01*
X28000000Y-44600000D02*
X28000000Y-45700000D01*
%TO.N,Net-(J1-Pad3)*%
X25500000Y-45700000D02*
X26624980Y-46824980D01*
X25500000Y-44600000D02*
X25500000Y-45700000D01*
X52255020Y-46824980D02*
X54580000Y-44500000D01*
X26624980Y-46824980D02*
X52255020Y-46824980D01*
%TO.N,Net-(J1-Pad4)*%
X46100000Y-43500000D02*
X46100000Y-42000000D01*
%TO.N,Net-(J1-Pad5)*%
X94000000Y-44600000D02*
X94000000Y-46300000D01*
%TO.N,Net-(J1-Pad6)*%
X91500000Y-44600000D02*
X91500000Y-46300000D01*
%TO.N,Net-(J1-Pad7)*%
X24824990Y-47524990D02*
X61715010Y-47524990D01*
X61715010Y-47524990D02*
X64740000Y-44500000D01*
X23000000Y-45700000D02*
X24824990Y-47524990D01*
X23000000Y-44600000D02*
X23000000Y-45700000D01*
%TO.N,Net-(J1-Pad9)*%
X41100000Y-43500000D02*
X41100000Y-42000000D01*
%TD*%
M02*
