G04 #@! TF.GenerationSoftware,KiCad,Pcbnew,(6.0.10)*
G04 #@! TF.CreationDate,2023-02-05T00:57:15+01:00*
G04 #@! TF.ProjectId,Display-Modul,44697370-6c61-4792-9d4d-6f64756c2e6b,rev?*
G04 #@! TF.SameCoordinates,Original*
G04 #@! TF.FileFunction,Legend,Top*
G04 #@! TF.FilePolarity,Positive*
%FSLAX46Y46*%
G04 Gerber Fmt 4.6, Leading zero omitted, Abs format (unit mm)*
G04 Created by KiCad (PCBNEW (6.0.10)) date 2023-02-05 00:57:15*
%MOMM*%
%LPD*%
G01*
G04 APERTURE LIST*
%ADD10C,0.150000*%
%ADD11C,0.120000*%
%ADD12R,1.524000X2.524000*%
%ADD13O,1.524000X2.524000*%
G04 APERTURE END LIST*
D10*
X98331904Y-32202380D02*
X98331904Y-31202380D01*
X98570000Y-31202380D01*
X98712857Y-31250000D01*
X98808095Y-31345238D01*
X98855714Y-31440476D01*
X98903333Y-31630952D01*
X98903333Y-31773809D01*
X98855714Y-31964285D01*
X98808095Y-32059523D01*
X98712857Y-32154761D01*
X98570000Y-32202380D01*
X98331904Y-32202380D01*
X99808095Y-31202380D02*
X99331904Y-31202380D01*
X99284285Y-31678571D01*
X99331904Y-31630952D01*
X99427142Y-31583333D01*
X99665238Y-31583333D01*
X99760476Y-31630952D01*
X99808095Y-31678571D01*
X99855714Y-31773809D01*
X99855714Y-32011904D01*
X99808095Y-32107142D01*
X99760476Y-32154761D01*
X99665238Y-32202380D01*
X99427142Y-32202380D01*
X99331904Y-32154761D01*
X99284285Y-32107142D01*
X52851904Y-32202380D02*
X52851904Y-31202380D01*
X53090000Y-31202380D01*
X53232857Y-31250000D01*
X53328095Y-31345238D01*
X53375714Y-31440476D01*
X53423333Y-31630952D01*
X53423333Y-31773809D01*
X53375714Y-31964285D01*
X53328095Y-32059523D01*
X53232857Y-32154761D01*
X53090000Y-32202380D01*
X52851904Y-32202380D01*
X53804285Y-31297619D02*
X53851904Y-31250000D01*
X53947142Y-31202380D01*
X54185238Y-31202380D01*
X54280476Y-31250000D01*
X54328095Y-31297619D01*
X54375714Y-31392857D01*
X54375714Y-31488095D01*
X54328095Y-31630952D01*
X53756666Y-32202380D01*
X54375714Y-32202380D01*
X68011904Y-32202380D02*
X68011904Y-31202380D01*
X68250000Y-31202380D01*
X68392857Y-31250000D01*
X68488095Y-31345238D01*
X68535714Y-31440476D01*
X68583333Y-31630952D01*
X68583333Y-31773809D01*
X68535714Y-31964285D01*
X68488095Y-32059523D01*
X68392857Y-32154761D01*
X68250000Y-32202380D01*
X68011904Y-32202380D01*
X68916666Y-31202380D02*
X69535714Y-31202380D01*
X69202380Y-31583333D01*
X69345238Y-31583333D01*
X69440476Y-31630952D01*
X69488095Y-31678571D01*
X69535714Y-31773809D01*
X69535714Y-32011904D01*
X69488095Y-32107142D01*
X69440476Y-32154761D01*
X69345238Y-32202380D01*
X69059523Y-32202380D01*
X68964285Y-32154761D01*
X68916666Y-32107142D01*
X37691904Y-32202380D02*
X37691904Y-31202380D01*
X37930000Y-31202380D01*
X38072857Y-31250000D01*
X38168095Y-31345238D01*
X38215714Y-31440476D01*
X38263333Y-31630952D01*
X38263333Y-31773809D01*
X38215714Y-31964285D01*
X38168095Y-32059523D01*
X38072857Y-32154761D01*
X37930000Y-32202380D01*
X37691904Y-32202380D01*
X39215714Y-32202380D02*
X38644285Y-32202380D01*
X38930000Y-32202380D02*
X38930000Y-31202380D01*
X38834761Y-31345238D01*
X38739523Y-31440476D01*
X38644285Y-31488095D01*
X83171904Y-32202380D02*
X83171904Y-31202380D01*
X83410000Y-31202380D01*
X83552857Y-31250000D01*
X83648095Y-31345238D01*
X83695714Y-31440476D01*
X83743333Y-31630952D01*
X83743333Y-31773809D01*
X83695714Y-31964285D01*
X83648095Y-32059523D01*
X83552857Y-32154761D01*
X83410000Y-32202380D01*
X83171904Y-32202380D01*
X84600476Y-31535714D02*
X84600476Y-32202380D01*
X84362380Y-31154761D02*
X84124285Y-31869047D01*
X84743333Y-31869047D01*
D11*
X101070000Y-47500000D02*
X102070000Y-42500000D01*
X96070000Y-37500000D02*
X95070000Y-42500000D01*
X105480000Y-48215000D02*
X105480000Y-36785000D01*
X93770000Y-52135000D02*
X105370000Y-52135000D01*
X103070000Y-37500000D02*
X102070000Y-42500000D01*
X92660000Y-48215000D02*
X92660000Y-36785000D01*
X95070000Y-42500000D02*
X94070000Y-47500000D01*
X96070000Y-37500000D02*
X103070000Y-37500000D01*
X102070000Y-42500000D02*
X95070000Y-42500000D01*
X94070000Y-47500000D02*
X101070000Y-47500000D01*
X105370000Y-32865000D02*
X92770000Y-32865000D01*
X103517214Y-47500000D02*
G75*
G03*
X103517214Y-47500000I-447214J0D01*
G01*
X59890000Y-32865000D02*
X47290000Y-32865000D01*
X48590000Y-47500000D02*
X55590000Y-47500000D01*
X60000000Y-48215000D02*
X60000000Y-36785000D01*
X50590000Y-37500000D02*
X57590000Y-37500000D01*
X47180000Y-48215000D02*
X47180000Y-36785000D01*
X57590000Y-37500000D02*
X56590000Y-42500000D01*
X55590000Y-47500000D02*
X56590000Y-42500000D01*
X56590000Y-42500000D02*
X49590000Y-42500000D01*
X50590000Y-37500000D02*
X49590000Y-42500000D01*
X49590000Y-42500000D02*
X48590000Y-47500000D01*
X48290000Y-52135000D02*
X59890000Y-52135000D01*
X58037214Y-47500000D02*
G75*
G03*
X58037214Y-47500000I-447214J0D01*
G01*
X75160000Y-48215000D02*
X75160000Y-36785000D01*
X63450000Y-52135000D02*
X75050000Y-52135000D01*
X64750000Y-42500000D02*
X63750000Y-47500000D01*
X70750000Y-47500000D02*
X71750000Y-42500000D01*
X75050000Y-32865000D02*
X62450000Y-32865000D01*
X72750000Y-37500000D02*
X71750000Y-42500000D01*
X71750000Y-42500000D02*
X64750000Y-42500000D01*
X62340000Y-48215000D02*
X62340000Y-36785000D01*
X63750000Y-47500000D02*
X70750000Y-47500000D01*
X65750000Y-37500000D02*
X72750000Y-37500000D01*
X65750000Y-37500000D02*
X64750000Y-42500000D01*
X73197214Y-47500000D02*
G75*
G03*
X73197214Y-47500000I-447214J0D01*
G01*
X44730000Y-32865000D02*
X32130000Y-32865000D01*
X34430000Y-42500000D02*
X33430000Y-47500000D01*
X35430000Y-37500000D02*
X42430000Y-37500000D01*
X32020000Y-48215000D02*
X32020000Y-36785000D01*
X41430000Y-42500000D02*
X34430000Y-42500000D01*
X33130000Y-52135000D02*
X44730000Y-52135000D01*
X35430000Y-37500000D02*
X34430000Y-42500000D01*
X42430000Y-37500000D02*
X41430000Y-42500000D01*
X33430000Y-47500000D02*
X40430000Y-47500000D01*
X44840000Y-48215000D02*
X44840000Y-36785000D01*
X40430000Y-47500000D02*
X41430000Y-42500000D01*
X42877214Y-47500000D02*
G75*
G03*
X42877214Y-47500000I-447214J0D01*
G01*
X85910000Y-47500000D02*
X86910000Y-42500000D01*
X80910000Y-37500000D02*
X87910000Y-37500000D01*
X78910000Y-47500000D02*
X85910000Y-47500000D01*
X90210000Y-32865000D02*
X77610000Y-32865000D01*
X78610000Y-52135000D02*
X90210000Y-52135000D01*
X77500000Y-48215000D02*
X77500000Y-36785000D01*
X80910000Y-37500000D02*
X79910000Y-42500000D01*
X86910000Y-42500000D02*
X79910000Y-42500000D01*
X87910000Y-37500000D02*
X86910000Y-42500000D01*
X79910000Y-42500000D02*
X78910000Y-47500000D01*
X90320000Y-48215000D02*
X90320000Y-36785000D01*
X88357214Y-47500000D02*
G75*
G03*
X88357214Y-47500000I-447214J0D01*
G01*
%LPC*%
D12*
X93990000Y-50120000D03*
D13*
X96530000Y-50120000D03*
X99070000Y-50120000D03*
X101610000Y-50120000D03*
X104150000Y-50120000D03*
X104150000Y-34880000D03*
X101610000Y-34880000D03*
X99070000Y-34880000D03*
X96530000Y-34880000D03*
X93990000Y-34880000D03*
D12*
X48510000Y-50120000D03*
D13*
X51050000Y-50120000D03*
X53590000Y-50120000D03*
X56130000Y-50120000D03*
X58670000Y-50120000D03*
X58670000Y-34880000D03*
X56130000Y-34880000D03*
X53590000Y-34880000D03*
X51050000Y-34880000D03*
X48510000Y-34880000D03*
D12*
X63670000Y-50120000D03*
D13*
X66210000Y-50120000D03*
X68750000Y-50120000D03*
X71290000Y-50120000D03*
X73830000Y-50120000D03*
X73830000Y-34880000D03*
X71290000Y-34880000D03*
X68750000Y-34880000D03*
X66210000Y-34880000D03*
X63670000Y-34880000D03*
D12*
X33350000Y-50120000D03*
D13*
X35890000Y-50120000D03*
X38430000Y-50120000D03*
X40970000Y-50120000D03*
X43510000Y-50120000D03*
X43510000Y-34880000D03*
X40970000Y-34880000D03*
X38430000Y-34880000D03*
X35890000Y-34880000D03*
X33350000Y-34880000D03*
D12*
X78830000Y-50120000D03*
D13*
X81370000Y-50120000D03*
X83910000Y-50120000D03*
X86450000Y-50120000D03*
X88990000Y-50120000D03*
X88990000Y-34880000D03*
X86450000Y-34880000D03*
X83910000Y-34880000D03*
X81370000Y-34880000D03*
X78830000Y-34880000D03*
M02*
