G04 #@! TF.GenerationSoftware,KiCad,Pcbnew,(6.0.10)*
G04 #@! TF.CreationDate,2023-02-05T00:57:15+01:00*
G04 #@! TF.ProjectId,Display-Modul,44697370-6c61-4792-9d4d-6f64756c2e6b,rev?*
G04 #@! TF.SameCoordinates,Original*
G04 #@! TF.FileFunction,Soldermask,Top*
G04 #@! TF.FilePolarity,Negative*
%FSLAX46Y46*%
G04 Gerber Fmt 4.6, Leading zero omitted, Abs format (unit mm)*
G04 Created by KiCad (PCBNEW (6.0.10)) date 2023-02-05 00:57:15*
%MOMM*%
%LPD*%
G01*
G04 APERTURE LIST*
%ADD10R,1.524000X2.524000*%
%ADD11O,1.524000X2.524000*%
G04 APERTURE END LIST*
D10*
X93990000Y-50120000D03*
D11*
X96530000Y-50120000D03*
X99070000Y-50120000D03*
X101610000Y-50120000D03*
X104150000Y-50120000D03*
X104150000Y-34880000D03*
X101610000Y-34880000D03*
X99070000Y-34880000D03*
X96530000Y-34880000D03*
X93990000Y-34880000D03*
D10*
X48510000Y-50120000D03*
D11*
X51050000Y-50120000D03*
X53590000Y-50120000D03*
X56130000Y-50120000D03*
X58670000Y-50120000D03*
X58670000Y-34880000D03*
X56130000Y-34880000D03*
X53590000Y-34880000D03*
X51050000Y-34880000D03*
X48510000Y-34880000D03*
D10*
X63670000Y-50120000D03*
D11*
X66210000Y-50120000D03*
X68750000Y-50120000D03*
X71290000Y-50120000D03*
X73830000Y-50120000D03*
X73830000Y-34880000D03*
X71290000Y-34880000D03*
X68750000Y-34880000D03*
X66210000Y-34880000D03*
X63670000Y-34880000D03*
D10*
X33350000Y-50120000D03*
D11*
X35890000Y-50120000D03*
X38430000Y-50120000D03*
X40970000Y-50120000D03*
X43510000Y-50120000D03*
X43510000Y-34880000D03*
X40970000Y-34880000D03*
X38430000Y-34880000D03*
X35890000Y-34880000D03*
X33350000Y-34880000D03*
D10*
X78830000Y-50120000D03*
D11*
X81370000Y-50120000D03*
X83910000Y-50120000D03*
X86450000Y-50120000D03*
X88990000Y-50120000D03*
X88990000Y-34880000D03*
X86450000Y-34880000D03*
X83910000Y-34880000D03*
X81370000Y-34880000D03*
X78830000Y-34880000D03*
M02*
