M48
; DRILL file {KiCad (6.0.10)} date Sun Feb  5 00:57:21 2023
; FORMAT={-:-/ absolute / metric / decimal}
; #@! TF.CreationDate,2023-02-05T00:57:21+01:00
; #@! TF.GenerationSoftware,Kicad,Pcbnew,(6.0.10)
; #@! TF.FileFunction,Plated,1,2,PTH
FMAT,2
METRIC
; #@! TA.AperFunction,Plated,PTH,ViaDrill
T1C0.400
; #@! TA.AperFunction,Plated,PTH,ViaDrill
T2C0.750
; #@! TA.AperFunction,Plated,PTH,ComponentDrill
T3C0.800
%
G90
G05
T1
X33.35Y-32.5
X33.35Y-52.5
X35.89Y-31.0
X35.89Y-54.0
X40.97Y-37.5
X40.97Y-47.5
X43.51Y-39.0
X43.51Y-46.0
X48.51Y-32.5
X48.51Y-52.5
X51.05Y-31.0
X51.05Y-54.0
X56.13Y-37.5
X56.13Y-47.5
X58.67Y-39.0
X58.67Y-46.0
X60.67Y-42.5
X63.67Y-32.5
X63.67Y-40.0
X63.67Y-52.5
X66.21Y-31.0
X66.21Y-45.0
X66.21Y-54.0
X71.29Y-37.5
X71.29Y-40.0
X71.29Y-47.5
X73.83Y-39.0
X73.83Y-46.0
X75.5Y-42.5
X78.83Y-32.5
X78.83Y-52.5
X81.37Y-31.0
X81.37Y-37.53
X81.37Y-40.0
X81.37Y-54.0
X86.45Y-37.5
X86.45Y-47.5
X88.99Y-39.0
X88.99Y-46.0
X93.99Y-32.5
X93.99Y-52.5
X96.53Y-31.0
X96.53Y-54.0
X101.61Y-37.5
X101.61Y-47.5
X104.15Y-39.0
X104.15Y-46.0
T2
X38.43Y-42.5
X53.59Y-42.5
X68.75Y-42.5
X83.91Y-42.5
X99.07Y-42.5
T3
X33.35Y-34.88
X33.35Y-50.12
X35.89Y-34.88
X35.89Y-50.12
X38.43Y-34.88
X38.43Y-50.12
X40.97Y-34.88
X40.97Y-50.12
X43.51Y-34.88
X43.51Y-50.12
X48.51Y-34.88
X48.51Y-50.12
X51.05Y-34.88
X51.05Y-50.12
X53.59Y-34.88
X53.59Y-50.12
X56.13Y-34.88
X56.13Y-50.12
X58.67Y-34.88
X58.67Y-50.12
X63.67Y-34.88
X63.67Y-50.12
X66.21Y-34.88
X66.21Y-50.12
X68.75Y-34.88
X68.75Y-50.12
X71.29Y-34.88
X71.29Y-50.12
X73.83Y-34.88
X73.83Y-50.12
X78.83Y-34.88
X78.83Y-50.12
X81.37Y-34.88
X81.37Y-50.12
X83.91Y-34.88
X83.91Y-50.12
X86.45Y-34.88
X86.45Y-50.12
X88.99Y-34.88
X88.99Y-50.12
X93.99Y-34.88
X93.99Y-50.12
X96.53Y-34.88
X96.53Y-50.12
X99.07Y-34.88
X99.07Y-50.12
X101.61Y-34.88
X101.61Y-50.12
X104.15Y-34.88
X104.15Y-50.12
T0
M30
