G04 #@! TF.GenerationSoftware,KiCad,Pcbnew,(6.0.10)*
G04 #@! TF.CreationDate,2023-02-05T00:57:15+01:00*
G04 #@! TF.ProjectId,Display-Modul,44697370-6c61-4792-9d4d-6f64756c2e6b,rev?*
G04 #@! TF.SameCoordinates,Original*
G04 #@! TF.FileFunction,Copper,L2,Bot*
G04 #@! TF.FilePolarity,Positive*
%FSLAX46Y46*%
G04 Gerber Fmt 4.6, Leading zero omitted, Abs format (unit mm)*
G04 Created by KiCad (PCBNEW (6.0.10)) date 2023-02-05 00:57:15*
%MOMM*%
%LPD*%
G01*
G04 APERTURE LIST*
G04 Aperture macros list*
%AMRoundRect*
0 Rectangle with rounded corners*
0 $1 Rounding radius*
0 $2 $3 $4 $5 $6 $7 $8 $9 X,Y pos of 4 corners*
0 Add a 4 corners polygon primitive as box body*
4,1,4,$2,$3,$4,$5,$6,$7,$8,$9,$2,$3,0*
0 Add four circle primitives for the rounded corners*
1,1,$1+$1,$2,$3*
1,1,$1+$1,$4,$5*
1,1,$1+$1,$6,$7*
1,1,$1+$1,$8,$9*
0 Add four rect primitives between the rounded corners*
20,1,$1+$1,$2,$3,$4,$5,0*
20,1,$1+$1,$4,$5,$6,$7,0*
20,1,$1+$1,$6,$7,$8,$9,0*
20,1,$1+$1,$8,$9,$2,$3,0*%
G04 Aperture macros list end*
G04 #@! TA.AperFunction,ComponentPad*
%ADD10R,1.524000X2.524000*%
G04 #@! TD*
G04 #@! TA.AperFunction,ComponentPad*
%ADD11O,1.524000X2.524000*%
G04 #@! TD*
G04 #@! TA.AperFunction,SMDPad,CuDef*
%ADD12RoundRect,0.500000X0.500000X1.500000X-0.500000X1.500000X-0.500000X-1.500000X0.500000X-1.500000X0*%
G04 #@! TD*
G04 #@! TA.AperFunction,SMDPad,CuDef*
%ADD13RoundRect,0.750000X0.750000X1.750000X-0.750000X1.750000X-0.750000X-1.750000X0.750000X-1.750000X0*%
G04 #@! TD*
G04 #@! TA.AperFunction,ViaPad*
%ADD14C,0.800000*%
G04 #@! TD*
G04 #@! TA.AperFunction,ViaPad*
%ADD15C,1.500000*%
G04 #@! TD*
G04 #@! TA.AperFunction,Conductor*
%ADD16C,0.500000*%
G04 #@! TD*
G04 APERTURE END LIST*
D10*
X93990000Y-50120000D03*
D11*
X96530000Y-50120000D03*
X99070000Y-50120000D03*
X101610000Y-50120000D03*
X104150000Y-50120000D03*
X104150000Y-34880000D03*
X101610000Y-34880000D03*
X99070000Y-34880000D03*
X96530000Y-34880000D03*
X93990000Y-34880000D03*
D10*
X48510000Y-50120000D03*
D11*
X51050000Y-50120000D03*
X53590000Y-50120000D03*
X56130000Y-50120000D03*
X58670000Y-50120000D03*
X58670000Y-34880000D03*
X56130000Y-34880000D03*
X53590000Y-34880000D03*
X51050000Y-34880000D03*
X48510000Y-34880000D03*
D10*
X63670000Y-50120000D03*
D11*
X66210000Y-50120000D03*
X68750000Y-50120000D03*
X71290000Y-50120000D03*
X73830000Y-50120000D03*
X73830000Y-34880000D03*
X71290000Y-34880000D03*
X68750000Y-34880000D03*
X66210000Y-34880000D03*
X63670000Y-34880000D03*
D10*
X33350000Y-50120000D03*
D11*
X35890000Y-50120000D03*
X38430000Y-50120000D03*
X40970000Y-50120000D03*
X43510000Y-50120000D03*
X43510000Y-34880000D03*
X40970000Y-34880000D03*
X38430000Y-34880000D03*
X35890000Y-34880000D03*
X33350000Y-34880000D03*
D10*
X78830000Y-50120000D03*
D11*
X81370000Y-50120000D03*
X83910000Y-50120000D03*
X86450000Y-50120000D03*
X88990000Y-50120000D03*
X88990000Y-34880000D03*
X86450000Y-34880000D03*
X83910000Y-34880000D03*
X81370000Y-34880000D03*
X78830000Y-34880000D03*
D12*
X38430000Y-42500000D03*
D13*
X32000000Y-42500000D03*
D12*
X78830000Y-42500000D03*
X83910000Y-42500000D03*
X63670000Y-42500000D03*
X66210000Y-42500000D03*
X71290000Y-42500000D03*
X58670000Y-42500000D03*
X53590000Y-42500000D03*
X99070000Y-42500000D03*
X81370000Y-42500000D03*
D13*
X105500000Y-42500000D03*
D12*
X56130000Y-42500000D03*
X68750000Y-42500000D03*
X73830000Y-42500000D03*
D14*
X78830000Y-52500000D03*
X33350000Y-52500000D03*
X63670000Y-52500000D03*
X48510000Y-52500000D03*
X66210000Y-45000000D03*
X93990000Y-52500000D03*
X35890000Y-54000000D03*
X66210000Y-54000000D03*
X71290000Y-40000000D03*
X51050000Y-54000000D03*
X96530000Y-54000000D03*
X81370000Y-54000000D03*
D15*
X38430000Y-42500000D03*
D14*
X86450000Y-47500000D03*
X75500000Y-42500000D03*
X101610000Y-47500000D03*
X56130000Y-47500000D03*
X40970000Y-47500000D03*
X71290000Y-47500000D03*
X43510000Y-46000000D03*
X58670000Y-46000000D03*
X104150000Y-46000000D03*
X88990000Y-46000000D03*
X73830000Y-46000000D03*
X88990000Y-39000000D03*
X104150000Y-39000000D03*
X43510000Y-39000000D03*
X73830000Y-39000000D03*
X58670000Y-39000000D03*
X40970000Y-37500000D03*
X56130000Y-37500000D03*
X71290000Y-37500000D03*
X81370000Y-40000000D03*
X101610000Y-37500000D03*
X81370000Y-37530000D03*
X86450000Y-37500000D03*
X63670000Y-40000000D03*
X96530000Y-31000000D03*
X35890000Y-31000000D03*
X66210000Y-31000000D03*
X51050000Y-31000000D03*
X81370000Y-31000000D03*
X78830000Y-32500000D03*
X48510000Y-32500000D03*
X33350000Y-32500000D03*
X63670000Y-32500000D03*
X93990000Y-32500000D03*
X60670000Y-42500000D03*
D15*
X53590000Y-42500000D03*
X68750000Y-42500000D03*
X83910000Y-42500000D03*
X99070000Y-42500000D03*
D16*
X66210000Y-45000000D02*
X66210000Y-42500000D01*
X33350000Y-52500000D02*
X93990000Y-52500000D01*
X71290000Y-42500000D02*
X71290000Y-40000000D01*
X35890000Y-54000000D02*
X96530000Y-54000000D01*
X75500000Y-42500000D02*
X73830000Y-42500000D01*
X40970000Y-47500000D02*
X101610000Y-47500000D01*
X81250000Y-46000000D02*
X104150000Y-46000000D01*
X56200000Y-46000000D02*
X81250000Y-46000000D01*
X56130000Y-45930000D02*
X56200000Y-46000000D01*
X43510000Y-46000000D02*
X56200000Y-46000000D01*
X56130000Y-42500000D02*
X56130000Y-45930000D01*
X78900000Y-39000000D02*
X104150000Y-39000000D01*
X43510000Y-39000000D02*
X78900000Y-39000000D01*
X78830000Y-42500000D02*
X78830000Y-39070000D01*
X78830000Y-39070000D02*
X78900000Y-39000000D01*
X81370000Y-42500000D02*
X81370000Y-40000000D01*
X101610000Y-37500000D02*
X40970000Y-37500000D01*
X63670000Y-42500000D02*
X63670000Y-40000000D01*
X35890000Y-31000000D02*
X96530000Y-31000000D01*
X58670000Y-42500000D02*
X60670000Y-42500000D01*
X33350000Y-32500000D02*
X93990000Y-32500000D01*
M02*
