G04 #@! TF.GenerationSoftware,KiCad,Pcbnew,(6.0.10)*
G04 #@! TF.CreationDate,2023-02-05T00:57:15+01:00*
G04 #@! TF.ProjectId,Display-Modul,44697370-6c61-4792-9d4d-6f64756c2e6b,rev?*
G04 #@! TF.SameCoordinates,Original*
G04 #@! TF.FileFunction,Copper,L1,Top*
G04 #@! TF.FilePolarity,Positive*
%FSLAX46Y46*%
G04 Gerber Fmt 4.6, Leading zero omitted, Abs format (unit mm)*
G04 Created by KiCad (PCBNEW (6.0.10)) date 2023-02-05 00:57:15*
%MOMM*%
%LPD*%
G01*
G04 APERTURE LIST*
G04 #@! TA.AperFunction,ComponentPad*
%ADD10R,1.524000X2.524000*%
G04 #@! TD*
G04 #@! TA.AperFunction,ComponentPad*
%ADD11O,1.524000X2.524000*%
G04 #@! TD*
G04 #@! TA.AperFunction,ViaPad*
%ADD12C,0.800000*%
G04 #@! TD*
G04 #@! TA.AperFunction,ViaPad*
%ADD13C,1.500000*%
G04 #@! TD*
G04 #@! TA.AperFunction,Conductor*
%ADD14C,0.500000*%
G04 #@! TD*
G04 APERTURE END LIST*
D10*
X93990000Y-50120000D03*
D11*
X96530000Y-50120000D03*
X99070000Y-50120000D03*
X101610000Y-50120000D03*
X104150000Y-50120000D03*
X104150000Y-34880000D03*
X101610000Y-34880000D03*
X99070000Y-34880000D03*
X96530000Y-34880000D03*
X93990000Y-34880000D03*
D10*
X48510000Y-50120000D03*
D11*
X51050000Y-50120000D03*
X53590000Y-50120000D03*
X56130000Y-50120000D03*
X58670000Y-50120000D03*
X58670000Y-34880000D03*
X56130000Y-34880000D03*
X53590000Y-34880000D03*
X51050000Y-34880000D03*
X48510000Y-34880000D03*
D10*
X63670000Y-50120000D03*
D11*
X66210000Y-50120000D03*
X68750000Y-50120000D03*
X71290000Y-50120000D03*
X73830000Y-50120000D03*
X73830000Y-34880000D03*
X71290000Y-34880000D03*
X68750000Y-34880000D03*
X66210000Y-34880000D03*
X63670000Y-34880000D03*
D10*
X33350000Y-50120000D03*
D11*
X35890000Y-50120000D03*
X38430000Y-50120000D03*
X40970000Y-50120000D03*
X43510000Y-50120000D03*
X43510000Y-34880000D03*
X40970000Y-34880000D03*
X38430000Y-34880000D03*
X35890000Y-34880000D03*
X33350000Y-34880000D03*
D10*
X78830000Y-50120000D03*
D11*
X81370000Y-50120000D03*
X83910000Y-50120000D03*
X86450000Y-50120000D03*
X88990000Y-50120000D03*
X88990000Y-34880000D03*
X86450000Y-34880000D03*
X83910000Y-34880000D03*
X81370000Y-34880000D03*
X78830000Y-34880000D03*
D12*
X78830000Y-52500000D03*
X33350000Y-52500000D03*
X63670000Y-52500000D03*
X48510000Y-52500000D03*
X66210000Y-45000000D03*
X93990000Y-52500000D03*
X35890000Y-54000000D03*
X66210000Y-54000000D03*
X71290000Y-40000000D03*
X51050000Y-54000000D03*
X96530000Y-54000000D03*
X81370000Y-54000000D03*
D13*
X38430000Y-42500000D03*
D12*
X86450000Y-47500000D03*
X75500000Y-42500000D03*
X101610000Y-47500000D03*
X56130000Y-47500000D03*
X40970000Y-47500000D03*
X71290000Y-47500000D03*
X43510000Y-46000000D03*
X58670000Y-46000000D03*
X104150000Y-46000000D03*
X88990000Y-46000000D03*
X73830000Y-46000000D03*
X88990000Y-39000000D03*
X104150000Y-39000000D03*
X43510000Y-39000000D03*
X73830000Y-39000000D03*
X58670000Y-39000000D03*
X40970000Y-37500000D03*
X56130000Y-37500000D03*
X71290000Y-37500000D03*
X81370000Y-40000000D03*
X101610000Y-37500000D03*
X81370000Y-37530000D03*
X86450000Y-37500000D03*
X63670000Y-40000000D03*
X96530000Y-31000000D03*
X35890000Y-31000000D03*
X66210000Y-31000000D03*
X51050000Y-31000000D03*
X81370000Y-31000000D03*
X78830000Y-32500000D03*
X48510000Y-32500000D03*
X33350000Y-32500000D03*
X63670000Y-32500000D03*
X93990000Y-32500000D03*
X60670000Y-42500000D03*
D13*
X53590000Y-42500000D03*
X68750000Y-42500000D03*
X83910000Y-42500000D03*
X99070000Y-42500000D03*
D14*
X93990000Y-50120000D02*
X93990000Y-52500000D01*
X63670000Y-50120000D02*
X63670000Y-52500000D01*
X66210000Y-45000000D02*
X63670000Y-45000000D01*
X63670000Y-50120000D02*
X63670000Y-45000000D01*
X33350000Y-50120000D02*
X33350000Y-52500000D01*
X78830000Y-50120000D02*
X78830000Y-52500000D01*
X48510000Y-50120000D02*
X48510000Y-52500000D01*
X81370000Y-50120000D02*
X81370000Y-45000000D01*
X76700000Y-40000000D02*
X76700000Y-45000000D01*
X51050000Y-50120000D02*
X51050000Y-54000000D01*
X76700000Y-45000000D02*
X81370000Y-45000000D01*
X96530000Y-50120000D02*
X96530000Y-54000000D01*
X71290000Y-40000000D02*
X76700000Y-40000000D01*
X66210000Y-50120000D02*
X66210000Y-54000000D01*
X35890000Y-50120000D02*
X35890000Y-54000000D01*
X81370000Y-50120000D02*
X81370000Y-54000000D01*
X38430000Y-42570000D02*
X38430000Y-50120000D01*
X38430000Y-34880000D02*
X38430000Y-42570000D01*
X71290000Y-47500000D02*
X71290000Y-42510000D01*
X86450000Y-50120000D02*
X86450000Y-47500000D01*
X56130000Y-50120000D02*
X56130000Y-47500000D01*
X101610000Y-50120000D02*
X101610000Y-47500000D01*
X40970000Y-50120000D02*
X40970000Y-47500000D01*
X71300000Y-42500000D02*
X75500000Y-42500000D01*
X71290000Y-50120000D02*
X71290000Y-47500000D01*
X71290000Y-42510000D02*
X71300000Y-42500000D01*
X104150000Y-50120000D02*
X104150000Y-46000000D01*
X58670000Y-50120000D02*
X58670000Y-46000000D01*
X73830000Y-50120000D02*
X73830000Y-46000000D01*
X88990000Y-50120000D02*
X88990000Y-46000000D01*
X43510000Y-50120000D02*
X43510000Y-46000000D01*
X43510000Y-34880000D02*
X43510000Y-39000000D01*
X73830000Y-34880000D02*
X73830000Y-39000000D01*
X58670000Y-34880000D02*
X58670000Y-39000000D01*
X88990000Y-34880000D02*
X88990000Y-39000000D01*
X104150000Y-34880000D02*
X104150000Y-39000000D01*
X71290000Y-34880000D02*
X71290000Y-37500000D01*
X56130000Y-34880000D02*
X56130000Y-37500000D01*
X81370000Y-40000000D02*
X81370000Y-37530000D01*
X40970000Y-34880000D02*
X40970000Y-37500000D01*
X86450000Y-34880000D02*
X86450000Y-37500000D01*
X101610000Y-34880000D02*
X101610000Y-37500000D01*
X66210000Y-34880000D02*
X66210000Y-31000000D01*
X66210000Y-34880000D02*
X66210000Y-40000000D01*
X81370000Y-34880000D02*
X81370000Y-31000000D01*
X51050000Y-34880000D02*
X51050000Y-31000000D01*
X63670000Y-40000000D02*
X66210000Y-40000000D01*
X96530000Y-34880000D02*
X96530000Y-31000000D01*
X35890000Y-34880000D02*
X35890000Y-31000000D01*
X63670000Y-34880000D02*
X60670000Y-34880000D01*
X78830000Y-34880000D02*
X78830000Y-32500000D01*
X33350000Y-34880000D02*
X33350000Y-32500000D01*
X48510000Y-34880000D02*
X48510000Y-32500000D01*
X63670000Y-34880000D02*
X63670000Y-32500000D01*
X93990000Y-32500000D02*
X93990000Y-34880000D01*
X60670000Y-42500000D02*
X60670000Y-34880000D01*
X53590000Y-42410000D02*
X53590000Y-50120000D01*
X53590000Y-34880000D02*
X53590000Y-42410000D01*
X68750000Y-42500000D02*
X68750000Y-50120000D01*
X68750000Y-34880000D02*
X68750000Y-42500000D01*
X83910000Y-34880000D02*
X83910000Y-42590000D01*
X83910000Y-42590000D02*
X83910000Y-50120000D01*
X99070000Y-34880000D02*
X99070000Y-42430000D01*
X99070000Y-42430000D02*
X99070000Y-50120000D01*
M02*
