G04 #@! TF.GenerationSoftware,KiCad,Pcbnew,(6.0.10)*
G04 #@! TF.CreationDate,2023-02-05T00:57:15+01:00*
G04 #@! TF.ProjectId,Display-Modul,44697370-6c61-4792-9d4d-6f64756c2e6b,rev?*
G04 #@! TF.SameCoordinates,Original*
G04 #@! TF.FileFunction,Legend,Bot*
G04 #@! TF.FilePolarity,Positive*
%FSLAX46Y46*%
G04 Gerber Fmt 4.6, Leading zero omitted, Abs format (unit mm)*
G04 Created by KiCad (PCBNEW (6.0.10)) date 2023-02-05 00:57:15*
%MOMM*%
%LPD*%
G01*
G04 APERTURE LIST*
G04 Aperture macros list*
%AMRoundRect*
0 Rectangle with rounded corners*
0 $1 Rounding radius*
0 $2 $3 $4 $5 $6 $7 $8 $9 X,Y pos of 4 corners*
0 Add a 4 corners polygon primitive as box body*
4,1,4,$2,$3,$4,$5,$6,$7,$8,$9,$2,$3,0*
0 Add four circle primitives for the rounded corners*
1,1,$1+$1,$2,$3*
1,1,$1+$1,$4,$5*
1,1,$1+$1,$6,$7*
1,1,$1+$1,$8,$9*
0 Add four rect primitives between the rounded corners*
20,1,$1+$1,$2,$3,$4,$5,0*
20,1,$1+$1,$4,$5,$6,$7,0*
20,1,$1+$1,$6,$7,$8,$9,0*
20,1,$1+$1,$8,$9,$2,$3,0*%
G04 Aperture macros list end*
%ADD10C,0.150000*%
%ADD11R,1.524000X2.524000*%
%ADD12O,1.524000X2.524000*%
%ADD13RoundRect,0.500000X0.500000X1.500000X-0.500000X1.500000X-0.500000X-1.500000X0.500000X-1.500000X0*%
%ADD14RoundRect,0.750000X0.750000X1.750000X-0.750000X1.750000X-0.750000X-1.750000X0.750000X-1.750000X0*%
G04 APERTURE END LIST*
D10*
X69083333Y-46152380D02*
X68464285Y-46152380D01*
X68797619Y-46533333D01*
X68654761Y-46533333D01*
X68559523Y-46580952D01*
X68511904Y-46628571D01*
X68464285Y-46723809D01*
X68464285Y-46961904D01*
X68511904Y-47057142D01*
X68559523Y-47104761D01*
X68654761Y-47152380D01*
X68940476Y-47152380D01*
X69035714Y-47104761D01*
X69083333Y-47057142D01*
X81608095Y-38466666D02*
X81131904Y-38466666D01*
X81703333Y-38752380D02*
X81370000Y-37752380D01*
X81036666Y-38752380D01*
X63527142Y-38228571D02*
X63860476Y-38228571D01*
X63860476Y-38752380D02*
X63860476Y-37752380D01*
X63384285Y-37752380D01*
X78758571Y-38228571D02*
X78615714Y-38276190D01*
X78568095Y-38323809D01*
X78520476Y-38419047D01*
X78520476Y-38561904D01*
X78568095Y-38657142D01*
X78615714Y-38704761D01*
X78710952Y-38752380D01*
X79091904Y-38752380D01*
X79091904Y-37752380D01*
X78758571Y-37752380D01*
X78663333Y-37800000D01*
X78615714Y-37847619D01*
X78568095Y-37942857D01*
X78568095Y-38038095D01*
X78615714Y-38133333D01*
X78663333Y-38180952D01*
X78758571Y-38228571D01*
X79091904Y-38228571D01*
X53875714Y-46247619D02*
X53828095Y-46200000D01*
X53732857Y-46152380D01*
X53494761Y-46152380D01*
X53399523Y-46200000D01*
X53351904Y-46247619D01*
X53304285Y-46342857D01*
X53304285Y-46438095D01*
X53351904Y-46580952D01*
X53923333Y-47152380D01*
X53304285Y-47152380D01*
X56891904Y-38752380D02*
X56891904Y-37752380D01*
X56653809Y-37752380D01*
X56510952Y-37800000D01*
X56415714Y-37895238D01*
X56368095Y-37990476D01*
X56320476Y-38180952D01*
X56320476Y-38323809D01*
X56368095Y-38514285D01*
X56415714Y-38609523D01*
X56510952Y-38704761D01*
X56653809Y-38752380D01*
X56891904Y-38752380D01*
X55891904Y-38752380D02*
X55891904Y-37752380D01*
X55510952Y-37752380D01*
X55415714Y-37800000D01*
X55368095Y-37847619D01*
X55320476Y-37942857D01*
X55320476Y-38085714D01*
X55368095Y-38180952D01*
X55415714Y-38228571D01*
X55510952Y-38276190D01*
X55891904Y-38276190D01*
X83719523Y-46485714D02*
X83719523Y-47152380D01*
X83957619Y-46104761D02*
X84195714Y-46819047D01*
X83576666Y-46819047D01*
X66424285Y-38228571D02*
X66090952Y-38228571D01*
X65948095Y-38752380D02*
X66424285Y-38752380D01*
X66424285Y-37752380D01*
X65948095Y-37752380D01*
X73520476Y-38657142D02*
X73568095Y-38704761D01*
X73710952Y-38752380D01*
X73806190Y-38752380D01*
X73949047Y-38704761D01*
X74044285Y-38609523D01*
X74091904Y-38514285D01*
X74139523Y-38323809D01*
X74139523Y-38180952D01*
X74091904Y-37990476D01*
X74044285Y-37895238D01*
X73949047Y-37800000D01*
X73806190Y-37752380D01*
X73710952Y-37752380D01*
X73568095Y-37800000D01*
X73520476Y-37847619D01*
X58408095Y-37800000D02*
X58503333Y-37752380D01*
X58646190Y-37752380D01*
X58789047Y-37800000D01*
X58884285Y-37895238D01*
X58931904Y-37990476D01*
X58979523Y-38180952D01*
X58979523Y-38323809D01*
X58931904Y-38514285D01*
X58884285Y-38609523D01*
X58789047Y-38704761D01*
X58646190Y-38752380D01*
X58550952Y-38752380D01*
X58408095Y-38704761D01*
X58360476Y-38657142D01*
X58360476Y-38323809D01*
X58550952Y-38323809D01*
X38144285Y-47152380D02*
X38715714Y-47152380D01*
X38430000Y-47152380D02*
X38430000Y-46152380D01*
X38525238Y-46295238D01*
X38620476Y-46390476D01*
X38715714Y-46438095D01*
X98831904Y-46152380D02*
X99308095Y-46152380D01*
X99355714Y-46628571D01*
X99308095Y-46580952D01*
X99212857Y-46533333D01*
X98974761Y-46533333D01*
X98879523Y-46580952D01*
X98831904Y-46628571D01*
X98784285Y-46723809D01*
X98784285Y-46961904D01*
X98831904Y-47057142D01*
X98879523Y-47104761D01*
X98974761Y-47152380D01*
X99212857Y-47152380D01*
X99308095Y-47104761D01*
X99355714Y-47057142D01*
X71551904Y-38752380D02*
X71551904Y-37752380D01*
X71313809Y-37752380D01*
X71170952Y-37800000D01*
X71075714Y-37895238D01*
X71028095Y-37990476D01*
X70980476Y-38180952D01*
X70980476Y-38323809D01*
X71028095Y-38514285D01*
X71075714Y-38609523D01*
X71170952Y-38704761D01*
X71313809Y-38752380D01*
X71551904Y-38752380D01*
%LPC*%
D11*
X93990000Y-50120000D03*
D12*
X96530000Y-50120000D03*
X99070000Y-50120000D03*
X101610000Y-50120000D03*
X104150000Y-50120000D03*
X104150000Y-34880000D03*
X101610000Y-34880000D03*
X99070000Y-34880000D03*
X96530000Y-34880000D03*
X93990000Y-34880000D03*
D11*
X48510000Y-50120000D03*
D12*
X51050000Y-50120000D03*
X53590000Y-50120000D03*
X56130000Y-50120000D03*
X58670000Y-50120000D03*
X58670000Y-34880000D03*
X56130000Y-34880000D03*
X53590000Y-34880000D03*
X51050000Y-34880000D03*
X48510000Y-34880000D03*
D11*
X63670000Y-50120000D03*
D12*
X66210000Y-50120000D03*
X68750000Y-50120000D03*
X71290000Y-50120000D03*
X73830000Y-50120000D03*
X73830000Y-34880000D03*
X71290000Y-34880000D03*
X68750000Y-34880000D03*
X66210000Y-34880000D03*
X63670000Y-34880000D03*
D11*
X33350000Y-50120000D03*
D12*
X35890000Y-50120000D03*
X38430000Y-50120000D03*
X40970000Y-50120000D03*
X43510000Y-50120000D03*
X43510000Y-34880000D03*
X40970000Y-34880000D03*
X38430000Y-34880000D03*
X35890000Y-34880000D03*
X33350000Y-34880000D03*
D11*
X78830000Y-50120000D03*
D12*
X81370000Y-50120000D03*
X83910000Y-50120000D03*
X86450000Y-50120000D03*
X88990000Y-50120000D03*
X88990000Y-34880000D03*
X86450000Y-34880000D03*
X83910000Y-34880000D03*
X81370000Y-34880000D03*
X78830000Y-34880000D03*
D13*
X38430000Y-42500000D03*
D14*
X32000000Y-42500000D03*
D13*
X78830000Y-42500000D03*
X83910000Y-42500000D03*
X63670000Y-42500000D03*
X66210000Y-42500000D03*
X71290000Y-42500000D03*
X58670000Y-42500000D03*
X53590000Y-42500000D03*
X99070000Y-42500000D03*
X81370000Y-42500000D03*
D14*
X105500000Y-42500000D03*
D13*
X56130000Y-42500000D03*
X68750000Y-42500000D03*
X73830000Y-42500000D03*
M02*
